<?xml version="1.0" encoding="UTF-8" standalone="no"?>
<!DOCTYPE svg PUBLIC "-//W3C//DTD SVG 1.1//EN"
 "http://www.w3.org/Graphics/SVG/1.1/DTD/svg11.dtd">
<!-- Generated by graphviz version 2.43.0 (0)
 -->
<!-- Title: g Pages: 1 -->
<svg width="1572pt" height="392pt"
 viewBox="0.00 0.00 1572.00 392.00" xmlns="http://www.w3.org/2000/svg" xmlns:xlink="http://www.w3.org/1999/xlink">
<g id="graph0" class="graph" transform="scale(1 1) rotate(0) translate(4 388)">
<title>g</title>
<polygon fill="white" stroke="transparent" points="-4,4 -4,-388 1568,-388 1568,4 -4,4"/>
<g id="clust1" class="cluster">
<title>cluster_actionlib</title>
<polygon fill="none" stroke="black" points="1504,-46 1504,-206 1556,-206 1556,-46 1504,-46"/>
</g>
<!-- action&#45;29 -->
<g id="node1" class="node">
<title>action&#45;29</title>
<polygon fill="white" stroke="black" stroke-width="4" points="1548,-198 1512,-198 1512,-162 1548,-162 1548,-198"/>
</g>
<!-- action&#45;60 -->
<g id="node2" class="node">
<title>action&#45;60</title>
<polygon fill="white" stroke="black" stroke-width="4" points="1548,-144 1512,-144 1512,-108 1548,-108 1548,-144"/>
</g>
<!-- action&#45;64 -->
<g id="node3" class="node">
<title>action&#45;64</title>
<polygon fill="#008000" stroke="black" stroke-width="4" points="1548,-90 1512,-90 1512,-54 1548,-54 1548,-90"/>
</g>
<!-- action&#45;1 -->
<g id="node4" class="node">
<title>action&#45;1</title>
<polygon fill="white" stroke="black" points="36,-384 0,-384 0,-348 36,-348 36,-384"/>
</g>
<!-- cluster&#45;0 -->
<g id="node34" class="node">
<title>cluster&#45;0</title>
<polygon fill="black" stroke="black" stroke-width="0" points="90,-348 72,-348 72,-330 90,-330 90,-348"/>
</g>
<!-- action&#45;1&#45;&#45;cluster&#45;0 -->
<g id="edge16" class="edge">
<title>action&#45;1&#45;&#45;cluster&#45;0</title>
<path fill="none" stroke="black" d="M36.32,-358.34C48.01,-353.16 62.91,-346.57 71.94,-342.57"/>
</g>
<!-- action&#45;3 -->
<g id="node5" class="node">
<title>action&#45;3</title>
<polygon fill="white" stroke="black" points="36,-330 0,-330 0,-294 36,-294 36,-330"/>
</g>
<!-- action&#45;3&#45;&#45;cluster&#45;0 -->
<g id="edge17" class="edge">
<title>action&#45;3&#45;&#45;cluster&#45;0</title>
<path fill="none" stroke="black" d="M36.32,-319.66C48.01,-324.84 62.91,-331.43 71.94,-335.43"/>
</g>
<!-- action&#45;4 -->
<g id="node6" class="node">
<title>action&#45;4</title>
<polygon fill="white" stroke="black" points="162,-357 126,-357 126,-321 162,-321 162,-357"/>
</g>
<!-- cluster&#45;1 -->
<g id="node35" class="node">
<title>cluster&#45;1</title>
<polygon fill="black" stroke="black" stroke-width="0" points="216,-321 198,-321 198,-303 216,-303 216,-321"/>
</g>
<!-- action&#45;4&#45;&#45;cluster&#45;1 -->
<g id="edge18" class="edge">
<title>action&#45;4&#45;&#45;cluster&#45;1</title>
<path fill="none" stroke="black" d="M162.32,-331.34C174.01,-326.16 188.91,-319.57 197.94,-315.57"/>
</g>
<!-- action&#45;7 -->
<g id="node7" class="node">
<title>action&#45;7</title>
<polygon fill="white" stroke="black" points="162,-303 126,-303 126,-267 162,-267 162,-303"/>
</g>
<!-- action&#45;7&#45;&#45;cluster&#45;1 -->
<g id="edge19" class="edge">
<title>action&#45;7&#45;&#45;cluster&#45;1</title>
<path fill="none" stroke="black" d="M162.32,-292.66C174.01,-297.84 188.91,-304.43 197.94,-308.43"/>
</g>
<!-- action&#45;8 -->
<g id="node8" class="node">
<title>action&#45;8</title>
<polygon fill="white" stroke="black" points="288,-330 252,-330 252,-294 288,-294 288,-330"/>
</g>
<!-- cluster&#45;4 -->
<g id="node38" class="node">
<title>cluster&#45;4</title>
<polygon fill="black" stroke="black" stroke-width="0" points="342,-294 324,-294 324,-276 342,-276 342,-294"/>
</g>
<!-- action&#45;8&#45;&#45;cluster&#45;4 -->
<g id="edge24" class="edge">
<title>action&#45;8&#45;&#45;cluster&#45;4</title>
<path fill="none" stroke="black" d="M288.32,-304.34C300.01,-299.16 314.91,-292.57 323.94,-288.57"/>
</g>
<!-- action&#45;11 -->
<g id="node9" class="node">
<title>action&#45;11</title>
<polygon fill="white" stroke="black" points="1170,-276 1134,-276 1134,-240 1170,-240 1170,-276"/>
</g>
<!-- cluster&#45;2 -->
<g id="node36" class="node">
<title>cluster&#45;2</title>
<polygon fill="black" stroke="black" stroke-width="0" points="1224,-233 1206,-233 1206,-215 1224,-215 1224,-233"/>
</g>
<!-- action&#45;11&#45;&#45;cluster&#45;2 -->
<g id="edge20" class="edge">
<title>action&#45;11&#45;&#45;cluster&#45;2</title>
<path fill="none" stroke="black" d="M1170.32,-248.35C1182.01,-241.83 1196.91,-233.53 1205.94,-228.5"/>
</g>
<!-- action&#45;13 -->
<g id="node10" class="node">
<title>action&#45;13</title>
<polygon fill="white" stroke="black" points="1170,-222 1134,-222 1134,-186 1170,-186 1170,-222"/>
</g>
<!-- action&#45;13&#45;&#45;cluster&#45;2 -->
<g id="edge21" class="edge">
<title>action&#45;13&#45;&#45;cluster&#45;2</title>
<path fill="none" stroke="black" d="M1170.32,-209.68C1182.01,-213.51 1196.91,-218.4 1205.94,-221.36"/>
</g>
<!-- action&#45;14 -->
<g id="node11" class="node">
<title>action&#45;14</title>
<polygon fill="white" stroke="black" points="1296,-242 1260,-242 1260,-206 1296,-206 1296,-242"/>
</g>
<!-- cluster&#45;3 -->
<g id="node37" class="node">
<title>cluster&#45;3</title>
<polygon fill="black" stroke="black" stroke-width="0" points="1350,-189 1332,-189 1332,-171 1350,-171 1350,-189"/>
</g>
<!-- action&#45;14&#45;&#45;cluster&#45;3 -->
<g id="edge22" class="edge">
<title>action&#45;14&#45;&#45;cluster&#45;3</title>
<path fill="none" stroke="black" d="M1296.32,-211.51C1308.01,-203.07 1322.91,-192.33 1331.94,-185.82"/>
</g>
<!-- action&#45;17 -->
<g id="node12" class="node">
<title>action&#45;17</title>
<polygon fill="white" stroke="black" points="1296,-188 1260,-188 1260,-152 1296,-152 1296,-188"/>
</g>
<!-- action&#45;17&#45;&#45;cluster&#45;3 -->
<g id="edge23" class="edge">
<title>action&#45;17&#45;&#45;cluster&#45;3</title>
<path fill="none" stroke="black" d="M1296.32,-172.84C1308.01,-174.76 1322.91,-177.2 1331.94,-178.68"/>
</g>
<!-- action&#45;18 -->
<g id="node13" class="node">
<title>action&#45;18</title>
<polygon fill="white" stroke="black" points="1422,-198 1386,-198 1386,-162 1422,-162 1422,-198"/>
</g>
<!-- cluster&#45;13 -->
<g id="node47" class="node">
<title>cluster&#45;13</title>
<polygon fill="black" stroke="black" stroke-width="0" points="1476,-135 1458,-135 1458,-117 1476,-117 1476,-135"/>
</g>
<!-- action&#45;18&#45;&#45;cluster&#45;13 -->
<g id="edge42" class="edge">
<title>action&#45;18&#45;&#45;cluster&#45;13</title>
<path fill="none" stroke="black" d="M1422.32,-164.67C1434.01,-154.32 1448.91,-141.13 1457.94,-133.14"/>
</g>
<!-- action&#45;21 -->
<g id="node14" class="node">
<title>action&#45;21</title>
<polygon fill="white" stroke="black" points="288,-276 252,-276 252,-240 288,-240 288,-276"/>
</g>
<!-- action&#45;21&#45;&#45;cluster&#45;4 -->
<g id="edge25" class="edge">
<title>action&#45;21&#45;&#45;cluster&#45;4</title>
<path fill="none" stroke="black" d="M288.32,-265.66C300.01,-270.84 314.91,-277.43 323.94,-281.43"/>
</g>
<!-- action&#45;22 -->
<g id="node15" class="node">
<title>action&#45;22</title>
<polygon fill="white" stroke="black" points="414,-303 378,-303 378,-267 414,-267 414,-303"/>
</g>
<!-- cluster&#45;5 -->
<g id="node39" class="node">
<title>cluster&#45;5</title>
<polygon fill="black" stroke="black" stroke-width="0" points="468,-267 450,-267 450,-249 468,-249 468,-267"/>
</g>
<!-- action&#45;22&#45;&#45;cluster&#45;5 -->
<g id="edge26" class="edge">
<title>action&#45;22&#45;&#45;cluster&#45;5</title>
<path fill="none" stroke="black" d="M414.32,-277.34C426.01,-272.16 440.91,-265.57 449.94,-261.57"/>
</g>
<!-- action&#45;25 -->
<g id="node16" class="node">
<title>action&#45;25</title>
<polygon fill="white" stroke="black" points="414,-249 378,-249 378,-213 414,-213 414,-249"/>
</g>
<!-- action&#45;25&#45;&#45;cluster&#45;5 -->
<g id="edge27" class="edge">
<title>action&#45;25&#45;&#45;cluster&#45;5</title>
<path fill="none" stroke="black" d="M414.32,-238.66C426.01,-243.84 440.91,-250.43 449.94,-254.43"/>
</g>
<!-- action&#45;26 -->
<g id="node17" class="node">
<title>action&#45;26</title>
<polygon fill="white" stroke="black" points="540,-276 504,-276 504,-240 540,-240 540,-276"/>
</g>
<!-- cluster&#45;6 -->
<g id="node40" class="node">
<title>cluster&#45;6</title>
<polygon fill="black" stroke="black" stroke-width="0" points="594,-240 576,-240 576,-222 594,-222 594,-240"/>
</g>
<!-- action&#45;26&#45;&#45;cluster&#45;6 -->
<g id="edge28" class="edge">
<title>action&#45;26&#45;&#45;cluster&#45;6</title>
<path fill="none" stroke="black" d="M540.32,-250.34C552.01,-245.16 566.91,-238.57 575.94,-234.57"/>
</g>
<!-- action&#45;31 -->
<g id="node18" class="node">
<title>action&#45;31</title>
<polygon fill="white" stroke="black" points="540,-222 504,-222 504,-186 540,-186 540,-222"/>
</g>
<!-- action&#45;31&#45;&#45;cluster&#45;6 -->
<g id="edge29" class="edge">
<title>action&#45;31&#45;&#45;cluster&#45;6</title>
<path fill="none" stroke="black" d="M540.32,-211.66C552.01,-216.84 566.91,-223.43 575.94,-227.43"/>
</g>
<!-- action&#45;32 -->
<g id="node19" class="node">
<title>action&#45;32</title>
<polygon fill="white" stroke="black" points="666,-249 630,-249 630,-213 666,-213 666,-249"/>
</g>
<!-- cluster&#45;7 -->
<g id="node41" class="node">
<title>cluster&#45;7</title>
<polygon fill="black" stroke="black" stroke-width="0" points="720,-213 702,-213 702,-195 720,-195 720,-213"/>
</g>
<!-- action&#45;32&#45;&#45;cluster&#45;7 -->
<g id="edge30" class="edge">
<title>action&#45;32&#45;&#45;cluster&#45;7</title>
<path fill="none" stroke="black" d="M666.32,-223.34C678.01,-218.16 692.91,-211.57 701.94,-207.57"/>
</g>
<!-- action&#45;35 -->
<g id="node20" class="node">
<title>action&#45;35</title>
<polygon fill="white" stroke="black" points="666,-195 630,-195 630,-159 666,-159 666,-195"/>
</g>
<!-- action&#45;35&#45;&#45;cluster&#45;7 -->
<g id="edge31" class="edge">
<title>action&#45;35&#45;&#45;cluster&#45;7</title>
<path fill="none" stroke="black" d="M666.32,-184.66C678.01,-189.84 692.91,-196.43 701.94,-200.43"/>
</g>
<!-- action&#45;36 -->
<g id="node21" class="node">
<title>action&#45;36</title>
<polygon fill="white" stroke="black" points="792,-222 756,-222 756,-186 792,-186 792,-222"/>
</g>
<!-- cluster&#45;8 -->
<g id="node42" class="node">
<title>cluster&#45;8</title>
<polygon fill="black" stroke="black" stroke-width="0" points="846,-186 828,-186 828,-168 846,-168 846,-186"/>
</g>
<!-- action&#45;36&#45;&#45;cluster&#45;8 -->
<g id="edge32" class="edge">
<title>action&#45;36&#45;&#45;cluster&#45;8</title>
<path fill="none" stroke="black" d="M792.32,-196.34C804.01,-191.16 818.91,-184.57 827.94,-180.57"/>
</g>
<!-- action&#45;39 -->
<g id="node22" class="node">
<title>action&#45;39</title>
<polygon fill="white" stroke="black" points="792,-168 756,-168 756,-132 792,-132 792,-168"/>
</g>
<!-- action&#45;39&#45;&#45;cluster&#45;8 -->
<g id="edge33" class="edge">
<title>action&#45;39&#45;&#45;cluster&#45;8</title>
<path fill="none" stroke="black" d="M792.32,-157.66C804.01,-162.84 818.91,-169.43 827.94,-173.43"/>
</g>
<!-- action&#45;40 -->
<g id="node23" class="node">
<title>action&#45;40</title>
<polygon fill="white" stroke="black" points="918,-195 882,-195 882,-159 918,-159 918,-195"/>
</g>
<!-- cluster&#45;9 -->
<g id="node43" class="node">
<title>cluster&#45;9</title>
<polygon fill="black" stroke="black" stroke-width="0" points="972,-159 954,-159 954,-141 972,-141 972,-159"/>
</g>
<!-- action&#45;40&#45;&#45;cluster&#45;9 -->
<g id="edge34" class="edge">
<title>action&#45;40&#45;&#45;cluster&#45;9</title>
<path fill="none" stroke="black" d="M918.32,-169.34C930.01,-164.16 944.91,-157.57 953.94,-153.57"/>
</g>
<!-- action&#45;43 -->
<g id="node24" class="node">
<title>action&#45;43</title>
<polygon fill="white" stroke="black" points="918,-141 882,-141 882,-105 918,-105 918,-141"/>
</g>
<!-- action&#45;43&#45;&#45;cluster&#45;9 -->
<g id="edge35" class="edge">
<title>action&#45;43&#45;&#45;cluster&#45;9</title>
<path fill="none" stroke="black" d="M918.32,-130.66C930.01,-135.84 944.91,-142.43 953.94,-146.43"/>
</g>
<!-- action&#45;44 -->
<g id="node25" class="node">
<title>action&#45;44</title>
<polygon fill="white" stroke="black" points="1044,-168 1008,-168 1008,-132 1044,-132 1044,-168"/>
</g>
<!-- cluster&#45;10 -->
<g id="node44" class="node">
<title>cluster&#45;10</title>
<polygon fill="black" stroke="black" stroke-width="0" points="1098,-132 1080,-132 1080,-114 1098,-114 1098,-132"/>
</g>
<!-- action&#45;44&#45;&#45;cluster&#45;10 -->
<g id="edge36" class="edge">
<title>action&#45;44&#45;&#45;cluster&#45;10</title>
<path fill="none" stroke="black" d="M1044.32,-142.34C1056.01,-137.16 1070.91,-130.57 1079.94,-126.57"/>
</g>
<!-- action&#45;47 -->
<g id="node26" class="node">
<title>action&#45;47</title>
<polygon fill="white" stroke="black" points="1044,-114 1008,-114 1008,-78 1044,-78 1044,-114"/>
</g>
<!-- action&#45;47&#45;&#45;cluster&#45;10 -->
<g id="edge37" class="edge">
<title>action&#45;47&#45;&#45;cluster&#45;10</title>
<path fill="none" stroke="black" d="M1044.32,-103.66C1056.01,-108.84 1070.91,-115.43 1079.94,-119.43"/>
</g>
<!-- action&#45;48 -->
<g id="node27" class="node">
<title>action&#45;48</title>
<polygon fill="white" stroke="black" points="1170,-141 1134,-141 1134,-105 1170,-105 1170,-141"/>
</g>
<!-- cluster&#45;11 -->
<g id="node45" class="node">
<title>cluster&#45;11</title>
<polygon fill="black" stroke="black" stroke-width="0" points="1224,-91 1206,-91 1206,-73 1224,-73 1224,-91"/>
</g>
<!-- action&#45;48&#45;&#45;cluster&#45;11 -->
<g id="edge38" class="edge">
<title>action&#45;48&#45;&#45;cluster&#45;11</title>
<path fill="none" stroke="black" d="M1170.32,-111.36C1182.01,-103.5 1196.91,-93.49 1205.94,-87.42"/>
</g>
<!-- action&#45;51 -->
<g id="node28" class="node">
<title>action&#45;51</title>
<polygon fill="white" stroke="black" points="1170,-87 1134,-87 1134,-51 1170,-51 1170,-87"/>
</g>
<!-- action&#45;51&#45;&#45;cluster&#45;11 -->
<g id="edge39" class="edge">
<title>action&#45;51&#45;&#45;cluster&#45;11</title>
<path fill="none" stroke="black" d="M1170.32,-72.69C1182.01,-75.18 1196.91,-78.36 1205.94,-80.28"/>
</g>
<!-- action&#45;52 -->
<g id="node29" class="node">
<title>action&#45;52</title>
<polygon fill="white" stroke="black" points="1296,-100 1260,-100 1260,-64 1296,-64 1296,-100"/>
</g>
<!-- cluster&#45;12 -->
<g id="node46" class="node">
<title>cluster&#45;12</title>
<polygon fill="black" stroke="black" stroke-width="0" points="1350,-81 1332,-81 1332,-63 1350,-63 1350,-81"/>
</g>
<!-- action&#45;52&#45;&#45;cluster&#45;12 -->
<g id="edge40" class="edge">
<title>action&#45;52&#45;&#45;cluster&#45;12</title>
<path fill="none" stroke="black" d="M1296.32,-79.16C1308.01,-77.24 1322.91,-74.8 1331.94,-73.32"/>
</g>
<!-- action&#45;55 -->
<g id="node30" class="node">
<title>action&#45;55</title>
<polygon fill="white" stroke="black" points="1296,-46 1260,-46 1260,-10 1296,-10 1296,-46"/>
</g>
<!-- action&#45;55&#45;&#45;cluster&#45;12 -->
<g id="edge41" class="edge">
<title>action&#45;55&#45;&#45;cluster&#45;12</title>
<path fill="none" stroke="black" d="M1296.32,-40.49C1308.01,-48.93 1322.91,-59.67 1331.94,-66.18"/>
</g>
<!-- action&#45;56 -->
<g id="node31" class="node">
<title>action&#45;56</title>
<polygon fill="#c9211e" stroke="black" points="1422,-90 1386,-90 1386,-54 1422,-54 1422,-90"/>
</g>
<!-- cluster&#45;14 -->
<g id="node48" class="node">
<title>cluster&#45;14</title>
<polygon fill="black" stroke="black" stroke-width="0" points="1476,-81 1458,-81 1458,-63 1476,-63 1476,-81"/>
</g>
<!-- action&#45;56&#45;&#45;cluster&#45;14 -->
<g id="edge44" class="edge">
<title>action&#45;56&#45;&#45;cluster&#45;14</title>
<path fill="none" stroke="black" d="M1422.32,-72C1434.01,-72 1448.91,-72 1457.94,-72"/>
</g>
<!-- action&#45;59 -->
<g id="node32" class="node">
<title>action&#45;59</title>
<polygon fill="white" stroke="black" points="1422,-144 1386,-144 1386,-108 1422,-108 1422,-144"/>
</g>
<!-- action&#45;59&#45;&#45;cluster&#45;13 -->
<g id="edge43" class="edge">
<title>action&#45;59&#45;&#45;cluster&#45;13</title>
<path fill="none" stroke="black" d="M1422.32,-126C1434.01,-126 1448.91,-126 1457.94,-126"/>
</g>
<!-- action&#45;63 -->
<g id="node33" class="node">
<title>action&#45;63</title>
<polygon fill="#00008b" stroke="black" points="1422,-36 1386,-36 1386,0 1422,0 1422,-36"/>
</g>
<!-- action&#45;63&#45;&#45;cluster&#45;14 -->
<g id="edge45" class="edge">
<title>action&#45;63&#45;&#45;cluster&#45;14</title>
<path fill="none" stroke="black" d="M1422.32,-33.33C1434.01,-43.68 1448.91,-56.87 1457.94,-64.86"/>
</g>
<!-- cluster&#45;0&#45;&#45;action&#45;4 -->
<g id="edge1" class="edge">
<title>cluster&#45;0&#45;&#45;action&#45;4</title>
<path fill="none" stroke="black" d="M90.23,-339C99.33,-339 114.26,-339 125.92,-339"/>
</g>
<!-- cluster&#45;1&#45;&#45;action&#45;8 -->
<g id="edge2" class="edge">
<title>cluster&#45;1&#45;&#45;action&#45;8</title>
<path fill="none" stroke="black" d="M216.23,-312C225.33,-312 240.26,-312 251.92,-312"/>
</g>
<!-- cluster&#45;2&#45;&#45;action&#45;14 -->
<g id="edge3" class="edge">
<title>cluster&#45;2&#45;&#45;action&#45;14</title>
<path fill="none" stroke="black" d="M1224.23,-224C1233.33,-224 1248.26,-224 1259.92,-224"/>
</g>
<!-- cluster&#45;3&#45;&#45;action&#45;18 -->
<g id="edge4" class="edge">
<title>cluster&#45;3&#45;&#45;action&#45;18</title>
<path fill="none" stroke="black" d="M1350.23,-180C1359.33,-180 1374.26,-180 1385.92,-180"/>
</g>
<!-- cluster&#45;4&#45;&#45;action&#45;22 -->
<g id="edge5" class="edge">
<title>cluster&#45;4&#45;&#45;action&#45;22</title>
<path fill="none" stroke="black" d="M342.23,-285C351.33,-285 366.26,-285 377.92,-285"/>
</g>
<!-- cluster&#45;5&#45;&#45;action&#45;26 -->
<g id="edge6" class="edge">
<title>cluster&#45;5&#45;&#45;action&#45;26</title>
<path fill="none" stroke="black" d="M468.23,-258C477.33,-258 492.26,-258 503.92,-258"/>
</g>
<!-- cluster&#45;6&#45;&#45;action&#45;32 -->
<g id="edge7" class="edge">
<title>cluster&#45;6&#45;&#45;action&#45;32</title>
<path fill="none" stroke="black" d="M594.23,-231C603.33,-231 618.26,-231 629.92,-231"/>
</g>
<!-- cluster&#45;7&#45;&#45;action&#45;36 -->
<g id="edge8" class="edge">
<title>cluster&#45;7&#45;&#45;action&#45;36</title>
<path fill="none" stroke="black" d="M720.23,-204C729.33,-204 744.26,-204 755.92,-204"/>
</g>
<!-- cluster&#45;8&#45;&#45;action&#45;40 -->
<g id="edge9" class="edge">
<title>cluster&#45;8&#45;&#45;action&#45;40</title>
<path fill="none" stroke="black" d="M846.23,-177C855.33,-177 870.26,-177 881.92,-177"/>
</g>
<!-- cluster&#45;9&#45;&#45;action&#45;44 -->
<g id="edge10" class="edge">
<title>cluster&#45;9&#45;&#45;action&#45;44</title>
<path fill="none" stroke="black" d="M972.23,-150C981.33,-150 996.26,-150 1007.92,-150"/>
</g>
<!-- cluster&#45;10&#45;&#45;action&#45;48 -->
<g id="edge11" class="edge">
<title>cluster&#45;10&#45;&#45;action&#45;48</title>
<path fill="none" stroke="black" d="M1098.23,-123C1107.33,-123 1122.26,-123 1133.92,-123"/>
</g>
<!-- cluster&#45;11&#45;&#45;action&#45;52 -->
<g id="edge12" class="edge">
<title>cluster&#45;11&#45;&#45;action&#45;52</title>
<path fill="none" stroke="black" d="M1224.23,-82C1233.33,-82 1248.26,-82 1259.92,-82"/>
</g>
<!-- cluster&#45;12&#45;&#45;action&#45;56 -->
<g id="edge13" class="edge">
<title>cluster&#45;12&#45;&#45;action&#45;56</title>
<path fill="none" stroke="black" d="M1350.23,-72C1359.33,-72 1374.26,-72 1385.92,-72"/>
</g>
<!-- cluster&#45;13&#45;&#45;action&#45;60 -->
<g id="edge14" class="edge">
<title>cluster&#45;13&#45;&#45;action&#45;60</title>
<path fill="none" stroke="black" d="M1476.23,-126C1485.33,-126 1500.26,-126 1511.92,-126"/>
</g>
<!-- cluster&#45;14&#45;&#45;action&#45;64 -->
<g id="edge15" class="edge">
<title>cluster&#45;14&#45;&#45;action&#45;64</title>
<path fill="none" stroke="black" d="M1476.23,-72C1485.33,-72 1500.26,-72 1511.92,-72"/>
</g>
</g>
</svg>
