<?xml version="1.0" encoding="UTF-8" standalone="no"?>
<!DOCTYPE svg PUBLIC "-//W3C//DTD SVG 1.1//EN"
 "http://www.w3.org/Graphics/SVG/1.1/DTD/svg11.dtd">
<!-- Generated by graphviz version 2.43.0 (0)
 -->
<!-- Title: g Pages: 1 -->
<svg width="3084pt" height="950pt"
 viewBox="0.00 0.00 3084.00 950.00" xmlns="http://www.w3.org/2000/svg" xmlns:xlink="http://www.w3.org/1999/xlink">
<g id="graph0" class="graph" transform="scale(1 1) rotate(0) translate(4 946)">
<title>g</title>
<polygon fill="white" stroke="transparent" points="-4,4 -4,-946 3080,-946 3080,4 -4,4"/>
<g id="clust1" class="cluster">
<title>cluster_actionlib</title>
<polygon fill="none" stroke="black" points="3016,-46 3016,-260 3068,-260 3068,-46 3016,-46"/>
</g>
<!-- action&#45;112 -->
<g id="node1" class="node">
<title>action&#45;112</title>
<polygon fill="white" stroke="black" stroke-width="4" points="3060,-252 3024,-252 3024,-216 3060,-216 3060,-252"/>
</g>
<!-- action&#45;132 -->
<g id="node2" class="node">
<title>action&#45;132</title>
<polygon fill="white" stroke="black" stroke-width="4" points="3060,-198 3024,-198 3024,-162 3060,-162 3060,-198"/>
</g>
<!-- action&#45;135 -->
<g id="node3" class="node">
<title>action&#45;135</title>
<polygon fill="white" stroke="black" stroke-width="4" points="3060,-144 3024,-144 3024,-108 3060,-108 3060,-144"/>
</g>
<!-- action&#45;138 -->
<g id="node4" class="node">
<title>action&#45;138</title>
<polygon fill="#008000" stroke="black" stroke-width="4" points="3060,-90 3024,-90 3024,-54 3060,-54 3060,-90"/>
</g>
<!-- action&#45;1 -->
<g id="node5" class="node">
<title>action&#45;1</title>
<polygon fill="white" stroke="black" points="36,-942 0,-942 0,-906 36,-906 36,-942"/>
</g>
<!-- cluster&#45;0 -->
<g id="node71" class="node">
<title>cluster&#45;0</title>
<polygon fill="black" stroke="black" stroke-width="0" points="90,-906 72,-906 72,-888 90,-888 90,-906"/>
</g>
<!-- action&#45;1&#45;&#45;cluster&#45;0 -->
<g id="edge34" class="edge">
<title>action&#45;1&#45;&#45;cluster&#45;0</title>
<path fill="none" stroke="black" d="M36.32,-916.34C48.01,-911.16 62.91,-904.57 71.94,-900.57"/>
</g>
<!-- action&#45;3 -->
<g id="node6" class="node">
<title>action&#45;3</title>
<polygon fill="white" stroke="black" points="36,-888 0,-888 0,-852 36,-852 36,-888"/>
</g>
<!-- action&#45;3&#45;&#45;cluster&#45;0 -->
<g id="edge35" class="edge">
<title>action&#45;3&#45;&#45;cluster&#45;0</title>
<path fill="none" stroke="black" d="M36.32,-877.66C48.01,-882.84 62.91,-889.43 71.94,-893.43"/>
</g>
<!-- action&#45;4 -->
<g id="node7" class="node">
<title>action&#45;4</title>
<polygon fill="white" stroke="black" points="162,-915 126,-915 126,-879 162,-879 162,-915"/>
</g>
<!-- cluster&#45;1 -->
<g id="node72" class="node">
<title>cluster&#45;1</title>
<polygon fill="black" stroke="black" stroke-width="0" points="216,-879 198,-879 198,-861 216,-861 216,-879"/>
</g>
<!-- action&#45;4&#45;&#45;cluster&#45;1 -->
<g id="edge36" class="edge">
<title>action&#45;4&#45;&#45;cluster&#45;1</title>
<path fill="none" stroke="black" d="M162.32,-889.34C174.01,-884.16 188.91,-877.57 197.94,-873.57"/>
</g>
<!-- action&#45;7 -->
<g id="node8" class="node">
<title>action&#45;7</title>
<polygon fill="white" stroke="black" points="162,-861 126,-861 126,-825 162,-825 162,-861"/>
</g>
<!-- action&#45;7&#45;&#45;cluster&#45;1 -->
<g id="edge37" class="edge">
<title>action&#45;7&#45;&#45;cluster&#45;1</title>
<path fill="none" stroke="black" d="M162.32,-850.66C174.01,-855.84 188.91,-862.43 197.94,-866.43"/>
</g>
<!-- action&#45;8 -->
<g id="node9" class="node">
<title>action&#45;8</title>
<polygon fill="white" stroke="black" points="288,-888 252,-888 252,-852 288,-852 288,-888"/>
</g>
<!-- cluster&#45;4 -->
<g id="node75" class="node">
<title>cluster&#45;4</title>
<polygon fill="black" stroke="black" stroke-width="0" points="342,-852 324,-852 324,-834 342,-834 342,-852"/>
</g>
<!-- action&#45;8&#45;&#45;cluster&#45;4 -->
<g id="edge42" class="edge">
<title>action&#45;8&#45;&#45;cluster&#45;4</title>
<path fill="none" stroke="black" d="M288.32,-862.34C300.01,-857.16 314.91,-850.57 323.94,-846.57"/>
</g>
<!-- action&#45;11 -->
<g id="node10" class="node">
<title>action&#45;11</title>
<polygon fill="white" stroke="black" points="2052,-645 2016,-645 2016,-609 2052,-609 2052,-645"/>
</g>
<!-- cluster&#45;2 -->
<g id="node73" class="node">
<title>cluster&#45;2</title>
<polygon fill="black" stroke="black" stroke-width="0" points="2106,-602 2088,-602 2088,-584 2106,-584 2106,-602"/>
</g>
<!-- action&#45;11&#45;&#45;cluster&#45;2 -->
<g id="edge38" class="edge">
<title>action&#45;11&#45;&#45;cluster&#45;2</title>
<path fill="none" stroke="black" d="M2052.32,-617.35C2064.01,-610.83 2078.91,-602.53 2087.94,-597.5"/>
</g>
<!-- action&#45;13 -->
<g id="node11" class="node">
<title>action&#45;13</title>
<polygon fill="white" stroke="black" points="2052,-591 2016,-591 2016,-555 2052,-555 2052,-591"/>
</g>
<!-- action&#45;13&#45;&#45;cluster&#45;2 -->
<g id="edge39" class="edge">
<title>action&#45;13&#45;&#45;cluster&#45;2</title>
<path fill="none" stroke="black" d="M2052.32,-578.68C2064.01,-582.51 2078.91,-587.4 2087.94,-590.36"/>
</g>
<!-- action&#45;14 -->
<g id="node12" class="node">
<title>action&#45;14</title>
<polygon fill="white" stroke="black" points="2178,-611 2142,-611 2142,-575 2178,-575 2178,-611"/>
</g>
<!-- cluster&#45;3 -->
<g id="node74" class="node">
<title>cluster&#45;3</title>
<polygon fill="black" stroke="black" stroke-width="0" points="2232,-558 2214,-558 2214,-540 2232,-540 2232,-558"/>
</g>
<!-- action&#45;14&#45;&#45;cluster&#45;3 -->
<g id="edge40" class="edge">
<title>action&#45;14&#45;&#45;cluster&#45;3</title>
<path fill="none" stroke="black" d="M2178.32,-580.51C2190.01,-572.07 2204.91,-561.33 2213.94,-554.82"/>
</g>
<!-- action&#45;17 -->
<g id="node13" class="node">
<title>action&#45;17</title>
<polygon fill="white" stroke="black" points="2178,-557 2142,-557 2142,-521 2178,-521 2178,-557"/>
</g>
<!-- action&#45;17&#45;&#45;cluster&#45;3 -->
<g id="edge41" class="edge">
<title>action&#45;17&#45;&#45;cluster&#45;3</title>
<path fill="none" stroke="black" d="M2178.32,-541.84C2190.01,-543.76 2204.91,-546.2 2213.94,-547.68"/>
</g>
<!-- action&#45;18 -->
<g id="node14" class="node">
<title>action&#45;18</title>
<polygon fill="white" stroke="black" points="2304,-567 2268,-567 2268,-531 2304,-531 2304,-567"/>
</g>
<!-- cluster&#45;13 -->
<g id="node84" class="node">
<title>cluster&#45;13</title>
<polygon fill="black" stroke="black" stroke-width="0" points="2358,-509 2340,-509 2340,-491 2358,-491 2358,-509"/>
</g>
<!-- action&#45;18&#45;&#45;cluster&#45;13 -->
<g id="edge60" class="edge">
<title>action&#45;18&#45;&#45;cluster&#45;13</title>
<path fill="none" stroke="black" d="M2304.32,-535.09C2316.01,-525.7 2330.91,-513.73 2339.94,-506.48"/>
</g>
<!-- action&#45;21 -->
<g id="node15" class="node">
<title>action&#45;21</title>
<polygon fill="white" stroke="black" points="288,-834 252,-834 252,-798 288,-798 288,-834"/>
</g>
<!-- action&#45;21&#45;&#45;cluster&#45;4 -->
<g id="edge43" class="edge">
<title>action&#45;21&#45;&#45;cluster&#45;4</title>
<path fill="none" stroke="black" d="M288.32,-823.66C300.01,-828.84 314.91,-835.43 323.94,-839.43"/>
</g>
<!-- action&#45;22 -->
<g id="node16" class="node">
<title>action&#45;22</title>
<polygon fill="white" stroke="black" points="414,-861 378,-861 378,-825 414,-825 414,-861"/>
</g>
<!-- cluster&#45;5 -->
<g id="node76" class="node">
<title>cluster&#45;5</title>
<polygon fill="black" stroke="black" stroke-width="0" points="468,-825 450,-825 450,-807 468,-807 468,-825"/>
</g>
<!-- action&#45;22&#45;&#45;cluster&#45;5 -->
<g id="edge44" class="edge">
<title>action&#45;22&#45;&#45;cluster&#45;5</title>
<path fill="none" stroke="black" d="M414.32,-835.34C426.01,-830.16 440.91,-823.57 449.94,-819.57"/>
</g>
<!-- action&#45;25 -->
<g id="node17" class="node">
<title>action&#45;25</title>
<polygon fill="white" stroke="black" points="414,-807 378,-807 378,-771 414,-771 414,-807"/>
</g>
<!-- action&#45;25&#45;&#45;cluster&#45;5 -->
<g id="edge45" class="edge">
<title>action&#45;25&#45;&#45;cluster&#45;5</title>
<path fill="none" stroke="black" d="M414.32,-796.66C426.01,-801.84 440.91,-808.43 449.94,-812.43"/>
</g>
<!-- action&#45;26 -->
<g id="node18" class="node">
<title>action&#45;26</title>
<polygon fill="white" stroke="black" points="540,-834 504,-834 504,-798 540,-798 540,-834"/>
</g>
<!-- cluster&#45;6 -->
<g id="node77" class="node">
<title>cluster&#45;6</title>
<polygon fill="black" stroke="black" stroke-width="0" points="594,-798 576,-798 576,-780 594,-780 594,-798"/>
</g>
<!-- action&#45;26&#45;&#45;cluster&#45;6 -->
<g id="edge46" class="edge">
<title>action&#45;26&#45;&#45;cluster&#45;6</title>
<path fill="none" stroke="black" d="M540.32,-808.34C552.01,-803.16 566.91,-796.57 575.94,-792.57"/>
</g>
<!-- action&#45;29 -->
<g id="node19" class="node">
<title>action&#45;29</title>
<polygon fill="#c9211e" stroke="black" points="2934,-90 2898,-90 2898,-54 2934,-54 2934,-90"/>
</g>
<!-- cluster&#45;32 -->
<g id="node103" class="node">
<title>cluster&#45;32</title>
<polygon fill="black" stroke="black" stroke-width="0" points="2988,-81 2970,-81 2970,-63 2988,-63 2988,-81"/>
</g>
<!-- action&#45;29&#45;&#45;cluster&#45;32 -->
<g id="edge98" class="edge">
<title>action&#45;29&#45;&#45;cluster&#45;32</title>
<path fill="none" stroke="black" d="M2934.32,-72C2946.01,-72 2960.91,-72 2969.94,-72"/>
</g>
<!-- action&#45;31 -->
<g id="node20" class="node">
<title>action&#45;31</title>
<polygon fill="white" stroke="black" points="540,-780 504,-780 504,-744 540,-744 540,-780"/>
</g>
<!-- action&#45;31&#45;&#45;cluster&#45;6 -->
<g id="edge47" class="edge">
<title>action&#45;31&#45;&#45;cluster&#45;6</title>
<path fill="none" stroke="black" d="M540.32,-769.66C552.01,-774.84 566.91,-781.43 575.94,-785.43"/>
</g>
<!-- action&#45;32 -->
<g id="node21" class="node">
<title>action&#45;32</title>
<polygon fill="white" stroke="black" points="666,-807 630,-807 630,-771 666,-771 666,-807"/>
</g>
<!-- cluster&#45;7 -->
<g id="node78" class="node">
<title>cluster&#45;7</title>
<polygon fill="black" stroke="black" stroke-width="0" points="720,-771 702,-771 702,-753 720,-753 720,-771"/>
</g>
<!-- action&#45;32&#45;&#45;cluster&#45;7 -->
<g id="edge48" class="edge">
<title>action&#45;32&#45;&#45;cluster&#45;7</title>
<path fill="none" stroke="black" d="M666.32,-781.34C678.01,-776.16 692.91,-769.57 701.94,-765.57"/>
</g>
<!-- action&#45;35 -->
<g id="node22" class="node">
<title>action&#45;35</title>
<polygon fill="white" stroke="black" points="666,-753 630,-753 630,-717 666,-717 666,-753"/>
</g>
<!-- action&#45;35&#45;&#45;cluster&#45;7 -->
<g id="edge49" class="edge">
<title>action&#45;35&#45;&#45;cluster&#45;7</title>
<path fill="none" stroke="black" d="M666.32,-742.66C678.01,-747.84 692.91,-754.43 701.94,-758.43"/>
</g>
<!-- action&#45;36 -->
<g id="node23" class="node">
<title>action&#45;36</title>
<polygon fill="white" stroke="black" points="792,-780 756,-780 756,-744 792,-744 792,-780"/>
</g>
<!-- cluster&#45;8 -->
<g id="node79" class="node">
<title>cluster&#45;8</title>
<polygon fill="black" stroke="black" stroke-width="0" points="846,-744 828,-744 828,-726 846,-726 846,-744"/>
</g>
<!-- action&#45;36&#45;&#45;cluster&#45;8 -->
<g id="edge50" class="edge">
<title>action&#45;36&#45;&#45;cluster&#45;8</title>
<path fill="none" stroke="black" d="M792.32,-754.34C804.01,-749.16 818.91,-742.57 827.94,-738.57"/>
</g>
<!-- action&#45;39 -->
<g id="node24" class="node">
<title>action&#45;39</title>
<polygon fill="white" stroke="black" points="792,-726 756,-726 756,-690 792,-690 792,-726"/>
</g>
<!-- action&#45;39&#45;&#45;cluster&#45;8 -->
<g id="edge51" class="edge">
<title>action&#45;39&#45;&#45;cluster&#45;8</title>
<path fill="none" stroke="black" d="M792.32,-715.66C804.01,-720.84 818.91,-727.43 827.94,-731.43"/>
</g>
<!-- action&#45;40 -->
<g id="node25" class="node">
<title>action&#45;40</title>
<polygon fill="white" stroke="black" points="918,-753 882,-753 882,-717 918,-717 918,-753"/>
</g>
<!-- cluster&#45;9 -->
<g id="node80" class="node">
<title>cluster&#45;9</title>
<polygon fill="black" stroke="black" stroke-width="0" points="972,-717 954,-717 954,-699 972,-699 972,-717"/>
</g>
<!-- action&#45;40&#45;&#45;cluster&#45;9 -->
<g id="edge52" class="edge">
<title>action&#45;40&#45;&#45;cluster&#45;9</title>
<path fill="none" stroke="black" d="M918.32,-727.34C930.01,-722.16 944.91,-715.57 953.94,-711.57"/>
</g>
<!-- action&#45;43 -->
<g id="node26" class="node">
<title>action&#45;43</title>
<polygon fill="white" stroke="black" points="918,-699 882,-699 882,-663 918,-663 918,-699"/>
</g>
<!-- action&#45;43&#45;&#45;cluster&#45;9 -->
<g id="edge53" class="edge">
<title>action&#45;43&#45;&#45;cluster&#45;9</title>
<path fill="none" stroke="black" d="M918.32,-688.66C930.01,-693.84 944.91,-700.43 953.94,-704.43"/>
</g>
<!-- action&#45;44 -->
<g id="node27" class="node">
<title>action&#45;44</title>
<polygon fill="white" stroke="black" points="1044,-726 1008,-726 1008,-690 1044,-690 1044,-726"/>
</g>
<!-- cluster&#45;10 -->
<g id="node81" class="node">
<title>cluster&#45;10</title>
<polygon fill="black" stroke="black" stroke-width="0" points="1098,-690 1080,-690 1080,-672 1098,-672 1098,-690"/>
</g>
<!-- action&#45;44&#45;&#45;cluster&#45;10 -->
<g id="edge54" class="edge">
<title>action&#45;44&#45;&#45;cluster&#45;10</title>
<path fill="none" stroke="black" d="M1044.32,-700.34C1056.01,-695.16 1070.91,-688.57 1079.94,-684.57"/>
</g>
<!-- action&#45;47 -->
<g id="node28" class="node">
<title>action&#45;47</title>
<polygon fill="white" stroke="black" points="1044,-672 1008,-672 1008,-636 1044,-636 1044,-672"/>
</g>
<!-- action&#45;47&#45;&#45;cluster&#45;10 -->
<g id="edge55" class="edge">
<title>action&#45;47&#45;&#45;cluster&#45;10</title>
<path fill="none" stroke="black" d="M1044.32,-661.66C1056.01,-666.84 1070.91,-673.43 1079.94,-677.43"/>
</g>
<!-- action&#45;48 -->
<g id="node29" class="node">
<title>action&#45;48</title>
<polygon fill="white" stroke="black" points="1170,-699 1134,-699 1134,-663 1170,-663 1170,-699"/>
</g>
<!-- cluster&#45;11 -->
<g id="node82" class="node">
<title>cluster&#45;11</title>
<polygon fill="black" stroke="black" stroke-width="0" points="1224,-663 1206,-663 1206,-645 1224,-645 1224,-663"/>
</g>
<!-- action&#45;48&#45;&#45;cluster&#45;11 -->
<g id="edge56" class="edge">
<title>action&#45;48&#45;&#45;cluster&#45;11</title>
<path fill="none" stroke="black" d="M1170.32,-673.34C1182.01,-668.16 1196.91,-661.57 1205.94,-657.57"/>
</g>
<!-- action&#45;51 -->
<g id="node30" class="node">
<title>action&#45;51</title>
<polygon fill="white" stroke="black" points="1170,-645 1134,-645 1134,-609 1170,-609 1170,-645"/>
</g>
<!-- action&#45;51&#45;&#45;cluster&#45;11 -->
<g id="edge57" class="edge">
<title>action&#45;51&#45;&#45;cluster&#45;11</title>
<path fill="none" stroke="black" d="M1170.32,-634.66C1182.01,-639.84 1196.91,-646.43 1205.94,-650.43"/>
</g>
<!-- action&#45;52 -->
<g id="node31" class="node">
<title>action&#45;52</title>
<polygon fill="white" stroke="black" points="1296,-672 1260,-672 1260,-636 1296,-636 1296,-672"/>
</g>
<!-- cluster&#45;12 -->
<g id="node83" class="node">
<title>cluster&#45;12</title>
<polygon fill="black" stroke="black" stroke-width="0" points="1350,-636 1332,-636 1332,-618 1350,-618 1350,-636"/>
</g>
<!-- action&#45;52&#45;&#45;cluster&#45;12 -->
<g id="edge58" class="edge">
<title>action&#45;52&#45;&#45;cluster&#45;12</title>
<path fill="none" stroke="black" d="M1296.32,-646.34C1308.01,-641.16 1322.91,-634.57 1331.94,-630.57"/>
</g>
<!-- action&#45;55 -->
<g id="node32" class="node">
<title>action&#45;55</title>
<polygon fill="white" stroke="black" points="1296,-618 1260,-618 1260,-582 1296,-582 1296,-618"/>
</g>
<!-- action&#45;55&#45;&#45;cluster&#45;12 -->
<g id="edge59" class="edge">
<title>action&#45;55&#45;&#45;cluster&#45;12</title>
<path fill="none" stroke="black" d="M1296.32,-607.66C1308.01,-612.84 1322.91,-619.43 1331.94,-623.43"/>
</g>
<!-- action&#45;56 -->
<g id="node33" class="node">
<title>action&#45;56</title>
<polygon fill="white" stroke="black" points="1422,-645 1386,-645 1386,-609 1422,-609 1422,-645"/>
</g>
<!-- cluster&#45;14 -->
<g id="node85" class="node">
<title>cluster&#45;14</title>
<polygon fill="black" stroke="black" stroke-width="0" points="1476,-609 1458,-609 1458,-591 1476,-591 1476,-609"/>
</g>
<!-- action&#45;56&#45;&#45;cluster&#45;14 -->
<g id="edge62" class="edge">
<title>action&#45;56&#45;&#45;cluster&#45;14</title>
<path fill="none" stroke="black" d="M1422.32,-619.34C1434.01,-614.16 1448.91,-607.57 1457.94,-603.57"/>
</g>
<!-- action&#45;59 -->
<g id="node34" class="node">
<title>action&#45;59</title>
<polygon fill="white" stroke="black" points="2304,-513 2268,-513 2268,-477 2304,-477 2304,-513"/>
</g>
<!-- action&#45;59&#45;&#45;cluster&#45;13 -->
<g id="edge61" class="edge">
<title>action&#45;59&#45;&#45;cluster&#45;13</title>
<path fill="none" stroke="black" d="M2304.32,-496.42C2316.01,-497.38 2330.91,-498.6 2339.94,-499.34"/>
</g>
<!-- action&#45;60 -->
<g id="node35" class="node">
<title>action&#45;60</title>
<polygon fill="white" stroke="black" points="2430,-518 2394,-518 2394,-482 2430,-482 2430,-518"/>
</g>
<!-- cluster&#45;16 -->
<g id="node87" class="node">
<title>cluster&#45;16</title>
<polygon fill="black" stroke="black" stroke-width="0" points="2484,-457 2466,-457 2466,-439 2484,-439 2484,-457"/>
</g>
<!-- action&#45;60&#45;&#45;cluster&#45;16 -->
<g id="edge66" class="edge">
<title>action&#45;60&#45;&#45;cluster&#45;16</title>
<path fill="none" stroke="black" d="M2430.32,-485.24C2442.01,-475.27 2456.91,-462.57 2465.94,-454.88"/>
</g>
<!-- action&#45;63 -->
<g id="node36" class="node">
<title>action&#45;63</title>
<polygon fill="white" stroke="black" points="1422,-591 1386,-591 1386,-555 1422,-555 1422,-591"/>
</g>
<!-- action&#45;63&#45;&#45;cluster&#45;14 -->
<g id="edge63" class="edge">
<title>action&#45;63&#45;&#45;cluster&#45;14</title>
<path fill="none" stroke="black" d="M1422.32,-580.66C1434.01,-585.84 1448.91,-592.43 1457.94,-596.43"/>
</g>
<!-- action&#45;64 -->
<g id="node37" class="node">
<title>action&#45;64</title>
<polygon fill="white" stroke="black" points="1548,-618 1512,-618 1512,-582 1548,-582 1548,-618"/>
</g>
<!-- cluster&#45;15 -->
<g id="node86" class="node">
<title>cluster&#45;15</title>
<polygon fill="black" stroke="black" stroke-width="0" points="1602,-582 1584,-582 1584,-564 1602,-564 1602,-582"/>
</g>
<!-- action&#45;64&#45;&#45;cluster&#45;15 -->
<g id="edge64" class="edge">
<title>action&#45;64&#45;&#45;cluster&#45;15</title>
<path fill="none" stroke="black" d="M1548.32,-592.34C1560.01,-587.16 1574.91,-580.57 1583.94,-576.57"/>
</g>
<!-- action&#45;67 -->
<g id="node38" class="node">
<title>action&#45;67</title>
<polygon fill="white" stroke="black" points="1548,-564 1512,-564 1512,-528 1548,-528 1548,-564"/>
</g>
<!-- action&#45;67&#45;&#45;cluster&#45;15 -->
<g id="edge65" class="edge">
<title>action&#45;67&#45;&#45;cluster&#45;15</title>
<path fill="none" stroke="black" d="M1548.32,-553.66C1560.01,-558.84 1574.91,-565.43 1583.94,-569.43"/>
</g>
<!-- action&#45;68 -->
<g id="node39" class="node">
<title>action&#45;68</title>
<polygon fill="white" stroke="black" points="1674,-591 1638,-591 1638,-555 1674,-555 1674,-591"/>
</g>
<!-- cluster&#45;18 -->
<g id="node89" class="node">
<title>cluster&#45;18</title>
<polygon fill="black" stroke="black" stroke-width="0" points="1728,-555 1710,-555 1710,-537 1728,-537 1728,-555"/>
</g>
<!-- action&#45;68&#45;&#45;cluster&#45;18 -->
<g id="edge70" class="edge">
<title>action&#45;68&#45;&#45;cluster&#45;18</title>
<path fill="none" stroke="black" d="M1674.32,-565.34C1686.01,-560.16 1700.91,-553.57 1709.94,-549.57"/>
</g>
<!-- action&#45;71 -->
<g id="node40" class="node">
<title>action&#45;71</title>
<polygon fill="white" stroke="black" points="2430,-464 2394,-464 2394,-428 2430,-428 2430,-464"/>
</g>
<!-- action&#45;71&#45;&#45;cluster&#45;16 -->
<g id="edge67" class="edge">
<title>action&#45;71&#45;&#45;cluster&#45;16</title>
<path fill="none" stroke="black" d="M2430.32,-446.57C2442.01,-446.95 2456.91,-447.44 2465.94,-447.74"/>
</g>
<!-- action&#45;72 -->
<g id="node41" class="node">
<title>action&#45;72</title>
<polygon fill="white" stroke="black" points="2556,-466 2520,-466 2520,-430 2556,-430 2556,-466"/>
</g>
<!-- cluster&#45;17 -->
<g id="node88" class="node">
<title>cluster&#45;17</title>
<polygon fill="black" stroke="black" stroke-width="0" points="2610,-404 2592,-404 2592,-386 2610,-386 2610,-404"/>
</g>
<!-- action&#45;72&#45;&#45;cluster&#45;17 -->
<g id="edge68" class="edge">
<title>action&#45;72&#45;&#45;cluster&#45;17</title>
<path fill="none" stroke="black" d="M2556.32,-432.95C2568.01,-422.79 2582.91,-409.85 2591.94,-402.01"/>
</g>
<!-- action&#45;75 -->
<g id="node42" class="node">
<title>action&#45;75</title>
<polygon fill="white" stroke="black" points="2556,-412 2520,-412 2520,-376 2556,-376 2556,-412"/>
</g>
<!-- action&#45;75&#45;&#45;cluster&#45;17 -->
<g id="edge69" class="edge">
<title>action&#45;75&#45;&#45;cluster&#45;17</title>
<path fill="none" stroke="black" d="M2556.32,-394.28C2568.01,-394.48 2582.91,-394.72 2591.94,-394.87"/>
</g>
<!-- action&#45;76 -->
<g id="node43" class="node">
<title>action&#45;76</title>
<polygon fill="white" stroke="black" points="2682,-413 2646,-413 2646,-377 2682,-377 2682,-413"/>
</g>
<!-- cluster&#45;20 -->
<g id="node91" class="node">
<title>cluster&#45;20</title>
<polygon fill="black" stroke="black" stroke-width="0" points="2736,-351 2718,-351 2718,-333 2736,-333 2736,-351"/>
</g>
<!-- action&#45;76&#45;&#45;cluster&#45;20 -->
<g id="edge74" class="edge">
<title>action&#45;76&#45;&#45;cluster&#45;20</title>
<path fill="none" stroke="black" d="M2682.32,-379.95C2694.01,-369.79 2708.91,-356.85 2717.94,-349.01"/>
</g>
<!-- action&#45;79 -->
<g id="node44" class="node">
<title>action&#45;79</title>
<polygon fill="white" stroke="black" points="1674,-537 1638,-537 1638,-501 1674,-501 1674,-537"/>
</g>
<!-- action&#45;79&#45;&#45;cluster&#45;18 -->
<g id="edge71" class="edge">
<title>action&#45;79&#45;&#45;cluster&#45;18</title>
<path fill="none" stroke="black" d="M1674.32,-526.66C1686.01,-531.84 1700.91,-538.43 1709.94,-542.43"/>
</g>
<!-- action&#45;80 -->
<g id="node45" class="node">
<title>action&#45;80</title>
<polygon fill="white" stroke="black" points="1800,-564 1764,-564 1764,-528 1800,-528 1800,-564"/>
</g>
<!-- cluster&#45;19 -->
<g id="node90" class="node">
<title>cluster&#45;19</title>
<polygon fill="black" stroke="black" stroke-width="0" points="1854,-528 1836,-528 1836,-510 1854,-510 1854,-528"/>
</g>
<!-- action&#45;80&#45;&#45;cluster&#45;19 -->
<g id="edge72" class="edge">
<title>action&#45;80&#45;&#45;cluster&#45;19</title>
<path fill="none" stroke="black" d="M1800.32,-538.34C1812.01,-533.16 1826.91,-526.57 1835.94,-522.57"/>
</g>
<!-- action&#45;83 -->
<g id="node46" class="node">
<title>action&#45;83</title>
<polygon fill="white" stroke="black" points="1800,-510 1764,-510 1764,-474 1800,-474 1800,-510"/>
</g>
<!-- action&#45;83&#45;&#45;cluster&#45;19 -->
<g id="edge73" class="edge">
<title>action&#45;83&#45;&#45;cluster&#45;19</title>
<path fill="none" stroke="black" d="M1800.32,-499.66C1812.01,-504.84 1826.91,-511.43 1835.94,-515.43"/>
</g>
<!-- action&#45;84 -->
<g id="node47" class="node">
<title>action&#45;84</title>
<polygon fill="white" stroke="black" points="1926,-537 1890,-537 1890,-501 1926,-501 1926,-537"/>
</g>
<!-- cluster&#45;21 -->
<g id="node92" class="node">
<title>cluster&#45;21</title>
<polygon fill="black" stroke="black" stroke-width="0" points="1980,-501 1962,-501 1962,-483 1980,-483 1980,-501"/>
</g>
<!-- action&#45;84&#45;&#45;cluster&#45;21 -->
<g id="edge76" class="edge">
<title>action&#45;84&#45;&#45;cluster&#45;21</title>
<path fill="none" stroke="black" d="M1926.32,-511.34C1938.01,-506.16 1952.91,-499.57 1961.94,-495.57"/>
</g>
<!-- action&#45;87 -->
<g id="node48" class="node">
<title>action&#45;87</title>
<polygon fill="white" stroke="black" points="2682,-359 2646,-359 2646,-323 2682,-323 2682,-359"/>
</g>
<!-- action&#45;87&#45;&#45;cluster&#45;20 -->
<g id="edge75" class="edge">
<title>action&#45;87&#45;&#45;cluster&#45;20</title>
<path fill="none" stroke="black" d="M2682.32,-341.28C2694.01,-341.48 2708.91,-341.72 2717.94,-341.87"/>
</g>
<!-- action&#45;88 -->
<g id="node49" class="node">
<title>action&#45;88</title>
<polygon fill="white" stroke="black" points="2808,-360 2772,-360 2772,-324 2808,-324 2808,-360"/>
</g>
<!-- cluster&#45;25 -->
<g id="node96" class="node">
<title>cluster&#45;25</title>
<polygon fill="black" stroke="black" stroke-width="0" points="2862,-297 2844,-297 2844,-279 2862,-279 2862,-297"/>
</g>
<!-- action&#45;88&#45;&#45;cluster&#45;25 -->
<g id="edge84" class="edge">
<title>action&#45;88&#45;&#45;cluster&#45;25</title>
<path fill="none" stroke="black" d="M2808.32,-326.67C2820.01,-316.32 2834.91,-303.13 2843.94,-295.14"/>
</g>
<!-- action&#45;91 -->
<g id="node50" class="node">
<title>action&#45;91</title>
<polygon fill="white" stroke="black" points="1926,-483 1890,-483 1890,-447 1926,-447 1926,-483"/>
</g>
<!-- action&#45;91&#45;&#45;cluster&#45;21 -->
<g id="edge77" class="edge">
<title>action&#45;91&#45;&#45;cluster&#45;21</title>
<path fill="none" stroke="black" d="M1926.32,-472.66C1938.01,-477.84 1952.91,-484.43 1961.94,-488.43"/>
</g>
<!-- action&#45;92 -->
<g id="node51" class="node">
<title>action&#45;92</title>
<polygon fill="white" stroke="black" points="2052,-510 2016,-510 2016,-474 2052,-474 2052,-510"/>
</g>
<!-- cluster&#45;22 -->
<g id="node93" class="node">
<title>cluster&#45;22</title>
<polygon fill="black" stroke="black" stroke-width="0" points="2106,-460 2088,-460 2088,-442 2106,-442 2106,-460"/>
</g>
<!-- action&#45;92&#45;&#45;cluster&#45;22 -->
<g id="edge78" class="edge">
<title>action&#45;92&#45;&#45;cluster&#45;22</title>
<path fill="none" stroke="black" d="M2052.32,-480.36C2064.01,-472.5 2078.91,-462.49 2087.94,-456.42"/>
</g>
<!-- action&#45;95 -->
<g id="node52" class="node">
<title>action&#45;95</title>
<polygon fill="white" stroke="black" points="2052,-456 2016,-456 2016,-420 2052,-420 2052,-456"/>
</g>
<!-- action&#45;95&#45;&#45;cluster&#45;22 -->
<g id="edge79" class="edge">
<title>action&#45;95&#45;&#45;cluster&#45;22</title>
<path fill="none" stroke="black" d="M2052.32,-441.69C2064.01,-444.18 2078.91,-447.36 2087.94,-449.28"/>
</g>
<!-- action&#45;96 -->
<g id="node53" class="node">
<title>action&#45;96</title>
<polygon fill="white" stroke="black" points="2178,-469 2142,-469 2142,-433 2178,-433 2178,-469"/>
</g>
<!-- cluster&#45;23 -->
<g id="node94" class="node">
<title>cluster&#45;23</title>
<polygon fill="black" stroke="black" stroke-width="0" points="2232,-406 2214,-406 2214,-388 2232,-388 2232,-406"/>
</g>
<!-- action&#45;96&#45;&#45;cluster&#45;23 -->
<g id="edge80" class="edge">
<title>action&#45;96&#45;&#45;cluster&#45;23</title>
<path fill="none" stroke="black" d="M2178.32,-435.67C2190.01,-425.32 2204.91,-412.13 2213.94,-404.14"/>
</g>
<!-- action&#45;99 -->
<g id="node54" class="node">
<title>action&#45;99</title>
<polygon fill="white" stroke="black" points="2178,-415 2142,-415 2142,-379 2178,-379 2178,-415"/>
</g>
<!-- action&#45;99&#45;&#45;cluster&#45;23 -->
<g id="edge81" class="edge">
<title>action&#45;99&#45;&#45;cluster&#45;23</title>
<path fill="none" stroke="black" d="M2178.32,-397C2190.01,-397 2204.91,-397 2213.94,-397"/>
</g>
<!-- action&#45;100 -->
<g id="node55" class="node">
<title>action&#45;100</title>
<polygon fill="white" stroke="black" points="2304,-415 2268,-415 2268,-379 2304,-379 2304,-415"/>
</g>
<!-- cluster&#45;24 -->
<g id="node95" class="node">
<title>cluster&#45;24</title>
<polygon fill="black" stroke="black" stroke-width="0" points="2358,-352 2340,-352 2340,-334 2358,-334 2358,-352"/>
</g>
<!-- action&#45;100&#45;&#45;cluster&#45;24 -->
<g id="edge82" class="edge">
<title>action&#45;100&#45;&#45;cluster&#45;24</title>
<path fill="none" stroke="black" d="M2304.32,-381.67C2316.01,-371.32 2330.91,-358.13 2339.94,-350.14"/>
</g>
<!-- action&#45;103 -->
<g id="node56" class="node">
<title>action&#45;103</title>
<polygon fill="white" stroke="black" points="2304,-361 2268,-361 2268,-325 2304,-325 2304,-361"/>
</g>
<!-- action&#45;103&#45;&#45;cluster&#45;24 -->
<g id="edge83" class="edge">
<title>action&#45;103&#45;&#45;cluster&#45;24</title>
<path fill="none" stroke="black" d="M2304.32,-343C2316.01,-343 2330.91,-343 2339.94,-343"/>
</g>
<!-- action&#45;104 -->
<g id="node57" class="node">
<title>action&#45;104</title>
<polygon fill="white" stroke="black" points="2430,-361 2394,-361 2394,-325 2430,-325 2430,-361"/>
</g>
<!-- cluster&#45;27 -->
<g id="node98" class="node">
<title>cluster&#45;27</title>
<polygon fill="black" stroke="black" stroke-width="0" points="2484,-298 2466,-298 2466,-280 2484,-280 2484,-298"/>
</g>
<!-- action&#45;104&#45;&#45;cluster&#45;27 -->
<g id="edge88" class="edge">
<title>action&#45;104&#45;&#45;cluster&#45;27</title>
<path fill="none" stroke="black" d="M2430.32,-327.67C2442.01,-317.32 2456.91,-304.13 2465.94,-296.14"/>
</g>
<!-- action&#45;107 -->
<g id="node58" class="node">
<title>action&#45;107</title>
<polygon fill="white" stroke="black" points="2808,-306 2772,-306 2772,-270 2808,-270 2808,-306"/>
</g>
<!-- action&#45;107&#45;&#45;cluster&#45;25 -->
<g id="edge85" class="edge">
<title>action&#45;107&#45;&#45;cluster&#45;25</title>
<path fill="none" stroke="black" d="M2808.32,-288C2820.01,-288 2834.91,-288 2843.94,-288"/>
</g>
<!-- action&#45;108 -->
<g id="node59" class="node">
<title>action&#45;108</title>
<polygon fill="white" stroke="black" points="2934,-306 2898,-306 2898,-270 2934,-270 2934,-306"/>
</g>
<!-- cluster&#45;26 -->
<g id="node97" class="node">
<title>cluster&#45;26</title>
<polygon fill="black" stroke="black" stroke-width="0" points="2988,-243 2970,-243 2970,-225 2988,-225 2988,-243"/>
</g>
<!-- action&#45;108&#45;&#45;cluster&#45;26 -->
<g id="edge86" class="edge">
<title>action&#45;108&#45;&#45;cluster&#45;26</title>
<path fill="none" stroke="black" d="M2934.32,-272.67C2946.01,-262.32 2960.91,-249.13 2969.94,-241.14"/>
</g>
<!-- action&#45;111 -->
<g id="node60" class="node">
<title>action&#45;111</title>
<polygon fill="white" stroke="black" points="2934,-252 2898,-252 2898,-216 2934,-216 2934,-252"/>
</g>
<!-- action&#45;111&#45;&#45;cluster&#45;26 -->
<g id="edge87" class="edge">
<title>action&#45;111&#45;&#45;cluster&#45;26</title>
<path fill="none" stroke="black" d="M2934.32,-234C2946.01,-234 2960.91,-234 2969.94,-234"/>
</g>
<!-- action&#45;115 -->
<g id="node61" class="node">
<title>action&#45;115</title>
<polygon fill="white" stroke="black" points="2430,-307 2394,-307 2394,-271 2430,-271 2430,-307"/>
</g>
<!-- action&#45;115&#45;&#45;cluster&#45;27 -->
<g id="edge89" class="edge">
<title>action&#45;115&#45;&#45;cluster&#45;27</title>
<path fill="none" stroke="black" d="M2430.32,-289C2442.01,-289 2456.91,-289 2465.94,-289"/>
</g>
<!-- action&#45;116 -->
<g id="node62" class="node">
<title>action&#45;116</title>
<polygon fill="white" stroke="black" points="2556,-307 2520,-307 2520,-271 2556,-271 2556,-307"/>
</g>
<!-- cluster&#45;28 -->
<g id="node99" class="node">
<title>cluster&#45;28</title>
<polygon fill="black" stroke="black" stroke-width="0" points="2610,-244 2592,-244 2592,-226 2610,-226 2610,-244"/>
</g>
<!-- action&#45;116&#45;&#45;cluster&#45;28 -->
<g id="edge90" class="edge">
<title>action&#45;116&#45;&#45;cluster&#45;28</title>
<path fill="none" stroke="black" d="M2556.32,-273.67C2568.01,-263.32 2582.91,-250.13 2591.94,-242.14"/>
</g>
<!-- action&#45;119 -->
<g id="node63" class="node">
<title>action&#45;119</title>
<polygon fill="white" stroke="black" points="2556,-253 2520,-253 2520,-217 2556,-217 2556,-253"/>
</g>
<!-- action&#45;119&#45;&#45;cluster&#45;28 -->
<g id="edge91" class="edge">
<title>action&#45;119&#45;&#45;cluster&#45;28</title>
<path fill="none" stroke="black" d="M2556.32,-235C2568.01,-235 2582.91,-235 2591.94,-235"/>
</g>
<!-- action&#45;120 -->
<g id="node64" class="node">
<title>action&#45;120</title>
<polygon fill="white" stroke="black" points="2682,-253 2646,-253 2646,-217 2682,-217 2682,-253"/>
</g>
<!-- cluster&#45;29 -->
<g id="node100" class="node">
<title>cluster&#45;29</title>
<polygon fill="black" stroke="black" stroke-width="0" points="2736,-190 2718,-190 2718,-172 2736,-172 2736,-190"/>
</g>
<!-- action&#45;120&#45;&#45;cluster&#45;29 -->
<g id="edge92" class="edge">
<title>action&#45;120&#45;&#45;cluster&#45;29</title>
<path fill="none" stroke="black" d="M2682.32,-219.67C2694.01,-209.32 2708.91,-196.13 2717.94,-188.14"/>
</g>
<!-- action&#45;123 -->
<g id="node65" class="node">
<title>action&#45;123</title>
<polygon fill="white" stroke="black" points="2682,-199 2646,-199 2646,-163 2682,-163 2682,-199"/>
</g>
<!-- action&#45;123&#45;&#45;cluster&#45;29 -->
<g id="edge93" class="edge">
<title>action&#45;123&#45;&#45;cluster&#45;29</title>
<path fill="none" stroke="black" d="M2682.32,-181C2694.01,-181 2708.91,-181 2717.94,-181"/>
</g>
<!-- action&#45;124 -->
<g id="node66" class="node">
<title>action&#45;124</title>
<polygon fill="white" stroke="black" points="2808,-199 2772,-199 2772,-163 2808,-163 2808,-199"/>
</g>
<!-- cluster&#45;30 -->
<g id="node101" class="node">
<title>cluster&#45;30</title>
<polygon fill="black" stroke="black" stroke-width="0" points="2862,-189 2844,-189 2844,-171 2862,-171 2862,-189"/>
</g>
<!-- action&#45;124&#45;&#45;cluster&#45;30 -->
<g id="edge94" class="edge">
<title>action&#45;124&#45;&#45;cluster&#45;30</title>
<path fill="none" stroke="black" d="M2808.32,-180.72C2820.01,-180.52 2834.91,-180.28 2843.94,-180.13"/>
</g>
<!-- action&#45;127 -->
<g id="node67" class="node">
<title>action&#45;127</title>
<polygon fill="white" stroke="black" points="2808,-145 2772,-145 2772,-109 2808,-109 2808,-145"/>
</g>
<!-- action&#45;127&#45;&#45;cluster&#45;30 -->
<g id="edge95" class="edge">
<title>action&#45;127&#45;&#45;cluster&#45;30</title>
<path fill="none" stroke="black" d="M2808.32,-142.05C2820.01,-152.21 2834.91,-165.15 2843.94,-172.99"/>
</g>
<!-- action&#45;128 -->
<g id="node68" class="node">
<title>action&#45;128</title>
<polygon fill="white" stroke="black" points="2934,-198 2898,-198 2898,-162 2934,-162 2934,-198"/>
</g>
<!-- cluster&#45;31 -->
<g id="node102" class="node">
<title>cluster&#45;31</title>
<polygon fill="black" stroke="black" stroke-width="0" points="2988,-189 2970,-189 2970,-171 2988,-171 2988,-189"/>
</g>
<!-- action&#45;128&#45;&#45;cluster&#45;31 -->
<g id="edge96" class="edge">
<title>action&#45;128&#45;&#45;cluster&#45;31</title>
<path fill="none" stroke="black" d="M2934.32,-180C2946.01,-180 2960.91,-180 2969.94,-180"/>
</g>
<!-- action&#45;131 -->
<g id="node69" class="node">
<title>action&#45;131</title>
<polygon fill="white" stroke="black" points="2934,-144 2898,-144 2898,-108 2934,-108 2934,-144"/>
</g>
<!-- action&#45;131&#45;&#45;cluster&#45;31 -->
<g id="edge97" class="edge">
<title>action&#45;131&#45;&#45;cluster&#45;31</title>
<path fill="none" stroke="black" d="M2934.32,-141.33C2946.01,-151.68 2960.91,-164.87 2969.94,-172.86"/>
</g>
<!-- action&#45;137 -->
<g id="node70" class="node">
<title>action&#45;137</title>
<polygon fill="#00008b" stroke="black" points="2934,-36 2898,-36 2898,0 2934,0 2934,-36"/>
</g>
<!-- action&#45;137&#45;&#45;cluster&#45;32 -->
<g id="edge99" class="edge">
<title>action&#45;137&#45;&#45;cluster&#45;32</title>
<path fill="none" stroke="black" d="M2934.32,-33.33C2946.01,-43.68 2960.91,-56.87 2969.94,-64.86"/>
</g>
<!-- cluster&#45;0&#45;&#45;action&#45;4 -->
<g id="edge1" class="edge">
<title>cluster&#45;0&#45;&#45;action&#45;4</title>
<path fill="none" stroke="black" d="M90.23,-897C99.33,-897 114.26,-897 125.92,-897"/>
</g>
<!-- cluster&#45;1&#45;&#45;action&#45;8 -->
<g id="edge2" class="edge">
<title>cluster&#45;1&#45;&#45;action&#45;8</title>
<path fill="none" stroke="black" d="M216.23,-870C225.33,-870 240.26,-870 251.92,-870"/>
</g>
<!-- cluster&#45;2&#45;&#45;action&#45;14 -->
<g id="edge3" class="edge">
<title>cluster&#45;2&#45;&#45;action&#45;14</title>
<path fill="none" stroke="black" d="M2106.23,-593C2115.33,-593 2130.26,-593 2141.92,-593"/>
</g>
<!-- cluster&#45;3&#45;&#45;action&#45;18 -->
<g id="edge4" class="edge">
<title>cluster&#45;3&#45;&#45;action&#45;18</title>
<path fill="none" stroke="black" d="M2232.23,-549C2241.33,-549 2256.26,-549 2267.92,-549"/>
</g>
<!-- cluster&#45;4&#45;&#45;action&#45;22 -->
<g id="edge5" class="edge">
<title>cluster&#45;4&#45;&#45;action&#45;22</title>
<path fill="none" stroke="black" d="M342.23,-843C351.33,-843 366.26,-843 377.92,-843"/>
</g>
<!-- cluster&#45;5&#45;&#45;action&#45;26 -->
<g id="edge6" class="edge">
<title>cluster&#45;5&#45;&#45;action&#45;26</title>
<path fill="none" stroke="black" d="M468.23,-816C477.33,-816 492.26,-816 503.92,-816"/>
</g>
<!-- cluster&#45;6&#45;&#45;action&#45;32 -->
<g id="edge7" class="edge">
<title>cluster&#45;6&#45;&#45;action&#45;32</title>
<path fill="none" stroke="black" d="M594.23,-789C603.33,-789 618.26,-789 629.92,-789"/>
</g>
<!-- cluster&#45;7&#45;&#45;action&#45;36 -->
<g id="edge8" class="edge">
<title>cluster&#45;7&#45;&#45;action&#45;36</title>
<path fill="none" stroke="black" d="M720.23,-762C729.33,-762 744.26,-762 755.92,-762"/>
</g>
<!-- cluster&#45;8&#45;&#45;action&#45;40 -->
<g id="edge9" class="edge">
<title>cluster&#45;8&#45;&#45;action&#45;40</title>
<path fill="none" stroke="black" d="M846.23,-735C855.33,-735 870.26,-735 881.92,-735"/>
</g>
<!-- cluster&#45;9&#45;&#45;action&#45;44 -->
<g id="edge10" class="edge">
<title>cluster&#45;9&#45;&#45;action&#45;44</title>
<path fill="none" stroke="black" d="M972.23,-708C981.33,-708 996.26,-708 1007.92,-708"/>
</g>
<!-- cluster&#45;10&#45;&#45;action&#45;48 -->
<g id="edge11" class="edge">
<title>cluster&#45;10&#45;&#45;action&#45;48</title>
<path fill="none" stroke="black" d="M1098.23,-681C1107.33,-681 1122.26,-681 1133.92,-681"/>
</g>
<!-- cluster&#45;11&#45;&#45;action&#45;52 -->
<g id="edge12" class="edge">
<title>cluster&#45;11&#45;&#45;action&#45;52</title>
<path fill="none" stroke="black" d="M1224.23,-654C1233.33,-654 1248.26,-654 1259.92,-654"/>
</g>
<!-- cluster&#45;12&#45;&#45;action&#45;56 -->
<g id="edge13" class="edge">
<title>cluster&#45;12&#45;&#45;action&#45;56</title>
<path fill="none" stroke="black" d="M1350.23,-627C1359.33,-627 1374.26,-627 1385.92,-627"/>
</g>
<!-- cluster&#45;13&#45;&#45;action&#45;60 -->
<g id="edge14" class="edge">
<title>cluster&#45;13&#45;&#45;action&#45;60</title>
<path fill="none" stroke="black" d="M2358.23,-500C2367.33,-500 2382.26,-500 2393.92,-500"/>
</g>
<!-- cluster&#45;14&#45;&#45;action&#45;64 -->
<g id="edge15" class="edge">
<title>cluster&#45;14&#45;&#45;action&#45;64</title>
<path fill="none" stroke="black" d="M1476.23,-600C1485.33,-600 1500.26,-600 1511.92,-600"/>
</g>
<!-- cluster&#45;15&#45;&#45;action&#45;68 -->
<g id="edge16" class="edge">
<title>cluster&#45;15&#45;&#45;action&#45;68</title>
<path fill="none" stroke="black" d="M1602.23,-573C1611.33,-573 1626.26,-573 1637.92,-573"/>
</g>
<!-- cluster&#45;16&#45;&#45;action&#45;72 -->
<g id="edge17" class="edge">
<title>cluster&#45;16&#45;&#45;action&#45;72</title>
<path fill="none" stroke="black" d="M2484.23,-448C2493.33,-448 2508.26,-448 2519.92,-448"/>
</g>
<!-- cluster&#45;17&#45;&#45;action&#45;76 -->
<g id="edge18" class="edge">
<title>cluster&#45;17&#45;&#45;action&#45;76</title>
<path fill="none" stroke="black" d="M2610.23,-395C2619.33,-395 2634.26,-395 2645.92,-395"/>
</g>
<!-- cluster&#45;18&#45;&#45;action&#45;80 -->
<g id="edge19" class="edge">
<title>cluster&#45;18&#45;&#45;action&#45;80</title>
<path fill="none" stroke="black" d="M1728.23,-546C1737.33,-546 1752.26,-546 1763.92,-546"/>
</g>
<!-- cluster&#45;19&#45;&#45;action&#45;84 -->
<g id="edge20" class="edge">
<title>cluster&#45;19&#45;&#45;action&#45;84</title>
<path fill="none" stroke="black" d="M1854.23,-519C1863.33,-519 1878.26,-519 1889.92,-519"/>
</g>
<!-- cluster&#45;20&#45;&#45;action&#45;88 -->
<g id="edge21" class="edge">
<title>cluster&#45;20&#45;&#45;action&#45;88</title>
<path fill="none" stroke="black" d="M2736.23,-342C2745.33,-342 2760.26,-342 2771.92,-342"/>
</g>
<!-- cluster&#45;21&#45;&#45;action&#45;92 -->
<g id="edge22" class="edge">
<title>cluster&#45;21&#45;&#45;action&#45;92</title>
<path fill="none" stroke="black" d="M1980.23,-492C1989.33,-492 2004.26,-492 2015.92,-492"/>
</g>
<!-- cluster&#45;22&#45;&#45;action&#45;96 -->
<g id="edge23" class="edge">
<title>cluster&#45;22&#45;&#45;action&#45;96</title>
<path fill="none" stroke="black" d="M2106.23,-451C2115.33,-451 2130.26,-451 2141.92,-451"/>
</g>
<!-- cluster&#45;23&#45;&#45;action&#45;100 -->
<g id="edge24" class="edge">
<title>cluster&#45;23&#45;&#45;action&#45;100</title>
<path fill="none" stroke="black" d="M2232.23,-397C2241.33,-397 2256.26,-397 2267.92,-397"/>
</g>
<!-- cluster&#45;24&#45;&#45;action&#45;104 -->
<g id="edge25" class="edge">
<title>cluster&#45;24&#45;&#45;action&#45;104</title>
<path fill="none" stroke="black" d="M2358.23,-343C2367.33,-343 2382.26,-343 2393.92,-343"/>
</g>
<!-- cluster&#45;25&#45;&#45;action&#45;108 -->
<g id="edge26" class="edge">
<title>cluster&#45;25&#45;&#45;action&#45;108</title>
<path fill="none" stroke="black" d="M2862.23,-288C2871.33,-288 2886.26,-288 2897.92,-288"/>
</g>
<!-- cluster&#45;26&#45;&#45;action&#45;112 -->
<g id="edge27" class="edge">
<title>cluster&#45;26&#45;&#45;action&#45;112</title>
<path fill="none" stroke="black" d="M2988.23,-234C2997.33,-234 3012.26,-234 3023.92,-234"/>
</g>
<!-- cluster&#45;27&#45;&#45;action&#45;116 -->
<g id="edge28" class="edge">
<title>cluster&#45;27&#45;&#45;action&#45;116</title>
<path fill="none" stroke="black" d="M2484.23,-289C2493.33,-289 2508.26,-289 2519.92,-289"/>
</g>
<!-- cluster&#45;28&#45;&#45;action&#45;120 -->
<g id="edge29" class="edge">
<title>cluster&#45;28&#45;&#45;action&#45;120</title>
<path fill="none" stroke="black" d="M2610.23,-235C2619.33,-235 2634.26,-235 2645.92,-235"/>
</g>
<!-- cluster&#45;29&#45;&#45;action&#45;124 -->
<g id="edge30" class="edge">
<title>cluster&#45;29&#45;&#45;action&#45;124</title>
<path fill="none" stroke="black" d="M2736.23,-181C2745.33,-181 2760.26,-181 2771.92,-181"/>
</g>
<!-- cluster&#45;30&#45;&#45;action&#45;128 -->
<g id="edge31" class="edge">
<title>cluster&#45;30&#45;&#45;action&#45;128</title>
<path fill="none" stroke="black" d="M2862.23,-180C2871.33,-180 2886.26,-180 2897.92,-180"/>
</g>
<!-- cluster&#45;31&#45;&#45;action&#45;132 -->
<g id="edge32" class="edge">
<title>cluster&#45;31&#45;&#45;action&#45;132</title>
<path fill="none" stroke="black" d="M2988.23,-180C2997.33,-180 3012.26,-180 3023.92,-180"/>
</g>
<!-- cluster&#45;32&#45;&#45;action&#45;138 -->
<g id="edge33" class="edge">
<title>cluster&#45;32&#45;&#45;action&#45;138</title>
<path fill="none" stroke="black" d="M2988.23,-72C2997.33,-72 3012.26,-72 3023.92,-72"/>
</g>
</g>
</svg>
