<?xml version="1.0" encoding="UTF-8" standalone="no"?>
<!DOCTYPE svg PUBLIC "-//W3C//DTD SVG 1.1//EN"
 "http://www.w3.org/Graphics/SVG/1.1/DTD/svg11.dtd">
<!-- Generated by graphviz version 2.43.0 (0)
 -->
<!-- Title: g Pages: 1 -->
<svg width="564pt" height="247pt"
 viewBox="0.00 0.00 564.00 247.00" xmlns="http://www.w3.org/2000/svg" xmlns:xlink="http://www.w3.org/1999/xlink">
<g id="graph0" class="graph" transform="scale(1 1) rotate(0) translate(4 243)">
<title>g</title>
<polygon fill="white" stroke="transparent" points="-4,4 -4,-243 560,-243 560,4 -4,4"/>
<g id="clust1" class="cluster">
<title>cluster_actionlib</title>
<polygon fill="none" stroke="black" points="496,-46 496,-152 548,-152 548,-46 496,-46"/>
</g>
<!-- action&#45;18 -->
<g id="node1" class="node">
<title>action&#45;18</title>
<polygon fill="white" stroke="black" stroke-width="4" points="540,-144 504,-144 504,-108 540,-108 540,-144"/>
</g>
<!-- action&#45;26 -->
<g id="node2" class="node">
<title>action&#45;26</title>
<polygon fill="#008000" stroke="black" stroke-width="4" points="540,-90 504,-90 504,-54 540,-54 540,-90"/>
</g>
<!-- action&#45;1 -->
<g id="node3" class="node">
<title>action&#45;1</title>
<polygon fill="white" stroke="black" points="36,-158 0,-158 0,-122 36,-122 36,-158"/>
</g>
<!-- cluster&#45;0 -->
<g id="node15" class="node">
<title>cluster&#45;0</title>
<polygon fill="black" stroke="black" stroke-width="0" points="90,-122 72,-122 72,-104 90,-104 90,-122"/>
</g>
<!-- action&#45;1&#45;&#45;cluster&#45;0 -->
<g id="edge7" class="edge">
<title>action&#45;1&#45;&#45;cluster&#45;0</title>
<path fill="none" stroke="black" d="M36.32,-132.34C48.01,-127.16 62.91,-120.57 71.94,-116.57"/>
</g>
<!-- action&#45;3 -->
<g id="node4" class="node">
<title>action&#45;3</title>
<polygon fill="white" stroke="black" points="36,-104 0,-104 0,-68 36,-68 36,-104"/>
</g>
<!-- action&#45;3&#45;&#45;cluster&#45;0 -->
<g id="edge8" class="edge">
<title>action&#45;3&#45;&#45;cluster&#45;0</title>
<path fill="none" stroke="black" d="M36.32,-93.66C48.01,-98.84 62.91,-105.43 71.94,-109.43"/>
</g>
<!-- action&#45;4 -->
<g id="node5" class="node">
<title>action&#45;4</title>
<polygon fill="white" stroke="black" points="162,-131 126,-131 126,-95 162,-95 162,-131"/>
</g>
<!-- cluster&#45;1 -->
<g id="node16" class="node">
<title>cluster&#45;1</title>
<polygon fill="black" stroke="black" stroke-width="0" points="216,-95 198,-95 198,-77 216,-77 216,-95"/>
</g>
<!-- action&#45;4&#45;&#45;cluster&#45;1 -->
<g id="edge9" class="edge">
<title>action&#45;4&#45;&#45;cluster&#45;1</title>
<path fill="none" stroke="black" d="M162.32,-105.34C174.01,-100.16 188.91,-93.57 197.94,-89.57"/>
</g>
<!-- action&#45;7 -->
<g id="node6" class="node">
<title>action&#45;7</title>
<polygon fill="white" stroke="black" points="162,-77 126,-77 126,-41 162,-41 162,-77"/>
</g>
<!-- action&#45;7&#45;&#45;cluster&#45;1 -->
<g id="edge10" class="edge">
<title>action&#45;7&#45;&#45;cluster&#45;1</title>
<path fill="none" stroke="black" d="M162.32,-66.66C174.01,-71.84 188.91,-78.43 197.94,-82.43"/>
</g>
<!-- action&#45;8 -->
<g id="node7" class="node">
<title>action&#45;8</title>
<polygon fill="white" stroke="black" points="288,-104 252,-104 252,-68 288,-68 288,-104"/>
</g>
<!-- cluster&#45;4 -->
<g id="node19" class="node">
<title>cluster&#45;4</title>
<polygon fill="black" stroke="black" stroke-width="0" points="342,-81 324,-81 324,-63 342,-63 342,-81"/>
</g>
<!-- action&#45;8&#45;&#45;cluster&#45;4 -->
<g id="edge15" class="edge">
<title>action&#45;8&#45;&#45;cluster&#45;4</title>
<path fill="none" stroke="black" d="M288.32,-82.03C300.01,-79.34 314.91,-75.92 323.94,-73.85"/>
</g>
<!-- action&#45;11 -->
<g id="node8" class="node">
<title>action&#45;11</title>
<polygon fill="white" stroke="black" points="288,-239 252,-239 252,-203 288,-203 288,-239"/>
</g>
<!-- cluster&#45;2 -->
<g id="node17" class="node">
<title>cluster&#45;2</title>
<polygon fill="black" stroke="black" stroke-width="0" points="342,-189 324,-189 324,-171 342,-171 342,-189"/>
</g>
<!-- action&#45;11&#45;&#45;cluster&#45;2 -->
<g id="edge11" class="edge">
<title>action&#45;11&#45;&#45;cluster&#45;2</title>
<path fill="none" stroke="black" d="M288.32,-209.36C300.01,-201.5 314.91,-191.49 323.94,-185.42"/>
</g>
<!-- action&#45;13 -->
<g id="node9" class="node">
<title>action&#45;13</title>
<polygon fill="white" stroke="black" points="288,-185 252,-185 252,-149 288,-149 288,-185"/>
</g>
<!-- action&#45;13&#45;&#45;cluster&#45;2 -->
<g id="edge12" class="edge">
<title>action&#45;13&#45;&#45;cluster&#45;2</title>
<path fill="none" stroke="black" d="M288.32,-170.69C300.01,-173.18 314.91,-176.36 323.94,-178.28"/>
</g>
<!-- action&#45;14 -->
<g id="node10" class="node">
<title>action&#45;14</title>
<polygon fill="white" stroke="black" points="414,-198 378,-198 378,-162 414,-162 414,-198"/>
</g>
<!-- cluster&#45;3 -->
<g id="node18" class="node">
<title>cluster&#45;3</title>
<polygon fill="black" stroke="black" stroke-width="0" points="468,-135 450,-135 450,-117 468,-117 468,-135"/>
</g>
<!-- action&#45;14&#45;&#45;cluster&#45;3 -->
<g id="edge13" class="edge">
<title>action&#45;14&#45;&#45;cluster&#45;3</title>
<path fill="none" stroke="black" d="M414.32,-164.67C426.01,-154.32 440.91,-141.13 449.94,-133.14"/>
</g>
<!-- action&#45;17 -->
<g id="node11" class="node">
<title>action&#45;17</title>
<polygon fill="white" stroke="black" points="414,-144 378,-144 378,-108 414,-108 414,-144"/>
</g>
<!-- action&#45;17&#45;&#45;cluster&#45;3 -->
<g id="edge14" class="edge">
<title>action&#45;17&#45;&#45;cluster&#45;3</title>
<path fill="none" stroke="black" d="M414.32,-126C426.01,-126 440.91,-126 449.94,-126"/>
</g>
<!-- action&#45;21 -->
<g id="node12" class="node">
<title>action&#45;21</title>
<polygon fill="white" stroke="black" points="288,-50 252,-50 252,-14 288,-14 288,-50"/>
</g>
<!-- action&#45;21&#45;&#45;cluster&#45;4 -->
<g id="edge16" class="edge">
<title>action&#45;21&#45;&#45;cluster&#45;4</title>
<path fill="none" stroke="black" d="M288.32,-43.36C300.01,-51.02 314.91,-60.79 323.94,-66.71"/>
</g>
<!-- action&#45;22 -->
<g id="node13" class="node">
<title>action&#45;22</title>
<polygon fill="#c9211e" stroke="black" points="414,-90 378,-90 378,-54 414,-54 414,-90"/>
</g>
<!-- cluster&#45;5 -->
<g id="node20" class="node">
<title>cluster&#45;5</title>
<polygon fill="black" stroke="black" stroke-width="0" points="468,-81 450,-81 450,-63 468,-63 468,-81"/>
</g>
<!-- action&#45;22&#45;&#45;cluster&#45;5 -->
<g id="edge17" class="edge">
<title>action&#45;22&#45;&#45;cluster&#45;5</title>
<path fill="none" stroke="black" d="M414.32,-72C426.01,-72 440.91,-72 449.94,-72"/>
</g>
<!-- action&#45;25 -->
<g id="node14" class="node">
<title>action&#45;25</title>
<polygon fill="#00008b" stroke="black" points="414,-36 378,-36 378,0 414,0 414,-36"/>
</g>
<!-- action&#45;25&#45;&#45;cluster&#45;5 -->
<g id="edge18" class="edge">
<title>action&#45;25&#45;&#45;cluster&#45;5</title>
<path fill="none" stroke="black" d="M414.32,-33.33C426.01,-43.68 440.91,-56.87 449.94,-64.86"/>
</g>
<!-- cluster&#45;0&#45;&#45;action&#45;4 -->
<g id="edge1" class="edge">
<title>cluster&#45;0&#45;&#45;action&#45;4</title>
<path fill="none" stroke="black" d="M90.23,-113C99.33,-113 114.26,-113 125.92,-113"/>
</g>
<!-- cluster&#45;1&#45;&#45;action&#45;8 -->
<g id="edge2" class="edge">
<title>cluster&#45;1&#45;&#45;action&#45;8</title>
<path fill="none" stroke="black" d="M216.23,-86C225.33,-86 240.26,-86 251.92,-86"/>
</g>
<!-- cluster&#45;2&#45;&#45;action&#45;14 -->
<g id="edge3" class="edge">
<title>cluster&#45;2&#45;&#45;action&#45;14</title>
<path fill="none" stroke="black" d="M342.23,-180C351.33,-180 366.26,-180 377.92,-180"/>
</g>
<!-- cluster&#45;3&#45;&#45;action&#45;18 -->
<g id="edge4" class="edge">
<title>cluster&#45;3&#45;&#45;action&#45;18</title>
<path fill="none" stroke="black" d="M468.23,-126C477.33,-126 492.26,-126 503.92,-126"/>
</g>
<!-- cluster&#45;4&#45;&#45;action&#45;22 -->
<g id="edge5" class="edge">
<title>cluster&#45;4&#45;&#45;action&#45;22</title>
<path fill="none" stroke="black" d="M342.23,-72C351.33,-72 366.26,-72 377.92,-72"/>
</g>
<!-- cluster&#45;5&#45;&#45;action&#45;26 -->
<g id="edge6" class="edge">
<title>cluster&#45;5&#45;&#45;action&#45;26</title>
<path fill="none" stroke="black" d="M468.23,-72C477.33,-72 492.26,-72 503.92,-72"/>
</g>
</g>
</svg>
