<?xml version="1.0" encoding="UTF-8" standalone="no"?>
<!DOCTYPE svg PUBLIC "-//W3C//DTD SVG 1.1//EN"
 "http://www.w3.org/Graphics/SVG/1.1/DTD/svg11.dtd">
<!-- Generated by graphviz version 2.43.0 (0)
 -->
<!-- Title: g Pages: 1 -->
<svg width="942pt" height="274pt"
 viewBox="0.00 0.00 942.00 274.00" xmlns="http://www.w3.org/2000/svg" xmlns:xlink="http://www.w3.org/1999/xlink">
<g id="graph0" class="graph" transform="scale(1 1) rotate(0) translate(4 270)">
<title>g</title>
<polygon fill="white" stroke="transparent" points="-4,4 -4,-270 938,-270 938,4 -4,4"/>
<g id="clust1" class="cluster">
<title>cluster_actionlib</title>
<polygon fill="none" stroke="black" points="874,-36 874,-196 926,-196 926,-36 874,-36"/>
</g>
<!-- action&#45;18 -->
<g id="node1" class="node">
<title>action&#45;18</title>
<polygon fill="white" stroke="black" stroke-width="4" points="918,-188 882,-188 882,-152 918,-152 918,-188"/>
</g>
<!-- action&#45;29 -->
<g id="node2" class="node">
<title>action&#45;29</title>
<polygon fill="white" stroke="black" stroke-width="4" points="918,-134 882,-134 882,-98 918,-98 918,-134"/>
</g>
<!-- action&#45;40 -->
<g id="node3" class="node">
<title>action&#45;40</title>
<polygon fill="#008000" stroke="black" stroke-width="4" points="918,-80 882,-80 882,-44 918,-44 918,-80"/>
</g>
<!-- action&#45;1 -->
<g id="node4" class="node">
<title>action&#45;1</title>
<polygon fill="white" stroke="black" points="36,-266 0,-266 0,-230 36,-230 36,-266"/>
</g>
<!-- cluster&#45;0 -->
<g id="node22" class="node">
<title>cluster&#45;0</title>
<polygon fill="black" stroke="black" stroke-width="0" points="90,-230 72,-230 72,-212 90,-212 90,-230"/>
</g>
<!-- action&#45;1&#45;&#45;cluster&#45;0 -->
<g id="edge10" class="edge">
<title>action&#45;1&#45;&#45;cluster&#45;0</title>
<path fill="none" stroke="black" d="M36.32,-240.34C48.01,-235.16 62.91,-228.57 71.94,-224.57"/>
</g>
<!-- action&#45;3 -->
<g id="node5" class="node">
<title>action&#45;3</title>
<polygon fill="white" stroke="black" points="36,-212 0,-212 0,-176 36,-176 36,-212"/>
</g>
<!-- action&#45;3&#45;&#45;cluster&#45;0 -->
<g id="edge11" class="edge">
<title>action&#45;3&#45;&#45;cluster&#45;0</title>
<path fill="none" stroke="black" d="M36.32,-201.66C48.01,-206.84 62.91,-213.43 71.94,-217.43"/>
</g>
<!-- action&#45;4 -->
<g id="node6" class="node">
<title>action&#45;4</title>
<polygon fill="white" stroke="black" points="162,-239 126,-239 126,-203 162,-203 162,-239"/>
</g>
<!-- cluster&#45;1 -->
<g id="node23" class="node">
<title>cluster&#45;1</title>
<polygon fill="black" stroke="black" stroke-width="0" points="216,-203 198,-203 198,-185 216,-185 216,-203"/>
</g>
<!-- action&#45;4&#45;&#45;cluster&#45;1 -->
<g id="edge12" class="edge">
<title>action&#45;4&#45;&#45;cluster&#45;1</title>
<path fill="none" stroke="black" d="M162.32,-213.34C174.01,-208.16 188.91,-201.57 197.94,-197.57"/>
</g>
<!-- action&#45;7 -->
<g id="node7" class="node">
<title>action&#45;7</title>
<polygon fill="white" stroke="black" points="162,-185 126,-185 126,-149 162,-149 162,-185"/>
</g>
<!-- action&#45;7&#45;&#45;cluster&#45;1 -->
<g id="edge13" class="edge">
<title>action&#45;7&#45;&#45;cluster&#45;1</title>
<path fill="none" stroke="black" d="M162.32,-174.66C174.01,-179.84 188.91,-186.43 197.94,-190.43"/>
</g>
<!-- action&#45;8 -->
<g id="node8" class="node">
<title>action&#45;8</title>
<polygon fill="white" stroke="black" points="288,-212 252,-212 252,-176 288,-176 288,-212"/>
</g>
<!-- cluster&#45;4 -->
<g id="node26" class="node">
<title>cluster&#45;4</title>
<polygon fill="black" stroke="black" stroke-width="0" points="342,-176 324,-176 324,-158 342,-158 342,-176"/>
</g>
<!-- action&#45;8&#45;&#45;cluster&#45;4 -->
<g id="edge18" class="edge">
<title>action&#45;8&#45;&#45;cluster&#45;4</title>
<path fill="none" stroke="black" d="M288.32,-186.34C300.01,-181.16 314.91,-174.57 323.94,-170.57"/>
</g>
<!-- action&#45;11 -->
<g id="node9" class="node">
<title>action&#45;11</title>
<polygon fill="white" stroke="black" points="666,-266 630,-266 630,-230 666,-230 666,-266"/>
</g>
<!-- cluster&#45;2 -->
<g id="node24" class="node">
<title>cluster&#45;2</title>
<polygon fill="black" stroke="black" stroke-width="0" points="720,-223 702,-223 702,-205 720,-205 720,-223"/>
</g>
<!-- action&#45;11&#45;&#45;cluster&#45;2 -->
<g id="edge14" class="edge">
<title>action&#45;11&#45;&#45;cluster&#45;2</title>
<path fill="none" stroke="black" d="M666.32,-238.35C678.01,-231.83 692.91,-223.53 701.94,-218.5"/>
</g>
<!-- action&#45;13 -->
<g id="node10" class="node">
<title>action&#45;13</title>
<polygon fill="white" stroke="black" points="666,-212 630,-212 630,-176 666,-176 666,-212"/>
</g>
<!-- action&#45;13&#45;&#45;cluster&#45;2 -->
<g id="edge15" class="edge">
<title>action&#45;13&#45;&#45;cluster&#45;2</title>
<path fill="none" stroke="black" d="M666.32,-199.68C678.01,-203.51 692.91,-208.4 701.94,-211.36"/>
</g>
<!-- action&#45;14 -->
<g id="node11" class="node">
<title>action&#45;14</title>
<polygon fill="white" stroke="black" points="792,-232 756,-232 756,-196 792,-196 792,-232"/>
</g>
<!-- cluster&#45;3 -->
<g id="node25" class="node">
<title>cluster&#45;3</title>
<polygon fill="black" stroke="black" stroke-width="0" points="846,-179 828,-179 828,-161 846,-161 846,-179"/>
</g>
<!-- action&#45;14&#45;&#45;cluster&#45;3 -->
<g id="edge16" class="edge">
<title>action&#45;14&#45;&#45;cluster&#45;3</title>
<path fill="none" stroke="black" d="M792.32,-201.51C804.01,-193.07 818.91,-182.33 827.94,-175.82"/>
</g>
<!-- action&#45;17 -->
<g id="node12" class="node">
<title>action&#45;17</title>
<polygon fill="white" stroke="black" points="792,-178 756,-178 756,-142 792,-142 792,-178"/>
</g>
<!-- action&#45;17&#45;&#45;cluster&#45;3 -->
<g id="edge17" class="edge">
<title>action&#45;17&#45;&#45;cluster&#45;3</title>
<path fill="none" stroke="black" d="M792.32,-162.84C804.01,-164.76 818.91,-167.2 827.94,-168.68"/>
</g>
<!-- action&#45;21 -->
<g id="node13" class="node">
<title>action&#45;21</title>
<polygon fill="white" stroke="black" points="288,-158 252,-158 252,-122 288,-122 288,-158"/>
</g>
<!-- action&#45;21&#45;&#45;cluster&#45;4 -->
<g id="edge19" class="edge">
<title>action&#45;21&#45;&#45;cluster&#45;4</title>
<path fill="none" stroke="black" d="M288.32,-147.66C300.01,-152.84 314.91,-159.43 323.94,-163.43"/>
</g>
<!-- action&#45;22 -->
<g id="node14" class="node">
<title>action&#45;22</title>
<polygon fill="white" stroke="black" points="414,-185 378,-185 378,-149 414,-149 414,-185"/>
</g>
<!-- cluster&#45;5 -->
<g id="node27" class="node">
<title>cluster&#45;5</title>
<polygon fill="black" stroke="black" stroke-width="0" points="468,-149 450,-149 450,-131 468,-131 468,-149"/>
</g>
<!-- action&#45;22&#45;&#45;cluster&#45;5 -->
<g id="edge20" class="edge">
<title>action&#45;22&#45;&#45;cluster&#45;5</title>
<path fill="none" stroke="black" d="M414.32,-159.34C426.01,-154.16 440.91,-147.57 449.94,-143.57"/>
</g>
<!-- action&#45;25 -->
<g id="node15" class="node">
<title>action&#45;25</title>
<polygon fill="white" stroke="black" points="414,-131 378,-131 378,-95 414,-95 414,-131"/>
</g>
<!-- action&#45;25&#45;&#45;cluster&#45;5 -->
<g id="edge21" class="edge">
<title>action&#45;25&#45;&#45;cluster&#45;5</title>
<path fill="none" stroke="black" d="M414.32,-120.66C426.01,-125.84 440.91,-132.43 449.94,-136.43"/>
</g>
<!-- action&#45;26 -->
<g id="node16" class="node">
<title>action&#45;26</title>
<polygon fill="white" stroke="black" points="540,-158 504,-158 504,-122 540,-122 540,-158"/>
</g>
<!-- cluster&#45;6 -->
<g id="node28" class="node">
<title>cluster&#45;6</title>
<polygon fill="black" stroke="black" stroke-width="0" points="594,-122 576,-122 576,-104 594,-104 594,-122"/>
</g>
<!-- action&#45;26&#45;&#45;cluster&#45;6 -->
<g id="edge22" class="edge">
<title>action&#45;26&#45;&#45;cluster&#45;6</title>
<path fill="none" stroke="black" d="M540.32,-132.34C552.01,-127.16 566.91,-120.57 575.94,-116.57"/>
</g>
<!-- action&#45;31 -->
<g id="node17" class="node">
<title>action&#45;31</title>
<polygon fill="white" stroke="black" points="540,-104 504,-104 504,-68 540,-68 540,-104"/>
</g>
<!-- action&#45;31&#45;&#45;cluster&#45;6 -->
<g id="edge23" class="edge">
<title>action&#45;31&#45;&#45;cluster&#45;6</title>
<path fill="none" stroke="black" d="M540.32,-93.66C552.01,-98.84 566.91,-105.43 575.94,-109.43"/>
</g>
<!-- action&#45;32 -->
<g id="node18" class="node">
<title>action&#45;32</title>
<polygon fill="white" stroke="black" points="666,-131 630,-131 630,-95 666,-95 666,-131"/>
</g>
<!-- cluster&#45;7 -->
<g id="node29" class="node">
<title>cluster&#45;7</title>
<polygon fill="black" stroke="black" stroke-width="0" points="720,-81 702,-81 702,-63 720,-63 720,-81"/>
</g>
<!-- action&#45;32&#45;&#45;cluster&#45;7 -->
<g id="edge24" class="edge">
<title>action&#45;32&#45;&#45;cluster&#45;7</title>
<path fill="none" stroke="black" d="M666.32,-101.36C678.01,-93.5 692.91,-83.49 701.94,-77.42"/>
</g>
<!-- action&#45;35 -->
<g id="node19" class="node">
<title>action&#45;35</title>
<polygon fill="white" stroke="black" points="666,-77 630,-77 630,-41 666,-41 666,-77"/>
</g>
<!-- action&#45;35&#45;&#45;cluster&#45;7 -->
<g id="edge25" class="edge">
<title>action&#45;35&#45;&#45;cluster&#45;7</title>
<path fill="none" stroke="black" d="M666.32,-62.69C678.01,-65.18 692.91,-68.36 701.94,-70.28"/>
</g>
<!-- action&#45;36 -->
<g id="node20" class="node">
<title>action&#45;36</title>
<polygon fill="#c9211e" stroke="black" points="792,-90 756,-90 756,-54 792,-54 792,-90"/>
</g>
<!-- cluster&#45;8 -->
<g id="node30" class="node">
<title>cluster&#45;8</title>
<polygon fill="black" stroke="black" stroke-width="0" points="846,-71 828,-71 828,-53 846,-53 846,-71"/>
</g>
<!-- action&#45;36&#45;&#45;cluster&#45;8 -->
<g id="edge26" class="edge">
<title>action&#45;36&#45;&#45;cluster&#45;8</title>
<path fill="none" stroke="black" d="M792.32,-69.16C804.01,-67.24 818.91,-64.8 827.94,-63.32"/>
</g>
<!-- action&#45;39 -->
<g id="node21" class="node">
<title>action&#45;39</title>
<polygon fill="#00008b" stroke="black" points="792,-36 756,-36 756,0 792,0 792,-36"/>
</g>
<!-- action&#45;39&#45;&#45;cluster&#45;8 -->
<g id="edge27" class="edge">
<title>action&#45;39&#45;&#45;cluster&#45;8</title>
<path fill="none" stroke="black" d="M792.32,-30.49C804.01,-38.93 818.91,-49.67 827.94,-56.18"/>
</g>
<!-- cluster&#45;0&#45;&#45;action&#45;4 -->
<g id="edge1" class="edge">
<title>cluster&#45;0&#45;&#45;action&#45;4</title>
<path fill="none" stroke="black" d="M90.23,-221C99.33,-221 114.26,-221 125.92,-221"/>
</g>
<!-- cluster&#45;1&#45;&#45;action&#45;8 -->
<g id="edge2" class="edge">
<title>cluster&#45;1&#45;&#45;action&#45;8</title>
<path fill="none" stroke="black" d="M216.23,-194C225.33,-194 240.26,-194 251.92,-194"/>
</g>
<!-- cluster&#45;2&#45;&#45;action&#45;14 -->
<g id="edge3" class="edge">
<title>cluster&#45;2&#45;&#45;action&#45;14</title>
<path fill="none" stroke="black" d="M720.23,-214C729.33,-214 744.26,-214 755.92,-214"/>
</g>
<!-- cluster&#45;3&#45;&#45;action&#45;18 -->
<g id="edge4" class="edge">
<title>cluster&#45;3&#45;&#45;action&#45;18</title>
<path fill="none" stroke="black" d="M846.23,-170C855.33,-170 870.26,-170 881.92,-170"/>
</g>
<!-- cluster&#45;4&#45;&#45;action&#45;22 -->
<g id="edge5" class="edge">
<title>cluster&#45;4&#45;&#45;action&#45;22</title>
<path fill="none" stroke="black" d="M342.23,-167C351.33,-167 366.26,-167 377.92,-167"/>
</g>
<!-- cluster&#45;5&#45;&#45;action&#45;26 -->
<g id="edge6" class="edge">
<title>cluster&#45;5&#45;&#45;action&#45;26</title>
<path fill="none" stroke="black" d="M468.23,-140C477.33,-140 492.26,-140 503.92,-140"/>
</g>
<!-- cluster&#45;6&#45;&#45;action&#45;32 -->
<g id="edge7" class="edge">
<title>cluster&#45;6&#45;&#45;action&#45;32</title>
<path fill="none" stroke="black" d="M594.23,-113C603.33,-113 618.26,-113 629.92,-113"/>
</g>
<!-- cluster&#45;7&#45;&#45;action&#45;36 -->
<g id="edge8" class="edge">
<title>cluster&#45;7&#45;&#45;action&#45;36</title>
<path fill="none" stroke="black" d="M720.23,-72C729.33,-72 744.26,-72 755.92,-72"/>
</g>
<!-- cluster&#45;8&#45;&#45;action&#45;40 -->
<g id="edge9" class="edge">
<title>cluster&#45;8&#45;&#45;action&#45;40</title>
<path fill="none" stroke="black" d="M846.23,-62C855.33,-62 870.26,-62 881.92,-62"/>
</g>
</g>
</svg>
