<?xml version="1.0" encoding="UTF-8" standalone="no"?>
<!DOCTYPE svg PUBLIC "-//W3C//DTD SVG 1.1//EN"
 "http://www.w3.org/Graphics/SVG/1.1/DTD/svg11.dtd">
<!-- Generated by graphviz version 2.43.0 (0)
 -->
<!-- Title: g Pages: 1 -->
<svg width="1446pt" height="500pt"
 viewBox="0.00 0.00 1446.00 500.00" xmlns="http://www.w3.org/2000/svg" xmlns:xlink="http://www.w3.org/1999/xlink">
<g id="graph0" class="graph" transform="scale(1 1) rotate(0) translate(4 496)">
<title>g</title>
<polygon fill="white" stroke="transparent" points="-4,4 -4,-496 1442,-496 1442,4 -4,4"/>
<g id="clust1" class="cluster">
<title>cluster_actionlib</title>
<polygon fill="none" stroke="black" points="1378,-46 1378,-206 1430,-206 1430,-46 1378,-46"/>
</g>
<!-- action&#45;29 -->
<g id="node1" class="node">
<title>action&#45;29</title>
<polygon fill="white" stroke="black" stroke-width="4" points="1422,-198 1386,-198 1386,-162 1422,-162 1422,-198"/>
</g>
<!-- action&#45;56 -->
<g id="node2" class="node">
<title>action&#45;56</title>
<polygon fill="white" stroke="black" stroke-width="4" points="1422,-144 1386,-144 1386,-108 1422,-108 1422,-144"/>
</g>
<!-- action&#45;60 -->
<g id="node3" class="node">
<title>action&#45;60</title>
<polygon fill="#008000" stroke="black" stroke-width="4" points="1422,-90 1386,-90 1386,-54 1422,-54 1422,-90"/>
</g>
<!-- action&#45;1 -->
<g id="node4" class="node">
<title>action&#45;1</title>
<polygon fill="white" stroke="black" points="36,-492 0,-492 0,-456 36,-456 36,-492"/>
</g>
<!-- cluster&#45;0 -->
<g id="node32" class="node">
<title>cluster&#45;0</title>
<polygon fill="black" stroke="black" stroke-width="0" points="90,-456 72,-456 72,-438 90,-438 90,-456"/>
</g>
<!-- action&#45;1&#45;&#45;cluster&#45;0 -->
<g id="edge15" class="edge">
<title>action&#45;1&#45;&#45;cluster&#45;0</title>
<path fill="none" stroke="black" d="M36.32,-466.34C48.01,-461.16 62.91,-454.57 71.94,-450.57"/>
</g>
<!-- action&#45;3 -->
<g id="node5" class="node">
<title>action&#45;3</title>
<polygon fill="white" stroke="black" points="36,-438 0,-438 0,-402 36,-402 36,-438"/>
</g>
<!-- action&#45;3&#45;&#45;cluster&#45;0 -->
<g id="edge16" class="edge">
<title>action&#45;3&#45;&#45;cluster&#45;0</title>
<path fill="none" stroke="black" d="M36.32,-427.66C48.01,-432.84 62.91,-439.43 71.94,-443.43"/>
</g>
<!-- action&#45;4 -->
<g id="node6" class="node">
<title>action&#45;4</title>
<polygon fill="white" stroke="black" points="162,-465 126,-465 126,-429 162,-429 162,-465"/>
</g>
<!-- cluster&#45;1 -->
<g id="node33" class="node">
<title>cluster&#45;1</title>
<polygon fill="black" stroke="black" stroke-width="0" points="216,-429 198,-429 198,-411 216,-411 216,-429"/>
</g>
<!-- action&#45;4&#45;&#45;cluster&#45;1 -->
<g id="edge17" class="edge">
<title>action&#45;4&#45;&#45;cluster&#45;1</title>
<path fill="none" stroke="black" d="M162.32,-439.34C174.01,-434.16 188.91,-427.57 197.94,-423.57"/>
</g>
<!-- action&#45;7 -->
<g id="node7" class="node">
<title>action&#45;7</title>
<polygon fill="white" stroke="black" points="162,-411 126,-411 126,-375 162,-375 162,-411"/>
</g>
<!-- action&#45;7&#45;&#45;cluster&#45;1 -->
<g id="edge18" class="edge">
<title>action&#45;7&#45;&#45;cluster&#45;1</title>
<path fill="none" stroke="black" d="M162.32,-400.66C174.01,-405.84 188.91,-412.43 197.94,-416.43"/>
</g>
<!-- action&#45;8 -->
<g id="node8" class="node">
<title>action&#45;8</title>
<polygon fill="white" stroke="black" points="288,-438 252,-438 252,-402 288,-402 288,-438"/>
</g>
<!-- cluster&#45;4 -->
<g id="node36" class="node">
<title>cluster&#45;4</title>
<polygon fill="black" stroke="black" stroke-width="0" points="342,-402 324,-402 324,-384 342,-384 342,-402"/>
</g>
<!-- action&#45;8&#45;&#45;cluster&#45;4 -->
<g id="edge23" class="edge">
<title>action&#45;8&#45;&#45;cluster&#45;4</title>
<path fill="none" stroke="black" d="M288.32,-412.34C300.01,-407.16 314.91,-400.57 323.94,-396.57"/>
</g>
<!-- action&#45;11 -->
<g id="node9" class="node">
<title>action&#45;11</title>
<polygon fill="white" stroke="black" points="1044,-141 1008,-141 1008,-105 1044,-105 1044,-141"/>
</g>
<!-- cluster&#45;2 -->
<g id="node34" class="node">
<title>cluster&#45;2</title>
<polygon fill="black" stroke="black" stroke-width="0" points="1098,-91 1080,-91 1080,-73 1098,-73 1098,-91"/>
</g>
<!-- action&#45;11&#45;&#45;cluster&#45;2 -->
<g id="edge19" class="edge">
<title>action&#45;11&#45;&#45;cluster&#45;2</title>
<path fill="none" stroke="black" d="M1044.32,-111.36C1056.01,-103.5 1070.91,-93.49 1079.94,-87.42"/>
</g>
<!-- action&#45;13 -->
<g id="node10" class="node">
<title>action&#45;13</title>
<polygon fill="white" stroke="black" points="1044,-87 1008,-87 1008,-51 1044,-51 1044,-87"/>
</g>
<!-- action&#45;13&#45;&#45;cluster&#45;2 -->
<g id="edge20" class="edge">
<title>action&#45;13&#45;&#45;cluster&#45;2</title>
<path fill="none" stroke="black" d="M1044.32,-72.69C1056.01,-75.18 1070.91,-78.36 1079.94,-80.28"/>
</g>
<!-- action&#45;14 -->
<g id="node11" class="node">
<title>action&#45;14</title>
<polygon fill="white" stroke="black" points="1170,-100 1134,-100 1134,-64 1170,-64 1170,-100"/>
</g>
<!-- cluster&#45;3 -->
<g id="node35" class="node">
<title>cluster&#45;3</title>
<polygon fill="black" stroke="black" stroke-width="0" points="1224,-81 1206,-81 1206,-63 1224,-63 1224,-81"/>
</g>
<!-- action&#45;14&#45;&#45;cluster&#45;3 -->
<g id="edge21" class="edge">
<title>action&#45;14&#45;&#45;cluster&#45;3</title>
<path fill="none" stroke="black" d="M1170.32,-79.16C1182.01,-77.24 1196.91,-74.8 1205.94,-73.32"/>
</g>
<!-- action&#45;17 -->
<g id="node12" class="node">
<title>action&#45;17</title>
<polygon fill="white" stroke="black" points="1170,-46 1134,-46 1134,-10 1170,-10 1170,-46"/>
</g>
<!-- action&#45;17&#45;&#45;cluster&#45;3 -->
<g id="edge22" class="edge">
<title>action&#45;17&#45;&#45;cluster&#45;3</title>
<path fill="none" stroke="black" d="M1170.32,-40.49C1182.01,-48.93 1196.91,-59.67 1205.94,-66.18"/>
</g>
<!-- action&#45;18 -->
<g id="node13" class="node">
<title>action&#45;18</title>
<polygon fill="#c9211e" stroke="black" points="1296,-90 1260,-90 1260,-54 1296,-54 1296,-90"/>
</g>
<!-- cluster&#45;13 -->
<g id="node45" class="node">
<title>cluster&#45;13</title>
<polygon fill="black" stroke="black" stroke-width="0" points="1350,-81 1332,-81 1332,-63 1350,-63 1350,-81"/>
</g>
<!-- action&#45;18&#45;&#45;cluster&#45;13 -->
<g id="edge41" class="edge">
<title>action&#45;18&#45;&#45;cluster&#45;13</title>
<path fill="none" stroke="black" d="M1296.32,-72C1308.01,-72 1322.91,-72 1331.94,-72"/>
</g>
<!-- action&#45;21 -->
<g id="node14" class="node">
<title>action&#45;21</title>
<polygon fill="white" stroke="black" points="288,-384 252,-384 252,-348 288,-348 288,-384"/>
</g>
<!-- action&#45;21&#45;&#45;cluster&#45;4 -->
<g id="edge24" class="edge">
<title>action&#45;21&#45;&#45;cluster&#45;4</title>
<path fill="none" stroke="black" d="M288.32,-373.66C300.01,-378.84 314.91,-385.43 323.94,-389.43"/>
</g>
<!-- action&#45;22 -->
<g id="node15" class="node">
<title>action&#45;22</title>
<polygon fill="white" stroke="black" points="414,-411 378,-411 378,-375 414,-375 414,-411"/>
</g>
<!-- cluster&#45;5 -->
<g id="node37" class="node">
<title>cluster&#45;5</title>
<polygon fill="black" stroke="black" stroke-width="0" points="468,-375 450,-375 450,-357 468,-357 468,-375"/>
</g>
<!-- action&#45;22&#45;&#45;cluster&#45;5 -->
<g id="edge25" class="edge">
<title>action&#45;22&#45;&#45;cluster&#45;5</title>
<path fill="none" stroke="black" d="M414.32,-385.34C426.01,-380.16 440.91,-373.57 449.94,-369.57"/>
</g>
<!-- action&#45;25 -->
<g id="node16" class="node">
<title>action&#45;25</title>
<polygon fill="white" stroke="black" points="414,-357 378,-357 378,-321 414,-321 414,-357"/>
</g>
<!-- action&#45;25&#45;&#45;cluster&#45;5 -->
<g id="edge26" class="edge">
<title>action&#45;25&#45;&#45;cluster&#45;5</title>
<path fill="none" stroke="black" d="M414.32,-346.66C426.01,-351.84 440.91,-358.43 449.94,-362.43"/>
</g>
<!-- action&#45;26 -->
<g id="node17" class="node">
<title>action&#45;26</title>
<polygon fill="white" stroke="black" points="540,-384 504,-384 504,-348 540,-348 540,-384"/>
</g>
<!-- cluster&#45;6 -->
<g id="node38" class="node">
<title>cluster&#45;6</title>
<polygon fill="black" stroke="black" stroke-width="0" points="594,-348 576,-348 576,-330 594,-330 594,-348"/>
</g>
<!-- action&#45;26&#45;&#45;cluster&#45;6 -->
<g id="edge27" class="edge">
<title>action&#45;26&#45;&#45;cluster&#45;6</title>
<path fill="none" stroke="black" d="M540.32,-358.34C552.01,-353.16 566.91,-346.57 575.94,-342.57"/>
</g>
<!-- action&#45;31 -->
<g id="node18" class="node">
<title>action&#45;31</title>
<polygon fill="white" stroke="black" points="540,-330 504,-330 504,-294 540,-294 540,-330"/>
</g>
<!-- action&#45;31&#45;&#45;cluster&#45;6 -->
<g id="edge28" class="edge">
<title>action&#45;31&#45;&#45;cluster&#45;6</title>
<path fill="none" stroke="black" d="M540.32,-319.66C552.01,-324.84 566.91,-331.43 575.94,-335.43"/>
</g>
<!-- action&#45;32 -->
<g id="node19" class="node">
<title>action&#45;32</title>
<polygon fill="white" stroke="black" points="666,-357 630,-357 630,-321 666,-321 666,-357"/>
</g>
<!-- cluster&#45;7 -->
<g id="node39" class="node">
<title>cluster&#45;7</title>
<polygon fill="black" stroke="black" stroke-width="0" points="720,-321 702,-321 702,-303 720,-303 720,-321"/>
</g>
<!-- action&#45;32&#45;&#45;cluster&#45;7 -->
<g id="edge29" class="edge">
<title>action&#45;32&#45;&#45;cluster&#45;7</title>
<path fill="none" stroke="black" d="M666.32,-331.34C678.01,-326.16 692.91,-319.57 701.94,-315.57"/>
</g>
<!-- action&#45;35 -->
<g id="node20" class="node">
<title>action&#45;35</title>
<polygon fill="white" stroke="black" points="666,-303 630,-303 630,-267 666,-267 666,-303"/>
</g>
<!-- action&#45;35&#45;&#45;cluster&#45;7 -->
<g id="edge30" class="edge">
<title>action&#45;35&#45;&#45;cluster&#45;7</title>
<path fill="none" stroke="black" d="M666.32,-292.66C678.01,-297.84 692.91,-304.43 701.94,-308.43"/>
</g>
<!-- action&#45;36 -->
<g id="node21" class="node">
<title>action&#45;36</title>
<polygon fill="white" stroke="black" points="792,-330 756,-330 756,-294 792,-294 792,-330"/>
</g>
<!-- cluster&#45;8 -->
<g id="node40" class="node">
<title>cluster&#45;8</title>
<polygon fill="black" stroke="black" stroke-width="0" points="846,-294 828,-294 828,-276 846,-276 846,-294"/>
</g>
<!-- action&#45;36&#45;&#45;cluster&#45;8 -->
<g id="edge31" class="edge">
<title>action&#45;36&#45;&#45;cluster&#45;8</title>
<path fill="none" stroke="black" d="M792.32,-304.34C804.01,-299.16 818.91,-292.57 827.94,-288.57"/>
</g>
<!-- action&#45;39 -->
<g id="node22" class="node">
<title>action&#45;39</title>
<polygon fill="white" stroke="black" points="792,-276 756,-276 756,-240 792,-240 792,-276"/>
</g>
<!-- action&#45;39&#45;&#45;cluster&#45;8 -->
<g id="edge32" class="edge">
<title>action&#45;39&#45;&#45;cluster&#45;8</title>
<path fill="none" stroke="black" d="M792.32,-265.66C804.01,-270.84 818.91,-277.43 827.94,-281.43"/>
</g>
<!-- action&#45;40 -->
<g id="node23" class="node">
<title>action&#45;40</title>
<polygon fill="white" stroke="black" points="918,-303 882,-303 882,-267 918,-267 918,-303"/>
</g>
<!-- cluster&#45;9 -->
<g id="node41" class="node">
<title>cluster&#45;9</title>
<polygon fill="black" stroke="black" stroke-width="0" points="972,-267 954,-267 954,-249 972,-249 972,-267"/>
</g>
<!-- action&#45;40&#45;&#45;cluster&#45;9 -->
<g id="edge33" class="edge">
<title>action&#45;40&#45;&#45;cluster&#45;9</title>
<path fill="none" stroke="black" d="M918.32,-277.34C930.01,-272.16 944.91,-265.57 953.94,-261.57"/>
</g>
<!-- action&#45;43 -->
<g id="node24" class="node">
<title>action&#45;43</title>
<polygon fill="white" stroke="black" points="918,-249 882,-249 882,-213 918,-213 918,-249"/>
</g>
<!-- action&#45;43&#45;&#45;cluster&#45;9 -->
<g id="edge34" class="edge">
<title>action&#45;43&#45;&#45;cluster&#45;9</title>
<path fill="none" stroke="black" d="M918.32,-238.66C930.01,-243.84 944.91,-250.43 953.94,-254.43"/>
</g>
<!-- action&#45;44 -->
<g id="node25" class="node">
<title>action&#45;44</title>
<polygon fill="white" stroke="black" points="1044,-276 1008,-276 1008,-240 1044,-240 1044,-276"/>
</g>
<!-- cluster&#45;10 -->
<g id="node42" class="node">
<title>cluster&#45;10</title>
<polygon fill="black" stroke="black" stroke-width="0" points="1098,-233 1080,-233 1080,-215 1098,-215 1098,-233"/>
</g>
<!-- action&#45;44&#45;&#45;cluster&#45;10 -->
<g id="edge35" class="edge">
<title>action&#45;44&#45;&#45;cluster&#45;10</title>
<path fill="none" stroke="black" d="M1044.32,-248.35C1056.01,-241.83 1070.91,-233.53 1079.94,-228.5"/>
</g>
<!-- action&#45;47 -->
<g id="node26" class="node">
<title>action&#45;47</title>
<polygon fill="white" stroke="black" points="1044,-222 1008,-222 1008,-186 1044,-186 1044,-222"/>
</g>
<!-- action&#45;47&#45;&#45;cluster&#45;10 -->
<g id="edge36" class="edge">
<title>action&#45;47&#45;&#45;cluster&#45;10</title>
<path fill="none" stroke="black" d="M1044.32,-209.68C1056.01,-213.51 1070.91,-218.4 1079.94,-221.36"/>
</g>
<!-- action&#45;48 -->
<g id="node27" class="node">
<title>action&#45;48</title>
<polygon fill="white" stroke="black" points="1170,-242 1134,-242 1134,-206 1170,-206 1170,-242"/>
</g>
<!-- cluster&#45;11 -->
<g id="node43" class="node">
<title>cluster&#45;11</title>
<polygon fill="black" stroke="black" stroke-width="0" points="1224,-189 1206,-189 1206,-171 1224,-171 1224,-189"/>
</g>
<!-- action&#45;48&#45;&#45;cluster&#45;11 -->
<g id="edge37" class="edge">
<title>action&#45;48&#45;&#45;cluster&#45;11</title>
<path fill="none" stroke="black" d="M1170.32,-211.51C1182.01,-203.07 1196.91,-192.33 1205.94,-185.82"/>
</g>
<!-- action&#45;51 -->
<g id="node28" class="node">
<title>action&#45;51</title>
<polygon fill="white" stroke="black" points="1170,-188 1134,-188 1134,-152 1170,-152 1170,-188"/>
</g>
<!-- action&#45;51&#45;&#45;cluster&#45;11 -->
<g id="edge38" class="edge">
<title>action&#45;51&#45;&#45;cluster&#45;11</title>
<path fill="none" stroke="black" d="M1170.32,-172.84C1182.01,-174.76 1196.91,-177.2 1205.94,-178.68"/>
</g>
<!-- action&#45;52 -->
<g id="node29" class="node">
<title>action&#45;52</title>
<polygon fill="white" stroke="black" points="1296,-198 1260,-198 1260,-162 1296,-162 1296,-198"/>
</g>
<!-- cluster&#45;12 -->
<g id="node44" class="node">
<title>cluster&#45;12</title>
<polygon fill="black" stroke="black" stroke-width="0" points="1350,-135 1332,-135 1332,-117 1350,-117 1350,-135"/>
</g>
<!-- action&#45;52&#45;&#45;cluster&#45;12 -->
<g id="edge39" class="edge">
<title>action&#45;52&#45;&#45;cluster&#45;12</title>
<path fill="none" stroke="black" d="M1296.32,-164.67C1308.01,-154.32 1322.91,-141.13 1331.94,-133.14"/>
</g>
<!-- action&#45;55 -->
<g id="node30" class="node">
<title>action&#45;55</title>
<polygon fill="white" stroke="black" points="1296,-144 1260,-144 1260,-108 1296,-108 1296,-144"/>
</g>
<!-- action&#45;55&#45;&#45;cluster&#45;12 -->
<g id="edge40" class="edge">
<title>action&#45;55&#45;&#45;cluster&#45;12</title>
<path fill="none" stroke="black" d="M1296.32,-126C1308.01,-126 1322.91,-126 1331.94,-126"/>
</g>
<!-- action&#45;59 -->
<g id="node31" class="node">
<title>action&#45;59</title>
<polygon fill="#00008b" stroke="black" points="1296,-36 1260,-36 1260,0 1296,0 1296,-36"/>
</g>
<!-- action&#45;59&#45;&#45;cluster&#45;13 -->
<g id="edge42" class="edge">
<title>action&#45;59&#45;&#45;cluster&#45;13</title>
<path fill="none" stroke="black" d="M1296.32,-33.33C1308.01,-43.68 1322.91,-56.87 1331.94,-64.86"/>
</g>
<!-- cluster&#45;0&#45;&#45;action&#45;4 -->
<g id="edge1" class="edge">
<title>cluster&#45;0&#45;&#45;action&#45;4</title>
<path fill="none" stroke="black" d="M90.23,-447C99.33,-447 114.26,-447 125.92,-447"/>
</g>
<!-- cluster&#45;1&#45;&#45;action&#45;8 -->
<g id="edge2" class="edge">
<title>cluster&#45;1&#45;&#45;action&#45;8</title>
<path fill="none" stroke="black" d="M216.23,-420C225.33,-420 240.26,-420 251.92,-420"/>
</g>
<!-- cluster&#45;2&#45;&#45;action&#45;14 -->
<g id="edge3" class="edge">
<title>cluster&#45;2&#45;&#45;action&#45;14</title>
<path fill="none" stroke="black" d="M1098.23,-82C1107.33,-82 1122.26,-82 1133.92,-82"/>
</g>
<!-- cluster&#45;3&#45;&#45;action&#45;18 -->
<g id="edge4" class="edge">
<title>cluster&#45;3&#45;&#45;action&#45;18</title>
<path fill="none" stroke="black" d="M1224.23,-72C1233.33,-72 1248.26,-72 1259.92,-72"/>
</g>
<!-- cluster&#45;4&#45;&#45;action&#45;22 -->
<g id="edge5" class="edge">
<title>cluster&#45;4&#45;&#45;action&#45;22</title>
<path fill="none" stroke="black" d="M342.23,-393C351.33,-393 366.26,-393 377.92,-393"/>
</g>
<!-- cluster&#45;5&#45;&#45;action&#45;26 -->
<g id="edge6" class="edge">
<title>cluster&#45;5&#45;&#45;action&#45;26</title>
<path fill="none" stroke="black" d="M468.23,-366C477.33,-366 492.26,-366 503.92,-366"/>
</g>
<!-- cluster&#45;6&#45;&#45;action&#45;32 -->
<g id="edge7" class="edge">
<title>cluster&#45;6&#45;&#45;action&#45;32</title>
<path fill="none" stroke="black" d="M594.23,-339C603.33,-339 618.26,-339 629.92,-339"/>
</g>
<!-- cluster&#45;7&#45;&#45;action&#45;36 -->
<g id="edge8" class="edge">
<title>cluster&#45;7&#45;&#45;action&#45;36</title>
<path fill="none" stroke="black" d="M720.23,-312C729.33,-312 744.26,-312 755.92,-312"/>
</g>
<!-- cluster&#45;8&#45;&#45;action&#45;40 -->
<g id="edge9" class="edge">
<title>cluster&#45;8&#45;&#45;action&#45;40</title>
<path fill="none" stroke="black" d="M846.23,-285C855.33,-285 870.26,-285 881.92,-285"/>
</g>
<!-- cluster&#45;9&#45;&#45;action&#45;44 -->
<g id="edge10" class="edge">
<title>cluster&#45;9&#45;&#45;action&#45;44</title>
<path fill="none" stroke="black" d="M972.23,-258C981.33,-258 996.26,-258 1007.92,-258"/>
</g>
<!-- cluster&#45;10&#45;&#45;action&#45;48 -->
<g id="edge11" class="edge">
<title>cluster&#45;10&#45;&#45;action&#45;48</title>
<path fill="none" stroke="black" d="M1098.23,-224C1107.33,-224 1122.26,-224 1133.92,-224"/>
</g>
<!-- cluster&#45;11&#45;&#45;action&#45;52 -->
<g id="edge12" class="edge">
<title>cluster&#45;11&#45;&#45;action&#45;52</title>
<path fill="none" stroke="black" d="M1224.23,-180C1233.33,-180 1248.26,-180 1259.92,-180"/>
</g>
<!-- cluster&#45;12&#45;&#45;action&#45;56 -->
<g id="edge13" class="edge">
<title>cluster&#45;12&#45;&#45;action&#45;56</title>
<path fill="none" stroke="black" d="M1350.23,-126C1359.33,-126 1374.26,-126 1385.92,-126"/>
</g>
<!-- cluster&#45;13&#45;&#45;action&#45;60 -->
<g id="edge14" class="edge">
<title>cluster&#45;13&#45;&#45;action&#45;60</title>
<path fill="none" stroke="black" d="M1350.23,-72C1359.33,-72 1374.26,-72 1385.92,-72"/>
</g>
</g>
</svg>
