<?xml version="1.0" encoding="UTF-8" standalone="no"?>
<!DOCTYPE svg PUBLIC "-//W3C//DTD SVG 1.1//EN"
 "http://www.w3.org/Graphics/SVG/1.1/DTD/svg11.dtd">
<!-- Generated by graphviz version 2.43.0 (0)
 -->
<!-- Title: g Pages: 1 -->
<svg width="2202pt" height="600pt"
 viewBox="0.00 0.00 2202.00 600.00" xmlns="http://www.w3.org/2000/svg" xmlns:xlink="http://www.w3.org/1999/xlink">
<g id="graph0" class="graph" transform="scale(1 1) rotate(0) translate(4 596)">
<title>g</title>
<polygon fill="white" stroke="transparent" points="-4,4 -4,-596 2198,-596 2198,4 -4,4"/>
<g id="clust1" class="cluster">
<title>cluster_actionlib</title>
<polygon fill="none" stroke="black" points="2134,-46 2134,-206 2186,-206 2186,-46 2134,-46"/>
</g>
<!-- action&#45;29 -->
<g id="node1" class="node">
<title>action&#45;29</title>
<polygon fill="white" stroke="black" stroke-width="4" points="2178,-198 2142,-198 2142,-162 2178,-162 2178,-198"/>
</g>
<!-- action&#45;88 -->
<g id="node2" class="node">
<title>action&#45;88</title>
<polygon fill="white" stroke="black" stroke-width="4" points="2178,-144 2142,-144 2142,-108 2178,-108 2178,-144"/>
</g>
<!-- action&#45;96 -->
<g id="node3" class="node">
<title>action&#45;96</title>
<polygon fill="#008000" stroke="black" stroke-width="4" points="2178,-90 2142,-90 2142,-54 2178,-54 2178,-90"/>
</g>
<!-- action&#45;1 -->
<g id="node4" class="node">
<title>action&#45;1</title>
<polygon fill="white" stroke="black" points="36,-592 0,-592 0,-556 36,-556 36,-592"/>
</g>
<!-- cluster&#45;0 -->
<g id="node50" class="node">
<title>cluster&#45;0</title>
<polygon fill="black" stroke="black" stroke-width="0" points="90,-556 72,-556 72,-538 90,-538 90,-556"/>
</g>
<!-- action&#45;1&#45;&#45;cluster&#45;0 -->
<g id="edge24" class="edge">
<title>action&#45;1&#45;&#45;cluster&#45;0</title>
<path fill="none" stroke="black" d="M36.32,-566.34C48.01,-561.16 62.91,-554.57 71.94,-550.57"/>
</g>
<!-- action&#45;3 -->
<g id="node5" class="node">
<title>action&#45;3</title>
<polygon fill="white" stroke="black" points="36,-538 0,-538 0,-502 36,-502 36,-538"/>
</g>
<!-- action&#45;3&#45;&#45;cluster&#45;0 -->
<g id="edge25" class="edge">
<title>action&#45;3&#45;&#45;cluster&#45;0</title>
<path fill="none" stroke="black" d="M36.32,-527.66C48.01,-532.84 62.91,-539.43 71.94,-543.43"/>
</g>
<!-- action&#45;4 -->
<g id="node6" class="node">
<title>action&#45;4</title>
<polygon fill="white" stroke="black" points="162,-565 126,-565 126,-529 162,-529 162,-565"/>
</g>
<!-- cluster&#45;1 -->
<g id="node51" class="node">
<title>cluster&#45;1</title>
<polygon fill="black" stroke="black" stroke-width="0" points="216,-529 198,-529 198,-511 216,-511 216,-529"/>
</g>
<!-- action&#45;4&#45;&#45;cluster&#45;1 -->
<g id="edge26" class="edge">
<title>action&#45;4&#45;&#45;cluster&#45;1</title>
<path fill="none" stroke="black" d="M162.32,-539.34C174.01,-534.16 188.91,-527.57 197.94,-523.57"/>
</g>
<!-- action&#45;7 -->
<g id="node7" class="node">
<title>action&#45;7</title>
<polygon fill="white" stroke="black" points="162,-511 126,-511 126,-475 162,-475 162,-511"/>
</g>
<!-- action&#45;7&#45;&#45;cluster&#45;1 -->
<g id="edge27" class="edge">
<title>action&#45;7&#45;&#45;cluster&#45;1</title>
<path fill="none" stroke="black" d="M162.32,-500.66C174.01,-505.84 188.91,-512.43 197.94,-516.43"/>
</g>
<!-- action&#45;8 -->
<g id="node8" class="node">
<title>action&#45;8</title>
<polygon fill="white" stroke="black" points="288,-538 252,-538 252,-502 288,-502 288,-538"/>
</g>
<!-- cluster&#45;4 -->
<g id="node54" class="node">
<title>cluster&#45;4</title>
<polygon fill="black" stroke="black" stroke-width="0" points="342,-502 324,-502 324,-484 342,-484 342,-502"/>
</g>
<!-- action&#45;8&#45;&#45;cluster&#45;4 -->
<g id="edge32" class="edge">
<title>action&#45;8&#45;&#45;cluster&#45;4</title>
<path fill="none" stroke="black" d="M288.32,-512.34C300.01,-507.16 314.91,-500.57 323.94,-496.57"/>
</g>
<!-- action&#45;11 -->
<g id="node9" class="node">
<title>action&#45;11</title>
<polygon fill="white" stroke="black" points="1422,-430 1386,-430 1386,-394 1422,-394 1422,-430"/>
</g>
<!-- cluster&#45;2 -->
<g id="node52" class="node">
<title>cluster&#45;2</title>
<polygon fill="black" stroke="black" stroke-width="0" points="1476,-387 1458,-387 1458,-369 1476,-369 1476,-387"/>
</g>
<!-- action&#45;11&#45;&#45;cluster&#45;2 -->
<g id="edge28" class="edge">
<title>action&#45;11&#45;&#45;cluster&#45;2</title>
<path fill="none" stroke="black" d="M1422.32,-402.35C1434.01,-395.83 1448.91,-387.53 1457.94,-382.5"/>
</g>
<!-- action&#45;13 -->
<g id="node10" class="node">
<title>action&#45;13</title>
<polygon fill="white" stroke="black" points="1422,-376 1386,-376 1386,-340 1422,-340 1422,-376"/>
</g>
<!-- action&#45;13&#45;&#45;cluster&#45;2 -->
<g id="edge29" class="edge">
<title>action&#45;13&#45;&#45;cluster&#45;2</title>
<path fill="none" stroke="black" d="M1422.32,-363.68C1434.01,-367.51 1448.91,-372.4 1457.94,-375.36"/>
</g>
<!-- action&#45;14 -->
<g id="node11" class="node">
<title>action&#45;14</title>
<polygon fill="white" stroke="black" points="1548,-396 1512,-396 1512,-360 1548,-360 1548,-396"/>
</g>
<!-- cluster&#45;3 -->
<g id="node53" class="node">
<title>cluster&#45;3</title>
<polygon fill="black" stroke="black" stroke-width="0" points="1602,-343 1584,-343 1584,-325 1602,-325 1602,-343"/>
</g>
<!-- action&#45;14&#45;&#45;cluster&#45;3 -->
<g id="edge30" class="edge">
<title>action&#45;14&#45;&#45;cluster&#45;3</title>
<path fill="none" stroke="black" d="M1548.32,-365.51C1560.01,-357.07 1574.91,-346.33 1583.94,-339.82"/>
</g>
<!-- action&#45;17 -->
<g id="node12" class="node">
<title>action&#45;17</title>
<polygon fill="white" stroke="black" points="1548,-342 1512,-342 1512,-306 1548,-306 1548,-342"/>
</g>
<!-- action&#45;17&#45;&#45;cluster&#45;3 -->
<g id="edge31" class="edge">
<title>action&#45;17&#45;&#45;cluster&#45;3</title>
<path fill="none" stroke="black" d="M1548.32,-326.84C1560.01,-328.76 1574.91,-331.2 1583.94,-332.68"/>
</g>
<!-- action&#45;18 -->
<g id="node13" class="node">
<title>action&#45;18</title>
<polygon fill="white" stroke="black" points="1674,-352 1638,-352 1638,-316 1674,-316 1674,-352"/>
</g>
<!-- cluster&#45;13 -->
<g id="node63" class="node">
<title>cluster&#45;13</title>
<polygon fill="black" stroke="black" stroke-width="0" points="1728,-294 1710,-294 1710,-276 1728,-276 1728,-294"/>
</g>
<!-- action&#45;18&#45;&#45;cluster&#45;13 -->
<g id="edge50" class="edge">
<title>action&#45;18&#45;&#45;cluster&#45;13</title>
<path fill="none" stroke="black" d="M1674.32,-320.09C1686.01,-310.7 1700.91,-298.73 1709.94,-291.48"/>
</g>
<!-- action&#45;21 -->
<g id="node14" class="node">
<title>action&#45;21</title>
<polygon fill="white" stroke="black" points="288,-484 252,-484 252,-448 288,-448 288,-484"/>
</g>
<!-- action&#45;21&#45;&#45;cluster&#45;4 -->
<g id="edge33" class="edge">
<title>action&#45;21&#45;&#45;cluster&#45;4</title>
<path fill="none" stroke="black" d="M288.32,-473.66C300.01,-478.84 314.91,-485.43 323.94,-489.43"/>
</g>
<!-- action&#45;22 -->
<g id="node15" class="node">
<title>action&#45;22</title>
<polygon fill="white" stroke="black" points="414,-511 378,-511 378,-475 414,-475 414,-511"/>
</g>
<!-- cluster&#45;5 -->
<g id="node55" class="node">
<title>cluster&#45;5</title>
<polygon fill="black" stroke="black" stroke-width="0" points="468,-475 450,-475 450,-457 468,-457 468,-475"/>
</g>
<!-- action&#45;22&#45;&#45;cluster&#45;5 -->
<g id="edge34" class="edge">
<title>action&#45;22&#45;&#45;cluster&#45;5</title>
<path fill="none" stroke="black" d="M414.32,-485.34C426.01,-480.16 440.91,-473.57 449.94,-469.57"/>
</g>
<!-- action&#45;25 -->
<g id="node16" class="node">
<title>action&#45;25</title>
<polygon fill="white" stroke="black" points="414,-457 378,-457 378,-421 414,-421 414,-457"/>
</g>
<!-- action&#45;25&#45;&#45;cluster&#45;5 -->
<g id="edge35" class="edge">
<title>action&#45;25&#45;&#45;cluster&#45;5</title>
<path fill="none" stroke="black" d="M414.32,-446.66C426.01,-451.84 440.91,-458.43 449.94,-462.43"/>
</g>
<!-- action&#45;26 -->
<g id="node17" class="node">
<title>action&#45;26</title>
<polygon fill="white" stroke="black" points="540,-484 504,-484 504,-448 540,-448 540,-484"/>
</g>
<!-- cluster&#45;6 -->
<g id="node56" class="node">
<title>cluster&#45;6</title>
<polygon fill="black" stroke="black" stroke-width="0" points="594,-448 576,-448 576,-430 594,-430 594,-448"/>
</g>
<!-- action&#45;26&#45;&#45;cluster&#45;6 -->
<g id="edge36" class="edge">
<title>action&#45;26&#45;&#45;cluster&#45;6</title>
<path fill="none" stroke="black" d="M540.32,-458.34C552.01,-453.16 566.91,-446.57 575.94,-442.57"/>
</g>
<!-- action&#45;31 -->
<g id="node18" class="node">
<title>action&#45;31</title>
<polygon fill="white" stroke="black" points="540,-430 504,-430 504,-394 540,-394 540,-430"/>
</g>
<!-- action&#45;31&#45;&#45;cluster&#45;6 -->
<g id="edge37" class="edge">
<title>action&#45;31&#45;&#45;cluster&#45;6</title>
<path fill="none" stroke="black" d="M540.32,-419.66C552.01,-424.84 566.91,-431.43 575.94,-435.43"/>
</g>
<!-- action&#45;32 -->
<g id="node19" class="node">
<title>action&#45;32</title>
<polygon fill="white" stroke="black" points="666,-457 630,-457 630,-421 666,-421 666,-457"/>
</g>
<!-- cluster&#45;7 -->
<g id="node57" class="node">
<title>cluster&#45;7</title>
<polygon fill="black" stroke="black" stroke-width="0" points="720,-421 702,-421 702,-403 720,-403 720,-421"/>
</g>
<!-- action&#45;32&#45;&#45;cluster&#45;7 -->
<g id="edge38" class="edge">
<title>action&#45;32&#45;&#45;cluster&#45;7</title>
<path fill="none" stroke="black" d="M666.32,-431.34C678.01,-426.16 692.91,-419.57 701.94,-415.57"/>
</g>
<!-- action&#45;35 -->
<g id="node20" class="node">
<title>action&#45;35</title>
<polygon fill="white" stroke="black" points="666,-403 630,-403 630,-367 666,-367 666,-403"/>
</g>
<!-- action&#45;35&#45;&#45;cluster&#45;7 -->
<g id="edge39" class="edge">
<title>action&#45;35&#45;&#45;cluster&#45;7</title>
<path fill="none" stroke="black" d="M666.32,-392.66C678.01,-397.84 692.91,-404.43 701.94,-408.43"/>
</g>
<!-- action&#45;36 -->
<g id="node21" class="node">
<title>action&#45;36</title>
<polygon fill="white" stroke="black" points="792,-430 756,-430 756,-394 792,-394 792,-430"/>
</g>
<!-- cluster&#45;8 -->
<g id="node58" class="node">
<title>cluster&#45;8</title>
<polygon fill="black" stroke="black" stroke-width="0" points="846,-394 828,-394 828,-376 846,-376 846,-394"/>
</g>
<!-- action&#45;36&#45;&#45;cluster&#45;8 -->
<g id="edge40" class="edge">
<title>action&#45;36&#45;&#45;cluster&#45;8</title>
<path fill="none" stroke="black" d="M792.32,-404.34C804.01,-399.16 818.91,-392.57 827.94,-388.57"/>
</g>
<!-- action&#45;39 -->
<g id="node22" class="node">
<title>action&#45;39</title>
<polygon fill="white" stroke="black" points="792,-376 756,-376 756,-340 792,-340 792,-376"/>
</g>
<!-- action&#45;39&#45;&#45;cluster&#45;8 -->
<g id="edge41" class="edge">
<title>action&#45;39&#45;&#45;cluster&#45;8</title>
<path fill="none" stroke="black" d="M792.32,-365.66C804.01,-370.84 818.91,-377.43 827.94,-381.43"/>
</g>
<!-- action&#45;40 -->
<g id="node23" class="node">
<title>action&#45;40</title>
<polygon fill="white" stroke="black" points="918,-403 882,-403 882,-367 918,-367 918,-403"/>
</g>
<!-- cluster&#45;9 -->
<g id="node59" class="node">
<title>cluster&#45;9</title>
<polygon fill="black" stroke="black" stroke-width="0" points="972,-367 954,-367 954,-349 972,-349 972,-367"/>
</g>
<!-- action&#45;40&#45;&#45;cluster&#45;9 -->
<g id="edge42" class="edge">
<title>action&#45;40&#45;&#45;cluster&#45;9</title>
<path fill="none" stroke="black" d="M918.32,-377.34C930.01,-372.16 944.91,-365.57 953.94,-361.57"/>
</g>
<!-- action&#45;43 -->
<g id="node24" class="node">
<title>action&#45;43</title>
<polygon fill="white" stroke="black" points="918,-349 882,-349 882,-313 918,-313 918,-349"/>
</g>
<!-- action&#45;43&#45;&#45;cluster&#45;9 -->
<g id="edge43" class="edge">
<title>action&#45;43&#45;&#45;cluster&#45;9</title>
<path fill="none" stroke="black" d="M918.32,-338.66C930.01,-343.84 944.91,-350.43 953.94,-354.43"/>
</g>
<!-- action&#45;44 -->
<g id="node25" class="node">
<title>action&#45;44</title>
<polygon fill="white" stroke="black" points="1044,-376 1008,-376 1008,-340 1044,-340 1044,-376"/>
</g>
<!-- cluster&#45;10 -->
<g id="node60" class="node">
<title>cluster&#45;10</title>
<polygon fill="black" stroke="black" stroke-width="0" points="1098,-340 1080,-340 1080,-322 1098,-322 1098,-340"/>
</g>
<!-- action&#45;44&#45;&#45;cluster&#45;10 -->
<g id="edge44" class="edge">
<title>action&#45;44&#45;&#45;cluster&#45;10</title>
<path fill="none" stroke="black" d="M1044.32,-350.34C1056.01,-345.16 1070.91,-338.57 1079.94,-334.57"/>
</g>
<!-- action&#45;47 -->
<g id="node26" class="node">
<title>action&#45;47</title>
<polygon fill="white" stroke="black" points="1044,-322 1008,-322 1008,-286 1044,-286 1044,-322"/>
</g>
<!-- action&#45;47&#45;&#45;cluster&#45;10 -->
<g id="edge45" class="edge">
<title>action&#45;47&#45;&#45;cluster&#45;10</title>
<path fill="none" stroke="black" d="M1044.32,-311.66C1056.01,-316.84 1070.91,-323.43 1079.94,-327.43"/>
</g>
<!-- action&#45;48 -->
<g id="node27" class="node">
<title>action&#45;48</title>
<polygon fill="white" stroke="black" points="1170,-349 1134,-349 1134,-313 1170,-313 1170,-349"/>
</g>
<!-- cluster&#45;11 -->
<g id="node61" class="node">
<title>cluster&#45;11</title>
<polygon fill="black" stroke="black" stroke-width="0" points="1224,-313 1206,-313 1206,-295 1224,-295 1224,-313"/>
</g>
<!-- action&#45;48&#45;&#45;cluster&#45;11 -->
<g id="edge46" class="edge">
<title>action&#45;48&#45;&#45;cluster&#45;11</title>
<path fill="none" stroke="black" d="M1170.32,-323.34C1182.01,-318.16 1196.91,-311.57 1205.94,-307.57"/>
</g>
<!-- action&#45;51 -->
<g id="node28" class="node">
<title>action&#45;51</title>
<polygon fill="white" stroke="black" points="1170,-295 1134,-295 1134,-259 1170,-259 1170,-295"/>
</g>
<!-- action&#45;51&#45;&#45;cluster&#45;11 -->
<g id="edge47" class="edge">
<title>action&#45;51&#45;&#45;cluster&#45;11</title>
<path fill="none" stroke="black" d="M1170.32,-284.66C1182.01,-289.84 1196.91,-296.43 1205.94,-300.43"/>
</g>
<!-- action&#45;52 -->
<g id="node29" class="node">
<title>action&#45;52</title>
<polygon fill="white" stroke="black" points="1296,-322 1260,-322 1260,-286 1296,-286 1296,-322"/>
</g>
<!-- cluster&#45;12 -->
<g id="node62" class="node">
<title>cluster&#45;12</title>
<polygon fill="black" stroke="black" stroke-width="0" points="1350,-286 1332,-286 1332,-268 1350,-268 1350,-286"/>
</g>
<!-- action&#45;52&#45;&#45;cluster&#45;12 -->
<g id="edge48" class="edge">
<title>action&#45;52&#45;&#45;cluster&#45;12</title>
<path fill="none" stroke="black" d="M1296.32,-296.34C1308.01,-291.16 1322.91,-284.57 1331.94,-280.57"/>
</g>
<!-- action&#45;55 -->
<g id="node30" class="node">
<title>action&#45;55</title>
<polygon fill="white" stroke="black" points="1296,-268 1260,-268 1260,-232 1296,-232 1296,-268"/>
</g>
<!-- action&#45;55&#45;&#45;cluster&#45;12 -->
<g id="edge49" class="edge">
<title>action&#45;55&#45;&#45;cluster&#45;12</title>
<path fill="none" stroke="black" d="M1296.32,-257.66C1308.01,-262.84 1322.91,-269.43 1331.94,-273.43"/>
</g>
<!-- action&#45;56 -->
<g id="node31" class="node">
<title>action&#45;56</title>
<polygon fill="white" stroke="black" points="1422,-295 1386,-295 1386,-259 1422,-259 1422,-295"/>
</g>
<!-- cluster&#45;14 -->
<g id="node64" class="node">
<title>cluster&#45;14</title>
<polygon fill="black" stroke="black" stroke-width="0" points="1476,-245 1458,-245 1458,-227 1476,-227 1476,-245"/>
</g>
<!-- action&#45;56&#45;&#45;cluster&#45;14 -->
<g id="edge52" class="edge">
<title>action&#45;56&#45;&#45;cluster&#45;14</title>
<path fill="none" stroke="black" d="M1422.32,-265.36C1434.01,-257.5 1448.91,-247.49 1457.94,-241.42"/>
</g>
<!-- action&#45;59 -->
<g id="node32" class="node">
<title>action&#45;59</title>
<polygon fill="white" stroke="black" points="1674,-298 1638,-298 1638,-262 1674,-262 1674,-298"/>
</g>
<!-- action&#45;59&#45;&#45;cluster&#45;13 -->
<g id="edge51" class="edge">
<title>action&#45;59&#45;&#45;cluster&#45;13</title>
<path fill="none" stroke="black" d="M1674.32,-281.42C1686.01,-282.38 1700.91,-283.6 1709.94,-284.34"/>
</g>
<!-- action&#45;60 -->
<g id="node33" class="node">
<title>action&#45;60</title>
<polygon fill="white" stroke="black" points="1800,-303 1764,-303 1764,-267 1800,-267 1800,-303"/>
</g>
<!-- cluster&#45;16 -->
<g id="node66" class="node">
<title>cluster&#45;16</title>
<polygon fill="black" stroke="black" stroke-width="0" points="1854,-242 1836,-242 1836,-224 1854,-224 1854,-242"/>
</g>
<!-- action&#45;60&#45;&#45;cluster&#45;16 -->
<g id="edge56" class="edge">
<title>action&#45;60&#45;&#45;cluster&#45;16</title>
<path fill="none" stroke="black" d="M1800.32,-270.24C1812.01,-260.27 1826.91,-247.57 1835.94,-239.88"/>
</g>
<!-- action&#45;63 -->
<g id="node34" class="node">
<title>action&#45;63</title>
<polygon fill="white" stroke="black" points="1422,-241 1386,-241 1386,-205 1422,-205 1422,-241"/>
</g>
<!-- action&#45;63&#45;&#45;cluster&#45;14 -->
<g id="edge53" class="edge">
<title>action&#45;63&#45;&#45;cluster&#45;14</title>
<path fill="none" stroke="black" d="M1422.32,-226.69C1434.01,-229.18 1448.91,-232.36 1457.94,-234.28"/>
</g>
<!-- action&#45;64 -->
<g id="node35" class="node">
<title>action&#45;64</title>
<polygon fill="white" stroke="black" points="1548,-254 1512,-254 1512,-218 1548,-218 1548,-254"/>
</g>
<!-- cluster&#45;15 -->
<g id="node65" class="node">
<title>cluster&#45;15</title>
<polygon fill="black" stroke="black" stroke-width="0" points="1602,-191 1584,-191 1584,-173 1602,-173 1602,-191"/>
</g>
<!-- action&#45;64&#45;&#45;cluster&#45;15 -->
<g id="edge54" class="edge">
<title>action&#45;64&#45;&#45;cluster&#45;15</title>
<path fill="none" stroke="black" d="M1548.32,-220.67C1560.01,-210.32 1574.91,-197.13 1583.94,-189.14"/>
</g>
<!-- action&#45;67 -->
<g id="node36" class="node">
<title>action&#45;67</title>
<polygon fill="white" stroke="black" points="1548,-200 1512,-200 1512,-164 1548,-164 1548,-200"/>
</g>
<!-- action&#45;67&#45;&#45;cluster&#45;15 -->
<g id="edge55" class="edge">
<title>action&#45;67&#45;&#45;cluster&#45;15</title>
<path fill="none" stroke="black" d="M1548.32,-182C1560.01,-182 1574.91,-182 1583.94,-182"/>
</g>
<!-- action&#45;68 -->
<g id="node37" class="node">
<title>action&#45;68</title>
<polygon fill="white" stroke="black" points="1674,-200 1638,-200 1638,-164 1674,-164 1674,-200"/>
</g>
<!-- cluster&#45;18 -->
<g id="node68" class="node">
<title>cluster&#45;18</title>
<polygon fill="black" stroke="black" stroke-width="0" points="1728,-137 1710,-137 1710,-119 1728,-119 1728,-137"/>
</g>
<!-- action&#45;68&#45;&#45;cluster&#45;18 -->
<g id="edge60" class="edge">
<title>action&#45;68&#45;&#45;cluster&#45;18</title>
<path fill="none" stroke="black" d="M1674.32,-166.67C1686.01,-156.32 1700.91,-143.13 1709.94,-135.14"/>
</g>
<!-- action&#45;71 -->
<g id="node38" class="node">
<title>action&#45;71</title>
<polygon fill="white" stroke="black" points="1800,-249 1764,-249 1764,-213 1800,-213 1800,-249"/>
</g>
<!-- action&#45;71&#45;&#45;cluster&#45;16 -->
<g id="edge57" class="edge">
<title>action&#45;71&#45;&#45;cluster&#45;16</title>
<path fill="none" stroke="black" d="M1800.32,-231.57C1812.01,-231.95 1826.91,-232.44 1835.94,-232.74"/>
</g>
<!-- action&#45;72 -->
<g id="node39" class="node">
<title>action&#45;72</title>
<polygon fill="white" stroke="black" points="1926,-251 1890,-251 1890,-215 1926,-215 1926,-251"/>
</g>
<!-- cluster&#45;17 -->
<g id="node67" class="node">
<title>cluster&#45;17</title>
<polygon fill="black" stroke="black" stroke-width="0" points="1980,-189 1962,-189 1962,-171 1980,-171 1980,-189"/>
</g>
<!-- action&#45;72&#45;&#45;cluster&#45;17 -->
<g id="edge58" class="edge">
<title>action&#45;72&#45;&#45;cluster&#45;17</title>
<path fill="none" stroke="black" d="M1926.32,-217.95C1938.01,-207.79 1952.91,-194.85 1961.94,-187.01"/>
</g>
<!-- action&#45;75 -->
<g id="node40" class="node">
<title>action&#45;75</title>
<polygon fill="white" stroke="black" points="1926,-197 1890,-197 1890,-161 1926,-161 1926,-197"/>
</g>
<!-- action&#45;75&#45;&#45;cluster&#45;17 -->
<g id="edge59" class="edge">
<title>action&#45;75&#45;&#45;cluster&#45;17</title>
<path fill="none" stroke="black" d="M1926.32,-179.28C1938.01,-179.48 1952.91,-179.72 1961.94,-179.87"/>
</g>
<!-- action&#45;76 -->
<g id="node41" class="node">
<title>action&#45;76</title>
<polygon fill="white" stroke="black" points="2052,-198 2016,-198 2016,-162 2052,-162 2052,-198"/>
</g>
<!-- cluster&#45;20 -->
<g id="node70" class="node">
<title>cluster&#45;20</title>
<polygon fill="black" stroke="black" stroke-width="0" points="2106,-135 2088,-135 2088,-117 2106,-117 2106,-135"/>
</g>
<!-- action&#45;76&#45;&#45;cluster&#45;20 -->
<g id="edge64" class="edge">
<title>action&#45;76&#45;&#45;cluster&#45;20</title>
<path fill="none" stroke="black" d="M2052.32,-164.67C2064.01,-154.32 2078.91,-141.13 2087.94,-133.14"/>
</g>
<!-- action&#45;79 -->
<g id="node42" class="node">
<title>action&#45;79</title>
<polygon fill="white" stroke="black" points="1674,-146 1638,-146 1638,-110 1674,-110 1674,-146"/>
</g>
<!-- action&#45;79&#45;&#45;cluster&#45;18 -->
<g id="edge61" class="edge">
<title>action&#45;79&#45;&#45;cluster&#45;18</title>
<path fill="none" stroke="black" d="M1674.32,-128C1686.01,-128 1700.91,-128 1709.94,-128"/>
</g>
<!-- action&#45;80 -->
<g id="node43" class="node">
<title>action&#45;80</title>
<polygon fill="white" stroke="black" points="1800,-146 1764,-146 1764,-110 1800,-110 1800,-146"/>
</g>
<!-- cluster&#45;19 -->
<g id="node69" class="node">
<title>cluster&#45;19</title>
<polygon fill="black" stroke="black" stroke-width="0" points="1854,-83 1836,-83 1836,-65 1854,-65 1854,-83"/>
</g>
<!-- action&#45;80&#45;&#45;cluster&#45;19 -->
<g id="edge62" class="edge">
<title>action&#45;80&#45;&#45;cluster&#45;19</title>
<path fill="none" stroke="black" d="M1800.32,-112.67C1812.01,-102.32 1826.91,-89.13 1835.94,-81.14"/>
</g>
<!-- action&#45;83 -->
<g id="node44" class="node">
<title>action&#45;83</title>
<polygon fill="white" stroke="black" points="1800,-92 1764,-92 1764,-56 1800,-56 1800,-92"/>
</g>
<!-- action&#45;83&#45;&#45;cluster&#45;19 -->
<g id="edge63" class="edge">
<title>action&#45;83&#45;&#45;cluster&#45;19</title>
<path fill="none" stroke="black" d="M1800.32,-74C1812.01,-74 1826.91,-74 1835.94,-74"/>
</g>
<!-- action&#45;84 -->
<g id="node45" class="node">
<title>action&#45;84</title>
<polygon fill="white" stroke="black" points="1926,-92 1890,-92 1890,-56 1926,-56 1926,-92"/>
</g>
<!-- cluster&#45;21 -->
<g id="node71" class="node">
<title>cluster&#45;21</title>
<polygon fill="black" stroke="black" stroke-width="0" points="1980,-81 1962,-81 1962,-63 1980,-63 1980,-81"/>
</g>
<!-- action&#45;84&#45;&#45;cluster&#45;21 -->
<g id="edge66" class="edge">
<title>action&#45;84&#45;&#45;cluster&#45;21</title>
<path fill="none" stroke="black" d="M1926.32,-73.43C1938.01,-73.05 1952.91,-72.56 1961.94,-72.26"/>
</g>
<!-- action&#45;87 -->
<g id="node46" class="node">
<title>action&#45;87</title>
<polygon fill="white" stroke="black" points="2052,-144 2016,-144 2016,-108 2052,-108 2052,-144"/>
</g>
<!-- action&#45;87&#45;&#45;cluster&#45;20 -->
<g id="edge65" class="edge">
<title>action&#45;87&#45;&#45;cluster&#45;20</title>
<path fill="none" stroke="black" d="M2052.32,-126C2064.01,-126 2078.91,-126 2087.94,-126"/>
</g>
<!-- action&#45;91 -->
<g id="node47" class="node">
<title>action&#45;91</title>
<polygon fill="white" stroke="black" points="1926,-38 1890,-38 1890,-2 1926,-2 1926,-38"/>
</g>
<!-- action&#45;91&#45;&#45;cluster&#45;21 -->
<g id="edge67" class="edge">
<title>action&#45;91&#45;&#45;cluster&#45;21</title>
<path fill="none" stroke="black" d="M1926.32,-34.76C1938.01,-44.73 1952.91,-57.43 1961.94,-65.12"/>
</g>
<!-- action&#45;92 -->
<g id="node48" class="node">
<title>action&#45;92</title>
<polygon fill="#c9211e" stroke="black" points="2052,-90 2016,-90 2016,-54 2052,-54 2052,-90"/>
</g>
<!-- cluster&#45;22 -->
<g id="node72" class="node">
<title>cluster&#45;22</title>
<polygon fill="black" stroke="black" stroke-width="0" points="2106,-81 2088,-81 2088,-63 2106,-63 2106,-81"/>
</g>
<!-- action&#45;92&#45;&#45;cluster&#45;22 -->
<g id="edge68" class="edge">
<title>action&#45;92&#45;&#45;cluster&#45;22</title>
<path fill="none" stroke="black" d="M2052.32,-72C2064.01,-72 2078.91,-72 2087.94,-72"/>
</g>
<!-- action&#45;95 -->
<g id="node49" class="node">
<title>action&#45;95</title>
<polygon fill="#00008b" stroke="black" points="2052,-36 2016,-36 2016,0 2052,0 2052,-36"/>
</g>
<!-- action&#45;95&#45;&#45;cluster&#45;22 -->
<g id="edge69" class="edge">
<title>action&#45;95&#45;&#45;cluster&#45;22</title>
<path fill="none" stroke="black" d="M2052.32,-33.33C2064.01,-43.68 2078.91,-56.87 2087.94,-64.86"/>
</g>
<!-- cluster&#45;0&#45;&#45;action&#45;4 -->
<g id="edge1" class="edge">
<title>cluster&#45;0&#45;&#45;action&#45;4</title>
<path fill="none" stroke="black" d="M90.23,-547C99.33,-547 114.26,-547 125.92,-547"/>
</g>
<!-- cluster&#45;1&#45;&#45;action&#45;8 -->
<g id="edge2" class="edge">
<title>cluster&#45;1&#45;&#45;action&#45;8</title>
<path fill="none" stroke="black" d="M216.23,-520C225.33,-520 240.26,-520 251.92,-520"/>
</g>
<!-- cluster&#45;2&#45;&#45;action&#45;14 -->
<g id="edge3" class="edge">
<title>cluster&#45;2&#45;&#45;action&#45;14</title>
<path fill="none" stroke="black" d="M1476.23,-378C1485.33,-378 1500.26,-378 1511.92,-378"/>
</g>
<!-- cluster&#45;3&#45;&#45;action&#45;18 -->
<g id="edge4" class="edge">
<title>cluster&#45;3&#45;&#45;action&#45;18</title>
<path fill="none" stroke="black" d="M1602.23,-334C1611.33,-334 1626.26,-334 1637.92,-334"/>
</g>
<!-- cluster&#45;4&#45;&#45;action&#45;22 -->
<g id="edge5" class="edge">
<title>cluster&#45;4&#45;&#45;action&#45;22</title>
<path fill="none" stroke="black" d="M342.23,-493C351.33,-493 366.26,-493 377.92,-493"/>
</g>
<!-- cluster&#45;5&#45;&#45;action&#45;26 -->
<g id="edge6" class="edge">
<title>cluster&#45;5&#45;&#45;action&#45;26</title>
<path fill="none" stroke="black" d="M468.23,-466C477.33,-466 492.26,-466 503.92,-466"/>
</g>
<!-- cluster&#45;6&#45;&#45;action&#45;32 -->
<g id="edge7" class="edge">
<title>cluster&#45;6&#45;&#45;action&#45;32</title>
<path fill="none" stroke="black" d="M594.23,-439C603.33,-439 618.26,-439 629.92,-439"/>
</g>
<!-- cluster&#45;7&#45;&#45;action&#45;36 -->
<g id="edge8" class="edge">
<title>cluster&#45;7&#45;&#45;action&#45;36</title>
<path fill="none" stroke="black" d="M720.23,-412C729.33,-412 744.26,-412 755.92,-412"/>
</g>
<!-- cluster&#45;8&#45;&#45;action&#45;40 -->
<g id="edge9" class="edge">
<title>cluster&#45;8&#45;&#45;action&#45;40</title>
<path fill="none" stroke="black" d="M846.23,-385C855.33,-385 870.26,-385 881.92,-385"/>
</g>
<!-- cluster&#45;9&#45;&#45;action&#45;44 -->
<g id="edge10" class="edge">
<title>cluster&#45;9&#45;&#45;action&#45;44</title>
<path fill="none" stroke="black" d="M972.23,-358C981.33,-358 996.26,-358 1007.92,-358"/>
</g>
<!-- cluster&#45;10&#45;&#45;action&#45;48 -->
<g id="edge11" class="edge">
<title>cluster&#45;10&#45;&#45;action&#45;48</title>
<path fill="none" stroke="black" d="M1098.23,-331C1107.33,-331 1122.26,-331 1133.92,-331"/>
</g>
<!-- cluster&#45;11&#45;&#45;action&#45;52 -->
<g id="edge12" class="edge">
<title>cluster&#45;11&#45;&#45;action&#45;52</title>
<path fill="none" stroke="black" d="M1224.23,-304C1233.33,-304 1248.26,-304 1259.92,-304"/>
</g>
<!-- cluster&#45;12&#45;&#45;action&#45;56 -->
<g id="edge13" class="edge">
<title>cluster&#45;12&#45;&#45;action&#45;56</title>
<path fill="none" stroke="black" d="M1350.23,-277C1359.33,-277 1374.26,-277 1385.92,-277"/>
</g>
<!-- cluster&#45;13&#45;&#45;action&#45;60 -->
<g id="edge14" class="edge">
<title>cluster&#45;13&#45;&#45;action&#45;60</title>
<path fill="none" stroke="black" d="M1728.23,-285C1737.33,-285 1752.26,-285 1763.92,-285"/>
</g>
<!-- cluster&#45;14&#45;&#45;action&#45;64 -->
<g id="edge15" class="edge">
<title>cluster&#45;14&#45;&#45;action&#45;64</title>
<path fill="none" stroke="black" d="M1476.23,-236C1485.33,-236 1500.26,-236 1511.92,-236"/>
</g>
<!-- cluster&#45;15&#45;&#45;action&#45;68 -->
<g id="edge16" class="edge">
<title>cluster&#45;15&#45;&#45;action&#45;68</title>
<path fill="none" stroke="black" d="M1602.23,-182C1611.33,-182 1626.26,-182 1637.92,-182"/>
</g>
<!-- cluster&#45;16&#45;&#45;action&#45;72 -->
<g id="edge17" class="edge">
<title>cluster&#45;16&#45;&#45;action&#45;72</title>
<path fill="none" stroke="black" d="M1854.23,-233C1863.33,-233 1878.26,-233 1889.92,-233"/>
</g>
<!-- cluster&#45;17&#45;&#45;action&#45;76 -->
<g id="edge18" class="edge">
<title>cluster&#45;17&#45;&#45;action&#45;76</title>
<path fill="none" stroke="black" d="M1980.23,-180C1989.33,-180 2004.26,-180 2015.92,-180"/>
</g>
<!-- cluster&#45;18&#45;&#45;action&#45;80 -->
<g id="edge19" class="edge">
<title>cluster&#45;18&#45;&#45;action&#45;80</title>
<path fill="none" stroke="black" d="M1728.23,-128C1737.33,-128 1752.26,-128 1763.92,-128"/>
</g>
<!-- cluster&#45;19&#45;&#45;action&#45;84 -->
<g id="edge20" class="edge">
<title>cluster&#45;19&#45;&#45;action&#45;84</title>
<path fill="none" stroke="black" d="M1854.23,-74C1863.33,-74 1878.26,-74 1889.92,-74"/>
</g>
<!-- cluster&#45;20&#45;&#45;action&#45;88 -->
<g id="edge21" class="edge">
<title>cluster&#45;20&#45;&#45;action&#45;88</title>
<path fill="none" stroke="black" d="M2106.23,-126C2115.33,-126 2130.26,-126 2141.92,-126"/>
</g>
<!-- cluster&#45;21&#45;&#45;action&#45;92 -->
<g id="edge22" class="edge">
<title>cluster&#45;21&#45;&#45;action&#45;92</title>
<path fill="none" stroke="black" d="M1980.23,-72C1989.33,-72 2004.26,-72 2015.92,-72"/>
</g>
<!-- cluster&#45;22&#45;&#45;action&#45;96 -->
<g id="edge23" class="edge">
<title>cluster&#45;22&#45;&#45;action&#45;96</title>
<path fill="none" stroke="black" d="M2106.23,-72C2115.33,-72 2130.26,-72 2141.92,-72"/>
</g>
</g>
</svg>
