<?xml version="1.0" encoding="UTF-8" standalone="no"?>
<!DOCTYPE svg PUBLIC "-//W3C//DTD SVG 1.1//EN"
 "http://www.w3.org/Graphics/SVG/1.1/DTD/svg11.dtd">
<!-- Generated by graphviz version 2.43.0 (0)
 -->
<!-- Title: g Pages: 1 -->
<svg width="1037pt" height="1101pt"
 viewBox="0.00 0.00 1037.00 1101.00" xmlns="http://www.w3.org/2000/svg" xmlns:xlink="http://www.w3.org/1999/xlink">
<g id="graph0" class="graph" transform="scale(1 1) rotate(0) translate(4 1097)">
<title>g</title>
<polygon fill="white" stroke="transparent" points="-4,4 -4,-1097 1033,-1097 1033,4 -4,4"/>
<g id="clust1" class="cluster">
<title>cluster_actionlib</title>
<polygon fill="none" stroke="black" points="766,-8 766,-767 1021,-767 1021,-8 766,-8"/>
<text text-anchor="start" x="849.5" y="-752.8" font-family="Arial" font-weight="bold" font-size="14.00">Action library</text>
</g>
<!-- action&#45;8 -->
<g id="node1" class="node">
<title>action&#45;8</title>
<path fill="black" stroke="transparent" d="M796.5,-706C796.5,-706 991.5,-706 991.5,-706 995,-706 998.5,-709.5 998.5,-713 998.5,-713 998.5,-720 998.5,-720 998.5,-723.5 995,-727 991.5,-727 991.5,-727 796.5,-727 796.5,-727 793,-727 789.5,-723.5 789.5,-720 789.5,-720 789.5,-713 789.5,-713 789.5,-709.5 793,-706 796.5,-706"/>
<text text-anchor="start" x="868" y="-713.8" font-family="Arial" font-weight="bold" font-size="14.00" fill="white">action&#45;8</text>
<text text-anchor="start" x="792.5" y="-688.8" font-family="Arial" font-weight="bold" font-size="14.00">params:</text>
<text text-anchor="start" x="792.5" y="-674.8" font-family="Arial" font-size="14.00">X0, X1, X2, X3</text>
<text text-anchor="start" x="792.5" y="-650.8" font-family="Arial" font-weight="bold" font-size="14.00">pre:</text>
<text text-anchor="start" x="792.5" y="-636.8" font-family="Arial" font-size="14.00">at(player&#45;01,X3), clear(X0),</text>
<text text-anchor="start" x="792.5" y="-622.8" font-family="Arial" font-size="14.00">is&#45;nongoal(X0), is&#45;nongoal(X3),</text>
<text text-anchor="start" x="792.5" y="-608.8" font-family="Arial" font-size="14.00">is&#45;player(player&#45;01), location(X0),</text>
<text text-anchor="start" x="792.5" y="-594.8" font-family="Arial" font-size="14.00">location(X3), move&#45;dir(X0,X3,X1),</text>
<text text-anchor="start" x="792.5" y="-580.8" font-family="Arial" font-size="14.00">move&#45;dir(X3,X0,X2),</text>
<text text-anchor="start" x="792.5" y="-566.8" font-family="Arial" font-size="14.00">thing(player&#45;01)</text>
<text text-anchor="start" x="792.5" y="-542.8" font-family="Arial" font-weight="bold" font-size="14.00">add:</text>
<text text-anchor="start" x="792.5" y="-528.8" font-family="Arial" font-size="14.00">at(player&#45;01,X0), clear(X3)</text>
<text text-anchor="start" x="792.5" y="-504.8" font-family="Arial" font-weight="bold" font-size="14.00">del:</text>
<text text-anchor="start" x="792.5" y="-490.8" font-family="Arial" font-size="14.00">at(player&#45;01,X3), clear(X0)</text>
<path fill="none" stroke="black" stroke-width="4" d="M795,-478.5C795,-478.5 992,-478.5 992,-478.5 998,-478.5 1004,-484.5 1004,-490.5 1004,-490.5 1004,-721.5 1004,-721.5 1004,-727.5 998,-733.5 992,-733.5 992,-733.5 795,-733.5 795,-733.5 789,-733.5 783,-727.5 783,-721.5 783,-721.5 783,-490.5 783,-490.5 783,-484.5 789,-478.5 795,-478.5"/>
</g>
<!-- action&#45;11 -->
<g id="node2" class="node">
<title>action&#45;11</title>
<path fill="#008000" stroke="transparent" d="M789.5,-429C789.5,-429 998.5,-429 998.5,-429 1002,-429 1005.5,-432.5 1005.5,-436 1005.5,-436 1005.5,-443 1005.5,-443 1005.5,-446.5 1002,-450 998.5,-450 998.5,-450 789.5,-450 789.5,-450 786,-450 782.5,-446.5 782.5,-443 782.5,-443 782.5,-436 782.5,-436 782.5,-432.5 786,-429 789.5,-429"/>
<text text-anchor="start" x="864.5" y="-436.8" font-family="Arial" font-weight="bold" font-size="14.00" fill="white">action&#45;11</text>
<text text-anchor="start" x="785.5" y="-411.8" font-family="Arial" font-weight="bold" font-size="14.00">params:</text>
<text text-anchor="start" x="785.5" y="-386.8" font-family="Arial" font-weight="bold" font-size="14.00">pre:</text>
<text text-anchor="start" x="785.5" y="-372.8" font-family="Arial" font-size="14.00">at(player&#45;01,pos&#45;4&#45;2),</text>
<text text-anchor="start" x="785.5" y="-358.8" font-family="Arial" font-size="14.00">at(stone&#45;01,pos&#45;4&#45;3),</text>
<text text-anchor="start" x="785.5" y="-344.8" font-family="Arial" font-size="14.00">clear(pos&#45;4&#45;4),</text>
<text text-anchor="start" x="785.5" y="-330.8" font-family="Arial" font-size="14.00">is&#45;nongoal(pos&#45;4&#45;2),</text>
<text text-anchor="start" x="785.5" y="-316.8" font-family="Arial" font-size="14.00">is&#45;nongoal(pos&#45;4&#45;3),</text>
<text text-anchor="start" x="785.5" y="-302.8" font-family="Arial" font-size="14.00">is&#45;nongoal(pos&#45;4&#45;4),</text>
<text text-anchor="start" x="785.5" y="-288.8" font-family="Arial" font-size="14.00">is&#45;player(player&#45;01),</text>
<text text-anchor="start" x="785.5" y="-274.8" font-family="Arial" font-size="14.00">is&#45;stone(stone&#45;01),</text>
<text text-anchor="start" x="785.5" y="-260.8" font-family="Arial" font-size="14.00">location(pos&#45;4&#45;2),</text>
<text text-anchor="start" x="785.5" y="-246.8" font-family="Arial" font-size="14.00">location(pos&#45;4&#45;3),</text>
<text text-anchor="start" x="785.5" y="-232.8" font-family="Arial" font-size="14.00">location(pos&#45;4&#45;4),</text>
<text text-anchor="start" x="785.5" y="-218.8" font-family="Arial" font-size="14.00">move&#45;dir(pos&#45;4&#45;2,pos&#45;4&#45;3,dir&#45;down),</text>
<text text-anchor="start" x="785.5" y="-204.8" font-family="Arial" font-size="14.00">move&#45;dir(pos&#45;4&#45;3,pos&#45;4&#45;2,dir&#45;up),</text>
<text text-anchor="start" x="785.5" y="-190.8" font-family="Arial" font-size="14.00">move&#45;dir(pos&#45;4&#45;3,pos&#45;4&#45;4,dir&#45;down),</text>
<text text-anchor="start" x="785.5" y="-176.8" font-family="Arial" font-size="14.00">move&#45;dir(pos&#45;4&#45;4,pos&#45;4&#45;3,dir&#45;up),</text>
<text text-anchor="start" x="785.5" y="-162.8" font-family="Arial" font-size="14.00">thing(player&#45;01), thing(stone&#45;01)</text>
<text text-anchor="start" x="785.5" y="-138.8" font-family="Arial" font-weight="bold" font-size="14.00">add:</text>
<text text-anchor="start" x="785.5" y="-124.8" font-family="Arial" font-size="14.00">at(player&#45;01,pos&#45;4&#45;3),</text>
<text text-anchor="start" x="785.5" y="-110.8" font-family="Arial" font-size="14.00">at(stone&#45;01,pos&#45;4&#45;4),</text>
<text text-anchor="start" x="785.5" y="-96.8" font-family="Arial" font-size="14.00">clear(pos&#45;4&#45;2)</text>
<text text-anchor="start" x="785.5" y="-72.8" font-family="Arial" font-weight="bold" font-size="14.00">del:</text>
<text text-anchor="start" x="785.5" y="-58.8" font-family="Arial" font-size="14.00">at(player&#45;01,pos&#45;4&#45;2),</text>
<text text-anchor="start" x="785.5" y="-44.8" font-family="Arial" font-size="14.00">at(stone&#45;01,pos&#45;4&#45;3),</text>
<text text-anchor="start" x="785.5" y="-30.8" font-family="Arial" font-size="14.00">clear(pos&#45;4&#45;4)</text>
<path fill="none" stroke="#008000" stroke-width="4" d="M788,-18C788,-18 999,-18 999,-18 1005,-18 1011,-24 1011,-30 1011,-30 1011,-444 1011,-444 1011,-450 1005,-456 999,-456 999,-456 788,-456 788,-456 782,-456 776,-450 776,-444 776,-444 776,-30 776,-30 776,-24 782,-18 788,-18"/>
</g>
<!-- action&#45;1 -->
<g id="node3" class="node">
<title>action&#45;1</title>
<path fill="black" stroke="transparent" d="M12.5,-1067C12.5,-1067 221.5,-1067 221.5,-1067 225,-1067 228.5,-1070.5 228.5,-1074 228.5,-1074 228.5,-1081 228.5,-1081 228.5,-1084.5 225,-1088 221.5,-1088 221.5,-1088 12.5,-1088 12.5,-1088 9,-1088 5.5,-1084.5 5.5,-1081 5.5,-1081 5.5,-1074 5.5,-1074 5.5,-1070.5 9,-1067 12.5,-1067"/>
<text text-anchor="start" x="91" y="-1074.8" font-family="Arial" font-weight="bold" font-size="14.00" fill="white">action&#45;1</text>
<text text-anchor="start" x="8.5" y="-1049.8" font-family="Arial" font-weight="bold" font-size="14.00">params:</text>
<text text-anchor="start" x="8.5" y="-1024.8" font-family="Arial" font-weight="bold" font-size="14.00">pre:</text>
<text text-anchor="start" x="8.5" y="-1010.8" font-family="Arial" font-size="14.00">at(player&#45;01,pos&#45;6&#45;3),</text>
<text text-anchor="start" x="8.5" y="-996.8" font-family="Arial" font-size="14.00">clear(pos&#45;6&#45;2),</text>
<text text-anchor="start" x="8.5" y="-982.8" font-family="Arial" font-size="14.00">is&#45;nongoal(pos&#45;6&#45;2),</text>
<text text-anchor="start" x="8.5" y="-968.8" font-family="Arial" font-size="14.00">is&#45;nongoal(pos&#45;6&#45;3),</text>
<text text-anchor="start" x="8.5" y="-954.8" font-family="Arial" font-size="14.00">is&#45;player(player&#45;01),</text>
<text text-anchor="start" x="8.5" y="-940.8" font-family="Arial" font-size="14.00">location(pos&#45;6&#45;2),</text>
<text text-anchor="start" x="8.5" y="-926.8" font-family="Arial" font-size="14.00">location(pos&#45;6&#45;3),</text>
<text text-anchor="start" x="8.5" y="-912.8" font-family="Arial" font-size="14.00">move&#45;dir(pos&#45;6&#45;2,pos&#45;6&#45;3,dir&#45;down),</text>
<text text-anchor="start" x="8.5" y="-898.8" font-family="Arial" font-size="14.00">move&#45;dir(pos&#45;6&#45;3,pos&#45;6&#45;2,dir&#45;up),</text>
<text text-anchor="start" x="8.5" y="-884.8" font-family="Arial" font-size="14.00">thing(player&#45;01)</text>
<text text-anchor="start" x="8.5" y="-860.8" font-family="Arial" font-weight="bold" font-size="14.00">add:</text>
<text text-anchor="start" x="8.5" y="-846.8" font-family="Arial" font-size="14.00">at(player&#45;01,pos&#45;6&#45;2),</text>
<text text-anchor="start" x="8.5" y="-832.8" font-family="Arial" font-size="14.00">clear(pos&#45;6&#45;3)</text>
<text text-anchor="start" x="8.5" y="-808.8" font-family="Arial" font-weight="bold" font-size="14.00">del:</text>
<text text-anchor="start" x="8.5" y="-794.8" font-family="Arial" font-size="14.00">at(player&#45;01,pos&#45;6&#45;3),</text>
<text text-anchor="start" x="8.5" y="-780.8" font-family="Arial" font-size="14.00">clear(pos&#45;6&#45;2)</text>
<path fill="none" stroke="black" d="M12,-769C12,-769 221,-769 221,-769 227,-769 233,-775 233,-781 233,-781 233,-1081 233,-1081 233,-1087 227,-1093 221,-1093 221,-1093 12,-1093 12,-1093 6,-1093 0,-1087 0,-1081 0,-1081 0,-781 0,-781 0,-775 6,-769 12,-769"/>
</g>
<!-- cluster&#45;0 -->
<g id="node7" class="node">
<title>cluster&#45;0</title>
<path fill="black" stroke="transparent" d="M281,-733C281,-733 342,-733 342,-733 348,-733 354,-739 354,-745 354,-745 354,-775 354,-775 354,-781 348,-787 342,-787 342,-787 281,-787 281,-787 275,-787 269,-781 269,-775 269,-775 269,-745 269,-745 269,-739 275,-733 281,-733"/>
<text text-anchor="start" x="281.5" y="-769.8" font-family="Arial" font-weight="bold" font-size="14.00" fill="white">cluster&#45;0 </text>
<text text-anchor="start" x="276.5" y="-744.8" font-family="Arial" font-weight="bold" font-size="14.00" fill="white">dist.: &#160;</text>
<text text-anchor="start" x="316.5" y="-744.8" font-family="Arial" font-size="14.00" fill="white"> 0.33</text>
</g>
<!-- action&#45;1&#45;&#45;cluster&#45;0 -->
<g id="edge3" class="edge">
<title>action&#45;1&#45;&#45;cluster&#45;0</title>
<path fill="none" stroke="black" d="M233.11,-828.57C250.29,-813.35 266.63,-798.87 279.83,-787.18"/>
</g>
<!-- action&#45;3 -->
<g id="node4" class="node">
<title>action&#45;3</title>
<path fill="black" stroke="transparent" d="M15.5,-725C15.5,-725 218.5,-725 218.5,-725 222,-725 225.5,-728.5 225.5,-732 225.5,-732 225.5,-739 225.5,-739 225.5,-742.5 222,-746 218.5,-746 218.5,-746 15.5,-746 15.5,-746 12,-746 8.5,-742.5 8.5,-739 8.5,-739 8.5,-732 8.5,-732 8.5,-728.5 12,-725 15.5,-725"/>
<text text-anchor="start" x="91" y="-732.8" font-family="Arial" font-weight="bold" font-size="14.00" fill="white">action&#45;3</text>
<text text-anchor="start" x="11.5" y="-707.8" font-family="Arial" font-weight="bold" font-size="14.00">params:</text>
<text text-anchor="start" x="11.5" y="-682.8" font-family="Arial" font-weight="bold" font-size="14.00">pre:</text>
<text text-anchor="start" x="11.5" y="-668.8" font-family="Arial" font-size="14.00">at(player&#45;01,pos&#45;6&#45;2),</text>
<text text-anchor="start" x="11.5" y="-654.8" font-family="Arial" font-size="14.00">clear(pos&#45;5&#45;2),</text>
<text text-anchor="start" x="11.5" y="-640.8" font-family="Arial" font-size="14.00">is&#45;nongoal(pos&#45;5&#45;2),</text>
<text text-anchor="start" x="11.5" y="-626.8" font-family="Arial" font-size="14.00">is&#45;nongoal(pos&#45;6&#45;2),</text>
<text text-anchor="start" x="11.5" y="-612.8" font-family="Arial" font-size="14.00">is&#45;player(player&#45;01),</text>
<text text-anchor="start" x="11.5" y="-598.8" font-family="Arial" font-size="14.00">location(pos&#45;5&#45;2),</text>
<text text-anchor="start" x="11.5" y="-584.8" font-family="Arial" font-size="14.00">location(pos&#45;6&#45;2),</text>
<text text-anchor="start" x="11.5" y="-570.8" font-family="Arial" font-size="14.00">move&#45;dir(pos&#45;5&#45;2,pos&#45;6&#45;2,dir&#45;right),</text>
<text text-anchor="start" x="11.5" y="-556.8" font-family="Arial" font-size="14.00">move&#45;dir(pos&#45;6&#45;2,pos&#45;5&#45;2,dir&#45;left),</text>
<text text-anchor="start" x="11.5" y="-542.8" font-family="Arial" font-size="14.00">thing(player&#45;01)</text>
<text text-anchor="start" x="11.5" y="-518.8" font-family="Arial" font-weight="bold" font-size="14.00">add:</text>
<text text-anchor="start" x="11.5" y="-504.8" font-family="Arial" font-size="14.00">at(player&#45;01,pos&#45;5&#45;2),</text>
<text text-anchor="start" x="11.5" y="-490.8" font-family="Arial" font-size="14.00">clear(pos&#45;6&#45;2)</text>
<text text-anchor="start" x="11.5" y="-466.8" font-family="Arial" font-weight="bold" font-size="14.00">del:</text>
<text text-anchor="start" x="11.5" y="-452.8" font-family="Arial" font-size="14.00">at(player&#45;01,pos&#45;6&#45;2),</text>
<text text-anchor="start" x="11.5" y="-438.8" font-family="Arial" font-size="14.00">clear(pos&#45;5&#45;2)</text>
<path fill="none" stroke="black" d="M15,-427C15,-427 218,-427 218,-427 224,-427 230,-433 230,-439 230,-439 230,-739 230,-739 230,-745 224,-751 218,-751 218,-751 15,-751 15,-751 9,-751 3,-745 3,-739 3,-739 3,-439 3,-439 3,-433 9,-427 15,-427"/>
</g>
<!-- action&#45;3&#45;&#45;cluster&#45;0 -->
<g id="edge4" class="edge">
<title>action&#45;3&#45;&#45;cluster&#45;0</title>
<path fill="none" stroke="black" d="M230.05,-688.72C248.41,-704.99 265.97,-720.55 279.98,-732.96"/>
</g>
<!-- action&#45;4 -->
<g id="node5" class="node">
<title>action&#45;4</title>
<path fill="black" stroke="transparent" d="M406.5,-860C406.5,-860 601.5,-860 601.5,-860 605,-860 608.5,-863.5 608.5,-867 608.5,-867 608.5,-874 608.5,-874 608.5,-877.5 605,-881 601.5,-881 601.5,-881 406.5,-881 406.5,-881 403,-881 399.5,-877.5 399.5,-874 399.5,-874 399.5,-867 399.5,-867 399.5,-863.5 403,-860 406.5,-860"/>
<text text-anchor="start" x="478" y="-867.8" font-family="Arial" font-weight="bold" font-size="14.00" fill="white">action&#45;4</text>
<text text-anchor="start" x="402.5" y="-842.8" font-family="Arial" font-weight="bold" font-size="14.00">params:</text>
<text text-anchor="start" x="402.5" y="-828.8" font-family="Arial" font-size="14.00">X0, X1, X2, X3</text>
<text text-anchor="start" x="402.5" y="-804.8" font-family="Arial" font-weight="bold" font-size="14.00">pre:</text>
<text text-anchor="start" x="402.5" y="-790.8" font-family="Arial" font-size="14.00">at(player&#45;01,X3), clear(X0),</text>
<text text-anchor="start" x="402.5" y="-776.8" font-family="Arial" font-size="14.00">is&#45;nongoal(X0), is&#45;nongoal(X3),</text>
<text text-anchor="start" x="402.5" y="-762.8" font-family="Arial" font-size="14.00">is&#45;player(player&#45;01), location(X0),</text>
<text text-anchor="start" x="402.5" y="-748.8" font-family="Arial" font-size="14.00">location(X3), move&#45;dir(X0,X3,X1),</text>
<text text-anchor="start" x="402.5" y="-734.8" font-family="Arial" font-size="14.00">move&#45;dir(X3,X0,X2),</text>
<text text-anchor="start" x="402.5" y="-720.8" font-family="Arial" font-size="14.00">thing(player&#45;01)</text>
<text text-anchor="start" x="402.5" y="-696.8" font-family="Arial" font-weight="bold" font-size="14.00">add:</text>
<text text-anchor="start" x="402.5" y="-682.8" font-family="Arial" font-size="14.00">at(player&#45;01,X0), clear(X3)</text>
<text text-anchor="start" x="402.5" y="-658.8" font-family="Arial" font-weight="bold" font-size="14.00">del:</text>
<text text-anchor="start" x="402.5" y="-644.8" font-family="Arial" font-size="14.00">at(player&#45;01,X3), clear(X0)</text>
<path fill="none" stroke="black" d="M406,-633.5C406,-633.5 601,-633.5 601,-633.5 607,-633.5 613,-639.5 613,-645.5 613,-645.5 613,-874.5 613,-874.5 613,-880.5 607,-886.5 601,-886.5 601,-886.5 406,-886.5 406,-886.5 400,-886.5 394,-880.5 394,-874.5 394,-874.5 394,-645.5 394,-645.5 394,-639.5 400,-633.5 406,-633.5"/>
</g>
<!-- cluster&#45;1 -->
<g id="node8" class="node">
<title>cluster&#45;1</title>
<path fill="black" stroke="transparent" d="M665,-579C665,-579 726,-579 726,-579 732,-579 738,-585 738,-591 738,-591 738,-621 738,-621 738,-627 732,-633 726,-633 726,-633 665,-633 665,-633 659,-633 653,-627 653,-621 653,-621 653,-591 653,-591 653,-585 659,-579 665,-579"/>
<text text-anchor="start" x="665.5" y="-615.8" font-family="Arial" font-weight="bold" font-size="14.00" fill="white">cluster&#45;1 </text>
<text text-anchor="start" x="660.5" y="-590.8" font-family="Arial" font-weight="bold" font-size="14.00" fill="white">dist.: &#160;</text>
<text text-anchor="start" x="700.5" y="-590.8" font-family="Arial" font-size="14.00" fill="white"> 0.00</text>
</g>
<!-- action&#45;4&#45;&#45;cluster&#45;1 -->
<g id="edge5" class="edge">
<title>action&#45;4&#45;&#45;cluster&#45;1</title>
<path fill="none" stroke="black" d="M613.1,-671.98C630.55,-657.83 647.38,-644.19 661.17,-633.02"/>
</g>
<!-- action&#45;7 -->
<g id="node6" class="node">
<title>action&#45;7</title>
<path fill="black" stroke="transparent" d="M402.5,-589C402.5,-589 605.5,-589 605.5,-589 609,-589 612.5,-592.5 612.5,-596 612.5,-596 612.5,-603 612.5,-603 612.5,-606.5 609,-610 605.5,-610 605.5,-610 402.5,-610 402.5,-610 399,-610 395.5,-606.5 395.5,-603 395.5,-603 395.5,-596 395.5,-596 395.5,-592.5 399,-589 402.5,-589"/>
<text text-anchor="start" x="478" y="-596.8" font-family="Arial" font-weight="bold" font-size="14.00" fill="white">action&#45;7</text>
<text text-anchor="start" x="398.5" y="-571.8" font-family="Arial" font-weight="bold" font-size="14.00">params:</text>
<text text-anchor="start" x="398.5" y="-546.8" font-family="Arial" font-weight="bold" font-size="14.00">pre:</text>
<text text-anchor="start" x="398.5" y="-532.8" font-family="Arial" font-size="14.00">at(player&#45;01,pos&#45;5&#45;2),</text>
<text text-anchor="start" x="398.5" y="-518.8" font-family="Arial" font-size="14.00">clear(pos&#45;4&#45;2),</text>
<text text-anchor="start" x="398.5" y="-504.8" font-family="Arial" font-size="14.00">is&#45;nongoal(pos&#45;4&#45;2),</text>
<text text-anchor="start" x="398.5" y="-490.8" font-family="Arial" font-size="14.00">is&#45;nongoal(pos&#45;5&#45;2),</text>
<text text-anchor="start" x="398.5" y="-476.8" font-family="Arial" font-size="14.00">is&#45;player(player&#45;01),</text>
<text text-anchor="start" x="398.5" y="-462.8" font-family="Arial" font-size="14.00">location(pos&#45;4&#45;2),</text>
<text text-anchor="start" x="398.5" y="-448.8" font-family="Arial" font-size="14.00">location(pos&#45;5&#45;2),</text>
<text text-anchor="start" x="398.5" y="-434.8" font-family="Arial" font-size="14.00">move&#45;dir(pos&#45;4&#45;2,pos&#45;5&#45;2,dir&#45;right),</text>
<text text-anchor="start" x="398.5" y="-420.8" font-family="Arial" font-size="14.00">move&#45;dir(pos&#45;5&#45;2,pos&#45;4&#45;2,dir&#45;left),</text>
<text text-anchor="start" x="398.5" y="-406.8" font-family="Arial" font-size="14.00">thing(player&#45;01)</text>
<text text-anchor="start" x="398.5" y="-382.8" font-family="Arial" font-weight="bold" font-size="14.00">add:</text>
<text text-anchor="start" x="398.5" y="-368.8" font-family="Arial" font-size="14.00">at(player&#45;01,pos&#45;4&#45;2),</text>
<text text-anchor="start" x="398.5" y="-354.8" font-family="Arial" font-size="14.00">clear(pos&#45;5&#45;2)</text>
<text text-anchor="start" x="398.5" y="-330.8" font-family="Arial" font-weight="bold" font-size="14.00">del:</text>
<text text-anchor="start" x="398.5" y="-316.8" font-family="Arial" font-size="14.00">at(player&#45;01,pos&#45;5&#45;2),</text>
<text text-anchor="start" x="398.5" y="-302.8" font-family="Arial" font-size="14.00">clear(pos&#45;4&#45;2)</text>
<path fill="none" stroke="black" d="M402,-291C402,-291 605,-291 605,-291 611,-291 617,-297 617,-303 617,-303 617,-603 617,-603 617,-609 611,-615 605,-615 605,-615 402,-615 402,-615 396,-615 390,-609 390,-603 390,-603 390,-303 390,-303 390,-297 396,-291 402,-291"/>
</g>
<!-- action&#45;7&#45;&#45;cluster&#45;1 -->
<g id="edge6" class="edge">
<title>action&#45;7&#45;&#45;cluster&#45;1</title>
<path fill="none" stroke="black" d="M617.22,-543.77C633.04,-556.51 648.18,-568.7 660.81,-578.87"/>
</g>
<!-- cluster&#45;0&#45;&#45;action&#45;4 -->
<g id="edge1" class="edge">
<title>cluster&#45;0&#45;&#45;action&#45;4</title>
<path fill="none" stroke="black" d="M354.2,-760C366.1,-760 379.66,-760 393.63,-760"/>
</g>
<!-- cluster&#45;1&#45;&#45;action&#45;8 -->
<g id="edge2" class="edge">
<title>cluster&#45;1&#45;&#45;action&#45;8</title>
<path fill="none" stroke="black" d="M738.07,-606C750.88,-606 765.64,-606 780.85,-606"/>
</g>
</g>
</svg>
