<?xml version="1.0" encoding="UTF-8" standalone="no"?>
<!DOCTYPE svg PUBLIC "-//W3C//DTD SVG 1.1//EN"
 "http://www.w3.org/Graphics/SVG/1.1/DTD/svg11.dtd">
<!-- Generated by graphviz version 2.43.0 (0)
 -->
<!-- Title: g Pages: 1 -->
<svg width="312pt" height="168pt"
 viewBox="0.00 0.00 312.00 168.00" xmlns="http://www.w3.org/2000/svg" xmlns:xlink="http://www.w3.org/1999/xlink">
<g id="graph0" class="graph" transform="scale(1 1) rotate(0) translate(4 164)">
<title>g</title>
<polygon fill="white" stroke="transparent" points="-4,4 -4,-164 308,-164 308,4 -4,4"/>
<g id="clust1" class="cluster">
<title>cluster_actionlib</title>
<polygon fill="none" stroke="black" points="244,-8 244,-114 296,-114 296,-8 244,-8"/>
</g>
<!-- action&#45;8 -->
<g id="node1" class="node">
<title>action&#45;8</title>
<polygon fill="white" stroke="black" stroke-width="4" points="288,-106 252,-106 252,-70 288,-70 288,-106"/>
</g>
<!-- action&#45;11 -->
<g id="node2" class="node">
<title>action&#45;11</title>
<polygon fill="#008000" stroke="black" stroke-width="4" points="288,-52 252,-52 252,-16 288,-16 288,-52"/>
</g>
<!-- action&#45;1 -->
<g id="node3" class="node">
<title>action&#45;1</title>
<polygon fill="white" stroke="black" points="36,-160 0,-160 0,-124 36,-124 36,-160"/>
</g>
<!-- cluster&#45;0 -->
<g id="node7" class="node">
<title>cluster&#45;0</title>
<polygon fill="black" stroke="black" stroke-width="0" points="90,-124 72,-124 72,-106 90,-106 90,-124"/>
</g>
<!-- action&#45;1&#45;&#45;cluster&#45;0 -->
<g id="edge3" class="edge">
<title>action&#45;1&#45;&#45;cluster&#45;0</title>
<path fill="none" stroke="black" d="M36.32,-134.34C48.01,-129.16 62.91,-122.57 71.94,-118.57"/>
</g>
<!-- action&#45;3 -->
<g id="node4" class="node">
<title>action&#45;3</title>
<polygon fill="white" stroke="black" points="36,-106 0,-106 0,-70 36,-70 36,-106"/>
</g>
<!-- action&#45;3&#45;&#45;cluster&#45;0 -->
<g id="edge4" class="edge">
<title>action&#45;3&#45;&#45;cluster&#45;0</title>
<path fill="none" stroke="black" d="M36.32,-95.66C48.01,-100.84 62.91,-107.43 71.94,-111.43"/>
</g>
<!-- action&#45;4 -->
<g id="node5" class="node">
<title>action&#45;4</title>
<polygon fill="white" stroke="black" points="162,-133 126,-133 126,-97 162,-97 162,-133"/>
</g>
<!-- cluster&#45;1 -->
<g id="node8" class="node">
<title>cluster&#45;1</title>
<polygon fill="black" stroke="black" stroke-width="0" points="216,-97 198,-97 198,-79 216,-79 216,-97"/>
</g>
<!-- action&#45;4&#45;&#45;cluster&#45;1 -->
<g id="edge5" class="edge">
<title>action&#45;4&#45;&#45;cluster&#45;1</title>
<path fill="none" stroke="black" d="M162.32,-107.34C174.01,-102.16 188.91,-95.57 197.94,-91.57"/>
</g>
<!-- action&#45;7 -->
<g id="node6" class="node">
<title>action&#45;7</title>
<polygon fill="white" stroke="black" points="162,-79 126,-79 126,-43 162,-43 162,-79"/>
</g>
<!-- action&#45;7&#45;&#45;cluster&#45;1 -->
<g id="edge6" class="edge">
<title>action&#45;7&#45;&#45;cluster&#45;1</title>
<path fill="none" stroke="black" d="M162.32,-68.66C174.01,-73.84 188.91,-80.43 197.94,-84.43"/>
</g>
<!-- cluster&#45;0&#45;&#45;action&#45;4 -->
<g id="edge1" class="edge">
<title>cluster&#45;0&#45;&#45;action&#45;4</title>
<path fill="none" stroke="black" d="M90.23,-115C99.33,-115 114.26,-115 125.92,-115"/>
</g>
<!-- cluster&#45;1&#45;&#45;action&#45;8 -->
<g id="edge2" class="edge">
<title>cluster&#45;1&#45;&#45;action&#45;8</title>
<path fill="none" stroke="black" d="M216.23,-88C225.33,-88 240.26,-88 251.92,-88"/>
</g>
</g>
</svg>
