<?xml version="1.0" encoding="UTF-8" standalone="no"?>
<!DOCTYPE svg PUBLIC "-//W3C//DTD SVG 1.1//EN"
 "http://www.w3.org/Graphics/SVG/1.1/DTD/svg11.dtd">
<!-- Generated by graphviz version 2.43.0 (0)
 -->
<!-- Title: g Pages: 1 -->
<svg width="3462pt" height="800pt"
 viewBox="0.00 0.00 3462.00 800.00" xmlns="http://www.w3.org/2000/svg" xmlns:xlink="http://www.w3.org/1999/xlink">
<g id="graph0" class="graph" transform="scale(1 1) rotate(0) translate(4 796)">
<title>g</title>
<polygon fill="white" stroke="transparent" points="-4,4 -4,-796 3458,-796 3458,4 -4,4"/>
<g id="clust1" class="cluster">
<title>cluster_actionlib</title>
<polygon fill="none" stroke="black" points="3394,-46 3394,-260 3446,-260 3446,-46 3394,-46"/>
</g>
<!-- action&#45;112 -->
<g id="node1" class="node">
<title>action&#45;112</title>
<polygon fill="white" stroke="black" stroke-width="4" points="3438,-252 3402,-252 3402,-216 3438,-216 3438,-252"/>
</g>
<!-- action&#45;135 -->
<g id="node2" class="node">
<title>action&#45;135</title>
<polygon fill="white" stroke="black" stroke-width="4" points="3438,-198 3402,-198 3402,-162 3438,-162 3438,-198"/>
</g>
<!-- action&#45;138 -->
<g id="node3" class="node">
<title>action&#45;138</title>
<polygon fill="white" stroke="black" stroke-width="4" points="3438,-144 3402,-144 3402,-108 3438,-108 3438,-144"/>
</g>
<!-- action&#45;150 -->
<g id="node4" class="node">
<title>action&#45;150</title>
<polygon fill="#008000" stroke="black" stroke-width="4" points="3438,-90 3402,-90 3402,-54 3438,-54 3438,-90"/>
</g>
<!-- action&#45;1 -->
<g id="node5" class="node">
<title>action&#45;1</title>
<polygon fill="white" stroke="black" points="36,-792 0,-792 0,-756 36,-756 36,-792"/>
</g>
<!-- cluster&#45;0 -->
<g id="node77" class="node">
<title>cluster&#45;0</title>
<polygon fill="black" stroke="black" stroke-width="0" points="90,-756 72,-756 72,-738 90,-738 90,-756"/>
</g>
<!-- action&#45;1&#45;&#45;cluster&#45;0 -->
<g id="edge37" class="edge">
<title>action&#45;1&#45;&#45;cluster&#45;0</title>
<path fill="none" stroke="black" d="M36.32,-766.34C48.01,-761.16 62.91,-754.57 71.94,-750.57"/>
</g>
<!-- action&#45;3 -->
<g id="node6" class="node">
<title>action&#45;3</title>
<polygon fill="white" stroke="black" points="36,-738 0,-738 0,-702 36,-702 36,-738"/>
</g>
<!-- action&#45;3&#45;&#45;cluster&#45;0 -->
<g id="edge38" class="edge">
<title>action&#45;3&#45;&#45;cluster&#45;0</title>
<path fill="none" stroke="black" d="M36.32,-727.66C48.01,-732.84 62.91,-739.43 71.94,-743.43"/>
</g>
<!-- action&#45;4 -->
<g id="node7" class="node">
<title>action&#45;4</title>
<polygon fill="white" stroke="black" points="162,-765 126,-765 126,-729 162,-729 162,-765"/>
</g>
<!-- cluster&#45;1 -->
<g id="node78" class="node">
<title>cluster&#45;1</title>
<polygon fill="black" stroke="black" stroke-width="0" points="216,-729 198,-729 198,-711 216,-711 216,-729"/>
</g>
<!-- action&#45;4&#45;&#45;cluster&#45;1 -->
<g id="edge39" class="edge">
<title>action&#45;4&#45;&#45;cluster&#45;1</title>
<path fill="none" stroke="black" d="M162.32,-739.34C174.01,-734.16 188.91,-727.57 197.94,-723.57"/>
</g>
<!-- action&#45;7 -->
<g id="node8" class="node">
<title>action&#45;7</title>
<polygon fill="white" stroke="black" points="162,-711 126,-711 126,-675 162,-675 162,-711"/>
</g>
<!-- action&#45;7&#45;&#45;cluster&#45;1 -->
<g id="edge40" class="edge">
<title>action&#45;7&#45;&#45;cluster&#45;1</title>
<path fill="none" stroke="black" d="M162.32,-700.66C174.01,-705.84 188.91,-712.43 197.94,-716.43"/>
</g>
<!-- action&#45;8 -->
<g id="node9" class="node">
<title>action&#45;8</title>
<polygon fill="white" stroke="black" points="288,-738 252,-738 252,-702 288,-702 288,-738"/>
</g>
<!-- cluster&#45;4 -->
<g id="node81" class="node">
<title>cluster&#45;4</title>
<polygon fill="black" stroke="black" stroke-width="0" points="342,-702 324,-702 324,-684 342,-684 342,-702"/>
</g>
<!-- action&#45;8&#45;&#45;cluster&#45;4 -->
<g id="edge45" class="edge">
<title>action&#45;8&#45;&#45;cluster&#45;4</title>
<path fill="none" stroke="black" d="M288.32,-712.34C300.01,-707.16 314.91,-700.57 323.94,-696.57"/>
</g>
<!-- action&#45;11 -->
<g id="node10" class="node">
<title>action&#45;11</title>
<polygon fill="white" stroke="black" points="2430,-495 2394,-495 2394,-459 2430,-459 2430,-495"/>
</g>
<!-- cluster&#45;2 -->
<g id="node79" class="node">
<title>cluster&#45;2</title>
<polygon fill="black" stroke="black" stroke-width="0" points="2484,-459 2466,-459 2466,-441 2484,-441 2484,-459"/>
</g>
<!-- action&#45;11&#45;&#45;cluster&#45;2 -->
<g id="edge41" class="edge">
<title>action&#45;11&#45;&#45;cluster&#45;2</title>
<path fill="none" stroke="black" d="M2430.32,-469.34C2442.01,-464.16 2456.91,-457.57 2465.94,-453.57"/>
</g>
<!-- action&#45;13 -->
<g id="node11" class="node">
<title>action&#45;13</title>
<polygon fill="white" stroke="black" points="2430,-441 2394,-441 2394,-405 2430,-405 2430,-441"/>
</g>
<!-- action&#45;13&#45;&#45;cluster&#45;2 -->
<g id="edge42" class="edge">
<title>action&#45;13&#45;&#45;cluster&#45;2</title>
<path fill="none" stroke="black" d="M2430.32,-430.66C2442.01,-435.84 2456.91,-442.43 2465.94,-446.43"/>
</g>
<!-- action&#45;14 -->
<g id="node12" class="node">
<title>action&#45;14</title>
<polygon fill="white" stroke="black" points="2556,-468 2520,-468 2520,-432 2556,-432 2556,-468"/>
</g>
<!-- cluster&#45;3 -->
<g id="node80" class="node">
<title>cluster&#45;3</title>
<polygon fill="black" stroke="black" stroke-width="0" points="2610,-432 2592,-432 2592,-414 2610,-414 2610,-432"/>
</g>
<!-- action&#45;14&#45;&#45;cluster&#45;3 -->
<g id="edge43" class="edge">
<title>action&#45;14&#45;&#45;cluster&#45;3</title>
<path fill="none" stroke="black" d="M2556.32,-442.34C2568.01,-437.16 2582.91,-430.57 2591.94,-426.57"/>
</g>
<!-- action&#45;17 -->
<g id="node13" class="node">
<title>action&#45;17</title>
<polygon fill="white" stroke="black" points="2556,-414 2520,-414 2520,-378 2556,-378 2556,-414"/>
</g>
<!-- action&#45;17&#45;&#45;cluster&#45;3 -->
<g id="edge44" class="edge">
<title>action&#45;17&#45;&#45;cluster&#45;3</title>
<path fill="none" stroke="black" d="M2556.32,-403.66C2568.01,-408.84 2582.91,-415.43 2591.94,-419.43"/>
</g>
<!-- action&#45;18 -->
<g id="node14" class="node">
<title>action&#45;18</title>
<polygon fill="white" stroke="black" points="2682,-441 2646,-441 2646,-405 2682,-405 2682,-441"/>
</g>
<!-- cluster&#45;13 -->
<g id="node90" class="node">
<title>cluster&#45;13</title>
<polygon fill="black" stroke="black" stroke-width="0" points="2736,-405 2718,-405 2718,-387 2736,-387 2736,-405"/>
</g>
<!-- action&#45;18&#45;&#45;cluster&#45;13 -->
<g id="edge63" class="edge">
<title>action&#45;18&#45;&#45;cluster&#45;13</title>
<path fill="none" stroke="black" d="M2682.32,-415.34C2694.01,-410.16 2708.91,-403.57 2717.94,-399.57"/>
</g>
<!-- action&#45;21 -->
<g id="node15" class="node">
<title>action&#45;21</title>
<polygon fill="white" stroke="black" points="288,-684 252,-684 252,-648 288,-648 288,-684"/>
</g>
<!-- action&#45;21&#45;&#45;cluster&#45;4 -->
<g id="edge46" class="edge">
<title>action&#45;21&#45;&#45;cluster&#45;4</title>
<path fill="none" stroke="black" d="M288.32,-673.66C300.01,-678.84 314.91,-685.43 323.94,-689.43"/>
</g>
<!-- action&#45;22 -->
<g id="node16" class="node">
<title>action&#45;22</title>
<polygon fill="white" stroke="black" points="414,-711 378,-711 378,-675 414,-675 414,-711"/>
</g>
<!-- cluster&#45;5 -->
<g id="node82" class="node">
<title>cluster&#45;5</title>
<polygon fill="black" stroke="black" stroke-width="0" points="468,-675 450,-675 450,-657 468,-657 468,-675"/>
</g>
<!-- action&#45;22&#45;&#45;cluster&#45;5 -->
<g id="edge47" class="edge">
<title>action&#45;22&#45;&#45;cluster&#45;5</title>
<path fill="none" stroke="black" d="M414.32,-685.34C426.01,-680.16 440.91,-673.57 449.94,-669.57"/>
</g>
<!-- action&#45;25 -->
<g id="node17" class="node">
<title>action&#45;25</title>
<polygon fill="white" stroke="black" points="414,-657 378,-657 378,-621 414,-621 414,-657"/>
</g>
<!-- action&#45;25&#45;&#45;cluster&#45;5 -->
<g id="edge48" class="edge">
<title>action&#45;25&#45;&#45;cluster&#45;5</title>
<path fill="none" stroke="black" d="M414.32,-646.66C426.01,-651.84 440.91,-658.43 449.94,-662.43"/>
</g>
<!-- action&#45;26 -->
<g id="node18" class="node">
<title>action&#45;26</title>
<polygon fill="white" stroke="black" points="540,-684 504,-684 504,-648 540,-648 540,-684"/>
</g>
<!-- cluster&#45;6 -->
<g id="node83" class="node">
<title>cluster&#45;6</title>
<polygon fill="black" stroke="black" stroke-width="0" points="594,-648 576,-648 576,-630 594,-630 594,-648"/>
</g>
<!-- action&#45;26&#45;&#45;cluster&#45;6 -->
<g id="edge49" class="edge">
<title>action&#45;26&#45;&#45;cluster&#45;6</title>
<path fill="none" stroke="black" d="M540.32,-658.34C552.01,-653.16 566.91,-646.57 575.94,-642.57"/>
</g>
<!-- action&#45;29 -->
<g id="node19" class="node">
<title>action&#45;29</title>
<polygon fill="white" stroke="black" points="3312,-198 3276,-198 3276,-162 3312,-162 3312,-198"/>
</g>
<!-- cluster&#45;32 -->
<g id="node109" class="node">
<title>cluster&#45;32</title>
<polygon fill="black" stroke="black" stroke-width="0" points="3366,-135 3348,-135 3348,-117 3366,-117 3366,-135"/>
</g>
<!-- action&#45;29&#45;&#45;cluster&#45;32 -->
<g id="edge101" class="edge">
<title>action&#45;29&#45;&#45;cluster&#45;32</title>
<path fill="none" stroke="black" d="M3312.32,-164.67C3324.01,-154.32 3338.91,-141.13 3347.94,-133.14"/>
</g>
<!-- action&#45;31 -->
<g id="node20" class="node">
<title>action&#45;31</title>
<polygon fill="white" stroke="black" points="540,-630 504,-630 504,-594 540,-594 540,-630"/>
</g>
<!-- action&#45;31&#45;&#45;cluster&#45;6 -->
<g id="edge50" class="edge">
<title>action&#45;31&#45;&#45;cluster&#45;6</title>
<path fill="none" stroke="black" d="M540.32,-619.66C552.01,-624.84 566.91,-631.43 575.94,-635.43"/>
</g>
<!-- action&#45;32 -->
<g id="node21" class="node">
<title>action&#45;32</title>
<polygon fill="white" stroke="black" points="666,-657 630,-657 630,-621 666,-621 666,-657"/>
</g>
<!-- cluster&#45;7 -->
<g id="node84" class="node">
<title>cluster&#45;7</title>
<polygon fill="black" stroke="black" stroke-width="0" points="720,-621 702,-621 702,-603 720,-603 720,-621"/>
</g>
<!-- action&#45;32&#45;&#45;cluster&#45;7 -->
<g id="edge51" class="edge">
<title>action&#45;32&#45;&#45;cluster&#45;7</title>
<path fill="none" stroke="black" d="M666.32,-631.34C678.01,-626.16 692.91,-619.57 701.94,-615.57"/>
</g>
<!-- action&#45;35 -->
<g id="node22" class="node">
<title>action&#45;35</title>
<polygon fill="white" stroke="black" points="666,-603 630,-603 630,-567 666,-567 666,-603"/>
</g>
<!-- action&#45;35&#45;&#45;cluster&#45;7 -->
<g id="edge52" class="edge">
<title>action&#45;35&#45;&#45;cluster&#45;7</title>
<path fill="none" stroke="black" d="M666.32,-592.66C678.01,-597.84 692.91,-604.43 701.94,-608.43"/>
</g>
<!-- action&#45;36 -->
<g id="node23" class="node">
<title>action&#45;36</title>
<polygon fill="white" stroke="black" points="792,-630 756,-630 756,-594 792,-594 792,-630"/>
</g>
<!-- cluster&#45;8 -->
<g id="node85" class="node">
<title>cluster&#45;8</title>
<polygon fill="black" stroke="black" stroke-width="0" points="846,-594 828,-594 828,-576 846,-576 846,-594"/>
</g>
<!-- action&#45;36&#45;&#45;cluster&#45;8 -->
<g id="edge53" class="edge">
<title>action&#45;36&#45;&#45;cluster&#45;8</title>
<path fill="none" stroke="black" d="M792.32,-604.34C804.01,-599.16 818.91,-592.57 827.94,-588.57"/>
</g>
<!-- action&#45;39 -->
<g id="node24" class="node">
<title>action&#45;39</title>
<polygon fill="white" stroke="black" points="792,-576 756,-576 756,-540 792,-540 792,-576"/>
</g>
<!-- action&#45;39&#45;&#45;cluster&#45;8 -->
<g id="edge54" class="edge">
<title>action&#45;39&#45;&#45;cluster&#45;8</title>
<path fill="none" stroke="black" d="M792.32,-565.66C804.01,-570.84 818.91,-577.43 827.94,-581.43"/>
</g>
<!-- action&#45;40 -->
<g id="node25" class="node">
<title>action&#45;40</title>
<polygon fill="white" stroke="black" points="918,-603 882,-603 882,-567 918,-567 918,-603"/>
</g>
<!-- cluster&#45;9 -->
<g id="node86" class="node">
<title>cluster&#45;9</title>
<polygon fill="black" stroke="black" stroke-width="0" points="972,-567 954,-567 954,-549 972,-549 972,-567"/>
</g>
<!-- action&#45;40&#45;&#45;cluster&#45;9 -->
<g id="edge55" class="edge">
<title>action&#45;40&#45;&#45;cluster&#45;9</title>
<path fill="none" stroke="black" d="M918.32,-577.34C930.01,-572.16 944.91,-565.57 953.94,-561.57"/>
</g>
<!-- action&#45;43 -->
<g id="node26" class="node">
<title>action&#45;43</title>
<polygon fill="white" stroke="black" points="918,-549 882,-549 882,-513 918,-513 918,-549"/>
</g>
<!-- action&#45;43&#45;&#45;cluster&#45;9 -->
<g id="edge56" class="edge">
<title>action&#45;43&#45;&#45;cluster&#45;9</title>
<path fill="none" stroke="black" d="M918.32,-538.66C930.01,-543.84 944.91,-550.43 953.94,-554.43"/>
</g>
<!-- action&#45;44 -->
<g id="node27" class="node">
<title>action&#45;44</title>
<polygon fill="white" stroke="black" points="1044,-576 1008,-576 1008,-540 1044,-540 1044,-576"/>
</g>
<!-- cluster&#45;10 -->
<g id="node87" class="node">
<title>cluster&#45;10</title>
<polygon fill="black" stroke="black" stroke-width="0" points="1098,-540 1080,-540 1080,-522 1098,-522 1098,-540"/>
</g>
<!-- action&#45;44&#45;&#45;cluster&#45;10 -->
<g id="edge57" class="edge">
<title>action&#45;44&#45;&#45;cluster&#45;10</title>
<path fill="none" stroke="black" d="M1044.32,-550.34C1056.01,-545.16 1070.91,-538.57 1079.94,-534.57"/>
</g>
<!-- action&#45;47 -->
<g id="node28" class="node">
<title>action&#45;47</title>
<polygon fill="white" stroke="black" points="1044,-522 1008,-522 1008,-486 1044,-486 1044,-522"/>
</g>
<!-- action&#45;47&#45;&#45;cluster&#45;10 -->
<g id="edge58" class="edge">
<title>action&#45;47&#45;&#45;cluster&#45;10</title>
<path fill="none" stroke="black" d="M1044.32,-511.66C1056.01,-516.84 1070.91,-523.43 1079.94,-527.43"/>
</g>
<!-- action&#45;48 -->
<g id="node29" class="node">
<title>action&#45;48</title>
<polygon fill="white" stroke="black" points="1170,-549 1134,-549 1134,-513 1170,-513 1170,-549"/>
</g>
<!-- cluster&#45;11 -->
<g id="node88" class="node">
<title>cluster&#45;11</title>
<polygon fill="black" stroke="black" stroke-width="0" points="1224,-513 1206,-513 1206,-495 1224,-495 1224,-513"/>
</g>
<!-- action&#45;48&#45;&#45;cluster&#45;11 -->
<g id="edge59" class="edge">
<title>action&#45;48&#45;&#45;cluster&#45;11</title>
<path fill="none" stroke="black" d="M1170.32,-523.34C1182.01,-518.16 1196.91,-511.57 1205.94,-507.57"/>
</g>
<!-- action&#45;51 -->
<g id="node30" class="node">
<title>action&#45;51</title>
<polygon fill="white" stroke="black" points="1170,-495 1134,-495 1134,-459 1170,-459 1170,-495"/>
</g>
<!-- action&#45;51&#45;&#45;cluster&#45;11 -->
<g id="edge60" class="edge">
<title>action&#45;51&#45;&#45;cluster&#45;11</title>
<path fill="none" stroke="black" d="M1170.32,-484.66C1182.01,-489.84 1196.91,-496.43 1205.94,-500.43"/>
</g>
<!-- action&#45;52 -->
<g id="node31" class="node">
<title>action&#45;52</title>
<polygon fill="white" stroke="black" points="1296,-522 1260,-522 1260,-486 1296,-486 1296,-522"/>
</g>
<!-- cluster&#45;12 -->
<g id="node89" class="node">
<title>cluster&#45;12</title>
<polygon fill="black" stroke="black" stroke-width="0" points="1350,-486 1332,-486 1332,-468 1350,-468 1350,-486"/>
</g>
<!-- action&#45;52&#45;&#45;cluster&#45;12 -->
<g id="edge61" class="edge">
<title>action&#45;52&#45;&#45;cluster&#45;12</title>
<path fill="none" stroke="black" d="M1296.32,-496.34C1308.01,-491.16 1322.91,-484.57 1331.94,-480.57"/>
</g>
<!-- action&#45;55 -->
<g id="node32" class="node">
<title>action&#45;55</title>
<polygon fill="white" stroke="black" points="1296,-468 1260,-468 1260,-432 1296,-432 1296,-468"/>
</g>
<!-- action&#45;55&#45;&#45;cluster&#45;12 -->
<g id="edge62" class="edge">
<title>action&#45;55&#45;&#45;cluster&#45;12</title>
<path fill="none" stroke="black" d="M1296.32,-457.66C1308.01,-462.84 1322.91,-469.43 1331.94,-473.43"/>
</g>
<!-- action&#45;56 -->
<g id="node33" class="node">
<title>action&#45;56</title>
<polygon fill="white" stroke="black" points="1422,-495 1386,-495 1386,-459 1422,-459 1422,-495"/>
</g>
<!-- cluster&#45;14 -->
<g id="node91" class="node">
<title>cluster&#45;14</title>
<polygon fill="black" stroke="black" stroke-width="0" points="1476,-459 1458,-459 1458,-441 1476,-441 1476,-459"/>
</g>
<!-- action&#45;56&#45;&#45;cluster&#45;14 -->
<g id="edge65" class="edge">
<title>action&#45;56&#45;&#45;cluster&#45;14</title>
<path fill="none" stroke="black" d="M1422.32,-469.34C1434.01,-464.16 1448.91,-457.57 1457.94,-453.57"/>
</g>
<!-- action&#45;59 -->
<g id="node34" class="node">
<title>action&#45;59</title>
<polygon fill="white" stroke="black" points="2682,-387 2646,-387 2646,-351 2682,-351 2682,-387"/>
</g>
<!-- action&#45;59&#45;&#45;cluster&#45;13 -->
<g id="edge64" class="edge">
<title>action&#45;59&#45;&#45;cluster&#45;13</title>
<path fill="none" stroke="black" d="M2682.32,-376.66C2694.01,-381.84 2708.91,-388.43 2717.94,-392.43"/>
</g>
<!-- action&#45;60 -->
<g id="node35" class="node">
<title>action&#45;60</title>
<polygon fill="white" stroke="black" points="2808,-414 2772,-414 2772,-378 2808,-378 2808,-414"/>
</g>
<!-- cluster&#45;16 -->
<g id="node93" class="node">
<title>cluster&#45;16</title>
<polygon fill="black" stroke="black" stroke-width="0" points="2862,-378 2844,-378 2844,-360 2862,-360 2862,-378"/>
</g>
<!-- action&#45;60&#45;&#45;cluster&#45;16 -->
<g id="edge69" class="edge">
<title>action&#45;60&#45;&#45;cluster&#45;16</title>
<path fill="none" stroke="black" d="M2808.32,-388.34C2820.01,-383.16 2834.91,-376.57 2843.94,-372.57"/>
</g>
<!-- action&#45;63 -->
<g id="node36" class="node">
<title>action&#45;63</title>
<polygon fill="white" stroke="black" points="1422,-441 1386,-441 1386,-405 1422,-405 1422,-441"/>
</g>
<!-- action&#45;63&#45;&#45;cluster&#45;14 -->
<g id="edge66" class="edge">
<title>action&#45;63&#45;&#45;cluster&#45;14</title>
<path fill="none" stroke="black" d="M1422.32,-430.66C1434.01,-435.84 1448.91,-442.43 1457.94,-446.43"/>
</g>
<!-- action&#45;64 -->
<g id="node37" class="node">
<title>action&#45;64</title>
<polygon fill="white" stroke="black" points="1548,-468 1512,-468 1512,-432 1548,-432 1548,-468"/>
</g>
<!-- cluster&#45;15 -->
<g id="node92" class="node">
<title>cluster&#45;15</title>
<polygon fill="black" stroke="black" stroke-width="0" points="1602,-432 1584,-432 1584,-414 1602,-414 1602,-432"/>
</g>
<!-- action&#45;64&#45;&#45;cluster&#45;15 -->
<g id="edge67" class="edge">
<title>action&#45;64&#45;&#45;cluster&#45;15</title>
<path fill="none" stroke="black" d="M1548.32,-442.34C1560.01,-437.16 1574.91,-430.57 1583.94,-426.57"/>
</g>
<!-- action&#45;67 -->
<g id="node38" class="node">
<title>action&#45;67</title>
<polygon fill="white" stroke="black" points="1548,-414 1512,-414 1512,-378 1548,-378 1548,-414"/>
</g>
<!-- action&#45;67&#45;&#45;cluster&#45;15 -->
<g id="edge68" class="edge">
<title>action&#45;67&#45;&#45;cluster&#45;15</title>
<path fill="none" stroke="black" d="M1548.32,-403.66C1560.01,-408.84 1574.91,-415.43 1583.94,-419.43"/>
</g>
<!-- action&#45;68 -->
<g id="node39" class="node">
<title>action&#45;68</title>
<polygon fill="white" stroke="black" points="1674,-441 1638,-441 1638,-405 1674,-405 1674,-441"/>
</g>
<!-- cluster&#45;18 -->
<g id="node95" class="node">
<title>cluster&#45;18</title>
<polygon fill="black" stroke="black" stroke-width="0" points="1728,-405 1710,-405 1710,-387 1728,-387 1728,-405"/>
</g>
<!-- action&#45;68&#45;&#45;cluster&#45;18 -->
<g id="edge73" class="edge">
<title>action&#45;68&#45;&#45;cluster&#45;18</title>
<path fill="none" stroke="black" d="M1674.32,-415.34C1686.01,-410.16 1700.91,-403.57 1709.94,-399.57"/>
</g>
<!-- action&#45;71 -->
<g id="node40" class="node">
<title>action&#45;71</title>
<polygon fill="white" stroke="black" points="2808,-360 2772,-360 2772,-324 2808,-324 2808,-360"/>
</g>
<!-- action&#45;71&#45;&#45;cluster&#45;16 -->
<g id="edge70" class="edge">
<title>action&#45;71&#45;&#45;cluster&#45;16</title>
<path fill="none" stroke="black" d="M2808.32,-349.66C2820.01,-354.84 2834.91,-361.43 2843.94,-365.43"/>
</g>
<!-- action&#45;72 -->
<g id="node41" class="node">
<title>action&#45;72</title>
<polygon fill="white" stroke="black" points="2934,-387 2898,-387 2898,-351 2934,-351 2934,-387"/>
</g>
<!-- cluster&#45;17 -->
<g id="node94" class="node">
<title>cluster&#45;17</title>
<polygon fill="black" stroke="black" stroke-width="0" points="2988,-351 2970,-351 2970,-333 2988,-333 2988,-351"/>
</g>
<!-- action&#45;72&#45;&#45;cluster&#45;17 -->
<g id="edge71" class="edge">
<title>action&#45;72&#45;&#45;cluster&#45;17</title>
<path fill="none" stroke="black" d="M2934.32,-361.34C2946.01,-356.16 2960.91,-349.57 2969.94,-345.57"/>
</g>
<!-- action&#45;75 -->
<g id="node42" class="node">
<title>action&#45;75</title>
<polygon fill="white" stroke="black" points="2934,-333 2898,-333 2898,-297 2934,-297 2934,-333"/>
</g>
<!-- action&#45;75&#45;&#45;cluster&#45;17 -->
<g id="edge72" class="edge">
<title>action&#45;75&#45;&#45;cluster&#45;17</title>
<path fill="none" stroke="black" d="M2934.32,-322.66C2946.01,-327.84 2960.91,-334.43 2969.94,-338.43"/>
</g>
<!-- action&#45;76 -->
<g id="node43" class="node">
<title>action&#45;76</title>
<polygon fill="white" stroke="black" points="3060,-360 3024,-360 3024,-324 3060,-324 3060,-360"/>
</g>
<!-- cluster&#45;20 -->
<g id="node97" class="node">
<title>cluster&#45;20</title>
<polygon fill="black" stroke="black" stroke-width="0" points="3114,-324 3096,-324 3096,-306 3114,-306 3114,-324"/>
</g>
<!-- action&#45;76&#45;&#45;cluster&#45;20 -->
<g id="edge77" class="edge">
<title>action&#45;76&#45;&#45;cluster&#45;20</title>
<path fill="none" stroke="black" d="M3060.32,-334.34C3072.01,-329.16 3086.91,-322.57 3095.94,-318.57"/>
</g>
<!-- action&#45;79 -->
<g id="node44" class="node">
<title>action&#45;79</title>
<polygon fill="white" stroke="black" points="1674,-387 1638,-387 1638,-351 1674,-351 1674,-387"/>
</g>
<!-- action&#45;79&#45;&#45;cluster&#45;18 -->
<g id="edge74" class="edge">
<title>action&#45;79&#45;&#45;cluster&#45;18</title>
<path fill="none" stroke="black" d="M1674.32,-376.66C1686.01,-381.84 1700.91,-388.43 1709.94,-392.43"/>
</g>
<!-- action&#45;80 -->
<g id="node45" class="node">
<title>action&#45;80</title>
<polygon fill="white" stroke="black" points="1800,-414 1764,-414 1764,-378 1800,-378 1800,-414"/>
</g>
<!-- cluster&#45;19 -->
<g id="node96" class="node">
<title>cluster&#45;19</title>
<polygon fill="black" stroke="black" stroke-width="0" points="1854,-378 1836,-378 1836,-360 1854,-360 1854,-378"/>
</g>
<!-- action&#45;80&#45;&#45;cluster&#45;19 -->
<g id="edge75" class="edge">
<title>action&#45;80&#45;&#45;cluster&#45;19</title>
<path fill="none" stroke="black" d="M1800.32,-388.34C1812.01,-383.16 1826.91,-376.57 1835.94,-372.57"/>
</g>
<!-- action&#45;83 -->
<g id="node46" class="node">
<title>action&#45;83</title>
<polygon fill="white" stroke="black" points="1800,-360 1764,-360 1764,-324 1800,-324 1800,-360"/>
</g>
<!-- action&#45;83&#45;&#45;cluster&#45;19 -->
<g id="edge76" class="edge">
<title>action&#45;83&#45;&#45;cluster&#45;19</title>
<path fill="none" stroke="black" d="M1800.32,-349.66C1812.01,-354.84 1826.91,-361.43 1835.94,-365.43"/>
</g>
<!-- action&#45;84 -->
<g id="node47" class="node">
<title>action&#45;84</title>
<polygon fill="white" stroke="black" points="1926,-387 1890,-387 1890,-351 1926,-351 1926,-387"/>
</g>
<!-- cluster&#45;21 -->
<g id="node98" class="node">
<title>cluster&#45;21</title>
<polygon fill="black" stroke="black" stroke-width="0" points="1980,-351 1962,-351 1962,-333 1980,-333 1980,-351"/>
</g>
<!-- action&#45;84&#45;&#45;cluster&#45;21 -->
<g id="edge79" class="edge">
<title>action&#45;84&#45;&#45;cluster&#45;21</title>
<path fill="none" stroke="black" d="M1926.32,-361.34C1938.01,-356.16 1952.91,-349.57 1961.94,-345.57"/>
</g>
<!-- action&#45;87 -->
<g id="node48" class="node">
<title>action&#45;87</title>
<polygon fill="white" stroke="black" points="3060,-306 3024,-306 3024,-270 3060,-270 3060,-306"/>
</g>
<!-- action&#45;87&#45;&#45;cluster&#45;20 -->
<g id="edge78" class="edge">
<title>action&#45;87&#45;&#45;cluster&#45;20</title>
<path fill="none" stroke="black" d="M3060.32,-295.66C3072.01,-300.84 3086.91,-307.43 3095.94,-311.43"/>
</g>
<!-- action&#45;88 -->
<g id="node49" class="node">
<title>action&#45;88</title>
<polygon fill="white" stroke="black" points="3186,-333 3150,-333 3150,-297 3186,-297 3186,-333"/>
</g>
<!-- cluster&#45;25 -->
<g id="node102" class="node">
<title>cluster&#45;25</title>
<polygon fill="black" stroke="black" stroke-width="0" points="3240,-297 3222,-297 3222,-279 3240,-279 3240,-297"/>
</g>
<!-- action&#45;88&#45;&#45;cluster&#45;25 -->
<g id="edge87" class="edge">
<title>action&#45;88&#45;&#45;cluster&#45;25</title>
<path fill="none" stroke="black" d="M3186.32,-307.34C3198.01,-302.16 3212.91,-295.57 3221.94,-291.57"/>
</g>
<!-- action&#45;91 -->
<g id="node50" class="node">
<title>action&#45;91</title>
<polygon fill="white" stroke="black" points="1926,-333 1890,-333 1890,-297 1926,-297 1926,-333"/>
</g>
<!-- action&#45;91&#45;&#45;cluster&#45;21 -->
<g id="edge80" class="edge">
<title>action&#45;91&#45;&#45;cluster&#45;21</title>
<path fill="none" stroke="black" d="M1926.32,-322.66C1938.01,-327.84 1952.91,-334.43 1961.94,-338.43"/>
</g>
<!-- action&#45;92 -->
<g id="node51" class="node">
<title>action&#45;92</title>
<polygon fill="white" stroke="black" points="2052,-360 2016,-360 2016,-324 2052,-324 2052,-360"/>
</g>
<!-- cluster&#45;22 -->
<g id="node99" class="node">
<title>cluster&#45;22</title>
<polygon fill="black" stroke="black" stroke-width="0" points="2106,-324 2088,-324 2088,-306 2106,-306 2106,-324"/>
</g>
<!-- action&#45;92&#45;&#45;cluster&#45;22 -->
<g id="edge81" class="edge">
<title>action&#45;92&#45;&#45;cluster&#45;22</title>
<path fill="none" stroke="black" d="M2052.32,-334.34C2064.01,-329.16 2078.91,-322.57 2087.94,-318.57"/>
</g>
<!-- action&#45;95 -->
<g id="node52" class="node">
<title>action&#45;95</title>
<polygon fill="white" stroke="black" points="2052,-306 2016,-306 2016,-270 2052,-270 2052,-306"/>
</g>
<!-- action&#45;95&#45;&#45;cluster&#45;22 -->
<g id="edge82" class="edge">
<title>action&#45;95&#45;&#45;cluster&#45;22</title>
<path fill="none" stroke="black" d="M2052.32,-295.66C2064.01,-300.84 2078.91,-307.43 2087.94,-311.43"/>
</g>
<!-- action&#45;96 -->
<g id="node53" class="node">
<title>action&#45;96</title>
<polygon fill="white" stroke="black" points="2178,-333 2142,-333 2142,-297 2178,-297 2178,-333"/>
</g>
<!-- cluster&#45;23 -->
<g id="node100" class="node">
<title>cluster&#45;23</title>
<polygon fill="black" stroke="black" stroke-width="0" points="2232,-297 2214,-297 2214,-279 2232,-279 2232,-297"/>
</g>
<!-- action&#45;96&#45;&#45;cluster&#45;23 -->
<g id="edge83" class="edge">
<title>action&#45;96&#45;&#45;cluster&#45;23</title>
<path fill="none" stroke="black" d="M2178.32,-307.34C2190.01,-302.16 2204.91,-295.57 2213.94,-291.57"/>
</g>
<!-- action&#45;99 -->
<g id="node54" class="node">
<title>action&#45;99</title>
<polygon fill="white" stroke="black" points="2178,-279 2142,-279 2142,-243 2178,-243 2178,-279"/>
</g>
<!-- action&#45;99&#45;&#45;cluster&#45;23 -->
<g id="edge84" class="edge">
<title>action&#45;99&#45;&#45;cluster&#45;23</title>
<path fill="none" stroke="black" d="M2178.32,-268.66C2190.01,-273.84 2204.91,-280.43 2213.94,-284.43"/>
</g>
<!-- action&#45;100 -->
<g id="node55" class="node">
<title>action&#45;100</title>
<polygon fill="white" stroke="black" points="2304,-306 2268,-306 2268,-270 2304,-270 2304,-306"/>
</g>
<!-- cluster&#45;24 -->
<g id="node101" class="node">
<title>cluster&#45;24</title>
<polygon fill="black" stroke="black" stroke-width="0" points="2358,-270 2340,-270 2340,-252 2358,-252 2358,-270"/>
</g>
<!-- action&#45;100&#45;&#45;cluster&#45;24 -->
<g id="edge85" class="edge">
<title>action&#45;100&#45;&#45;cluster&#45;24</title>
<path fill="none" stroke="black" d="M2304.32,-280.34C2316.01,-275.16 2330.91,-268.57 2339.94,-264.57"/>
</g>
<!-- action&#45;103 -->
<g id="node56" class="node">
<title>action&#45;103</title>
<polygon fill="white" stroke="black" points="2304,-252 2268,-252 2268,-216 2304,-216 2304,-252"/>
</g>
<!-- action&#45;103&#45;&#45;cluster&#45;24 -->
<g id="edge86" class="edge">
<title>action&#45;103&#45;&#45;cluster&#45;24</title>
<path fill="none" stroke="black" d="M2304.32,-241.66C2316.01,-246.84 2330.91,-253.43 2339.94,-257.43"/>
</g>
<!-- action&#45;104 -->
<g id="node57" class="node">
<title>action&#45;104</title>
<polygon fill="white" stroke="black" points="2430,-279 2394,-279 2394,-243 2430,-243 2430,-279"/>
</g>
<!-- cluster&#45;27 -->
<g id="node104" class="node">
<title>cluster&#45;27</title>
<polygon fill="black" stroke="black" stroke-width="0" points="2484,-243 2466,-243 2466,-225 2484,-225 2484,-243"/>
</g>
<!-- action&#45;104&#45;&#45;cluster&#45;27 -->
<g id="edge91" class="edge">
<title>action&#45;104&#45;&#45;cluster&#45;27</title>
<path fill="none" stroke="black" d="M2430.32,-253.34C2442.01,-248.16 2456.91,-241.57 2465.94,-237.57"/>
</g>
<!-- action&#45;107 -->
<g id="node58" class="node">
<title>action&#45;107</title>
<polygon fill="white" stroke="black" points="3186,-279 3150,-279 3150,-243 3186,-243 3186,-279"/>
</g>
<!-- action&#45;107&#45;&#45;cluster&#45;25 -->
<g id="edge88" class="edge">
<title>action&#45;107&#45;&#45;cluster&#45;25</title>
<path fill="none" stroke="black" d="M3186.32,-268.66C3198.01,-273.84 3212.91,-280.43 3221.94,-284.43"/>
</g>
<!-- action&#45;108 -->
<g id="node59" class="node">
<title>action&#45;108</title>
<polygon fill="white" stroke="black" points="3312,-306 3276,-306 3276,-270 3312,-270 3312,-306"/>
</g>
<!-- cluster&#45;26 -->
<g id="node103" class="node">
<title>cluster&#45;26</title>
<polygon fill="black" stroke="black" stroke-width="0" points="3366,-243 3348,-243 3348,-225 3366,-225 3366,-243"/>
</g>
<!-- action&#45;108&#45;&#45;cluster&#45;26 -->
<g id="edge89" class="edge">
<title>action&#45;108&#45;&#45;cluster&#45;26</title>
<path fill="none" stroke="black" d="M3312.32,-272.67C3324.01,-262.32 3338.91,-249.13 3347.94,-241.14"/>
</g>
<!-- action&#45;111 -->
<g id="node60" class="node">
<title>action&#45;111</title>
<polygon fill="white" stroke="black" points="3312,-252 3276,-252 3276,-216 3312,-216 3312,-252"/>
</g>
<!-- action&#45;111&#45;&#45;cluster&#45;26 -->
<g id="edge90" class="edge">
<title>action&#45;111&#45;&#45;cluster&#45;26</title>
<path fill="none" stroke="black" d="M3312.32,-234C3324.01,-234 3338.91,-234 3347.94,-234"/>
</g>
<!-- action&#45;115 -->
<g id="node61" class="node">
<title>action&#45;115</title>
<polygon fill="white" stroke="black" points="2430,-225 2394,-225 2394,-189 2430,-189 2430,-225"/>
</g>
<!-- action&#45;115&#45;&#45;cluster&#45;27 -->
<g id="edge92" class="edge">
<title>action&#45;115&#45;&#45;cluster&#45;27</title>
<path fill="none" stroke="black" d="M2430.32,-214.66C2442.01,-219.84 2456.91,-226.43 2465.94,-230.43"/>
</g>
<!-- action&#45;116 -->
<g id="node62" class="node">
<title>action&#45;116</title>
<polygon fill="white" stroke="black" points="2556,-252 2520,-252 2520,-216 2556,-216 2556,-252"/>
</g>
<!-- cluster&#45;28 -->
<g id="node105" class="node">
<title>cluster&#45;28</title>
<polygon fill="black" stroke="black" stroke-width="0" points="2610,-216 2592,-216 2592,-198 2610,-198 2610,-216"/>
</g>
<!-- action&#45;116&#45;&#45;cluster&#45;28 -->
<g id="edge93" class="edge">
<title>action&#45;116&#45;&#45;cluster&#45;28</title>
<path fill="none" stroke="black" d="M2556.32,-226.34C2568.01,-221.16 2582.91,-214.57 2591.94,-210.57"/>
</g>
<!-- action&#45;119 -->
<g id="node63" class="node">
<title>action&#45;119</title>
<polygon fill="white" stroke="black" points="2556,-198 2520,-198 2520,-162 2556,-162 2556,-198"/>
</g>
<!-- action&#45;119&#45;&#45;cluster&#45;28 -->
<g id="edge94" class="edge">
<title>action&#45;119&#45;&#45;cluster&#45;28</title>
<path fill="none" stroke="black" d="M2556.32,-187.66C2568.01,-192.84 2582.91,-199.43 2591.94,-203.43"/>
</g>
<!-- action&#45;120 -->
<g id="node64" class="node">
<title>action&#45;120</title>
<polygon fill="white" stroke="black" points="2682,-225 2646,-225 2646,-189 2682,-189 2682,-225"/>
</g>
<!-- cluster&#45;29 -->
<g id="node106" class="node">
<title>cluster&#45;29</title>
<polygon fill="black" stroke="black" stroke-width="0" points="2736,-189 2718,-189 2718,-171 2736,-171 2736,-189"/>
</g>
<!-- action&#45;120&#45;&#45;cluster&#45;29 -->
<g id="edge95" class="edge">
<title>action&#45;120&#45;&#45;cluster&#45;29</title>
<path fill="none" stroke="black" d="M2682.32,-199.34C2694.01,-194.16 2708.91,-187.57 2717.94,-183.57"/>
</g>
<!-- action&#45;123 -->
<g id="node65" class="node">
<title>action&#45;123</title>
<polygon fill="white" stroke="black" points="2682,-171 2646,-171 2646,-135 2682,-135 2682,-171"/>
</g>
<!-- action&#45;123&#45;&#45;cluster&#45;29 -->
<g id="edge96" class="edge">
<title>action&#45;123&#45;&#45;cluster&#45;29</title>
<path fill="none" stroke="black" d="M2682.32,-160.66C2694.01,-165.84 2708.91,-172.43 2717.94,-176.43"/>
</g>
<!-- action&#45;124 -->
<g id="node66" class="node">
<title>action&#45;124</title>
<polygon fill="white" stroke="black" points="2808,-198 2772,-198 2772,-162 2808,-162 2808,-198"/>
</g>
<!-- cluster&#45;30 -->
<g id="node107" class="node">
<title>cluster&#45;30</title>
<polygon fill="black" stroke="black" stroke-width="0" points="2862,-162 2844,-162 2844,-144 2862,-144 2862,-162"/>
</g>
<!-- action&#45;124&#45;&#45;cluster&#45;30 -->
<g id="edge97" class="edge">
<title>action&#45;124&#45;&#45;cluster&#45;30</title>
<path fill="none" stroke="black" d="M2808.32,-172.34C2820.01,-167.16 2834.91,-160.57 2843.94,-156.57"/>
</g>
<!-- action&#45;127 -->
<g id="node67" class="node">
<title>action&#45;127</title>
<polygon fill="white" stroke="black" points="2808,-144 2772,-144 2772,-108 2808,-108 2808,-144"/>
</g>
<!-- action&#45;127&#45;&#45;cluster&#45;30 -->
<g id="edge98" class="edge">
<title>action&#45;127&#45;&#45;cluster&#45;30</title>
<path fill="none" stroke="black" d="M2808.32,-133.66C2820.01,-138.84 2834.91,-145.43 2843.94,-149.43"/>
</g>
<!-- action&#45;128 -->
<g id="node68" class="node">
<title>action&#45;128</title>
<polygon fill="white" stroke="black" points="2934,-171 2898,-171 2898,-135 2934,-135 2934,-171"/>
</g>
<!-- cluster&#45;31 -->
<g id="node108" class="node">
<title>cluster&#45;31</title>
<polygon fill="black" stroke="black" stroke-width="0" points="2988,-135 2970,-135 2970,-117 2988,-117 2988,-135"/>
</g>
<!-- action&#45;128&#45;&#45;cluster&#45;31 -->
<g id="edge99" class="edge">
<title>action&#45;128&#45;&#45;cluster&#45;31</title>
<path fill="none" stroke="black" d="M2934.32,-145.34C2946.01,-140.16 2960.91,-133.57 2969.94,-129.57"/>
</g>
<!-- action&#45;131 -->
<g id="node69" class="node">
<title>action&#45;131</title>
<polygon fill="white" stroke="black" points="2934,-117 2898,-117 2898,-81 2934,-81 2934,-117"/>
</g>
<!-- action&#45;131&#45;&#45;cluster&#45;31 -->
<g id="edge100" class="edge">
<title>action&#45;131&#45;&#45;cluster&#45;31</title>
<path fill="none" stroke="black" d="M2934.32,-106.66C2946.01,-111.84 2960.91,-118.43 2969.94,-122.43"/>
</g>
<!-- action&#45;132 -->
<g id="node70" class="node">
<title>action&#45;132</title>
<polygon fill="white" stroke="black" points="3060,-144 3024,-144 3024,-108 3060,-108 3060,-144"/>
</g>
<!-- cluster&#45;33 -->
<g id="node110" class="node">
<title>cluster&#45;33</title>
<polygon fill="black" stroke="black" stroke-width="0" points="3114,-108 3096,-108 3096,-90 3114,-90 3114,-108"/>
</g>
<!-- action&#45;132&#45;&#45;cluster&#45;33 -->
<g id="edge103" class="edge">
<title>action&#45;132&#45;&#45;cluster&#45;33</title>
<path fill="none" stroke="black" d="M3060.32,-118.34C3072.01,-113.16 3086.91,-106.57 3095.94,-102.57"/>
</g>
<!-- action&#45;137 -->
<g id="node71" class="node">
<title>action&#45;137</title>
<polygon fill="white" stroke="black" points="3312,-144 3276,-144 3276,-108 3312,-108 3312,-144"/>
</g>
<!-- action&#45;137&#45;&#45;cluster&#45;32 -->
<g id="edge102" class="edge">
<title>action&#45;137&#45;&#45;cluster&#45;32</title>
<path fill="none" stroke="black" d="M3312.32,-126C3324.01,-126 3338.91,-126 3347.94,-126"/>
</g>
<!-- action&#45;141 -->
<g id="node72" class="node">
<title>action&#45;141</title>
<polygon fill="white" stroke="black" points="3060,-90 3024,-90 3024,-54 3060,-54 3060,-90"/>
</g>
<!-- action&#45;141&#45;&#45;cluster&#45;33 -->
<g id="edge104" class="edge">
<title>action&#45;141&#45;&#45;cluster&#45;33</title>
<path fill="none" stroke="black" d="M3060.32,-79.66C3072.01,-84.84 3086.91,-91.43 3095.94,-95.43"/>
</g>
<!-- action&#45;142 -->
<g id="node73" class="node">
<title>action&#45;142</title>
<polygon fill="white" stroke="black" points="3186,-117 3150,-117 3150,-81 3186,-81 3186,-117"/>
</g>
<!-- cluster&#45;34 -->
<g id="node111" class="node">
<title>cluster&#45;34</title>
<polygon fill="black" stroke="black" stroke-width="0" points="3240,-81 3222,-81 3222,-63 3240,-63 3240,-81"/>
</g>
<!-- action&#45;142&#45;&#45;cluster&#45;34 -->
<g id="edge105" class="edge">
<title>action&#45;142&#45;&#45;cluster&#45;34</title>
<path fill="none" stroke="black" d="M3186.32,-91.34C3198.01,-86.16 3212.91,-79.57 3221.94,-75.57"/>
</g>
<!-- action&#45;145 -->
<g id="node74" class="node">
<title>action&#45;145</title>
<polygon fill="white" stroke="black" points="3186,-63 3150,-63 3150,-27 3186,-27 3186,-63"/>
</g>
<!-- action&#45;145&#45;&#45;cluster&#45;34 -->
<g id="edge106" class="edge">
<title>action&#45;145&#45;&#45;cluster&#45;34</title>
<path fill="none" stroke="black" d="M3186.32,-52.66C3198.01,-57.84 3212.91,-64.43 3221.94,-68.43"/>
</g>
<!-- action&#45;146 -->
<g id="node75" class="node">
<title>action&#45;146</title>
<polygon fill="#c9211e" stroke="black" points="3312,-90 3276,-90 3276,-54 3312,-54 3312,-90"/>
</g>
<!-- cluster&#45;35 -->
<g id="node112" class="node">
<title>cluster&#45;35</title>
<polygon fill="black" stroke="black" stroke-width="0" points="3366,-81 3348,-81 3348,-63 3366,-63 3366,-81"/>
</g>
<!-- action&#45;146&#45;&#45;cluster&#45;35 -->
<g id="edge107" class="edge">
<title>action&#45;146&#45;&#45;cluster&#45;35</title>
<path fill="none" stroke="black" d="M3312.32,-72C3324.01,-72 3338.91,-72 3347.94,-72"/>
</g>
<!-- action&#45;149 -->
<g id="node76" class="node">
<title>action&#45;149</title>
<polygon fill="#00008b" stroke="black" points="3312,-36 3276,-36 3276,0 3312,0 3312,-36"/>
</g>
<!-- action&#45;149&#45;&#45;cluster&#45;35 -->
<g id="edge108" class="edge">
<title>action&#45;149&#45;&#45;cluster&#45;35</title>
<path fill="none" stroke="black" d="M3312.32,-33.33C3324.01,-43.68 3338.91,-56.87 3347.94,-64.86"/>
</g>
<!-- cluster&#45;0&#45;&#45;action&#45;4 -->
<g id="edge1" class="edge">
<title>cluster&#45;0&#45;&#45;action&#45;4</title>
<path fill="none" stroke="black" d="M90.23,-747C99.33,-747 114.26,-747 125.92,-747"/>
</g>
<!-- cluster&#45;1&#45;&#45;action&#45;8 -->
<g id="edge2" class="edge">
<title>cluster&#45;1&#45;&#45;action&#45;8</title>
<path fill="none" stroke="black" d="M216.23,-720C225.33,-720 240.26,-720 251.92,-720"/>
</g>
<!-- cluster&#45;2&#45;&#45;action&#45;14 -->
<g id="edge3" class="edge">
<title>cluster&#45;2&#45;&#45;action&#45;14</title>
<path fill="none" stroke="black" d="M2484.23,-450C2493.33,-450 2508.26,-450 2519.92,-450"/>
</g>
<!-- cluster&#45;3&#45;&#45;action&#45;18 -->
<g id="edge4" class="edge">
<title>cluster&#45;3&#45;&#45;action&#45;18</title>
<path fill="none" stroke="black" d="M2610.23,-423C2619.33,-423 2634.26,-423 2645.92,-423"/>
</g>
<!-- cluster&#45;4&#45;&#45;action&#45;22 -->
<g id="edge5" class="edge">
<title>cluster&#45;4&#45;&#45;action&#45;22</title>
<path fill="none" stroke="black" d="M342.23,-693C351.33,-693 366.26,-693 377.92,-693"/>
</g>
<!-- cluster&#45;5&#45;&#45;action&#45;26 -->
<g id="edge6" class="edge">
<title>cluster&#45;5&#45;&#45;action&#45;26</title>
<path fill="none" stroke="black" d="M468.23,-666C477.33,-666 492.26,-666 503.92,-666"/>
</g>
<!-- cluster&#45;6&#45;&#45;action&#45;32 -->
<g id="edge7" class="edge">
<title>cluster&#45;6&#45;&#45;action&#45;32</title>
<path fill="none" stroke="black" d="M594.23,-639C603.33,-639 618.26,-639 629.92,-639"/>
</g>
<!-- cluster&#45;7&#45;&#45;action&#45;36 -->
<g id="edge8" class="edge">
<title>cluster&#45;7&#45;&#45;action&#45;36</title>
<path fill="none" stroke="black" d="M720.23,-612C729.33,-612 744.26,-612 755.92,-612"/>
</g>
<!-- cluster&#45;8&#45;&#45;action&#45;40 -->
<g id="edge9" class="edge">
<title>cluster&#45;8&#45;&#45;action&#45;40</title>
<path fill="none" stroke="black" d="M846.23,-585C855.33,-585 870.26,-585 881.92,-585"/>
</g>
<!-- cluster&#45;9&#45;&#45;action&#45;44 -->
<g id="edge10" class="edge">
<title>cluster&#45;9&#45;&#45;action&#45;44</title>
<path fill="none" stroke="black" d="M972.23,-558C981.33,-558 996.26,-558 1007.92,-558"/>
</g>
<!-- cluster&#45;10&#45;&#45;action&#45;48 -->
<g id="edge11" class="edge">
<title>cluster&#45;10&#45;&#45;action&#45;48</title>
<path fill="none" stroke="black" d="M1098.23,-531C1107.33,-531 1122.26,-531 1133.92,-531"/>
</g>
<!-- cluster&#45;11&#45;&#45;action&#45;52 -->
<g id="edge12" class="edge">
<title>cluster&#45;11&#45;&#45;action&#45;52</title>
<path fill="none" stroke="black" d="M1224.23,-504C1233.33,-504 1248.26,-504 1259.92,-504"/>
</g>
<!-- cluster&#45;12&#45;&#45;action&#45;56 -->
<g id="edge13" class="edge">
<title>cluster&#45;12&#45;&#45;action&#45;56</title>
<path fill="none" stroke="black" d="M1350.23,-477C1359.33,-477 1374.26,-477 1385.92,-477"/>
</g>
<!-- cluster&#45;13&#45;&#45;action&#45;60 -->
<g id="edge14" class="edge">
<title>cluster&#45;13&#45;&#45;action&#45;60</title>
<path fill="none" stroke="black" d="M2736.23,-396C2745.33,-396 2760.26,-396 2771.92,-396"/>
</g>
<!-- cluster&#45;14&#45;&#45;action&#45;64 -->
<g id="edge15" class="edge">
<title>cluster&#45;14&#45;&#45;action&#45;64</title>
<path fill="none" stroke="black" d="M1476.23,-450C1485.33,-450 1500.26,-450 1511.92,-450"/>
</g>
<!-- cluster&#45;15&#45;&#45;action&#45;68 -->
<g id="edge16" class="edge">
<title>cluster&#45;15&#45;&#45;action&#45;68</title>
<path fill="none" stroke="black" d="M1602.23,-423C1611.33,-423 1626.26,-423 1637.92,-423"/>
</g>
<!-- cluster&#45;16&#45;&#45;action&#45;72 -->
<g id="edge17" class="edge">
<title>cluster&#45;16&#45;&#45;action&#45;72</title>
<path fill="none" stroke="black" d="M2862.23,-369C2871.33,-369 2886.26,-369 2897.92,-369"/>
</g>
<!-- cluster&#45;17&#45;&#45;action&#45;76 -->
<g id="edge18" class="edge">
<title>cluster&#45;17&#45;&#45;action&#45;76</title>
<path fill="none" stroke="black" d="M2988.23,-342C2997.33,-342 3012.26,-342 3023.92,-342"/>
</g>
<!-- cluster&#45;18&#45;&#45;action&#45;80 -->
<g id="edge19" class="edge">
<title>cluster&#45;18&#45;&#45;action&#45;80</title>
<path fill="none" stroke="black" d="M1728.23,-396C1737.33,-396 1752.26,-396 1763.92,-396"/>
</g>
<!-- cluster&#45;19&#45;&#45;action&#45;84 -->
<g id="edge20" class="edge">
<title>cluster&#45;19&#45;&#45;action&#45;84</title>
<path fill="none" stroke="black" d="M1854.23,-369C1863.33,-369 1878.26,-369 1889.92,-369"/>
</g>
<!-- cluster&#45;20&#45;&#45;action&#45;88 -->
<g id="edge21" class="edge">
<title>cluster&#45;20&#45;&#45;action&#45;88</title>
<path fill="none" stroke="black" d="M3114.23,-315C3123.33,-315 3138.26,-315 3149.92,-315"/>
</g>
<!-- cluster&#45;21&#45;&#45;action&#45;92 -->
<g id="edge22" class="edge">
<title>cluster&#45;21&#45;&#45;action&#45;92</title>
<path fill="none" stroke="black" d="M1980.23,-342C1989.33,-342 2004.26,-342 2015.92,-342"/>
</g>
<!-- cluster&#45;22&#45;&#45;action&#45;96 -->
<g id="edge23" class="edge">
<title>cluster&#45;22&#45;&#45;action&#45;96</title>
<path fill="none" stroke="black" d="M2106.23,-315C2115.33,-315 2130.26,-315 2141.92,-315"/>
</g>
<!-- cluster&#45;23&#45;&#45;action&#45;100 -->
<g id="edge24" class="edge">
<title>cluster&#45;23&#45;&#45;action&#45;100</title>
<path fill="none" stroke="black" d="M2232.23,-288C2241.33,-288 2256.26,-288 2267.92,-288"/>
</g>
<!-- cluster&#45;24&#45;&#45;action&#45;104 -->
<g id="edge25" class="edge">
<title>cluster&#45;24&#45;&#45;action&#45;104</title>
<path fill="none" stroke="black" d="M2358.23,-261C2367.33,-261 2382.26,-261 2393.92,-261"/>
</g>
<!-- cluster&#45;25&#45;&#45;action&#45;108 -->
<g id="edge26" class="edge">
<title>cluster&#45;25&#45;&#45;action&#45;108</title>
<path fill="none" stroke="black" d="M3240.23,-288C3249.33,-288 3264.26,-288 3275.92,-288"/>
</g>
<!-- cluster&#45;26&#45;&#45;action&#45;112 -->
<g id="edge27" class="edge">
<title>cluster&#45;26&#45;&#45;action&#45;112</title>
<path fill="none" stroke="black" d="M3366.23,-234C3375.33,-234 3390.26,-234 3401.92,-234"/>
</g>
<!-- cluster&#45;27&#45;&#45;action&#45;116 -->
<g id="edge28" class="edge">
<title>cluster&#45;27&#45;&#45;action&#45;116</title>
<path fill="none" stroke="black" d="M2484.23,-234C2493.33,-234 2508.26,-234 2519.92,-234"/>
</g>
<!-- cluster&#45;28&#45;&#45;action&#45;120 -->
<g id="edge29" class="edge">
<title>cluster&#45;28&#45;&#45;action&#45;120</title>
<path fill="none" stroke="black" d="M2610.23,-207C2619.33,-207 2634.26,-207 2645.92,-207"/>
</g>
<!-- cluster&#45;29&#45;&#45;action&#45;124 -->
<g id="edge30" class="edge">
<title>cluster&#45;29&#45;&#45;action&#45;124</title>
<path fill="none" stroke="black" d="M2736.23,-180C2745.33,-180 2760.26,-180 2771.92,-180"/>
</g>
<!-- cluster&#45;30&#45;&#45;action&#45;128 -->
<g id="edge31" class="edge">
<title>cluster&#45;30&#45;&#45;action&#45;128</title>
<path fill="none" stroke="black" d="M2862.23,-153C2871.33,-153 2886.26,-153 2897.92,-153"/>
</g>
<!-- cluster&#45;31&#45;&#45;action&#45;132 -->
<g id="edge32" class="edge">
<title>cluster&#45;31&#45;&#45;action&#45;132</title>
<path fill="none" stroke="black" d="M2988.23,-126C2997.33,-126 3012.26,-126 3023.92,-126"/>
</g>
<!-- cluster&#45;32&#45;&#45;action&#45;138 -->
<g id="edge33" class="edge">
<title>cluster&#45;32&#45;&#45;action&#45;138</title>
<path fill="none" stroke="black" d="M3366.23,-126C3375.33,-126 3390.26,-126 3401.92,-126"/>
</g>
<!-- cluster&#45;33&#45;&#45;action&#45;142 -->
<g id="edge34" class="edge">
<title>cluster&#45;33&#45;&#45;action&#45;142</title>
<path fill="none" stroke="black" d="M3114.23,-99C3123.33,-99 3138.26,-99 3149.92,-99"/>
</g>
<!-- cluster&#45;34&#45;&#45;action&#45;146 -->
<g id="edge35" class="edge">
<title>cluster&#45;34&#45;&#45;action&#45;146</title>
<path fill="none" stroke="black" d="M3240.23,-72C3249.33,-72 3264.26,-72 3275.92,-72"/>
</g>
<!-- cluster&#45;35&#45;&#45;action&#45;150 -->
<g id="edge36" class="edge">
<title>cluster&#45;35&#45;&#45;action&#45;150</title>
<path fill="none" stroke="black" d="M3366.23,-72C3375.33,-72 3390.26,-72 3401.92,-72"/>
</g>
</g>
</svg>
