<?xml version="1.0" encoding="UTF-8" standalone="no"?>
<!DOCTYPE svg PUBLIC "-//W3C//DTD SVG 1.1//EN"
 "http://www.w3.org/Graphics/SVG/1.1/DTD/svg11.dtd">
<!-- Generated by graphviz version 2.43.0 (0)
 -->
<!-- Title: g Pages: 1 -->
<svg width="1950pt" height="681pt"
 viewBox="0.00 0.00 1950.00 681.00" xmlns="http://www.w3.org/2000/svg" xmlns:xlink="http://www.w3.org/1999/xlink">
<g id="graph0" class="graph" transform="scale(1 1) rotate(0) translate(4 677)">
<title>g</title>
<polygon fill="white" stroke="transparent" points="-4,4 -4,-677 1946,-677 1946,4 -4,4"/>
<g id="clust1" class="cluster">
<title>cluster_actionlib</title>
<polygon fill="none" stroke="black" points="1882,-46 1882,-206 1934,-206 1934,-46 1882,-46"/>
</g>
<!-- action&#45;29 -->
<g id="node1" class="node">
<title>action&#45;29</title>
<polygon fill="white" stroke="black" stroke-width="4" points="1926,-198 1890,-198 1890,-162 1926,-162 1926,-198"/>
</g>
<!-- action&#45;84 -->
<g id="node2" class="node">
<title>action&#45;84</title>
<polygon fill="white" stroke="black" stroke-width="4" points="1926,-144 1890,-144 1890,-108 1926,-108 1926,-144"/>
</g>
<!-- action&#45;88 -->
<g id="node3" class="node">
<title>action&#45;88</title>
<polygon fill="#008000" stroke="black" stroke-width="4" points="1926,-90 1890,-90 1890,-54 1926,-54 1926,-90"/>
</g>
<!-- action&#45;1 -->
<g id="node4" class="node">
<title>action&#45;1</title>
<polygon fill="white" stroke="black" points="36,-673 0,-673 0,-637 36,-637 36,-673"/>
</g>
<!-- cluster&#45;0 -->
<g id="node46" class="node">
<title>cluster&#45;0</title>
<polygon fill="black" stroke="black" stroke-width="0" points="90,-637 72,-637 72,-619 90,-619 90,-637"/>
</g>
<!-- action&#45;1&#45;&#45;cluster&#45;0 -->
<g id="edge22" class="edge">
<title>action&#45;1&#45;&#45;cluster&#45;0</title>
<path fill="none" stroke="black" d="M36.32,-647.34C48.01,-642.16 62.91,-635.57 71.94,-631.57"/>
</g>
<!-- action&#45;3 -->
<g id="node5" class="node">
<title>action&#45;3</title>
<polygon fill="white" stroke="black" points="36,-619 0,-619 0,-583 36,-583 36,-619"/>
</g>
<!-- action&#45;3&#45;&#45;cluster&#45;0 -->
<g id="edge23" class="edge">
<title>action&#45;3&#45;&#45;cluster&#45;0</title>
<path fill="none" stroke="black" d="M36.32,-608.66C48.01,-613.84 62.91,-620.43 71.94,-624.43"/>
</g>
<!-- action&#45;4 -->
<g id="node6" class="node">
<title>action&#45;4</title>
<polygon fill="white" stroke="black" points="162,-646 126,-646 126,-610 162,-610 162,-646"/>
</g>
<!-- cluster&#45;1 -->
<g id="node47" class="node">
<title>cluster&#45;1</title>
<polygon fill="black" stroke="black" stroke-width="0" points="216,-610 198,-610 198,-592 216,-592 216,-610"/>
</g>
<!-- action&#45;4&#45;&#45;cluster&#45;1 -->
<g id="edge24" class="edge">
<title>action&#45;4&#45;&#45;cluster&#45;1</title>
<path fill="none" stroke="black" d="M162.32,-620.34C174.01,-615.16 188.91,-608.57 197.94,-604.57"/>
</g>
<!-- action&#45;7 -->
<g id="node7" class="node">
<title>action&#45;7</title>
<polygon fill="white" stroke="black" points="162,-592 126,-592 126,-556 162,-556 162,-592"/>
</g>
<!-- action&#45;7&#45;&#45;cluster&#45;1 -->
<g id="edge25" class="edge">
<title>action&#45;7&#45;&#45;cluster&#45;1</title>
<path fill="none" stroke="black" d="M162.32,-581.66C174.01,-586.84 188.91,-593.43 197.94,-597.43"/>
</g>
<!-- action&#45;8 -->
<g id="node8" class="node">
<title>action&#45;8</title>
<polygon fill="white" stroke="black" points="288,-619 252,-619 252,-583 288,-583 288,-619"/>
</g>
<!-- cluster&#45;4 -->
<g id="node50" class="node">
<title>cluster&#45;4</title>
<polygon fill="black" stroke="black" stroke-width="0" points="342,-583 324,-583 324,-565 342,-565 342,-583"/>
</g>
<!-- action&#45;8&#45;&#45;cluster&#45;4 -->
<g id="edge30" class="edge">
<title>action&#45;8&#45;&#45;cluster&#45;4</title>
<path fill="none" stroke="black" d="M288.32,-593.34C300.01,-588.16 314.91,-581.57 323.94,-577.57"/>
</g>
<!-- action&#45;11 -->
<g id="node9" class="node">
<title>action&#45;11</title>
<polygon fill="white" stroke="black" points="1170,-295 1134,-295 1134,-259 1170,-259 1170,-295"/>
</g>
<!-- cluster&#45;2 -->
<g id="node48" class="node">
<title>cluster&#45;2</title>
<polygon fill="black" stroke="black" stroke-width="0" points="1224,-245 1206,-245 1206,-227 1224,-227 1224,-245"/>
</g>
<!-- action&#45;11&#45;&#45;cluster&#45;2 -->
<g id="edge26" class="edge">
<title>action&#45;11&#45;&#45;cluster&#45;2</title>
<path fill="none" stroke="black" d="M1170.32,-265.36C1182.01,-257.5 1196.91,-247.49 1205.94,-241.42"/>
</g>
<!-- action&#45;13 -->
<g id="node10" class="node">
<title>action&#45;13</title>
<polygon fill="white" stroke="black" points="1170,-241 1134,-241 1134,-205 1170,-205 1170,-241"/>
</g>
<!-- action&#45;13&#45;&#45;cluster&#45;2 -->
<g id="edge27" class="edge">
<title>action&#45;13&#45;&#45;cluster&#45;2</title>
<path fill="none" stroke="black" d="M1170.32,-226.69C1182.01,-229.18 1196.91,-232.36 1205.94,-234.28"/>
</g>
<!-- action&#45;14 -->
<g id="node11" class="node">
<title>action&#45;14</title>
<polygon fill="white" stroke="black" points="1296,-254 1260,-254 1260,-218 1296,-218 1296,-254"/>
</g>
<!-- cluster&#45;3 -->
<g id="node49" class="node">
<title>cluster&#45;3</title>
<polygon fill="black" stroke="black" stroke-width="0" points="1350,-191 1332,-191 1332,-173 1350,-173 1350,-191"/>
</g>
<!-- action&#45;14&#45;&#45;cluster&#45;3 -->
<g id="edge28" class="edge">
<title>action&#45;14&#45;&#45;cluster&#45;3</title>
<path fill="none" stroke="black" d="M1296.32,-220.67C1308.01,-210.32 1322.91,-197.13 1331.94,-189.14"/>
</g>
<!-- action&#45;17 -->
<g id="node12" class="node">
<title>action&#45;17</title>
<polygon fill="white" stroke="black" points="1296,-200 1260,-200 1260,-164 1296,-164 1296,-200"/>
</g>
<!-- action&#45;17&#45;&#45;cluster&#45;3 -->
<g id="edge29" class="edge">
<title>action&#45;17&#45;&#45;cluster&#45;3</title>
<path fill="none" stroke="black" d="M1296.32,-182C1308.01,-182 1322.91,-182 1331.94,-182"/>
</g>
<!-- action&#45;18 -->
<g id="node13" class="node">
<title>action&#45;18</title>
<polygon fill="white" stroke="black" points="1422,-200 1386,-200 1386,-164 1422,-164 1422,-200"/>
</g>
<!-- cluster&#45;13 -->
<g id="node59" class="node">
<title>cluster&#45;13</title>
<polygon fill="black" stroke="black" stroke-width="0" points="1476,-137 1458,-137 1458,-119 1476,-119 1476,-137"/>
</g>
<!-- action&#45;18&#45;&#45;cluster&#45;13 -->
<g id="edge48" class="edge">
<title>action&#45;18&#45;&#45;cluster&#45;13</title>
<path fill="none" stroke="black" d="M1422.32,-166.67C1434.01,-156.32 1448.91,-143.13 1457.94,-135.14"/>
</g>
<!-- action&#45;21 -->
<g id="node14" class="node">
<title>action&#45;21</title>
<polygon fill="white" stroke="black" points="288,-565 252,-565 252,-529 288,-529 288,-565"/>
</g>
<!-- action&#45;21&#45;&#45;cluster&#45;4 -->
<g id="edge31" class="edge">
<title>action&#45;21&#45;&#45;cluster&#45;4</title>
<path fill="none" stroke="black" d="M288.32,-554.66C300.01,-559.84 314.91,-566.43 323.94,-570.43"/>
</g>
<!-- action&#45;22 -->
<g id="node15" class="node">
<title>action&#45;22</title>
<polygon fill="white" stroke="black" points="414,-592 378,-592 378,-556 414,-556 414,-592"/>
</g>
<!-- cluster&#45;5 -->
<g id="node51" class="node">
<title>cluster&#45;5</title>
<polygon fill="black" stroke="black" stroke-width="0" points="468,-556 450,-556 450,-538 468,-538 468,-556"/>
</g>
<!-- action&#45;22&#45;&#45;cluster&#45;5 -->
<g id="edge32" class="edge">
<title>action&#45;22&#45;&#45;cluster&#45;5</title>
<path fill="none" stroke="black" d="M414.32,-566.34C426.01,-561.16 440.91,-554.57 449.94,-550.57"/>
</g>
<!-- action&#45;25 -->
<g id="node16" class="node">
<title>action&#45;25</title>
<polygon fill="white" stroke="black" points="414,-538 378,-538 378,-502 414,-502 414,-538"/>
</g>
<!-- action&#45;25&#45;&#45;cluster&#45;5 -->
<g id="edge33" class="edge">
<title>action&#45;25&#45;&#45;cluster&#45;5</title>
<path fill="none" stroke="black" d="M414.32,-527.66C426.01,-532.84 440.91,-539.43 449.94,-543.43"/>
</g>
<!-- action&#45;26 -->
<g id="node17" class="node">
<title>action&#45;26</title>
<polygon fill="white" stroke="black" points="540,-565 504,-565 504,-529 540,-529 540,-565"/>
</g>
<!-- cluster&#45;6 -->
<g id="node52" class="node">
<title>cluster&#45;6</title>
<polygon fill="black" stroke="black" stroke-width="0" points="594,-529 576,-529 576,-511 594,-511 594,-529"/>
</g>
<!-- action&#45;26&#45;&#45;cluster&#45;6 -->
<g id="edge34" class="edge">
<title>action&#45;26&#45;&#45;cluster&#45;6</title>
<path fill="none" stroke="black" d="M540.32,-539.34C552.01,-534.16 566.91,-527.57 575.94,-523.57"/>
</g>
<!-- action&#45;31 -->
<g id="node18" class="node">
<title>action&#45;31</title>
<polygon fill="white" stroke="black" points="540,-511 504,-511 504,-475 540,-475 540,-511"/>
</g>
<!-- action&#45;31&#45;&#45;cluster&#45;6 -->
<g id="edge35" class="edge">
<title>action&#45;31&#45;&#45;cluster&#45;6</title>
<path fill="none" stroke="black" d="M540.32,-500.66C552.01,-505.84 566.91,-512.43 575.94,-516.43"/>
</g>
<!-- action&#45;32 -->
<g id="node19" class="node">
<title>action&#45;32</title>
<polygon fill="white" stroke="black" points="666,-538 630,-538 630,-502 666,-502 666,-538"/>
</g>
<!-- cluster&#45;7 -->
<g id="node53" class="node">
<title>cluster&#45;7</title>
<polygon fill="black" stroke="black" stroke-width="0" points="720,-502 702,-502 702,-484 720,-484 720,-502"/>
</g>
<!-- action&#45;32&#45;&#45;cluster&#45;7 -->
<g id="edge36" class="edge">
<title>action&#45;32&#45;&#45;cluster&#45;7</title>
<path fill="none" stroke="black" d="M666.32,-512.34C678.01,-507.16 692.91,-500.57 701.94,-496.57"/>
</g>
<!-- action&#45;35 -->
<g id="node20" class="node">
<title>action&#45;35</title>
<polygon fill="white" stroke="black" points="666,-484 630,-484 630,-448 666,-448 666,-484"/>
</g>
<!-- action&#45;35&#45;&#45;cluster&#45;7 -->
<g id="edge37" class="edge">
<title>action&#45;35&#45;&#45;cluster&#45;7</title>
<path fill="none" stroke="black" d="M666.32,-473.66C678.01,-478.84 692.91,-485.43 701.94,-489.43"/>
</g>
<!-- action&#45;36 -->
<g id="node21" class="node">
<title>action&#45;36</title>
<polygon fill="white" stroke="black" points="792,-511 756,-511 756,-475 792,-475 792,-511"/>
</g>
<!-- cluster&#45;8 -->
<g id="node54" class="node">
<title>cluster&#45;8</title>
<polygon fill="black" stroke="black" stroke-width="0" points="846,-475 828,-475 828,-457 846,-457 846,-475"/>
</g>
<!-- action&#45;36&#45;&#45;cluster&#45;8 -->
<g id="edge38" class="edge">
<title>action&#45;36&#45;&#45;cluster&#45;8</title>
<path fill="none" stroke="black" d="M792.32,-485.34C804.01,-480.16 818.91,-473.57 827.94,-469.57"/>
</g>
<!-- action&#45;39 -->
<g id="node22" class="node">
<title>action&#45;39</title>
<polygon fill="white" stroke="black" points="792,-457 756,-457 756,-421 792,-421 792,-457"/>
</g>
<!-- action&#45;39&#45;&#45;cluster&#45;8 -->
<g id="edge39" class="edge">
<title>action&#45;39&#45;&#45;cluster&#45;8</title>
<path fill="none" stroke="black" d="M792.32,-446.66C804.01,-451.84 818.91,-458.43 827.94,-462.43"/>
</g>
<!-- action&#45;40 -->
<g id="node23" class="node">
<title>action&#45;40</title>
<polygon fill="white" stroke="black" points="918,-484 882,-484 882,-448 918,-448 918,-484"/>
</g>
<!-- cluster&#45;9 -->
<g id="node55" class="node">
<title>cluster&#45;9</title>
<polygon fill="black" stroke="black" stroke-width="0" points="972,-448 954,-448 954,-430 972,-430 972,-448"/>
</g>
<!-- action&#45;40&#45;&#45;cluster&#45;9 -->
<g id="edge40" class="edge">
<title>action&#45;40&#45;&#45;cluster&#45;9</title>
<path fill="none" stroke="black" d="M918.32,-458.34C930.01,-453.16 944.91,-446.57 953.94,-442.57"/>
</g>
<!-- action&#45;43 -->
<g id="node24" class="node">
<title>action&#45;43</title>
<polygon fill="white" stroke="black" points="918,-430 882,-430 882,-394 918,-394 918,-430"/>
</g>
<!-- action&#45;43&#45;&#45;cluster&#45;9 -->
<g id="edge41" class="edge">
<title>action&#45;43&#45;&#45;cluster&#45;9</title>
<path fill="none" stroke="black" d="M918.32,-419.66C930.01,-424.84 944.91,-431.43 953.94,-435.43"/>
</g>
<!-- action&#45;44 -->
<g id="node25" class="node">
<title>action&#45;44</title>
<polygon fill="white" stroke="black" points="1044,-457 1008,-457 1008,-421 1044,-421 1044,-457"/>
</g>
<!-- cluster&#45;10 -->
<g id="node56" class="node">
<title>cluster&#45;10</title>
<polygon fill="black" stroke="black" stroke-width="0" points="1098,-421 1080,-421 1080,-403 1098,-403 1098,-421"/>
</g>
<!-- action&#45;44&#45;&#45;cluster&#45;10 -->
<g id="edge42" class="edge">
<title>action&#45;44&#45;&#45;cluster&#45;10</title>
<path fill="none" stroke="black" d="M1044.32,-431.34C1056.01,-426.16 1070.91,-419.57 1079.94,-415.57"/>
</g>
<!-- action&#45;47 -->
<g id="node26" class="node">
<title>action&#45;47</title>
<polygon fill="white" stroke="black" points="1044,-403 1008,-403 1008,-367 1044,-367 1044,-403"/>
</g>
<!-- action&#45;47&#45;&#45;cluster&#45;10 -->
<g id="edge43" class="edge">
<title>action&#45;47&#45;&#45;cluster&#45;10</title>
<path fill="none" stroke="black" d="M1044.32,-392.66C1056.01,-397.84 1070.91,-404.43 1079.94,-408.43"/>
</g>
<!-- action&#45;48 -->
<g id="node27" class="node">
<title>action&#45;48</title>
<polygon fill="white" stroke="black" points="1170,-430 1134,-430 1134,-394 1170,-394 1170,-430"/>
</g>
<!-- cluster&#45;11 -->
<g id="node57" class="node">
<title>cluster&#45;11</title>
<polygon fill="black" stroke="black" stroke-width="0" points="1224,-377 1206,-377 1206,-359 1224,-359 1224,-377"/>
</g>
<!-- action&#45;48&#45;&#45;cluster&#45;11 -->
<g id="edge44" class="edge">
<title>action&#45;48&#45;&#45;cluster&#45;11</title>
<path fill="none" stroke="black" d="M1170.32,-399.51C1182.01,-391.07 1196.91,-380.33 1205.94,-373.82"/>
</g>
<!-- action&#45;51 -->
<g id="node28" class="node">
<title>action&#45;51</title>
<polygon fill="white" stroke="black" points="1170,-376 1134,-376 1134,-340 1170,-340 1170,-376"/>
</g>
<!-- action&#45;51&#45;&#45;cluster&#45;11 -->
<g id="edge45" class="edge">
<title>action&#45;51&#45;&#45;cluster&#45;11</title>
<path fill="none" stroke="black" d="M1170.32,-360.84C1182.01,-362.76 1196.91,-365.2 1205.94,-366.68"/>
</g>
<!-- action&#45;52 -->
<g id="node29" class="node">
<title>action&#45;52</title>
<polygon fill="white" stroke="black" points="1296,-386 1260,-386 1260,-350 1296,-350 1296,-386"/>
</g>
<!-- cluster&#45;12 -->
<g id="node58" class="node">
<title>cluster&#45;12</title>
<polygon fill="black" stroke="black" stroke-width="0" points="1350,-328 1332,-328 1332,-310 1350,-310 1350,-328"/>
</g>
<!-- action&#45;52&#45;&#45;cluster&#45;12 -->
<g id="edge46" class="edge">
<title>action&#45;52&#45;&#45;cluster&#45;12</title>
<path fill="none" stroke="black" d="M1296.32,-354.09C1308.01,-344.7 1322.91,-332.73 1331.94,-325.48"/>
</g>
<!-- action&#45;55 -->
<g id="node30" class="node">
<title>action&#45;55</title>
<polygon fill="white" stroke="black" points="1296,-332 1260,-332 1260,-296 1296,-296 1296,-332"/>
</g>
<!-- action&#45;55&#45;&#45;cluster&#45;12 -->
<g id="edge47" class="edge">
<title>action&#45;55&#45;&#45;cluster&#45;12</title>
<path fill="none" stroke="black" d="M1296.32,-315.42C1308.01,-316.38 1322.91,-317.6 1331.94,-318.34"/>
</g>
<!-- action&#45;56 -->
<g id="node31" class="node">
<title>action&#45;56</title>
<polygon fill="white" stroke="black" points="1422,-337 1386,-337 1386,-301 1422,-301 1422,-337"/>
</g>
<!-- cluster&#45;14 -->
<g id="node60" class="node">
<title>cluster&#45;14</title>
<polygon fill="black" stroke="black" stroke-width="0" points="1476,-276 1458,-276 1458,-258 1476,-258 1476,-276"/>
</g>
<!-- action&#45;56&#45;&#45;cluster&#45;14 -->
<g id="edge50" class="edge">
<title>action&#45;56&#45;&#45;cluster&#45;14</title>
<path fill="none" stroke="black" d="M1422.32,-304.24C1434.01,-294.27 1448.91,-281.57 1457.94,-273.88"/>
</g>
<!-- action&#45;59 -->
<g id="node32" class="node">
<title>action&#45;59</title>
<polygon fill="white" stroke="black" points="1422,-146 1386,-146 1386,-110 1422,-110 1422,-146"/>
</g>
<!-- action&#45;59&#45;&#45;cluster&#45;13 -->
<g id="edge49" class="edge">
<title>action&#45;59&#45;&#45;cluster&#45;13</title>
<path fill="none" stroke="black" d="M1422.32,-128C1434.01,-128 1448.91,-128 1457.94,-128"/>
</g>
<!-- action&#45;60 -->
<g id="node33" class="node">
<title>action&#45;60</title>
<polygon fill="white" stroke="black" points="1548,-146 1512,-146 1512,-110 1548,-110 1548,-146"/>
</g>
<!-- cluster&#45;16 -->
<g id="node62" class="node">
<title>cluster&#45;16</title>
<polygon fill="black" stroke="black" stroke-width="0" points="1602,-83 1584,-83 1584,-65 1602,-65 1602,-83"/>
</g>
<!-- action&#45;60&#45;&#45;cluster&#45;16 -->
<g id="edge54" class="edge">
<title>action&#45;60&#45;&#45;cluster&#45;16</title>
<path fill="none" stroke="black" d="M1548.32,-112.67C1560.01,-102.32 1574.91,-89.13 1583.94,-81.14"/>
</g>
<!-- action&#45;63 -->
<g id="node34" class="node">
<title>action&#45;63</title>
<polygon fill="white" stroke="black" points="1422,-283 1386,-283 1386,-247 1422,-247 1422,-283"/>
</g>
<!-- action&#45;63&#45;&#45;cluster&#45;14 -->
<g id="edge51" class="edge">
<title>action&#45;63&#45;&#45;cluster&#45;14</title>
<path fill="none" stroke="black" d="M1422.32,-265.57C1434.01,-265.95 1448.91,-266.44 1457.94,-266.74"/>
</g>
<!-- action&#45;64 -->
<g id="node35" class="node">
<title>action&#45;64</title>
<polygon fill="white" stroke="black" points="1548,-285 1512,-285 1512,-249 1548,-249 1548,-285"/>
</g>
<!-- cluster&#45;15 -->
<g id="node61" class="node">
<title>cluster&#45;15</title>
<polygon fill="black" stroke="black" stroke-width="0" points="1602,-223 1584,-223 1584,-205 1602,-205 1602,-223"/>
</g>
<!-- action&#45;64&#45;&#45;cluster&#45;15 -->
<g id="edge52" class="edge">
<title>action&#45;64&#45;&#45;cluster&#45;15</title>
<path fill="none" stroke="black" d="M1548.32,-251.95C1560.01,-241.79 1574.91,-228.85 1583.94,-221.01"/>
</g>
<!-- action&#45;67 -->
<g id="node36" class="node">
<title>action&#45;67</title>
<polygon fill="white" stroke="black" points="1548,-231 1512,-231 1512,-195 1548,-195 1548,-231"/>
</g>
<!-- action&#45;67&#45;&#45;cluster&#45;15 -->
<g id="edge53" class="edge">
<title>action&#45;67&#45;&#45;cluster&#45;15</title>
<path fill="none" stroke="black" d="M1548.32,-213.28C1560.01,-213.48 1574.91,-213.72 1583.94,-213.87"/>
</g>
<!-- action&#45;68 -->
<g id="node37" class="node">
<title>action&#45;68</title>
<polygon fill="white" stroke="black" points="1674,-232 1638,-232 1638,-196 1674,-196 1674,-232"/>
</g>
<!-- cluster&#45;18 -->
<g id="node64" class="node">
<title>cluster&#45;18</title>
<polygon fill="black" stroke="black" stroke-width="0" points="1728,-189 1710,-189 1710,-171 1728,-171 1728,-189"/>
</g>
<!-- action&#45;68&#45;&#45;cluster&#45;18 -->
<g id="edge58" class="edge">
<title>action&#45;68&#45;&#45;cluster&#45;18</title>
<path fill="none" stroke="black" d="M1674.32,-204.35C1686.01,-197.83 1700.91,-189.53 1709.94,-184.5"/>
</g>
<!-- action&#45;71 -->
<g id="node38" class="node">
<title>action&#45;71</title>
<polygon fill="white" stroke="black" points="1548,-92 1512,-92 1512,-56 1548,-56 1548,-92"/>
</g>
<!-- action&#45;71&#45;&#45;cluster&#45;16 -->
<g id="edge55" class="edge">
<title>action&#45;71&#45;&#45;cluster&#45;16</title>
<path fill="none" stroke="black" d="M1548.32,-74C1560.01,-74 1574.91,-74 1583.94,-74"/>
</g>
<!-- action&#45;72 -->
<g id="node39" class="node">
<title>action&#45;72</title>
<polygon fill="white" stroke="black" points="1674,-92 1638,-92 1638,-56 1674,-56 1674,-92"/>
</g>
<!-- cluster&#45;17 -->
<g id="node63" class="node">
<title>cluster&#45;17</title>
<polygon fill="black" stroke="black" stroke-width="0" points="1728,-81 1710,-81 1710,-63 1728,-63 1728,-81"/>
</g>
<!-- action&#45;72&#45;&#45;cluster&#45;17 -->
<g id="edge56" class="edge">
<title>action&#45;72&#45;&#45;cluster&#45;17</title>
<path fill="none" stroke="black" d="M1674.32,-73.43C1686.01,-73.05 1700.91,-72.56 1709.94,-72.26"/>
</g>
<!-- action&#45;75 -->
<g id="node40" class="node">
<title>action&#45;75</title>
<polygon fill="white" stroke="black" points="1674,-38 1638,-38 1638,-2 1674,-2 1674,-38"/>
</g>
<!-- action&#45;75&#45;&#45;cluster&#45;17 -->
<g id="edge57" class="edge">
<title>action&#45;75&#45;&#45;cluster&#45;17</title>
<path fill="none" stroke="black" d="M1674.32,-34.76C1686.01,-44.73 1700.91,-57.43 1709.94,-65.12"/>
</g>
<!-- action&#45;76 -->
<g id="node41" class="node">
<title>action&#45;76</title>
<polygon fill="#c9211e" stroke="black" points="1800,-90 1764,-90 1764,-54 1800,-54 1800,-90"/>
</g>
<!-- cluster&#45;20 -->
<g id="node66" class="node">
<title>cluster&#45;20</title>
<polygon fill="black" stroke="black" stroke-width="0" points="1854,-81 1836,-81 1836,-63 1854,-63 1854,-81"/>
</g>
<!-- action&#45;76&#45;&#45;cluster&#45;20 -->
<g id="edge62" class="edge">
<title>action&#45;76&#45;&#45;cluster&#45;20</title>
<path fill="none" stroke="black" d="M1800.32,-72C1812.01,-72 1826.91,-72 1835.94,-72"/>
</g>
<!-- action&#45;79 -->
<g id="node42" class="node">
<title>action&#45;79</title>
<polygon fill="white" stroke="black" points="1674,-178 1638,-178 1638,-142 1674,-142 1674,-178"/>
</g>
<!-- action&#45;79&#45;&#45;cluster&#45;18 -->
<g id="edge59" class="edge">
<title>action&#45;79&#45;&#45;cluster&#45;18</title>
<path fill="none" stroke="black" d="M1674.32,-165.68C1686.01,-169.51 1700.91,-174.4 1709.94,-177.36"/>
</g>
<!-- action&#45;80 -->
<g id="node43" class="node">
<title>action&#45;80</title>
<polygon fill="white" stroke="black" points="1800,-198 1764,-198 1764,-162 1800,-162 1800,-198"/>
</g>
<!-- cluster&#45;19 -->
<g id="node65" class="node">
<title>cluster&#45;19</title>
<polygon fill="black" stroke="black" stroke-width="0" points="1854,-135 1836,-135 1836,-117 1854,-117 1854,-135"/>
</g>
<!-- action&#45;80&#45;&#45;cluster&#45;19 -->
<g id="edge60" class="edge">
<title>action&#45;80&#45;&#45;cluster&#45;19</title>
<path fill="none" stroke="black" d="M1800.32,-164.67C1812.01,-154.32 1826.91,-141.13 1835.94,-133.14"/>
</g>
<!-- action&#45;83 -->
<g id="node44" class="node">
<title>action&#45;83</title>
<polygon fill="white" stroke="black" points="1800,-144 1764,-144 1764,-108 1800,-108 1800,-144"/>
</g>
<!-- action&#45;83&#45;&#45;cluster&#45;19 -->
<g id="edge61" class="edge">
<title>action&#45;83&#45;&#45;cluster&#45;19</title>
<path fill="none" stroke="black" d="M1800.32,-126C1812.01,-126 1826.91,-126 1835.94,-126"/>
</g>
<!-- action&#45;87 -->
<g id="node45" class="node">
<title>action&#45;87</title>
<polygon fill="#00008b" stroke="black" points="1800,-36 1764,-36 1764,0 1800,0 1800,-36"/>
</g>
<!-- action&#45;87&#45;&#45;cluster&#45;20 -->
<g id="edge63" class="edge">
<title>action&#45;87&#45;&#45;cluster&#45;20</title>
<path fill="none" stroke="black" d="M1800.32,-33.33C1812.01,-43.68 1826.91,-56.87 1835.94,-64.86"/>
</g>
<!-- cluster&#45;0&#45;&#45;action&#45;4 -->
<g id="edge1" class="edge">
<title>cluster&#45;0&#45;&#45;action&#45;4</title>
<path fill="none" stroke="black" d="M90.23,-628C99.33,-628 114.26,-628 125.92,-628"/>
</g>
<!-- cluster&#45;1&#45;&#45;action&#45;8 -->
<g id="edge2" class="edge">
<title>cluster&#45;1&#45;&#45;action&#45;8</title>
<path fill="none" stroke="black" d="M216.23,-601C225.33,-601 240.26,-601 251.92,-601"/>
</g>
<!-- cluster&#45;2&#45;&#45;action&#45;14 -->
<g id="edge3" class="edge">
<title>cluster&#45;2&#45;&#45;action&#45;14</title>
<path fill="none" stroke="black" d="M1224.23,-236C1233.33,-236 1248.26,-236 1259.92,-236"/>
</g>
<!-- cluster&#45;3&#45;&#45;action&#45;18 -->
<g id="edge4" class="edge">
<title>cluster&#45;3&#45;&#45;action&#45;18</title>
<path fill="none" stroke="black" d="M1350.23,-182C1359.33,-182 1374.26,-182 1385.92,-182"/>
</g>
<!-- cluster&#45;4&#45;&#45;action&#45;22 -->
<g id="edge5" class="edge">
<title>cluster&#45;4&#45;&#45;action&#45;22</title>
<path fill="none" stroke="black" d="M342.23,-574C351.33,-574 366.26,-574 377.92,-574"/>
</g>
<!-- cluster&#45;5&#45;&#45;action&#45;26 -->
<g id="edge6" class="edge">
<title>cluster&#45;5&#45;&#45;action&#45;26</title>
<path fill="none" stroke="black" d="M468.23,-547C477.33,-547 492.26,-547 503.92,-547"/>
</g>
<!-- cluster&#45;6&#45;&#45;action&#45;32 -->
<g id="edge7" class="edge">
<title>cluster&#45;6&#45;&#45;action&#45;32</title>
<path fill="none" stroke="black" d="M594.23,-520C603.33,-520 618.26,-520 629.92,-520"/>
</g>
<!-- cluster&#45;7&#45;&#45;action&#45;36 -->
<g id="edge8" class="edge">
<title>cluster&#45;7&#45;&#45;action&#45;36</title>
<path fill="none" stroke="black" d="M720.23,-493C729.33,-493 744.26,-493 755.92,-493"/>
</g>
<!-- cluster&#45;8&#45;&#45;action&#45;40 -->
<g id="edge9" class="edge">
<title>cluster&#45;8&#45;&#45;action&#45;40</title>
<path fill="none" stroke="black" d="M846.23,-466C855.33,-466 870.26,-466 881.92,-466"/>
</g>
<!-- cluster&#45;9&#45;&#45;action&#45;44 -->
<g id="edge10" class="edge">
<title>cluster&#45;9&#45;&#45;action&#45;44</title>
<path fill="none" stroke="black" d="M972.23,-439C981.33,-439 996.26,-439 1007.92,-439"/>
</g>
<!-- cluster&#45;10&#45;&#45;action&#45;48 -->
<g id="edge11" class="edge">
<title>cluster&#45;10&#45;&#45;action&#45;48</title>
<path fill="none" stroke="black" d="M1098.23,-412C1107.33,-412 1122.26,-412 1133.92,-412"/>
</g>
<!-- cluster&#45;11&#45;&#45;action&#45;52 -->
<g id="edge12" class="edge">
<title>cluster&#45;11&#45;&#45;action&#45;52</title>
<path fill="none" stroke="black" d="M1224.23,-368C1233.33,-368 1248.26,-368 1259.92,-368"/>
</g>
<!-- cluster&#45;12&#45;&#45;action&#45;56 -->
<g id="edge13" class="edge">
<title>cluster&#45;12&#45;&#45;action&#45;56</title>
<path fill="none" stroke="black" d="M1350.23,-319C1359.33,-319 1374.26,-319 1385.92,-319"/>
</g>
<!-- cluster&#45;13&#45;&#45;action&#45;60 -->
<g id="edge14" class="edge">
<title>cluster&#45;13&#45;&#45;action&#45;60</title>
<path fill="none" stroke="black" d="M1476.23,-128C1485.33,-128 1500.26,-128 1511.92,-128"/>
</g>
<!-- cluster&#45;14&#45;&#45;action&#45;64 -->
<g id="edge15" class="edge">
<title>cluster&#45;14&#45;&#45;action&#45;64</title>
<path fill="none" stroke="black" d="M1476.23,-267C1485.33,-267 1500.26,-267 1511.92,-267"/>
</g>
<!-- cluster&#45;15&#45;&#45;action&#45;68 -->
<g id="edge16" class="edge">
<title>cluster&#45;15&#45;&#45;action&#45;68</title>
<path fill="none" stroke="black" d="M1602.23,-214C1611.33,-214 1626.26,-214 1637.92,-214"/>
</g>
<!-- cluster&#45;16&#45;&#45;action&#45;72 -->
<g id="edge17" class="edge">
<title>cluster&#45;16&#45;&#45;action&#45;72</title>
<path fill="none" stroke="black" d="M1602.23,-74C1611.33,-74 1626.26,-74 1637.92,-74"/>
</g>
<!-- cluster&#45;17&#45;&#45;action&#45;76 -->
<g id="edge18" class="edge">
<title>cluster&#45;17&#45;&#45;action&#45;76</title>
<path fill="none" stroke="black" d="M1728.23,-72C1737.33,-72 1752.26,-72 1763.92,-72"/>
</g>
<!-- cluster&#45;18&#45;&#45;action&#45;80 -->
<g id="edge19" class="edge">
<title>cluster&#45;18&#45;&#45;action&#45;80</title>
<path fill="none" stroke="black" d="M1728.23,-180C1737.33,-180 1752.26,-180 1763.92,-180"/>
</g>
<!-- cluster&#45;19&#45;&#45;action&#45;84 -->
<g id="edge20" class="edge">
<title>cluster&#45;19&#45;&#45;action&#45;84</title>
<path fill="none" stroke="black" d="M1854.23,-126C1863.33,-126 1878.26,-126 1889.92,-126"/>
</g>
<!-- cluster&#45;20&#45;&#45;action&#45;88 -->
<g id="edge21" class="edge">
<title>cluster&#45;20&#45;&#45;action&#45;88</title>
<path fill="none" stroke="black" d="M1854.23,-72C1863.33,-72 1878.26,-72 1889.92,-72"/>
</g>
</g>
</svg>
