<?xml version="1.0" encoding="UTF-8" standalone="no"?>
<!DOCTYPE svg PUBLIC "-//W3C//DTD SVG 1.1//EN"
 "http://www.w3.org/Graphics/SVG/1.1/DTD/svg11.dtd">
<!-- Generated by graphviz version 2.43.0 (0)
 -->
<!-- Title: g Pages: 1 -->
<svg width="3462pt" height="1018pt"
 viewBox="0.00 0.00 3462.00 1018.00" xmlns="http://www.w3.org/2000/svg" xmlns:xlink="http://www.w3.org/1999/xlink">
<g id="graph0" class="graph" transform="scale(1 1) rotate(0) translate(4 1014)">
<title>g</title>
<polygon fill="white" stroke="transparent" points="-4,4 -4,-1014 3458,-1014 3458,4 -4,4"/>
<g id="clust1" class="cluster">
<title>cluster_actionlib</title>
<polygon fill="none" stroke="black" points="3394,-46 3394,-260 3446,-260 3446,-46 3394,-46"/>
</g>
<!-- action&#45;112 -->
<g id="node1" class="node">
<title>action&#45;112</title>
<polygon fill="white" stroke="black" stroke-width="4" points="3438,-252 3402,-252 3402,-216 3438,-216 3438,-252"/>
</g>
<!-- action&#45;135 -->
<g id="node2" class="node">
<title>action&#45;135</title>
<polygon fill="white" stroke="black" stroke-width="4" points="3438,-198 3402,-198 3402,-162 3438,-162 3438,-198"/>
</g>
<!-- action&#45;150 -->
<g id="node3" class="node">
<title>action&#45;150</title>
<polygon fill="white" stroke="black" stroke-width="4" points="3438,-144 3402,-144 3402,-108 3438,-108 3438,-144"/>
</g>
<!-- action&#45;154 -->
<g id="node4" class="node">
<title>action&#45;154</title>
<polygon fill="#008000" stroke="black" stroke-width="4" points="3438,-90 3402,-90 3402,-54 3438,-54 3438,-90"/>
</g>
<!-- action&#45;1 -->
<g id="node5" class="node">
<title>action&#45;1</title>
<polygon fill="white" stroke="black" points="36,-1010 0,-1010 0,-974 36,-974 36,-1010"/>
</g>
<!-- cluster&#45;0 -->
<g id="node79" class="node">
<title>cluster&#45;0</title>
<polygon fill="black" stroke="black" stroke-width="0" points="90,-974 72,-974 72,-956 90,-956 90,-974"/>
</g>
<!-- action&#45;1&#45;&#45;cluster&#45;0 -->
<g id="edge38" class="edge">
<title>action&#45;1&#45;&#45;cluster&#45;0</title>
<path fill="none" stroke="black" d="M36.32,-984.34C48.01,-979.16 62.91,-972.57 71.94,-968.57"/>
</g>
<!-- action&#45;3 -->
<g id="node6" class="node">
<title>action&#45;3</title>
<polygon fill="white" stroke="black" points="36,-956 0,-956 0,-920 36,-920 36,-956"/>
</g>
<!-- action&#45;3&#45;&#45;cluster&#45;0 -->
<g id="edge39" class="edge">
<title>action&#45;3&#45;&#45;cluster&#45;0</title>
<path fill="none" stroke="black" d="M36.32,-945.66C48.01,-950.84 62.91,-957.43 71.94,-961.43"/>
</g>
<!-- action&#45;4 -->
<g id="node7" class="node">
<title>action&#45;4</title>
<polygon fill="white" stroke="black" points="162,-983 126,-983 126,-947 162,-947 162,-983"/>
</g>
<!-- cluster&#45;1 -->
<g id="node80" class="node">
<title>cluster&#45;1</title>
<polygon fill="black" stroke="black" stroke-width="0" points="216,-947 198,-947 198,-929 216,-929 216,-947"/>
</g>
<!-- action&#45;4&#45;&#45;cluster&#45;1 -->
<g id="edge40" class="edge">
<title>action&#45;4&#45;&#45;cluster&#45;1</title>
<path fill="none" stroke="black" d="M162.32,-957.34C174.01,-952.16 188.91,-945.57 197.94,-941.57"/>
</g>
<!-- action&#45;7 -->
<g id="node8" class="node">
<title>action&#45;7</title>
<polygon fill="white" stroke="black" points="162,-929 126,-929 126,-893 162,-893 162,-929"/>
</g>
<!-- action&#45;7&#45;&#45;cluster&#45;1 -->
<g id="edge41" class="edge">
<title>action&#45;7&#45;&#45;cluster&#45;1</title>
<path fill="none" stroke="black" d="M162.32,-918.66C174.01,-923.84 188.91,-930.43 197.94,-934.43"/>
</g>
<!-- action&#45;8 -->
<g id="node9" class="node">
<title>action&#45;8</title>
<polygon fill="white" stroke="black" points="288,-956 252,-956 252,-920 288,-920 288,-956"/>
</g>
<!-- cluster&#45;4 -->
<g id="node83" class="node">
<title>cluster&#45;4</title>
<polygon fill="black" stroke="black" stroke-width="0" points="342,-920 324,-920 324,-902 342,-902 342,-920"/>
</g>
<!-- action&#45;8&#45;&#45;cluster&#45;4 -->
<g id="edge46" class="edge">
<title>action&#45;8&#45;&#45;cluster&#45;4</title>
<path fill="none" stroke="black" d="M288.32,-930.34C300.01,-925.16 314.91,-918.57 323.94,-914.57"/>
</g>
<!-- action&#45;11 -->
<g id="node10" class="node">
<title>action&#45;11</title>
<polygon fill="white" stroke="black" points="2430,-632 2394,-632 2394,-596 2430,-596 2430,-632"/>
</g>
<!-- cluster&#45;2 -->
<g id="node81" class="node">
<title>cluster&#45;2</title>
<polygon fill="black" stroke="black" stroke-width="0" points="2484,-589 2466,-589 2466,-571 2484,-571 2484,-589"/>
</g>
<!-- action&#45;11&#45;&#45;cluster&#45;2 -->
<g id="edge42" class="edge">
<title>action&#45;11&#45;&#45;cluster&#45;2</title>
<path fill="none" stroke="black" d="M2430.32,-604.35C2442.01,-597.83 2456.91,-589.53 2465.94,-584.5"/>
</g>
<!-- action&#45;13 -->
<g id="node11" class="node">
<title>action&#45;13</title>
<polygon fill="white" stroke="black" points="2430,-578 2394,-578 2394,-542 2430,-542 2430,-578"/>
</g>
<!-- action&#45;13&#45;&#45;cluster&#45;2 -->
<g id="edge43" class="edge">
<title>action&#45;13&#45;&#45;cluster&#45;2</title>
<path fill="none" stroke="black" d="M2430.32,-565.68C2442.01,-569.51 2456.91,-574.4 2465.94,-577.36"/>
</g>
<!-- action&#45;14 -->
<g id="node12" class="node">
<title>action&#45;14</title>
<polygon fill="white" stroke="black" points="2556,-598 2520,-598 2520,-562 2556,-562 2556,-598"/>
</g>
<!-- cluster&#45;3 -->
<g id="node82" class="node">
<title>cluster&#45;3</title>
<polygon fill="black" stroke="black" stroke-width="0" points="2610,-545 2592,-545 2592,-527 2610,-527 2610,-545"/>
</g>
<!-- action&#45;14&#45;&#45;cluster&#45;3 -->
<g id="edge44" class="edge">
<title>action&#45;14&#45;&#45;cluster&#45;3</title>
<path fill="none" stroke="black" d="M2556.32,-567.51C2568.01,-559.07 2582.91,-548.33 2591.94,-541.82"/>
</g>
<!-- action&#45;17 -->
<g id="node13" class="node">
<title>action&#45;17</title>
<polygon fill="white" stroke="black" points="2556,-544 2520,-544 2520,-508 2556,-508 2556,-544"/>
</g>
<!-- action&#45;17&#45;&#45;cluster&#45;3 -->
<g id="edge45" class="edge">
<title>action&#45;17&#45;&#45;cluster&#45;3</title>
<path fill="none" stroke="black" d="M2556.32,-528.84C2568.01,-530.76 2582.91,-533.2 2591.94,-534.68"/>
</g>
<!-- action&#45;18 -->
<g id="node14" class="node">
<title>action&#45;18</title>
<polygon fill="white" stroke="black" points="2682,-554 2646,-554 2646,-518 2682,-518 2682,-554"/>
</g>
<!-- cluster&#45;13 -->
<g id="node92" class="node">
<title>cluster&#45;13</title>
<polygon fill="black" stroke="black" stroke-width="0" points="2736,-496 2718,-496 2718,-478 2736,-478 2736,-496"/>
</g>
<!-- action&#45;18&#45;&#45;cluster&#45;13 -->
<g id="edge64" class="edge">
<title>action&#45;18&#45;&#45;cluster&#45;13</title>
<path fill="none" stroke="black" d="M2682.32,-522.09C2694.01,-512.7 2708.91,-500.73 2717.94,-493.48"/>
</g>
<!-- action&#45;21 -->
<g id="node15" class="node">
<title>action&#45;21</title>
<polygon fill="white" stroke="black" points="288,-902 252,-902 252,-866 288,-866 288,-902"/>
</g>
<!-- action&#45;21&#45;&#45;cluster&#45;4 -->
<g id="edge47" class="edge">
<title>action&#45;21&#45;&#45;cluster&#45;4</title>
<path fill="none" stroke="black" d="M288.32,-891.66C300.01,-896.84 314.91,-903.43 323.94,-907.43"/>
</g>
<!-- action&#45;22 -->
<g id="node16" class="node">
<title>action&#45;22</title>
<polygon fill="white" stroke="black" points="414,-929 378,-929 378,-893 414,-893 414,-929"/>
</g>
<!-- cluster&#45;5 -->
<g id="node84" class="node">
<title>cluster&#45;5</title>
<polygon fill="black" stroke="black" stroke-width="0" points="468,-893 450,-893 450,-875 468,-875 468,-893"/>
</g>
<!-- action&#45;22&#45;&#45;cluster&#45;5 -->
<g id="edge48" class="edge">
<title>action&#45;22&#45;&#45;cluster&#45;5</title>
<path fill="none" stroke="black" d="M414.32,-903.34C426.01,-898.16 440.91,-891.57 449.94,-887.57"/>
</g>
<!-- action&#45;25 -->
<g id="node17" class="node">
<title>action&#45;25</title>
<polygon fill="white" stroke="black" points="414,-875 378,-875 378,-839 414,-839 414,-875"/>
</g>
<!-- action&#45;25&#45;&#45;cluster&#45;5 -->
<g id="edge49" class="edge">
<title>action&#45;25&#45;&#45;cluster&#45;5</title>
<path fill="none" stroke="black" d="M414.32,-864.66C426.01,-869.84 440.91,-876.43 449.94,-880.43"/>
</g>
<!-- action&#45;26 -->
<g id="node18" class="node">
<title>action&#45;26</title>
<polygon fill="white" stroke="black" points="540,-902 504,-902 504,-866 540,-866 540,-902"/>
</g>
<!-- cluster&#45;6 -->
<g id="node85" class="node">
<title>cluster&#45;6</title>
<polygon fill="black" stroke="black" stroke-width="0" points="594,-866 576,-866 576,-848 594,-848 594,-866"/>
</g>
<!-- action&#45;26&#45;&#45;cluster&#45;6 -->
<g id="edge50" class="edge">
<title>action&#45;26&#45;&#45;cluster&#45;6</title>
<path fill="none" stroke="black" d="M540.32,-876.34C552.01,-871.16 566.91,-864.57 575.94,-860.57"/>
</g>
<!-- action&#45;29 -->
<g id="node19" class="node">
<title>action&#45;29</title>
<polygon fill="white" stroke="black" points="3186,-104 3150,-104 3150,-68 3186,-68 3186,-104"/>
</g>
<!-- cluster&#45;32 -->
<g id="node111" class="node">
<title>cluster&#45;32</title>
<polygon fill="black" stroke="black" stroke-width="0" points="3240,-81 3222,-81 3222,-63 3240,-63 3240,-81"/>
</g>
<!-- action&#45;29&#45;&#45;cluster&#45;32 -->
<g id="edge102" class="edge">
<title>action&#45;29&#45;&#45;cluster&#45;32</title>
<path fill="none" stroke="black" d="M3186.32,-82.03C3198.01,-79.34 3212.91,-75.92 3221.94,-73.85"/>
</g>
<!-- action&#45;31 -->
<g id="node20" class="node">
<title>action&#45;31</title>
<polygon fill="white" stroke="black" points="540,-848 504,-848 504,-812 540,-812 540,-848"/>
</g>
<!-- action&#45;31&#45;&#45;cluster&#45;6 -->
<g id="edge51" class="edge">
<title>action&#45;31&#45;&#45;cluster&#45;6</title>
<path fill="none" stroke="black" d="M540.32,-837.66C552.01,-842.84 566.91,-849.43 575.94,-853.43"/>
</g>
<!-- action&#45;32 -->
<g id="node21" class="node">
<title>action&#45;32</title>
<polygon fill="white" stroke="black" points="666,-875 630,-875 630,-839 666,-839 666,-875"/>
</g>
<!-- cluster&#45;7 -->
<g id="node86" class="node">
<title>cluster&#45;7</title>
<polygon fill="black" stroke="black" stroke-width="0" points="720,-839 702,-839 702,-821 720,-821 720,-839"/>
</g>
<!-- action&#45;32&#45;&#45;cluster&#45;7 -->
<g id="edge52" class="edge">
<title>action&#45;32&#45;&#45;cluster&#45;7</title>
<path fill="none" stroke="black" d="M666.32,-849.34C678.01,-844.16 692.91,-837.57 701.94,-833.57"/>
</g>
<!-- action&#45;35 -->
<g id="node22" class="node">
<title>action&#45;35</title>
<polygon fill="white" stroke="black" points="666,-821 630,-821 630,-785 666,-785 666,-821"/>
</g>
<!-- action&#45;35&#45;&#45;cluster&#45;7 -->
<g id="edge53" class="edge">
<title>action&#45;35&#45;&#45;cluster&#45;7</title>
<path fill="none" stroke="black" d="M666.32,-810.66C678.01,-815.84 692.91,-822.43 701.94,-826.43"/>
</g>
<!-- action&#45;36 -->
<g id="node23" class="node">
<title>action&#45;36</title>
<polygon fill="white" stroke="black" points="792,-848 756,-848 756,-812 792,-812 792,-848"/>
</g>
<!-- cluster&#45;8 -->
<g id="node87" class="node">
<title>cluster&#45;8</title>
<polygon fill="black" stroke="black" stroke-width="0" points="846,-812 828,-812 828,-794 846,-794 846,-812"/>
</g>
<!-- action&#45;36&#45;&#45;cluster&#45;8 -->
<g id="edge54" class="edge">
<title>action&#45;36&#45;&#45;cluster&#45;8</title>
<path fill="none" stroke="black" d="M792.32,-822.34C804.01,-817.16 818.91,-810.57 827.94,-806.57"/>
</g>
<!-- action&#45;39 -->
<g id="node24" class="node">
<title>action&#45;39</title>
<polygon fill="white" stroke="black" points="792,-794 756,-794 756,-758 792,-758 792,-794"/>
</g>
<!-- action&#45;39&#45;&#45;cluster&#45;8 -->
<g id="edge55" class="edge">
<title>action&#45;39&#45;&#45;cluster&#45;8</title>
<path fill="none" stroke="black" d="M792.32,-783.66C804.01,-788.84 818.91,-795.43 827.94,-799.43"/>
</g>
<!-- action&#45;40 -->
<g id="node25" class="node">
<title>action&#45;40</title>
<polygon fill="white" stroke="black" points="918,-821 882,-821 882,-785 918,-785 918,-821"/>
</g>
<!-- cluster&#45;9 -->
<g id="node88" class="node">
<title>cluster&#45;9</title>
<polygon fill="black" stroke="black" stroke-width="0" points="972,-785 954,-785 954,-767 972,-767 972,-785"/>
</g>
<!-- action&#45;40&#45;&#45;cluster&#45;9 -->
<g id="edge56" class="edge">
<title>action&#45;40&#45;&#45;cluster&#45;9</title>
<path fill="none" stroke="black" d="M918.32,-795.34C930.01,-790.16 944.91,-783.57 953.94,-779.57"/>
</g>
<!-- action&#45;43 -->
<g id="node26" class="node">
<title>action&#45;43</title>
<polygon fill="white" stroke="black" points="918,-767 882,-767 882,-731 918,-731 918,-767"/>
</g>
<!-- action&#45;43&#45;&#45;cluster&#45;9 -->
<g id="edge57" class="edge">
<title>action&#45;43&#45;&#45;cluster&#45;9</title>
<path fill="none" stroke="black" d="M918.32,-756.66C930.01,-761.84 944.91,-768.43 953.94,-772.43"/>
</g>
<!-- action&#45;44 -->
<g id="node27" class="node">
<title>action&#45;44</title>
<polygon fill="white" stroke="black" points="1044,-794 1008,-794 1008,-758 1044,-758 1044,-794"/>
</g>
<!-- cluster&#45;10 -->
<g id="node89" class="node">
<title>cluster&#45;10</title>
<polygon fill="black" stroke="black" stroke-width="0" points="1098,-758 1080,-758 1080,-740 1098,-740 1098,-758"/>
</g>
<!-- action&#45;44&#45;&#45;cluster&#45;10 -->
<g id="edge58" class="edge">
<title>action&#45;44&#45;&#45;cluster&#45;10</title>
<path fill="none" stroke="black" d="M1044.32,-768.34C1056.01,-763.16 1070.91,-756.57 1079.94,-752.57"/>
</g>
<!-- action&#45;47 -->
<g id="node28" class="node">
<title>action&#45;47</title>
<polygon fill="white" stroke="black" points="1044,-740 1008,-740 1008,-704 1044,-704 1044,-740"/>
</g>
<!-- action&#45;47&#45;&#45;cluster&#45;10 -->
<g id="edge59" class="edge">
<title>action&#45;47&#45;&#45;cluster&#45;10</title>
<path fill="none" stroke="black" d="M1044.32,-729.66C1056.01,-734.84 1070.91,-741.43 1079.94,-745.43"/>
</g>
<!-- action&#45;48 -->
<g id="node29" class="node">
<title>action&#45;48</title>
<polygon fill="white" stroke="black" points="1170,-767 1134,-767 1134,-731 1170,-731 1170,-767"/>
</g>
<!-- cluster&#45;11 -->
<g id="node90" class="node">
<title>cluster&#45;11</title>
<polygon fill="black" stroke="black" stroke-width="0" points="1224,-731 1206,-731 1206,-713 1224,-713 1224,-731"/>
</g>
<!-- action&#45;48&#45;&#45;cluster&#45;11 -->
<g id="edge60" class="edge">
<title>action&#45;48&#45;&#45;cluster&#45;11</title>
<path fill="none" stroke="black" d="M1170.32,-741.34C1182.01,-736.16 1196.91,-729.57 1205.94,-725.57"/>
</g>
<!-- action&#45;51 -->
<g id="node30" class="node">
<title>action&#45;51</title>
<polygon fill="white" stroke="black" points="1170,-713 1134,-713 1134,-677 1170,-677 1170,-713"/>
</g>
<!-- action&#45;51&#45;&#45;cluster&#45;11 -->
<g id="edge61" class="edge">
<title>action&#45;51&#45;&#45;cluster&#45;11</title>
<path fill="none" stroke="black" d="M1170.32,-702.66C1182.01,-707.84 1196.91,-714.43 1205.94,-718.43"/>
</g>
<!-- action&#45;52 -->
<g id="node31" class="node">
<title>action&#45;52</title>
<polygon fill="white" stroke="black" points="1296,-740 1260,-740 1260,-704 1296,-704 1296,-740"/>
</g>
<!-- cluster&#45;12 -->
<g id="node91" class="node">
<title>cluster&#45;12</title>
<polygon fill="black" stroke="black" stroke-width="0" points="1350,-704 1332,-704 1332,-686 1350,-686 1350,-704"/>
</g>
<!-- action&#45;52&#45;&#45;cluster&#45;12 -->
<g id="edge62" class="edge">
<title>action&#45;52&#45;&#45;cluster&#45;12</title>
<path fill="none" stroke="black" d="M1296.32,-714.34C1308.01,-709.16 1322.91,-702.57 1331.94,-698.57"/>
</g>
<!-- action&#45;55 -->
<g id="node32" class="node">
<title>action&#45;55</title>
<polygon fill="white" stroke="black" points="1296,-686 1260,-686 1260,-650 1296,-650 1296,-686"/>
</g>
<!-- action&#45;55&#45;&#45;cluster&#45;12 -->
<g id="edge63" class="edge">
<title>action&#45;55&#45;&#45;cluster&#45;12</title>
<path fill="none" stroke="black" d="M1296.32,-675.66C1308.01,-680.84 1322.91,-687.43 1331.94,-691.43"/>
</g>
<!-- action&#45;56 -->
<g id="node33" class="node">
<title>action&#45;56</title>
<polygon fill="white" stroke="black" points="1422,-713 1386,-713 1386,-677 1422,-677 1422,-713"/>
</g>
<!-- cluster&#45;14 -->
<g id="node93" class="node">
<title>cluster&#45;14</title>
<polygon fill="black" stroke="black" stroke-width="0" points="1476,-677 1458,-677 1458,-659 1476,-659 1476,-677"/>
</g>
<!-- action&#45;56&#45;&#45;cluster&#45;14 -->
<g id="edge66" class="edge">
<title>action&#45;56&#45;&#45;cluster&#45;14</title>
<path fill="none" stroke="black" d="M1422.32,-687.34C1434.01,-682.16 1448.91,-675.57 1457.94,-671.57"/>
</g>
<!-- action&#45;59 -->
<g id="node34" class="node">
<title>action&#45;59</title>
<polygon fill="white" stroke="black" points="2682,-500 2646,-500 2646,-464 2682,-464 2682,-500"/>
</g>
<!-- action&#45;59&#45;&#45;cluster&#45;13 -->
<g id="edge65" class="edge">
<title>action&#45;59&#45;&#45;cluster&#45;13</title>
<path fill="none" stroke="black" d="M2682.32,-483.42C2694.01,-484.38 2708.91,-485.6 2717.94,-486.34"/>
</g>
<!-- action&#45;60 -->
<g id="node35" class="node">
<title>action&#45;60</title>
<polygon fill="white" stroke="black" points="2808,-505 2772,-505 2772,-469 2808,-469 2808,-505"/>
</g>
<!-- cluster&#45;16 -->
<g id="node95" class="node">
<title>cluster&#45;16</title>
<polygon fill="black" stroke="black" stroke-width="0" points="2862,-444 2844,-444 2844,-426 2862,-426 2862,-444"/>
</g>
<!-- action&#45;60&#45;&#45;cluster&#45;16 -->
<g id="edge70" class="edge">
<title>action&#45;60&#45;&#45;cluster&#45;16</title>
<path fill="none" stroke="black" d="M2808.32,-472.24C2820.01,-462.27 2834.91,-449.57 2843.94,-441.88"/>
</g>
<!-- action&#45;63 -->
<g id="node36" class="node">
<title>action&#45;63</title>
<polygon fill="white" stroke="black" points="1422,-659 1386,-659 1386,-623 1422,-623 1422,-659"/>
</g>
<!-- action&#45;63&#45;&#45;cluster&#45;14 -->
<g id="edge67" class="edge">
<title>action&#45;63&#45;&#45;cluster&#45;14</title>
<path fill="none" stroke="black" d="M1422.32,-648.66C1434.01,-653.84 1448.91,-660.43 1457.94,-664.43"/>
</g>
<!-- action&#45;64 -->
<g id="node37" class="node">
<title>action&#45;64</title>
<polygon fill="white" stroke="black" points="1548,-686 1512,-686 1512,-650 1548,-650 1548,-686"/>
</g>
<!-- cluster&#45;15 -->
<g id="node94" class="node">
<title>cluster&#45;15</title>
<polygon fill="black" stroke="black" stroke-width="0" points="1602,-650 1584,-650 1584,-632 1602,-632 1602,-650"/>
</g>
<!-- action&#45;64&#45;&#45;cluster&#45;15 -->
<g id="edge68" class="edge">
<title>action&#45;64&#45;&#45;cluster&#45;15</title>
<path fill="none" stroke="black" d="M1548.32,-660.34C1560.01,-655.16 1574.91,-648.57 1583.94,-644.57"/>
</g>
<!-- action&#45;67 -->
<g id="node38" class="node">
<title>action&#45;67</title>
<polygon fill="white" stroke="black" points="1548,-632 1512,-632 1512,-596 1548,-596 1548,-632"/>
</g>
<!-- action&#45;67&#45;&#45;cluster&#45;15 -->
<g id="edge69" class="edge">
<title>action&#45;67&#45;&#45;cluster&#45;15</title>
<path fill="none" stroke="black" d="M1548.32,-621.66C1560.01,-626.84 1574.91,-633.43 1583.94,-637.43"/>
</g>
<!-- action&#45;68 -->
<g id="node39" class="node">
<title>action&#45;68</title>
<polygon fill="white" stroke="black" points="1674,-659 1638,-659 1638,-623 1674,-623 1674,-659"/>
</g>
<!-- cluster&#45;18 -->
<g id="node97" class="node">
<title>cluster&#45;18</title>
<polygon fill="black" stroke="black" stroke-width="0" points="1728,-623 1710,-623 1710,-605 1728,-605 1728,-623"/>
</g>
<!-- action&#45;68&#45;&#45;cluster&#45;18 -->
<g id="edge74" class="edge">
<title>action&#45;68&#45;&#45;cluster&#45;18</title>
<path fill="none" stroke="black" d="M1674.32,-633.34C1686.01,-628.16 1700.91,-621.57 1709.94,-617.57"/>
</g>
<!-- action&#45;71 -->
<g id="node40" class="node">
<title>action&#45;71</title>
<polygon fill="white" stroke="black" points="2808,-451 2772,-451 2772,-415 2808,-415 2808,-451"/>
</g>
<!-- action&#45;71&#45;&#45;cluster&#45;16 -->
<g id="edge71" class="edge">
<title>action&#45;71&#45;&#45;cluster&#45;16</title>
<path fill="none" stroke="black" d="M2808.32,-433.57C2820.01,-433.95 2834.91,-434.44 2843.94,-434.74"/>
</g>
<!-- action&#45;72 -->
<g id="node41" class="node">
<title>action&#45;72</title>
<polygon fill="white" stroke="black" points="2934,-453 2898,-453 2898,-417 2934,-417 2934,-453"/>
</g>
<!-- cluster&#45;17 -->
<g id="node96" class="node">
<title>cluster&#45;17</title>
<polygon fill="black" stroke="black" stroke-width="0" points="2988,-391 2970,-391 2970,-373 2988,-373 2988,-391"/>
</g>
<!-- action&#45;72&#45;&#45;cluster&#45;17 -->
<g id="edge72" class="edge">
<title>action&#45;72&#45;&#45;cluster&#45;17</title>
<path fill="none" stroke="black" d="M2934.32,-419.95C2946.01,-409.79 2960.91,-396.85 2969.94,-389.01"/>
</g>
<!-- action&#45;75 -->
<g id="node42" class="node">
<title>action&#45;75</title>
<polygon fill="white" stroke="black" points="2934,-399 2898,-399 2898,-363 2934,-363 2934,-399"/>
</g>
<!-- action&#45;75&#45;&#45;cluster&#45;17 -->
<g id="edge73" class="edge">
<title>action&#45;75&#45;&#45;cluster&#45;17</title>
<path fill="none" stroke="black" d="M2934.32,-381.28C2946.01,-381.48 2960.91,-381.72 2969.94,-381.87"/>
</g>
<!-- action&#45;76 -->
<g id="node43" class="node">
<title>action&#45;76</title>
<polygon fill="white" stroke="black" points="3060,-400 3024,-400 3024,-364 3060,-364 3060,-400"/>
</g>
<!-- cluster&#45;20 -->
<g id="node99" class="node">
<title>cluster&#45;20</title>
<polygon fill="black" stroke="black" stroke-width="0" points="3114,-338 3096,-338 3096,-320 3114,-320 3114,-338"/>
</g>
<!-- action&#45;76&#45;&#45;cluster&#45;20 -->
<g id="edge78" class="edge">
<title>action&#45;76&#45;&#45;cluster&#45;20</title>
<path fill="none" stroke="black" d="M3060.32,-366.95C3072.01,-356.79 3086.91,-343.85 3095.94,-336.01"/>
</g>
<!-- action&#45;79 -->
<g id="node44" class="node">
<title>action&#45;79</title>
<polygon fill="white" stroke="black" points="1674,-605 1638,-605 1638,-569 1674,-569 1674,-605"/>
</g>
<!-- action&#45;79&#45;&#45;cluster&#45;18 -->
<g id="edge75" class="edge">
<title>action&#45;79&#45;&#45;cluster&#45;18</title>
<path fill="none" stroke="black" d="M1674.32,-594.66C1686.01,-599.84 1700.91,-606.43 1709.94,-610.43"/>
</g>
<!-- action&#45;80 -->
<g id="node45" class="node">
<title>action&#45;80</title>
<polygon fill="white" stroke="black" points="1800,-632 1764,-632 1764,-596 1800,-596 1800,-632"/>
</g>
<!-- cluster&#45;19 -->
<g id="node98" class="node">
<title>cluster&#45;19</title>
<polygon fill="black" stroke="black" stroke-width="0" points="1854,-596 1836,-596 1836,-578 1854,-578 1854,-596"/>
</g>
<!-- action&#45;80&#45;&#45;cluster&#45;19 -->
<g id="edge76" class="edge">
<title>action&#45;80&#45;&#45;cluster&#45;19</title>
<path fill="none" stroke="black" d="M1800.32,-606.34C1812.01,-601.16 1826.91,-594.57 1835.94,-590.57"/>
</g>
<!-- action&#45;83 -->
<g id="node46" class="node">
<title>action&#45;83</title>
<polygon fill="white" stroke="black" points="1800,-578 1764,-578 1764,-542 1800,-542 1800,-578"/>
</g>
<!-- action&#45;83&#45;&#45;cluster&#45;19 -->
<g id="edge77" class="edge">
<title>action&#45;83&#45;&#45;cluster&#45;19</title>
<path fill="none" stroke="black" d="M1800.32,-567.66C1812.01,-572.84 1826.91,-579.43 1835.94,-583.43"/>
</g>
<!-- action&#45;84 -->
<g id="node47" class="node">
<title>action&#45;84</title>
<polygon fill="white" stroke="black" points="1926,-605 1890,-605 1890,-569 1926,-569 1926,-605"/>
</g>
<!-- cluster&#45;21 -->
<g id="node100" class="node">
<title>cluster&#45;21</title>
<polygon fill="black" stroke="black" stroke-width="0" points="1980,-569 1962,-569 1962,-551 1980,-551 1980,-569"/>
</g>
<!-- action&#45;84&#45;&#45;cluster&#45;21 -->
<g id="edge80" class="edge">
<title>action&#45;84&#45;&#45;cluster&#45;21</title>
<path fill="none" stroke="black" d="M1926.32,-579.34C1938.01,-574.16 1952.91,-567.57 1961.94,-563.57"/>
</g>
<!-- action&#45;87 -->
<g id="node48" class="node">
<title>action&#45;87</title>
<polygon fill="white" stroke="black" points="3060,-346 3024,-346 3024,-310 3060,-310 3060,-346"/>
</g>
<!-- action&#45;87&#45;&#45;cluster&#45;20 -->
<g id="edge79" class="edge">
<title>action&#45;87&#45;&#45;cluster&#45;20</title>
<path fill="none" stroke="black" d="M3060.32,-328.28C3072.01,-328.48 3086.91,-328.72 3095.94,-328.87"/>
</g>
<!-- action&#45;88 -->
<g id="node49" class="node">
<title>action&#45;88</title>
<polygon fill="white" stroke="black" points="3186,-347 3150,-347 3150,-311 3186,-311 3186,-347"/>
</g>
<!-- cluster&#45;25 -->
<g id="node104" class="node">
<title>cluster&#45;25</title>
<polygon fill="black" stroke="black" stroke-width="0" points="3240,-297 3222,-297 3222,-279 3240,-279 3240,-297"/>
</g>
<!-- action&#45;88&#45;&#45;cluster&#45;25 -->
<g id="edge88" class="edge">
<title>action&#45;88&#45;&#45;cluster&#45;25</title>
<path fill="none" stroke="black" d="M3186.32,-317.36C3198.01,-309.5 3212.91,-299.49 3221.94,-293.42"/>
</g>
<!-- action&#45;91 -->
<g id="node50" class="node">
<title>action&#45;91</title>
<polygon fill="white" stroke="black" points="1926,-551 1890,-551 1890,-515 1926,-515 1926,-551"/>
</g>
<!-- action&#45;91&#45;&#45;cluster&#45;21 -->
<g id="edge81" class="edge">
<title>action&#45;91&#45;&#45;cluster&#45;21</title>
<path fill="none" stroke="black" d="M1926.32,-540.66C1938.01,-545.84 1952.91,-552.43 1961.94,-556.43"/>
</g>
<!-- action&#45;92 -->
<g id="node51" class="node">
<title>action&#45;92</title>
<polygon fill="white" stroke="black" points="2052,-578 2016,-578 2016,-542 2052,-542 2052,-578"/>
</g>
<!-- cluster&#45;22 -->
<g id="node101" class="node">
<title>cluster&#45;22</title>
<polygon fill="black" stroke="black" stroke-width="0" points="2106,-542 2088,-542 2088,-524 2106,-524 2106,-542"/>
</g>
<!-- action&#45;92&#45;&#45;cluster&#45;22 -->
<g id="edge82" class="edge">
<title>action&#45;92&#45;&#45;cluster&#45;22</title>
<path fill="none" stroke="black" d="M2052.32,-552.34C2064.01,-547.16 2078.91,-540.57 2087.94,-536.57"/>
</g>
<!-- action&#45;95 -->
<g id="node52" class="node">
<title>action&#45;95</title>
<polygon fill="white" stroke="black" points="2052,-524 2016,-524 2016,-488 2052,-488 2052,-524"/>
</g>
<!-- action&#45;95&#45;&#45;cluster&#45;22 -->
<g id="edge83" class="edge">
<title>action&#45;95&#45;&#45;cluster&#45;22</title>
<path fill="none" stroke="black" d="M2052.32,-513.66C2064.01,-518.84 2078.91,-525.43 2087.94,-529.43"/>
</g>
<!-- action&#45;96 -->
<g id="node53" class="node">
<title>action&#45;96</title>
<polygon fill="white" stroke="black" points="2178,-551 2142,-551 2142,-515 2178,-515 2178,-551"/>
</g>
<!-- cluster&#45;23 -->
<g id="node102" class="node">
<title>cluster&#45;23</title>
<polygon fill="black" stroke="black" stroke-width="0" points="2232,-515 2214,-515 2214,-497 2232,-497 2232,-515"/>
</g>
<!-- action&#45;96&#45;&#45;cluster&#45;23 -->
<g id="edge84" class="edge">
<title>action&#45;96&#45;&#45;cluster&#45;23</title>
<path fill="none" stroke="black" d="M2178.32,-525.34C2190.01,-520.16 2204.91,-513.57 2213.94,-509.57"/>
</g>
<!-- action&#45;99 -->
<g id="node54" class="node">
<title>action&#45;99</title>
<polygon fill="white" stroke="black" points="2178,-497 2142,-497 2142,-461 2178,-461 2178,-497"/>
</g>
<!-- action&#45;99&#45;&#45;cluster&#45;23 -->
<g id="edge85" class="edge">
<title>action&#45;99&#45;&#45;cluster&#45;23</title>
<path fill="none" stroke="black" d="M2178.32,-486.66C2190.01,-491.84 2204.91,-498.43 2213.94,-502.43"/>
</g>
<!-- action&#45;100 -->
<g id="node55" class="node">
<title>action&#45;100</title>
<polygon fill="white" stroke="black" points="2304,-524 2268,-524 2268,-488 2304,-488 2304,-524"/>
</g>
<!-- cluster&#45;24 -->
<g id="node103" class="node">
<title>cluster&#45;24</title>
<polygon fill="black" stroke="black" stroke-width="0" points="2358,-488 2340,-488 2340,-470 2358,-470 2358,-488"/>
</g>
<!-- action&#45;100&#45;&#45;cluster&#45;24 -->
<g id="edge86" class="edge">
<title>action&#45;100&#45;&#45;cluster&#45;24</title>
<path fill="none" stroke="black" d="M2304.32,-498.34C2316.01,-493.16 2330.91,-486.57 2339.94,-482.57"/>
</g>
<!-- action&#45;103 -->
<g id="node56" class="node">
<title>action&#45;103</title>
<polygon fill="white" stroke="black" points="2304,-470 2268,-470 2268,-434 2304,-434 2304,-470"/>
</g>
<!-- action&#45;103&#45;&#45;cluster&#45;24 -->
<g id="edge87" class="edge">
<title>action&#45;103&#45;&#45;cluster&#45;24</title>
<path fill="none" stroke="black" d="M2304.32,-459.66C2316.01,-464.84 2330.91,-471.43 2339.94,-475.43"/>
</g>
<!-- action&#45;104 -->
<g id="node57" class="node">
<title>action&#45;104</title>
<polygon fill="white" stroke="black" points="2430,-497 2394,-497 2394,-461 2430,-461 2430,-497"/>
</g>
<!-- cluster&#45;27 -->
<g id="node106" class="node">
<title>cluster&#45;27</title>
<polygon fill="black" stroke="black" stroke-width="0" points="2484,-447 2466,-447 2466,-429 2484,-429 2484,-447"/>
</g>
<!-- action&#45;104&#45;&#45;cluster&#45;27 -->
<g id="edge92" class="edge">
<title>action&#45;104&#45;&#45;cluster&#45;27</title>
<path fill="none" stroke="black" d="M2430.32,-467.36C2442.01,-459.5 2456.91,-449.49 2465.94,-443.42"/>
</g>
<!-- action&#45;107 -->
<g id="node58" class="node">
<title>action&#45;107</title>
<polygon fill="white" stroke="black" points="3186,-293 3150,-293 3150,-257 3186,-257 3186,-293"/>
</g>
<!-- action&#45;107&#45;&#45;cluster&#45;25 -->
<g id="edge89" class="edge">
<title>action&#45;107&#45;&#45;cluster&#45;25</title>
<path fill="none" stroke="black" d="M3186.32,-278.69C3198.01,-281.18 3212.91,-284.36 3221.94,-286.28"/>
</g>
<!-- action&#45;108 -->
<g id="node59" class="node">
<title>action&#45;108</title>
<polygon fill="white" stroke="black" points="3312,-306 3276,-306 3276,-270 3312,-270 3312,-306"/>
</g>
<!-- cluster&#45;26 -->
<g id="node105" class="node">
<title>cluster&#45;26</title>
<polygon fill="black" stroke="black" stroke-width="0" points="3366,-243 3348,-243 3348,-225 3366,-225 3366,-243"/>
</g>
<!-- action&#45;108&#45;&#45;cluster&#45;26 -->
<g id="edge90" class="edge">
<title>action&#45;108&#45;&#45;cluster&#45;26</title>
<path fill="none" stroke="black" d="M3312.32,-272.67C3324.01,-262.32 3338.91,-249.13 3347.94,-241.14"/>
</g>
<!-- action&#45;111 -->
<g id="node60" class="node">
<title>action&#45;111</title>
<polygon fill="white" stroke="black" points="3312,-252 3276,-252 3276,-216 3312,-216 3312,-252"/>
</g>
<!-- action&#45;111&#45;&#45;cluster&#45;26 -->
<g id="edge91" class="edge">
<title>action&#45;111&#45;&#45;cluster&#45;26</title>
<path fill="none" stroke="black" d="M3312.32,-234C3324.01,-234 3338.91,-234 3347.94,-234"/>
</g>
<!-- action&#45;115 -->
<g id="node61" class="node">
<title>action&#45;115</title>
<polygon fill="white" stroke="black" points="2430,-443 2394,-443 2394,-407 2430,-407 2430,-443"/>
</g>
<!-- action&#45;115&#45;&#45;cluster&#45;27 -->
<g id="edge93" class="edge">
<title>action&#45;115&#45;&#45;cluster&#45;27</title>
<path fill="none" stroke="black" d="M2430.32,-428.69C2442.01,-431.18 2456.91,-434.36 2465.94,-436.28"/>
</g>
<!-- action&#45;116 -->
<g id="node62" class="node">
<title>action&#45;116</title>
<polygon fill="white" stroke="black" points="2556,-456 2520,-456 2520,-420 2556,-420 2556,-456"/>
</g>
<!-- cluster&#45;28 -->
<g id="node107" class="node">
<title>cluster&#45;28</title>
<polygon fill="black" stroke="black" stroke-width="0" points="2610,-393 2592,-393 2592,-375 2610,-375 2610,-393"/>
</g>
<!-- action&#45;116&#45;&#45;cluster&#45;28 -->
<g id="edge94" class="edge">
<title>action&#45;116&#45;&#45;cluster&#45;28</title>
<path fill="none" stroke="black" d="M2556.32,-422.67C2568.01,-412.32 2582.91,-399.13 2591.94,-391.14"/>
</g>
<!-- action&#45;119 -->
<g id="node63" class="node">
<title>action&#45;119</title>
<polygon fill="white" stroke="black" points="2556,-402 2520,-402 2520,-366 2556,-366 2556,-402"/>
</g>
<!-- action&#45;119&#45;&#45;cluster&#45;28 -->
<g id="edge95" class="edge">
<title>action&#45;119&#45;&#45;cluster&#45;28</title>
<path fill="none" stroke="black" d="M2556.32,-384C2568.01,-384 2582.91,-384 2591.94,-384"/>
</g>
<!-- action&#45;120 -->
<g id="node64" class="node">
<title>action&#45;120</title>
<polygon fill="white" stroke="black" points="2682,-402 2646,-402 2646,-366 2682,-366 2682,-402"/>
</g>
<!-- cluster&#45;29 -->
<g id="node108" class="node">
<title>cluster&#45;29</title>
<polygon fill="black" stroke="black" stroke-width="0" points="2736,-339 2718,-339 2718,-321 2736,-321 2736,-339"/>
</g>
<!-- action&#45;120&#45;&#45;cluster&#45;29 -->
<g id="edge96" class="edge">
<title>action&#45;120&#45;&#45;cluster&#45;29</title>
<path fill="none" stroke="black" d="M2682.32,-368.67C2694.01,-358.32 2708.91,-345.13 2717.94,-337.14"/>
</g>
<!-- action&#45;123 -->
<g id="node65" class="node">
<title>action&#45;123</title>
<polygon fill="white" stroke="black" points="2682,-348 2646,-348 2646,-312 2682,-312 2682,-348"/>
</g>
<!-- action&#45;123&#45;&#45;cluster&#45;29 -->
<g id="edge97" class="edge">
<title>action&#45;123&#45;&#45;cluster&#45;29</title>
<path fill="none" stroke="black" d="M2682.32,-330C2694.01,-330 2708.91,-330 2717.94,-330"/>
</g>
<!-- action&#45;124 -->
<g id="node66" class="node">
<title>action&#45;124</title>
<polygon fill="white" stroke="black" points="2808,-348 2772,-348 2772,-312 2808,-312 2808,-348"/>
</g>
<!-- cluster&#45;30 -->
<g id="node109" class="node">
<title>cluster&#45;30</title>
<polygon fill="black" stroke="black" stroke-width="0" points="2862,-285 2844,-285 2844,-267 2862,-267 2862,-285"/>
</g>
<!-- action&#45;124&#45;&#45;cluster&#45;30 -->
<g id="edge98" class="edge">
<title>action&#45;124&#45;&#45;cluster&#45;30</title>
<path fill="none" stroke="black" d="M2808.32,-314.67C2820.01,-304.32 2834.91,-291.13 2843.94,-283.14"/>
</g>
<!-- action&#45;127 -->
<g id="node67" class="node">
<title>action&#45;127</title>
<polygon fill="white" stroke="black" points="2808,-294 2772,-294 2772,-258 2808,-258 2808,-294"/>
</g>
<!-- action&#45;127&#45;&#45;cluster&#45;30 -->
<g id="edge99" class="edge">
<title>action&#45;127&#45;&#45;cluster&#45;30</title>
<path fill="none" stroke="black" d="M2808.32,-276C2820.01,-276 2834.91,-276 2843.94,-276"/>
</g>
<!-- action&#45;128 -->
<g id="node68" class="node">
<title>action&#45;128</title>
<polygon fill="white" stroke="black" points="2934,-294 2898,-294 2898,-258 2934,-258 2934,-294"/>
</g>
<!-- cluster&#45;31 -->
<g id="node110" class="node">
<title>cluster&#45;31</title>
<polygon fill="black" stroke="black" stroke-width="0" points="2988,-231 2970,-231 2970,-213 2988,-213 2988,-231"/>
</g>
<!-- action&#45;128&#45;&#45;cluster&#45;31 -->
<g id="edge100" class="edge">
<title>action&#45;128&#45;&#45;cluster&#45;31</title>
<path fill="none" stroke="black" d="M2934.32,-260.67C2946.01,-250.32 2960.91,-237.13 2969.94,-229.14"/>
</g>
<!-- action&#45;131 -->
<g id="node69" class="node">
<title>action&#45;131</title>
<polygon fill="white" stroke="black" points="2934,-240 2898,-240 2898,-204 2934,-204 2934,-240"/>
</g>
<!-- action&#45;131&#45;&#45;cluster&#45;31 -->
<g id="edge101" class="edge">
<title>action&#45;131&#45;&#45;cluster&#45;31</title>
<path fill="none" stroke="black" d="M2934.32,-222C2946.01,-222 2960.91,-222 2969.94,-222"/>
</g>
<!-- action&#45;132 -->
<g id="node70" class="node">
<title>action&#45;132</title>
<polygon fill="white" stroke="black" points="3060,-240 3024,-240 3024,-204 3060,-204 3060,-240"/>
</g>
<!-- cluster&#45;33 -->
<g id="node112" class="node">
<title>cluster&#45;33</title>
<polygon fill="black" stroke="black" stroke-width="0" points="3114,-230 3096,-230 3096,-212 3114,-212 3114,-230"/>
</g>
<!-- action&#45;132&#45;&#45;cluster&#45;33 -->
<g id="edge104" class="edge">
<title>action&#45;132&#45;&#45;cluster&#45;33</title>
<path fill="none" stroke="black" d="M3060.32,-221.72C3072.01,-221.52 3086.91,-221.28 3095.94,-221.13"/>
</g>
<!-- action&#45;137 -->
<g id="node71" class="node">
<title>action&#45;137</title>
<polygon fill="white" stroke="black" points="3186,-50 3150,-50 3150,-14 3186,-14 3186,-50"/>
</g>
<!-- action&#45;137&#45;&#45;cluster&#45;32 -->
<g id="edge103" class="edge">
<title>action&#45;137&#45;&#45;cluster&#45;32</title>
<path fill="none" stroke="black" d="M3186.32,-43.36C3198.01,-51.02 3212.91,-60.79 3221.94,-66.71"/>
</g>
<!-- action&#45;138 -->
<g id="node72" class="node">
<title>action&#45;138</title>
<polygon fill="#c9211e" stroke="black" points="3312,-90 3276,-90 3276,-54 3312,-54 3312,-90"/>
</g>
<!-- cluster&#45;36 -->
<g id="node115" class="node">
<title>cluster&#45;36</title>
<polygon fill="black" stroke="black" stroke-width="0" points="3366,-81 3348,-81 3348,-63 3366,-63 3366,-81"/>
</g>
<!-- action&#45;138&#45;&#45;cluster&#45;36 -->
<g id="edge110" class="edge">
<title>action&#45;138&#45;&#45;cluster&#45;36</title>
<path fill="none" stroke="black" d="M3312.32,-72C3324.01,-72 3338.91,-72 3347.94,-72"/>
</g>
<!-- action&#45;141 -->
<g id="node73" class="node">
<title>action&#45;141</title>
<polygon fill="white" stroke="black" points="3060,-186 3024,-186 3024,-150 3060,-150 3060,-186"/>
</g>
<!-- action&#45;141&#45;&#45;cluster&#45;33 -->
<g id="edge105" class="edge">
<title>action&#45;141&#45;&#45;cluster&#45;33</title>
<path fill="none" stroke="black" d="M3060.32,-183.05C3072.01,-193.21 3086.91,-206.15 3095.94,-213.99"/>
</g>
<!-- action&#45;142 -->
<g id="node74" class="node">
<title>action&#45;142</title>
<polygon fill="white" stroke="black" points="3186,-239 3150,-239 3150,-203 3186,-203 3186,-239"/>
</g>
<!-- cluster&#45;34 -->
<g id="node113" class="node">
<title>cluster&#45;34</title>
<polygon fill="black" stroke="black" stroke-width="0" points="3240,-189 3222,-189 3222,-171 3240,-171 3240,-189"/>
</g>
<!-- action&#45;142&#45;&#45;cluster&#45;34 -->
<g id="edge106" class="edge">
<title>action&#45;142&#45;&#45;cluster&#45;34</title>
<path fill="none" stroke="black" d="M3186.32,-209.36C3198.01,-201.5 3212.91,-191.49 3221.94,-185.42"/>
</g>
<!-- action&#45;145 -->
<g id="node75" class="node">
<title>action&#45;145</title>
<polygon fill="white" stroke="black" points="3186,-185 3150,-185 3150,-149 3186,-149 3186,-185"/>
</g>
<!-- action&#45;145&#45;&#45;cluster&#45;34 -->
<g id="edge107" class="edge">
<title>action&#45;145&#45;&#45;cluster&#45;34</title>
<path fill="none" stroke="black" d="M3186.32,-170.69C3198.01,-173.18 3212.91,-176.36 3221.94,-178.28"/>
</g>
<!-- action&#45;146 -->
<g id="node76" class="node">
<title>action&#45;146</title>
<polygon fill="white" stroke="black" points="3312,-198 3276,-198 3276,-162 3312,-162 3312,-198"/>
</g>
<!-- cluster&#45;35 -->
<g id="node114" class="node">
<title>cluster&#45;35</title>
<polygon fill="black" stroke="black" stroke-width="0" points="3366,-135 3348,-135 3348,-117 3366,-117 3366,-135"/>
</g>
<!-- action&#45;146&#45;&#45;cluster&#45;35 -->
<g id="edge108" class="edge">
<title>action&#45;146&#45;&#45;cluster&#45;35</title>
<path fill="none" stroke="black" d="M3312.32,-164.67C3324.01,-154.32 3338.91,-141.13 3347.94,-133.14"/>
</g>
<!-- action&#45;149 -->
<g id="node77" class="node">
<title>action&#45;149</title>
<polygon fill="white" stroke="black" points="3312,-144 3276,-144 3276,-108 3312,-108 3312,-144"/>
</g>
<!-- action&#45;149&#45;&#45;cluster&#45;35 -->
<g id="edge109" class="edge">
<title>action&#45;149&#45;&#45;cluster&#45;35</title>
<path fill="none" stroke="black" d="M3312.32,-126C3324.01,-126 3338.91,-126 3347.94,-126"/>
</g>
<!-- action&#45;153 -->
<g id="node78" class="node">
<title>action&#45;153</title>
<polygon fill="#00008b" stroke="black" points="3312,-36 3276,-36 3276,0 3312,0 3312,-36"/>
</g>
<!-- action&#45;153&#45;&#45;cluster&#45;36 -->
<g id="edge111" class="edge">
<title>action&#45;153&#45;&#45;cluster&#45;36</title>
<path fill="none" stroke="black" d="M3312.32,-33.33C3324.01,-43.68 3338.91,-56.87 3347.94,-64.86"/>
</g>
<!-- cluster&#45;0&#45;&#45;action&#45;4 -->
<g id="edge1" class="edge">
<title>cluster&#45;0&#45;&#45;action&#45;4</title>
<path fill="none" stroke="black" d="M90.23,-965C99.33,-965 114.26,-965 125.92,-965"/>
</g>
<!-- cluster&#45;1&#45;&#45;action&#45;8 -->
<g id="edge2" class="edge">
<title>cluster&#45;1&#45;&#45;action&#45;8</title>
<path fill="none" stroke="black" d="M216.23,-938C225.33,-938 240.26,-938 251.92,-938"/>
</g>
<!-- cluster&#45;2&#45;&#45;action&#45;14 -->
<g id="edge3" class="edge">
<title>cluster&#45;2&#45;&#45;action&#45;14</title>
<path fill="none" stroke="black" d="M2484.23,-580C2493.33,-580 2508.26,-580 2519.92,-580"/>
</g>
<!-- cluster&#45;3&#45;&#45;action&#45;18 -->
<g id="edge4" class="edge">
<title>cluster&#45;3&#45;&#45;action&#45;18</title>
<path fill="none" stroke="black" d="M2610.23,-536C2619.33,-536 2634.26,-536 2645.92,-536"/>
</g>
<!-- cluster&#45;4&#45;&#45;action&#45;22 -->
<g id="edge5" class="edge">
<title>cluster&#45;4&#45;&#45;action&#45;22</title>
<path fill="none" stroke="black" d="M342.23,-911C351.33,-911 366.26,-911 377.92,-911"/>
</g>
<!-- cluster&#45;5&#45;&#45;action&#45;26 -->
<g id="edge6" class="edge">
<title>cluster&#45;5&#45;&#45;action&#45;26</title>
<path fill="none" stroke="black" d="M468.23,-884C477.33,-884 492.26,-884 503.92,-884"/>
</g>
<!-- cluster&#45;6&#45;&#45;action&#45;32 -->
<g id="edge7" class="edge">
<title>cluster&#45;6&#45;&#45;action&#45;32</title>
<path fill="none" stroke="black" d="M594.23,-857C603.33,-857 618.26,-857 629.92,-857"/>
</g>
<!-- cluster&#45;7&#45;&#45;action&#45;36 -->
<g id="edge8" class="edge">
<title>cluster&#45;7&#45;&#45;action&#45;36</title>
<path fill="none" stroke="black" d="M720.23,-830C729.33,-830 744.26,-830 755.92,-830"/>
</g>
<!-- cluster&#45;8&#45;&#45;action&#45;40 -->
<g id="edge9" class="edge">
<title>cluster&#45;8&#45;&#45;action&#45;40</title>
<path fill="none" stroke="black" d="M846.23,-803C855.33,-803 870.26,-803 881.92,-803"/>
</g>
<!-- cluster&#45;9&#45;&#45;action&#45;44 -->
<g id="edge10" class="edge">
<title>cluster&#45;9&#45;&#45;action&#45;44</title>
<path fill="none" stroke="black" d="M972.23,-776C981.33,-776 996.26,-776 1007.92,-776"/>
</g>
<!-- cluster&#45;10&#45;&#45;action&#45;48 -->
<g id="edge11" class="edge">
<title>cluster&#45;10&#45;&#45;action&#45;48</title>
<path fill="none" stroke="black" d="M1098.23,-749C1107.33,-749 1122.26,-749 1133.92,-749"/>
</g>
<!-- cluster&#45;11&#45;&#45;action&#45;52 -->
<g id="edge12" class="edge">
<title>cluster&#45;11&#45;&#45;action&#45;52</title>
<path fill="none" stroke="black" d="M1224.23,-722C1233.33,-722 1248.26,-722 1259.92,-722"/>
</g>
<!-- cluster&#45;12&#45;&#45;action&#45;56 -->
<g id="edge13" class="edge">
<title>cluster&#45;12&#45;&#45;action&#45;56</title>
<path fill="none" stroke="black" d="M1350.23,-695C1359.33,-695 1374.26,-695 1385.92,-695"/>
</g>
<!-- cluster&#45;13&#45;&#45;action&#45;60 -->
<g id="edge14" class="edge">
<title>cluster&#45;13&#45;&#45;action&#45;60</title>
<path fill="none" stroke="black" d="M2736.23,-487C2745.33,-487 2760.26,-487 2771.92,-487"/>
</g>
<!-- cluster&#45;14&#45;&#45;action&#45;64 -->
<g id="edge15" class="edge">
<title>cluster&#45;14&#45;&#45;action&#45;64</title>
<path fill="none" stroke="black" d="M1476.23,-668C1485.33,-668 1500.26,-668 1511.92,-668"/>
</g>
<!-- cluster&#45;15&#45;&#45;action&#45;68 -->
<g id="edge16" class="edge">
<title>cluster&#45;15&#45;&#45;action&#45;68</title>
<path fill="none" stroke="black" d="M1602.23,-641C1611.33,-641 1626.26,-641 1637.92,-641"/>
</g>
<!-- cluster&#45;16&#45;&#45;action&#45;72 -->
<g id="edge17" class="edge">
<title>cluster&#45;16&#45;&#45;action&#45;72</title>
<path fill="none" stroke="black" d="M2862.23,-435C2871.33,-435 2886.26,-435 2897.92,-435"/>
</g>
<!-- cluster&#45;17&#45;&#45;action&#45;76 -->
<g id="edge18" class="edge">
<title>cluster&#45;17&#45;&#45;action&#45;76</title>
<path fill="none" stroke="black" d="M2988.23,-382C2997.33,-382 3012.26,-382 3023.92,-382"/>
</g>
<!-- cluster&#45;18&#45;&#45;action&#45;80 -->
<g id="edge19" class="edge">
<title>cluster&#45;18&#45;&#45;action&#45;80</title>
<path fill="none" stroke="black" d="M1728.23,-614C1737.33,-614 1752.26,-614 1763.92,-614"/>
</g>
<!-- cluster&#45;19&#45;&#45;action&#45;84 -->
<g id="edge20" class="edge">
<title>cluster&#45;19&#45;&#45;action&#45;84</title>
<path fill="none" stroke="black" d="M1854.23,-587C1863.33,-587 1878.26,-587 1889.92,-587"/>
</g>
<!-- cluster&#45;20&#45;&#45;action&#45;88 -->
<g id="edge21" class="edge">
<title>cluster&#45;20&#45;&#45;action&#45;88</title>
<path fill="none" stroke="black" d="M3114.23,-329C3123.33,-329 3138.26,-329 3149.92,-329"/>
</g>
<!-- cluster&#45;21&#45;&#45;action&#45;92 -->
<g id="edge22" class="edge">
<title>cluster&#45;21&#45;&#45;action&#45;92</title>
<path fill="none" stroke="black" d="M1980.23,-560C1989.33,-560 2004.26,-560 2015.92,-560"/>
</g>
<!-- cluster&#45;22&#45;&#45;action&#45;96 -->
<g id="edge23" class="edge">
<title>cluster&#45;22&#45;&#45;action&#45;96</title>
<path fill="none" stroke="black" d="M2106.23,-533C2115.33,-533 2130.26,-533 2141.92,-533"/>
</g>
<!-- cluster&#45;23&#45;&#45;action&#45;100 -->
<g id="edge24" class="edge">
<title>cluster&#45;23&#45;&#45;action&#45;100</title>
<path fill="none" stroke="black" d="M2232.23,-506C2241.33,-506 2256.26,-506 2267.92,-506"/>
</g>
<!-- cluster&#45;24&#45;&#45;action&#45;104 -->
<g id="edge25" class="edge">
<title>cluster&#45;24&#45;&#45;action&#45;104</title>
<path fill="none" stroke="black" d="M2358.23,-479C2367.33,-479 2382.26,-479 2393.92,-479"/>
</g>
<!-- cluster&#45;25&#45;&#45;action&#45;108 -->
<g id="edge26" class="edge">
<title>cluster&#45;25&#45;&#45;action&#45;108</title>
<path fill="none" stroke="black" d="M3240.23,-288C3249.33,-288 3264.26,-288 3275.92,-288"/>
</g>
<!-- cluster&#45;26&#45;&#45;action&#45;112 -->
<g id="edge27" class="edge">
<title>cluster&#45;26&#45;&#45;action&#45;112</title>
<path fill="none" stroke="black" d="M3366.23,-234C3375.33,-234 3390.26,-234 3401.92,-234"/>
</g>
<!-- cluster&#45;27&#45;&#45;action&#45;116 -->
<g id="edge28" class="edge">
<title>cluster&#45;27&#45;&#45;action&#45;116</title>
<path fill="none" stroke="black" d="M2484.23,-438C2493.33,-438 2508.26,-438 2519.92,-438"/>
</g>
<!-- cluster&#45;28&#45;&#45;action&#45;120 -->
<g id="edge29" class="edge">
<title>cluster&#45;28&#45;&#45;action&#45;120</title>
<path fill="none" stroke="black" d="M2610.23,-384C2619.33,-384 2634.26,-384 2645.92,-384"/>
</g>
<!-- cluster&#45;29&#45;&#45;action&#45;124 -->
<g id="edge30" class="edge">
<title>cluster&#45;29&#45;&#45;action&#45;124</title>
<path fill="none" stroke="black" d="M2736.23,-330C2745.33,-330 2760.26,-330 2771.92,-330"/>
</g>
<!-- cluster&#45;30&#45;&#45;action&#45;128 -->
<g id="edge31" class="edge">
<title>cluster&#45;30&#45;&#45;action&#45;128</title>
<path fill="none" stroke="black" d="M2862.23,-276C2871.33,-276 2886.26,-276 2897.92,-276"/>
</g>
<!-- cluster&#45;31&#45;&#45;action&#45;132 -->
<g id="edge32" class="edge">
<title>cluster&#45;31&#45;&#45;action&#45;132</title>
<path fill="none" stroke="black" d="M2988.23,-222C2997.33,-222 3012.26,-222 3023.92,-222"/>
</g>
<!-- cluster&#45;32&#45;&#45;action&#45;138 -->
<g id="edge33" class="edge">
<title>cluster&#45;32&#45;&#45;action&#45;138</title>
<path fill="none" stroke="black" d="M3240.23,-72C3249.33,-72 3264.26,-72 3275.92,-72"/>
</g>
<!-- cluster&#45;33&#45;&#45;action&#45;142 -->
<g id="edge34" class="edge">
<title>cluster&#45;33&#45;&#45;action&#45;142</title>
<path fill="none" stroke="black" d="M3114.23,-221C3123.33,-221 3138.26,-221 3149.92,-221"/>
</g>
<!-- cluster&#45;34&#45;&#45;action&#45;146 -->
<g id="edge35" class="edge">
<title>cluster&#45;34&#45;&#45;action&#45;146</title>
<path fill="none" stroke="black" d="M3240.23,-180C3249.33,-180 3264.26,-180 3275.92,-180"/>
</g>
<!-- cluster&#45;35&#45;&#45;action&#45;150 -->
<g id="edge36" class="edge">
<title>cluster&#45;35&#45;&#45;action&#45;150</title>
<path fill="none" stroke="black" d="M3366.23,-126C3375.33,-126 3390.26,-126 3401.92,-126"/>
</g>
<!-- cluster&#45;36&#45;&#45;action&#45;154 -->
<g id="edge37" class="edge">
<title>cluster&#45;36&#45;&#45;action&#45;154</title>
<path fill="none" stroke="black" d="M3366.23,-72C3375.33,-72 3390.26,-72 3401.92,-72"/>
</g>
</g>
</svg>
