<?xml version="1.0" encoding="UTF-8" standalone="no"?>
<!DOCTYPE svg PUBLIC "-//W3C//DTD SVG 1.1//EN"
 "http://www.w3.org/Graphics/SVG/1.1/DTD/svg11.dtd">
<!-- Generated by graphviz version 2.43.0 (0)
 -->
<!-- Title: g Pages: 1 -->
<svg width="690pt" height="254pt"
 viewBox="0.00 0.00 690.00 254.00" xmlns="http://www.w3.org/2000/svg" xmlns:xlink="http://www.w3.org/1999/xlink">
<g id="graph0" class="graph" transform="scale(1 1) rotate(0) translate(4 250)">
<title>g</title>
<polygon fill="white" stroke="transparent" points="-4,4 -4,-250 686,-250 686,4 -4,4"/>
<g id="clust1" class="cluster">
<title>cluster_actionlib</title>
<polygon fill="none" stroke="black" points="622,-19 622,-179 674,-179 674,-19 622,-19"/>
</g>
<!-- action&#45;18 -->
<g id="node1" class="node">
<title>action&#45;18</title>
<polygon fill="white" stroke="black" stroke-width="4" points="666,-171 630,-171 630,-135 666,-135 666,-171"/>
</g>
<!-- action&#45;29 -->
<g id="node2" class="node">
<title>action&#45;29</title>
<polygon fill="white" stroke="black" stroke-width="4" points="666,-117 630,-117 630,-81 666,-81 666,-117"/>
</g>
<!-- action&#45;32 -->
<g id="node3" class="node">
<title>action&#45;32</title>
<polygon fill="#008000" stroke="black" stroke-width="4" points="666,-63 630,-63 630,-27 666,-27 666,-63"/>
</g>
<!-- action&#45;1 -->
<g id="node4" class="node">
<title>action&#45;1</title>
<polygon fill="white" stroke="black" points="36,-198 0,-198 0,-162 36,-162 36,-198"/>
</g>
<!-- cluster&#45;0 -->
<g id="node18" class="node">
<title>cluster&#45;0</title>
<polygon fill="black" stroke="black" stroke-width="0" points="90,-162 72,-162 72,-144 90,-144 90,-162"/>
</g>
<!-- action&#45;1&#45;&#45;cluster&#45;0 -->
<g id="edge8" class="edge">
<title>action&#45;1&#45;&#45;cluster&#45;0</title>
<path fill="none" stroke="black" d="M36.32,-172.34C48.01,-167.16 62.91,-160.57 71.94,-156.57"/>
</g>
<!-- action&#45;3 -->
<g id="node5" class="node">
<title>action&#45;3</title>
<polygon fill="white" stroke="black" points="36,-144 0,-144 0,-108 36,-108 36,-144"/>
</g>
<!-- action&#45;3&#45;&#45;cluster&#45;0 -->
<g id="edge9" class="edge">
<title>action&#45;3&#45;&#45;cluster&#45;0</title>
<path fill="none" stroke="black" d="M36.32,-133.66C48.01,-138.84 62.91,-145.43 71.94,-149.43"/>
</g>
<!-- action&#45;4 -->
<g id="node6" class="node">
<title>action&#45;4</title>
<polygon fill="white" stroke="black" points="162,-171 126,-171 126,-135 162,-135 162,-171"/>
</g>
<!-- cluster&#45;1 -->
<g id="node19" class="node">
<title>cluster&#45;1</title>
<polygon fill="black" stroke="black" stroke-width="0" points="216,-135 198,-135 198,-117 216,-117 216,-135"/>
</g>
<!-- action&#45;4&#45;&#45;cluster&#45;1 -->
<g id="edge10" class="edge">
<title>action&#45;4&#45;&#45;cluster&#45;1</title>
<path fill="none" stroke="black" d="M162.32,-145.34C174.01,-140.16 188.91,-133.57 197.94,-129.57"/>
</g>
<!-- action&#45;7 -->
<g id="node7" class="node">
<title>action&#45;7</title>
<polygon fill="white" stroke="black" points="162,-117 126,-117 126,-81 162,-81 162,-117"/>
</g>
<!-- action&#45;7&#45;&#45;cluster&#45;1 -->
<g id="edge11" class="edge">
<title>action&#45;7&#45;&#45;cluster&#45;1</title>
<path fill="none" stroke="black" d="M162.32,-106.66C174.01,-111.84 188.91,-118.43 197.94,-122.43"/>
</g>
<!-- action&#45;8 -->
<g id="node8" class="node">
<title>action&#45;8</title>
<polygon fill="white" stroke="black" points="288,-144 252,-144 252,-108 288,-108 288,-144"/>
</g>
<!-- cluster&#45;4 -->
<g id="node22" class="node">
<title>cluster&#45;4</title>
<polygon fill="black" stroke="black" stroke-width="0" points="342,-108 324,-108 324,-90 342,-90 342,-108"/>
</g>
<!-- action&#45;8&#45;&#45;cluster&#45;4 -->
<g id="edge16" class="edge">
<title>action&#45;8&#45;&#45;cluster&#45;4</title>
<path fill="none" stroke="black" d="M288.32,-118.34C300.01,-113.16 314.91,-106.57 323.94,-102.57"/>
</g>
<!-- action&#45;11 -->
<g id="node9" class="node">
<title>action&#45;11</title>
<polygon fill="white" stroke="black" points="414,-246 378,-246 378,-210 414,-210 414,-246"/>
</g>
<!-- cluster&#45;2 -->
<g id="node20" class="node">
<title>cluster&#45;2</title>
<polygon fill="black" stroke="black" stroke-width="0" points="468,-203 450,-203 450,-185 468,-185 468,-203"/>
</g>
<!-- action&#45;11&#45;&#45;cluster&#45;2 -->
<g id="edge12" class="edge">
<title>action&#45;11&#45;&#45;cluster&#45;2</title>
<path fill="none" stroke="black" d="M414.32,-218.35C426.01,-211.83 440.91,-203.53 449.94,-198.5"/>
</g>
<!-- action&#45;13 -->
<g id="node10" class="node">
<title>action&#45;13</title>
<polygon fill="white" stroke="black" points="414,-192 378,-192 378,-156 414,-156 414,-192"/>
</g>
<!-- action&#45;13&#45;&#45;cluster&#45;2 -->
<g id="edge13" class="edge">
<title>action&#45;13&#45;&#45;cluster&#45;2</title>
<path fill="none" stroke="black" d="M414.32,-179.68C426.01,-183.51 440.91,-188.4 449.94,-191.36"/>
</g>
<!-- action&#45;14 -->
<g id="node11" class="node">
<title>action&#45;14</title>
<polygon fill="white" stroke="black" points="540,-212 504,-212 504,-176 540,-176 540,-212"/>
</g>
<!-- cluster&#45;3 -->
<g id="node21" class="node">
<title>cluster&#45;3</title>
<polygon fill="black" stroke="black" stroke-width="0" points="594,-162 576,-162 576,-144 594,-144 594,-162"/>
</g>
<!-- action&#45;14&#45;&#45;cluster&#45;3 -->
<g id="edge14" class="edge">
<title>action&#45;14&#45;&#45;cluster&#45;3</title>
<path fill="none" stroke="black" d="M540.32,-182.36C552.01,-174.5 566.91,-164.49 575.94,-158.42"/>
</g>
<!-- action&#45;17 -->
<g id="node12" class="node">
<title>action&#45;17</title>
<polygon fill="white" stroke="black" points="540,-158 504,-158 504,-122 540,-122 540,-158"/>
</g>
<!-- action&#45;17&#45;&#45;cluster&#45;3 -->
<g id="edge15" class="edge">
<title>action&#45;17&#45;&#45;cluster&#45;3</title>
<path fill="none" stroke="black" d="M540.32,-143.69C552.01,-146.18 566.91,-149.36 575.94,-151.28"/>
</g>
<!-- action&#45;21 -->
<g id="node13" class="node">
<title>action&#45;21</title>
<polygon fill="white" stroke="black" points="288,-90 252,-90 252,-54 288,-54 288,-90"/>
</g>
<!-- action&#45;21&#45;&#45;cluster&#45;4 -->
<g id="edge17" class="edge">
<title>action&#45;21&#45;&#45;cluster&#45;4</title>
<path fill="none" stroke="black" d="M288.32,-79.66C300.01,-84.84 314.91,-91.43 323.94,-95.43"/>
</g>
<!-- action&#45;22 -->
<g id="node14" class="node">
<title>action&#45;22</title>
<polygon fill="white" stroke="black" points="414,-117 378,-117 378,-81 414,-81 414,-117"/>
</g>
<!-- cluster&#45;5 -->
<g id="node23" class="node">
<title>cluster&#45;5</title>
<polygon fill="black" stroke="black" stroke-width="0" points="468,-81 450,-81 450,-63 468,-63 468,-81"/>
</g>
<!-- action&#45;22&#45;&#45;cluster&#45;5 -->
<g id="edge18" class="edge">
<title>action&#45;22&#45;&#45;cluster&#45;5</title>
<path fill="none" stroke="black" d="M414.32,-91.34C426.01,-86.16 440.91,-79.57 449.94,-75.57"/>
</g>
<!-- action&#45;25 -->
<g id="node15" class="node">
<title>action&#45;25</title>
<polygon fill="white" stroke="black" points="414,-63 378,-63 378,-27 414,-27 414,-63"/>
</g>
<!-- action&#45;25&#45;&#45;cluster&#45;5 -->
<g id="edge19" class="edge">
<title>action&#45;25&#45;&#45;cluster&#45;5</title>
<path fill="none" stroke="black" d="M414.32,-52.66C426.01,-57.84 440.91,-64.43 449.94,-68.43"/>
</g>
<!-- action&#45;26 -->
<g id="node16" class="node">
<title>action&#45;26</title>
<polygon fill="#c9211e" stroke="black" points="540,-90 504,-90 504,-54 540,-54 540,-90"/>
</g>
<!-- cluster&#45;6 -->
<g id="node24" class="node">
<title>cluster&#45;6</title>
<polygon fill="black" stroke="black" stroke-width="0" points="594,-54 576,-54 576,-36 594,-36 594,-54"/>
</g>
<!-- action&#45;26&#45;&#45;cluster&#45;6 -->
<g id="edge20" class="edge">
<title>action&#45;26&#45;&#45;cluster&#45;6</title>
<path fill="none" stroke="black" d="M540.32,-64.34C552.01,-59.16 566.91,-52.57 575.94,-48.57"/>
</g>
<!-- action&#45;31 -->
<g id="node17" class="node">
<title>action&#45;31</title>
<polygon fill="#00008b" stroke="black" points="540,-36 504,-36 504,0 540,0 540,-36"/>
</g>
<!-- action&#45;31&#45;&#45;cluster&#45;6 -->
<g id="edge21" class="edge">
<title>action&#45;31&#45;&#45;cluster&#45;6</title>
<path fill="none" stroke="black" d="M540.32,-25.66C552.01,-30.84 566.91,-37.43 575.94,-41.43"/>
</g>
<!-- cluster&#45;0&#45;&#45;action&#45;4 -->
<g id="edge1" class="edge">
<title>cluster&#45;0&#45;&#45;action&#45;4</title>
<path fill="none" stroke="black" d="M90.23,-153C99.33,-153 114.26,-153 125.92,-153"/>
</g>
<!-- cluster&#45;1&#45;&#45;action&#45;8 -->
<g id="edge2" class="edge">
<title>cluster&#45;1&#45;&#45;action&#45;8</title>
<path fill="none" stroke="black" d="M216.23,-126C225.33,-126 240.26,-126 251.92,-126"/>
</g>
<!-- cluster&#45;2&#45;&#45;action&#45;14 -->
<g id="edge3" class="edge">
<title>cluster&#45;2&#45;&#45;action&#45;14</title>
<path fill="none" stroke="black" d="M468.23,-194C477.33,-194 492.26,-194 503.92,-194"/>
</g>
<!-- cluster&#45;3&#45;&#45;action&#45;18 -->
<g id="edge4" class="edge">
<title>cluster&#45;3&#45;&#45;action&#45;18</title>
<path fill="none" stroke="black" d="M594.23,-153C603.33,-153 618.26,-153 629.92,-153"/>
</g>
<!-- cluster&#45;4&#45;&#45;action&#45;22 -->
<g id="edge5" class="edge">
<title>cluster&#45;4&#45;&#45;action&#45;22</title>
<path fill="none" stroke="black" d="M342.23,-99C351.33,-99 366.26,-99 377.92,-99"/>
</g>
<!-- cluster&#45;5&#45;&#45;action&#45;26 -->
<g id="edge6" class="edge">
<title>cluster&#45;5&#45;&#45;action&#45;26</title>
<path fill="none" stroke="black" d="M468.23,-72C477.33,-72 492.26,-72 503.92,-72"/>
</g>
<!-- cluster&#45;6&#45;&#45;action&#45;32 -->
<g id="edge7" class="edge">
<title>cluster&#45;6&#45;&#45;action&#45;32</title>
<path fill="none" stroke="black" d="M594.23,-45C603.33,-45 618.26,-45 629.92,-45"/>
</g>
</g>
</svg>
