<?xml version="1.0" encoding="UTF-8" standalone="no"?>
<!DOCTYPE svg PUBLIC "-//W3C//DTD SVG 1.1//EN"
 "http://www.w3.org/Graphics/SVG/1.1/DTD/svg11.dtd">
<!-- Generated by graphviz version 2.43.0 (0)
 -->
<!-- Title: g Pages: 1 -->
<svg width="1320pt" height="355pt"
 viewBox="0.00 0.00 1320.00 355.00" xmlns="http://www.w3.org/2000/svg" xmlns:xlink="http://www.w3.org/1999/xlink">
<g id="graph0" class="graph" transform="scale(1 1) rotate(0) translate(4 351)">
<title>g</title>
<polygon fill="white" stroke="transparent" points="-4,4 -4,-351 1316,-351 1316,4 -4,4"/>
<g id="clust1" class="cluster">
<title>cluster_actionlib</title>
<polygon fill="none" stroke="black" points="1252,-36 1252,-196 1304,-196 1304,-36 1252,-36"/>
</g>
<!-- action&#45;18 -->
<g id="node1" class="node">
<title>action&#45;18</title>
<polygon fill="white" stroke="black" stroke-width="4" points="1296,-188 1260,-188 1260,-152 1296,-152 1296,-188"/>
</g>
<!-- action&#45;29 -->
<g id="node2" class="node">
<title>action&#45;29</title>
<polygon fill="white" stroke="black" stroke-width="4" points="1296,-134 1260,-134 1260,-98 1296,-98 1296,-134"/>
</g>
<!-- action&#45;52 -->
<g id="node3" class="node">
<title>action&#45;52</title>
<polygon fill="#008000" stroke="black" stroke-width="4" points="1296,-80 1260,-80 1260,-44 1296,-44 1296,-80"/>
</g>
<!-- action&#45;1 -->
<g id="node4" class="node">
<title>action&#45;1</title>
<polygon fill="white" stroke="black" points="36,-347 0,-347 0,-311 36,-311 36,-347"/>
</g>
<!-- cluster&#45;0 -->
<g id="node28" class="node">
<title>cluster&#45;0</title>
<polygon fill="black" stroke="black" stroke-width="0" points="90,-311 72,-311 72,-293 90,-293 90,-311"/>
</g>
<!-- action&#45;1&#45;&#45;cluster&#45;0 -->
<g id="edge13" class="edge">
<title>action&#45;1&#45;&#45;cluster&#45;0</title>
<path fill="none" stroke="black" d="M36.32,-321.34C48.01,-316.16 62.91,-309.57 71.94,-305.57"/>
</g>
<!-- action&#45;3 -->
<g id="node5" class="node">
<title>action&#45;3</title>
<polygon fill="white" stroke="black" points="36,-293 0,-293 0,-257 36,-257 36,-293"/>
</g>
<!-- action&#45;3&#45;&#45;cluster&#45;0 -->
<g id="edge14" class="edge">
<title>action&#45;3&#45;&#45;cluster&#45;0</title>
<path fill="none" stroke="black" d="M36.32,-282.66C48.01,-287.84 62.91,-294.43 71.94,-298.43"/>
</g>
<!-- action&#45;4 -->
<g id="node6" class="node">
<title>action&#45;4</title>
<polygon fill="white" stroke="black" points="162,-320 126,-320 126,-284 162,-284 162,-320"/>
</g>
<!-- cluster&#45;1 -->
<g id="node29" class="node">
<title>cluster&#45;1</title>
<polygon fill="black" stroke="black" stroke-width="0" points="216,-284 198,-284 198,-266 216,-266 216,-284"/>
</g>
<!-- action&#45;4&#45;&#45;cluster&#45;1 -->
<g id="edge15" class="edge">
<title>action&#45;4&#45;&#45;cluster&#45;1</title>
<path fill="none" stroke="black" d="M162.32,-294.34C174.01,-289.16 188.91,-282.57 197.94,-278.57"/>
</g>
<!-- action&#45;7 -->
<g id="node7" class="node">
<title>action&#45;7</title>
<polygon fill="white" stroke="black" points="162,-266 126,-266 126,-230 162,-230 162,-266"/>
</g>
<!-- action&#45;7&#45;&#45;cluster&#45;1 -->
<g id="edge16" class="edge">
<title>action&#45;7&#45;&#45;cluster&#45;1</title>
<path fill="none" stroke="black" d="M162.32,-255.66C174.01,-260.84 188.91,-267.43 197.94,-271.43"/>
</g>
<!-- action&#45;8 -->
<g id="node8" class="node">
<title>action&#45;8</title>
<polygon fill="white" stroke="black" points="288,-293 252,-293 252,-257 288,-257 288,-293"/>
</g>
<!-- cluster&#45;4 -->
<g id="node32" class="node">
<title>cluster&#45;4</title>
<polygon fill="black" stroke="black" stroke-width="0" points="342,-257 324,-257 324,-239 342,-239 342,-257"/>
</g>
<!-- action&#45;8&#45;&#45;cluster&#45;4 -->
<g id="edge21" class="edge">
<title>action&#45;8&#45;&#45;cluster&#45;4</title>
<path fill="none" stroke="black" d="M288.32,-267.34C300.01,-262.16 314.91,-255.57 323.94,-251.57"/>
</g>
<!-- action&#45;11 -->
<g id="node9" class="node">
<title>action&#45;11</title>
<polygon fill="white" stroke="black" points="1044,-266 1008,-266 1008,-230 1044,-230 1044,-266"/>
</g>
<!-- cluster&#45;2 -->
<g id="node30" class="node">
<title>cluster&#45;2</title>
<polygon fill="black" stroke="black" stroke-width="0" points="1098,-223 1080,-223 1080,-205 1098,-205 1098,-223"/>
</g>
<!-- action&#45;11&#45;&#45;cluster&#45;2 -->
<g id="edge17" class="edge">
<title>action&#45;11&#45;&#45;cluster&#45;2</title>
<path fill="none" stroke="black" d="M1044.32,-238.35C1056.01,-231.83 1070.91,-223.53 1079.94,-218.5"/>
</g>
<!-- action&#45;13 -->
<g id="node10" class="node">
<title>action&#45;13</title>
<polygon fill="white" stroke="black" points="1044,-212 1008,-212 1008,-176 1044,-176 1044,-212"/>
</g>
<!-- action&#45;13&#45;&#45;cluster&#45;2 -->
<g id="edge18" class="edge">
<title>action&#45;13&#45;&#45;cluster&#45;2</title>
<path fill="none" stroke="black" d="M1044.32,-199.68C1056.01,-203.51 1070.91,-208.4 1079.94,-211.36"/>
</g>
<!-- action&#45;14 -->
<g id="node11" class="node">
<title>action&#45;14</title>
<polygon fill="white" stroke="black" points="1170,-232 1134,-232 1134,-196 1170,-196 1170,-232"/>
</g>
<!-- cluster&#45;3 -->
<g id="node31" class="node">
<title>cluster&#45;3</title>
<polygon fill="black" stroke="black" stroke-width="0" points="1224,-179 1206,-179 1206,-161 1224,-161 1224,-179"/>
</g>
<!-- action&#45;14&#45;&#45;cluster&#45;3 -->
<g id="edge19" class="edge">
<title>action&#45;14&#45;&#45;cluster&#45;3</title>
<path fill="none" stroke="black" d="M1170.32,-201.51C1182.01,-193.07 1196.91,-182.33 1205.94,-175.82"/>
</g>
<!-- action&#45;17 -->
<g id="node12" class="node">
<title>action&#45;17</title>
<polygon fill="white" stroke="black" points="1170,-178 1134,-178 1134,-142 1170,-142 1170,-178"/>
</g>
<!-- action&#45;17&#45;&#45;cluster&#45;3 -->
<g id="edge20" class="edge">
<title>action&#45;17&#45;&#45;cluster&#45;3</title>
<path fill="none" stroke="black" d="M1170.32,-162.84C1182.01,-164.76 1196.91,-167.2 1205.94,-168.68"/>
</g>
<!-- action&#45;21 -->
<g id="node13" class="node">
<title>action&#45;21</title>
<polygon fill="white" stroke="black" points="288,-239 252,-239 252,-203 288,-203 288,-239"/>
</g>
<!-- action&#45;21&#45;&#45;cluster&#45;4 -->
<g id="edge22" class="edge">
<title>action&#45;21&#45;&#45;cluster&#45;4</title>
<path fill="none" stroke="black" d="M288.32,-228.66C300.01,-233.84 314.91,-240.43 323.94,-244.43"/>
</g>
<!-- action&#45;22 -->
<g id="node14" class="node">
<title>action&#45;22</title>
<polygon fill="white" stroke="black" points="414,-266 378,-266 378,-230 414,-230 414,-266"/>
</g>
<!-- cluster&#45;5 -->
<g id="node33" class="node">
<title>cluster&#45;5</title>
<polygon fill="black" stroke="black" stroke-width="0" points="468,-230 450,-230 450,-212 468,-212 468,-230"/>
</g>
<!-- action&#45;22&#45;&#45;cluster&#45;5 -->
<g id="edge23" class="edge">
<title>action&#45;22&#45;&#45;cluster&#45;5</title>
<path fill="none" stroke="black" d="M414.32,-240.34C426.01,-235.16 440.91,-228.57 449.94,-224.57"/>
</g>
<!-- action&#45;25 -->
<g id="node15" class="node">
<title>action&#45;25</title>
<polygon fill="white" stroke="black" points="414,-212 378,-212 378,-176 414,-176 414,-212"/>
</g>
<!-- action&#45;25&#45;&#45;cluster&#45;5 -->
<g id="edge24" class="edge">
<title>action&#45;25&#45;&#45;cluster&#45;5</title>
<path fill="none" stroke="black" d="M414.32,-201.66C426.01,-206.84 440.91,-213.43 449.94,-217.43"/>
</g>
<!-- action&#45;26 -->
<g id="node16" class="node">
<title>action&#45;26</title>
<polygon fill="white" stroke="black" points="540,-239 504,-239 504,-203 540,-203 540,-239"/>
</g>
<!-- cluster&#45;6 -->
<g id="node34" class="node">
<title>cluster&#45;6</title>
<polygon fill="black" stroke="black" stroke-width="0" points="594,-203 576,-203 576,-185 594,-185 594,-203"/>
</g>
<!-- action&#45;26&#45;&#45;cluster&#45;6 -->
<g id="edge25" class="edge">
<title>action&#45;26&#45;&#45;cluster&#45;6</title>
<path fill="none" stroke="black" d="M540.32,-213.34C552.01,-208.16 566.91,-201.57 575.94,-197.57"/>
</g>
<!-- action&#45;31 -->
<g id="node17" class="node">
<title>action&#45;31</title>
<polygon fill="white" stroke="black" points="540,-185 504,-185 504,-149 540,-149 540,-185"/>
</g>
<!-- action&#45;31&#45;&#45;cluster&#45;6 -->
<g id="edge26" class="edge">
<title>action&#45;31&#45;&#45;cluster&#45;6</title>
<path fill="none" stroke="black" d="M540.32,-174.66C552.01,-179.84 566.91,-186.43 575.94,-190.43"/>
</g>
<!-- action&#45;32 -->
<g id="node18" class="node">
<title>action&#45;32</title>
<polygon fill="white" stroke="black" points="666,-212 630,-212 630,-176 666,-176 666,-212"/>
</g>
<!-- cluster&#45;7 -->
<g id="node35" class="node">
<title>cluster&#45;7</title>
<polygon fill="black" stroke="black" stroke-width="0" points="720,-176 702,-176 702,-158 720,-158 720,-176"/>
</g>
<!-- action&#45;32&#45;&#45;cluster&#45;7 -->
<g id="edge27" class="edge">
<title>action&#45;32&#45;&#45;cluster&#45;7</title>
<path fill="none" stroke="black" d="M666.32,-186.34C678.01,-181.16 692.91,-174.57 701.94,-170.57"/>
</g>
<!-- action&#45;35 -->
<g id="node19" class="node">
<title>action&#45;35</title>
<polygon fill="white" stroke="black" points="666,-158 630,-158 630,-122 666,-122 666,-158"/>
</g>
<!-- action&#45;35&#45;&#45;cluster&#45;7 -->
<g id="edge28" class="edge">
<title>action&#45;35&#45;&#45;cluster&#45;7</title>
<path fill="none" stroke="black" d="M666.32,-147.66C678.01,-152.84 692.91,-159.43 701.94,-163.43"/>
</g>
<!-- action&#45;36 -->
<g id="node20" class="node">
<title>action&#45;36</title>
<polygon fill="white" stroke="black" points="792,-185 756,-185 756,-149 792,-149 792,-185"/>
</g>
<!-- cluster&#45;8 -->
<g id="node36" class="node">
<title>cluster&#45;8</title>
<polygon fill="black" stroke="black" stroke-width="0" points="846,-149 828,-149 828,-131 846,-131 846,-149"/>
</g>
<!-- action&#45;36&#45;&#45;cluster&#45;8 -->
<g id="edge29" class="edge">
<title>action&#45;36&#45;&#45;cluster&#45;8</title>
<path fill="none" stroke="black" d="M792.32,-159.34C804.01,-154.16 818.91,-147.57 827.94,-143.57"/>
</g>
<!-- action&#45;39 -->
<g id="node21" class="node">
<title>action&#45;39</title>
<polygon fill="white" stroke="black" points="792,-131 756,-131 756,-95 792,-95 792,-131"/>
</g>
<!-- action&#45;39&#45;&#45;cluster&#45;8 -->
<g id="edge30" class="edge">
<title>action&#45;39&#45;&#45;cluster&#45;8</title>
<path fill="none" stroke="black" d="M792.32,-120.66C804.01,-125.84 818.91,-132.43 827.94,-136.43"/>
</g>
<!-- action&#45;40 -->
<g id="node22" class="node">
<title>action&#45;40</title>
<polygon fill="white" stroke="black" points="918,-158 882,-158 882,-122 918,-122 918,-158"/>
</g>
<!-- cluster&#45;9 -->
<g id="node37" class="node">
<title>cluster&#45;9</title>
<polygon fill="black" stroke="black" stroke-width="0" points="972,-122 954,-122 954,-104 972,-104 972,-122"/>
</g>
<!-- action&#45;40&#45;&#45;cluster&#45;9 -->
<g id="edge31" class="edge">
<title>action&#45;40&#45;&#45;cluster&#45;9</title>
<path fill="none" stroke="black" d="M918.32,-132.34C930.01,-127.16 944.91,-120.57 953.94,-116.57"/>
</g>
<!-- action&#45;43 -->
<g id="node23" class="node">
<title>action&#45;43</title>
<polygon fill="white" stroke="black" points="918,-104 882,-104 882,-68 918,-68 918,-104"/>
</g>
<!-- action&#45;43&#45;&#45;cluster&#45;9 -->
<g id="edge32" class="edge">
<title>action&#45;43&#45;&#45;cluster&#45;9</title>
<path fill="none" stroke="black" d="M918.32,-93.66C930.01,-98.84 944.91,-105.43 953.94,-109.43"/>
</g>
<!-- action&#45;44 -->
<g id="node24" class="node">
<title>action&#45;44</title>
<polygon fill="white" stroke="black" points="1044,-131 1008,-131 1008,-95 1044,-95 1044,-131"/>
</g>
<!-- cluster&#45;10 -->
<g id="node38" class="node">
<title>cluster&#45;10</title>
<polygon fill="black" stroke="black" stroke-width="0" points="1098,-81 1080,-81 1080,-63 1098,-63 1098,-81"/>
</g>
<!-- action&#45;44&#45;&#45;cluster&#45;10 -->
<g id="edge33" class="edge">
<title>action&#45;44&#45;&#45;cluster&#45;10</title>
<path fill="none" stroke="black" d="M1044.32,-101.36C1056.01,-93.5 1070.91,-83.49 1079.94,-77.42"/>
</g>
<!-- action&#45;47 -->
<g id="node25" class="node">
<title>action&#45;47</title>
<polygon fill="white" stroke="black" points="1044,-77 1008,-77 1008,-41 1044,-41 1044,-77"/>
</g>
<!-- action&#45;47&#45;&#45;cluster&#45;10 -->
<g id="edge34" class="edge">
<title>action&#45;47&#45;&#45;cluster&#45;10</title>
<path fill="none" stroke="black" d="M1044.32,-62.69C1056.01,-65.18 1070.91,-68.36 1079.94,-70.28"/>
</g>
<!-- action&#45;48 -->
<g id="node26" class="node">
<title>action&#45;48</title>
<polygon fill="#c9211e" stroke="black" points="1170,-90 1134,-90 1134,-54 1170,-54 1170,-90"/>
</g>
<!-- cluster&#45;11 -->
<g id="node39" class="node">
<title>cluster&#45;11</title>
<polygon fill="black" stroke="black" stroke-width="0" points="1224,-71 1206,-71 1206,-53 1224,-53 1224,-71"/>
</g>
<!-- action&#45;48&#45;&#45;cluster&#45;11 -->
<g id="edge35" class="edge">
<title>action&#45;48&#45;&#45;cluster&#45;11</title>
<path fill="none" stroke="black" d="M1170.32,-69.16C1182.01,-67.24 1196.91,-64.8 1205.94,-63.32"/>
</g>
<!-- action&#45;51 -->
<g id="node27" class="node">
<title>action&#45;51</title>
<polygon fill="#00008b" stroke="black" points="1170,-36 1134,-36 1134,0 1170,0 1170,-36"/>
</g>
<!-- action&#45;51&#45;&#45;cluster&#45;11 -->
<g id="edge36" class="edge">
<title>action&#45;51&#45;&#45;cluster&#45;11</title>
<path fill="none" stroke="black" d="M1170.32,-30.49C1182.01,-38.93 1196.91,-49.67 1205.94,-56.18"/>
</g>
<!-- cluster&#45;0&#45;&#45;action&#45;4 -->
<g id="edge1" class="edge">
<title>cluster&#45;0&#45;&#45;action&#45;4</title>
<path fill="none" stroke="black" d="M90.23,-302C99.33,-302 114.26,-302 125.92,-302"/>
</g>
<!-- cluster&#45;1&#45;&#45;action&#45;8 -->
<g id="edge2" class="edge">
<title>cluster&#45;1&#45;&#45;action&#45;8</title>
<path fill="none" stroke="black" d="M216.23,-275C225.33,-275 240.26,-275 251.92,-275"/>
</g>
<!-- cluster&#45;2&#45;&#45;action&#45;14 -->
<g id="edge3" class="edge">
<title>cluster&#45;2&#45;&#45;action&#45;14</title>
<path fill="none" stroke="black" d="M1098.23,-214C1107.33,-214 1122.26,-214 1133.92,-214"/>
</g>
<!-- cluster&#45;3&#45;&#45;action&#45;18 -->
<g id="edge4" class="edge">
<title>cluster&#45;3&#45;&#45;action&#45;18</title>
<path fill="none" stroke="black" d="M1224.23,-170C1233.33,-170 1248.26,-170 1259.92,-170"/>
</g>
<!-- cluster&#45;4&#45;&#45;action&#45;22 -->
<g id="edge5" class="edge">
<title>cluster&#45;4&#45;&#45;action&#45;22</title>
<path fill="none" stroke="black" d="M342.23,-248C351.33,-248 366.26,-248 377.92,-248"/>
</g>
<!-- cluster&#45;5&#45;&#45;action&#45;26 -->
<g id="edge6" class="edge">
<title>cluster&#45;5&#45;&#45;action&#45;26</title>
<path fill="none" stroke="black" d="M468.23,-221C477.33,-221 492.26,-221 503.92,-221"/>
</g>
<!-- cluster&#45;6&#45;&#45;action&#45;32 -->
<g id="edge7" class="edge">
<title>cluster&#45;6&#45;&#45;action&#45;32</title>
<path fill="none" stroke="black" d="M594.23,-194C603.33,-194 618.26,-194 629.92,-194"/>
</g>
<!-- cluster&#45;7&#45;&#45;action&#45;36 -->
<g id="edge8" class="edge">
<title>cluster&#45;7&#45;&#45;action&#45;36</title>
<path fill="none" stroke="black" d="M720.23,-167C729.33,-167 744.26,-167 755.92,-167"/>
</g>
<!-- cluster&#45;8&#45;&#45;action&#45;40 -->
<g id="edge9" class="edge">
<title>cluster&#45;8&#45;&#45;action&#45;40</title>
<path fill="none" stroke="black" d="M846.23,-140C855.33,-140 870.26,-140 881.92,-140"/>
</g>
<!-- cluster&#45;9&#45;&#45;action&#45;44 -->
<g id="edge10" class="edge">
<title>cluster&#45;9&#45;&#45;action&#45;44</title>
<path fill="none" stroke="black" d="M972.23,-113C981.33,-113 996.26,-113 1007.92,-113"/>
</g>
<!-- cluster&#45;10&#45;&#45;action&#45;48 -->
<g id="edge11" class="edge">
<title>cluster&#45;10&#45;&#45;action&#45;48</title>
<path fill="none" stroke="black" d="M1098.23,-72C1107.33,-72 1122.26,-72 1133.92,-72"/>
</g>
<!-- cluster&#45;11&#45;&#45;action&#45;52 -->
<g id="edge12" class="edge">
<title>cluster&#45;11&#45;&#45;action&#45;52</title>
<path fill="none" stroke="black" d="M1224.23,-62C1233.33,-62 1248.26,-62 1259.92,-62"/>
</g>
</g>
</svg>
