<?xml version="1.0" encoding="UTF-8" standalone="no"?>
<!DOCTYPE svg PUBLIC "-//W3C//DTD SVG 1.1//EN"
 "http://www.w3.org/Graphics/SVG/1.1/DTD/svg11.dtd">
<!-- Generated by graphviz version 2.43.0 (0)
 -->
<!-- Title: g Pages: 1 -->
<svg width="1824pt" height="493pt"
 viewBox="0.00 0.00 1824.00 493.00" xmlns="http://www.w3.org/2000/svg" xmlns:xlink="http://www.w3.org/1999/xlink">
<g id="graph0" class="graph" transform="scale(1 1) rotate(0) translate(4 489)">
<title>g</title>
<polygon fill="white" stroke="transparent" points="-4,4 -4,-489 1820,-489 1820,4 -4,4"/>
<g id="clust1" class="cluster">
<title>cluster_actionlib</title>
<polygon fill="none" stroke="black" points="1756,-46 1756,-206 1808,-206 1808,-46 1756,-46"/>
</g>
<!-- action&#45;29 -->
<g id="node1" class="node">
<title>action&#45;29</title>
<polygon fill="white" stroke="black" stroke-width="4" points="1800,-198 1764,-198 1764,-162 1800,-162 1800,-198"/>
</g>
<!-- action&#45;76 -->
<g id="node2" class="node">
<title>action&#45;76</title>
<polygon fill="white" stroke="black" stroke-width="4" points="1800,-144 1764,-144 1764,-108 1800,-108 1800,-144"/>
</g>
<!-- action&#45;80 -->
<g id="node3" class="node">
<title>action&#45;80</title>
<polygon fill="#008000" stroke="black" stroke-width="4" points="1800,-90 1764,-90 1764,-54 1800,-54 1800,-90"/>
</g>
<!-- action&#45;1 -->
<g id="node4" class="node">
<title>action&#45;1</title>
<polygon fill="white" stroke="black" points="36,-485 0,-485 0,-449 36,-449 36,-485"/>
</g>
<!-- cluster&#45;0 -->
<g id="node42" class="node">
<title>cluster&#45;0</title>
<polygon fill="black" stroke="black" stroke-width="0" points="90,-449 72,-449 72,-431 90,-431 90,-449"/>
</g>
<!-- action&#45;1&#45;&#45;cluster&#45;0 -->
<g id="edge20" class="edge">
<title>action&#45;1&#45;&#45;cluster&#45;0</title>
<path fill="none" stroke="black" d="M36.32,-459.34C48.01,-454.16 62.91,-447.57 71.94,-443.57"/>
</g>
<!-- action&#45;3 -->
<g id="node5" class="node">
<title>action&#45;3</title>
<polygon fill="white" stroke="black" points="36,-431 0,-431 0,-395 36,-395 36,-431"/>
</g>
<!-- action&#45;3&#45;&#45;cluster&#45;0 -->
<g id="edge21" class="edge">
<title>action&#45;3&#45;&#45;cluster&#45;0</title>
<path fill="none" stroke="black" d="M36.32,-420.66C48.01,-425.84 62.91,-432.43 71.94,-436.43"/>
</g>
<!-- action&#45;4 -->
<g id="node6" class="node">
<title>action&#45;4</title>
<polygon fill="white" stroke="black" points="162,-458 126,-458 126,-422 162,-422 162,-458"/>
</g>
<!-- cluster&#45;1 -->
<g id="node43" class="node">
<title>cluster&#45;1</title>
<polygon fill="black" stroke="black" stroke-width="0" points="216,-422 198,-422 198,-404 216,-404 216,-422"/>
</g>
<!-- action&#45;4&#45;&#45;cluster&#45;1 -->
<g id="edge22" class="edge">
<title>action&#45;4&#45;&#45;cluster&#45;1</title>
<path fill="none" stroke="black" d="M162.32,-432.34C174.01,-427.16 188.91,-420.57 197.94,-416.57"/>
</g>
<!-- action&#45;7 -->
<g id="node7" class="node">
<title>action&#45;7</title>
<polygon fill="white" stroke="black" points="162,-404 126,-404 126,-368 162,-368 162,-404"/>
</g>
<!-- action&#45;7&#45;&#45;cluster&#45;1 -->
<g id="edge23" class="edge">
<title>action&#45;7&#45;&#45;cluster&#45;1</title>
<path fill="none" stroke="black" d="M162.32,-393.66C174.01,-398.84 188.91,-405.43 197.94,-409.43"/>
</g>
<!-- action&#45;8 -->
<g id="node8" class="node">
<title>action&#45;8</title>
<polygon fill="white" stroke="black" points="288,-431 252,-431 252,-395 288,-395 288,-431"/>
</g>
<!-- cluster&#45;4 -->
<g id="node46" class="node">
<title>cluster&#45;4</title>
<polygon fill="black" stroke="black" stroke-width="0" points="342,-395 324,-395 324,-377 342,-377 342,-395"/>
</g>
<!-- action&#45;8&#45;&#45;cluster&#45;4 -->
<g id="edge28" class="edge">
<title>action&#45;8&#45;&#45;cluster&#45;4</title>
<path fill="none" stroke="black" d="M288.32,-405.34C300.01,-400.16 314.91,-393.57 323.94,-389.57"/>
</g>
<!-- action&#45;11 -->
<g id="node9" class="node">
<title>action&#45;11</title>
<polygon fill="white" stroke="black" points="1170,-377 1134,-377 1134,-341 1170,-341 1170,-377"/>
</g>
<!-- cluster&#45;2 -->
<g id="node44" class="node">
<title>cluster&#45;2</title>
<polygon fill="black" stroke="black" stroke-width="0" points="1224,-334 1206,-334 1206,-316 1224,-316 1224,-334"/>
</g>
<!-- action&#45;11&#45;&#45;cluster&#45;2 -->
<g id="edge24" class="edge">
<title>action&#45;11&#45;&#45;cluster&#45;2</title>
<path fill="none" stroke="black" d="M1170.32,-349.35C1182.01,-342.83 1196.91,-334.53 1205.94,-329.5"/>
</g>
<!-- action&#45;13 -->
<g id="node10" class="node">
<title>action&#45;13</title>
<polygon fill="white" stroke="black" points="1170,-323 1134,-323 1134,-287 1170,-287 1170,-323"/>
</g>
<!-- action&#45;13&#45;&#45;cluster&#45;2 -->
<g id="edge25" class="edge">
<title>action&#45;13&#45;&#45;cluster&#45;2</title>
<path fill="none" stroke="black" d="M1170.32,-310.68C1182.01,-314.51 1196.91,-319.4 1205.94,-322.36"/>
</g>
<!-- action&#45;14 -->
<g id="node11" class="node">
<title>action&#45;14</title>
<polygon fill="white" stroke="black" points="1296,-343 1260,-343 1260,-307 1296,-307 1296,-343"/>
</g>
<!-- cluster&#45;3 -->
<g id="node45" class="node">
<title>cluster&#45;3</title>
<polygon fill="black" stroke="black" stroke-width="0" points="1350,-290 1332,-290 1332,-272 1350,-272 1350,-290"/>
</g>
<!-- action&#45;14&#45;&#45;cluster&#45;3 -->
<g id="edge26" class="edge">
<title>action&#45;14&#45;&#45;cluster&#45;3</title>
<path fill="none" stroke="black" d="M1296.32,-312.51C1308.01,-304.07 1322.91,-293.33 1331.94,-286.82"/>
</g>
<!-- action&#45;17 -->
<g id="node12" class="node">
<title>action&#45;17</title>
<polygon fill="white" stroke="black" points="1296,-289 1260,-289 1260,-253 1296,-253 1296,-289"/>
</g>
<!-- action&#45;17&#45;&#45;cluster&#45;3 -->
<g id="edge27" class="edge">
<title>action&#45;17&#45;&#45;cluster&#45;3</title>
<path fill="none" stroke="black" d="M1296.32,-273.84C1308.01,-275.76 1322.91,-278.2 1331.94,-279.68"/>
</g>
<!-- action&#45;18 -->
<g id="node13" class="node">
<title>action&#45;18</title>
<polygon fill="white" stroke="black" points="1422,-299 1386,-299 1386,-263 1422,-263 1422,-299"/>
</g>
<!-- cluster&#45;13 -->
<g id="node55" class="node">
<title>cluster&#45;13</title>
<polygon fill="black" stroke="black" stroke-width="0" points="1476,-241 1458,-241 1458,-223 1476,-223 1476,-241"/>
</g>
<!-- action&#45;18&#45;&#45;cluster&#45;13 -->
<g id="edge46" class="edge">
<title>action&#45;18&#45;&#45;cluster&#45;13</title>
<path fill="none" stroke="black" d="M1422.32,-267.09C1434.01,-257.7 1448.91,-245.73 1457.94,-238.48"/>
</g>
<!-- action&#45;21 -->
<g id="node14" class="node">
<title>action&#45;21</title>
<polygon fill="white" stroke="black" points="288,-377 252,-377 252,-341 288,-341 288,-377"/>
</g>
<!-- action&#45;21&#45;&#45;cluster&#45;4 -->
<g id="edge29" class="edge">
<title>action&#45;21&#45;&#45;cluster&#45;4</title>
<path fill="none" stroke="black" d="M288.32,-366.66C300.01,-371.84 314.91,-378.43 323.94,-382.43"/>
</g>
<!-- action&#45;22 -->
<g id="node15" class="node">
<title>action&#45;22</title>
<polygon fill="white" stroke="black" points="414,-404 378,-404 378,-368 414,-368 414,-404"/>
</g>
<!-- cluster&#45;5 -->
<g id="node47" class="node">
<title>cluster&#45;5</title>
<polygon fill="black" stroke="black" stroke-width="0" points="468,-368 450,-368 450,-350 468,-350 468,-368"/>
</g>
<!-- action&#45;22&#45;&#45;cluster&#45;5 -->
<g id="edge30" class="edge">
<title>action&#45;22&#45;&#45;cluster&#45;5</title>
<path fill="none" stroke="black" d="M414.32,-378.34C426.01,-373.16 440.91,-366.57 449.94,-362.57"/>
</g>
<!-- action&#45;25 -->
<g id="node16" class="node">
<title>action&#45;25</title>
<polygon fill="white" stroke="black" points="414,-350 378,-350 378,-314 414,-314 414,-350"/>
</g>
<!-- action&#45;25&#45;&#45;cluster&#45;5 -->
<g id="edge31" class="edge">
<title>action&#45;25&#45;&#45;cluster&#45;5</title>
<path fill="none" stroke="black" d="M414.32,-339.66C426.01,-344.84 440.91,-351.43 449.94,-355.43"/>
</g>
<!-- action&#45;26 -->
<g id="node17" class="node">
<title>action&#45;26</title>
<polygon fill="white" stroke="black" points="540,-377 504,-377 504,-341 540,-341 540,-377"/>
</g>
<!-- cluster&#45;6 -->
<g id="node48" class="node">
<title>cluster&#45;6</title>
<polygon fill="black" stroke="black" stroke-width="0" points="594,-341 576,-341 576,-323 594,-323 594,-341"/>
</g>
<!-- action&#45;26&#45;&#45;cluster&#45;6 -->
<g id="edge32" class="edge">
<title>action&#45;26&#45;&#45;cluster&#45;6</title>
<path fill="none" stroke="black" d="M540.32,-351.34C552.01,-346.16 566.91,-339.57 575.94,-335.57"/>
</g>
<!-- action&#45;31 -->
<g id="node18" class="node">
<title>action&#45;31</title>
<polygon fill="white" stroke="black" points="540,-323 504,-323 504,-287 540,-287 540,-323"/>
</g>
<!-- action&#45;31&#45;&#45;cluster&#45;6 -->
<g id="edge33" class="edge">
<title>action&#45;31&#45;&#45;cluster&#45;6</title>
<path fill="none" stroke="black" d="M540.32,-312.66C552.01,-317.84 566.91,-324.43 575.94,-328.43"/>
</g>
<!-- action&#45;32 -->
<g id="node19" class="node">
<title>action&#45;32</title>
<polygon fill="white" stroke="black" points="666,-350 630,-350 630,-314 666,-314 666,-350"/>
</g>
<!-- cluster&#45;7 -->
<g id="node49" class="node">
<title>cluster&#45;7</title>
<polygon fill="black" stroke="black" stroke-width="0" points="720,-314 702,-314 702,-296 720,-296 720,-314"/>
</g>
<!-- action&#45;32&#45;&#45;cluster&#45;7 -->
<g id="edge34" class="edge">
<title>action&#45;32&#45;&#45;cluster&#45;7</title>
<path fill="none" stroke="black" d="M666.32,-324.34C678.01,-319.16 692.91,-312.57 701.94,-308.57"/>
</g>
<!-- action&#45;35 -->
<g id="node20" class="node">
<title>action&#45;35</title>
<polygon fill="white" stroke="black" points="666,-296 630,-296 630,-260 666,-260 666,-296"/>
</g>
<!-- action&#45;35&#45;&#45;cluster&#45;7 -->
<g id="edge35" class="edge">
<title>action&#45;35&#45;&#45;cluster&#45;7</title>
<path fill="none" stroke="black" d="M666.32,-285.66C678.01,-290.84 692.91,-297.43 701.94,-301.43"/>
</g>
<!-- action&#45;36 -->
<g id="node21" class="node">
<title>action&#45;36</title>
<polygon fill="white" stroke="black" points="792,-323 756,-323 756,-287 792,-287 792,-323"/>
</g>
<!-- cluster&#45;8 -->
<g id="node50" class="node">
<title>cluster&#45;8</title>
<polygon fill="black" stroke="black" stroke-width="0" points="846,-287 828,-287 828,-269 846,-269 846,-287"/>
</g>
<!-- action&#45;36&#45;&#45;cluster&#45;8 -->
<g id="edge36" class="edge">
<title>action&#45;36&#45;&#45;cluster&#45;8</title>
<path fill="none" stroke="black" d="M792.32,-297.34C804.01,-292.16 818.91,-285.57 827.94,-281.57"/>
</g>
<!-- action&#45;39 -->
<g id="node22" class="node">
<title>action&#45;39</title>
<polygon fill="white" stroke="black" points="792,-269 756,-269 756,-233 792,-233 792,-269"/>
</g>
<!-- action&#45;39&#45;&#45;cluster&#45;8 -->
<g id="edge37" class="edge">
<title>action&#45;39&#45;&#45;cluster&#45;8</title>
<path fill="none" stroke="black" d="M792.32,-258.66C804.01,-263.84 818.91,-270.43 827.94,-274.43"/>
</g>
<!-- action&#45;40 -->
<g id="node23" class="node">
<title>action&#45;40</title>
<polygon fill="white" stroke="black" points="918,-296 882,-296 882,-260 918,-260 918,-296"/>
</g>
<!-- cluster&#45;9 -->
<g id="node51" class="node">
<title>cluster&#45;9</title>
<polygon fill="black" stroke="black" stroke-width="0" points="972,-260 954,-260 954,-242 972,-242 972,-260"/>
</g>
<!-- action&#45;40&#45;&#45;cluster&#45;9 -->
<g id="edge38" class="edge">
<title>action&#45;40&#45;&#45;cluster&#45;9</title>
<path fill="none" stroke="black" d="M918.32,-270.34C930.01,-265.16 944.91,-258.57 953.94,-254.57"/>
</g>
<!-- action&#45;43 -->
<g id="node24" class="node">
<title>action&#45;43</title>
<polygon fill="white" stroke="black" points="918,-242 882,-242 882,-206 918,-206 918,-242"/>
</g>
<!-- action&#45;43&#45;&#45;cluster&#45;9 -->
<g id="edge39" class="edge">
<title>action&#45;43&#45;&#45;cluster&#45;9</title>
<path fill="none" stroke="black" d="M918.32,-231.66C930.01,-236.84 944.91,-243.43 953.94,-247.43"/>
</g>
<!-- action&#45;44 -->
<g id="node25" class="node">
<title>action&#45;44</title>
<polygon fill="white" stroke="black" points="1044,-269 1008,-269 1008,-233 1044,-233 1044,-269"/>
</g>
<!-- cluster&#45;10 -->
<g id="node52" class="node">
<title>cluster&#45;10</title>
<polygon fill="black" stroke="black" stroke-width="0" points="1098,-233 1080,-233 1080,-215 1098,-215 1098,-233"/>
</g>
<!-- action&#45;44&#45;&#45;cluster&#45;10 -->
<g id="edge40" class="edge">
<title>action&#45;44&#45;&#45;cluster&#45;10</title>
<path fill="none" stroke="black" d="M1044.32,-243.34C1056.01,-238.16 1070.91,-231.57 1079.94,-227.57"/>
</g>
<!-- action&#45;47 -->
<g id="node26" class="node">
<title>action&#45;47</title>
<polygon fill="white" stroke="black" points="1044,-215 1008,-215 1008,-179 1044,-179 1044,-215"/>
</g>
<!-- action&#45;47&#45;&#45;cluster&#45;10 -->
<g id="edge41" class="edge">
<title>action&#45;47&#45;&#45;cluster&#45;10</title>
<path fill="none" stroke="black" d="M1044.32,-204.66C1056.01,-209.84 1070.91,-216.43 1079.94,-220.43"/>
</g>
<!-- action&#45;48 -->
<g id="node27" class="node">
<title>action&#45;48</title>
<polygon fill="white" stroke="black" points="1170,-242 1134,-242 1134,-206 1170,-206 1170,-242"/>
</g>
<!-- cluster&#45;11 -->
<g id="node53" class="node">
<title>cluster&#45;11</title>
<polygon fill="black" stroke="black" stroke-width="0" points="1224,-192 1206,-192 1206,-174 1224,-174 1224,-192"/>
</g>
<!-- action&#45;48&#45;&#45;cluster&#45;11 -->
<g id="edge42" class="edge">
<title>action&#45;48&#45;&#45;cluster&#45;11</title>
<path fill="none" stroke="black" d="M1170.32,-212.36C1182.01,-204.5 1196.91,-194.49 1205.94,-188.42"/>
</g>
<!-- action&#45;51 -->
<g id="node28" class="node">
<title>action&#45;51</title>
<polygon fill="white" stroke="black" points="1170,-188 1134,-188 1134,-152 1170,-152 1170,-188"/>
</g>
<!-- action&#45;51&#45;&#45;cluster&#45;11 -->
<g id="edge43" class="edge">
<title>action&#45;51&#45;&#45;cluster&#45;11</title>
<path fill="none" stroke="black" d="M1170.32,-173.69C1182.01,-176.18 1196.91,-179.36 1205.94,-181.28"/>
</g>
<!-- action&#45;52 -->
<g id="node29" class="node">
<title>action&#45;52</title>
<polygon fill="white" stroke="black" points="1296,-201 1260,-201 1260,-165 1296,-165 1296,-201"/>
</g>
<!-- cluster&#45;12 -->
<g id="node54" class="node">
<title>cluster&#45;12</title>
<polygon fill="black" stroke="black" stroke-width="0" points="1350,-138 1332,-138 1332,-120 1350,-120 1350,-138"/>
</g>
<!-- action&#45;52&#45;&#45;cluster&#45;12 -->
<g id="edge44" class="edge">
<title>action&#45;52&#45;&#45;cluster&#45;12</title>
<path fill="none" stroke="black" d="M1296.32,-167.67C1308.01,-157.32 1322.91,-144.13 1331.94,-136.14"/>
</g>
<!-- action&#45;55 -->
<g id="node30" class="node">
<title>action&#45;55</title>
<polygon fill="white" stroke="black" points="1296,-147 1260,-147 1260,-111 1296,-111 1296,-147"/>
</g>
<!-- action&#45;55&#45;&#45;cluster&#45;12 -->
<g id="edge45" class="edge">
<title>action&#45;55&#45;&#45;cluster&#45;12</title>
<path fill="none" stroke="black" d="M1296.32,-129C1308.01,-129 1322.91,-129 1331.94,-129"/>
</g>
<!-- action&#45;56 -->
<g id="node31" class="node">
<title>action&#45;56</title>
<polygon fill="white" stroke="black" points="1422,-147 1386,-147 1386,-111 1422,-111 1422,-147"/>
</g>
<!-- cluster&#45;14 -->
<g id="node56" class="node">
<title>cluster&#45;14</title>
<polygon fill="black" stroke="black" stroke-width="0" points="1476,-84 1458,-84 1458,-66 1476,-66 1476,-84"/>
</g>
<!-- action&#45;56&#45;&#45;cluster&#45;14 -->
<g id="edge48" class="edge">
<title>action&#45;56&#45;&#45;cluster&#45;14</title>
<path fill="none" stroke="black" d="M1422.32,-113.67C1434.01,-103.32 1448.91,-90.13 1457.94,-82.14"/>
</g>
<!-- action&#45;59 -->
<g id="node32" class="node">
<title>action&#45;59</title>
<polygon fill="white" stroke="black" points="1422,-245 1386,-245 1386,-209 1422,-209 1422,-245"/>
</g>
<!-- action&#45;59&#45;&#45;cluster&#45;13 -->
<g id="edge47" class="edge">
<title>action&#45;59&#45;&#45;cluster&#45;13</title>
<path fill="none" stroke="black" d="M1422.32,-228.42C1434.01,-229.38 1448.91,-230.6 1457.94,-231.34"/>
</g>
<!-- action&#45;60 -->
<g id="node33" class="node">
<title>action&#45;60</title>
<polygon fill="white" stroke="black" points="1548,-250 1512,-250 1512,-214 1548,-214 1548,-250"/>
</g>
<!-- cluster&#45;16 -->
<g id="node58" class="node">
<title>cluster&#45;16</title>
<polygon fill="black" stroke="black" stroke-width="0" points="1602,-189 1584,-189 1584,-171 1602,-171 1602,-189"/>
</g>
<!-- action&#45;60&#45;&#45;cluster&#45;16 -->
<g id="edge52" class="edge">
<title>action&#45;60&#45;&#45;cluster&#45;16</title>
<path fill="none" stroke="black" d="M1548.32,-217.24C1560.01,-207.27 1574.91,-194.57 1583.94,-186.88"/>
</g>
<!-- action&#45;63 -->
<g id="node34" class="node">
<title>action&#45;63</title>
<polygon fill="white" stroke="black" points="1422,-93 1386,-93 1386,-57 1422,-57 1422,-93"/>
</g>
<!-- action&#45;63&#45;&#45;cluster&#45;14 -->
<g id="edge49" class="edge">
<title>action&#45;63&#45;&#45;cluster&#45;14</title>
<path fill="none" stroke="black" d="M1422.32,-75C1434.01,-75 1448.91,-75 1457.94,-75"/>
</g>
<!-- action&#45;64 -->
<g id="node35" class="node">
<title>action&#45;64</title>
<polygon fill="white" stroke="black" points="1548,-93 1512,-93 1512,-57 1548,-57 1548,-93"/>
</g>
<!-- cluster&#45;15 -->
<g id="node57" class="node">
<title>cluster&#45;15</title>
<polygon fill="black" stroke="black" stroke-width="0" points="1602,-81 1584,-81 1584,-63 1602,-63 1602,-81"/>
</g>
<!-- action&#45;64&#45;&#45;cluster&#45;15 -->
<g id="edge50" class="edge">
<title>action&#45;64&#45;&#45;cluster&#45;15</title>
<path fill="none" stroke="black" d="M1548.32,-74.15C1560.01,-73.57 1574.91,-72.84 1583.94,-72.4"/>
</g>
<!-- action&#45;67 -->
<g id="node36" class="node">
<title>action&#45;67</title>
<polygon fill="white" stroke="black" points="1548,-39 1512,-39 1512,-3 1548,-3 1548,-39"/>
</g>
<!-- action&#45;67&#45;&#45;cluster&#45;15 -->
<g id="edge51" class="edge">
<title>action&#45;67&#45;&#45;cluster&#45;15</title>
<path fill="none" stroke="black" d="M1548.32,-35.48C1560.01,-45.26 1574.91,-57.71 1583.94,-65.26"/>
</g>
<!-- action&#45;68 -->
<g id="node37" class="node">
<title>action&#45;68</title>
<polygon fill="#c9211e" stroke="black" points="1674,-90 1638,-90 1638,-54 1674,-54 1674,-90"/>
</g>
<!-- cluster&#45;18 -->
<g id="node60" class="node">
<title>cluster&#45;18</title>
<polygon fill="black" stroke="black" stroke-width="0" points="1728,-81 1710,-81 1710,-63 1728,-63 1728,-81"/>
</g>
<!-- action&#45;68&#45;&#45;cluster&#45;18 -->
<g id="edge56" class="edge">
<title>action&#45;68&#45;&#45;cluster&#45;18</title>
<path fill="none" stroke="black" d="M1674.32,-72C1686.01,-72 1700.91,-72 1709.94,-72"/>
</g>
<!-- action&#45;71 -->
<g id="node38" class="node">
<title>action&#45;71</title>
<polygon fill="white" stroke="black" points="1548,-196 1512,-196 1512,-160 1548,-160 1548,-196"/>
</g>
<!-- action&#45;71&#45;&#45;cluster&#45;16 -->
<g id="edge53" class="edge">
<title>action&#45;71&#45;&#45;cluster&#45;16</title>
<path fill="none" stroke="black" d="M1548.32,-178.57C1560.01,-178.95 1574.91,-179.44 1583.94,-179.74"/>
</g>
<!-- action&#45;72 -->
<g id="node39" class="node">
<title>action&#45;72</title>
<polygon fill="white" stroke="black" points="1674,-198 1638,-198 1638,-162 1674,-162 1674,-198"/>
</g>
<!-- cluster&#45;17 -->
<g id="node59" class="node">
<title>cluster&#45;17</title>
<polygon fill="black" stroke="black" stroke-width="0" points="1728,-135 1710,-135 1710,-117 1728,-117 1728,-135"/>
</g>
<!-- action&#45;72&#45;&#45;cluster&#45;17 -->
<g id="edge54" class="edge">
<title>action&#45;72&#45;&#45;cluster&#45;17</title>
<path fill="none" stroke="black" d="M1674.32,-164.67C1686.01,-154.32 1700.91,-141.13 1709.94,-133.14"/>
</g>
<!-- action&#45;75 -->
<g id="node40" class="node">
<title>action&#45;75</title>
<polygon fill="white" stroke="black" points="1674,-144 1638,-144 1638,-108 1674,-108 1674,-144"/>
</g>
<!-- action&#45;75&#45;&#45;cluster&#45;17 -->
<g id="edge55" class="edge">
<title>action&#45;75&#45;&#45;cluster&#45;17</title>
<path fill="none" stroke="black" d="M1674.32,-126C1686.01,-126 1700.91,-126 1709.94,-126"/>
</g>
<!-- action&#45;79 -->
<g id="node41" class="node">
<title>action&#45;79</title>
<polygon fill="#00008b" stroke="black" points="1674,-36 1638,-36 1638,0 1674,0 1674,-36"/>
</g>
<!-- action&#45;79&#45;&#45;cluster&#45;18 -->
<g id="edge57" class="edge">
<title>action&#45;79&#45;&#45;cluster&#45;18</title>
<path fill="none" stroke="black" d="M1674.32,-33.33C1686.01,-43.68 1700.91,-56.87 1709.94,-64.86"/>
</g>
<!-- cluster&#45;0&#45;&#45;action&#45;4 -->
<g id="edge1" class="edge">
<title>cluster&#45;0&#45;&#45;action&#45;4</title>
<path fill="none" stroke="black" d="M90.23,-440C99.33,-440 114.26,-440 125.92,-440"/>
</g>
<!-- cluster&#45;1&#45;&#45;action&#45;8 -->
<g id="edge2" class="edge">
<title>cluster&#45;1&#45;&#45;action&#45;8</title>
<path fill="none" stroke="black" d="M216.23,-413C225.33,-413 240.26,-413 251.92,-413"/>
</g>
<!-- cluster&#45;2&#45;&#45;action&#45;14 -->
<g id="edge3" class="edge">
<title>cluster&#45;2&#45;&#45;action&#45;14</title>
<path fill="none" stroke="black" d="M1224.23,-325C1233.33,-325 1248.26,-325 1259.92,-325"/>
</g>
<!-- cluster&#45;3&#45;&#45;action&#45;18 -->
<g id="edge4" class="edge">
<title>cluster&#45;3&#45;&#45;action&#45;18</title>
<path fill="none" stroke="black" d="M1350.23,-281C1359.33,-281 1374.26,-281 1385.92,-281"/>
</g>
<!-- cluster&#45;4&#45;&#45;action&#45;22 -->
<g id="edge5" class="edge">
<title>cluster&#45;4&#45;&#45;action&#45;22</title>
<path fill="none" stroke="black" d="M342.23,-386C351.33,-386 366.26,-386 377.92,-386"/>
</g>
<!-- cluster&#45;5&#45;&#45;action&#45;26 -->
<g id="edge6" class="edge">
<title>cluster&#45;5&#45;&#45;action&#45;26</title>
<path fill="none" stroke="black" d="M468.23,-359C477.33,-359 492.26,-359 503.92,-359"/>
</g>
<!-- cluster&#45;6&#45;&#45;action&#45;32 -->
<g id="edge7" class="edge">
<title>cluster&#45;6&#45;&#45;action&#45;32</title>
<path fill="none" stroke="black" d="M594.23,-332C603.33,-332 618.26,-332 629.92,-332"/>
</g>
<!-- cluster&#45;7&#45;&#45;action&#45;36 -->
<g id="edge8" class="edge">
<title>cluster&#45;7&#45;&#45;action&#45;36</title>
<path fill="none" stroke="black" d="M720.23,-305C729.33,-305 744.26,-305 755.92,-305"/>
</g>
<!-- cluster&#45;8&#45;&#45;action&#45;40 -->
<g id="edge9" class="edge">
<title>cluster&#45;8&#45;&#45;action&#45;40</title>
<path fill="none" stroke="black" d="M846.23,-278C855.33,-278 870.26,-278 881.92,-278"/>
</g>
<!-- cluster&#45;9&#45;&#45;action&#45;44 -->
<g id="edge10" class="edge">
<title>cluster&#45;9&#45;&#45;action&#45;44</title>
<path fill="none" stroke="black" d="M972.23,-251C981.33,-251 996.26,-251 1007.92,-251"/>
</g>
<!-- cluster&#45;10&#45;&#45;action&#45;48 -->
<g id="edge11" class="edge">
<title>cluster&#45;10&#45;&#45;action&#45;48</title>
<path fill="none" stroke="black" d="M1098.23,-224C1107.33,-224 1122.26,-224 1133.92,-224"/>
</g>
<!-- cluster&#45;11&#45;&#45;action&#45;52 -->
<g id="edge12" class="edge">
<title>cluster&#45;11&#45;&#45;action&#45;52</title>
<path fill="none" stroke="black" d="M1224.23,-183C1233.33,-183 1248.26,-183 1259.92,-183"/>
</g>
<!-- cluster&#45;12&#45;&#45;action&#45;56 -->
<g id="edge13" class="edge">
<title>cluster&#45;12&#45;&#45;action&#45;56</title>
<path fill="none" stroke="black" d="M1350.23,-129C1359.33,-129 1374.26,-129 1385.92,-129"/>
</g>
<!-- cluster&#45;13&#45;&#45;action&#45;60 -->
<g id="edge14" class="edge">
<title>cluster&#45;13&#45;&#45;action&#45;60</title>
<path fill="none" stroke="black" d="M1476.23,-232C1485.33,-232 1500.26,-232 1511.92,-232"/>
</g>
<!-- cluster&#45;14&#45;&#45;action&#45;64 -->
<g id="edge15" class="edge">
<title>cluster&#45;14&#45;&#45;action&#45;64</title>
<path fill="none" stroke="black" d="M1476.23,-75C1485.33,-75 1500.26,-75 1511.92,-75"/>
</g>
<!-- cluster&#45;15&#45;&#45;action&#45;68 -->
<g id="edge16" class="edge">
<title>cluster&#45;15&#45;&#45;action&#45;68</title>
<path fill="none" stroke="black" d="M1602.23,-72C1611.33,-72 1626.26,-72 1637.92,-72"/>
</g>
<!-- cluster&#45;16&#45;&#45;action&#45;72 -->
<g id="edge17" class="edge">
<title>cluster&#45;16&#45;&#45;action&#45;72</title>
<path fill="none" stroke="black" d="M1602.23,-180C1611.33,-180 1626.26,-180 1637.92,-180"/>
</g>
<!-- cluster&#45;17&#45;&#45;action&#45;76 -->
<g id="edge18" class="edge">
<title>cluster&#45;17&#45;&#45;action&#45;76</title>
<path fill="none" stroke="black" d="M1728.23,-126C1737.33,-126 1752.26,-126 1763.92,-126"/>
</g>
<!-- cluster&#45;18&#45;&#45;action&#45;80 -->
<g id="edge19" class="edge">
<title>cluster&#45;18&#45;&#45;action&#45;80</title>
<path fill="none" stroke="black" d="M1728.23,-72C1737.33,-72 1752.26,-72 1763.92,-72"/>
</g>
</g>
</svg>
