<?xml version="1.0" encoding="UTF-8" standalone="no"?>
<!DOCTYPE svg PUBLIC "-//W3C//DTD SVG 1.1//EN"
 "http://www.w3.org/Graphics/SVG/1.1/DTD/svg11.dtd">
<!-- Generated by graphviz version 2.43.0 (0)
 -->
<!-- Title: g Pages: 1 -->
<svg width="2076pt" height="573pt"
 viewBox="0.00 0.00 2076.00 573.00" xmlns="http://www.w3.org/2000/svg" xmlns:xlink="http://www.w3.org/1999/xlink">
<g id="graph0" class="graph" transform="scale(1 1) rotate(0) translate(4 569)">
<title>g</title>
<polygon fill="white" stroke="transparent" points="-4,4 -4,-569 2072,-569 2072,4 -4,4"/>
<g id="clust1" class="cluster">
<title>cluster_actionlib</title>
<polygon fill="none" stroke="black" points="2008,-46 2008,-206 2060,-206 2060,-46 2008,-46"/>
</g>
<!-- action&#45;29 -->
<g id="node1" class="node">
<title>action&#45;29</title>
<polygon fill="white" stroke="black" stroke-width="4" points="2052,-198 2016,-198 2016,-162 2052,-162 2052,-198"/>
</g>
<!-- action&#45;88 -->
<g id="node2" class="node">
<title>action&#45;88</title>
<polygon fill="white" stroke="black" stroke-width="4" points="2052,-144 2016,-144 2016,-108 2052,-108 2052,-144"/>
</g>
<!-- action&#45;92 -->
<g id="node3" class="node">
<title>action&#45;92</title>
<polygon fill="#008000" stroke="black" stroke-width="4" points="2052,-90 2016,-90 2016,-54 2052,-54 2052,-90"/>
</g>
<!-- action&#45;1 -->
<g id="node4" class="node">
<title>action&#45;1</title>
<polygon fill="white" stroke="black" points="36,-565 0,-565 0,-529 36,-529 36,-565"/>
</g>
<!-- cluster&#45;0 -->
<g id="node48" class="node">
<title>cluster&#45;0</title>
<polygon fill="black" stroke="black" stroke-width="0" points="90,-529 72,-529 72,-511 90,-511 90,-529"/>
</g>
<!-- action&#45;1&#45;&#45;cluster&#45;0 -->
<g id="edge23" class="edge">
<title>action&#45;1&#45;&#45;cluster&#45;0</title>
<path fill="none" stroke="black" d="M36.32,-539.34C48.01,-534.16 62.91,-527.57 71.94,-523.57"/>
</g>
<!-- action&#45;3 -->
<g id="node5" class="node">
<title>action&#45;3</title>
<polygon fill="white" stroke="black" points="36,-511 0,-511 0,-475 36,-475 36,-511"/>
</g>
<!-- action&#45;3&#45;&#45;cluster&#45;0 -->
<g id="edge24" class="edge">
<title>action&#45;3&#45;&#45;cluster&#45;0</title>
<path fill="none" stroke="black" d="M36.32,-500.66C48.01,-505.84 62.91,-512.43 71.94,-516.43"/>
</g>
<!-- action&#45;4 -->
<g id="node6" class="node">
<title>action&#45;4</title>
<polygon fill="white" stroke="black" points="162,-538 126,-538 126,-502 162,-502 162,-538"/>
</g>
<!-- cluster&#45;1 -->
<g id="node49" class="node">
<title>cluster&#45;1</title>
<polygon fill="black" stroke="black" stroke-width="0" points="216,-502 198,-502 198,-484 216,-484 216,-502"/>
</g>
<!-- action&#45;4&#45;&#45;cluster&#45;1 -->
<g id="edge25" class="edge">
<title>action&#45;4&#45;&#45;cluster&#45;1</title>
<path fill="none" stroke="black" d="M162.32,-512.34C174.01,-507.16 188.91,-500.57 197.94,-496.57"/>
</g>
<!-- action&#45;7 -->
<g id="node7" class="node">
<title>action&#45;7</title>
<polygon fill="white" stroke="black" points="162,-484 126,-484 126,-448 162,-448 162,-484"/>
</g>
<!-- action&#45;7&#45;&#45;cluster&#45;1 -->
<g id="edge26" class="edge">
<title>action&#45;7&#45;&#45;cluster&#45;1</title>
<path fill="none" stroke="black" d="M162.32,-473.66C174.01,-478.84 188.91,-485.43 197.94,-489.43"/>
</g>
<!-- action&#45;8 -->
<g id="node8" class="node">
<title>action&#45;8</title>
<polygon fill="white" stroke="black" points="288,-511 252,-511 252,-475 288,-475 288,-511"/>
</g>
<!-- cluster&#45;4 -->
<g id="node52" class="node">
<title>cluster&#45;4</title>
<polygon fill="black" stroke="black" stroke-width="0" points="342,-475 324,-475 324,-457 342,-457 342,-475"/>
</g>
<!-- action&#45;8&#45;&#45;cluster&#45;4 -->
<g id="edge31" class="edge">
<title>action&#45;8&#45;&#45;cluster&#45;4</title>
<path fill="none" stroke="black" d="M288.32,-485.34C300.01,-480.16 314.91,-473.57 323.94,-469.57"/>
</g>
<!-- action&#45;11 -->
<g id="node9" class="node">
<title>action&#45;11</title>
<polygon fill="white" stroke="black" points="1296,-430 1260,-430 1260,-394 1296,-394 1296,-430"/>
</g>
<!-- cluster&#45;2 -->
<g id="node50" class="node">
<title>cluster&#45;2</title>
<polygon fill="black" stroke="black" stroke-width="0" points="1350,-387 1332,-387 1332,-369 1350,-369 1350,-387"/>
</g>
<!-- action&#45;11&#45;&#45;cluster&#45;2 -->
<g id="edge27" class="edge">
<title>action&#45;11&#45;&#45;cluster&#45;2</title>
<path fill="none" stroke="black" d="M1296.32,-402.35C1308.01,-395.83 1322.91,-387.53 1331.94,-382.5"/>
</g>
<!-- action&#45;13 -->
<g id="node10" class="node">
<title>action&#45;13</title>
<polygon fill="white" stroke="black" points="1296,-376 1260,-376 1260,-340 1296,-340 1296,-376"/>
</g>
<!-- action&#45;13&#45;&#45;cluster&#45;2 -->
<g id="edge28" class="edge">
<title>action&#45;13&#45;&#45;cluster&#45;2</title>
<path fill="none" stroke="black" d="M1296.32,-363.68C1308.01,-367.51 1322.91,-372.4 1331.94,-375.36"/>
</g>
<!-- action&#45;14 -->
<g id="node11" class="node">
<title>action&#45;14</title>
<polygon fill="white" stroke="black" points="1422,-396 1386,-396 1386,-360 1422,-360 1422,-396"/>
</g>
<!-- cluster&#45;3 -->
<g id="node51" class="node">
<title>cluster&#45;3</title>
<polygon fill="black" stroke="black" stroke-width="0" points="1476,-343 1458,-343 1458,-325 1476,-325 1476,-343"/>
</g>
<!-- action&#45;14&#45;&#45;cluster&#45;3 -->
<g id="edge29" class="edge">
<title>action&#45;14&#45;&#45;cluster&#45;3</title>
<path fill="none" stroke="black" d="M1422.32,-365.51C1434.01,-357.07 1448.91,-346.33 1457.94,-339.82"/>
</g>
<!-- action&#45;17 -->
<g id="node12" class="node">
<title>action&#45;17</title>
<polygon fill="white" stroke="black" points="1422,-342 1386,-342 1386,-306 1422,-306 1422,-342"/>
</g>
<!-- action&#45;17&#45;&#45;cluster&#45;3 -->
<g id="edge30" class="edge">
<title>action&#45;17&#45;&#45;cluster&#45;3</title>
<path fill="none" stroke="black" d="M1422.32,-326.84C1434.01,-328.76 1448.91,-331.2 1457.94,-332.68"/>
</g>
<!-- action&#45;18 -->
<g id="node13" class="node">
<title>action&#45;18</title>
<polygon fill="white" stroke="black" points="1548,-352 1512,-352 1512,-316 1548,-316 1548,-352"/>
</g>
<!-- cluster&#45;13 -->
<g id="node61" class="node">
<title>cluster&#45;13</title>
<polygon fill="black" stroke="black" stroke-width="0" points="1602,-294 1584,-294 1584,-276 1602,-276 1602,-294"/>
</g>
<!-- action&#45;18&#45;&#45;cluster&#45;13 -->
<g id="edge49" class="edge">
<title>action&#45;18&#45;&#45;cluster&#45;13</title>
<path fill="none" stroke="black" d="M1548.32,-320.09C1560.01,-310.7 1574.91,-298.73 1583.94,-291.48"/>
</g>
<!-- action&#45;21 -->
<g id="node14" class="node">
<title>action&#45;21</title>
<polygon fill="white" stroke="black" points="288,-457 252,-457 252,-421 288,-421 288,-457"/>
</g>
<!-- action&#45;21&#45;&#45;cluster&#45;4 -->
<g id="edge32" class="edge">
<title>action&#45;21&#45;&#45;cluster&#45;4</title>
<path fill="none" stroke="black" d="M288.32,-446.66C300.01,-451.84 314.91,-458.43 323.94,-462.43"/>
</g>
<!-- action&#45;22 -->
<g id="node15" class="node">
<title>action&#45;22</title>
<polygon fill="white" stroke="black" points="414,-484 378,-484 378,-448 414,-448 414,-484"/>
</g>
<!-- cluster&#45;5 -->
<g id="node53" class="node">
<title>cluster&#45;5</title>
<polygon fill="black" stroke="black" stroke-width="0" points="468,-448 450,-448 450,-430 468,-430 468,-448"/>
</g>
<!-- action&#45;22&#45;&#45;cluster&#45;5 -->
<g id="edge33" class="edge">
<title>action&#45;22&#45;&#45;cluster&#45;5</title>
<path fill="none" stroke="black" d="M414.32,-458.34C426.01,-453.16 440.91,-446.57 449.94,-442.57"/>
</g>
<!-- action&#45;25 -->
<g id="node16" class="node">
<title>action&#45;25</title>
<polygon fill="white" stroke="black" points="414,-430 378,-430 378,-394 414,-394 414,-430"/>
</g>
<!-- action&#45;25&#45;&#45;cluster&#45;5 -->
<g id="edge34" class="edge">
<title>action&#45;25&#45;&#45;cluster&#45;5</title>
<path fill="none" stroke="black" d="M414.32,-419.66C426.01,-424.84 440.91,-431.43 449.94,-435.43"/>
</g>
<!-- action&#45;26 -->
<g id="node17" class="node">
<title>action&#45;26</title>
<polygon fill="white" stroke="black" points="540,-457 504,-457 504,-421 540,-421 540,-457"/>
</g>
<!-- cluster&#45;6 -->
<g id="node54" class="node">
<title>cluster&#45;6</title>
<polygon fill="black" stroke="black" stroke-width="0" points="594,-421 576,-421 576,-403 594,-403 594,-421"/>
</g>
<!-- action&#45;26&#45;&#45;cluster&#45;6 -->
<g id="edge35" class="edge">
<title>action&#45;26&#45;&#45;cluster&#45;6</title>
<path fill="none" stroke="black" d="M540.32,-431.34C552.01,-426.16 566.91,-419.57 575.94,-415.57"/>
</g>
<!-- action&#45;31 -->
<g id="node18" class="node">
<title>action&#45;31</title>
<polygon fill="white" stroke="black" points="540,-403 504,-403 504,-367 540,-367 540,-403"/>
</g>
<!-- action&#45;31&#45;&#45;cluster&#45;6 -->
<g id="edge36" class="edge">
<title>action&#45;31&#45;&#45;cluster&#45;6</title>
<path fill="none" stroke="black" d="M540.32,-392.66C552.01,-397.84 566.91,-404.43 575.94,-408.43"/>
</g>
<!-- action&#45;32 -->
<g id="node19" class="node">
<title>action&#45;32</title>
<polygon fill="white" stroke="black" points="666,-430 630,-430 630,-394 666,-394 666,-430"/>
</g>
<!-- cluster&#45;7 -->
<g id="node55" class="node">
<title>cluster&#45;7</title>
<polygon fill="black" stroke="black" stroke-width="0" points="720,-394 702,-394 702,-376 720,-376 720,-394"/>
</g>
<!-- action&#45;32&#45;&#45;cluster&#45;7 -->
<g id="edge37" class="edge">
<title>action&#45;32&#45;&#45;cluster&#45;7</title>
<path fill="none" stroke="black" d="M666.32,-404.34C678.01,-399.16 692.91,-392.57 701.94,-388.57"/>
</g>
<!-- action&#45;35 -->
<g id="node20" class="node">
<title>action&#45;35</title>
<polygon fill="white" stroke="black" points="666,-376 630,-376 630,-340 666,-340 666,-376"/>
</g>
<!-- action&#45;35&#45;&#45;cluster&#45;7 -->
<g id="edge38" class="edge">
<title>action&#45;35&#45;&#45;cluster&#45;7</title>
<path fill="none" stroke="black" d="M666.32,-365.66C678.01,-370.84 692.91,-377.43 701.94,-381.43"/>
</g>
<!-- action&#45;36 -->
<g id="node21" class="node">
<title>action&#45;36</title>
<polygon fill="white" stroke="black" points="792,-403 756,-403 756,-367 792,-367 792,-403"/>
</g>
<!-- cluster&#45;8 -->
<g id="node56" class="node">
<title>cluster&#45;8</title>
<polygon fill="black" stroke="black" stroke-width="0" points="846,-367 828,-367 828,-349 846,-349 846,-367"/>
</g>
<!-- action&#45;36&#45;&#45;cluster&#45;8 -->
<g id="edge39" class="edge">
<title>action&#45;36&#45;&#45;cluster&#45;8</title>
<path fill="none" stroke="black" d="M792.32,-377.34C804.01,-372.16 818.91,-365.57 827.94,-361.57"/>
</g>
<!-- action&#45;39 -->
<g id="node22" class="node">
<title>action&#45;39</title>
<polygon fill="white" stroke="black" points="792,-349 756,-349 756,-313 792,-313 792,-349"/>
</g>
<!-- action&#45;39&#45;&#45;cluster&#45;8 -->
<g id="edge40" class="edge">
<title>action&#45;39&#45;&#45;cluster&#45;8</title>
<path fill="none" stroke="black" d="M792.32,-338.66C804.01,-343.84 818.91,-350.43 827.94,-354.43"/>
</g>
<!-- action&#45;40 -->
<g id="node23" class="node">
<title>action&#45;40</title>
<polygon fill="white" stroke="black" points="918,-376 882,-376 882,-340 918,-340 918,-376"/>
</g>
<!-- cluster&#45;9 -->
<g id="node57" class="node">
<title>cluster&#45;9</title>
<polygon fill="black" stroke="black" stroke-width="0" points="972,-340 954,-340 954,-322 972,-322 972,-340"/>
</g>
<!-- action&#45;40&#45;&#45;cluster&#45;9 -->
<g id="edge41" class="edge">
<title>action&#45;40&#45;&#45;cluster&#45;9</title>
<path fill="none" stroke="black" d="M918.32,-350.34C930.01,-345.16 944.91,-338.57 953.94,-334.57"/>
</g>
<!-- action&#45;43 -->
<g id="node24" class="node">
<title>action&#45;43</title>
<polygon fill="white" stroke="black" points="918,-322 882,-322 882,-286 918,-286 918,-322"/>
</g>
<!-- action&#45;43&#45;&#45;cluster&#45;9 -->
<g id="edge42" class="edge">
<title>action&#45;43&#45;&#45;cluster&#45;9</title>
<path fill="none" stroke="black" d="M918.32,-311.66C930.01,-316.84 944.91,-323.43 953.94,-327.43"/>
</g>
<!-- action&#45;44 -->
<g id="node25" class="node">
<title>action&#45;44</title>
<polygon fill="white" stroke="black" points="1044,-349 1008,-349 1008,-313 1044,-313 1044,-349"/>
</g>
<!-- cluster&#45;10 -->
<g id="node58" class="node">
<title>cluster&#45;10</title>
<polygon fill="black" stroke="black" stroke-width="0" points="1098,-313 1080,-313 1080,-295 1098,-295 1098,-313"/>
</g>
<!-- action&#45;44&#45;&#45;cluster&#45;10 -->
<g id="edge43" class="edge">
<title>action&#45;44&#45;&#45;cluster&#45;10</title>
<path fill="none" stroke="black" d="M1044.32,-323.34C1056.01,-318.16 1070.91,-311.57 1079.94,-307.57"/>
</g>
<!-- action&#45;47 -->
<g id="node26" class="node">
<title>action&#45;47</title>
<polygon fill="white" stroke="black" points="1044,-295 1008,-295 1008,-259 1044,-259 1044,-295"/>
</g>
<!-- action&#45;47&#45;&#45;cluster&#45;10 -->
<g id="edge44" class="edge">
<title>action&#45;47&#45;&#45;cluster&#45;10</title>
<path fill="none" stroke="black" d="M1044.32,-284.66C1056.01,-289.84 1070.91,-296.43 1079.94,-300.43"/>
</g>
<!-- action&#45;48 -->
<g id="node27" class="node">
<title>action&#45;48</title>
<polygon fill="white" stroke="black" points="1170,-322 1134,-322 1134,-286 1170,-286 1170,-322"/>
</g>
<!-- cluster&#45;11 -->
<g id="node59" class="node">
<title>cluster&#45;11</title>
<polygon fill="black" stroke="black" stroke-width="0" points="1224,-286 1206,-286 1206,-268 1224,-268 1224,-286"/>
</g>
<!-- action&#45;48&#45;&#45;cluster&#45;11 -->
<g id="edge45" class="edge">
<title>action&#45;48&#45;&#45;cluster&#45;11</title>
<path fill="none" stroke="black" d="M1170.32,-296.34C1182.01,-291.16 1196.91,-284.57 1205.94,-280.57"/>
</g>
<!-- action&#45;51 -->
<g id="node28" class="node">
<title>action&#45;51</title>
<polygon fill="white" stroke="black" points="1170,-268 1134,-268 1134,-232 1170,-232 1170,-268"/>
</g>
<!-- action&#45;51&#45;&#45;cluster&#45;11 -->
<g id="edge46" class="edge">
<title>action&#45;51&#45;&#45;cluster&#45;11</title>
<path fill="none" stroke="black" d="M1170.32,-257.66C1182.01,-262.84 1196.91,-269.43 1205.94,-273.43"/>
</g>
<!-- action&#45;52 -->
<g id="node29" class="node">
<title>action&#45;52</title>
<polygon fill="white" stroke="black" points="1296,-295 1260,-295 1260,-259 1296,-259 1296,-295"/>
</g>
<!-- cluster&#45;12 -->
<g id="node60" class="node">
<title>cluster&#45;12</title>
<polygon fill="black" stroke="black" stroke-width="0" points="1350,-245 1332,-245 1332,-227 1350,-227 1350,-245"/>
</g>
<!-- action&#45;52&#45;&#45;cluster&#45;12 -->
<g id="edge47" class="edge">
<title>action&#45;52&#45;&#45;cluster&#45;12</title>
<path fill="none" stroke="black" d="M1296.32,-265.36C1308.01,-257.5 1322.91,-247.49 1331.94,-241.42"/>
</g>
<!-- action&#45;55 -->
<g id="node30" class="node">
<title>action&#45;55</title>
<polygon fill="white" stroke="black" points="1296,-241 1260,-241 1260,-205 1296,-205 1296,-241"/>
</g>
<!-- action&#45;55&#45;&#45;cluster&#45;12 -->
<g id="edge48" class="edge">
<title>action&#45;55&#45;&#45;cluster&#45;12</title>
<path fill="none" stroke="black" d="M1296.32,-226.69C1308.01,-229.18 1322.91,-232.36 1331.94,-234.28"/>
</g>
<!-- action&#45;56 -->
<g id="node31" class="node">
<title>action&#45;56</title>
<polygon fill="white" stroke="black" points="1422,-254 1386,-254 1386,-218 1422,-218 1422,-254"/>
</g>
<!-- cluster&#45;14 -->
<g id="node62" class="node">
<title>cluster&#45;14</title>
<polygon fill="black" stroke="black" stroke-width="0" points="1476,-191 1458,-191 1458,-173 1476,-173 1476,-191"/>
</g>
<!-- action&#45;56&#45;&#45;cluster&#45;14 -->
<g id="edge51" class="edge">
<title>action&#45;56&#45;&#45;cluster&#45;14</title>
<path fill="none" stroke="black" d="M1422.32,-220.67C1434.01,-210.32 1448.91,-197.13 1457.94,-189.14"/>
</g>
<!-- action&#45;59 -->
<g id="node32" class="node">
<title>action&#45;59</title>
<polygon fill="white" stroke="black" points="1548,-298 1512,-298 1512,-262 1548,-262 1548,-298"/>
</g>
<!-- action&#45;59&#45;&#45;cluster&#45;13 -->
<g id="edge50" class="edge">
<title>action&#45;59&#45;&#45;cluster&#45;13</title>
<path fill="none" stroke="black" d="M1548.32,-281.42C1560.01,-282.38 1574.91,-283.6 1583.94,-284.34"/>
</g>
<!-- action&#45;60 -->
<g id="node33" class="node">
<title>action&#45;60</title>
<polygon fill="white" stroke="black" points="1674,-303 1638,-303 1638,-267 1674,-267 1674,-303"/>
</g>
<!-- cluster&#45;16 -->
<g id="node64" class="node">
<title>cluster&#45;16</title>
<polygon fill="black" stroke="black" stroke-width="0" points="1728,-242 1710,-242 1710,-224 1728,-224 1728,-242"/>
</g>
<!-- action&#45;60&#45;&#45;cluster&#45;16 -->
<g id="edge55" class="edge">
<title>action&#45;60&#45;&#45;cluster&#45;16</title>
<path fill="none" stroke="black" d="M1674.32,-270.24C1686.01,-260.27 1700.91,-247.57 1709.94,-239.88"/>
</g>
<!-- action&#45;63 -->
<g id="node34" class="node">
<title>action&#45;63</title>
<polygon fill="white" stroke="black" points="1422,-200 1386,-200 1386,-164 1422,-164 1422,-200"/>
</g>
<!-- action&#45;63&#45;&#45;cluster&#45;14 -->
<g id="edge52" class="edge">
<title>action&#45;63&#45;&#45;cluster&#45;14</title>
<path fill="none" stroke="black" d="M1422.32,-182C1434.01,-182 1448.91,-182 1457.94,-182"/>
</g>
<!-- action&#45;64 -->
<g id="node35" class="node">
<title>action&#45;64</title>
<polygon fill="white" stroke="black" points="1548,-200 1512,-200 1512,-164 1548,-164 1548,-200"/>
</g>
<!-- cluster&#45;15 -->
<g id="node63" class="node">
<title>cluster&#45;15</title>
<polygon fill="black" stroke="black" stroke-width="0" points="1602,-137 1584,-137 1584,-119 1602,-119 1602,-137"/>
</g>
<!-- action&#45;64&#45;&#45;cluster&#45;15 -->
<g id="edge53" class="edge">
<title>action&#45;64&#45;&#45;cluster&#45;15</title>
<path fill="none" stroke="black" d="M1548.32,-166.67C1560.01,-156.32 1574.91,-143.13 1583.94,-135.14"/>
</g>
<!-- action&#45;67 -->
<g id="node36" class="node">
<title>action&#45;67</title>
<polygon fill="white" stroke="black" points="1548,-146 1512,-146 1512,-110 1548,-110 1548,-146"/>
</g>
<!-- action&#45;67&#45;&#45;cluster&#45;15 -->
<g id="edge54" class="edge">
<title>action&#45;67&#45;&#45;cluster&#45;15</title>
<path fill="none" stroke="black" d="M1548.32,-128C1560.01,-128 1574.91,-128 1583.94,-128"/>
</g>
<!-- action&#45;68 -->
<g id="node37" class="node">
<title>action&#45;68</title>
<polygon fill="white" stroke="black" points="1674,-146 1638,-146 1638,-110 1674,-110 1674,-146"/>
</g>
<!-- cluster&#45;18 -->
<g id="node66" class="node">
<title>cluster&#45;18</title>
<polygon fill="black" stroke="black" stroke-width="0" points="1728,-83 1710,-83 1710,-65 1728,-65 1728,-83"/>
</g>
<!-- action&#45;68&#45;&#45;cluster&#45;18 -->
<g id="edge59" class="edge">
<title>action&#45;68&#45;&#45;cluster&#45;18</title>
<path fill="none" stroke="black" d="M1674.32,-112.67C1686.01,-102.32 1700.91,-89.13 1709.94,-81.14"/>
</g>
<!-- action&#45;71 -->
<g id="node38" class="node">
<title>action&#45;71</title>
<polygon fill="white" stroke="black" points="1674,-249 1638,-249 1638,-213 1674,-213 1674,-249"/>
</g>
<!-- action&#45;71&#45;&#45;cluster&#45;16 -->
<g id="edge56" class="edge">
<title>action&#45;71&#45;&#45;cluster&#45;16</title>
<path fill="none" stroke="black" d="M1674.32,-231.57C1686.01,-231.95 1700.91,-232.44 1709.94,-232.74"/>
</g>
<!-- action&#45;72 -->
<g id="node39" class="node">
<title>action&#45;72</title>
<polygon fill="white" stroke="black" points="1800,-251 1764,-251 1764,-215 1800,-215 1800,-251"/>
</g>
<!-- cluster&#45;17 -->
<g id="node65" class="node">
<title>cluster&#45;17</title>
<polygon fill="black" stroke="black" stroke-width="0" points="1854,-189 1836,-189 1836,-171 1854,-171 1854,-189"/>
</g>
<!-- action&#45;72&#45;&#45;cluster&#45;17 -->
<g id="edge57" class="edge">
<title>action&#45;72&#45;&#45;cluster&#45;17</title>
<path fill="none" stroke="black" d="M1800.32,-217.95C1812.01,-207.79 1826.91,-194.85 1835.94,-187.01"/>
</g>
<!-- action&#45;75 -->
<g id="node40" class="node">
<title>action&#45;75</title>
<polygon fill="white" stroke="black" points="1800,-197 1764,-197 1764,-161 1800,-161 1800,-197"/>
</g>
<!-- action&#45;75&#45;&#45;cluster&#45;17 -->
<g id="edge58" class="edge">
<title>action&#45;75&#45;&#45;cluster&#45;17</title>
<path fill="none" stroke="black" d="M1800.32,-179.28C1812.01,-179.48 1826.91,-179.72 1835.94,-179.87"/>
</g>
<!-- action&#45;76 -->
<g id="node41" class="node">
<title>action&#45;76</title>
<polygon fill="white" stroke="black" points="1926,-198 1890,-198 1890,-162 1926,-162 1926,-198"/>
</g>
<!-- cluster&#45;20 -->
<g id="node68" class="node">
<title>cluster&#45;20</title>
<polygon fill="black" stroke="black" stroke-width="0" points="1980,-135 1962,-135 1962,-117 1980,-117 1980,-135"/>
</g>
<!-- action&#45;76&#45;&#45;cluster&#45;20 -->
<g id="edge63" class="edge">
<title>action&#45;76&#45;&#45;cluster&#45;20</title>
<path fill="none" stroke="black" d="M1926.32,-164.67C1938.01,-154.32 1952.91,-141.13 1961.94,-133.14"/>
</g>
<!-- action&#45;79 -->
<g id="node42" class="node">
<title>action&#45;79</title>
<polygon fill="white" stroke="black" points="1674,-92 1638,-92 1638,-56 1674,-56 1674,-92"/>
</g>
<!-- action&#45;79&#45;&#45;cluster&#45;18 -->
<g id="edge60" class="edge">
<title>action&#45;79&#45;&#45;cluster&#45;18</title>
<path fill="none" stroke="black" d="M1674.32,-74C1686.01,-74 1700.91,-74 1709.94,-74"/>
</g>
<!-- action&#45;80 -->
<g id="node43" class="node">
<title>action&#45;80</title>
<polygon fill="white" stroke="black" points="1800,-92 1764,-92 1764,-56 1800,-56 1800,-92"/>
</g>
<!-- cluster&#45;19 -->
<g id="node67" class="node">
<title>cluster&#45;19</title>
<polygon fill="black" stroke="black" stroke-width="0" points="1854,-81 1836,-81 1836,-63 1854,-63 1854,-81"/>
</g>
<!-- action&#45;80&#45;&#45;cluster&#45;19 -->
<g id="edge61" class="edge">
<title>action&#45;80&#45;&#45;cluster&#45;19</title>
<path fill="none" stroke="black" d="M1800.32,-73.43C1812.01,-73.05 1826.91,-72.56 1835.94,-72.26"/>
</g>
<!-- action&#45;83 -->
<g id="node44" class="node">
<title>action&#45;83</title>
<polygon fill="white" stroke="black" points="1800,-38 1764,-38 1764,-2 1800,-2 1800,-38"/>
</g>
<!-- action&#45;83&#45;&#45;cluster&#45;19 -->
<g id="edge62" class="edge">
<title>action&#45;83&#45;&#45;cluster&#45;19</title>
<path fill="none" stroke="black" d="M1800.32,-34.76C1812.01,-44.73 1826.91,-57.43 1835.94,-65.12"/>
</g>
<!-- action&#45;84 -->
<g id="node45" class="node">
<title>action&#45;84</title>
<polygon fill="#c9211e" stroke="black" points="1926,-90 1890,-90 1890,-54 1926,-54 1926,-90"/>
</g>
<!-- cluster&#45;21 -->
<g id="node69" class="node">
<title>cluster&#45;21</title>
<polygon fill="black" stroke="black" stroke-width="0" points="1980,-81 1962,-81 1962,-63 1980,-63 1980,-81"/>
</g>
<!-- action&#45;84&#45;&#45;cluster&#45;21 -->
<g id="edge65" class="edge">
<title>action&#45;84&#45;&#45;cluster&#45;21</title>
<path fill="none" stroke="black" d="M1926.32,-72C1938.01,-72 1952.91,-72 1961.94,-72"/>
</g>
<!-- action&#45;87 -->
<g id="node46" class="node">
<title>action&#45;87</title>
<polygon fill="white" stroke="black" points="1926,-144 1890,-144 1890,-108 1926,-108 1926,-144"/>
</g>
<!-- action&#45;87&#45;&#45;cluster&#45;20 -->
<g id="edge64" class="edge">
<title>action&#45;87&#45;&#45;cluster&#45;20</title>
<path fill="none" stroke="black" d="M1926.32,-126C1938.01,-126 1952.91,-126 1961.94,-126"/>
</g>
<!-- action&#45;91 -->
<g id="node47" class="node">
<title>action&#45;91</title>
<polygon fill="#00008b" stroke="black" points="1926,-36 1890,-36 1890,0 1926,0 1926,-36"/>
</g>
<!-- action&#45;91&#45;&#45;cluster&#45;21 -->
<g id="edge66" class="edge">
<title>action&#45;91&#45;&#45;cluster&#45;21</title>
<path fill="none" stroke="black" d="M1926.32,-33.33C1938.01,-43.68 1952.91,-56.87 1961.94,-64.86"/>
</g>
<!-- cluster&#45;0&#45;&#45;action&#45;4 -->
<g id="edge1" class="edge">
<title>cluster&#45;0&#45;&#45;action&#45;4</title>
<path fill="none" stroke="black" d="M90.23,-520C99.33,-520 114.26,-520 125.92,-520"/>
</g>
<!-- cluster&#45;1&#45;&#45;action&#45;8 -->
<g id="edge2" class="edge">
<title>cluster&#45;1&#45;&#45;action&#45;8</title>
<path fill="none" stroke="black" d="M216.23,-493C225.33,-493 240.26,-493 251.92,-493"/>
</g>
<!-- cluster&#45;2&#45;&#45;action&#45;14 -->
<g id="edge3" class="edge">
<title>cluster&#45;2&#45;&#45;action&#45;14</title>
<path fill="none" stroke="black" d="M1350.23,-378C1359.33,-378 1374.26,-378 1385.92,-378"/>
</g>
<!-- cluster&#45;3&#45;&#45;action&#45;18 -->
<g id="edge4" class="edge">
<title>cluster&#45;3&#45;&#45;action&#45;18</title>
<path fill="none" stroke="black" d="M1476.23,-334C1485.33,-334 1500.26,-334 1511.92,-334"/>
</g>
<!-- cluster&#45;4&#45;&#45;action&#45;22 -->
<g id="edge5" class="edge">
<title>cluster&#45;4&#45;&#45;action&#45;22</title>
<path fill="none" stroke="black" d="M342.23,-466C351.33,-466 366.26,-466 377.92,-466"/>
</g>
<!-- cluster&#45;5&#45;&#45;action&#45;26 -->
<g id="edge6" class="edge">
<title>cluster&#45;5&#45;&#45;action&#45;26</title>
<path fill="none" stroke="black" d="M468.23,-439C477.33,-439 492.26,-439 503.92,-439"/>
</g>
<!-- cluster&#45;6&#45;&#45;action&#45;32 -->
<g id="edge7" class="edge">
<title>cluster&#45;6&#45;&#45;action&#45;32</title>
<path fill="none" stroke="black" d="M594.23,-412C603.33,-412 618.26,-412 629.92,-412"/>
</g>
<!-- cluster&#45;7&#45;&#45;action&#45;36 -->
<g id="edge8" class="edge">
<title>cluster&#45;7&#45;&#45;action&#45;36</title>
<path fill="none" stroke="black" d="M720.23,-385C729.33,-385 744.26,-385 755.92,-385"/>
</g>
<!-- cluster&#45;8&#45;&#45;action&#45;40 -->
<g id="edge9" class="edge">
<title>cluster&#45;8&#45;&#45;action&#45;40</title>
<path fill="none" stroke="black" d="M846.23,-358C855.33,-358 870.26,-358 881.92,-358"/>
</g>
<!-- cluster&#45;9&#45;&#45;action&#45;44 -->
<g id="edge10" class="edge">
<title>cluster&#45;9&#45;&#45;action&#45;44</title>
<path fill="none" stroke="black" d="M972.23,-331C981.33,-331 996.26,-331 1007.92,-331"/>
</g>
<!-- cluster&#45;10&#45;&#45;action&#45;48 -->
<g id="edge11" class="edge">
<title>cluster&#45;10&#45;&#45;action&#45;48</title>
<path fill="none" stroke="black" d="M1098.23,-304C1107.33,-304 1122.26,-304 1133.92,-304"/>
</g>
<!-- cluster&#45;11&#45;&#45;action&#45;52 -->
<g id="edge12" class="edge">
<title>cluster&#45;11&#45;&#45;action&#45;52</title>
<path fill="none" stroke="black" d="M1224.23,-277C1233.33,-277 1248.26,-277 1259.92,-277"/>
</g>
<!-- cluster&#45;12&#45;&#45;action&#45;56 -->
<g id="edge13" class="edge">
<title>cluster&#45;12&#45;&#45;action&#45;56</title>
<path fill="none" stroke="black" d="M1350.23,-236C1359.33,-236 1374.26,-236 1385.92,-236"/>
</g>
<!-- cluster&#45;13&#45;&#45;action&#45;60 -->
<g id="edge14" class="edge">
<title>cluster&#45;13&#45;&#45;action&#45;60</title>
<path fill="none" stroke="black" d="M1602.23,-285C1611.33,-285 1626.26,-285 1637.92,-285"/>
</g>
<!-- cluster&#45;14&#45;&#45;action&#45;64 -->
<g id="edge15" class="edge">
<title>cluster&#45;14&#45;&#45;action&#45;64</title>
<path fill="none" stroke="black" d="M1476.23,-182C1485.33,-182 1500.26,-182 1511.92,-182"/>
</g>
<!-- cluster&#45;15&#45;&#45;action&#45;68 -->
<g id="edge16" class="edge">
<title>cluster&#45;15&#45;&#45;action&#45;68</title>
<path fill="none" stroke="black" d="M1602.23,-128C1611.33,-128 1626.26,-128 1637.92,-128"/>
</g>
<!-- cluster&#45;16&#45;&#45;action&#45;72 -->
<g id="edge17" class="edge">
<title>cluster&#45;16&#45;&#45;action&#45;72</title>
<path fill="none" stroke="black" d="M1728.23,-233C1737.33,-233 1752.26,-233 1763.92,-233"/>
</g>
<!-- cluster&#45;17&#45;&#45;action&#45;76 -->
<g id="edge18" class="edge">
<title>cluster&#45;17&#45;&#45;action&#45;76</title>
<path fill="none" stroke="black" d="M1854.23,-180C1863.33,-180 1878.26,-180 1889.92,-180"/>
</g>
<!-- cluster&#45;18&#45;&#45;action&#45;80 -->
<g id="edge19" class="edge">
<title>cluster&#45;18&#45;&#45;action&#45;80</title>
<path fill="none" stroke="black" d="M1728.23,-74C1737.33,-74 1752.26,-74 1763.92,-74"/>
</g>
<!-- cluster&#45;19&#45;&#45;action&#45;84 -->
<g id="edge20" class="edge">
<title>cluster&#45;19&#45;&#45;action&#45;84</title>
<path fill="none" stroke="black" d="M1854.23,-72C1863.33,-72 1878.26,-72 1889.92,-72"/>
</g>
<!-- cluster&#45;20&#45;&#45;action&#45;88 -->
<g id="edge21" class="edge">
<title>cluster&#45;20&#45;&#45;action&#45;88</title>
<path fill="none" stroke="black" d="M1980.23,-126C1989.33,-126 2004.26,-126 2015.92,-126"/>
</g>
<!-- cluster&#45;21&#45;&#45;action&#45;92 -->
<g id="edge22" class="edge">
<title>cluster&#45;21&#45;&#45;action&#45;92</title>
<path fill="none" stroke="black" d="M1980.23,-72C1989.33,-72 2004.26,-72 2015.92,-72"/>
</g>
</g>
</svg>
