<?xml version="1.0" encoding="UTF-8" standalone="no"?>
<!DOCTYPE svg PUBLIC "-//W3C//DTD SVG 1.1//EN"
 "http://www.w3.org/Graphics/SVG/1.1/DTD/svg11.dtd">
<!-- Generated by graphviz version 2.43.0 (0)
 -->
<!-- Title: g Pages: 1 -->
<svg width="1068pt" height="301pt"
 viewBox="0.00 0.00 1068.00 301.00" xmlns="http://www.w3.org/2000/svg" xmlns:xlink="http://www.w3.org/1999/xlink">
<g id="graph0" class="graph" transform="scale(1 1) rotate(0) translate(4 297)">
<title>g</title>
<polygon fill="white" stroke="transparent" points="-4,4 -4,-297 1064,-297 1064,4 -4,4"/>
<g id="clust1" class="cluster">
<title>cluster_actionlib</title>
<polygon fill="none" stroke="black" points="1000,-36 1000,-196 1052,-196 1052,-36 1000,-36"/>
</g>
<!-- action&#45;18 -->
<g id="node1" class="node">
<title>action&#45;18</title>
<polygon fill="white" stroke="black" stroke-width="4" points="1044,-188 1008,-188 1008,-152 1044,-152 1044,-188"/>
</g>
<!-- action&#45;29 -->
<g id="node2" class="node">
<title>action&#45;29</title>
<polygon fill="white" stroke="black" stroke-width="4" points="1044,-134 1008,-134 1008,-98 1044,-98 1044,-134"/>
</g>
<!-- action&#45;44 -->
<g id="node3" class="node">
<title>action&#45;44</title>
<polygon fill="#008000" stroke="black" stroke-width="4" points="1044,-80 1008,-80 1008,-44 1044,-44 1044,-80"/>
</g>
<!-- action&#45;1 -->
<g id="node4" class="node">
<title>action&#45;1</title>
<polygon fill="white" stroke="black" points="36,-293 0,-293 0,-257 36,-257 36,-293"/>
</g>
<!-- cluster&#45;0 -->
<g id="node24" class="node">
<title>cluster&#45;0</title>
<polygon fill="black" stroke="black" stroke-width="0" points="90,-257 72,-257 72,-239 90,-239 90,-257"/>
</g>
<!-- action&#45;1&#45;&#45;cluster&#45;0 -->
<g id="edge11" class="edge">
<title>action&#45;1&#45;&#45;cluster&#45;0</title>
<path fill="none" stroke="black" d="M36.32,-267.34C48.01,-262.16 62.91,-255.57 71.94,-251.57"/>
</g>
<!-- action&#45;3 -->
<g id="node5" class="node">
<title>action&#45;3</title>
<polygon fill="white" stroke="black" points="36,-239 0,-239 0,-203 36,-203 36,-239"/>
</g>
<!-- action&#45;3&#45;&#45;cluster&#45;0 -->
<g id="edge12" class="edge">
<title>action&#45;3&#45;&#45;cluster&#45;0</title>
<path fill="none" stroke="black" d="M36.32,-228.66C48.01,-233.84 62.91,-240.43 71.94,-244.43"/>
</g>
<!-- action&#45;4 -->
<g id="node6" class="node">
<title>action&#45;4</title>
<polygon fill="white" stroke="black" points="162,-266 126,-266 126,-230 162,-230 162,-266"/>
</g>
<!-- cluster&#45;1 -->
<g id="node25" class="node">
<title>cluster&#45;1</title>
<polygon fill="black" stroke="black" stroke-width="0" points="216,-230 198,-230 198,-212 216,-212 216,-230"/>
</g>
<!-- action&#45;4&#45;&#45;cluster&#45;1 -->
<g id="edge13" class="edge">
<title>action&#45;4&#45;&#45;cluster&#45;1</title>
<path fill="none" stroke="black" d="M162.32,-240.34C174.01,-235.16 188.91,-228.57 197.94,-224.57"/>
</g>
<!-- action&#45;7 -->
<g id="node7" class="node">
<title>action&#45;7</title>
<polygon fill="white" stroke="black" points="162,-212 126,-212 126,-176 162,-176 162,-212"/>
</g>
<!-- action&#45;7&#45;&#45;cluster&#45;1 -->
<g id="edge14" class="edge">
<title>action&#45;7&#45;&#45;cluster&#45;1</title>
<path fill="none" stroke="black" d="M162.32,-201.66C174.01,-206.84 188.91,-213.43 197.94,-217.43"/>
</g>
<!-- action&#45;8 -->
<g id="node8" class="node">
<title>action&#45;8</title>
<polygon fill="white" stroke="black" points="288,-239 252,-239 252,-203 288,-203 288,-239"/>
</g>
<!-- cluster&#45;4 -->
<g id="node28" class="node">
<title>cluster&#45;4</title>
<polygon fill="black" stroke="black" stroke-width="0" points="342,-203 324,-203 324,-185 342,-185 342,-203"/>
</g>
<!-- action&#45;8&#45;&#45;cluster&#45;4 -->
<g id="edge19" class="edge">
<title>action&#45;8&#45;&#45;cluster&#45;4</title>
<path fill="none" stroke="black" d="M288.32,-213.34C300.01,-208.16 314.91,-201.57 323.94,-197.57"/>
</g>
<!-- action&#45;11 -->
<g id="node9" class="node">
<title>action&#45;11</title>
<polygon fill="white" stroke="black" points="792,-266 756,-266 756,-230 792,-230 792,-266"/>
</g>
<!-- cluster&#45;2 -->
<g id="node26" class="node">
<title>cluster&#45;2</title>
<polygon fill="black" stroke="black" stroke-width="0" points="846,-223 828,-223 828,-205 846,-205 846,-223"/>
</g>
<!-- action&#45;11&#45;&#45;cluster&#45;2 -->
<g id="edge15" class="edge">
<title>action&#45;11&#45;&#45;cluster&#45;2</title>
<path fill="none" stroke="black" d="M792.32,-238.35C804.01,-231.83 818.91,-223.53 827.94,-218.5"/>
</g>
<!-- action&#45;13 -->
<g id="node10" class="node">
<title>action&#45;13</title>
<polygon fill="white" stroke="black" points="792,-212 756,-212 756,-176 792,-176 792,-212"/>
</g>
<!-- action&#45;13&#45;&#45;cluster&#45;2 -->
<g id="edge16" class="edge">
<title>action&#45;13&#45;&#45;cluster&#45;2</title>
<path fill="none" stroke="black" d="M792.32,-199.68C804.01,-203.51 818.91,-208.4 827.94,-211.36"/>
</g>
<!-- action&#45;14 -->
<g id="node11" class="node">
<title>action&#45;14</title>
<polygon fill="white" stroke="black" points="918,-232 882,-232 882,-196 918,-196 918,-232"/>
</g>
<!-- cluster&#45;3 -->
<g id="node27" class="node">
<title>cluster&#45;3</title>
<polygon fill="black" stroke="black" stroke-width="0" points="972,-179 954,-179 954,-161 972,-161 972,-179"/>
</g>
<!-- action&#45;14&#45;&#45;cluster&#45;3 -->
<g id="edge17" class="edge">
<title>action&#45;14&#45;&#45;cluster&#45;3</title>
<path fill="none" stroke="black" d="M918.32,-201.51C930.01,-193.07 944.91,-182.33 953.94,-175.82"/>
</g>
<!-- action&#45;17 -->
<g id="node12" class="node">
<title>action&#45;17</title>
<polygon fill="white" stroke="black" points="918,-178 882,-178 882,-142 918,-142 918,-178"/>
</g>
<!-- action&#45;17&#45;&#45;cluster&#45;3 -->
<g id="edge18" class="edge">
<title>action&#45;17&#45;&#45;cluster&#45;3</title>
<path fill="none" stroke="black" d="M918.32,-162.84C930.01,-164.76 944.91,-167.2 953.94,-168.68"/>
</g>
<!-- action&#45;21 -->
<g id="node13" class="node">
<title>action&#45;21</title>
<polygon fill="white" stroke="black" points="288,-185 252,-185 252,-149 288,-149 288,-185"/>
</g>
<!-- action&#45;21&#45;&#45;cluster&#45;4 -->
<g id="edge20" class="edge">
<title>action&#45;21&#45;&#45;cluster&#45;4</title>
<path fill="none" stroke="black" d="M288.32,-174.66C300.01,-179.84 314.91,-186.43 323.94,-190.43"/>
</g>
<!-- action&#45;22 -->
<g id="node14" class="node">
<title>action&#45;22</title>
<polygon fill="white" stroke="black" points="414,-212 378,-212 378,-176 414,-176 414,-212"/>
</g>
<!-- cluster&#45;5 -->
<g id="node29" class="node">
<title>cluster&#45;5</title>
<polygon fill="black" stroke="black" stroke-width="0" points="468,-176 450,-176 450,-158 468,-158 468,-176"/>
</g>
<!-- action&#45;22&#45;&#45;cluster&#45;5 -->
<g id="edge21" class="edge">
<title>action&#45;22&#45;&#45;cluster&#45;5</title>
<path fill="none" stroke="black" d="M414.32,-186.34C426.01,-181.16 440.91,-174.57 449.94,-170.57"/>
</g>
<!-- action&#45;25 -->
<g id="node15" class="node">
<title>action&#45;25</title>
<polygon fill="white" stroke="black" points="414,-158 378,-158 378,-122 414,-122 414,-158"/>
</g>
<!-- action&#45;25&#45;&#45;cluster&#45;5 -->
<g id="edge22" class="edge">
<title>action&#45;25&#45;&#45;cluster&#45;5</title>
<path fill="none" stroke="black" d="M414.32,-147.66C426.01,-152.84 440.91,-159.43 449.94,-163.43"/>
</g>
<!-- action&#45;26 -->
<g id="node16" class="node">
<title>action&#45;26</title>
<polygon fill="white" stroke="black" points="540,-185 504,-185 504,-149 540,-149 540,-185"/>
</g>
<!-- cluster&#45;6 -->
<g id="node30" class="node">
<title>cluster&#45;6</title>
<polygon fill="black" stroke="black" stroke-width="0" points="594,-149 576,-149 576,-131 594,-131 594,-149"/>
</g>
<!-- action&#45;26&#45;&#45;cluster&#45;6 -->
<g id="edge23" class="edge">
<title>action&#45;26&#45;&#45;cluster&#45;6</title>
<path fill="none" stroke="black" d="M540.32,-159.34C552.01,-154.16 566.91,-147.57 575.94,-143.57"/>
</g>
<!-- action&#45;31 -->
<g id="node17" class="node">
<title>action&#45;31</title>
<polygon fill="white" stroke="black" points="540,-131 504,-131 504,-95 540,-95 540,-131"/>
</g>
<!-- action&#45;31&#45;&#45;cluster&#45;6 -->
<g id="edge24" class="edge">
<title>action&#45;31&#45;&#45;cluster&#45;6</title>
<path fill="none" stroke="black" d="M540.32,-120.66C552.01,-125.84 566.91,-132.43 575.94,-136.43"/>
</g>
<!-- action&#45;32 -->
<g id="node18" class="node">
<title>action&#45;32</title>
<polygon fill="white" stroke="black" points="666,-158 630,-158 630,-122 666,-122 666,-158"/>
</g>
<!-- cluster&#45;7 -->
<g id="node31" class="node">
<title>cluster&#45;7</title>
<polygon fill="black" stroke="black" stroke-width="0" points="720,-122 702,-122 702,-104 720,-104 720,-122"/>
</g>
<!-- action&#45;32&#45;&#45;cluster&#45;7 -->
<g id="edge25" class="edge">
<title>action&#45;32&#45;&#45;cluster&#45;7</title>
<path fill="none" stroke="black" d="M666.32,-132.34C678.01,-127.16 692.91,-120.57 701.94,-116.57"/>
</g>
<!-- action&#45;35 -->
<g id="node19" class="node">
<title>action&#45;35</title>
<polygon fill="white" stroke="black" points="666,-104 630,-104 630,-68 666,-68 666,-104"/>
</g>
<!-- action&#45;35&#45;&#45;cluster&#45;7 -->
<g id="edge26" class="edge">
<title>action&#45;35&#45;&#45;cluster&#45;7</title>
<path fill="none" stroke="black" d="M666.32,-93.66C678.01,-98.84 692.91,-105.43 701.94,-109.43"/>
</g>
<!-- action&#45;36 -->
<g id="node20" class="node">
<title>action&#45;36</title>
<polygon fill="white" stroke="black" points="792,-131 756,-131 756,-95 792,-95 792,-131"/>
</g>
<!-- cluster&#45;8 -->
<g id="node32" class="node">
<title>cluster&#45;8</title>
<polygon fill="black" stroke="black" stroke-width="0" points="846,-81 828,-81 828,-63 846,-63 846,-81"/>
</g>
<!-- action&#45;36&#45;&#45;cluster&#45;8 -->
<g id="edge27" class="edge">
<title>action&#45;36&#45;&#45;cluster&#45;8</title>
<path fill="none" stroke="black" d="M792.32,-101.36C804.01,-93.5 818.91,-83.49 827.94,-77.42"/>
</g>
<!-- action&#45;39 -->
<g id="node21" class="node">
<title>action&#45;39</title>
<polygon fill="white" stroke="black" points="792,-77 756,-77 756,-41 792,-41 792,-77"/>
</g>
<!-- action&#45;39&#45;&#45;cluster&#45;8 -->
<g id="edge28" class="edge">
<title>action&#45;39&#45;&#45;cluster&#45;8</title>
<path fill="none" stroke="black" d="M792.32,-62.69C804.01,-65.18 818.91,-68.36 827.94,-70.28"/>
</g>
<!-- action&#45;40 -->
<g id="node22" class="node">
<title>action&#45;40</title>
<polygon fill="#c9211e" stroke="black" points="918,-90 882,-90 882,-54 918,-54 918,-90"/>
</g>
<!-- cluster&#45;9 -->
<g id="node33" class="node">
<title>cluster&#45;9</title>
<polygon fill="black" stroke="black" stroke-width="0" points="972,-71 954,-71 954,-53 972,-53 972,-71"/>
</g>
<!-- action&#45;40&#45;&#45;cluster&#45;9 -->
<g id="edge29" class="edge">
<title>action&#45;40&#45;&#45;cluster&#45;9</title>
<path fill="none" stroke="black" d="M918.32,-69.16C930.01,-67.24 944.91,-64.8 953.94,-63.32"/>
</g>
<!-- action&#45;43 -->
<g id="node23" class="node">
<title>action&#45;43</title>
<polygon fill="#00008b" stroke="black" points="918,-36 882,-36 882,0 918,0 918,-36"/>
</g>
<!-- action&#45;43&#45;&#45;cluster&#45;9 -->
<g id="edge30" class="edge">
<title>action&#45;43&#45;&#45;cluster&#45;9</title>
<path fill="none" stroke="black" d="M918.32,-30.49C930.01,-38.93 944.91,-49.67 953.94,-56.18"/>
</g>
<!-- cluster&#45;0&#45;&#45;action&#45;4 -->
<g id="edge1" class="edge">
<title>cluster&#45;0&#45;&#45;action&#45;4</title>
<path fill="none" stroke="black" d="M90.23,-248C99.33,-248 114.26,-248 125.92,-248"/>
</g>
<!-- cluster&#45;1&#45;&#45;action&#45;8 -->
<g id="edge2" class="edge">
<title>cluster&#45;1&#45;&#45;action&#45;8</title>
<path fill="none" stroke="black" d="M216.23,-221C225.33,-221 240.26,-221 251.92,-221"/>
</g>
<!-- cluster&#45;2&#45;&#45;action&#45;14 -->
<g id="edge3" class="edge">
<title>cluster&#45;2&#45;&#45;action&#45;14</title>
<path fill="none" stroke="black" d="M846.23,-214C855.33,-214 870.26,-214 881.92,-214"/>
</g>
<!-- cluster&#45;3&#45;&#45;action&#45;18 -->
<g id="edge4" class="edge">
<title>cluster&#45;3&#45;&#45;action&#45;18</title>
<path fill="none" stroke="black" d="M972.23,-170C981.33,-170 996.26,-170 1007.92,-170"/>
</g>
<!-- cluster&#45;4&#45;&#45;action&#45;22 -->
<g id="edge5" class="edge">
<title>cluster&#45;4&#45;&#45;action&#45;22</title>
<path fill="none" stroke="black" d="M342.23,-194C351.33,-194 366.26,-194 377.92,-194"/>
</g>
<!-- cluster&#45;5&#45;&#45;action&#45;26 -->
<g id="edge6" class="edge">
<title>cluster&#45;5&#45;&#45;action&#45;26</title>
<path fill="none" stroke="black" d="M468.23,-167C477.33,-167 492.26,-167 503.92,-167"/>
</g>
<!-- cluster&#45;6&#45;&#45;action&#45;32 -->
<g id="edge7" class="edge">
<title>cluster&#45;6&#45;&#45;action&#45;32</title>
<path fill="none" stroke="black" d="M594.23,-140C603.33,-140 618.26,-140 629.92,-140"/>
</g>
<!-- cluster&#45;7&#45;&#45;action&#45;36 -->
<g id="edge8" class="edge">
<title>cluster&#45;7&#45;&#45;action&#45;36</title>
<path fill="none" stroke="black" d="M720.23,-113C729.33,-113 744.26,-113 755.92,-113"/>
</g>
<!-- cluster&#45;8&#45;&#45;action&#45;40 -->
<g id="edge9" class="edge">
<title>cluster&#45;8&#45;&#45;action&#45;40</title>
<path fill="none" stroke="black" d="M846.23,-72C855.33,-72 870.26,-72 881.92,-72"/>
</g>
<!-- cluster&#45;9&#45;&#45;action&#45;44 -->
<g id="edge10" class="edge">
<title>cluster&#45;9&#45;&#45;action&#45;44</title>
<path fill="none" stroke="black" d="M972.23,-62C981.33,-62 996.26,-62 1007.92,-62"/>
</g>
</g>
</svg>
