<?xml version="1.0" encoding="UTF-8" standalone="no"?>
<!DOCTYPE svg PUBLIC "-//W3C//DTD SVG 1.1//EN"
 "http://www.w3.org/Graphics/SVG/1.1/DTD/svg11.dtd">
<!-- Generated by graphviz version 2.43.0 (0)
 -->
<!-- Title: g Pages: 1 -->
<svg width="3336pt" height="773pt"
 viewBox="0.00 0.00 3336.00 773.00" xmlns="http://www.w3.org/2000/svg" xmlns:xlink="http://www.w3.org/1999/xlink">
<g id="graph0" class="graph" transform="scale(1 1) rotate(0) translate(4 769)">
<title>g</title>
<polygon fill="white" stroke="transparent" points="-4,4 -4,-769 3332,-769 3332,4 -4,4"/>
<g id="clust1" class="cluster">
<title>cluster_actionlib</title>
<polygon fill="none" stroke="black" points="3268,-46 3268,-260 3320,-260 3320,-46 3268,-46"/>
</g>
<!-- action&#45;112 -->
<g id="node1" class="node">
<title>action&#45;112</title>
<polygon fill="white" stroke="black" stroke-width="4" points="3312,-252 3276,-252 3276,-216 3312,-216 3312,-252"/>
</g>
<!-- action&#45;135 -->
<g id="node2" class="node">
<title>action&#45;135</title>
<polygon fill="white" stroke="black" stroke-width="4" points="3312,-198 3276,-198 3276,-162 3312,-162 3312,-198"/>
</g>
<!-- action&#45;138 -->
<g id="node3" class="node">
<title>action&#45;138</title>
<polygon fill="white" stroke="black" stroke-width="4" points="3312,-144 3276,-144 3276,-108 3312,-108 3312,-144"/>
</g>
<!-- action&#45;146 -->
<g id="node4" class="node">
<title>action&#45;146</title>
<polygon fill="#008000" stroke="black" stroke-width="4" points="3312,-90 3276,-90 3276,-54 3312,-54 3312,-90"/>
</g>
<!-- action&#45;1 -->
<g id="node5" class="node">
<title>action&#45;1</title>
<polygon fill="white" stroke="black" points="36,-765 0,-765 0,-729 36,-729 36,-765"/>
</g>
<!-- cluster&#45;0 -->
<g id="node75" class="node">
<title>cluster&#45;0</title>
<polygon fill="black" stroke="black" stroke-width="0" points="90,-729 72,-729 72,-711 90,-711 90,-729"/>
</g>
<!-- action&#45;1&#45;&#45;cluster&#45;0 -->
<g id="edge36" class="edge">
<title>action&#45;1&#45;&#45;cluster&#45;0</title>
<path fill="none" stroke="black" d="M36.32,-739.34C48.01,-734.16 62.91,-727.57 71.94,-723.57"/>
</g>
<!-- action&#45;3 -->
<g id="node6" class="node">
<title>action&#45;3</title>
<polygon fill="white" stroke="black" points="36,-711 0,-711 0,-675 36,-675 36,-711"/>
</g>
<!-- action&#45;3&#45;&#45;cluster&#45;0 -->
<g id="edge37" class="edge">
<title>action&#45;3&#45;&#45;cluster&#45;0</title>
<path fill="none" stroke="black" d="M36.32,-700.66C48.01,-705.84 62.91,-712.43 71.94,-716.43"/>
</g>
<!-- action&#45;4 -->
<g id="node7" class="node">
<title>action&#45;4</title>
<polygon fill="white" stroke="black" points="162,-738 126,-738 126,-702 162,-702 162,-738"/>
</g>
<!-- cluster&#45;1 -->
<g id="node76" class="node">
<title>cluster&#45;1</title>
<polygon fill="black" stroke="black" stroke-width="0" points="216,-702 198,-702 198,-684 216,-684 216,-702"/>
</g>
<!-- action&#45;4&#45;&#45;cluster&#45;1 -->
<g id="edge38" class="edge">
<title>action&#45;4&#45;&#45;cluster&#45;1</title>
<path fill="none" stroke="black" d="M162.32,-712.34C174.01,-707.16 188.91,-700.57 197.94,-696.57"/>
</g>
<!-- action&#45;7 -->
<g id="node8" class="node">
<title>action&#45;7</title>
<polygon fill="white" stroke="black" points="162,-684 126,-684 126,-648 162,-648 162,-684"/>
</g>
<!-- action&#45;7&#45;&#45;cluster&#45;1 -->
<g id="edge39" class="edge">
<title>action&#45;7&#45;&#45;cluster&#45;1</title>
<path fill="none" stroke="black" d="M162.32,-673.66C174.01,-678.84 188.91,-685.43 197.94,-689.43"/>
</g>
<!-- action&#45;8 -->
<g id="node9" class="node">
<title>action&#45;8</title>
<polygon fill="white" stroke="black" points="288,-711 252,-711 252,-675 288,-675 288,-711"/>
</g>
<!-- cluster&#45;4 -->
<g id="node79" class="node">
<title>cluster&#45;4</title>
<polygon fill="black" stroke="black" stroke-width="0" points="342,-675 324,-675 324,-657 342,-657 342,-675"/>
</g>
<!-- action&#45;8&#45;&#45;cluster&#45;4 -->
<g id="edge44" class="edge">
<title>action&#45;8&#45;&#45;cluster&#45;4</title>
<path fill="none" stroke="black" d="M288.32,-685.34C300.01,-680.16 314.91,-673.57 323.94,-669.57"/>
</g>
<!-- action&#45;11 -->
<g id="node10" class="node">
<title>action&#45;11</title>
<polygon fill="white" stroke="black" points="2304,-495 2268,-495 2268,-459 2304,-459 2304,-495"/>
</g>
<!-- cluster&#45;2 -->
<g id="node77" class="node">
<title>cluster&#45;2</title>
<polygon fill="black" stroke="black" stroke-width="0" points="2358,-459 2340,-459 2340,-441 2358,-441 2358,-459"/>
</g>
<!-- action&#45;11&#45;&#45;cluster&#45;2 -->
<g id="edge40" class="edge">
<title>action&#45;11&#45;&#45;cluster&#45;2</title>
<path fill="none" stroke="black" d="M2304.32,-469.34C2316.01,-464.16 2330.91,-457.57 2339.94,-453.57"/>
</g>
<!-- action&#45;13 -->
<g id="node11" class="node">
<title>action&#45;13</title>
<polygon fill="white" stroke="black" points="2304,-441 2268,-441 2268,-405 2304,-405 2304,-441"/>
</g>
<!-- action&#45;13&#45;&#45;cluster&#45;2 -->
<g id="edge41" class="edge">
<title>action&#45;13&#45;&#45;cluster&#45;2</title>
<path fill="none" stroke="black" d="M2304.32,-430.66C2316.01,-435.84 2330.91,-442.43 2339.94,-446.43"/>
</g>
<!-- action&#45;14 -->
<g id="node12" class="node">
<title>action&#45;14</title>
<polygon fill="white" stroke="black" points="2430,-468 2394,-468 2394,-432 2430,-432 2430,-468"/>
</g>
<!-- cluster&#45;3 -->
<g id="node78" class="node">
<title>cluster&#45;3</title>
<polygon fill="black" stroke="black" stroke-width="0" points="2484,-432 2466,-432 2466,-414 2484,-414 2484,-432"/>
</g>
<!-- action&#45;14&#45;&#45;cluster&#45;3 -->
<g id="edge42" class="edge">
<title>action&#45;14&#45;&#45;cluster&#45;3</title>
<path fill="none" stroke="black" d="M2430.32,-442.34C2442.01,-437.16 2456.91,-430.57 2465.94,-426.57"/>
</g>
<!-- action&#45;17 -->
<g id="node13" class="node">
<title>action&#45;17</title>
<polygon fill="white" stroke="black" points="2430,-414 2394,-414 2394,-378 2430,-378 2430,-414"/>
</g>
<!-- action&#45;17&#45;&#45;cluster&#45;3 -->
<g id="edge43" class="edge">
<title>action&#45;17&#45;&#45;cluster&#45;3</title>
<path fill="none" stroke="black" d="M2430.32,-403.66C2442.01,-408.84 2456.91,-415.43 2465.94,-419.43"/>
</g>
<!-- action&#45;18 -->
<g id="node14" class="node">
<title>action&#45;18</title>
<polygon fill="white" stroke="black" points="2556,-441 2520,-441 2520,-405 2556,-405 2556,-441"/>
</g>
<!-- cluster&#45;13 -->
<g id="node88" class="node">
<title>cluster&#45;13</title>
<polygon fill="black" stroke="black" stroke-width="0" points="2610,-405 2592,-405 2592,-387 2610,-387 2610,-405"/>
</g>
<!-- action&#45;18&#45;&#45;cluster&#45;13 -->
<g id="edge62" class="edge">
<title>action&#45;18&#45;&#45;cluster&#45;13</title>
<path fill="none" stroke="black" d="M2556.32,-415.34C2568.01,-410.16 2582.91,-403.57 2591.94,-399.57"/>
</g>
<!-- action&#45;21 -->
<g id="node15" class="node">
<title>action&#45;21</title>
<polygon fill="white" stroke="black" points="288,-657 252,-657 252,-621 288,-621 288,-657"/>
</g>
<!-- action&#45;21&#45;&#45;cluster&#45;4 -->
<g id="edge45" class="edge">
<title>action&#45;21&#45;&#45;cluster&#45;4</title>
<path fill="none" stroke="black" d="M288.32,-646.66C300.01,-651.84 314.91,-658.43 323.94,-662.43"/>
</g>
<!-- action&#45;22 -->
<g id="node16" class="node">
<title>action&#45;22</title>
<polygon fill="white" stroke="black" points="414,-684 378,-684 378,-648 414,-648 414,-684"/>
</g>
<!-- cluster&#45;5 -->
<g id="node80" class="node">
<title>cluster&#45;5</title>
<polygon fill="black" stroke="black" stroke-width="0" points="468,-648 450,-648 450,-630 468,-630 468,-648"/>
</g>
<!-- action&#45;22&#45;&#45;cluster&#45;5 -->
<g id="edge46" class="edge">
<title>action&#45;22&#45;&#45;cluster&#45;5</title>
<path fill="none" stroke="black" d="M414.32,-658.34C426.01,-653.16 440.91,-646.57 449.94,-642.57"/>
</g>
<!-- action&#45;25 -->
<g id="node17" class="node">
<title>action&#45;25</title>
<polygon fill="white" stroke="black" points="414,-630 378,-630 378,-594 414,-594 414,-630"/>
</g>
<!-- action&#45;25&#45;&#45;cluster&#45;5 -->
<g id="edge47" class="edge">
<title>action&#45;25&#45;&#45;cluster&#45;5</title>
<path fill="none" stroke="black" d="M414.32,-619.66C426.01,-624.84 440.91,-631.43 449.94,-635.43"/>
</g>
<!-- action&#45;26 -->
<g id="node18" class="node">
<title>action&#45;26</title>
<polygon fill="white" stroke="black" points="540,-657 504,-657 504,-621 540,-621 540,-657"/>
</g>
<!-- cluster&#45;6 -->
<g id="node81" class="node">
<title>cluster&#45;6</title>
<polygon fill="black" stroke="black" stroke-width="0" points="594,-621 576,-621 576,-603 594,-603 594,-621"/>
</g>
<!-- action&#45;26&#45;&#45;cluster&#45;6 -->
<g id="edge48" class="edge">
<title>action&#45;26&#45;&#45;cluster&#45;6</title>
<path fill="none" stroke="black" d="M540.32,-631.34C552.01,-626.16 566.91,-619.57 575.94,-615.57"/>
</g>
<!-- action&#45;29 -->
<g id="node19" class="node">
<title>action&#45;29</title>
<polygon fill="white" stroke="black" points="3186,-198 3150,-198 3150,-162 3186,-162 3186,-198"/>
</g>
<!-- cluster&#45;32 -->
<g id="node107" class="node">
<title>cluster&#45;32</title>
<polygon fill="black" stroke="black" stroke-width="0" points="3240,-135 3222,-135 3222,-117 3240,-117 3240,-135"/>
</g>
<!-- action&#45;29&#45;&#45;cluster&#45;32 -->
<g id="edge100" class="edge">
<title>action&#45;29&#45;&#45;cluster&#45;32</title>
<path fill="none" stroke="black" d="M3186.32,-164.67C3198.01,-154.32 3212.91,-141.13 3221.94,-133.14"/>
</g>
<!-- action&#45;31 -->
<g id="node20" class="node">
<title>action&#45;31</title>
<polygon fill="white" stroke="black" points="540,-603 504,-603 504,-567 540,-567 540,-603"/>
</g>
<!-- action&#45;31&#45;&#45;cluster&#45;6 -->
<g id="edge49" class="edge">
<title>action&#45;31&#45;&#45;cluster&#45;6</title>
<path fill="none" stroke="black" d="M540.32,-592.66C552.01,-597.84 566.91,-604.43 575.94,-608.43"/>
</g>
<!-- action&#45;32 -->
<g id="node21" class="node">
<title>action&#45;32</title>
<polygon fill="white" stroke="black" points="666,-630 630,-630 630,-594 666,-594 666,-630"/>
</g>
<!-- cluster&#45;7 -->
<g id="node82" class="node">
<title>cluster&#45;7</title>
<polygon fill="black" stroke="black" stroke-width="0" points="720,-594 702,-594 702,-576 720,-576 720,-594"/>
</g>
<!-- action&#45;32&#45;&#45;cluster&#45;7 -->
<g id="edge50" class="edge">
<title>action&#45;32&#45;&#45;cluster&#45;7</title>
<path fill="none" stroke="black" d="M666.32,-604.34C678.01,-599.16 692.91,-592.57 701.94,-588.57"/>
</g>
<!-- action&#45;35 -->
<g id="node22" class="node">
<title>action&#45;35</title>
<polygon fill="white" stroke="black" points="666,-576 630,-576 630,-540 666,-540 666,-576"/>
</g>
<!-- action&#45;35&#45;&#45;cluster&#45;7 -->
<g id="edge51" class="edge">
<title>action&#45;35&#45;&#45;cluster&#45;7</title>
<path fill="none" stroke="black" d="M666.32,-565.66C678.01,-570.84 692.91,-577.43 701.94,-581.43"/>
</g>
<!-- action&#45;36 -->
<g id="node23" class="node">
<title>action&#45;36</title>
<polygon fill="white" stroke="black" points="792,-603 756,-603 756,-567 792,-567 792,-603"/>
</g>
<!-- cluster&#45;8 -->
<g id="node83" class="node">
<title>cluster&#45;8</title>
<polygon fill="black" stroke="black" stroke-width="0" points="846,-567 828,-567 828,-549 846,-549 846,-567"/>
</g>
<!-- action&#45;36&#45;&#45;cluster&#45;8 -->
<g id="edge52" class="edge">
<title>action&#45;36&#45;&#45;cluster&#45;8</title>
<path fill="none" stroke="black" d="M792.32,-577.34C804.01,-572.16 818.91,-565.57 827.94,-561.57"/>
</g>
<!-- action&#45;39 -->
<g id="node24" class="node">
<title>action&#45;39</title>
<polygon fill="white" stroke="black" points="792,-549 756,-549 756,-513 792,-513 792,-549"/>
</g>
<!-- action&#45;39&#45;&#45;cluster&#45;8 -->
<g id="edge53" class="edge">
<title>action&#45;39&#45;&#45;cluster&#45;8</title>
<path fill="none" stroke="black" d="M792.32,-538.66C804.01,-543.84 818.91,-550.43 827.94,-554.43"/>
</g>
<!-- action&#45;40 -->
<g id="node25" class="node">
<title>action&#45;40</title>
<polygon fill="white" stroke="black" points="918,-576 882,-576 882,-540 918,-540 918,-576"/>
</g>
<!-- cluster&#45;9 -->
<g id="node84" class="node">
<title>cluster&#45;9</title>
<polygon fill="black" stroke="black" stroke-width="0" points="972,-540 954,-540 954,-522 972,-522 972,-540"/>
</g>
<!-- action&#45;40&#45;&#45;cluster&#45;9 -->
<g id="edge54" class="edge">
<title>action&#45;40&#45;&#45;cluster&#45;9</title>
<path fill="none" stroke="black" d="M918.32,-550.34C930.01,-545.16 944.91,-538.57 953.94,-534.57"/>
</g>
<!-- action&#45;43 -->
<g id="node26" class="node">
<title>action&#45;43</title>
<polygon fill="white" stroke="black" points="918,-522 882,-522 882,-486 918,-486 918,-522"/>
</g>
<!-- action&#45;43&#45;&#45;cluster&#45;9 -->
<g id="edge55" class="edge">
<title>action&#45;43&#45;&#45;cluster&#45;9</title>
<path fill="none" stroke="black" d="M918.32,-511.66C930.01,-516.84 944.91,-523.43 953.94,-527.43"/>
</g>
<!-- action&#45;44 -->
<g id="node27" class="node">
<title>action&#45;44</title>
<polygon fill="white" stroke="black" points="1044,-549 1008,-549 1008,-513 1044,-513 1044,-549"/>
</g>
<!-- cluster&#45;10 -->
<g id="node85" class="node">
<title>cluster&#45;10</title>
<polygon fill="black" stroke="black" stroke-width="0" points="1098,-513 1080,-513 1080,-495 1098,-495 1098,-513"/>
</g>
<!-- action&#45;44&#45;&#45;cluster&#45;10 -->
<g id="edge56" class="edge">
<title>action&#45;44&#45;&#45;cluster&#45;10</title>
<path fill="none" stroke="black" d="M1044.32,-523.34C1056.01,-518.16 1070.91,-511.57 1079.94,-507.57"/>
</g>
<!-- action&#45;47 -->
<g id="node28" class="node">
<title>action&#45;47</title>
<polygon fill="white" stroke="black" points="1044,-495 1008,-495 1008,-459 1044,-459 1044,-495"/>
</g>
<!-- action&#45;47&#45;&#45;cluster&#45;10 -->
<g id="edge57" class="edge">
<title>action&#45;47&#45;&#45;cluster&#45;10</title>
<path fill="none" stroke="black" d="M1044.32,-484.66C1056.01,-489.84 1070.91,-496.43 1079.94,-500.43"/>
</g>
<!-- action&#45;48 -->
<g id="node29" class="node">
<title>action&#45;48</title>
<polygon fill="white" stroke="black" points="1170,-522 1134,-522 1134,-486 1170,-486 1170,-522"/>
</g>
<!-- cluster&#45;11 -->
<g id="node86" class="node">
<title>cluster&#45;11</title>
<polygon fill="black" stroke="black" stroke-width="0" points="1224,-486 1206,-486 1206,-468 1224,-468 1224,-486"/>
</g>
<!-- action&#45;48&#45;&#45;cluster&#45;11 -->
<g id="edge58" class="edge">
<title>action&#45;48&#45;&#45;cluster&#45;11</title>
<path fill="none" stroke="black" d="M1170.32,-496.34C1182.01,-491.16 1196.91,-484.57 1205.94,-480.57"/>
</g>
<!-- action&#45;51 -->
<g id="node30" class="node">
<title>action&#45;51</title>
<polygon fill="white" stroke="black" points="1170,-468 1134,-468 1134,-432 1170,-432 1170,-468"/>
</g>
<!-- action&#45;51&#45;&#45;cluster&#45;11 -->
<g id="edge59" class="edge">
<title>action&#45;51&#45;&#45;cluster&#45;11</title>
<path fill="none" stroke="black" d="M1170.32,-457.66C1182.01,-462.84 1196.91,-469.43 1205.94,-473.43"/>
</g>
<!-- action&#45;52 -->
<g id="node31" class="node">
<title>action&#45;52</title>
<polygon fill="white" stroke="black" points="1296,-495 1260,-495 1260,-459 1296,-459 1296,-495"/>
</g>
<!-- cluster&#45;12 -->
<g id="node87" class="node">
<title>cluster&#45;12</title>
<polygon fill="black" stroke="black" stroke-width="0" points="1350,-459 1332,-459 1332,-441 1350,-441 1350,-459"/>
</g>
<!-- action&#45;52&#45;&#45;cluster&#45;12 -->
<g id="edge60" class="edge">
<title>action&#45;52&#45;&#45;cluster&#45;12</title>
<path fill="none" stroke="black" d="M1296.32,-469.34C1308.01,-464.16 1322.91,-457.57 1331.94,-453.57"/>
</g>
<!-- action&#45;55 -->
<g id="node32" class="node">
<title>action&#45;55</title>
<polygon fill="white" stroke="black" points="1296,-441 1260,-441 1260,-405 1296,-405 1296,-441"/>
</g>
<!-- action&#45;55&#45;&#45;cluster&#45;12 -->
<g id="edge61" class="edge">
<title>action&#45;55&#45;&#45;cluster&#45;12</title>
<path fill="none" stroke="black" d="M1296.32,-430.66C1308.01,-435.84 1322.91,-442.43 1331.94,-446.43"/>
</g>
<!-- action&#45;56 -->
<g id="node33" class="node">
<title>action&#45;56</title>
<polygon fill="white" stroke="black" points="1422,-468 1386,-468 1386,-432 1422,-432 1422,-468"/>
</g>
<!-- cluster&#45;14 -->
<g id="node89" class="node">
<title>cluster&#45;14</title>
<polygon fill="black" stroke="black" stroke-width="0" points="1476,-432 1458,-432 1458,-414 1476,-414 1476,-432"/>
</g>
<!-- action&#45;56&#45;&#45;cluster&#45;14 -->
<g id="edge64" class="edge">
<title>action&#45;56&#45;&#45;cluster&#45;14</title>
<path fill="none" stroke="black" d="M1422.32,-442.34C1434.01,-437.16 1448.91,-430.57 1457.94,-426.57"/>
</g>
<!-- action&#45;59 -->
<g id="node34" class="node">
<title>action&#45;59</title>
<polygon fill="white" stroke="black" points="2556,-387 2520,-387 2520,-351 2556,-351 2556,-387"/>
</g>
<!-- action&#45;59&#45;&#45;cluster&#45;13 -->
<g id="edge63" class="edge">
<title>action&#45;59&#45;&#45;cluster&#45;13</title>
<path fill="none" stroke="black" d="M2556.32,-376.66C2568.01,-381.84 2582.91,-388.43 2591.94,-392.43"/>
</g>
<!-- action&#45;60 -->
<g id="node35" class="node">
<title>action&#45;60</title>
<polygon fill="white" stroke="black" points="2682,-414 2646,-414 2646,-378 2682,-378 2682,-414"/>
</g>
<!-- cluster&#45;16 -->
<g id="node91" class="node">
<title>cluster&#45;16</title>
<polygon fill="black" stroke="black" stroke-width="0" points="2736,-378 2718,-378 2718,-360 2736,-360 2736,-378"/>
</g>
<!-- action&#45;60&#45;&#45;cluster&#45;16 -->
<g id="edge68" class="edge">
<title>action&#45;60&#45;&#45;cluster&#45;16</title>
<path fill="none" stroke="black" d="M2682.32,-388.34C2694.01,-383.16 2708.91,-376.57 2717.94,-372.57"/>
</g>
<!-- action&#45;63 -->
<g id="node36" class="node">
<title>action&#45;63</title>
<polygon fill="white" stroke="black" points="1422,-414 1386,-414 1386,-378 1422,-378 1422,-414"/>
</g>
<!-- action&#45;63&#45;&#45;cluster&#45;14 -->
<g id="edge65" class="edge">
<title>action&#45;63&#45;&#45;cluster&#45;14</title>
<path fill="none" stroke="black" d="M1422.32,-403.66C1434.01,-408.84 1448.91,-415.43 1457.94,-419.43"/>
</g>
<!-- action&#45;64 -->
<g id="node37" class="node">
<title>action&#45;64</title>
<polygon fill="white" stroke="black" points="1548,-441 1512,-441 1512,-405 1548,-405 1548,-441"/>
</g>
<!-- cluster&#45;15 -->
<g id="node90" class="node">
<title>cluster&#45;15</title>
<polygon fill="black" stroke="black" stroke-width="0" points="1602,-405 1584,-405 1584,-387 1602,-387 1602,-405"/>
</g>
<!-- action&#45;64&#45;&#45;cluster&#45;15 -->
<g id="edge66" class="edge">
<title>action&#45;64&#45;&#45;cluster&#45;15</title>
<path fill="none" stroke="black" d="M1548.32,-415.34C1560.01,-410.16 1574.91,-403.57 1583.94,-399.57"/>
</g>
<!-- action&#45;67 -->
<g id="node38" class="node">
<title>action&#45;67</title>
<polygon fill="white" stroke="black" points="1548,-387 1512,-387 1512,-351 1548,-351 1548,-387"/>
</g>
<!-- action&#45;67&#45;&#45;cluster&#45;15 -->
<g id="edge67" class="edge">
<title>action&#45;67&#45;&#45;cluster&#45;15</title>
<path fill="none" stroke="black" d="M1548.32,-376.66C1560.01,-381.84 1574.91,-388.43 1583.94,-392.43"/>
</g>
<!-- action&#45;68 -->
<g id="node39" class="node">
<title>action&#45;68</title>
<polygon fill="white" stroke="black" points="1674,-414 1638,-414 1638,-378 1674,-378 1674,-414"/>
</g>
<!-- cluster&#45;18 -->
<g id="node93" class="node">
<title>cluster&#45;18</title>
<polygon fill="black" stroke="black" stroke-width="0" points="1728,-378 1710,-378 1710,-360 1728,-360 1728,-378"/>
</g>
<!-- action&#45;68&#45;&#45;cluster&#45;18 -->
<g id="edge72" class="edge">
<title>action&#45;68&#45;&#45;cluster&#45;18</title>
<path fill="none" stroke="black" d="M1674.32,-388.34C1686.01,-383.16 1700.91,-376.57 1709.94,-372.57"/>
</g>
<!-- action&#45;71 -->
<g id="node40" class="node">
<title>action&#45;71</title>
<polygon fill="white" stroke="black" points="2682,-360 2646,-360 2646,-324 2682,-324 2682,-360"/>
</g>
<!-- action&#45;71&#45;&#45;cluster&#45;16 -->
<g id="edge69" class="edge">
<title>action&#45;71&#45;&#45;cluster&#45;16</title>
<path fill="none" stroke="black" d="M2682.32,-349.66C2694.01,-354.84 2708.91,-361.43 2717.94,-365.43"/>
</g>
<!-- action&#45;72 -->
<g id="node41" class="node">
<title>action&#45;72</title>
<polygon fill="white" stroke="black" points="2808,-387 2772,-387 2772,-351 2808,-351 2808,-387"/>
</g>
<!-- cluster&#45;17 -->
<g id="node92" class="node">
<title>cluster&#45;17</title>
<polygon fill="black" stroke="black" stroke-width="0" points="2862,-351 2844,-351 2844,-333 2862,-333 2862,-351"/>
</g>
<!-- action&#45;72&#45;&#45;cluster&#45;17 -->
<g id="edge70" class="edge">
<title>action&#45;72&#45;&#45;cluster&#45;17</title>
<path fill="none" stroke="black" d="M2808.32,-361.34C2820.01,-356.16 2834.91,-349.57 2843.94,-345.57"/>
</g>
<!-- action&#45;75 -->
<g id="node42" class="node">
<title>action&#45;75</title>
<polygon fill="white" stroke="black" points="2808,-333 2772,-333 2772,-297 2808,-297 2808,-333"/>
</g>
<!-- action&#45;75&#45;&#45;cluster&#45;17 -->
<g id="edge71" class="edge">
<title>action&#45;75&#45;&#45;cluster&#45;17</title>
<path fill="none" stroke="black" d="M2808.32,-322.66C2820.01,-327.84 2834.91,-334.43 2843.94,-338.43"/>
</g>
<!-- action&#45;76 -->
<g id="node43" class="node">
<title>action&#45;76</title>
<polygon fill="white" stroke="black" points="2934,-360 2898,-360 2898,-324 2934,-324 2934,-360"/>
</g>
<!-- cluster&#45;20 -->
<g id="node95" class="node">
<title>cluster&#45;20</title>
<polygon fill="black" stroke="black" stroke-width="0" points="2988,-324 2970,-324 2970,-306 2988,-306 2988,-324"/>
</g>
<!-- action&#45;76&#45;&#45;cluster&#45;20 -->
<g id="edge76" class="edge">
<title>action&#45;76&#45;&#45;cluster&#45;20</title>
<path fill="none" stroke="black" d="M2934.32,-334.34C2946.01,-329.16 2960.91,-322.57 2969.94,-318.57"/>
</g>
<!-- action&#45;79 -->
<g id="node44" class="node">
<title>action&#45;79</title>
<polygon fill="white" stroke="black" points="1674,-360 1638,-360 1638,-324 1674,-324 1674,-360"/>
</g>
<!-- action&#45;79&#45;&#45;cluster&#45;18 -->
<g id="edge73" class="edge">
<title>action&#45;79&#45;&#45;cluster&#45;18</title>
<path fill="none" stroke="black" d="M1674.32,-349.66C1686.01,-354.84 1700.91,-361.43 1709.94,-365.43"/>
</g>
<!-- action&#45;80 -->
<g id="node45" class="node">
<title>action&#45;80</title>
<polygon fill="white" stroke="black" points="1800,-387 1764,-387 1764,-351 1800,-351 1800,-387"/>
</g>
<!-- cluster&#45;19 -->
<g id="node94" class="node">
<title>cluster&#45;19</title>
<polygon fill="black" stroke="black" stroke-width="0" points="1854,-351 1836,-351 1836,-333 1854,-333 1854,-351"/>
</g>
<!-- action&#45;80&#45;&#45;cluster&#45;19 -->
<g id="edge74" class="edge">
<title>action&#45;80&#45;&#45;cluster&#45;19</title>
<path fill="none" stroke="black" d="M1800.32,-361.34C1812.01,-356.16 1826.91,-349.57 1835.94,-345.57"/>
</g>
<!-- action&#45;83 -->
<g id="node46" class="node">
<title>action&#45;83</title>
<polygon fill="white" stroke="black" points="1800,-333 1764,-333 1764,-297 1800,-297 1800,-333"/>
</g>
<!-- action&#45;83&#45;&#45;cluster&#45;19 -->
<g id="edge75" class="edge">
<title>action&#45;83&#45;&#45;cluster&#45;19</title>
<path fill="none" stroke="black" d="M1800.32,-322.66C1812.01,-327.84 1826.91,-334.43 1835.94,-338.43"/>
</g>
<!-- action&#45;84 -->
<g id="node47" class="node">
<title>action&#45;84</title>
<polygon fill="white" stroke="black" points="1926,-360 1890,-360 1890,-324 1926,-324 1926,-360"/>
</g>
<!-- cluster&#45;21 -->
<g id="node96" class="node">
<title>cluster&#45;21</title>
<polygon fill="black" stroke="black" stroke-width="0" points="1980,-324 1962,-324 1962,-306 1980,-306 1980,-324"/>
</g>
<!-- action&#45;84&#45;&#45;cluster&#45;21 -->
<g id="edge78" class="edge">
<title>action&#45;84&#45;&#45;cluster&#45;21</title>
<path fill="none" stroke="black" d="M1926.32,-334.34C1938.01,-329.16 1952.91,-322.57 1961.94,-318.57"/>
</g>
<!-- action&#45;87 -->
<g id="node48" class="node">
<title>action&#45;87</title>
<polygon fill="white" stroke="black" points="2934,-306 2898,-306 2898,-270 2934,-270 2934,-306"/>
</g>
<!-- action&#45;87&#45;&#45;cluster&#45;20 -->
<g id="edge77" class="edge">
<title>action&#45;87&#45;&#45;cluster&#45;20</title>
<path fill="none" stroke="black" d="M2934.32,-295.66C2946.01,-300.84 2960.91,-307.43 2969.94,-311.43"/>
</g>
<!-- action&#45;88 -->
<g id="node49" class="node">
<title>action&#45;88</title>
<polygon fill="white" stroke="black" points="3060,-333 3024,-333 3024,-297 3060,-297 3060,-333"/>
</g>
<!-- cluster&#45;25 -->
<g id="node100" class="node">
<title>cluster&#45;25</title>
<polygon fill="black" stroke="black" stroke-width="0" points="3114,-297 3096,-297 3096,-279 3114,-279 3114,-297"/>
</g>
<!-- action&#45;88&#45;&#45;cluster&#45;25 -->
<g id="edge86" class="edge">
<title>action&#45;88&#45;&#45;cluster&#45;25</title>
<path fill="none" stroke="black" d="M3060.32,-307.34C3072.01,-302.16 3086.91,-295.57 3095.94,-291.57"/>
</g>
<!-- action&#45;91 -->
<g id="node50" class="node">
<title>action&#45;91</title>
<polygon fill="white" stroke="black" points="1926,-306 1890,-306 1890,-270 1926,-270 1926,-306"/>
</g>
<!-- action&#45;91&#45;&#45;cluster&#45;21 -->
<g id="edge79" class="edge">
<title>action&#45;91&#45;&#45;cluster&#45;21</title>
<path fill="none" stroke="black" d="M1926.32,-295.66C1938.01,-300.84 1952.91,-307.43 1961.94,-311.43"/>
</g>
<!-- action&#45;92 -->
<g id="node51" class="node">
<title>action&#45;92</title>
<polygon fill="white" stroke="black" points="2052,-333 2016,-333 2016,-297 2052,-297 2052,-333"/>
</g>
<!-- cluster&#45;22 -->
<g id="node97" class="node">
<title>cluster&#45;22</title>
<polygon fill="black" stroke="black" stroke-width="0" points="2106,-297 2088,-297 2088,-279 2106,-279 2106,-297"/>
</g>
<!-- action&#45;92&#45;&#45;cluster&#45;22 -->
<g id="edge80" class="edge">
<title>action&#45;92&#45;&#45;cluster&#45;22</title>
<path fill="none" stroke="black" d="M2052.32,-307.34C2064.01,-302.16 2078.91,-295.57 2087.94,-291.57"/>
</g>
<!-- action&#45;95 -->
<g id="node52" class="node">
<title>action&#45;95</title>
<polygon fill="white" stroke="black" points="2052,-279 2016,-279 2016,-243 2052,-243 2052,-279"/>
</g>
<!-- action&#45;95&#45;&#45;cluster&#45;22 -->
<g id="edge81" class="edge">
<title>action&#45;95&#45;&#45;cluster&#45;22</title>
<path fill="none" stroke="black" d="M2052.32,-268.66C2064.01,-273.84 2078.91,-280.43 2087.94,-284.43"/>
</g>
<!-- action&#45;96 -->
<g id="node53" class="node">
<title>action&#45;96</title>
<polygon fill="white" stroke="black" points="2178,-306 2142,-306 2142,-270 2178,-270 2178,-306"/>
</g>
<!-- cluster&#45;23 -->
<g id="node98" class="node">
<title>cluster&#45;23</title>
<polygon fill="black" stroke="black" stroke-width="0" points="2232,-270 2214,-270 2214,-252 2232,-252 2232,-270"/>
</g>
<!-- action&#45;96&#45;&#45;cluster&#45;23 -->
<g id="edge82" class="edge">
<title>action&#45;96&#45;&#45;cluster&#45;23</title>
<path fill="none" stroke="black" d="M2178.32,-280.34C2190.01,-275.16 2204.91,-268.57 2213.94,-264.57"/>
</g>
<!-- action&#45;99 -->
<g id="node54" class="node">
<title>action&#45;99</title>
<polygon fill="white" stroke="black" points="2178,-252 2142,-252 2142,-216 2178,-216 2178,-252"/>
</g>
<!-- action&#45;99&#45;&#45;cluster&#45;23 -->
<g id="edge83" class="edge">
<title>action&#45;99&#45;&#45;cluster&#45;23</title>
<path fill="none" stroke="black" d="M2178.32,-241.66C2190.01,-246.84 2204.91,-253.43 2213.94,-257.43"/>
</g>
<!-- action&#45;100 -->
<g id="node55" class="node">
<title>action&#45;100</title>
<polygon fill="white" stroke="black" points="2304,-279 2268,-279 2268,-243 2304,-243 2304,-279"/>
</g>
<!-- cluster&#45;24 -->
<g id="node99" class="node">
<title>cluster&#45;24</title>
<polygon fill="black" stroke="black" stroke-width="0" points="2358,-243 2340,-243 2340,-225 2358,-225 2358,-243"/>
</g>
<!-- action&#45;100&#45;&#45;cluster&#45;24 -->
<g id="edge84" class="edge">
<title>action&#45;100&#45;&#45;cluster&#45;24</title>
<path fill="none" stroke="black" d="M2304.32,-253.34C2316.01,-248.16 2330.91,-241.57 2339.94,-237.57"/>
</g>
<!-- action&#45;103 -->
<g id="node56" class="node">
<title>action&#45;103</title>
<polygon fill="white" stroke="black" points="2304,-225 2268,-225 2268,-189 2304,-189 2304,-225"/>
</g>
<!-- action&#45;103&#45;&#45;cluster&#45;24 -->
<g id="edge85" class="edge">
<title>action&#45;103&#45;&#45;cluster&#45;24</title>
<path fill="none" stroke="black" d="M2304.32,-214.66C2316.01,-219.84 2330.91,-226.43 2339.94,-230.43"/>
</g>
<!-- action&#45;104 -->
<g id="node57" class="node">
<title>action&#45;104</title>
<polygon fill="white" stroke="black" points="2430,-252 2394,-252 2394,-216 2430,-216 2430,-252"/>
</g>
<!-- cluster&#45;27 -->
<g id="node102" class="node">
<title>cluster&#45;27</title>
<polygon fill="black" stroke="black" stroke-width="0" points="2484,-216 2466,-216 2466,-198 2484,-198 2484,-216"/>
</g>
<!-- action&#45;104&#45;&#45;cluster&#45;27 -->
<g id="edge90" class="edge">
<title>action&#45;104&#45;&#45;cluster&#45;27</title>
<path fill="none" stroke="black" d="M2430.32,-226.34C2442.01,-221.16 2456.91,-214.57 2465.94,-210.57"/>
</g>
<!-- action&#45;107 -->
<g id="node58" class="node">
<title>action&#45;107</title>
<polygon fill="white" stroke="black" points="3060,-279 3024,-279 3024,-243 3060,-243 3060,-279"/>
</g>
<!-- action&#45;107&#45;&#45;cluster&#45;25 -->
<g id="edge87" class="edge">
<title>action&#45;107&#45;&#45;cluster&#45;25</title>
<path fill="none" stroke="black" d="M3060.32,-268.66C3072.01,-273.84 3086.91,-280.43 3095.94,-284.43"/>
</g>
<!-- action&#45;108 -->
<g id="node59" class="node">
<title>action&#45;108</title>
<polygon fill="white" stroke="black" points="3186,-306 3150,-306 3150,-270 3186,-270 3186,-306"/>
</g>
<!-- cluster&#45;26 -->
<g id="node101" class="node">
<title>cluster&#45;26</title>
<polygon fill="black" stroke="black" stroke-width="0" points="3240,-243 3222,-243 3222,-225 3240,-225 3240,-243"/>
</g>
<!-- action&#45;108&#45;&#45;cluster&#45;26 -->
<g id="edge88" class="edge">
<title>action&#45;108&#45;&#45;cluster&#45;26</title>
<path fill="none" stroke="black" d="M3186.32,-272.67C3198.01,-262.32 3212.91,-249.13 3221.94,-241.14"/>
</g>
<!-- action&#45;111 -->
<g id="node60" class="node">
<title>action&#45;111</title>
<polygon fill="white" stroke="black" points="3186,-252 3150,-252 3150,-216 3186,-216 3186,-252"/>
</g>
<!-- action&#45;111&#45;&#45;cluster&#45;26 -->
<g id="edge89" class="edge">
<title>action&#45;111&#45;&#45;cluster&#45;26</title>
<path fill="none" stroke="black" d="M3186.32,-234C3198.01,-234 3212.91,-234 3221.94,-234"/>
</g>
<!-- action&#45;115 -->
<g id="node61" class="node">
<title>action&#45;115</title>
<polygon fill="white" stroke="black" points="2430,-198 2394,-198 2394,-162 2430,-162 2430,-198"/>
</g>
<!-- action&#45;115&#45;&#45;cluster&#45;27 -->
<g id="edge91" class="edge">
<title>action&#45;115&#45;&#45;cluster&#45;27</title>
<path fill="none" stroke="black" d="M2430.32,-187.66C2442.01,-192.84 2456.91,-199.43 2465.94,-203.43"/>
</g>
<!-- action&#45;116 -->
<g id="node62" class="node">
<title>action&#45;116</title>
<polygon fill="white" stroke="black" points="2556,-225 2520,-225 2520,-189 2556,-189 2556,-225"/>
</g>
<!-- cluster&#45;28 -->
<g id="node103" class="node">
<title>cluster&#45;28</title>
<polygon fill="black" stroke="black" stroke-width="0" points="2610,-189 2592,-189 2592,-171 2610,-171 2610,-189"/>
</g>
<!-- action&#45;116&#45;&#45;cluster&#45;28 -->
<g id="edge92" class="edge">
<title>action&#45;116&#45;&#45;cluster&#45;28</title>
<path fill="none" stroke="black" d="M2556.32,-199.34C2568.01,-194.16 2582.91,-187.57 2591.94,-183.57"/>
</g>
<!-- action&#45;119 -->
<g id="node63" class="node">
<title>action&#45;119</title>
<polygon fill="white" stroke="black" points="2556,-171 2520,-171 2520,-135 2556,-135 2556,-171"/>
</g>
<!-- action&#45;119&#45;&#45;cluster&#45;28 -->
<g id="edge93" class="edge">
<title>action&#45;119&#45;&#45;cluster&#45;28</title>
<path fill="none" stroke="black" d="M2556.32,-160.66C2568.01,-165.84 2582.91,-172.43 2591.94,-176.43"/>
</g>
<!-- action&#45;120 -->
<g id="node64" class="node">
<title>action&#45;120</title>
<polygon fill="white" stroke="black" points="2682,-198 2646,-198 2646,-162 2682,-162 2682,-198"/>
</g>
<!-- cluster&#45;29 -->
<g id="node104" class="node">
<title>cluster&#45;29</title>
<polygon fill="black" stroke="black" stroke-width="0" points="2736,-162 2718,-162 2718,-144 2736,-144 2736,-162"/>
</g>
<!-- action&#45;120&#45;&#45;cluster&#45;29 -->
<g id="edge94" class="edge">
<title>action&#45;120&#45;&#45;cluster&#45;29</title>
<path fill="none" stroke="black" d="M2682.32,-172.34C2694.01,-167.16 2708.91,-160.57 2717.94,-156.57"/>
</g>
<!-- action&#45;123 -->
<g id="node65" class="node">
<title>action&#45;123</title>
<polygon fill="white" stroke="black" points="2682,-144 2646,-144 2646,-108 2682,-108 2682,-144"/>
</g>
<!-- action&#45;123&#45;&#45;cluster&#45;29 -->
<g id="edge95" class="edge">
<title>action&#45;123&#45;&#45;cluster&#45;29</title>
<path fill="none" stroke="black" d="M2682.32,-133.66C2694.01,-138.84 2708.91,-145.43 2717.94,-149.43"/>
</g>
<!-- action&#45;124 -->
<g id="node66" class="node">
<title>action&#45;124</title>
<polygon fill="white" stroke="black" points="2808,-171 2772,-171 2772,-135 2808,-135 2808,-171"/>
</g>
<!-- cluster&#45;30 -->
<g id="node105" class="node">
<title>cluster&#45;30</title>
<polygon fill="black" stroke="black" stroke-width="0" points="2862,-135 2844,-135 2844,-117 2862,-117 2862,-135"/>
</g>
<!-- action&#45;124&#45;&#45;cluster&#45;30 -->
<g id="edge96" class="edge">
<title>action&#45;124&#45;&#45;cluster&#45;30</title>
<path fill="none" stroke="black" d="M2808.32,-145.34C2820.01,-140.16 2834.91,-133.57 2843.94,-129.57"/>
</g>
<!-- action&#45;127 -->
<g id="node67" class="node">
<title>action&#45;127</title>
<polygon fill="white" stroke="black" points="2808,-117 2772,-117 2772,-81 2808,-81 2808,-117"/>
</g>
<!-- action&#45;127&#45;&#45;cluster&#45;30 -->
<g id="edge97" class="edge">
<title>action&#45;127&#45;&#45;cluster&#45;30</title>
<path fill="none" stroke="black" d="M2808.32,-106.66C2820.01,-111.84 2834.91,-118.43 2843.94,-122.43"/>
</g>
<!-- action&#45;128 -->
<g id="node68" class="node">
<title>action&#45;128</title>
<polygon fill="white" stroke="black" points="2934,-144 2898,-144 2898,-108 2934,-108 2934,-144"/>
</g>
<!-- cluster&#45;31 -->
<g id="node106" class="node">
<title>cluster&#45;31</title>
<polygon fill="black" stroke="black" stroke-width="0" points="2988,-108 2970,-108 2970,-90 2988,-90 2988,-108"/>
</g>
<!-- action&#45;128&#45;&#45;cluster&#45;31 -->
<g id="edge98" class="edge">
<title>action&#45;128&#45;&#45;cluster&#45;31</title>
<path fill="none" stroke="black" d="M2934.32,-118.34C2946.01,-113.16 2960.91,-106.57 2969.94,-102.57"/>
</g>
<!-- action&#45;131 -->
<g id="node69" class="node">
<title>action&#45;131</title>
<polygon fill="white" stroke="black" points="2934,-90 2898,-90 2898,-54 2934,-54 2934,-90"/>
</g>
<!-- action&#45;131&#45;&#45;cluster&#45;31 -->
<g id="edge99" class="edge">
<title>action&#45;131&#45;&#45;cluster&#45;31</title>
<path fill="none" stroke="black" d="M2934.32,-79.66C2946.01,-84.84 2960.91,-91.43 2969.94,-95.43"/>
</g>
<!-- action&#45;132 -->
<g id="node70" class="node">
<title>action&#45;132</title>
<polygon fill="white" stroke="black" points="3060,-117 3024,-117 3024,-81 3060,-81 3060,-117"/>
</g>
<!-- cluster&#45;33 -->
<g id="node108" class="node">
<title>cluster&#45;33</title>
<polygon fill="black" stroke="black" stroke-width="0" points="3114,-81 3096,-81 3096,-63 3114,-63 3114,-81"/>
</g>
<!-- action&#45;132&#45;&#45;cluster&#45;33 -->
<g id="edge102" class="edge">
<title>action&#45;132&#45;&#45;cluster&#45;33</title>
<path fill="none" stroke="black" d="M3060.32,-91.34C3072.01,-86.16 3086.91,-79.57 3095.94,-75.57"/>
</g>
<!-- action&#45;137 -->
<g id="node71" class="node">
<title>action&#45;137</title>
<polygon fill="white" stroke="black" points="3186,-144 3150,-144 3150,-108 3186,-108 3186,-144"/>
</g>
<!-- action&#45;137&#45;&#45;cluster&#45;32 -->
<g id="edge101" class="edge">
<title>action&#45;137&#45;&#45;cluster&#45;32</title>
<path fill="none" stroke="black" d="M3186.32,-126C3198.01,-126 3212.91,-126 3221.94,-126"/>
</g>
<!-- action&#45;141 -->
<g id="node72" class="node">
<title>action&#45;141</title>
<polygon fill="white" stroke="black" points="3060,-63 3024,-63 3024,-27 3060,-27 3060,-63"/>
</g>
<!-- action&#45;141&#45;&#45;cluster&#45;33 -->
<g id="edge103" class="edge">
<title>action&#45;141&#45;&#45;cluster&#45;33</title>
<path fill="none" stroke="black" d="M3060.32,-52.66C3072.01,-57.84 3086.91,-64.43 3095.94,-68.43"/>
</g>
<!-- action&#45;142 -->
<g id="node73" class="node">
<title>action&#45;142</title>
<polygon fill="#c9211e" stroke="black" points="3186,-90 3150,-90 3150,-54 3186,-54 3186,-90"/>
</g>
<!-- cluster&#45;34 -->
<g id="node109" class="node">
<title>cluster&#45;34</title>
<polygon fill="black" stroke="black" stroke-width="0" points="3240,-81 3222,-81 3222,-63 3240,-63 3240,-81"/>
</g>
<!-- action&#45;142&#45;&#45;cluster&#45;34 -->
<g id="edge104" class="edge">
<title>action&#45;142&#45;&#45;cluster&#45;34</title>
<path fill="none" stroke="black" d="M3186.32,-72C3198.01,-72 3212.91,-72 3221.94,-72"/>
</g>
<!-- action&#45;145 -->
<g id="node74" class="node">
<title>action&#45;145</title>
<polygon fill="#00008b" stroke="black" points="3186,-36 3150,-36 3150,0 3186,0 3186,-36"/>
</g>
<!-- action&#45;145&#45;&#45;cluster&#45;34 -->
<g id="edge105" class="edge">
<title>action&#45;145&#45;&#45;cluster&#45;34</title>
<path fill="none" stroke="black" d="M3186.32,-33.33C3198.01,-43.68 3212.91,-56.87 3221.94,-64.86"/>
</g>
<!-- cluster&#45;0&#45;&#45;action&#45;4 -->
<g id="edge1" class="edge">
<title>cluster&#45;0&#45;&#45;action&#45;4</title>
<path fill="none" stroke="black" d="M90.23,-720C99.33,-720 114.26,-720 125.92,-720"/>
</g>
<!-- cluster&#45;1&#45;&#45;action&#45;8 -->
<g id="edge2" class="edge">
<title>cluster&#45;1&#45;&#45;action&#45;8</title>
<path fill="none" stroke="black" d="M216.23,-693C225.33,-693 240.26,-693 251.92,-693"/>
</g>
<!-- cluster&#45;2&#45;&#45;action&#45;14 -->
<g id="edge3" class="edge">
<title>cluster&#45;2&#45;&#45;action&#45;14</title>
<path fill="none" stroke="black" d="M2358.23,-450C2367.33,-450 2382.26,-450 2393.92,-450"/>
</g>
<!-- cluster&#45;3&#45;&#45;action&#45;18 -->
<g id="edge4" class="edge">
<title>cluster&#45;3&#45;&#45;action&#45;18</title>
<path fill="none" stroke="black" d="M2484.23,-423C2493.33,-423 2508.26,-423 2519.92,-423"/>
</g>
<!-- cluster&#45;4&#45;&#45;action&#45;22 -->
<g id="edge5" class="edge">
<title>cluster&#45;4&#45;&#45;action&#45;22</title>
<path fill="none" stroke="black" d="M342.23,-666C351.33,-666 366.26,-666 377.92,-666"/>
</g>
<!-- cluster&#45;5&#45;&#45;action&#45;26 -->
<g id="edge6" class="edge">
<title>cluster&#45;5&#45;&#45;action&#45;26</title>
<path fill="none" stroke="black" d="M468.23,-639C477.33,-639 492.26,-639 503.92,-639"/>
</g>
<!-- cluster&#45;6&#45;&#45;action&#45;32 -->
<g id="edge7" class="edge">
<title>cluster&#45;6&#45;&#45;action&#45;32</title>
<path fill="none" stroke="black" d="M594.23,-612C603.33,-612 618.26,-612 629.92,-612"/>
</g>
<!-- cluster&#45;7&#45;&#45;action&#45;36 -->
<g id="edge8" class="edge">
<title>cluster&#45;7&#45;&#45;action&#45;36</title>
<path fill="none" stroke="black" d="M720.23,-585C729.33,-585 744.26,-585 755.92,-585"/>
</g>
<!-- cluster&#45;8&#45;&#45;action&#45;40 -->
<g id="edge9" class="edge">
<title>cluster&#45;8&#45;&#45;action&#45;40</title>
<path fill="none" stroke="black" d="M846.23,-558C855.33,-558 870.26,-558 881.92,-558"/>
</g>
<!-- cluster&#45;9&#45;&#45;action&#45;44 -->
<g id="edge10" class="edge">
<title>cluster&#45;9&#45;&#45;action&#45;44</title>
<path fill="none" stroke="black" d="M972.23,-531C981.33,-531 996.26,-531 1007.92,-531"/>
</g>
<!-- cluster&#45;10&#45;&#45;action&#45;48 -->
<g id="edge11" class="edge">
<title>cluster&#45;10&#45;&#45;action&#45;48</title>
<path fill="none" stroke="black" d="M1098.23,-504C1107.33,-504 1122.26,-504 1133.92,-504"/>
</g>
<!-- cluster&#45;11&#45;&#45;action&#45;52 -->
<g id="edge12" class="edge">
<title>cluster&#45;11&#45;&#45;action&#45;52</title>
<path fill="none" stroke="black" d="M1224.23,-477C1233.33,-477 1248.26,-477 1259.92,-477"/>
</g>
<!-- cluster&#45;12&#45;&#45;action&#45;56 -->
<g id="edge13" class="edge">
<title>cluster&#45;12&#45;&#45;action&#45;56</title>
<path fill="none" stroke="black" d="M1350.23,-450C1359.33,-450 1374.26,-450 1385.92,-450"/>
</g>
<!-- cluster&#45;13&#45;&#45;action&#45;60 -->
<g id="edge14" class="edge">
<title>cluster&#45;13&#45;&#45;action&#45;60</title>
<path fill="none" stroke="black" d="M2610.23,-396C2619.33,-396 2634.26,-396 2645.92,-396"/>
</g>
<!-- cluster&#45;14&#45;&#45;action&#45;64 -->
<g id="edge15" class="edge">
<title>cluster&#45;14&#45;&#45;action&#45;64</title>
<path fill="none" stroke="black" d="M1476.23,-423C1485.33,-423 1500.26,-423 1511.92,-423"/>
</g>
<!-- cluster&#45;15&#45;&#45;action&#45;68 -->
<g id="edge16" class="edge">
<title>cluster&#45;15&#45;&#45;action&#45;68</title>
<path fill="none" stroke="black" d="M1602.23,-396C1611.33,-396 1626.26,-396 1637.92,-396"/>
</g>
<!-- cluster&#45;16&#45;&#45;action&#45;72 -->
<g id="edge17" class="edge">
<title>cluster&#45;16&#45;&#45;action&#45;72</title>
<path fill="none" stroke="black" d="M2736.23,-369C2745.33,-369 2760.26,-369 2771.92,-369"/>
</g>
<!-- cluster&#45;17&#45;&#45;action&#45;76 -->
<g id="edge18" class="edge">
<title>cluster&#45;17&#45;&#45;action&#45;76</title>
<path fill="none" stroke="black" d="M2862.23,-342C2871.33,-342 2886.26,-342 2897.92,-342"/>
</g>
<!-- cluster&#45;18&#45;&#45;action&#45;80 -->
<g id="edge19" class="edge">
<title>cluster&#45;18&#45;&#45;action&#45;80</title>
<path fill="none" stroke="black" d="M1728.23,-369C1737.33,-369 1752.26,-369 1763.92,-369"/>
</g>
<!-- cluster&#45;19&#45;&#45;action&#45;84 -->
<g id="edge20" class="edge">
<title>cluster&#45;19&#45;&#45;action&#45;84</title>
<path fill="none" stroke="black" d="M1854.23,-342C1863.33,-342 1878.26,-342 1889.92,-342"/>
</g>
<!-- cluster&#45;20&#45;&#45;action&#45;88 -->
<g id="edge21" class="edge">
<title>cluster&#45;20&#45;&#45;action&#45;88</title>
<path fill="none" stroke="black" d="M2988.23,-315C2997.33,-315 3012.26,-315 3023.92,-315"/>
</g>
<!-- cluster&#45;21&#45;&#45;action&#45;92 -->
<g id="edge22" class="edge">
<title>cluster&#45;21&#45;&#45;action&#45;92</title>
<path fill="none" stroke="black" d="M1980.23,-315C1989.33,-315 2004.26,-315 2015.92,-315"/>
</g>
<!-- cluster&#45;22&#45;&#45;action&#45;96 -->
<g id="edge23" class="edge">
<title>cluster&#45;22&#45;&#45;action&#45;96</title>
<path fill="none" stroke="black" d="M2106.23,-288C2115.33,-288 2130.26,-288 2141.92,-288"/>
</g>
<!-- cluster&#45;23&#45;&#45;action&#45;100 -->
<g id="edge24" class="edge">
<title>cluster&#45;23&#45;&#45;action&#45;100</title>
<path fill="none" stroke="black" d="M2232.23,-261C2241.33,-261 2256.26,-261 2267.92,-261"/>
</g>
<!-- cluster&#45;24&#45;&#45;action&#45;104 -->
<g id="edge25" class="edge">
<title>cluster&#45;24&#45;&#45;action&#45;104</title>
<path fill="none" stroke="black" d="M2358.23,-234C2367.33,-234 2382.26,-234 2393.92,-234"/>
</g>
<!-- cluster&#45;25&#45;&#45;action&#45;108 -->
<g id="edge26" class="edge">
<title>cluster&#45;25&#45;&#45;action&#45;108</title>
<path fill="none" stroke="black" d="M3114.23,-288C3123.33,-288 3138.26,-288 3149.92,-288"/>
</g>
<!-- cluster&#45;26&#45;&#45;action&#45;112 -->
<g id="edge27" class="edge">
<title>cluster&#45;26&#45;&#45;action&#45;112</title>
<path fill="none" stroke="black" d="M3240.23,-234C3249.33,-234 3264.26,-234 3275.92,-234"/>
</g>
<!-- cluster&#45;27&#45;&#45;action&#45;116 -->
<g id="edge28" class="edge">
<title>cluster&#45;27&#45;&#45;action&#45;116</title>
<path fill="none" stroke="black" d="M2484.23,-207C2493.33,-207 2508.26,-207 2519.92,-207"/>
</g>
<!-- cluster&#45;28&#45;&#45;action&#45;120 -->
<g id="edge29" class="edge">
<title>cluster&#45;28&#45;&#45;action&#45;120</title>
<path fill="none" stroke="black" d="M2610.23,-180C2619.33,-180 2634.26,-180 2645.92,-180"/>
</g>
<!-- cluster&#45;29&#45;&#45;action&#45;124 -->
<g id="edge30" class="edge">
<title>cluster&#45;29&#45;&#45;action&#45;124</title>
<path fill="none" stroke="black" d="M2736.23,-153C2745.33,-153 2760.26,-153 2771.92,-153"/>
</g>
<!-- cluster&#45;30&#45;&#45;action&#45;128 -->
<g id="edge31" class="edge">
<title>cluster&#45;30&#45;&#45;action&#45;128</title>
<path fill="none" stroke="black" d="M2862.23,-126C2871.33,-126 2886.26,-126 2897.92,-126"/>
</g>
<!-- cluster&#45;31&#45;&#45;action&#45;132 -->
<g id="edge32" class="edge">
<title>cluster&#45;31&#45;&#45;action&#45;132</title>
<path fill="none" stroke="black" d="M2988.23,-99C2997.33,-99 3012.26,-99 3023.92,-99"/>
</g>
<!-- cluster&#45;32&#45;&#45;action&#45;138 -->
<g id="edge33" class="edge">
<title>cluster&#45;32&#45;&#45;action&#45;138</title>
<path fill="none" stroke="black" d="M3240.23,-126C3249.33,-126 3264.26,-126 3275.92,-126"/>
</g>
<!-- cluster&#45;33&#45;&#45;action&#45;142 -->
<g id="edge34" class="edge">
<title>cluster&#45;33&#45;&#45;action&#45;142</title>
<path fill="none" stroke="black" d="M3114.23,-72C3123.33,-72 3138.26,-72 3149.92,-72"/>
</g>
<!-- cluster&#45;34&#45;&#45;action&#45;146 -->
<g id="edge35" class="edge">
<title>cluster&#45;34&#45;&#45;action&#45;146</title>
<path fill="none" stroke="black" d="M3240.23,-72C3249.33,-72 3264.26,-72 3275.92,-72"/>
</g>
</g>
</svg>
