<?xml version="1.0" encoding="UTF-8" standalone="no"?>
<!DOCTYPE svg PUBLIC "-//W3C//DTD SVG 1.1//EN"
 "http://www.w3.org/Graphics/SVG/1.1/DTD/svg11.dtd">
<!-- Generated by graphviz version 2.43.0 (0)
 -->
<!-- Title: g Pages: 1 -->
<svg width="1194pt" height="328pt"
 viewBox="0.00 0.00 1194.00 328.00" xmlns="http://www.w3.org/2000/svg" xmlns:xlink="http://www.w3.org/1999/xlink">
<g id="graph0" class="graph" transform="scale(1 1) rotate(0) translate(4 324)">
<title>g</title>
<polygon fill="white" stroke="transparent" points="-4,4 -4,-324 1190,-324 1190,4 -4,4"/>
<g id="clust1" class="cluster">
<title>cluster_actionlib</title>
<polygon fill="none" stroke="black" points="1126,-36 1126,-196 1178,-196 1178,-36 1126,-36"/>
</g>
<!-- action&#45;18 -->
<g id="node1" class="node">
<title>action&#45;18</title>
<polygon fill="white" stroke="black" stroke-width="4" points="1170,-188 1134,-188 1134,-152 1170,-152 1170,-188"/>
</g>
<!-- action&#45;29 -->
<g id="node2" class="node">
<title>action&#45;29</title>
<polygon fill="white" stroke="black" stroke-width="4" points="1170,-134 1134,-134 1134,-98 1170,-98 1170,-134"/>
</g>
<!-- action&#45;48 -->
<g id="node3" class="node">
<title>action&#45;48</title>
<polygon fill="#008000" stroke="black" stroke-width="4" points="1170,-80 1134,-80 1134,-44 1170,-44 1170,-80"/>
</g>
<!-- action&#45;1 -->
<g id="node4" class="node">
<title>action&#45;1</title>
<polygon fill="white" stroke="black" points="36,-320 0,-320 0,-284 36,-284 36,-320"/>
</g>
<!-- cluster&#45;0 -->
<g id="node26" class="node">
<title>cluster&#45;0</title>
<polygon fill="black" stroke="black" stroke-width="0" points="90,-284 72,-284 72,-266 90,-266 90,-284"/>
</g>
<!-- action&#45;1&#45;&#45;cluster&#45;0 -->
<g id="edge12" class="edge">
<title>action&#45;1&#45;&#45;cluster&#45;0</title>
<path fill="none" stroke="black" d="M36.32,-294.34C48.01,-289.16 62.91,-282.57 71.94,-278.57"/>
</g>
<!-- action&#45;3 -->
<g id="node5" class="node">
<title>action&#45;3</title>
<polygon fill="white" stroke="black" points="36,-266 0,-266 0,-230 36,-230 36,-266"/>
</g>
<!-- action&#45;3&#45;&#45;cluster&#45;0 -->
<g id="edge13" class="edge">
<title>action&#45;3&#45;&#45;cluster&#45;0</title>
<path fill="none" stroke="black" d="M36.32,-255.66C48.01,-260.84 62.91,-267.43 71.94,-271.43"/>
</g>
<!-- action&#45;4 -->
<g id="node6" class="node">
<title>action&#45;4</title>
<polygon fill="white" stroke="black" points="162,-293 126,-293 126,-257 162,-257 162,-293"/>
</g>
<!-- cluster&#45;1 -->
<g id="node27" class="node">
<title>cluster&#45;1</title>
<polygon fill="black" stroke="black" stroke-width="0" points="216,-257 198,-257 198,-239 216,-239 216,-257"/>
</g>
<!-- action&#45;4&#45;&#45;cluster&#45;1 -->
<g id="edge14" class="edge">
<title>action&#45;4&#45;&#45;cluster&#45;1</title>
<path fill="none" stroke="black" d="M162.32,-267.34C174.01,-262.16 188.91,-255.57 197.94,-251.57"/>
</g>
<!-- action&#45;7 -->
<g id="node7" class="node">
<title>action&#45;7</title>
<polygon fill="white" stroke="black" points="162,-239 126,-239 126,-203 162,-203 162,-239"/>
</g>
<!-- action&#45;7&#45;&#45;cluster&#45;1 -->
<g id="edge15" class="edge">
<title>action&#45;7&#45;&#45;cluster&#45;1</title>
<path fill="none" stroke="black" d="M162.32,-228.66C174.01,-233.84 188.91,-240.43 197.94,-244.43"/>
</g>
<!-- action&#45;8 -->
<g id="node8" class="node">
<title>action&#45;8</title>
<polygon fill="white" stroke="black" points="288,-266 252,-266 252,-230 288,-230 288,-266"/>
</g>
<!-- cluster&#45;4 -->
<g id="node30" class="node">
<title>cluster&#45;4</title>
<polygon fill="black" stroke="black" stroke-width="0" points="342,-230 324,-230 324,-212 342,-212 342,-230"/>
</g>
<!-- action&#45;8&#45;&#45;cluster&#45;4 -->
<g id="edge20" class="edge">
<title>action&#45;8&#45;&#45;cluster&#45;4</title>
<path fill="none" stroke="black" d="M288.32,-240.34C300.01,-235.16 314.91,-228.57 323.94,-224.57"/>
</g>
<!-- action&#45;11 -->
<g id="node9" class="node">
<title>action&#45;11</title>
<polygon fill="white" stroke="black" points="918,-266 882,-266 882,-230 918,-230 918,-266"/>
</g>
<!-- cluster&#45;2 -->
<g id="node28" class="node">
<title>cluster&#45;2</title>
<polygon fill="black" stroke="black" stroke-width="0" points="972,-223 954,-223 954,-205 972,-205 972,-223"/>
</g>
<!-- action&#45;11&#45;&#45;cluster&#45;2 -->
<g id="edge16" class="edge">
<title>action&#45;11&#45;&#45;cluster&#45;2</title>
<path fill="none" stroke="black" d="M918.32,-238.35C930.01,-231.83 944.91,-223.53 953.94,-218.5"/>
</g>
<!-- action&#45;13 -->
<g id="node10" class="node">
<title>action&#45;13</title>
<polygon fill="white" stroke="black" points="918,-212 882,-212 882,-176 918,-176 918,-212"/>
</g>
<!-- action&#45;13&#45;&#45;cluster&#45;2 -->
<g id="edge17" class="edge">
<title>action&#45;13&#45;&#45;cluster&#45;2</title>
<path fill="none" stroke="black" d="M918.32,-199.68C930.01,-203.51 944.91,-208.4 953.94,-211.36"/>
</g>
<!-- action&#45;14 -->
<g id="node11" class="node">
<title>action&#45;14</title>
<polygon fill="white" stroke="black" points="1044,-232 1008,-232 1008,-196 1044,-196 1044,-232"/>
</g>
<!-- cluster&#45;3 -->
<g id="node29" class="node">
<title>cluster&#45;3</title>
<polygon fill="black" stroke="black" stroke-width="0" points="1098,-179 1080,-179 1080,-161 1098,-161 1098,-179"/>
</g>
<!-- action&#45;14&#45;&#45;cluster&#45;3 -->
<g id="edge18" class="edge">
<title>action&#45;14&#45;&#45;cluster&#45;3</title>
<path fill="none" stroke="black" d="M1044.32,-201.51C1056.01,-193.07 1070.91,-182.33 1079.94,-175.82"/>
</g>
<!-- action&#45;17 -->
<g id="node12" class="node">
<title>action&#45;17</title>
<polygon fill="white" stroke="black" points="1044,-178 1008,-178 1008,-142 1044,-142 1044,-178"/>
</g>
<!-- action&#45;17&#45;&#45;cluster&#45;3 -->
<g id="edge19" class="edge">
<title>action&#45;17&#45;&#45;cluster&#45;3</title>
<path fill="none" stroke="black" d="M1044.32,-162.84C1056.01,-164.76 1070.91,-167.2 1079.94,-168.68"/>
</g>
<!-- action&#45;21 -->
<g id="node13" class="node">
<title>action&#45;21</title>
<polygon fill="white" stroke="black" points="288,-212 252,-212 252,-176 288,-176 288,-212"/>
</g>
<!-- action&#45;21&#45;&#45;cluster&#45;4 -->
<g id="edge21" class="edge">
<title>action&#45;21&#45;&#45;cluster&#45;4</title>
<path fill="none" stroke="black" d="M288.32,-201.66C300.01,-206.84 314.91,-213.43 323.94,-217.43"/>
</g>
<!-- action&#45;22 -->
<g id="node14" class="node">
<title>action&#45;22</title>
<polygon fill="white" stroke="black" points="414,-239 378,-239 378,-203 414,-203 414,-239"/>
</g>
<!-- cluster&#45;5 -->
<g id="node31" class="node">
<title>cluster&#45;5</title>
<polygon fill="black" stroke="black" stroke-width="0" points="468,-203 450,-203 450,-185 468,-185 468,-203"/>
</g>
<!-- action&#45;22&#45;&#45;cluster&#45;5 -->
<g id="edge22" class="edge">
<title>action&#45;22&#45;&#45;cluster&#45;5</title>
<path fill="none" stroke="black" d="M414.32,-213.34C426.01,-208.16 440.91,-201.57 449.94,-197.57"/>
</g>
<!-- action&#45;25 -->
<g id="node15" class="node">
<title>action&#45;25</title>
<polygon fill="white" stroke="black" points="414,-185 378,-185 378,-149 414,-149 414,-185"/>
</g>
<!-- action&#45;25&#45;&#45;cluster&#45;5 -->
<g id="edge23" class="edge">
<title>action&#45;25&#45;&#45;cluster&#45;5</title>
<path fill="none" stroke="black" d="M414.32,-174.66C426.01,-179.84 440.91,-186.43 449.94,-190.43"/>
</g>
<!-- action&#45;26 -->
<g id="node16" class="node">
<title>action&#45;26</title>
<polygon fill="white" stroke="black" points="540,-212 504,-212 504,-176 540,-176 540,-212"/>
</g>
<!-- cluster&#45;6 -->
<g id="node32" class="node">
<title>cluster&#45;6</title>
<polygon fill="black" stroke="black" stroke-width="0" points="594,-176 576,-176 576,-158 594,-158 594,-176"/>
</g>
<!-- action&#45;26&#45;&#45;cluster&#45;6 -->
<g id="edge24" class="edge">
<title>action&#45;26&#45;&#45;cluster&#45;6</title>
<path fill="none" stroke="black" d="M540.32,-186.34C552.01,-181.16 566.91,-174.57 575.94,-170.57"/>
</g>
<!-- action&#45;31 -->
<g id="node17" class="node">
<title>action&#45;31</title>
<polygon fill="white" stroke="black" points="540,-158 504,-158 504,-122 540,-122 540,-158"/>
</g>
<!-- action&#45;31&#45;&#45;cluster&#45;6 -->
<g id="edge25" class="edge">
<title>action&#45;31&#45;&#45;cluster&#45;6</title>
<path fill="none" stroke="black" d="M540.32,-147.66C552.01,-152.84 566.91,-159.43 575.94,-163.43"/>
</g>
<!-- action&#45;32 -->
<g id="node18" class="node">
<title>action&#45;32</title>
<polygon fill="white" stroke="black" points="666,-185 630,-185 630,-149 666,-149 666,-185"/>
</g>
<!-- cluster&#45;7 -->
<g id="node33" class="node">
<title>cluster&#45;7</title>
<polygon fill="black" stroke="black" stroke-width="0" points="720,-149 702,-149 702,-131 720,-131 720,-149"/>
</g>
<!-- action&#45;32&#45;&#45;cluster&#45;7 -->
<g id="edge26" class="edge">
<title>action&#45;32&#45;&#45;cluster&#45;7</title>
<path fill="none" stroke="black" d="M666.32,-159.34C678.01,-154.16 692.91,-147.57 701.94,-143.57"/>
</g>
<!-- action&#45;35 -->
<g id="node19" class="node">
<title>action&#45;35</title>
<polygon fill="white" stroke="black" points="666,-131 630,-131 630,-95 666,-95 666,-131"/>
</g>
<!-- action&#45;35&#45;&#45;cluster&#45;7 -->
<g id="edge27" class="edge">
<title>action&#45;35&#45;&#45;cluster&#45;7</title>
<path fill="none" stroke="black" d="M666.32,-120.66C678.01,-125.84 692.91,-132.43 701.94,-136.43"/>
</g>
<!-- action&#45;36 -->
<g id="node20" class="node">
<title>action&#45;36</title>
<polygon fill="white" stroke="black" points="792,-158 756,-158 756,-122 792,-122 792,-158"/>
</g>
<!-- cluster&#45;8 -->
<g id="node34" class="node">
<title>cluster&#45;8</title>
<polygon fill="black" stroke="black" stroke-width="0" points="846,-122 828,-122 828,-104 846,-104 846,-122"/>
</g>
<!-- action&#45;36&#45;&#45;cluster&#45;8 -->
<g id="edge28" class="edge">
<title>action&#45;36&#45;&#45;cluster&#45;8</title>
<path fill="none" stroke="black" d="M792.32,-132.34C804.01,-127.16 818.91,-120.57 827.94,-116.57"/>
</g>
<!-- action&#45;39 -->
<g id="node21" class="node">
<title>action&#45;39</title>
<polygon fill="white" stroke="black" points="792,-104 756,-104 756,-68 792,-68 792,-104"/>
</g>
<!-- action&#45;39&#45;&#45;cluster&#45;8 -->
<g id="edge29" class="edge">
<title>action&#45;39&#45;&#45;cluster&#45;8</title>
<path fill="none" stroke="black" d="M792.32,-93.66C804.01,-98.84 818.91,-105.43 827.94,-109.43"/>
</g>
<!-- action&#45;40 -->
<g id="node22" class="node">
<title>action&#45;40</title>
<polygon fill="white" stroke="black" points="918,-131 882,-131 882,-95 918,-95 918,-131"/>
</g>
<!-- cluster&#45;9 -->
<g id="node35" class="node">
<title>cluster&#45;9</title>
<polygon fill="black" stroke="black" stroke-width="0" points="972,-81 954,-81 954,-63 972,-63 972,-81"/>
</g>
<!-- action&#45;40&#45;&#45;cluster&#45;9 -->
<g id="edge30" class="edge">
<title>action&#45;40&#45;&#45;cluster&#45;9</title>
<path fill="none" stroke="black" d="M918.32,-101.36C930.01,-93.5 944.91,-83.49 953.94,-77.42"/>
</g>
<!-- action&#45;43 -->
<g id="node23" class="node">
<title>action&#45;43</title>
<polygon fill="white" stroke="black" points="918,-77 882,-77 882,-41 918,-41 918,-77"/>
</g>
<!-- action&#45;43&#45;&#45;cluster&#45;9 -->
<g id="edge31" class="edge">
<title>action&#45;43&#45;&#45;cluster&#45;9</title>
<path fill="none" stroke="black" d="M918.32,-62.69C930.01,-65.18 944.91,-68.36 953.94,-70.28"/>
</g>
<!-- action&#45;44 -->
<g id="node24" class="node">
<title>action&#45;44</title>
<polygon fill="#c9211e" stroke="black" points="1044,-90 1008,-90 1008,-54 1044,-54 1044,-90"/>
</g>
<!-- cluster&#45;10 -->
<g id="node36" class="node">
<title>cluster&#45;10</title>
<polygon fill="black" stroke="black" stroke-width="0" points="1098,-71 1080,-71 1080,-53 1098,-53 1098,-71"/>
</g>
<!-- action&#45;44&#45;&#45;cluster&#45;10 -->
<g id="edge32" class="edge">
<title>action&#45;44&#45;&#45;cluster&#45;10</title>
<path fill="none" stroke="black" d="M1044.32,-69.16C1056.01,-67.24 1070.91,-64.8 1079.94,-63.32"/>
</g>
<!-- action&#45;47 -->
<g id="node25" class="node">
<title>action&#45;47</title>
<polygon fill="#00008b" stroke="black" points="1044,-36 1008,-36 1008,0 1044,0 1044,-36"/>
</g>
<!-- action&#45;47&#45;&#45;cluster&#45;10 -->
<g id="edge33" class="edge">
<title>action&#45;47&#45;&#45;cluster&#45;10</title>
<path fill="none" stroke="black" d="M1044.32,-30.49C1056.01,-38.93 1070.91,-49.67 1079.94,-56.18"/>
</g>
<!-- cluster&#45;0&#45;&#45;action&#45;4 -->
<g id="edge1" class="edge">
<title>cluster&#45;0&#45;&#45;action&#45;4</title>
<path fill="none" stroke="black" d="M90.23,-275C99.33,-275 114.26,-275 125.92,-275"/>
</g>
<!-- cluster&#45;1&#45;&#45;action&#45;8 -->
<g id="edge2" class="edge">
<title>cluster&#45;1&#45;&#45;action&#45;8</title>
<path fill="none" stroke="black" d="M216.23,-248C225.33,-248 240.26,-248 251.92,-248"/>
</g>
<!-- cluster&#45;2&#45;&#45;action&#45;14 -->
<g id="edge3" class="edge">
<title>cluster&#45;2&#45;&#45;action&#45;14</title>
<path fill="none" stroke="black" d="M972.23,-214C981.33,-214 996.26,-214 1007.92,-214"/>
</g>
<!-- cluster&#45;3&#45;&#45;action&#45;18 -->
<g id="edge4" class="edge">
<title>cluster&#45;3&#45;&#45;action&#45;18</title>
<path fill="none" stroke="black" d="M1098.23,-170C1107.33,-170 1122.26,-170 1133.92,-170"/>
</g>
<!-- cluster&#45;4&#45;&#45;action&#45;22 -->
<g id="edge5" class="edge">
<title>cluster&#45;4&#45;&#45;action&#45;22</title>
<path fill="none" stroke="black" d="M342.23,-221C351.33,-221 366.26,-221 377.92,-221"/>
</g>
<!-- cluster&#45;5&#45;&#45;action&#45;26 -->
<g id="edge6" class="edge">
<title>cluster&#45;5&#45;&#45;action&#45;26</title>
<path fill="none" stroke="black" d="M468.23,-194C477.33,-194 492.26,-194 503.92,-194"/>
</g>
<!-- cluster&#45;6&#45;&#45;action&#45;32 -->
<g id="edge7" class="edge">
<title>cluster&#45;6&#45;&#45;action&#45;32</title>
<path fill="none" stroke="black" d="M594.23,-167C603.33,-167 618.26,-167 629.92,-167"/>
</g>
<!-- cluster&#45;7&#45;&#45;action&#45;36 -->
<g id="edge8" class="edge">
<title>cluster&#45;7&#45;&#45;action&#45;36</title>
<path fill="none" stroke="black" d="M720.23,-140C729.33,-140 744.26,-140 755.92,-140"/>
</g>
<!-- cluster&#45;8&#45;&#45;action&#45;40 -->
<g id="edge9" class="edge">
<title>cluster&#45;8&#45;&#45;action&#45;40</title>
<path fill="none" stroke="black" d="M846.23,-113C855.33,-113 870.26,-113 881.92,-113"/>
</g>
<!-- cluster&#45;9&#45;&#45;action&#45;44 -->
<g id="edge10" class="edge">
<title>cluster&#45;9&#45;&#45;action&#45;44</title>
<path fill="none" stroke="black" d="M972.23,-72C981.33,-72 996.26,-72 1007.92,-72"/>
</g>
<!-- cluster&#45;10&#45;&#45;action&#45;48 -->
<g id="edge11" class="edge">
<title>cluster&#45;10&#45;&#45;action&#45;48</title>
<path fill="none" stroke="black" d="M1098.23,-62C1107.33,-62 1122.26,-62 1133.92,-62"/>
</g>
</g>
</svg>
