<?xml version="1.0" encoding="UTF-8" standalone="no"?>
<!DOCTYPE svg PUBLIC "-//W3C//DTD SVG 1.1//EN"
 "http://www.w3.org/Graphics/SVG/1.1/DTD/svg11.dtd">
<!-- Generated by graphviz version 2.43.0 (0)
 -->
<!-- Title: g Pages: 1 -->
<svg width="1950pt" height="520pt"
 viewBox="0.00 0.00 1950.00 520.00" xmlns="http://www.w3.org/2000/svg" xmlns:xlink="http://www.w3.org/1999/xlink">
<g id="graph0" class="graph" transform="scale(1 1) rotate(0) translate(4 516)">
<title>g</title>
<polygon fill="white" stroke="transparent" points="-4,4 -4,-516 1946,-516 1946,4 -4,4"/>
<g id="clust1" class="cluster">
<title>cluster_actionlib</title>
<polygon fill="none" stroke="black" points="1882,-46 1882,-206 1934,-206 1934,-46 1882,-46"/>
</g>
<!-- action&#45;29 -->
<g id="node1" class="node">
<title>action&#45;29</title>
<polygon fill="white" stroke="black" stroke-width="4" points="1926,-198 1890,-198 1890,-162 1926,-162 1926,-198"/>
</g>
<!-- action&#45;76 -->
<g id="node2" class="node">
<title>action&#45;76</title>
<polygon fill="white" stroke="black" stroke-width="4" points="1926,-144 1890,-144 1890,-108 1926,-108 1926,-144"/>
</g>
<!-- action&#45;84 -->
<g id="node3" class="node">
<title>action&#45;84</title>
<polygon fill="#008000" stroke="black" stroke-width="4" points="1926,-90 1890,-90 1890,-54 1926,-54 1926,-90"/>
</g>
<!-- action&#45;1 -->
<g id="node4" class="node">
<title>action&#45;1</title>
<polygon fill="white" stroke="black" points="36,-512 0,-512 0,-476 36,-476 36,-512"/>
</g>
<!-- cluster&#45;0 -->
<g id="node44" class="node">
<title>cluster&#45;0</title>
<polygon fill="black" stroke="black" stroke-width="0" points="90,-476 72,-476 72,-458 90,-458 90,-476"/>
</g>
<!-- action&#45;1&#45;&#45;cluster&#45;0 -->
<g id="edge21" class="edge">
<title>action&#45;1&#45;&#45;cluster&#45;0</title>
<path fill="none" stroke="black" d="M36.32,-486.34C48.01,-481.16 62.91,-474.57 71.94,-470.57"/>
</g>
<!-- action&#45;3 -->
<g id="node5" class="node">
<title>action&#45;3</title>
<polygon fill="white" stroke="black" points="36,-458 0,-458 0,-422 36,-422 36,-458"/>
</g>
<!-- action&#45;3&#45;&#45;cluster&#45;0 -->
<g id="edge22" class="edge">
<title>action&#45;3&#45;&#45;cluster&#45;0</title>
<path fill="none" stroke="black" d="M36.32,-447.66C48.01,-452.84 62.91,-459.43 71.94,-463.43"/>
</g>
<!-- action&#45;4 -->
<g id="node6" class="node">
<title>action&#45;4</title>
<polygon fill="white" stroke="black" points="162,-485 126,-485 126,-449 162,-449 162,-485"/>
</g>
<!-- cluster&#45;1 -->
<g id="node45" class="node">
<title>cluster&#45;1</title>
<polygon fill="black" stroke="black" stroke-width="0" points="216,-449 198,-449 198,-431 216,-431 216,-449"/>
</g>
<!-- action&#45;4&#45;&#45;cluster&#45;1 -->
<g id="edge23" class="edge">
<title>action&#45;4&#45;&#45;cluster&#45;1</title>
<path fill="none" stroke="black" d="M162.32,-459.34C174.01,-454.16 188.91,-447.57 197.94,-443.57"/>
</g>
<!-- action&#45;7 -->
<g id="node7" class="node">
<title>action&#45;7</title>
<polygon fill="white" stroke="black" points="162,-431 126,-431 126,-395 162,-395 162,-431"/>
</g>
<!-- action&#45;7&#45;&#45;cluster&#45;1 -->
<g id="edge24" class="edge">
<title>action&#45;7&#45;&#45;cluster&#45;1</title>
<path fill="none" stroke="black" d="M162.32,-420.66C174.01,-425.84 188.91,-432.43 197.94,-436.43"/>
</g>
<!-- action&#45;8 -->
<g id="node8" class="node">
<title>action&#45;8</title>
<polygon fill="white" stroke="black" points="288,-458 252,-458 252,-422 288,-422 288,-458"/>
</g>
<!-- cluster&#45;4 -->
<g id="node48" class="node">
<title>cluster&#45;4</title>
<polygon fill="black" stroke="black" stroke-width="0" points="342,-422 324,-422 324,-404 342,-404 342,-422"/>
</g>
<!-- action&#45;8&#45;&#45;cluster&#45;4 -->
<g id="edge29" class="edge">
<title>action&#45;8&#45;&#45;cluster&#45;4</title>
<path fill="none" stroke="black" d="M288.32,-432.34C300.01,-427.16 314.91,-420.57 323.94,-416.57"/>
</g>
<!-- action&#45;11 -->
<g id="node9" class="node">
<title>action&#45;11</title>
<polygon fill="white" stroke="black" points="1296,-377 1260,-377 1260,-341 1296,-341 1296,-377"/>
</g>
<!-- cluster&#45;2 -->
<g id="node46" class="node">
<title>cluster&#45;2</title>
<polygon fill="black" stroke="black" stroke-width="0" points="1350,-334 1332,-334 1332,-316 1350,-316 1350,-334"/>
</g>
<!-- action&#45;11&#45;&#45;cluster&#45;2 -->
<g id="edge25" class="edge">
<title>action&#45;11&#45;&#45;cluster&#45;2</title>
<path fill="none" stroke="black" d="M1296.32,-349.35C1308.01,-342.83 1322.91,-334.53 1331.94,-329.5"/>
</g>
<!-- action&#45;13 -->
<g id="node10" class="node">
<title>action&#45;13</title>
<polygon fill="white" stroke="black" points="1296,-323 1260,-323 1260,-287 1296,-287 1296,-323"/>
</g>
<!-- action&#45;13&#45;&#45;cluster&#45;2 -->
<g id="edge26" class="edge">
<title>action&#45;13&#45;&#45;cluster&#45;2</title>
<path fill="none" stroke="black" d="M1296.32,-310.68C1308.01,-314.51 1322.91,-319.4 1331.94,-322.36"/>
</g>
<!-- action&#45;14 -->
<g id="node11" class="node">
<title>action&#45;14</title>
<polygon fill="white" stroke="black" points="1422,-343 1386,-343 1386,-307 1422,-307 1422,-343"/>
</g>
<!-- cluster&#45;3 -->
<g id="node47" class="node">
<title>cluster&#45;3</title>
<polygon fill="black" stroke="black" stroke-width="0" points="1476,-290 1458,-290 1458,-272 1476,-272 1476,-290"/>
</g>
<!-- action&#45;14&#45;&#45;cluster&#45;3 -->
<g id="edge27" class="edge">
<title>action&#45;14&#45;&#45;cluster&#45;3</title>
<path fill="none" stroke="black" d="M1422.32,-312.51C1434.01,-304.07 1448.91,-293.33 1457.94,-286.82"/>
</g>
<!-- action&#45;17 -->
<g id="node12" class="node">
<title>action&#45;17</title>
<polygon fill="white" stroke="black" points="1422,-289 1386,-289 1386,-253 1422,-253 1422,-289"/>
</g>
<!-- action&#45;17&#45;&#45;cluster&#45;3 -->
<g id="edge28" class="edge">
<title>action&#45;17&#45;&#45;cluster&#45;3</title>
<path fill="none" stroke="black" d="M1422.32,-273.84C1434.01,-275.76 1448.91,-278.2 1457.94,-279.68"/>
</g>
<!-- action&#45;18 -->
<g id="node13" class="node">
<title>action&#45;18</title>
<polygon fill="white" stroke="black" points="1548,-299 1512,-299 1512,-263 1548,-263 1548,-299"/>
</g>
<!-- cluster&#45;13 -->
<g id="node57" class="node">
<title>cluster&#45;13</title>
<polygon fill="black" stroke="black" stroke-width="0" points="1602,-241 1584,-241 1584,-223 1602,-223 1602,-241"/>
</g>
<!-- action&#45;18&#45;&#45;cluster&#45;13 -->
<g id="edge47" class="edge">
<title>action&#45;18&#45;&#45;cluster&#45;13</title>
<path fill="none" stroke="black" d="M1548.32,-267.09C1560.01,-257.7 1574.91,-245.73 1583.94,-238.48"/>
</g>
<!-- action&#45;21 -->
<g id="node14" class="node">
<title>action&#45;21</title>
<polygon fill="white" stroke="black" points="288,-404 252,-404 252,-368 288,-368 288,-404"/>
</g>
<!-- action&#45;21&#45;&#45;cluster&#45;4 -->
<g id="edge30" class="edge">
<title>action&#45;21&#45;&#45;cluster&#45;4</title>
<path fill="none" stroke="black" d="M288.32,-393.66C300.01,-398.84 314.91,-405.43 323.94,-409.43"/>
</g>
<!-- action&#45;22 -->
<g id="node15" class="node">
<title>action&#45;22</title>
<polygon fill="white" stroke="black" points="414,-431 378,-431 378,-395 414,-395 414,-431"/>
</g>
<!-- cluster&#45;5 -->
<g id="node49" class="node">
<title>cluster&#45;5</title>
<polygon fill="black" stroke="black" stroke-width="0" points="468,-395 450,-395 450,-377 468,-377 468,-395"/>
</g>
<!-- action&#45;22&#45;&#45;cluster&#45;5 -->
<g id="edge31" class="edge">
<title>action&#45;22&#45;&#45;cluster&#45;5</title>
<path fill="none" stroke="black" d="M414.32,-405.34C426.01,-400.16 440.91,-393.57 449.94,-389.57"/>
</g>
<!-- action&#45;25 -->
<g id="node16" class="node">
<title>action&#45;25</title>
<polygon fill="white" stroke="black" points="414,-377 378,-377 378,-341 414,-341 414,-377"/>
</g>
<!-- action&#45;25&#45;&#45;cluster&#45;5 -->
<g id="edge32" class="edge">
<title>action&#45;25&#45;&#45;cluster&#45;5</title>
<path fill="none" stroke="black" d="M414.32,-366.66C426.01,-371.84 440.91,-378.43 449.94,-382.43"/>
</g>
<!-- action&#45;26 -->
<g id="node17" class="node">
<title>action&#45;26</title>
<polygon fill="white" stroke="black" points="540,-404 504,-404 504,-368 540,-368 540,-404"/>
</g>
<!-- cluster&#45;6 -->
<g id="node50" class="node">
<title>cluster&#45;6</title>
<polygon fill="black" stroke="black" stroke-width="0" points="594,-368 576,-368 576,-350 594,-350 594,-368"/>
</g>
<!-- action&#45;26&#45;&#45;cluster&#45;6 -->
<g id="edge33" class="edge">
<title>action&#45;26&#45;&#45;cluster&#45;6</title>
<path fill="none" stroke="black" d="M540.32,-378.34C552.01,-373.16 566.91,-366.57 575.94,-362.57"/>
</g>
<!-- action&#45;31 -->
<g id="node18" class="node">
<title>action&#45;31</title>
<polygon fill="white" stroke="black" points="540,-350 504,-350 504,-314 540,-314 540,-350"/>
</g>
<!-- action&#45;31&#45;&#45;cluster&#45;6 -->
<g id="edge34" class="edge">
<title>action&#45;31&#45;&#45;cluster&#45;6</title>
<path fill="none" stroke="black" d="M540.32,-339.66C552.01,-344.84 566.91,-351.43 575.94,-355.43"/>
</g>
<!-- action&#45;32 -->
<g id="node19" class="node">
<title>action&#45;32</title>
<polygon fill="white" stroke="black" points="666,-377 630,-377 630,-341 666,-341 666,-377"/>
</g>
<!-- cluster&#45;7 -->
<g id="node51" class="node">
<title>cluster&#45;7</title>
<polygon fill="black" stroke="black" stroke-width="0" points="720,-341 702,-341 702,-323 720,-323 720,-341"/>
</g>
<!-- action&#45;32&#45;&#45;cluster&#45;7 -->
<g id="edge35" class="edge">
<title>action&#45;32&#45;&#45;cluster&#45;7</title>
<path fill="none" stroke="black" d="M666.32,-351.34C678.01,-346.16 692.91,-339.57 701.94,-335.57"/>
</g>
<!-- action&#45;35 -->
<g id="node20" class="node">
<title>action&#45;35</title>
<polygon fill="white" stroke="black" points="666,-323 630,-323 630,-287 666,-287 666,-323"/>
</g>
<!-- action&#45;35&#45;&#45;cluster&#45;7 -->
<g id="edge36" class="edge">
<title>action&#45;35&#45;&#45;cluster&#45;7</title>
<path fill="none" stroke="black" d="M666.32,-312.66C678.01,-317.84 692.91,-324.43 701.94,-328.43"/>
</g>
<!-- action&#45;36 -->
<g id="node21" class="node">
<title>action&#45;36</title>
<polygon fill="white" stroke="black" points="792,-350 756,-350 756,-314 792,-314 792,-350"/>
</g>
<!-- cluster&#45;8 -->
<g id="node52" class="node">
<title>cluster&#45;8</title>
<polygon fill="black" stroke="black" stroke-width="0" points="846,-314 828,-314 828,-296 846,-296 846,-314"/>
</g>
<!-- action&#45;36&#45;&#45;cluster&#45;8 -->
<g id="edge37" class="edge">
<title>action&#45;36&#45;&#45;cluster&#45;8</title>
<path fill="none" stroke="black" d="M792.32,-324.34C804.01,-319.16 818.91,-312.57 827.94,-308.57"/>
</g>
<!-- action&#45;39 -->
<g id="node22" class="node">
<title>action&#45;39</title>
<polygon fill="white" stroke="black" points="792,-296 756,-296 756,-260 792,-260 792,-296"/>
</g>
<!-- action&#45;39&#45;&#45;cluster&#45;8 -->
<g id="edge38" class="edge">
<title>action&#45;39&#45;&#45;cluster&#45;8</title>
<path fill="none" stroke="black" d="M792.32,-285.66C804.01,-290.84 818.91,-297.43 827.94,-301.43"/>
</g>
<!-- action&#45;40 -->
<g id="node23" class="node">
<title>action&#45;40</title>
<polygon fill="white" stroke="black" points="918,-323 882,-323 882,-287 918,-287 918,-323"/>
</g>
<!-- cluster&#45;9 -->
<g id="node53" class="node">
<title>cluster&#45;9</title>
<polygon fill="black" stroke="black" stroke-width="0" points="972,-287 954,-287 954,-269 972,-269 972,-287"/>
</g>
<!-- action&#45;40&#45;&#45;cluster&#45;9 -->
<g id="edge39" class="edge">
<title>action&#45;40&#45;&#45;cluster&#45;9</title>
<path fill="none" stroke="black" d="M918.32,-297.34C930.01,-292.16 944.91,-285.57 953.94,-281.57"/>
</g>
<!-- action&#45;43 -->
<g id="node24" class="node">
<title>action&#45;43</title>
<polygon fill="white" stroke="black" points="918,-269 882,-269 882,-233 918,-233 918,-269"/>
</g>
<!-- action&#45;43&#45;&#45;cluster&#45;9 -->
<g id="edge40" class="edge">
<title>action&#45;43&#45;&#45;cluster&#45;9</title>
<path fill="none" stroke="black" d="M918.32,-258.66C930.01,-263.84 944.91,-270.43 953.94,-274.43"/>
</g>
<!-- action&#45;44 -->
<g id="node25" class="node">
<title>action&#45;44</title>
<polygon fill="white" stroke="black" points="1044,-296 1008,-296 1008,-260 1044,-260 1044,-296"/>
</g>
<!-- cluster&#45;10 -->
<g id="node54" class="node">
<title>cluster&#45;10</title>
<polygon fill="black" stroke="black" stroke-width="0" points="1098,-260 1080,-260 1080,-242 1098,-242 1098,-260"/>
</g>
<!-- action&#45;44&#45;&#45;cluster&#45;10 -->
<g id="edge41" class="edge">
<title>action&#45;44&#45;&#45;cluster&#45;10</title>
<path fill="none" stroke="black" d="M1044.32,-270.34C1056.01,-265.16 1070.91,-258.57 1079.94,-254.57"/>
</g>
<!-- action&#45;47 -->
<g id="node26" class="node">
<title>action&#45;47</title>
<polygon fill="white" stroke="black" points="1044,-242 1008,-242 1008,-206 1044,-206 1044,-242"/>
</g>
<!-- action&#45;47&#45;&#45;cluster&#45;10 -->
<g id="edge42" class="edge">
<title>action&#45;47&#45;&#45;cluster&#45;10</title>
<path fill="none" stroke="black" d="M1044.32,-231.66C1056.01,-236.84 1070.91,-243.43 1079.94,-247.43"/>
</g>
<!-- action&#45;48 -->
<g id="node27" class="node">
<title>action&#45;48</title>
<polygon fill="white" stroke="black" points="1170,-269 1134,-269 1134,-233 1170,-233 1170,-269"/>
</g>
<!-- cluster&#45;11 -->
<g id="node55" class="node">
<title>cluster&#45;11</title>
<polygon fill="black" stroke="black" stroke-width="0" points="1224,-233 1206,-233 1206,-215 1224,-215 1224,-233"/>
</g>
<!-- action&#45;48&#45;&#45;cluster&#45;11 -->
<g id="edge43" class="edge">
<title>action&#45;48&#45;&#45;cluster&#45;11</title>
<path fill="none" stroke="black" d="M1170.32,-243.34C1182.01,-238.16 1196.91,-231.57 1205.94,-227.57"/>
</g>
<!-- action&#45;51 -->
<g id="node28" class="node">
<title>action&#45;51</title>
<polygon fill="white" stroke="black" points="1170,-215 1134,-215 1134,-179 1170,-179 1170,-215"/>
</g>
<!-- action&#45;51&#45;&#45;cluster&#45;11 -->
<g id="edge44" class="edge">
<title>action&#45;51&#45;&#45;cluster&#45;11</title>
<path fill="none" stroke="black" d="M1170.32,-204.66C1182.01,-209.84 1196.91,-216.43 1205.94,-220.43"/>
</g>
<!-- action&#45;52 -->
<g id="node29" class="node">
<title>action&#45;52</title>
<polygon fill="white" stroke="black" points="1296,-242 1260,-242 1260,-206 1296,-206 1296,-242"/>
</g>
<!-- cluster&#45;12 -->
<g id="node56" class="node">
<title>cluster&#45;12</title>
<polygon fill="black" stroke="black" stroke-width="0" points="1350,-192 1332,-192 1332,-174 1350,-174 1350,-192"/>
</g>
<!-- action&#45;52&#45;&#45;cluster&#45;12 -->
<g id="edge45" class="edge">
<title>action&#45;52&#45;&#45;cluster&#45;12</title>
<path fill="none" stroke="black" d="M1296.32,-212.36C1308.01,-204.5 1322.91,-194.49 1331.94,-188.42"/>
</g>
<!-- action&#45;55 -->
<g id="node30" class="node">
<title>action&#45;55</title>
<polygon fill="white" stroke="black" points="1296,-188 1260,-188 1260,-152 1296,-152 1296,-188"/>
</g>
<!-- action&#45;55&#45;&#45;cluster&#45;12 -->
<g id="edge46" class="edge">
<title>action&#45;55&#45;&#45;cluster&#45;12</title>
<path fill="none" stroke="black" d="M1296.32,-173.69C1308.01,-176.18 1322.91,-179.36 1331.94,-181.28"/>
</g>
<!-- action&#45;56 -->
<g id="node31" class="node">
<title>action&#45;56</title>
<polygon fill="white" stroke="black" points="1422,-201 1386,-201 1386,-165 1422,-165 1422,-201"/>
</g>
<!-- cluster&#45;14 -->
<g id="node58" class="node">
<title>cluster&#45;14</title>
<polygon fill="black" stroke="black" stroke-width="0" points="1476,-138 1458,-138 1458,-120 1476,-120 1476,-138"/>
</g>
<!-- action&#45;56&#45;&#45;cluster&#45;14 -->
<g id="edge49" class="edge">
<title>action&#45;56&#45;&#45;cluster&#45;14</title>
<path fill="none" stroke="black" d="M1422.32,-167.67C1434.01,-157.32 1448.91,-144.13 1457.94,-136.14"/>
</g>
<!-- action&#45;59 -->
<g id="node32" class="node">
<title>action&#45;59</title>
<polygon fill="white" stroke="black" points="1548,-245 1512,-245 1512,-209 1548,-209 1548,-245"/>
</g>
<!-- action&#45;59&#45;&#45;cluster&#45;13 -->
<g id="edge48" class="edge">
<title>action&#45;59&#45;&#45;cluster&#45;13</title>
<path fill="none" stroke="black" d="M1548.32,-228.42C1560.01,-229.38 1574.91,-230.6 1583.94,-231.34"/>
</g>
<!-- action&#45;60 -->
<g id="node33" class="node">
<title>action&#45;60</title>
<polygon fill="white" stroke="black" points="1674,-250 1638,-250 1638,-214 1674,-214 1674,-250"/>
</g>
<!-- cluster&#45;16 -->
<g id="node60" class="node">
<title>cluster&#45;16</title>
<polygon fill="black" stroke="black" stroke-width="0" points="1728,-189 1710,-189 1710,-171 1728,-171 1728,-189"/>
</g>
<!-- action&#45;60&#45;&#45;cluster&#45;16 -->
<g id="edge53" class="edge">
<title>action&#45;60&#45;&#45;cluster&#45;16</title>
<path fill="none" stroke="black" d="M1674.32,-217.24C1686.01,-207.27 1700.91,-194.57 1709.94,-186.88"/>
</g>
<!-- action&#45;63 -->
<g id="node34" class="node">
<title>action&#45;63</title>
<polygon fill="white" stroke="black" points="1422,-147 1386,-147 1386,-111 1422,-111 1422,-147"/>
</g>
<!-- action&#45;63&#45;&#45;cluster&#45;14 -->
<g id="edge50" class="edge">
<title>action&#45;63&#45;&#45;cluster&#45;14</title>
<path fill="none" stroke="black" d="M1422.32,-129C1434.01,-129 1448.91,-129 1457.94,-129"/>
</g>
<!-- action&#45;64 -->
<g id="node35" class="node">
<title>action&#45;64</title>
<polygon fill="white" stroke="black" points="1548,-147 1512,-147 1512,-111 1548,-111 1548,-147"/>
</g>
<!-- cluster&#45;15 -->
<g id="node59" class="node">
<title>cluster&#45;15</title>
<polygon fill="black" stroke="black" stroke-width="0" points="1602,-84 1584,-84 1584,-66 1602,-66 1602,-84"/>
</g>
<!-- action&#45;64&#45;&#45;cluster&#45;15 -->
<g id="edge51" class="edge">
<title>action&#45;64&#45;&#45;cluster&#45;15</title>
<path fill="none" stroke="black" d="M1548.32,-113.67C1560.01,-103.32 1574.91,-90.13 1583.94,-82.14"/>
</g>
<!-- action&#45;67 -->
<g id="node36" class="node">
<title>action&#45;67</title>
<polygon fill="white" stroke="black" points="1548,-93 1512,-93 1512,-57 1548,-57 1548,-93"/>
</g>
<!-- action&#45;67&#45;&#45;cluster&#45;15 -->
<g id="edge52" class="edge">
<title>action&#45;67&#45;&#45;cluster&#45;15</title>
<path fill="none" stroke="black" d="M1548.32,-75C1560.01,-75 1574.91,-75 1583.94,-75"/>
</g>
<!-- action&#45;68 -->
<g id="node37" class="node">
<title>action&#45;68</title>
<polygon fill="white" stroke="black" points="1674,-93 1638,-93 1638,-57 1674,-57 1674,-93"/>
</g>
<!-- cluster&#45;18 -->
<g id="node62" class="node">
<title>cluster&#45;18</title>
<polygon fill="black" stroke="black" stroke-width="0" points="1728,-81 1710,-81 1710,-63 1728,-63 1728,-81"/>
</g>
<!-- action&#45;68&#45;&#45;cluster&#45;18 -->
<g id="edge57" class="edge">
<title>action&#45;68&#45;&#45;cluster&#45;18</title>
<path fill="none" stroke="black" d="M1674.32,-74.15C1686.01,-73.57 1700.91,-72.84 1709.94,-72.4"/>
</g>
<!-- action&#45;71 -->
<g id="node38" class="node">
<title>action&#45;71</title>
<polygon fill="white" stroke="black" points="1674,-196 1638,-196 1638,-160 1674,-160 1674,-196"/>
</g>
<!-- action&#45;71&#45;&#45;cluster&#45;16 -->
<g id="edge54" class="edge">
<title>action&#45;71&#45;&#45;cluster&#45;16</title>
<path fill="none" stroke="black" d="M1674.32,-178.57C1686.01,-178.95 1700.91,-179.44 1709.94,-179.74"/>
</g>
<!-- action&#45;72 -->
<g id="node39" class="node">
<title>action&#45;72</title>
<polygon fill="white" stroke="black" points="1800,-198 1764,-198 1764,-162 1800,-162 1800,-198"/>
</g>
<!-- cluster&#45;17 -->
<g id="node61" class="node">
<title>cluster&#45;17</title>
<polygon fill="black" stroke="black" stroke-width="0" points="1854,-135 1836,-135 1836,-117 1854,-117 1854,-135"/>
</g>
<!-- action&#45;72&#45;&#45;cluster&#45;17 -->
<g id="edge55" class="edge">
<title>action&#45;72&#45;&#45;cluster&#45;17</title>
<path fill="none" stroke="black" d="M1800.32,-164.67C1812.01,-154.32 1826.91,-141.13 1835.94,-133.14"/>
</g>
<!-- action&#45;75 -->
<g id="node40" class="node">
<title>action&#45;75</title>
<polygon fill="white" stroke="black" points="1800,-144 1764,-144 1764,-108 1800,-108 1800,-144"/>
</g>
<!-- action&#45;75&#45;&#45;cluster&#45;17 -->
<g id="edge56" class="edge">
<title>action&#45;75&#45;&#45;cluster&#45;17</title>
<path fill="none" stroke="black" d="M1800.32,-126C1812.01,-126 1826.91,-126 1835.94,-126"/>
</g>
<!-- action&#45;79 -->
<g id="node41" class="node">
<title>action&#45;79</title>
<polygon fill="white" stroke="black" points="1674,-39 1638,-39 1638,-3 1674,-3 1674,-39"/>
</g>
<!-- action&#45;79&#45;&#45;cluster&#45;18 -->
<g id="edge58" class="edge">
<title>action&#45;79&#45;&#45;cluster&#45;18</title>
<path fill="none" stroke="black" d="M1674.32,-35.48C1686.01,-45.26 1700.91,-57.71 1709.94,-65.26"/>
</g>
<!-- action&#45;80 -->
<g id="node42" class="node">
<title>action&#45;80</title>
<polygon fill="#c9211e" stroke="black" points="1800,-90 1764,-90 1764,-54 1800,-54 1800,-90"/>
</g>
<!-- cluster&#45;19 -->
<g id="node63" class="node">
<title>cluster&#45;19</title>
<polygon fill="black" stroke="black" stroke-width="0" points="1854,-81 1836,-81 1836,-63 1854,-63 1854,-81"/>
</g>
<!-- action&#45;80&#45;&#45;cluster&#45;19 -->
<g id="edge59" class="edge">
<title>action&#45;80&#45;&#45;cluster&#45;19</title>
<path fill="none" stroke="black" d="M1800.32,-72C1812.01,-72 1826.91,-72 1835.94,-72"/>
</g>
<!-- action&#45;83 -->
<g id="node43" class="node">
<title>action&#45;83</title>
<polygon fill="#00008b" stroke="black" points="1800,-36 1764,-36 1764,0 1800,0 1800,-36"/>
</g>
<!-- action&#45;83&#45;&#45;cluster&#45;19 -->
<g id="edge60" class="edge">
<title>action&#45;83&#45;&#45;cluster&#45;19</title>
<path fill="none" stroke="black" d="M1800.32,-33.33C1812.01,-43.68 1826.91,-56.87 1835.94,-64.86"/>
</g>
<!-- cluster&#45;0&#45;&#45;action&#45;4 -->
<g id="edge1" class="edge">
<title>cluster&#45;0&#45;&#45;action&#45;4</title>
<path fill="none" stroke="black" d="M90.23,-467C99.33,-467 114.26,-467 125.92,-467"/>
</g>
<!-- cluster&#45;1&#45;&#45;action&#45;8 -->
<g id="edge2" class="edge">
<title>cluster&#45;1&#45;&#45;action&#45;8</title>
<path fill="none" stroke="black" d="M216.23,-440C225.33,-440 240.26,-440 251.92,-440"/>
</g>
<!-- cluster&#45;2&#45;&#45;action&#45;14 -->
<g id="edge3" class="edge">
<title>cluster&#45;2&#45;&#45;action&#45;14</title>
<path fill="none" stroke="black" d="M1350.23,-325C1359.33,-325 1374.26,-325 1385.92,-325"/>
</g>
<!-- cluster&#45;3&#45;&#45;action&#45;18 -->
<g id="edge4" class="edge">
<title>cluster&#45;3&#45;&#45;action&#45;18</title>
<path fill="none" stroke="black" d="M1476.23,-281C1485.33,-281 1500.26,-281 1511.92,-281"/>
</g>
<!-- cluster&#45;4&#45;&#45;action&#45;22 -->
<g id="edge5" class="edge">
<title>cluster&#45;4&#45;&#45;action&#45;22</title>
<path fill="none" stroke="black" d="M342.23,-413C351.33,-413 366.26,-413 377.92,-413"/>
</g>
<!-- cluster&#45;5&#45;&#45;action&#45;26 -->
<g id="edge6" class="edge">
<title>cluster&#45;5&#45;&#45;action&#45;26</title>
<path fill="none" stroke="black" d="M468.23,-386C477.33,-386 492.26,-386 503.92,-386"/>
</g>
<!-- cluster&#45;6&#45;&#45;action&#45;32 -->
<g id="edge7" class="edge">
<title>cluster&#45;6&#45;&#45;action&#45;32</title>
<path fill="none" stroke="black" d="M594.23,-359C603.33,-359 618.26,-359 629.92,-359"/>
</g>
<!-- cluster&#45;7&#45;&#45;action&#45;36 -->
<g id="edge8" class="edge">
<title>cluster&#45;7&#45;&#45;action&#45;36</title>
<path fill="none" stroke="black" d="M720.23,-332C729.33,-332 744.26,-332 755.92,-332"/>
</g>
<!-- cluster&#45;8&#45;&#45;action&#45;40 -->
<g id="edge9" class="edge">
<title>cluster&#45;8&#45;&#45;action&#45;40</title>
<path fill="none" stroke="black" d="M846.23,-305C855.33,-305 870.26,-305 881.92,-305"/>
</g>
<!-- cluster&#45;9&#45;&#45;action&#45;44 -->
<g id="edge10" class="edge">
<title>cluster&#45;9&#45;&#45;action&#45;44</title>
<path fill="none" stroke="black" d="M972.23,-278C981.33,-278 996.26,-278 1007.92,-278"/>
</g>
<!-- cluster&#45;10&#45;&#45;action&#45;48 -->
<g id="edge11" class="edge">
<title>cluster&#45;10&#45;&#45;action&#45;48</title>
<path fill="none" stroke="black" d="M1098.23,-251C1107.33,-251 1122.26,-251 1133.92,-251"/>
</g>
<!-- cluster&#45;11&#45;&#45;action&#45;52 -->
<g id="edge12" class="edge">
<title>cluster&#45;11&#45;&#45;action&#45;52</title>
<path fill="none" stroke="black" d="M1224.23,-224C1233.33,-224 1248.26,-224 1259.92,-224"/>
</g>
<!-- cluster&#45;12&#45;&#45;action&#45;56 -->
<g id="edge13" class="edge">
<title>cluster&#45;12&#45;&#45;action&#45;56</title>
<path fill="none" stroke="black" d="M1350.23,-183C1359.33,-183 1374.26,-183 1385.92,-183"/>
</g>
<!-- cluster&#45;13&#45;&#45;action&#45;60 -->
<g id="edge14" class="edge">
<title>cluster&#45;13&#45;&#45;action&#45;60</title>
<path fill="none" stroke="black" d="M1602.23,-232C1611.33,-232 1626.26,-232 1637.92,-232"/>
</g>
<!-- cluster&#45;14&#45;&#45;action&#45;64 -->
<g id="edge15" class="edge">
<title>cluster&#45;14&#45;&#45;action&#45;64</title>
<path fill="none" stroke="black" d="M1476.23,-129C1485.33,-129 1500.26,-129 1511.92,-129"/>
</g>
<!-- cluster&#45;15&#45;&#45;action&#45;68 -->
<g id="edge16" class="edge">
<title>cluster&#45;15&#45;&#45;action&#45;68</title>
<path fill="none" stroke="black" d="M1602.23,-75C1611.33,-75 1626.26,-75 1637.92,-75"/>
</g>
<!-- cluster&#45;16&#45;&#45;action&#45;72 -->
<g id="edge17" class="edge">
<title>cluster&#45;16&#45;&#45;action&#45;72</title>
<path fill="none" stroke="black" d="M1728.23,-180C1737.33,-180 1752.26,-180 1763.92,-180"/>
</g>
<!-- cluster&#45;17&#45;&#45;action&#45;76 -->
<g id="edge18" class="edge">
<title>cluster&#45;17&#45;&#45;action&#45;76</title>
<path fill="none" stroke="black" d="M1854.23,-126C1863.33,-126 1878.26,-126 1889.92,-126"/>
</g>
<!-- cluster&#45;18&#45;&#45;action&#45;80 -->
<g id="edge19" class="edge">
<title>cluster&#45;18&#45;&#45;action&#45;80</title>
<path fill="none" stroke="black" d="M1728.23,-72C1737.33,-72 1752.26,-72 1763.92,-72"/>
</g>
<!-- cluster&#45;19&#45;&#45;action&#45;84 -->
<g id="edge20" class="edge">
<title>cluster&#45;19&#45;&#45;action&#45;84</title>
<path fill="none" stroke="black" d="M1854.23,-72C1863.33,-72 1878.26,-72 1889.92,-72"/>
</g>
</g>
</svg>
