<?xml version="1.0" encoding="UTF-8" standalone="no"?>
<!DOCTYPE svg PUBLIC "-//W3C//DTD SVG 1.1//EN"
 "http://www.w3.org/Graphics/SVG/1.1/DTD/svg11.dtd">
<!-- Generated by graphviz version 2.43.0 (0)
 -->
<!-- Title: g Pages: 1 -->
<svg width="279pt" height="393pt"
 viewBox="0.00 0.00 279.00 393.00" xmlns="http://www.w3.org/2000/svg" xmlns:xlink="http://www.w3.org/1999/xlink">
<g id="graph0" class="graph" transform="scale(1 1) rotate(0) translate(4 389)">
<title>g</title>
<polygon fill="white" stroke="transparent" points="-4,4 -4,-389 275,-389 275,4 -4,4"/>
<g id="clust1" class="cluster">
<title>cluster_actionlib</title>
<polygon fill="none" stroke="black" points="8,-8 8,-377 263,-377 263,-8 8,-8"/>
<text text-anchor="start" x="91.5" y="-362.8" font-family="Arial" font-weight="bold" font-size="14.00">Action library</text>
</g>
<!-- action&#45;1 -->
<g id="node1" class="node">
<title>action&#45;1</title>
<path fill="#008000" stroke="transparent" d="M31.5,-317C31.5,-317 240.5,-317 240.5,-317 244,-317 247.5,-320.5 247.5,-324 247.5,-324 247.5,-331 247.5,-331 247.5,-334.5 244,-338 240.5,-338 240.5,-338 31.5,-338 31.5,-338 28,-338 24.5,-334.5 24.5,-331 24.5,-331 24.5,-324 24.5,-324 24.5,-320.5 28,-317 31.5,-317"/>
<text text-anchor="start" x="110" y="-324.8" font-family="Arial" font-weight="bold" font-size="14.00" fill="white">action&#45;1</text>
<text text-anchor="start" x="27.5" y="-299.8" font-family="Arial" font-weight="bold" font-size="14.00">params:</text>
<text text-anchor="start" x="27.5" y="-274.8" font-family="Arial" font-weight="bold" font-size="14.00">pre:</text>
<text text-anchor="start" x="27.5" y="-260.8" font-family="Arial" font-size="14.00">at(player&#45;01,pos&#45;6&#45;3),</text>
<text text-anchor="start" x="27.5" y="-246.8" font-family="Arial" font-size="14.00">clear(pos&#45;6&#45;2),</text>
<text text-anchor="start" x="27.5" y="-232.8" font-family="Arial" font-size="14.00">is&#45;nongoal(pos&#45;6&#45;2),</text>
<text text-anchor="start" x="27.5" y="-218.8" font-family="Arial" font-size="14.00">is&#45;nongoal(pos&#45;6&#45;3),</text>
<text text-anchor="start" x="27.5" y="-204.8" font-family="Arial" font-size="14.00">is&#45;player(player&#45;01),</text>
<text text-anchor="start" x="27.5" y="-190.8" font-family="Arial" font-size="14.00">location(pos&#45;6&#45;2),</text>
<text text-anchor="start" x="27.5" y="-176.8" font-family="Arial" font-size="14.00">location(pos&#45;6&#45;3),</text>
<text text-anchor="start" x="27.5" y="-162.8" font-family="Arial" font-size="14.00">move&#45;dir(pos&#45;6&#45;2,pos&#45;6&#45;3,dir&#45;down),</text>
<text text-anchor="start" x="27.5" y="-148.8" font-family="Arial" font-size="14.00">move&#45;dir(pos&#45;6&#45;3,pos&#45;6&#45;2,dir&#45;up),</text>
<text text-anchor="start" x="27.5" y="-134.8" font-family="Arial" font-size="14.00">thing(player&#45;01)</text>
<text text-anchor="start" x="27.5" y="-110.8" font-family="Arial" font-weight="bold" font-size="14.00">add:</text>
<text text-anchor="start" x="27.5" y="-96.8" font-family="Arial" font-size="14.00">at(player&#45;01,pos&#45;6&#45;2),</text>
<text text-anchor="start" x="27.5" y="-82.8" font-family="Arial" font-size="14.00">clear(pos&#45;6&#45;3)</text>
<text text-anchor="start" x="27.5" y="-58.8" font-family="Arial" font-weight="bold" font-size="14.00">del:</text>
<text text-anchor="start" x="27.5" y="-44.8" font-family="Arial" font-size="14.00">at(player&#45;01,pos&#45;6&#45;3),</text>
<text text-anchor="start" x="27.5" y="-30.8" font-family="Arial" font-size="14.00">clear(pos&#45;6&#45;2)</text>
<path fill="none" stroke="#008000" stroke-width="4" d="M30,-18C30,-18 241,-18 241,-18 247,-18 253,-24 253,-30 253,-30 253,-332 253,-332 253,-338 247,-344 241,-344 241,-344 30,-344 30,-344 24,-344 18,-338 18,-332 18,-332 18,-30 18,-30 18,-24 24,-18 30,-18"/>
</g>
</g>
</svg>
