<?xml version="1.0" encoding="UTF-8" standalone="no"?>
<!DOCTYPE svg PUBLIC "-//W3C//DTD SVG 1.1//EN"
 "http://www.w3.org/Graphics/SVG/1.1/DTD/svg11.dtd">
<!-- Generated by graphviz version 2.43.0 (0)
 -->
<!-- Title: g Pages: 1 -->
<svg width="639pt" height="674pt"
 viewBox="0.00 0.00 639.00 674.00" xmlns="http://www.w3.org/2000/svg" xmlns:xlink="http://www.w3.org/1999/xlink">
<g id="graph0" class="graph" transform="scale(1 1) rotate(0) translate(4 670)">
<title>g</title>
<polygon fill="white" stroke="transparent" points="-4,4 -4,-670 635,-670 635,4 -4,4"/>
<g id="clust1" class="cluster">
<title>cluster_actionlib</title>
<polygon fill="none" stroke="black" points="382,-195 382,-494 623,-494 623,-195 382,-195"/>
<text text-anchor="start" x="458.5" y="-479.8" font-family="Arial" font-weight="bold" font-size="14.00">Action library</text>
</g>
<!-- action&#45;4 -->
<g id="node1" class="node">
<title>action&#45;4</title>
<path fill="#008000" stroke="transparent" d="M405.5,-433C405.5,-433 600.5,-433 600.5,-433 604,-433 607.5,-436.5 607.5,-440 607.5,-440 607.5,-447 607.5,-447 607.5,-450.5 604,-454 600.5,-454 600.5,-454 405.5,-454 405.5,-454 402,-454 398.5,-450.5 398.5,-447 398.5,-447 398.5,-440 398.5,-440 398.5,-436.5 402,-433 405.5,-433"/>
<text text-anchor="start" x="477" y="-440.8" font-family="Arial" font-weight="bold" font-size="14.00" fill="white">action&#45;4</text>
<text text-anchor="start" x="401.5" y="-415.8" font-family="Arial" font-weight="bold" font-size="14.00">params:</text>
<text text-anchor="start" x="401.5" y="-401.8" font-family="Arial" font-size="14.00">X0, X1, X2, X3</text>
<text text-anchor="start" x="401.5" y="-377.8" font-family="Arial" font-weight="bold" font-size="14.00">pre:</text>
<text text-anchor="start" x="401.5" y="-363.8" font-family="Arial" font-size="14.00">at(player&#45;01,X3), clear(X0),</text>
<text text-anchor="start" x="401.5" y="-349.8" font-family="Arial" font-size="14.00">is&#45;nongoal(X0), is&#45;nongoal(X3),</text>
<text text-anchor="start" x="401.5" y="-335.8" font-family="Arial" font-size="14.00">is&#45;player(player&#45;01), location(X0),</text>
<text text-anchor="start" x="401.5" y="-321.8" font-family="Arial" font-size="14.00">location(X3), move&#45;dir(X0,X3,X1),</text>
<text text-anchor="start" x="401.5" y="-307.8" font-family="Arial" font-size="14.00">move&#45;dir(X3,X0,X2),</text>
<text text-anchor="start" x="401.5" y="-293.8" font-family="Arial" font-size="14.00">thing(player&#45;01)</text>
<text text-anchor="start" x="401.5" y="-269.8" font-family="Arial" font-weight="bold" font-size="14.00">add:</text>
<text text-anchor="start" x="401.5" y="-255.8" font-family="Arial" font-size="14.00">at(player&#45;01,X0), clear(X3)</text>
<text text-anchor="start" x="401.5" y="-231.8" font-family="Arial" font-weight="bold" font-size="14.00">del:</text>
<text text-anchor="start" x="401.5" y="-217.8" font-family="Arial" font-size="14.00">at(player&#45;01,X3), clear(X0)</text>
<path fill="none" stroke="#008000" stroke-width="4" d="M404,-205.5C404,-205.5 601,-205.5 601,-205.5 607,-205.5 613,-211.5 613,-217.5 613,-217.5 613,-448.5 613,-448.5 613,-454.5 607,-460.5 601,-460.5 601,-460.5 404,-460.5 404,-460.5 398,-460.5 392,-454.5 392,-448.5 392,-448.5 392,-217.5 392,-217.5 392,-211.5 398,-205.5 404,-205.5"/>
</g>
<!-- action&#45;1 -->
<g id="node2" class="node">
<title>action&#45;1</title>
<path fill="#c9211e" stroke="transparent" d="M12.5,-640C12.5,-640 221.5,-640 221.5,-640 225,-640 228.5,-643.5 228.5,-647 228.5,-647 228.5,-654 228.5,-654 228.5,-657.5 225,-661 221.5,-661 221.5,-661 12.5,-661 12.5,-661 9,-661 5.5,-657.5 5.5,-654 5.5,-654 5.5,-647 5.5,-647 5.5,-643.5 9,-640 12.5,-640"/>
<text text-anchor="start" x="91" y="-647.8" font-family="Arial" font-weight="bold" font-size="14.00" fill="white">action&#45;1</text>
<text text-anchor="start" x="8.5" y="-622.8" font-family="Arial" font-weight="bold" font-size="14.00">params:</text>
<text text-anchor="start" x="8.5" y="-597.8" font-family="Arial" font-weight="bold" font-size="14.00">pre:</text>
<text text-anchor="start" x="8.5" y="-583.8" font-family="Arial" font-size="14.00">at(player&#45;01,pos&#45;6&#45;3),</text>
<text text-anchor="start" x="8.5" y="-569.8" font-family="Arial" font-size="14.00">clear(pos&#45;6&#45;2),</text>
<text text-anchor="start" x="8.5" y="-555.8" font-family="Arial" font-size="14.00">is&#45;nongoal(pos&#45;6&#45;2),</text>
<text text-anchor="start" x="8.5" y="-541.8" font-family="Arial" font-size="14.00">is&#45;nongoal(pos&#45;6&#45;3),</text>
<text text-anchor="start" x="8.5" y="-527.8" font-family="Arial" font-size="14.00">is&#45;player(player&#45;01),</text>
<text text-anchor="start" x="8.5" y="-513.8" font-family="Arial" font-size="14.00">location(pos&#45;6&#45;2),</text>
<text text-anchor="start" x="8.5" y="-499.8" font-family="Arial" font-size="14.00">location(pos&#45;6&#45;3),</text>
<text text-anchor="start" x="8.5" y="-485.8" font-family="Arial" font-size="14.00">move&#45;dir(pos&#45;6&#45;2,pos&#45;6&#45;3,dir&#45;down),</text>
<text text-anchor="start" x="8.5" y="-471.8" font-family="Arial" font-size="14.00">move&#45;dir(pos&#45;6&#45;3,pos&#45;6&#45;2,dir&#45;up),</text>
<text text-anchor="start" x="8.5" y="-457.8" font-family="Arial" font-size="14.00">thing(player&#45;01)</text>
<text text-anchor="start" x="8.5" y="-433.8" font-family="Arial" font-weight="bold" font-size="14.00">add:</text>
<text text-anchor="start" x="8.5" y="-419.8" font-family="Arial" font-size="14.00">at(player&#45;01,pos&#45;6&#45;2),</text>
<text text-anchor="start" x="8.5" y="-405.8" font-family="Arial" font-size="14.00">clear(pos&#45;6&#45;3)</text>
<text text-anchor="start" x="8.5" y="-381.8" font-family="Arial" font-weight="bold" font-size="14.00">del:</text>
<text text-anchor="start" x="8.5" y="-367.8" font-family="Arial" font-size="14.00">at(player&#45;01,pos&#45;6&#45;3),</text>
<text text-anchor="start" x="8.5" y="-353.8" font-family="Arial" font-size="14.00">clear(pos&#45;6&#45;2)</text>
<path fill="none" stroke="#c9211e" d="M12,-342C12,-342 221,-342 221,-342 227,-342 233,-348 233,-354 233,-354 233,-654 233,-654 233,-660 227,-666 221,-666 221,-666 12,-666 12,-666 6,-666 0,-660 0,-654 0,-654 0,-354 0,-354 0,-348 6,-342 12,-342"/>
</g>
<!-- cluster&#45;0 -->
<g id="node4" class="node">
<title>cluster&#45;0</title>
<path fill="black" stroke="transparent" d="M281,-306C281,-306 342,-306 342,-306 348,-306 354,-312 354,-318 354,-318 354,-348 354,-348 354,-354 348,-360 342,-360 342,-360 281,-360 281,-360 275,-360 269,-354 269,-348 269,-348 269,-318 269,-318 269,-312 275,-306 281,-306"/>
<text text-anchor="start" x="281.5" y="-342.8" font-family="Arial" font-weight="bold" font-size="14.00" fill="white">cluster&#45;0 </text>
<text text-anchor="start" x="276.5" y="-317.8" font-family="Arial" font-weight="bold" font-size="14.00" fill="white">dist.: &#160;</text>
<text text-anchor="start" x="316.5" y="-317.8" font-family="Arial" font-size="14.00" fill="white"> 0.33</text>
</g>
<!-- action&#45;1&#45;&#45;cluster&#45;0 -->
<g id="edge2" class="edge">
<title>action&#45;1&#45;&#45;cluster&#45;0</title>
<path fill="none" stroke="black" d="M233.11,-401.57C250.29,-386.35 266.63,-371.87 279.83,-360.18"/>
</g>
<!-- action&#45;3 -->
<g id="node3" class="node">
<title>action&#45;3</title>
<path fill="#00008b" stroke="transparent" d="M15.5,-298C15.5,-298 218.5,-298 218.5,-298 222,-298 225.5,-301.5 225.5,-305 225.5,-305 225.5,-312 225.5,-312 225.5,-315.5 222,-319 218.5,-319 218.5,-319 15.5,-319 15.5,-319 12,-319 8.5,-315.5 8.5,-312 8.5,-312 8.5,-305 8.5,-305 8.5,-301.5 12,-298 15.5,-298"/>
<text text-anchor="start" x="91" y="-305.8" font-family="Arial" font-weight="bold" font-size="14.00" fill="white">action&#45;3</text>
<text text-anchor="start" x="11.5" y="-280.8" font-family="Arial" font-weight="bold" font-size="14.00">params:</text>
<text text-anchor="start" x="11.5" y="-255.8" font-family="Arial" font-weight="bold" font-size="14.00">pre:</text>
<text text-anchor="start" x="11.5" y="-241.8" font-family="Arial" font-size="14.00">at(player&#45;01,pos&#45;6&#45;2),</text>
<text text-anchor="start" x="11.5" y="-227.8" font-family="Arial" font-size="14.00">clear(pos&#45;5&#45;2),</text>
<text text-anchor="start" x="11.5" y="-213.8" font-family="Arial" font-size="14.00">is&#45;nongoal(pos&#45;5&#45;2),</text>
<text text-anchor="start" x="11.5" y="-199.8" font-family="Arial" font-size="14.00">is&#45;nongoal(pos&#45;6&#45;2),</text>
<text text-anchor="start" x="11.5" y="-185.8" font-family="Arial" font-size="14.00">is&#45;player(player&#45;01),</text>
<text text-anchor="start" x="11.5" y="-171.8" font-family="Arial" font-size="14.00">location(pos&#45;5&#45;2),</text>
<text text-anchor="start" x="11.5" y="-157.8" font-family="Arial" font-size="14.00">location(pos&#45;6&#45;2),</text>
<text text-anchor="start" x="11.5" y="-143.8" font-family="Arial" font-size="14.00">move&#45;dir(pos&#45;5&#45;2,pos&#45;6&#45;2,dir&#45;right),</text>
<text text-anchor="start" x="11.5" y="-129.8" font-family="Arial" font-size="14.00">move&#45;dir(pos&#45;6&#45;2,pos&#45;5&#45;2,dir&#45;left),</text>
<text text-anchor="start" x="11.5" y="-115.8" font-family="Arial" font-size="14.00">thing(player&#45;01)</text>
<text text-anchor="start" x="11.5" y="-91.8" font-family="Arial" font-weight="bold" font-size="14.00">add:</text>
<text text-anchor="start" x="11.5" y="-77.8" font-family="Arial" font-size="14.00">at(player&#45;01,pos&#45;5&#45;2),</text>
<text text-anchor="start" x="11.5" y="-63.8" font-family="Arial" font-size="14.00">clear(pos&#45;6&#45;2)</text>
<text text-anchor="start" x="11.5" y="-39.8" font-family="Arial" font-weight="bold" font-size="14.00">del:</text>
<text text-anchor="start" x="11.5" y="-25.8" font-family="Arial" font-size="14.00">at(player&#45;01,pos&#45;6&#45;2),</text>
<text text-anchor="start" x="11.5" y="-11.8" font-family="Arial" font-size="14.00">clear(pos&#45;5&#45;2)</text>
<path fill="none" stroke="#00008b" d="M15,0C15,0 218,0 218,0 224,0 230,-6 230,-12 230,-12 230,-312 230,-312 230,-318 224,-324 218,-324 218,-324 15,-324 15,-324 9,-324 3,-318 3,-312 3,-312 3,-12 3,-12 3,-6 9,0 15,0"/>
</g>
<!-- action&#45;3&#45;&#45;cluster&#45;0 -->
<g id="edge3" class="edge">
<title>action&#45;3&#45;&#45;cluster&#45;0</title>
<path fill="none" stroke="black" d="M230.05,-261.72C248.41,-277.99 265.97,-293.55 279.98,-305.96"/>
</g>
<!-- cluster&#45;0&#45;&#45;action&#45;4 -->
<g id="edge1" class="edge">
<title>cluster&#45;0&#45;&#45;action&#45;4</title>
<path fill="none" stroke="black" d="M354.45,-333C365.21,-333 377.31,-333 389.83,-333"/>
</g>
</g>
</svg>
