<?xml version="1.0" encoding="UTF-8" standalone="no"?>
<!DOCTYPE svg PUBLIC "-//W3C//DTD SVG 1.1//EN"
 "http://www.w3.org/Graphics/SVG/1.1/DTD/svg11.dtd">
<!-- Generated by graphviz version 2.43.0 (0)
 -->
<!-- Title: g Pages: 1 -->
<svg width="186pt" height="98pt"
 viewBox="0.00 0.00 186.00 98.00" xmlns="http://www.w3.org/2000/svg" xmlns:xlink="http://www.w3.org/1999/xlink">
<g id="graph0" class="graph" transform="scale(1 1) rotate(0) translate(4 94)">
<title>g</title>
<polygon fill="white" stroke="transparent" points="-4,4 -4,-94 182,-94 182,4 -4,4"/>
<g id="clust1" class="cluster">
<title>cluster_actionlib</title>
<polygon fill="none" stroke="black" points="118,-19 118,-71 170,-71 170,-19 118,-19"/>
</g>
<!-- action&#45;4 -->
<g id="node1" class="node">
<title>action&#45;4</title>
<polygon fill="#008000" stroke="black" stroke-width="4" points="162,-63 126,-63 126,-27 162,-27 162,-63"/>
</g>
<!-- action&#45;1 -->
<g id="node2" class="node">
<title>action&#45;1</title>
<polygon fill="#c9211e" stroke="black" points="36,-90 0,-90 0,-54 36,-54 36,-90"/>
</g>
<!-- cluster&#45;0 -->
<g id="node4" class="node">
<title>cluster&#45;0</title>
<polygon fill="black" stroke="black" stroke-width="0" points="90,-54 72,-54 72,-36 90,-36 90,-54"/>
</g>
<!-- action&#45;1&#45;&#45;cluster&#45;0 -->
<g id="edge2" class="edge">
<title>action&#45;1&#45;&#45;cluster&#45;0</title>
<path fill="none" stroke="black" d="M36.32,-64.34C48.01,-59.16 62.91,-52.57 71.94,-48.57"/>
</g>
<!-- action&#45;3 -->
<g id="node3" class="node">
<title>action&#45;3</title>
<polygon fill="#00008b" stroke="black" points="36,-36 0,-36 0,0 36,0 36,-36"/>
</g>
<!-- action&#45;3&#45;&#45;cluster&#45;0 -->
<g id="edge3" class="edge">
<title>action&#45;3&#45;&#45;cluster&#45;0</title>
<path fill="none" stroke="black" d="M36.32,-25.66C48.01,-30.84 62.91,-37.43 71.94,-41.43"/>
</g>
<!-- cluster&#45;0&#45;&#45;action&#45;4 -->
<g id="edge1" class="edge">
<title>cluster&#45;0&#45;&#45;action&#45;4</title>
<path fill="none" stroke="black" d="M90.23,-45C99.33,-45 114.26,-45 125.92,-45"/>
</g>
</g>
</svg>
