<?xml version="1.0" encoding="UTF-8" standalone="no"?>
<!DOCTYPE svg PUBLIC "-//W3C//DTD SVG 1.1//EN"
 "http://www.w3.org/Graphics/SVG/1.1/DTD/svg11.dtd">
<!-- Generated by graphviz version 2.43.0 (0)
 -->
<!-- Title: g Pages: 1 -->
<svg width="1698pt" height="576pt"
 viewBox="0.00 0.00 1698.00 576.00" xmlns="http://www.w3.org/2000/svg" xmlns:xlink="http://www.w3.org/1999/xlink">
<g id="graph0" class="graph" transform="scale(1 1) rotate(0) translate(4 572)">
<title>g</title>
<polygon fill="white" stroke="transparent" points="-4,4 -4,-572 1694,-572 1694,4 -4,4"/>
<g id="clust1" class="cluster">
<title>cluster_actionlib</title>
<polygon fill="none" stroke="black" points="1630,-46 1630,-206 1682,-206 1682,-46 1630,-46"/>
</g>
<!-- action&#45;29 -->
<g id="node1" class="node">
<title>action&#45;29</title>
<polygon fill="white" stroke="black" stroke-width="4" points="1674,-198 1638,-198 1638,-162 1674,-162 1674,-198"/>
</g>
<!-- action&#45;68 -->
<g id="node2" class="node">
<title>action&#45;68</title>
<polygon fill="white" stroke="black" stroke-width="4" points="1674,-144 1638,-144 1638,-108 1674,-108 1674,-144"/>
</g>
<!-- action&#45;72 -->
<g id="node3" class="node">
<title>action&#45;72</title>
<polygon fill="#008000" stroke="black" stroke-width="4" points="1674,-90 1638,-90 1638,-54 1674,-54 1674,-90"/>
</g>
<!-- action&#45;1 -->
<g id="node4" class="node">
<title>action&#45;1</title>
<polygon fill="white" stroke="black" points="36,-568 0,-568 0,-532 36,-532 36,-568"/>
</g>
<!-- cluster&#45;0 -->
<g id="node38" class="node">
<title>cluster&#45;0</title>
<polygon fill="black" stroke="black" stroke-width="0" points="90,-532 72,-532 72,-514 90,-514 90,-532"/>
</g>
<!-- action&#45;1&#45;&#45;cluster&#45;0 -->
<g id="edge18" class="edge">
<title>action&#45;1&#45;&#45;cluster&#45;0</title>
<path fill="none" stroke="black" d="M36.32,-542.34C48.01,-537.16 62.91,-530.57 71.94,-526.57"/>
</g>
<!-- action&#45;3 -->
<g id="node5" class="node">
<title>action&#45;3</title>
<polygon fill="white" stroke="black" points="36,-514 0,-514 0,-478 36,-478 36,-514"/>
</g>
<!-- action&#45;3&#45;&#45;cluster&#45;0 -->
<g id="edge19" class="edge">
<title>action&#45;3&#45;&#45;cluster&#45;0</title>
<path fill="none" stroke="black" d="M36.32,-503.66C48.01,-508.84 62.91,-515.43 71.94,-519.43"/>
</g>
<!-- action&#45;4 -->
<g id="node6" class="node">
<title>action&#45;4</title>
<polygon fill="white" stroke="black" points="162,-541 126,-541 126,-505 162,-505 162,-541"/>
</g>
<!-- cluster&#45;1 -->
<g id="node39" class="node">
<title>cluster&#45;1</title>
<polygon fill="black" stroke="black" stroke-width="0" points="216,-505 198,-505 198,-487 216,-487 216,-505"/>
</g>
<!-- action&#45;4&#45;&#45;cluster&#45;1 -->
<g id="edge20" class="edge">
<title>action&#45;4&#45;&#45;cluster&#45;1</title>
<path fill="none" stroke="black" d="M162.32,-515.34C174.01,-510.16 188.91,-503.57 197.94,-499.57"/>
</g>
<!-- action&#45;7 -->
<g id="node7" class="node">
<title>action&#45;7</title>
<polygon fill="white" stroke="black" points="162,-487 126,-487 126,-451 162,-451 162,-487"/>
</g>
<!-- action&#45;7&#45;&#45;cluster&#45;1 -->
<g id="edge21" class="edge">
<title>action&#45;7&#45;&#45;cluster&#45;1</title>
<path fill="none" stroke="black" d="M162.32,-476.66C174.01,-481.84 188.91,-488.43 197.94,-492.43"/>
</g>
<!-- action&#45;8 -->
<g id="node8" class="node">
<title>action&#45;8</title>
<polygon fill="white" stroke="black" points="288,-514 252,-514 252,-478 288,-478 288,-514"/>
</g>
<!-- cluster&#45;4 -->
<g id="node42" class="node">
<title>cluster&#45;4</title>
<polygon fill="black" stroke="black" stroke-width="0" points="342,-478 324,-478 324,-460 342,-460 342,-478"/>
</g>
<!-- action&#45;8&#45;&#45;cluster&#45;4 -->
<g id="edge26" class="edge">
<title>action&#45;8&#45;&#45;cluster&#45;4</title>
<path fill="none" stroke="black" d="M288.32,-488.34C300.01,-483.16 314.91,-476.57 323.94,-472.57"/>
</g>
<!-- action&#45;11 -->
<g id="node9" class="node">
<title>action&#45;11</title>
<polygon fill="white" stroke="black" points="1170,-190 1134,-190 1134,-154 1170,-154 1170,-190"/>
</g>
<!-- cluster&#45;2 -->
<g id="node40" class="node">
<title>cluster&#45;2</title>
<polygon fill="black" stroke="black" stroke-width="0" points="1224,-140 1206,-140 1206,-122 1224,-122 1224,-140"/>
</g>
<!-- action&#45;11&#45;&#45;cluster&#45;2 -->
<g id="edge22" class="edge">
<title>action&#45;11&#45;&#45;cluster&#45;2</title>
<path fill="none" stroke="black" d="M1170.32,-160.36C1182.01,-152.5 1196.91,-142.49 1205.94,-136.42"/>
</g>
<!-- action&#45;13 -->
<g id="node10" class="node">
<title>action&#45;13</title>
<polygon fill="white" stroke="black" points="1170,-136 1134,-136 1134,-100 1170,-100 1170,-136"/>
</g>
<!-- action&#45;13&#45;&#45;cluster&#45;2 -->
<g id="edge23" class="edge">
<title>action&#45;13&#45;&#45;cluster&#45;2</title>
<path fill="none" stroke="black" d="M1170.32,-121.69C1182.01,-124.18 1196.91,-127.36 1205.94,-129.28"/>
</g>
<!-- action&#45;14 -->
<g id="node11" class="node">
<title>action&#45;14</title>
<polygon fill="white" stroke="black" points="1296,-149 1260,-149 1260,-113 1296,-113 1296,-149"/>
</g>
<!-- cluster&#45;3 -->
<g id="node41" class="node">
<title>cluster&#45;3</title>
<polygon fill="black" stroke="black" stroke-width="0" points="1350,-86 1332,-86 1332,-68 1350,-68 1350,-86"/>
</g>
<!-- action&#45;14&#45;&#45;cluster&#45;3 -->
<g id="edge24" class="edge">
<title>action&#45;14&#45;&#45;cluster&#45;3</title>
<path fill="none" stroke="black" d="M1296.32,-115.67C1308.01,-105.32 1322.91,-92.13 1331.94,-84.14"/>
</g>
<!-- action&#45;17 -->
<g id="node12" class="node">
<title>action&#45;17</title>
<polygon fill="white" stroke="black" points="1296,-95 1260,-95 1260,-59 1296,-59 1296,-95"/>
</g>
<!-- action&#45;17&#45;&#45;cluster&#45;3 -->
<g id="edge25" class="edge">
<title>action&#45;17&#45;&#45;cluster&#45;3</title>
<path fill="none" stroke="black" d="M1296.32,-77C1308.01,-77 1322.91,-77 1331.94,-77"/>
</g>
<!-- action&#45;18 -->
<g id="node13" class="node">
<title>action&#45;18</title>
<polygon fill="white" stroke="black" points="1422,-95 1386,-95 1386,-59 1422,-59 1422,-95"/>
</g>
<!-- cluster&#45;13 -->
<g id="node51" class="node">
<title>cluster&#45;13</title>
<polygon fill="black" stroke="black" stroke-width="0" points="1476,-81 1458,-81 1458,-63 1476,-63 1476,-81"/>
</g>
<!-- action&#45;18&#45;&#45;cluster&#45;13 -->
<g id="edge44" class="edge">
<title>action&#45;18&#45;&#45;cluster&#45;13</title>
<path fill="none" stroke="black" d="M1422.32,-75.58C1434.01,-74.62 1448.91,-73.4 1457.94,-72.66"/>
</g>
<!-- action&#45;21 -->
<g id="node14" class="node">
<title>action&#45;21</title>
<polygon fill="white" stroke="black" points="288,-460 252,-460 252,-424 288,-424 288,-460"/>
</g>
<!-- action&#45;21&#45;&#45;cluster&#45;4 -->
<g id="edge27" class="edge">
<title>action&#45;21&#45;&#45;cluster&#45;4</title>
<path fill="none" stroke="black" d="M288.32,-449.66C300.01,-454.84 314.91,-461.43 323.94,-465.43"/>
</g>
<!-- action&#45;22 -->
<g id="node15" class="node">
<title>action&#45;22</title>
<polygon fill="white" stroke="black" points="414,-487 378,-487 378,-451 414,-451 414,-487"/>
</g>
<!-- cluster&#45;5 -->
<g id="node43" class="node">
<title>cluster&#45;5</title>
<polygon fill="black" stroke="black" stroke-width="0" points="468,-451 450,-451 450,-433 468,-433 468,-451"/>
</g>
<!-- action&#45;22&#45;&#45;cluster&#45;5 -->
<g id="edge28" class="edge">
<title>action&#45;22&#45;&#45;cluster&#45;5</title>
<path fill="none" stroke="black" d="M414.32,-461.34C426.01,-456.16 440.91,-449.57 449.94,-445.57"/>
</g>
<!-- action&#45;25 -->
<g id="node16" class="node">
<title>action&#45;25</title>
<polygon fill="white" stroke="black" points="414,-433 378,-433 378,-397 414,-397 414,-433"/>
</g>
<!-- action&#45;25&#45;&#45;cluster&#45;5 -->
<g id="edge29" class="edge">
<title>action&#45;25&#45;&#45;cluster&#45;5</title>
<path fill="none" stroke="black" d="M414.32,-422.66C426.01,-427.84 440.91,-434.43 449.94,-438.43"/>
</g>
<!-- action&#45;26 -->
<g id="node17" class="node">
<title>action&#45;26</title>
<polygon fill="white" stroke="black" points="540,-460 504,-460 504,-424 540,-424 540,-460"/>
</g>
<!-- cluster&#45;6 -->
<g id="node44" class="node">
<title>cluster&#45;6</title>
<polygon fill="black" stroke="black" stroke-width="0" points="594,-424 576,-424 576,-406 594,-406 594,-424"/>
</g>
<!-- action&#45;26&#45;&#45;cluster&#45;6 -->
<g id="edge30" class="edge">
<title>action&#45;26&#45;&#45;cluster&#45;6</title>
<path fill="none" stroke="black" d="M540.32,-434.34C552.01,-429.16 566.91,-422.57 575.94,-418.57"/>
</g>
<!-- action&#45;31 -->
<g id="node18" class="node">
<title>action&#45;31</title>
<polygon fill="white" stroke="black" points="540,-406 504,-406 504,-370 540,-370 540,-406"/>
</g>
<!-- action&#45;31&#45;&#45;cluster&#45;6 -->
<g id="edge31" class="edge">
<title>action&#45;31&#45;&#45;cluster&#45;6</title>
<path fill="none" stroke="black" d="M540.32,-395.66C552.01,-400.84 566.91,-407.43 575.94,-411.43"/>
</g>
<!-- action&#45;32 -->
<g id="node19" class="node">
<title>action&#45;32</title>
<polygon fill="white" stroke="black" points="666,-433 630,-433 630,-397 666,-397 666,-433"/>
</g>
<!-- cluster&#45;7 -->
<g id="node45" class="node">
<title>cluster&#45;7</title>
<polygon fill="black" stroke="black" stroke-width="0" points="720,-397 702,-397 702,-379 720,-379 720,-397"/>
</g>
<!-- action&#45;32&#45;&#45;cluster&#45;7 -->
<g id="edge32" class="edge">
<title>action&#45;32&#45;&#45;cluster&#45;7</title>
<path fill="none" stroke="black" d="M666.32,-407.34C678.01,-402.16 692.91,-395.57 701.94,-391.57"/>
</g>
<!-- action&#45;35 -->
<g id="node20" class="node">
<title>action&#45;35</title>
<polygon fill="white" stroke="black" points="666,-379 630,-379 630,-343 666,-343 666,-379"/>
</g>
<!-- action&#45;35&#45;&#45;cluster&#45;7 -->
<g id="edge33" class="edge">
<title>action&#45;35&#45;&#45;cluster&#45;7</title>
<path fill="none" stroke="black" d="M666.32,-368.66C678.01,-373.84 692.91,-380.43 701.94,-384.43"/>
</g>
<!-- action&#45;36 -->
<g id="node21" class="node">
<title>action&#45;36</title>
<polygon fill="white" stroke="black" points="792,-406 756,-406 756,-370 792,-370 792,-406"/>
</g>
<!-- cluster&#45;8 -->
<g id="node46" class="node">
<title>cluster&#45;8</title>
<polygon fill="black" stroke="black" stroke-width="0" points="846,-370 828,-370 828,-352 846,-352 846,-370"/>
</g>
<!-- action&#45;36&#45;&#45;cluster&#45;8 -->
<g id="edge34" class="edge">
<title>action&#45;36&#45;&#45;cluster&#45;8</title>
<path fill="none" stroke="black" d="M792.32,-380.34C804.01,-375.16 818.91,-368.57 827.94,-364.57"/>
</g>
<!-- action&#45;39 -->
<g id="node22" class="node">
<title>action&#45;39</title>
<polygon fill="white" stroke="black" points="792,-352 756,-352 756,-316 792,-316 792,-352"/>
</g>
<!-- action&#45;39&#45;&#45;cluster&#45;8 -->
<g id="edge35" class="edge">
<title>action&#45;39&#45;&#45;cluster&#45;8</title>
<path fill="none" stroke="black" d="M792.32,-341.66C804.01,-346.84 818.91,-353.43 827.94,-357.43"/>
</g>
<!-- action&#45;40 -->
<g id="node23" class="node">
<title>action&#45;40</title>
<polygon fill="white" stroke="black" points="918,-379 882,-379 882,-343 918,-343 918,-379"/>
</g>
<!-- cluster&#45;9 -->
<g id="node47" class="node">
<title>cluster&#45;9</title>
<polygon fill="black" stroke="black" stroke-width="0" points="972,-343 954,-343 954,-325 972,-325 972,-343"/>
</g>
<!-- action&#45;40&#45;&#45;cluster&#45;9 -->
<g id="edge36" class="edge">
<title>action&#45;40&#45;&#45;cluster&#45;9</title>
<path fill="none" stroke="black" d="M918.32,-353.34C930.01,-348.16 944.91,-341.57 953.94,-337.57"/>
</g>
<!-- action&#45;43 -->
<g id="node24" class="node">
<title>action&#45;43</title>
<polygon fill="white" stroke="black" points="918,-325 882,-325 882,-289 918,-289 918,-325"/>
</g>
<!-- action&#45;43&#45;&#45;cluster&#45;9 -->
<g id="edge37" class="edge">
<title>action&#45;43&#45;&#45;cluster&#45;9</title>
<path fill="none" stroke="black" d="M918.32,-314.66C930.01,-319.84 944.91,-326.43 953.94,-330.43"/>
</g>
<!-- action&#45;44 -->
<g id="node25" class="node">
<title>action&#45;44</title>
<polygon fill="white" stroke="black" points="1044,-352 1008,-352 1008,-316 1044,-316 1044,-352"/>
</g>
<!-- cluster&#45;10 -->
<g id="node48" class="node">
<title>cluster&#45;10</title>
<polygon fill="black" stroke="black" stroke-width="0" points="1098,-316 1080,-316 1080,-298 1098,-298 1098,-316"/>
</g>
<!-- action&#45;44&#45;&#45;cluster&#45;10 -->
<g id="edge38" class="edge">
<title>action&#45;44&#45;&#45;cluster&#45;10</title>
<path fill="none" stroke="black" d="M1044.32,-326.34C1056.01,-321.16 1070.91,-314.57 1079.94,-310.57"/>
</g>
<!-- action&#45;47 -->
<g id="node26" class="node">
<title>action&#45;47</title>
<polygon fill="white" stroke="black" points="1044,-298 1008,-298 1008,-262 1044,-262 1044,-298"/>
</g>
<!-- action&#45;47&#45;&#45;cluster&#45;10 -->
<g id="edge39" class="edge">
<title>action&#45;47&#45;&#45;cluster&#45;10</title>
<path fill="none" stroke="black" d="M1044.32,-287.66C1056.01,-292.84 1070.91,-299.43 1079.94,-303.43"/>
</g>
<!-- action&#45;48 -->
<g id="node27" class="node">
<title>action&#45;48</title>
<polygon fill="white" stroke="black" points="1170,-325 1134,-325 1134,-289 1170,-289 1170,-325"/>
</g>
<!-- cluster&#45;11 -->
<g id="node49" class="node">
<title>cluster&#45;11</title>
<polygon fill="black" stroke="black" stroke-width="0" points="1224,-272 1206,-272 1206,-254 1224,-254 1224,-272"/>
</g>
<!-- action&#45;48&#45;&#45;cluster&#45;11 -->
<g id="edge40" class="edge">
<title>action&#45;48&#45;&#45;cluster&#45;11</title>
<path fill="none" stroke="black" d="M1170.32,-294.51C1182.01,-286.07 1196.91,-275.33 1205.94,-268.82"/>
</g>
<!-- action&#45;51 -->
<g id="node28" class="node">
<title>action&#45;51</title>
<polygon fill="white" stroke="black" points="1170,-271 1134,-271 1134,-235 1170,-235 1170,-271"/>
</g>
<!-- action&#45;51&#45;&#45;cluster&#45;11 -->
<g id="edge41" class="edge">
<title>action&#45;51&#45;&#45;cluster&#45;11</title>
<path fill="none" stroke="black" d="M1170.32,-255.84C1182.01,-257.76 1196.91,-260.2 1205.94,-261.68"/>
</g>
<!-- action&#45;52 -->
<g id="node29" class="node">
<title>action&#45;52</title>
<polygon fill="white" stroke="black" points="1296,-281 1260,-281 1260,-245 1296,-245 1296,-281"/>
</g>
<!-- cluster&#45;12 -->
<g id="node50" class="node">
<title>cluster&#45;12</title>
<polygon fill="black" stroke="black" stroke-width="0" points="1350,-223 1332,-223 1332,-205 1350,-205 1350,-223"/>
</g>
<!-- action&#45;52&#45;&#45;cluster&#45;12 -->
<g id="edge42" class="edge">
<title>action&#45;52&#45;&#45;cluster&#45;12</title>
<path fill="none" stroke="black" d="M1296.32,-249.09C1308.01,-239.7 1322.91,-227.73 1331.94,-220.48"/>
</g>
<!-- action&#45;55 -->
<g id="node30" class="node">
<title>action&#45;55</title>
<polygon fill="white" stroke="black" points="1296,-227 1260,-227 1260,-191 1296,-191 1296,-227"/>
</g>
<!-- action&#45;55&#45;&#45;cluster&#45;12 -->
<g id="edge43" class="edge">
<title>action&#45;55&#45;&#45;cluster&#45;12</title>
<path fill="none" stroke="black" d="M1296.32,-210.42C1308.01,-211.38 1322.91,-212.6 1331.94,-213.34"/>
</g>
<!-- action&#45;56 -->
<g id="node31" class="node">
<title>action&#45;56</title>
<polygon fill="white" stroke="black" points="1422,-232 1386,-232 1386,-196 1422,-196 1422,-232"/>
</g>
<!-- cluster&#45;14 -->
<g id="node52" class="node">
<title>cluster&#45;14</title>
<polygon fill="black" stroke="black" stroke-width="0" points="1476,-189 1458,-189 1458,-171 1476,-171 1476,-189"/>
</g>
<!-- action&#45;56&#45;&#45;cluster&#45;14 -->
<g id="edge46" class="edge">
<title>action&#45;56&#45;&#45;cluster&#45;14</title>
<path fill="none" stroke="black" d="M1422.32,-204.35C1434.01,-197.83 1448.91,-189.53 1457.94,-184.5"/>
</g>
<!-- action&#45;59 -->
<g id="node32" class="node">
<title>action&#45;59</title>
<polygon fill="white" stroke="black" points="1422,-41 1386,-41 1386,-5 1422,-5 1422,-41"/>
</g>
<!-- action&#45;59&#45;&#45;cluster&#45;13 -->
<g id="edge45" class="edge">
<title>action&#45;59&#45;&#45;cluster&#45;13</title>
<path fill="none" stroke="black" d="M1422.32,-36.91C1434.01,-46.3 1448.91,-58.27 1457.94,-65.52"/>
</g>
<!-- action&#45;60 -->
<g id="node33" class="node">
<title>action&#45;60</title>
<polygon fill="#c9211e" stroke="black" points="1548,-90 1512,-90 1512,-54 1548,-54 1548,-90"/>
</g>
<!-- cluster&#45;16 -->
<g id="node54" class="node">
<title>cluster&#45;16</title>
<polygon fill="black" stroke="black" stroke-width="0" points="1602,-81 1584,-81 1584,-63 1602,-63 1602,-81"/>
</g>
<!-- action&#45;60&#45;&#45;cluster&#45;16 -->
<g id="edge50" class="edge">
<title>action&#45;60&#45;&#45;cluster&#45;16</title>
<path fill="none" stroke="black" d="M1548.32,-72C1560.01,-72 1574.91,-72 1583.94,-72"/>
</g>
<!-- action&#45;63 -->
<g id="node34" class="node">
<title>action&#45;63</title>
<polygon fill="white" stroke="black" points="1422,-178 1386,-178 1386,-142 1422,-142 1422,-178"/>
</g>
<!-- action&#45;63&#45;&#45;cluster&#45;14 -->
<g id="edge47" class="edge">
<title>action&#45;63&#45;&#45;cluster&#45;14</title>
<path fill="none" stroke="black" d="M1422.32,-165.68C1434.01,-169.51 1448.91,-174.4 1457.94,-177.36"/>
</g>
<!-- action&#45;64 -->
<g id="node35" class="node">
<title>action&#45;64</title>
<polygon fill="white" stroke="black" points="1548,-198 1512,-198 1512,-162 1548,-162 1548,-198"/>
</g>
<!-- cluster&#45;15 -->
<g id="node53" class="node">
<title>cluster&#45;15</title>
<polygon fill="black" stroke="black" stroke-width="0" points="1602,-135 1584,-135 1584,-117 1602,-117 1602,-135"/>
</g>
<!-- action&#45;64&#45;&#45;cluster&#45;15 -->
<g id="edge48" class="edge">
<title>action&#45;64&#45;&#45;cluster&#45;15</title>
<path fill="none" stroke="black" d="M1548.32,-164.67C1560.01,-154.32 1574.91,-141.13 1583.94,-133.14"/>
</g>
<!-- action&#45;67 -->
<g id="node36" class="node">
<title>action&#45;67</title>
<polygon fill="white" stroke="black" points="1548,-144 1512,-144 1512,-108 1548,-108 1548,-144"/>
</g>
<!-- action&#45;67&#45;&#45;cluster&#45;15 -->
<g id="edge49" class="edge">
<title>action&#45;67&#45;&#45;cluster&#45;15</title>
<path fill="none" stroke="black" d="M1548.32,-126C1560.01,-126 1574.91,-126 1583.94,-126"/>
</g>
<!-- action&#45;71 -->
<g id="node37" class="node">
<title>action&#45;71</title>
<polygon fill="#00008b" stroke="black" points="1548,-36 1512,-36 1512,0 1548,0 1548,-36"/>
</g>
<!-- action&#45;71&#45;&#45;cluster&#45;16 -->
<g id="edge51" class="edge">
<title>action&#45;71&#45;&#45;cluster&#45;16</title>
<path fill="none" stroke="black" d="M1548.32,-33.33C1560.01,-43.68 1574.91,-56.87 1583.94,-64.86"/>
</g>
<!-- cluster&#45;0&#45;&#45;action&#45;4 -->
<g id="edge1" class="edge">
<title>cluster&#45;0&#45;&#45;action&#45;4</title>
<path fill="none" stroke="black" d="M90.23,-523C99.33,-523 114.26,-523 125.92,-523"/>
</g>
<!-- cluster&#45;1&#45;&#45;action&#45;8 -->
<g id="edge2" class="edge">
<title>cluster&#45;1&#45;&#45;action&#45;8</title>
<path fill="none" stroke="black" d="M216.23,-496C225.33,-496 240.26,-496 251.92,-496"/>
</g>
<!-- cluster&#45;2&#45;&#45;action&#45;14 -->
<g id="edge3" class="edge">
<title>cluster&#45;2&#45;&#45;action&#45;14</title>
<path fill="none" stroke="black" d="M1224.23,-131C1233.33,-131 1248.26,-131 1259.92,-131"/>
</g>
<!-- cluster&#45;3&#45;&#45;action&#45;18 -->
<g id="edge4" class="edge">
<title>cluster&#45;3&#45;&#45;action&#45;18</title>
<path fill="none" stroke="black" d="M1350.23,-77C1359.33,-77 1374.26,-77 1385.92,-77"/>
</g>
<!-- cluster&#45;4&#45;&#45;action&#45;22 -->
<g id="edge5" class="edge">
<title>cluster&#45;4&#45;&#45;action&#45;22</title>
<path fill="none" stroke="black" d="M342.23,-469C351.33,-469 366.26,-469 377.92,-469"/>
</g>
<!-- cluster&#45;5&#45;&#45;action&#45;26 -->
<g id="edge6" class="edge">
<title>cluster&#45;5&#45;&#45;action&#45;26</title>
<path fill="none" stroke="black" d="M468.23,-442C477.33,-442 492.26,-442 503.92,-442"/>
</g>
<!-- cluster&#45;6&#45;&#45;action&#45;32 -->
<g id="edge7" class="edge">
<title>cluster&#45;6&#45;&#45;action&#45;32</title>
<path fill="none" stroke="black" d="M594.23,-415C603.33,-415 618.26,-415 629.92,-415"/>
</g>
<!-- cluster&#45;7&#45;&#45;action&#45;36 -->
<g id="edge8" class="edge">
<title>cluster&#45;7&#45;&#45;action&#45;36</title>
<path fill="none" stroke="black" d="M720.23,-388C729.33,-388 744.26,-388 755.92,-388"/>
</g>
<!-- cluster&#45;8&#45;&#45;action&#45;40 -->
<g id="edge9" class="edge">
<title>cluster&#45;8&#45;&#45;action&#45;40</title>
<path fill="none" stroke="black" d="M846.23,-361C855.33,-361 870.26,-361 881.92,-361"/>
</g>
<!-- cluster&#45;9&#45;&#45;action&#45;44 -->
<g id="edge10" class="edge">
<title>cluster&#45;9&#45;&#45;action&#45;44</title>
<path fill="none" stroke="black" d="M972.23,-334C981.33,-334 996.26,-334 1007.92,-334"/>
</g>
<!-- cluster&#45;10&#45;&#45;action&#45;48 -->
<g id="edge11" class="edge">
<title>cluster&#45;10&#45;&#45;action&#45;48</title>
<path fill="none" stroke="black" d="M1098.23,-307C1107.33,-307 1122.26,-307 1133.92,-307"/>
</g>
<!-- cluster&#45;11&#45;&#45;action&#45;52 -->
<g id="edge12" class="edge">
<title>cluster&#45;11&#45;&#45;action&#45;52</title>
<path fill="none" stroke="black" d="M1224.23,-263C1233.33,-263 1248.26,-263 1259.92,-263"/>
</g>
<!-- cluster&#45;12&#45;&#45;action&#45;56 -->
<g id="edge13" class="edge">
<title>cluster&#45;12&#45;&#45;action&#45;56</title>
<path fill="none" stroke="black" d="M1350.23,-214C1359.33,-214 1374.26,-214 1385.92,-214"/>
</g>
<!-- cluster&#45;13&#45;&#45;action&#45;60 -->
<g id="edge14" class="edge">
<title>cluster&#45;13&#45;&#45;action&#45;60</title>
<path fill="none" stroke="black" d="M1476.23,-72C1485.33,-72 1500.26,-72 1511.92,-72"/>
</g>
<!-- cluster&#45;14&#45;&#45;action&#45;64 -->
<g id="edge15" class="edge">
<title>cluster&#45;14&#45;&#45;action&#45;64</title>
<path fill="none" stroke="black" d="M1476.23,-180C1485.33,-180 1500.26,-180 1511.92,-180"/>
</g>
<!-- cluster&#45;15&#45;&#45;action&#45;68 -->
<g id="edge16" class="edge">
<title>cluster&#45;15&#45;&#45;action&#45;68</title>
<path fill="none" stroke="black" d="M1602.23,-126C1611.33,-126 1626.26,-126 1637.92,-126"/>
</g>
<!-- cluster&#45;16&#45;&#45;action&#45;72 -->
<g id="edge17" class="edge">
<title>cluster&#45;16&#45;&#45;action&#45;72</title>
<path fill="none" stroke="black" d="M1602.23,-72C1611.33,-72 1626.26,-72 1637.92,-72"/>
</g>
</g>
</svg>
