<?xml version="1.0" encoding="UTF-8" standalone="no"?>
<!DOCTYPE svg PUBLIC "-//W3C//DTD SVG 1.1//EN"
 "http://www.w3.org/Graphics/SVG/1.1/DTD/svg11.dtd">
<!-- Generated by graphviz version 2.43.0 (0)
 -->
<!-- Title: g Pages: 1 -->
<svg width="1698pt" height="419pt"
 viewBox="0.00 0.00 1698.00 419.00" xmlns="http://www.w3.org/2000/svg" xmlns:xlink="http://www.w3.org/1999/xlink">
<g id="graph0" class="graph" transform="scale(1 1) rotate(0) translate(4 415)">
<title>g</title>
<polygon fill="white" stroke="transparent" points="-4,4 -4,-415 1694,-415 1694,4 -4,4"/>
<g id="clust1" class="cluster">
<title>cluster_actionlib</title>
<polygon fill="none" stroke="black" points="1630,-46 1630,-206 1682,-206 1682,-46 1630,-46"/>
</g>
<!-- action&#45;29 -->
<g id="node1" class="node">
<title>action&#45;29</title>
<polygon fill="white" stroke="black" stroke-width="4" points="1674,-198 1638,-198 1638,-162 1674,-162 1674,-198"/>
</g>
<!-- action&#45;60 -->
<g id="node2" class="node">
<title>action&#45;60</title>
<polygon fill="white" stroke="black" stroke-width="4" points="1674,-144 1638,-144 1638,-108 1674,-108 1674,-144"/>
</g>
<!-- action&#45;68 -->
<g id="node3" class="node">
<title>action&#45;68</title>
<polygon fill="#008000" stroke="black" stroke-width="4" points="1674,-90 1638,-90 1638,-54 1674,-54 1674,-90"/>
</g>
<!-- action&#45;1 -->
<g id="node4" class="node">
<title>action&#45;1</title>
<polygon fill="white" stroke="black" points="36,-411 0,-411 0,-375 36,-375 36,-411"/>
</g>
<!-- cluster&#45;0 -->
<g id="node36" class="node">
<title>cluster&#45;0</title>
<polygon fill="black" stroke="black" stroke-width="0" points="90,-375 72,-375 72,-357 90,-357 90,-375"/>
</g>
<!-- action&#45;1&#45;&#45;cluster&#45;0 -->
<g id="edge17" class="edge">
<title>action&#45;1&#45;&#45;cluster&#45;0</title>
<path fill="none" stroke="black" d="M36.32,-385.34C48.01,-380.16 62.91,-373.57 71.94,-369.57"/>
</g>
<!-- action&#45;3 -->
<g id="node5" class="node">
<title>action&#45;3</title>
<polygon fill="white" stroke="black" points="36,-357 0,-357 0,-321 36,-321 36,-357"/>
</g>
<!-- action&#45;3&#45;&#45;cluster&#45;0 -->
<g id="edge18" class="edge">
<title>action&#45;3&#45;&#45;cluster&#45;0</title>
<path fill="none" stroke="black" d="M36.32,-346.66C48.01,-351.84 62.91,-358.43 71.94,-362.43"/>
</g>
<!-- action&#45;4 -->
<g id="node6" class="node">
<title>action&#45;4</title>
<polygon fill="white" stroke="black" points="162,-384 126,-384 126,-348 162,-348 162,-384"/>
</g>
<!-- cluster&#45;1 -->
<g id="node37" class="node">
<title>cluster&#45;1</title>
<polygon fill="black" stroke="black" stroke-width="0" points="216,-348 198,-348 198,-330 216,-330 216,-348"/>
</g>
<!-- action&#45;4&#45;&#45;cluster&#45;1 -->
<g id="edge19" class="edge">
<title>action&#45;4&#45;&#45;cluster&#45;1</title>
<path fill="none" stroke="black" d="M162.32,-358.34C174.01,-353.16 188.91,-346.57 197.94,-342.57"/>
</g>
<!-- action&#45;7 -->
<g id="node7" class="node">
<title>action&#45;7</title>
<polygon fill="white" stroke="black" points="162,-330 126,-330 126,-294 162,-294 162,-330"/>
</g>
<!-- action&#45;7&#45;&#45;cluster&#45;1 -->
<g id="edge20" class="edge">
<title>action&#45;7&#45;&#45;cluster&#45;1</title>
<path fill="none" stroke="black" d="M162.32,-319.66C174.01,-324.84 188.91,-331.43 197.94,-335.43"/>
</g>
<!-- action&#45;8 -->
<g id="node8" class="node">
<title>action&#45;8</title>
<polygon fill="white" stroke="black" points="288,-357 252,-357 252,-321 288,-321 288,-357"/>
</g>
<!-- cluster&#45;4 -->
<g id="node40" class="node">
<title>cluster&#45;4</title>
<polygon fill="black" stroke="black" stroke-width="0" points="342,-321 324,-321 324,-303 342,-303 342,-321"/>
</g>
<!-- action&#45;8&#45;&#45;cluster&#45;4 -->
<g id="edge25" class="edge">
<title>action&#45;8&#45;&#45;cluster&#45;4</title>
<path fill="none" stroke="black" d="M288.32,-331.34C300.01,-326.16 314.91,-319.57 323.94,-315.57"/>
</g>
<!-- action&#45;11 -->
<g id="node9" class="node">
<title>action&#45;11</title>
<polygon fill="white" stroke="black" points="1296,-276 1260,-276 1260,-240 1296,-240 1296,-276"/>
</g>
<!-- cluster&#45;2 -->
<g id="node38" class="node">
<title>cluster&#45;2</title>
<polygon fill="black" stroke="black" stroke-width="0" points="1350,-233 1332,-233 1332,-215 1350,-215 1350,-233"/>
</g>
<!-- action&#45;11&#45;&#45;cluster&#45;2 -->
<g id="edge21" class="edge">
<title>action&#45;11&#45;&#45;cluster&#45;2</title>
<path fill="none" stroke="black" d="M1296.32,-248.35C1308.01,-241.83 1322.91,-233.53 1331.94,-228.5"/>
</g>
<!-- action&#45;13 -->
<g id="node10" class="node">
<title>action&#45;13</title>
<polygon fill="white" stroke="black" points="1296,-222 1260,-222 1260,-186 1296,-186 1296,-222"/>
</g>
<!-- action&#45;13&#45;&#45;cluster&#45;2 -->
<g id="edge22" class="edge">
<title>action&#45;13&#45;&#45;cluster&#45;2</title>
<path fill="none" stroke="black" d="M1296.32,-209.68C1308.01,-213.51 1322.91,-218.4 1331.94,-221.36"/>
</g>
<!-- action&#45;14 -->
<g id="node11" class="node">
<title>action&#45;14</title>
<polygon fill="white" stroke="black" points="1422,-242 1386,-242 1386,-206 1422,-206 1422,-242"/>
</g>
<!-- cluster&#45;3 -->
<g id="node39" class="node">
<title>cluster&#45;3</title>
<polygon fill="black" stroke="black" stroke-width="0" points="1476,-189 1458,-189 1458,-171 1476,-171 1476,-189"/>
</g>
<!-- action&#45;14&#45;&#45;cluster&#45;3 -->
<g id="edge23" class="edge">
<title>action&#45;14&#45;&#45;cluster&#45;3</title>
<path fill="none" stroke="black" d="M1422.32,-211.51C1434.01,-203.07 1448.91,-192.33 1457.94,-185.82"/>
</g>
<!-- action&#45;17 -->
<g id="node12" class="node">
<title>action&#45;17</title>
<polygon fill="white" stroke="black" points="1422,-188 1386,-188 1386,-152 1422,-152 1422,-188"/>
</g>
<!-- action&#45;17&#45;&#45;cluster&#45;3 -->
<g id="edge24" class="edge">
<title>action&#45;17&#45;&#45;cluster&#45;3</title>
<path fill="none" stroke="black" d="M1422.32,-172.84C1434.01,-174.76 1448.91,-177.2 1457.94,-178.68"/>
</g>
<!-- action&#45;18 -->
<g id="node13" class="node">
<title>action&#45;18</title>
<polygon fill="white" stroke="black" points="1548,-198 1512,-198 1512,-162 1548,-162 1548,-198"/>
</g>
<!-- cluster&#45;13 -->
<g id="node49" class="node">
<title>cluster&#45;13</title>
<polygon fill="black" stroke="black" stroke-width="0" points="1602,-135 1584,-135 1584,-117 1602,-117 1602,-135"/>
</g>
<!-- action&#45;18&#45;&#45;cluster&#45;13 -->
<g id="edge43" class="edge">
<title>action&#45;18&#45;&#45;cluster&#45;13</title>
<path fill="none" stroke="black" d="M1548.32,-164.67C1560.01,-154.32 1574.91,-141.13 1583.94,-133.14"/>
</g>
<!-- action&#45;21 -->
<g id="node14" class="node">
<title>action&#45;21</title>
<polygon fill="white" stroke="black" points="288,-303 252,-303 252,-267 288,-267 288,-303"/>
</g>
<!-- action&#45;21&#45;&#45;cluster&#45;4 -->
<g id="edge26" class="edge">
<title>action&#45;21&#45;&#45;cluster&#45;4</title>
<path fill="none" stroke="black" d="M288.32,-292.66C300.01,-297.84 314.91,-304.43 323.94,-308.43"/>
</g>
<!-- action&#45;22 -->
<g id="node15" class="node">
<title>action&#45;22</title>
<polygon fill="white" stroke="black" points="414,-330 378,-330 378,-294 414,-294 414,-330"/>
</g>
<!-- cluster&#45;5 -->
<g id="node41" class="node">
<title>cluster&#45;5</title>
<polygon fill="black" stroke="black" stroke-width="0" points="468,-294 450,-294 450,-276 468,-276 468,-294"/>
</g>
<!-- action&#45;22&#45;&#45;cluster&#45;5 -->
<g id="edge27" class="edge">
<title>action&#45;22&#45;&#45;cluster&#45;5</title>
<path fill="none" stroke="black" d="M414.32,-304.34C426.01,-299.16 440.91,-292.57 449.94,-288.57"/>
</g>
<!-- action&#45;25 -->
<g id="node16" class="node">
<title>action&#45;25</title>
<polygon fill="white" stroke="black" points="414,-276 378,-276 378,-240 414,-240 414,-276"/>
</g>
<!-- action&#45;25&#45;&#45;cluster&#45;5 -->
<g id="edge28" class="edge">
<title>action&#45;25&#45;&#45;cluster&#45;5</title>
<path fill="none" stroke="black" d="M414.32,-265.66C426.01,-270.84 440.91,-277.43 449.94,-281.43"/>
</g>
<!-- action&#45;26 -->
<g id="node17" class="node">
<title>action&#45;26</title>
<polygon fill="white" stroke="black" points="540,-303 504,-303 504,-267 540,-267 540,-303"/>
</g>
<!-- cluster&#45;6 -->
<g id="node42" class="node">
<title>cluster&#45;6</title>
<polygon fill="black" stroke="black" stroke-width="0" points="594,-267 576,-267 576,-249 594,-249 594,-267"/>
</g>
<!-- action&#45;26&#45;&#45;cluster&#45;6 -->
<g id="edge29" class="edge">
<title>action&#45;26&#45;&#45;cluster&#45;6</title>
<path fill="none" stroke="black" d="M540.32,-277.34C552.01,-272.16 566.91,-265.57 575.94,-261.57"/>
</g>
<!-- action&#45;31 -->
<g id="node18" class="node">
<title>action&#45;31</title>
<polygon fill="white" stroke="black" points="540,-249 504,-249 504,-213 540,-213 540,-249"/>
</g>
<!-- action&#45;31&#45;&#45;cluster&#45;6 -->
<g id="edge30" class="edge">
<title>action&#45;31&#45;&#45;cluster&#45;6</title>
<path fill="none" stroke="black" d="M540.32,-238.66C552.01,-243.84 566.91,-250.43 575.94,-254.43"/>
</g>
<!-- action&#45;32 -->
<g id="node19" class="node">
<title>action&#45;32</title>
<polygon fill="white" stroke="black" points="666,-276 630,-276 630,-240 666,-240 666,-276"/>
</g>
<!-- cluster&#45;7 -->
<g id="node43" class="node">
<title>cluster&#45;7</title>
<polygon fill="black" stroke="black" stroke-width="0" points="720,-240 702,-240 702,-222 720,-222 720,-240"/>
</g>
<!-- action&#45;32&#45;&#45;cluster&#45;7 -->
<g id="edge31" class="edge">
<title>action&#45;32&#45;&#45;cluster&#45;7</title>
<path fill="none" stroke="black" d="M666.32,-250.34C678.01,-245.16 692.91,-238.57 701.94,-234.57"/>
</g>
<!-- action&#45;35 -->
<g id="node20" class="node">
<title>action&#45;35</title>
<polygon fill="white" stroke="black" points="666,-222 630,-222 630,-186 666,-186 666,-222"/>
</g>
<!-- action&#45;35&#45;&#45;cluster&#45;7 -->
<g id="edge32" class="edge">
<title>action&#45;35&#45;&#45;cluster&#45;7</title>
<path fill="none" stroke="black" d="M666.32,-211.66C678.01,-216.84 692.91,-223.43 701.94,-227.43"/>
</g>
<!-- action&#45;36 -->
<g id="node21" class="node">
<title>action&#45;36</title>
<polygon fill="white" stroke="black" points="792,-249 756,-249 756,-213 792,-213 792,-249"/>
</g>
<!-- cluster&#45;8 -->
<g id="node44" class="node">
<title>cluster&#45;8</title>
<polygon fill="black" stroke="black" stroke-width="0" points="846,-213 828,-213 828,-195 846,-195 846,-213"/>
</g>
<!-- action&#45;36&#45;&#45;cluster&#45;8 -->
<g id="edge33" class="edge">
<title>action&#45;36&#45;&#45;cluster&#45;8</title>
<path fill="none" stroke="black" d="M792.32,-223.34C804.01,-218.16 818.91,-211.57 827.94,-207.57"/>
</g>
<!-- action&#45;39 -->
<g id="node22" class="node">
<title>action&#45;39</title>
<polygon fill="white" stroke="black" points="792,-195 756,-195 756,-159 792,-159 792,-195"/>
</g>
<!-- action&#45;39&#45;&#45;cluster&#45;8 -->
<g id="edge34" class="edge">
<title>action&#45;39&#45;&#45;cluster&#45;8</title>
<path fill="none" stroke="black" d="M792.32,-184.66C804.01,-189.84 818.91,-196.43 827.94,-200.43"/>
</g>
<!-- action&#45;40 -->
<g id="node23" class="node">
<title>action&#45;40</title>
<polygon fill="white" stroke="black" points="918,-222 882,-222 882,-186 918,-186 918,-222"/>
</g>
<!-- cluster&#45;9 -->
<g id="node45" class="node">
<title>cluster&#45;9</title>
<polygon fill="black" stroke="black" stroke-width="0" points="972,-186 954,-186 954,-168 972,-168 972,-186"/>
</g>
<!-- action&#45;40&#45;&#45;cluster&#45;9 -->
<g id="edge35" class="edge">
<title>action&#45;40&#45;&#45;cluster&#45;9</title>
<path fill="none" stroke="black" d="M918.32,-196.34C930.01,-191.16 944.91,-184.57 953.94,-180.57"/>
</g>
<!-- action&#45;43 -->
<g id="node24" class="node">
<title>action&#45;43</title>
<polygon fill="white" stroke="black" points="918,-168 882,-168 882,-132 918,-132 918,-168"/>
</g>
<!-- action&#45;43&#45;&#45;cluster&#45;9 -->
<g id="edge36" class="edge">
<title>action&#45;43&#45;&#45;cluster&#45;9</title>
<path fill="none" stroke="black" d="M918.32,-157.66C930.01,-162.84 944.91,-169.43 953.94,-173.43"/>
</g>
<!-- action&#45;44 -->
<g id="node25" class="node">
<title>action&#45;44</title>
<polygon fill="white" stroke="black" points="1044,-195 1008,-195 1008,-159 1044,-159 1044,-195"/>
</g>
<!-- cluster&#45;10 -->
<g id="node46" class="node">
<title>cluster&#45;10</title>
<polygon fill="black" stroke="black" stroke-width="0" points="1098,-159 1080,-159 1080,-141 1098,-141 1098,-159"/>
</g>
<!-- action&#45;44&#45;&#45;cluster&#45;10 -->
<g id="edge37" class="edge">
<title>action&#45;44&#45;&#45;cluster&#45;10</title>
<path fill="none" stroke="black" d="M1044.32,-169.34C1056.01,-164.16 1070.91,-157.57 1079.94,-153.57"/>
</g>
<!-- action&#45;47 -->
<g id="node26" class="node">
<title>action&#45;47</title>
<polygon fill="white" stroke="black" points="1044,-141 1008,-141 1008,-105 1044,-105 1044,-141"/>
</g>
<!-- action&#45;47&#45;&#45;cluster&#45;10 -->
<g id="edge38" class="edge">
<title>action&#45;47&#45;&#45;cluster&#45;10</title>
<path fill="none" stroke="black" d="M1044.32,-130.66C1056.01,-135.84 1070.91,-142.43 1079.94,-146.43"/>
</g>
<!-- action&#45;48 -->
<g id="node27" class="node">
<title>action&#45;48</title>
<polygon fill="white" stroke="black" points="1170,-168 1134,-168 1134,-132 1170,-132 1170,-168"/>
</g>
<!-- cluster&#45;11 -->
<g id="node47" class="node">
<title>cluster&#45;11</title>
<polygon fill="black" stroke="black" stroke-width="0" points="1224,-132 1206,-132 1206,-114 1224,-114 1224,-132"/>
</g>
<!-- action&#45;48&#45;&#45;cluster&#45;11 -->
<g id="edge39" class="edge">
<title>action&#45;48&#45;&#45;cluster&#45;11</title>
<path fill="none" stroke="black" d="M1170.32,-142.34C1182.01,-137.16 1196.91,-130.57 1205.94,-126.57"/>
</g>
<!-- action&#45;51 -->
<g id="node28" class="node">
<title>action&#45;51</title>
<polygon fill="white" stroke="black" points="1170,-114 1134,-114 1134,-78 1170,-78 1170,-114"/>
</g>
<!-- action&#45;51&#45;&#45;cluster&#45;11 -->
<g id="edge40" class="edge">
<title>action&#45;51&#45;&#45;cluster&#45;11</title>
<path fill="none" stroke="black" d="M1170.32,-103.66C1182.01,-108.84 1196.91,-115.43 1205.94,-119.43"/>
</g>
<!-- action&#45;52 -->
<g id="node29" class="node">
<title>action&#45;52</title>
<polygon fill="white" stroke="black" points="1296,-141 1260,-141 1260,-105 1296,-105 1296,-141"/>
</g>
<!-- cluster&#45;12 -->
<g id="node48" class="node">
<title>cluster&#45;12</title>
<polygon fill="black" stroke="black" stroke-width="0" points="1350,-91 1332,-91 1332,-73 1350,-73 1350,-91"/>
</g>
<!-- action&#45;52&#45;&#45;cluster&#45;12 -->
<g id="edge41" class="edge">
<title>action&#45;52&#45;&#45;cluster&#45;12</title>
<path fill="none" stroke="black" d="M1296.32,-111.36C1308.01,-103.5 1322.91,-93.49 1331.94,-87.42"/>
</g>
<!-- action&#45;55 -->
<g id="node30" class="node">
<title>action&#45;55</title>
<polygon fill="white" stroke="black" points="1296,-87 1260,-87 1260,-51 1296,-51 1296,-87"/>
</g>
<!-- action&#45;55&#45;&#45;cluster&#45;12 -->
<g id="edge42" class="edge">
<title>action&#45;55&#45;&#45;cluster&#45;12</title>
<path fill="none" stroke="black" d="M1296.32,-72.69C1308.01,-75.18 1322.91,-78.36 1331.94,-80.28"/>
</g>
<!-- action&#45;56 -->
<g id="node31" class="node">
<title>action&#45;56</title>
<polygon fill="white" stroke="black" points="1422,-100 1386,-100 1386,-64 1422,-64 1422,-100"/>
</g>
<!-- cluster&#45;14 -->
<g id="node50" class="node">
<title>cluster&#45;14</title>
<polygon fill="black" stroke="black" stroke-width="0" points="1476,-81 1458,-81 1458,-63 1476,-63 1476,-81"/>
</g>
<!-- action&#45;56&#45;&#45;cluster&#45;14 -->
<g id="edge45" class="edge">
<title>action&#45;56&#45;&#45;cluster&#45;14</title>
<path fill="none" stroke="black" d="M1422.32,-79.16C1434.01,-77.24 1448.91,-74.8 1457.94,-73.32"/>
</g>
<!-- action&#45;59 -->
<g id="node32" class="node">
<title>action&#45;59</title>
<polygon fill="white" stroke="black" points="1548,-144 1512,-144 1512,-108 1548,-108 1548,-144"/>
</g>
<!-- action&#45;59&#45;&#45;cluster&#45;13 -->
<g id="edge44" class="edge">
<title>action&#45;59&#45;&#45;cluster&#45;13</title>
<path fill="none" stroke="black" d="M1548.32,-126C1560.01,-126 1574.91,-126 1583.94,-126"/>
</g>
<!-- action&#45;63 -->
<g id="node33" class="node">
<title>action&#45;63</title>
<polygon fill="white" stroke="black" points="1422,-46 1386,-46 1386,-10 1422,-10 1422,-46"/>
</g>
<!-- action&#45;63&#45;&#45;cluster&#45;14 -->
<g id="edge46" class="edge">
<title>action&#45;63&#45;&#45;cluster&#45;14</title>
<path fill="none" stroke="black" d="M1422.32,-40.49C1434.01,-48.93 1448.91,-59.67 1457.94,-66.18"/>
</g>
<!-- action&#45;64 -->
<g id="node34" class="node">
<title>action&#45;64</title>
<polygon fill="#c9211e" stroke="black" points="1548,-90 1512,-90 1512,-54 1548,-54 1548,-90"/>
</g>
<!-- cluster&#45;15 -->
<g id="node51" class="node">
<title>cluster&#45;15</title>
<polygon fill="black" stroke="black" stroke-width="0" points="1602,-81 1584,-81 1584,-63 1602,-63 1602,-81"/>
</g>
<!-- action&#45;64&#45;&#45;cluster&#45;15 -->
<g id="edge47" class="edge">
<title>action&#45;64&#45;&#45;cluster&#45;15</title>
<path fill="none" stroke="black" d="M1548.32,-72C1560.01,-72 1574.91,-72 1583.94,-72"/>
</g>
<!-- action&#45;67 -->
<g id="node35" class="node">
<title>action&#45;67</title>
<polygon fill="#00008b" stroke="black" points="1548,-36 1512,-36 1512,0 1548,0 1548,-36"/>
</g>
<!-- action&#45;67&#45;&#45;cluster&#45;15 -->
<g id="edge48" class="edge">
<title>action&#45;67&#45;&#45;cluster&#45;15</title>
<path fill="none" stroke="black" d="M1548.32,-33.33C1560.01,-43.68 1574.91,-56.87 1583.94,-64.86"/>
</g>
<!-- cluster&#45;0&#45;&#45;action&#45;4 -->
<g id="edge1" class="edge">
<title>cluster&#45;0&#45;&#45;action&#45;4</title>
<path fill="none" stroke="black" d="M90.23,-366C99.33,-366 114.26,-366 125.92,-366"/>
</g>
<!-- cluster&#45;1&#45;&#45;action&#45;8 -->
<g id="edge2" class="edge">
<title>cluster&#45;1&#45;&#45;action&#45;8</title>
<path fill="none" stroke="black" d="M216.23,-339C225.33,-339 240.26,-339 251.92,-339"/>
</g>
<!-- cluster&#45;2&#45;&#45;action&#45;14 -->
<g id="edge3" class="edge">
<title>cluster&#45;2&#45;&#45;action&#45;14</title>
<path fill="none" stroke="black" d="M1350.23,-224C1359.33,-224 1374.26,-224 1385.92,-224"/>
</g>
<!-- cluster&#45;3&#45;&#45;action&#45;18 -->
<g id="edge4" class="edge">
<title>cluster&#45;3&#45;&#45;action&#45;18</title>
<path fill="none" stroke="black" d="M1476.23,-180C1485.33,-180 1500.26,-180 1511.92,-180"/>
</g>
<!-- cluster&#45;4&#45;&#45;action&#45;22 -->
<g id="edge5" class="edge">
<title>cluster&#45;4&#45;&#45;action&#45;22</title>
<path fill="none" stroke="black" d="M342.23,-312C351.33,-312 366.26,-312 377.92,-312"/>
</g>
<!-- cluster&#45;5&#45;&#45;action&#45;26 -->
<g id="edge6" class="edge">
<title>cluster&#45;5&#45;&#45;action&#45;26</title>
<path fill="none" stroke="black" d="M468.23,-285C477.33,-285 492.26,-285 503.92,-285"/>
</g>
<!-- cluster&#45;6&#45;&#45;action&#45;32 -->
<g id="edge7" class="edge">
<title>cluster&#45;6&#45;&#45;action&#45;32</title>
<path fill="none" stroke="black" d="M594.23,-258C603.33,-258 618.26,-258 629.92,-258"/>
</g>
<!-- cluster&#45;7&#45;&#45;action&#45;36 -->
<g id="edge8" class="edge">
<title>cluster&#45;7&#45;&#45;action&#45;36</title>
<path fill="none" stroke="black" d="M720.23,-231C729.33,-231 744.26,-231 755.92,-231"/>
</g>
<!-- cluster&#45;8&#45;&#45;action&#45;40 -->
<g id="edge9" class="edge">
<title>cluster&#45;8&#45;&#45;action&#45;40</title>
<path fill="none" stroke="black" d="M846.23,-204C855.33,-204 870.26,-204 881.92,-204"/>
</g>
<!-- cluster&#45;9&#45;&#45;action&#45;44 -->
<g id="edge10" class="edge">
<title>cluster&#45;9&#45;&#45;action&#45;44</title>
<path fill="none" stroke="black" d="M972.23,-177C981.33,-177 996.26,-177 1007.92,-177"/>
</g>
<!-- cluster&#45;10&#45;&#45;action&#45;48 -->
<g id="edge11" class="edge">
<title>cluster&#45;10&#45;&#45;action&#45;48</title>
<path fill="none" stroke="black" d="M1098.23,-150C1107.33,-150 1122.26,-150 1133.92,-150"/>
</g>
<!-- cluster&#45;11&#45;&#45;action&#45;52 -->
<g id="edge12" class="edge">
<title>cluster&#45;11&#45;&#45;action&#45;52</title>
<path fill="none" stroke="black" d="M1224.23,-123C1233.33,-123 1248.26,-123 1259.92,-123"/>
</g>
<!-- cluster&#45;12&#45;&#45;action&#45;56 -->
<g id="edge13" class="edge">
<title>cluster&#45;12&#45;&#45;action&#45;56</title>
<path fill="none" stroke="black" d="M1350.23,-82C1359.33,-82 1374.26,-82 1385.92,-82"/>
</g>
<!-- cluster&#45;13&#45;&#45;action&#45;60 -->
<g id="edge14" class="edge">
<title>cluster&#45;13&#45;&#45;action&#45;60</title>
<path fill="none" stroke="black" d="M1602.23,-126C1611.33,-126 1626.26,-126 1637.92,-126"/>
</g>
<!-- cluster&#45;14&#45;&#45;action&#45;64 -->
<g id="edge15" class="edge">
<title>cluster&#45;14&#45;&#45;action&#45;64</title>
<path fill="none" stroke="black" d="M1476.23,-72C1485.33,-72 1500.26,-72 1511.92,-72"/>
</g>
<!-- cluster&#45;15&#45;&#45;action&#45;68 -->
<g id="edge16" class="edge">
<title>cluster&#45;15&#45;&#45;action&#45;68</title>
<path fill="none" stroke="black" d="M1602.23,-72C1611.33,-72 1626.26,-72 1637.92,-72"/>
</g>
</g>
</svg>
