<?xml version="1.0" encoding="UTF-8" standalone="no"?>
<!DOCTYPE svg PUBLIC "-//W3C//DTD SVG 1.1//EN"
 "http://www.w3.org/Graphics/SVG/1.1/DTD/svg11.dtd">
<!-- Generated by graphviz version 2.43.0 (0)
 -->
<!-- Title: g Pages: 1 -->
<svg width="2958pt" height="815pt"
 viewBox="0.00 0.00 2958.00 815.00" xmlns="http://www.w3.org/2000/svg" xmlns:xlink="http://www.w3.org/1999/xlink">
<g id="graph0" class="graph" transform="scale(1 1) rotate(0) translate(4 811)">
<title>g</title>
<polygon fill="white" stroke="transparent" points="-4,4 -4,-811 2954,-811 2954,4 -4,4"/>
<g id="clust1" class="cluster">
<title>cluster_actionlib</title>
<polygon fill="none" stroke="black" points="2890,-46 2890,-206 2942,-206 2942,-46 2890,-46"/>
</g>
<!-- action&#45;29 -->
<g id="node1" class="node">
<title>action&#45;29</title>
<polygon fill="white" stroke="black" stroke-width="4" points="2934,-198 2898,-198 2898,-162 2934,-162 2934,-198"/>
</g>
<!-- action&#45;112 -->
<g id="node2" class="node">
<title>action&#45;112</title>
<polygon fill="white" stroke="black" stroke-width="4" points="2934,-144 2898,-144 2898,-108 2934,-108 2934,-144"/>
</g>
<!-- action&#45;128 -->
<g id="node3" class="node">
<title>action&#45;128</title>
<polygon fill="#008000" stroke="black" stroke-width="4" points="2934,-90 2898,-90 2898,-54 2934,-54 2934,-90"/>
</g>
<!-- action&#45;1 -->
<g id="node4" class="node">
<title>action&#45;1</title>
<polygon fill="white" stroke="black" points="36,-807 0,-807 0,-771 36,-771 36,-807"/>
</g>
<!-- cluster&#45;0 -->
<g id="node66" class="node">
<title>cluster&#45;0</title>
<polygon fill="black" stroke="black" stroke-width="0" points="90,-771 72,-771 72,-753 90,-753 90,-771"/>
</g>
<!-- action&#45;1&#45;&#45;cluster&#45;0 -->
<g id="edge32" class="edge">
<title>action&#45;1&#45;&#45;cluster&#45;0</title>
<path fill="none" stroke="black" d="M36.32,-781.34C48.01,-776.16 62.91,-769.57 71.94,-765.57"/>
</g>
<!-- action&#45;3 -->
<g id="node5" class="node">
<title>action&#45;3</title>
<polygon fill="white" stroke="black" points="36,-753 0,-753 0,-717 36,-717 36,-753"/>
</g>
<!-- action&#45;3&#45;&#45;cluster&#45;0 -->
<g id="edge33" class="edge">
<title>action&#45;3&#45;&#45;cluster&#45;0</title>
<path fill="none" stroke="black" d="M36.32,-742.66C48.01,-747.84 62.91,-754.43 71.94,-758.43"/>
</g>
<!-- action&#45;4 -->
<g id="node6" class="node">
<title>action&#45;4</title>
<polygon fill="white" stroke="black" points="162,-780 126,-780 126,-744 162,-744 162,-780"/>
</g>
<!-- cluster&#45;1 -->
<g id="node67" class="node">
<title>cluster&#45;1</title>
<polygon fill="black" stroke="black" stroke-width="0" points="216,-744 198,-744 198,-726 216,-726 216,-744"/>
</g>
<!-- action&#45;4&#45;&#45;cluster&#45;1 -->
<g id="edge34" class="edge">
<title>action&#45;4&#45;&#45;cluster&#45;1</title>
<path fill="none" stroke="black" d="M162.32,-754.34C174.01,-749.16 188.91,-742.57 197.94,-738.57"/>
</g>
<!-- action&#45;7 -->
<g id="node7" class="node">
<title>action&#45;7</title>
<polygon fill="white" stroke="black" points="162,-726 126,-726 126,-690 162,-690 162,-726"/>
</g>
<!-- action&#45;7&#45;&#45;cluster&#45;1 -->
<g id="edge35" class="edge">
<title>action&#45;7&#45;&#45;cluster&#45;1</title>
<path fill="none" stroke="black" d="M162.32,-715.66C174.01,-720.84 188.91,-727.43 197.94,-731.43"/>
</g>
<!-- action&#45;8 -->
<g id="node8" class="node">
<title>action&#45;8</title>
<polygon fill="white" stroke="black" points="288,-753 252,-753 252,-717 288,-717 288,-753"/>
</g>
<!-- cluster&#45;4 -->
<g id="node70" class="node">
<title>cluster&#45;4</title>
<polygon fill="black" stroke="black" stroke-width="0" points="342,-717 324,-717 324,-699 342,-699 342,-717"/>
</g>
<!-- action&#45;8&#45;&#45;cluster&#45;4 -->
<g id="edge40" class="edge">
<title>action&#45;8&#45;&#45;cluster&#45;4</title>
<path fill="none" stroke="black" d="M288.32,-727.34C300.01,-722.16 314.91,-715.57 323.94,-711.57"/>
</g>
<!-- action&#45;11 -->
<g id="node9" class="node">
<title>action&#45;11</title>
<polygon fill="white" stroke="black" points="1926,-537 1890,-537 1890,-501 1926,-501 1926,-537"/>
</g>
<!-- cluster&#45;2 -->
<g id="node68" class="node">
<title>cluster&#45;2</title>
<polygon fill="black" stroke="black" stroke-width="0" points="1980,-494 1962,-494 1962,-476 1980,-476 1980,-494"/>
</g>
<!-- action&#45;11&#45;&#45;cluster&#45;2 -->
<g id="edge36" class="edge">
<title>action&#45;11&#45;&#45;cluster&#45;2</title>
<path fill="none" stroke="black" d="M1926.32,-509.35C1938.01,-502.83 1952.91,-494.53 1961.94,-489.5"/>
</g>
<!-- action&#45;13 -->
<g id="node10" class="node">
<title>action&#45;13</title>
<polygon fill="white" stroke="black" points="1926,-483 1890,-483 1890,-447 1926,-447 1926,-483"/>
</g>
<!-- action&#45;13&#45;&#45;cluster&#45;2 -->
<g id="edge37" class="edge">
<title>action&#45;13&#45;&#45;cluster&#45;2</title>
<path fill="none" stroke="black" d="M1926.32,-470.68C1938.01,-474.51 1952.91,-479.4 1961.94,-482.36"/>
</g>
<!-- action&#45;14 -->
<g id="node11" class="node">
<title>action&#45;14</title>
<polygon fill="white" stroke="black" points="2052,-503 2016,-503 2016,-467 2052,-467 2052,-503"/>
</g>
<!-- cluster&#45;3 -->
<g id="node69" class="node">
<title>cluster&#45;3</title>
<polygon fill="black" stroke="black" stroke-width="0" points="2106,-450 2088,-450 2088,-432 2106,-432 2106,-450"/>
</g>
<!-- action&#45;14&#45;&#45;cluster&#45;3 -->
<g id="edge38" class="edge">
<title>action&#45;14&#45;&#45;cluster&#45;3</title>
<path fill="none" stroke="black" d="M2052.32,-472.51C2064.01,-464.07 2078.91,-453.33 2087.94,-446.82"/>
</g>
<!-- action&#45;17 -->
<g id="node12" class="node">
<title>action&#45;17</title>
<polygon fill="white" stroke="black" points="2052,-449 2016,-449 2016,-413 2052,-413 2052,-449"/>
</g>
<!-- action&#45;17&#45;&#45;cluster&#45;3 -->
<g id="edge39" class="edge">
<title>action&#45;17&#45;&#45;cluster&#45;3</title>
<path fill="none" stroke="black" d="M2052.32,-433.84C2064.01,-435.76 2078.91,-438.2 2087.94,-439.68"/>
</g>
<!-- action&#45;18 -->
<g id="node13" class="node">
<title>action&#45;18</title>
<polygon fill="white" stroke="black" points="2178,-459 2142,-459 2142,-423 2178,-423 2178,-459"/>
</g>
<!-- cluster&#45;13 -->
<g id="node79" class="node">
<title>cluster&#45;13</title>
<polygon fill="black" stroke="black" stroke-width="0" points="2232,-401 2214,-401 2214,-383 2232,-383 2232,-401"/>
</g>
<!-- action&#45;18&#45;&#45;cluster&#45;13 -->
<g id="edge58" class="edge">
<title>action&#45;18&#45;&#45;cluster&#45;13</title>
<path fill="none" stroke="black" d="M2178.32,-427.09C2190.01,-417.7 2204.91,-405.73 2213.94,-398.48"/>
</g>
<!-- action&#45;21 -->
<g id="node14" class="node">
<title>action&#45;21</title>
<polygon fill="white" stroke="black" points="288,-699 252,-699 252,-663 288,-663 288,-699"/>
</g>
<!-- action&#45;21&#45;&#45;cluster&#45;4 -->
<g id="edge41" class="edge">
<title>action&#45;21&#45;&#45;cluster&#45;4</title>
<path fill="none" stroke="black" d="M288.32,-688.66C300.01,-693.84 314.91,-700.43 323.94,-704.43"/>
</g>
<!-- action&#45;22 -->
<g id="node15" class="node">
<title>action&#45;22</title>
<polygon fill="white" stroke="black" points="414,-726 378,-726 378,-690 414,-690 414,-726"/>
</g>
<!-- cluster&#45;5 -->
<g id="node71" class="node">
<title>cluster&#45;5</title>
<polygon fill="black" stroke="black" stroke-width="0" points="468,-690 450,-690 450,-672 468,-672 468,-690"/>
</g>
<!-- action&#45;22&#45;&#45;cluster&#45;5 -->
<g id="edge42" class="edge">
<title>action&#45;22&#45;&#45;cluster&#45;5</title>
<path fill="none" stroke="black" d="M414.32,-700.34C426.01,-695.16 440.91,-688.57 449.94,-684.57"/>
</g>
<!-- action&#45;25 -->
<g id="node16" class="node">
<title>action&#45;25</title>
<polygon fill="white" stroke="black" points="414,-672 378,-672 378,-636 414,-636 414,-672"/>
</g>
<!-- action&#45;25&#45;&#45;cluster&#45;5 -->
<g id="edge43" class="edge">
<title>action&#45;25&#45;&#45;cluster&#45;5</title>
<path fill="none" stroke="black" d="M414.32,-661.66C426.01,-666.84 440.91,-673.43 449.94,-677.43"/>
</g>
<!-- action&#45;26 -->
<g id="node17" class="node">
<title>action&#45;26</title>
<polygon fill="white" stroke="black" points="540,-699 504,-699 504,-663 540,-663 540,-699"/>
</g>
<!-- cluster&#45;6 -->
<g id="node72" class="node">
<title>cluster&#45;6</title>
<polygon fill="black" stroke="black" stroke-width="0" points="594,-663 576,-663 576,-645 594,-645 594,-663"/>
</g>
<!-- action&#45;26&#45;&#45;cluster&#45;6 -->
<g id="edge44" class="edge">
<title>action&#45;26&#45;&#45;cluster&#45;6</title>
<path fill="none" stroke="black" d="M540.32,-673.34C552.01,-668.16 566.91,-661.57 575.94,-657.57"/>
</g>
<!-- action&#45;31 -->
<g id="node18" class="node">
<title>action&#45;31</title>
<polygon fill="white" stroke="black" points="540,-645 504,-645 504,-609 540,-609 540,-645"/>
</g>
<!-- action&#45;31&#45;&#45;cluster&#45;6 -->
<g id="edge45" class="edge">
<title>action&#45;31&#45;&#45;cluster&#45;6</title>
<path fill="none" stroke="black" d="M540.32,-634.66C552.01,-639.84 566.91,-646.43 575.94,-650.43"/>
</g>
<!-- action&#45;32 -->
<g id="node19" class="node">
<title>action&#45;32</title>
<polygon fill="white" stroke="black" points="666,-672 630,-672 630,-636 666,-636 666,-672"/>
</g>
<!-- cluster&#45;7 -->
<g id="node73" class="node">
<title>cluster&#45;7</title>
<polygon fill="black" stroke="black" stroke-width="0" points="720,-636 702,-636 702,-618 720,-618 720,-636"/>
</g>
<!-- action&#45;32&#45;&#45;cluster&#45;7 -->
<g id="edge46" class="edge">
<title>action&#45;32&#45;&#45;cluster&#45;7</title>
<path fill="none" stroke="black" d="M666.32,-646.34C678.01,-641.16 692.91,-634.57 701.94,-630.57"/>
</g>
<!-- action&#45;35 -->
<g id="node20" class="node">
<title>action&#45;35</title>
<polygon fill="white" stroke="black" points="666,-618 630,-618 630,-582 666,-582 666,-618"/>
</g>
<!-- action&#45;35&#45;&#45;cluster&#45;7 -->
<g id="edge47" class="edge">
<title>action&#45;35&#45;&#45;cluster&#45;7</title>
<path fill="none" stroke="black" d="M666.32,-607.66C678.01,-612.84 692.91,-619.43 701.94,-623.43"/>
</g>
<!-- action&#45;36 -->
<g id="node21" class="node">
<title>action&#45;36</title>
<polygon fill="white" stroke="black" points="792,-645 756,-645 756,-609 792,-609 792,-645"/>
</g>
<!-- cluster&#45;8 -->
<g id="node74" class="node">
<title>cluster&#45;8</title>
<polygon fill="black" stroke="black" stroke-width="0" points="846,-609 828,-609 828,-591 846,-591 846,-609"/>
</g>
<!-- action&#45;36&#45;&#45;cluster&#45;8 -->
<g id="edge48" class="edge">
<title>action&#45;36&#45;&#45;cluster&#45;8</title>
<path fill="none" stroke="black" d="M792.32,-619.34C804.01,-614.16 818.91,-607.57 827.94,-603.57"/>
</g>
<!-- action&#45;39 -->
<g id="node22" class="node">
<title>action&#45;39</title>
<polygon fill="white" stroke="black" points="792,-591 756,-591 756,-555 792,-555 792,-591"/>
</g>
<!-- action&#45;39&#45;&#45;cluster&#45;8 -->
<g id="edge49" class="edge">
<title>action&#45;39&#45;&#45;cluster&#45;8</title>
<path fill="none" stroke="black" d="M792.32,-580.66C804.01,-585.84 818.91,-592.43 827.94,-596.43"/>
</g>
<!-- action&#45;40 -->
<g id="node23" class="node">
<title>action&#45;40</title>
<polygon fill="white" stroke="black" points="918,-618 882,-618 882,-582 918,-582 918,-618"/>
</g>
<!-- cluster&#45;9 -->
<g id="node75" class="node">
<title>cluster&#45;9</title>
<polygon fill="black" stroke="black" stroke-width="0" points="972,-582 954,-582 954,-564 972,-564 972,-582"/>
</g>
<!-- action&#45;40&#45;&#45;cluster&#45;9 -->
<g id="edge50" class="edge">
<title>action&#45;40&#45;&#45;cluster&#45;9</title>
<path fill="none" stroke="black" d="M918.32,-592.34C930.01,-587.16 944.91,-580.57 953.94,-576.57"/>
</g>
<!-- action&#45;43 -->
<g id="node24" class="node">
<title>action&#45;43</title>
<polygon fill="white" stroke="black" points="918,-564 882,-564 882,-528 918,-528 918,-564"/>
</g>
<!-- action&#45;43&#45;&#45;cluster&#45;9 -->
<g id="edge51" class="edge">
<title>action&#45;43&#45;&#45;cluster&#45;9</title>
<path fill="none" stroke="black" d="M918.32,-553.66C930.01,-558.84 944.91,-565.43 953.94,-569.43"/>
</g>
<!-- action&#45;44 -->
<g id="node25" class="node">
<title>action&#45;44</title>
<polygon fill="white" stroke="black" points="1044,-591 1008,-591 1008,-555 1044,-555 1044,-591"/>
</g>
<!-- cluster&#45;10 -->
<g id="node76" class="node">
<title>cluster&#45;10</title>
<polygon fill="black" stroke="black" stroke-width="0" points="1098,-555 1080,-555 1080,-537 1098,-537 1098,-555"/>
</g>
<!-- action&#45;44&#45;&#45;cluster&#45;10 -->
<g id="edge52" class="edge">
<title>action&#45;44&#45;&#45;cluster&#45;10</title>
<path fill="none" stroke="black" d="M1044.32,-565.34C1056.01,-560.16 1070.91,-553.57 1079.94,-549.57"/>
</g>
<!-- action&#45;47 -->
<g id="node26" class="node">
<title>action&#45;47</title>
<polygon fill="white" stroke="black" points="1044,-537 1008,-537 1008,-501 1044,-501 1044,-537"/>
</g>
<!-- action&#45;47&#45;&#45;cluster&#45;10 -->
<g id="edge53" class="edge">
<title>action&#45;47&#45;&#45;cluster&#45;10</title>
<path fill="none" stroke="black" d="M1044.32,-526.66C1056.01,-531.84 1070.91,-538.43 1079.94,-542.43"/>
</g>
<!-- action&#45;48 -->
<g id="node27" class="node">
<title>action&#45;48</title>
<polygon fill="white" stroke="black" points="1170,-564 1134,-564 1134,-528 1170,-528 1170,-564"/>
</g>
<!-- cluster&#45;11 -->
<g id="node77" class="node">
<title>cluster&#45;11</title>
<polygon fill="black" stroke="black" stroke-width="0" points="1224,-528 1206,-528 1206,-510 1224,-510 1224,-528"/>
</g>
<!-- action&#45;48&#45;&#45;cluster&#45;11 -->
<g id="edge54" class="edge">
<title>action&#45;48&#45;&#45;cluster&#45;11</title>
<path fill="none" stroke="black" d="M1170.32,-538.34C1182.01,-533.16 1196.91,-526.57 1205.94,-522.57"/>
</g>
<!-- action&#45;51 -->
<g id="node28" class="node">
<title>action&#45;51</title>
<polygon fill="white" stroke="black" points="1170,-510 1134,-510 1134,-474 1170,-474 1170,-510"/>
</g>
<!-- action&#45;51&#45;&#45;cluster&#45;11 -->
<g id="edge55" class="edge">
<title>action&#45;51&#45;&#45;cluster&#45;11</title>
<path fill="none" stroke="black" d="M1170.32,-499.66C1182.01,-504.84 1196.91,-511.43 1205.94,-515.43"/>
</g>
<!-- action&#45;52 -->
<g id="node29" class="node">
<title>action&#45;52</title>
<polygon fill="white" stroke="black" points="1296,-537 1260,-537 1260,-501 1296,-501 1296,-537"/>
</g>
<!-- cluster&#45;12 -->
<g id="node78" class="node">
<title>cluster&#45;12</title>
<polygon fill="black" stroke="black" stroke-width="0" points="1350,-501 1332,-501 1332,-483 1350,-483 1350,-501"/>
</g>
<!-- action&#45;52&#45;&#45;cluster&#45;12 -->
<g id="edge56" class="edge">
<title>action&#45;52&#45;&#45;cluster&#45;12</title>
<path fill="none" stroke="black" d="M1296.32,-511.34C1308.01,-506.16 1322.91,-499.57 1331.94,-495.57"/>
</g>
<!-- action&#45;55 -->
<g id="node30" class="node">
<title>action&#45;55</title>
<polygon fill="white" stroke="black" points="1296,-483 1260,-483 1260,-447 1296,-447 1296,-483"/>
</g>
<!-- action&#45;55&#45;&#45;cluster&#45;12 -->
<g id="edge57" class="edge">
<title>action&#45;55&#45;&#45;cluster&#45;12</title>
<path fill="none" stroke="black" d="M1296.32,-472.66C1308.01,-477.84 1322.91,-484.43 1331.94,-488.43"/>
</g>
<!-- action&#45;56 -->
<g id="node31" class="node">
<title>action&#45;56</title>
<polygon fill="white" stroke="black" points="1422,-510 1386,-510 1386,-474 1422,-474 1422,-510"/>
</g>
<!-- cluster&#45;14 -->
<g id="node80" class="node">
<title>cluster&#45;14</title>
<polygon fill="black" stroke="black" stroke-width="0" points="1476,-474 1458,-474 1458,-456 1476,-456 1476,-474"/>
</g>
<!-- action&#45;56&#45;&#45;cluster&#45;14 -->
<g id="edge60" class="edge">
<title>action&#45;56&#45;&#45;cluster&#45;14</title>
<path fill="none" stroke="black" d="M1422.32,-484.34C1434.01,-479.16 1448.91,-472.57 1457.94,-468.57"/>
</g>
<!-- action&#45;59 -->
<g id="node32" class="node">
<title>action&#45;59</title>
<polygon fill="white" stroke="black" points="2178,-405 2142,-405 2142,-369 2178,-369 2178,-405"/>
</g>
<!-- action&#45;59&#45;&#45;cluster&#45;13 -->
<g id="edge59" class="edge">
<title>action&#45;59&#45;&#45;cluster&#45;13</title>
<path fill="none" stroke="black" d="M2178.32,-388.42C2190.01,-389.38 2204.91,-390.6 2213.94,-391.34"/>
</g>
<!-- action&#45;60 -->
<g id="node33" class="node">
<title>action&#45;60</title>
<polygon fill="white" stroke="black" points="2304,-410 2268,-410 2268,-374 2304,-374 2304,-410"/>
</g>
<!-- cluster&#45;16 -->
<g id="node82" class="node">
<title>cluster&#45;16</title>
<polygon fill="black" stroke="black" stroke-width="0" points="2358,-349 2340,-349 2340,-331 2358,-331 2358,-349"/>
</g>
<!-- action&#45;60&#45;&#45;cluster&#45;16 -->
<g id="edge64" class="edge">
<title>action&#45;60&#45;&#45;cluster&#45;16</title>
<path fill="none" stroke="black" d="M2304.32,-377.24C2316.01,-367.27 2330.91,-354.57 2339.94,-346.88"/>
</g>
<!-- action&#45;63 -->
<g id="node34" class="node">
<title>action&#45;63</title>
<polygon fill="white" stroke="black" points="1422,-456 1386,-456 1386,-420 1422,-420 1422,-456"/>
</g>
<!-- action&#45;63&#45;&#45;cluster&#45;14 -->
<g id="edge61" class="edge">
<title>action&#45;63&#45;&#45;cluster&#45;14</title>
<path fill="none" stroke="black" d="M1422.32,-445.66C1434.01,-450.84 1448.91,-457.43 1457.94,-461.43"/>
</g>
<!-- action&#45;64 -->
<g id="node35" class="node">
<title>action&#45;64</title>
<polygon fill="white" stroke="black" points="1548,-483 1512,-483 1512,-447 1548,-447 1548,-483"/>
</g>
<!-- cluster&#45;15 -->
<g id="node81" class="node">
<title>cluster&#45;15</title>
<polygon fill="black" stroke="black" stroke-width="0" points="1602,-447 1584,-447 1584,-429 1602,-429 1602,-447"/>
</g>
<!-- action&#45;64&#45;&#45;cluster&#45;15 -->
<g id="edge62" class="edge">
<title>action&#45;64&#45;&#45;cluster&#45;15</title>
<path fill="none" stroke="black" d="M1548.32,-457.34C1560.01,-452.16 1574.91,-445.57 1583.94,-441.57"/>
</g>
<!-- action&#45;67 -->
<g id="node36" class="node">
<title>action&#45;67</title>
<polygon fill="white" stroke="black" points="1548,-429 1512,-429 1512,-393 1548,-393 1548,-429"/>
</g>
<!-- action&#45;67&#45;&#45;cluster&#45;15 -->
<g id="edge63" class="edge">
<title>action&#45;67&#45;&#45;cluster&#45;15</title>
<path fill="none" stroke="black" d="M1548.32,-418.66C1560.01,-423.84 1574.91,-430.43 1583.94,-434.43"/>
</g>
<!-- action&#45;68 -->
<g id="node37" class="node">
<title>action&#45;68</title>
<polygon fill="white" stroke="black" points="1674,-456 1638,-456 1638,-420 1674,-420 1674,-456"/>
</g>
<!-- cluster&#45;18 -->
<g id="node84" class="node">
<title>cluster&#45;18</title>
<polygon fill="black" stroke="black" stroke-width="0" points="1728,-420 1710,-420 1710,-402 1728,-402 1728,-420"/>
</g>
<!-- action&#45;68&#45;&#45;cluster&#45;18 -->
<g id="edge68" class="edge">
<title>action&#45;68&#45;&#45;cluster&#45;18</title>
<path fill="none" stroke="black" d="M1674.32,-430.34C1686.01,-425.16 1700.91,-418.57 1709.94,-414.57"/>
</g>
<!-- action&#45;71 -->
<g id="node38" class="node">
<title>action&#45;71</title>
<polygon fill="white" stroke="black" points="2304,-356 2268,-356 2268,-320 2304,-320 2304,-356"/>
</g>
<!-- action&#45;71&#45;&#45;cluster&#45;16 -->
<g id="edge65" class="edge">
<title>action&#45;71&#45;&#45;cluster&#45;16</title>
<path fill="none" stroke="black" d="M2304.32,-338.57C2316.01,-338.95 2330.91,-339.44 2339.94,-339.74"/>
</g>
<!-- action&#45;72 -->
<g id="node39" class="node">
<title>action&#45;72</title>
<polygon fill="white" stroke="black" points="2430,-358 2394,-358 2394,-322 2430,-322 2430,-358"/>
</g>
<!-- cluster&#45;17 -->
<g id="node83" class="node">
<title>cluster&#45;17</title>
<polygon fill="black" stroke="black" stroke-width="0" points="2484,-296 2466,-296 2466,-278 2484,-278 2484,-296"/>
</g>
<!-- action&#45;72&#45;&#45;cluster&#45;17 -->
<g id="edge66" class="edge">
<title>action&#45;72&#45;&#45;cluster&#45;17</title>
<path fill="none" stroke="black" d="M2430.32,-324.95C2442.01,-314.79 2456.91,-301.85 2465.94,-294.01"/>
</g>
<!-- action&#45;75 -->
<g id="node40" class="node">
<title>action&#45;75</title>
<polygon fill="white" stroke="black" points="2430,-304 2394,-304 2394,-268 2430,-268 2430,-304"/>
</g>
<!-- action&#45;75&#45;&#45;cluster&#45;17 -->
<g id="edge67" class="edge">
<title>action&#45;75&#45;&#45;cluster&#45;17</title>
<path fill="none" stroke="black" d="M2430.32,-286.28C2442.01,-286.48 2456.91,-286.72 2465.94,-286.87"/>
</g>
<!-- action&#45;76 -->
<g id="node41" class="node">
<title>action&#45;76</title>
<polygon fill="white" stroke="black" points="2556,-305 2520,-305 2520,-269 2556,-269 2556,-305"/>
</g>
<!-- cluster&#45;20 -->
<g id="node86" class="node">
<title>cluster&#45;20</title>
<polygon fill="black" stroke="black" stroke-width="0" points="2610,-243 2592,-243 2592,-225 2610,-225 2610,-243"/>
</g>
<!-- action&#45;76&#45;&#45;cluster&#45;20 -->
<g id="edge72" class="edge">
<title>action&#45;76&#45;&#45;cluster&#45;20</title>
<path fill="none" stroke="black" d="M2556.32,-271.95C2568.01,-261.79 2582.91,-248.85 2591.94,-241.01"/>
</g>
<!-- action&#45;79 -->
<g id="node42" class="node">
<title>action&#45;79</title>
<polygon fill="white" stroke="black" points="1674,-402 1638,-402 1638,-366 1674,-366 1674,-402"/>
</g>
<!-- action&#45;79&#45;&#45;cluster&#45;18 -->
<g id="edge69" class="edge">
<title>action&#45;79&#45;&#45;cluster&#45;18</title>
<path fill="none" stroke="black" d="M1674.32,-391.66C1686.01,-396.84 1700.91,-403.43 1709.94,-407.43"/>
</g>
<!-- action&#45;80 -->
<g id="node43" class="node">
<title>action&#45;80</title>
<polygon fill="white" stroke="black" points="1800,-429 1764,-429 1764,-393 1800,-393 1800,-429"/>
</g>
<!-- cluster&#45;19 -->
<g id="node85" class="node">
<title>cluster&#45;19</title>
<polygon fill="black" stroke="black" stroke-width="0" points="1854,-393 1836,-393 1836,-375 1854,-375 1854,-393"/>
</g>
<!-- action&#45;80&#45;&#45;cluster&#45;19 -->
<g id="edge70" class="edge">
<title>action&#45;80&#45;&#45;cluster&#45;19</title>
<path fill="none" stroke="black" d="M1800.32,-403.34C1812.01,-398.16 1826.91,-391.57 1835.94,-387.57"/>
</g>
<!-- action&#45;83 -->
<g id="node44" class="node">
<title>action&#45;83</title>
<polygon fill="white" stroke="black" points="1800,-375 1764,-375 1764,-339 1800,-339 1800,-375"/>
</g>
<!-- action&#45;83&#45;&#45;cluster&#45;19 -->
<g id="edge71" class="edge">
<title>action&#45;83&#45;&#45;cluster&#45;19</title>
<path fill="none" stroke="black" d="M1800.32,-364.66C1812.01,-369.84 1826.91,-376.43 1835.94,-380.43"/>
</g>
<!-- action&#45;84 -->
<g id="node45" class="node">
<title>action&#45;84</title>
<polygon fill="white" stroke="black" points="1926,-402 1890,-402 1890,-366 1926,-366 1926,-402"/>
</g>
<!-- cluster&#45;21 -->
<g id="node87" class="node">
<title>cluster&#45;21</title>
<polygon fill="black" stroke="black" stroke-width="0" points="1980,-352 1962,-352 1962,-334 1980,-334 1980,-352"/>
</g>
<!-- action&#45;84&#45;&#45;cluster&#45;21 -->
<g id="edge74" class="edge">
<title>action&#45;84&#45;&#45;cluster&#45;21</title>
<path fill="none" stroke="black" d="M1926.32,-372.36C1938.01,-364.5 1952.91,-354.49 1961.94,-348.42"/>
</g>
<!-- action&#45;87 -->
<g id="node46" class="node">
<title>action&#45;87</title>
<polygon fill="white" stroke="black" points="2556,-251 2520,-251 2520,-215 2556,-215 2556,-251"/>
</g>
<!-- action&#45;87&#45;&#45;cluster&#45;20 -->
<g id="edge73" class="edge">
<title>action&#45;87&#45;&#45;cluster&#45;20</title>
<path fill="none" stroke="black" d="M2556.32,-233.28C2568.01,-233.48 2582.91,-233.72 2591.94,-233.87"/>
</g>
<!-- action&#45;88 -->
<g id="node47" class="node">
<title>action&#45;88</title>
<polygon fill="white" stroke="black" points="2682,-252 2646,-252 2646,-216 2682,-216 2682,-252"/>
</g>
<!-- cluster&#45;25 -->
<g id="node91" class="node">
<title>cluster&#45;25</title>
<polygon fill="black" stroke="black" stroke-width="0" points="2736,-189 2718,-189 2718,-171 2736,-171 2736,-189"/>
</g>
<!-- action&#45;88&#45;&#45;cluster&#45;25 -->
<g id="edge82" class="edge">
<title>action&#45;88&#45;&#45;cluster&#45;25</title>
<path fill="none" stroke="black" d="M2682.32,-218.67C2694.01,-208.32 2708.91,-195.13 2717.94,-187.14"/>
</g>
<!-- action&#45;91 -->
<g id="node48" class="node">
<title>action&#45;91</title>
<polygon fill="white" stroke="black" points="1926,-348 1890,-348 1890,-312 1926,-312 1926,-348"/>
</g>
<!-- action&#45;91&#45;&#45;cluster&#45;21 -->
<g id="edge75" class="edge">
<title>action&#45;91&#45;&#45;cluster&#45;21</title>
<path fill="none" stroke="black" d="M1926.32,-333.69C1938.01,-336.18 1952.91,-339.36 1961.94,-341.28"/>
</g>
<!-- action&#45;92 -->
<g id="node49" class="node">
<title>action&#45;92</title>
<polygon fill="white" stroke="black" points="2052,-361 2016,-361 2016,-325 2052,-325 2052,-361"/>
</g>
<!-- cluster&#45;22 -->
<g id="node88" class="node">
<title>cluster&#45;22</title>
<polygon fill="black" stroke="black" stroke-width="0" points="2106,-298 2088,-298 2088,-280 2106,-280 2106,-298"/>
</g>
<!-- action&#45;92&#45;&#45;cluster&#45;22 -->
<g id="edge76" class="edge">
<title>action&#45;92&#45;&#45;cluster&#45;22</title>
<path fill="none" stroke="black" d="M2052.32,-327.67C2064.01,-317.32 2078.91,-304.13 2087.94,-296.14"/>
</g>
<!-- action&#45;95 -->
<g id="node50" class="node">
<title>action&#45;95</title>
<polygon fill="white" stroke="black" points="2052,-307 2016,-307 2016,-271 2052,-271 2052,-307"/>
</g>
<!-- action&#45;95&#45;&#45;cluster&#45;22 -->
<g id="edge77" class="edge">
<title>action&#45;95&#45;&#45;cluster&#45;22</title>
<path fill="none" stroke="black" d="M2052.32,-289C2064.01,-289 2078.91,-289 2087.94,-289"/>
</g>
<!-- action&#45;96 -->
<g id="node51" class="node">
<title>action&#45;96</title>
<polygon fill="white" stroke="black" points="2178,-307 2142,-307 2142,-271 2178,-271 2178,-307"/>
</g>
<!-- cluster&#45;23 -->
<g id="node89" class="node">
<title>cluster&#45;23</title>
<polygon fill="black" stroke="black" stroke-width="0" points="2232,-244 2214,-244 2214,-226 2232,-226 2232,-244"/>
</g>
<!-- action&#45;96&#45;&#45;cluster&#45;23 -->
<g id="edge78" class="edge">
<title>action&#45;96&#45;&#45;cluster&#45;23</title>
<path fill="none" stroke="black" d="M2178.32,-273.67C2190.01,-263.32 2204.91,-250.13 2213.94,-242.14"/>
</g>
<!-- action&#45;99 -->
<g id="node52" class="node">
<title>action&#45;99</title>
<polygon fill="white" stroke="black" points="2178,-253 2142,-253 2142,-217 2178,-217 2178,-253"/>
</g>
<!-- action&#45;99&#45;&#45;cluster&#45;23 -->
<g id="edge79" class="edge">
<title>action&#45;99&#45;&#45;cluster&#45;23</title>
<path fill="none" stroke="black" d="M2178.32,-235C2190.01,-235 2204.91,-235 2213.94,-235"/>
</g>
<!-- action&#45;100 -->
<g id="node53" class="node">
<title>action&#45;100</title>
<polygon fill="white" stroke="black" points="2304,-253 2268,-253 2268,-217 2304,-217 2304,-253"/>
</g>
<!-- cluster&#45;24 -->
<g id="node90" class="node">
<title>cluster&#45;24</title>
<polygon fill="black" stroke="black" stroke-width="0" points="2358,-190 2340,-190 2340,-172 2358,-172 2358,-190"/>
</g>
<!-- action&#45;100&#45;&#45;cluster&#45;24 -->
<g id="edge80" class="edge">
<title>action&#45;100&#45;&#45;cluster&#45;24</title>
<path fill="none" stroke="black" d="M2304.32,-219.67C2316.01,-209.32 2330.91,-196.13 2339.94,-188.14"/>
</g>
<!-- action&#45;103 -->
<g id="node54" class="node">
<title>action&#45;103</title>
<polygon fill="white" stroke="black" points="2304,-199 2268,-199 2268,-163 2304,-163 2304,-199"/>
</g>
<!-- action&#45;103&#45;&#45;cluster&#45;24 -->
<g id="edge81" class="edge">
<title>action&#45;103&#45;&#45;cluster&#45;24</title>
<path fill="none" stroke="black" d="M2304.32,-181C2316.01,-181 2330.91,-181 2339.94,-181"/>
</g>
<!-- action&#45;104 -->
<g id="node55" class="node">
<title>action&#45;104</title>
<polygon fill="white" stroke="black" points="2430,-199 2394,-199 2394,-163 2430,-163 2430,-199"/>
</g>
<!-- cluster&#45;27 -->
<g id="node93" class="node">
<title>cluster&#45;27</title>
<polygon fill="black" stroke="black" stroke-width="0" points="2484,-136 2466,-136 2466,-118 2484,-118 2484,-136"/>
</g>
<!-- action&#45;104&#45;&#45;cluster&#45;27 -->
<g id="edge86" class="edge">
<title>action&#45;104&#45;&#45;cluster&#45;27</title>
<path fill="none" stroke="black" d="M2430.32,-165.67C2442.01,-155.32 2456.91,-142.13 2465.94,-134.14"/>
</g>
<!-- action&#45;107 -->
<g id="node56" class="node">
<title>action&#45;107</title>
<polygon fill="white" stroke="black" points="2682,-198 2646,-198 2646,-162 2682,-162 2682,-198"/>
</g>
<!-- action&#45;107&#45;&#45;cluster&#45;25 -->
<g id="edge83" class="edge">
<title>action&#45;107&#45;&#45;cluster&#45;25</title>
<path fill="none" stroke="black" d="M2682.32,-180C2694.01,-180 2708.91,-180 2717.94,-180"/>
</g>
<!-- action&#45;108 -->
<g id="node57" class="node">
<title>action&#45;108</title>
<polygon fill="white" stroke="black" points="2808,-198 2772,-198 2772,-162 2808,-162 2808,-198"/>
</g>
<!-- cluster&#45;26 -->
<g id="node92" class="node">
<title>cluster&#45;26</title>
<polygon fill="black" stroke="black" stroke-width="0" points="2862,-135 2844,-135 2844,-117 2862,-117 2862,-135"/>
</g>
<!-- action&#45;108&#45;&#45;cluster&#45;26 -->
<g id="edge84" class="edge">
<title>action&#45;108&#45;&#45;cluster&#45;26</title>
<path fill="none" stroke="black" d="M2808.32,-164.67C2820.01,-154.32 2834.91,-141.13 2843.94,-133.14"/>
</g>
<!-- action&#45;111 -->
<g id="node58" class="node">
<title>action&#45;111</title>
<polygon fill="white" stroke="black" points="2808,-144 2772,-144 2772,-108 2808,-108 2808,-144"/>
</g>
<!-- action&#45;111&#45;&#45;cluster&#45;26 -->
<g id="edge85" class="edge">
<title>action&#45;111&#45;&#45;cluster&#45;26</title>
<path fill="none" stroke="black" d="M2808.32,-126C2820.01,-126 2834.91,-126 2843.94,-126"/>
</g>
<!-- action&#45;115 -->
<g id="node59" class="node">
<title>action&#45;115</title>
<polygon fill="white" stroke="black" points="2430,-145 2394,-145 2394,-109 2430,-109 2430,-145"/>
</g>
<!-- action&#45;115&#45;&#45;cluster&#45;27 -->
<g id="edge87" class="edge">
<title>action&#45;115&#45;&#45;cluster&#45;27</title>
<path fill="none" stroke="black" d="M2430.32,-127C2442.01,-127 2456.91,-127 2465.94,-127"/>
</g>
<!-- action&#45;116 -->
<g id="node60" class="node">
<title>action&#45;116</title>
<polygon fill="white" stroke="black" points="2556,-145 2520,-145 2520,-109 2556,-109 2556,-145"/>
</g>
<!-- cluster&#45;28 -->
<g id="node94" class="node">
<title>cluster&#45;28</title>
<polygon fill="black" stroke="black" stroke-width="0" points="2610,-82 2592,-82 2592,-64 2610,-64 2610,-82"/>
</g>
<!-- action&#45;116&#45;&#45;cluster&#45;28 -->
<g id="edge88" class="edge">
<title>action&#45;116&#45;&#45;cluster&#45;28</title>
<path fill="none" stroke="black" d="M2556.32,-111.67C2568.01,-101.32 2582.91,-88.13 2591.94,-80.14"/>
</g>
<!-- action&#45;119 -->
<g id="node61" class="node">
<title>action&#45;119</title>
<polygon fill="white" stroke="black" points="2556,-91 2520,-91 2520,-55 2556,-55 2556,-91"/>
</g>
<!-- action&#45;119&#45;&#45;cluster&#45;28 -->
<g id="edge89" class="edge">
<title>action&#45;119&#45;&#45;cluster&#45;28</title>
<path fill="none" stroke="black" d="M2556.32,-73C2568.01,-73 2582.91,-73 2591.94,-73"/>
</g>
<!-- action&#45;120 -->
<g id="node62" class="node">
<title>action&#45;120</title>
<polygon fill="white" stroke="black" points="2682,-91 2646,-91 2646,-55 2682,-55 2682,-91"/>
</g>
<!-- cluster&#45;29 -->
<g id="node95" class="node">
<title>cluster&#45;29</title>
<polygon fill="black" stroke="black" stroke-width="0" points="2736,-81 2718,-81 2718,-63 2736,-63 2736,-81"/>
</g>
<!-- action&#45;120&#45;&#45;cluster&#45;29 -->
<g id="edge90" class="edge">
<title>action&#45;120&#45;&#45;cluster&#45;29</title>
<path fill="none" stroke="black" d="M2682.32,-72.72C2694.01,-72.52 2708.91,-72.28 2717.94,-72.13"/>
</g>
<!-- action&#45;123 -->
<g id="node63" class="node">
<title>action&#45;123</title>
<polygon fill="white" stroke="black" points="2682,-37 2646,-37 2646,-1 2682,-1 2682,-37"/>
</g>
<!-- action&#45;123&#45;&#45;cluster&#45;29 -->
<g id="edge91" class="edge">
<title>action&#45;123&#45;&#45;cluster&#45;29</title>
<path fill="none" stroke="black" d="M2682.32,-34.05C2694.01,-44.21 2708.91,-57.15 2717.94,-64.99"/>
</g>
<!-- action&#45;124 -->
<g id="node64" class="node">
<title>action&#45;124</title>
<polygon fill="#c9211e" stroke="black" points="2808,-90 2772,-90 2772,-54 2808,-54 2808,-90"/>
</g>
<!-- cluster&#45;30 -->
<g id="node96" class="node">
<title>cluster&#45;30</title>
<polygon fill="black" stroke="black" stroke-width="0" points="2862,-81 2844,-81 2844,-63 2862,-63 2862,-81"/>
</g>
<!-- action&#45;124&#45;&#45;cluster&#45;30 -->
<g id="edge92" class="edge">
<title>action&#45;124&#45;&#45;cluster&#45;30</title>
<path fill="none" stroke="black" d="M2808.32,-72C2820.01,-72 2834.91,-72 2843.94,-72"/>
</g>
<!-- action&#45;127 -->
<g id="node65" class="node">
<title>action&#45;127</title>
<polygon fill="#00008b" stroke="black" points="2808,-36 2772,-36 2772,0 2808,0 2808,-36"/>
</g>
<!-- action&#45;127&#45;&#45;cluster&#45;30 -->
<g id="edge93" class="edge">
<title>action&#45;127&#45;&#45;cluster&#45;30</title>
<path fill="none" stroke="black" d="M2808.32,-33.33C2820.01,-43.68 2834.91,-56.87 2843.94,-64.86"/>
</g>
<!-- cluster&#45;0&#45;&#45;action&#45;4 -->
<g id="edge1" class="edge">
<title>cluster&#45;0&#45;&#45;action&#45;4</title>
<path fill="none" stroke="black" d="M90.23,-762C99.33,-762 114.26,-762 125.92,-762"/>
</g>
<!-- cluster&#45;1&#45;&#45;action&#45;8 -->
<g id="edge2" class="edge">
<title>cluster&#45;1&#45;&#45;action&#45;8</title>
<path fill="none" stroke="black" d="M216.23,-735C225.33,-735 240.26,-735 251.92,-735"/>
</g>
<!-- cluster&#45;2&#45;&#45;action&#45;14 -->
<g id="edge3" class="edge">
<title>cluster&#45;2&#45;&#45;action&#45;14</title>
<path fill="none" stroke="black" d="M1980.23,-485C1989.33,-485 2004.26,-485 2015.92,-485"/>
</g>
<!-- cluster&#45;3&#45;&#45;action&#45;18 -->
<g id="edge4" class="edge">
<title>cluster&#45;3&#45;&#45;action&#45;18</title>
<path fill="none" stroke="black" d="M2106.23,-441C2115.33,-441 2130.26,-441 2141.92,-441"/>
</g>
<!-- cluster&#45;4&#45;&#45;action&#45;22 -->
<g id="edge5" class="edge">
<title>cluster&#45;4&#45;&#45;action&#45;22</title>
<path fill="none" stroke="black" d="M342.23,-708C351.33,-708 366.26,-708 377.92,-708"/>
</g>
<!-- cluster&#45;5&#45;&#45;action&#45;26 -->
<g id="edge6" class="edge">
<title>cluster&#45;5&#45;&#45;action&#45;26</title>
<path fill="none" stroke="black" d="M468.23,-681C477.33,-681 492.26,-681 503.92,-681"/>
</g>
<!-- cluster&#45;6&#45;&#45;action&#45;32 -->
<g id="edge7" class="edge">
<title>cluster&#45;6&#45;&#45;action&#45;32</title>
<path fill="none" stroke="black" d="M594.23,-654C603.33,-654 618.26,-654 629.92,-654"/>
</g>
<!-- cluster&#45;7&#45;&#45;action&#45;36 -->
<g id="edge8" class="edge">
<title>cluster&#45;7&#45;&#45;action&#45;36</title>
<path fill="none" stroke="black" d="M720.23,-627C729.33,-627 744.26,-627 755.92,-627"/>
</g>
<!-- cluster&#45;8&#45;&#45;action&#45;40 -->
<g id="edge9" class="edge">
<title>cluster&#45;8&#45;&#45;action&#45;40</title>
<path fill="none" stroke="black" d="M846.23,-600C855.33,-600 870.26,-600 881.92,-600"/>
</g>
<!-- cluster&#45;9&#45;&#45;action&#45;44 -->
<g id="edge10" class="edge">
<title>cluster&#45;9&#45;&#45;action&#45;44</title>
<path fill="none" stroke="black" d="M972.23,-573C981.33,-573 996.26,-573 1007.92,-573"/>
</g>
<!-- cluster&#45;10&#45;&#45;action&#45;48 -->
<g id="edge11" class="edge">
<title>cluster&#45;10&#45;&#45;action&#45;48</title>
<path fill="none" stroke="black" d="M1098.23,-546C1107.33,-546 1122.26,-546 1133.92,-546"/>
</g>
<!-- cluster&#45;11&#45;&#45;action&#45;52 -->
<g id="edge12" class="edge">
<title>cluster&#45;11&#45;&#45;action&#45;52</title>
<path fill="none" stroke="black" d="M1224.23,-519C1233.33,-519 1248.26,-519 1259.92,-519"/>
</g>
<!-- cluster&#45;12&#45;&#45;action&#45;56 -->
<g id="edge13" class="edge">
<title>cluster&#45;12&#45;&#45;action&#45;56</title>
<path fill="none" stroke="black" d="M1350.23,-492C1359.33,-492 1374.26,-492 1385.92,-492"/>
</g>
<!-- cluster&#45;13&#45;&#45;action&#45;60 -->
<g id="edge14" class="edge">
<title>cluster&#45;13&#45;&#45;action&#45;60</title>
<path fill="none" stroke="black" d="M2232.23,-392C2241.33,-392 2256.26,-392 2267.92,-392"/>
</g>
<!-- cluster&#45;14&#45;&#45;action&#45;64 -->
<g id="edge15" class="edge">
<title>cluster&#45;14&#45;&#45;action&#45;64</title>
<path fill="none" stroke="black" d="M1476.23,-465C1485.33,-465 1500.26,-465 1511.92,-465"/>
</g>
<!-- cluster&#45;15&#45;&#45;action&#45;68 -->
<g id="edge16" class="edge">
<title>cluster&#45;15&#45;&#45;action&#45;68</title>
<path fill="none" stroke="black" d="M1602.23,-438C1611.33,-438 1626.26,-438 1637.92,-438"/>
</g>
<!-- cluster&#45;16&#45;&#45;action&#45;72 -->
<g id="edge17" class="edge">
<title>cluster&#45;16&#45;&#45;action&#45;72</title>
<path fill="none" stroke="black" d="M2358.23,-340C2367.33,-340 2382.26,-340 2393.92,-340"/>
</g>
<!-- cluster&#45;17&#45;&#45;action&#45;76 -->
<g id="edge18" class="edge">
<title>cluster&#45;17&#45;&#45;action&#45;76</title>
<path fill="none" stroke="black" d="M2484.23,-287C2493.33,-287 2508.26,-287 2519.92,-287"/>
</g>
<!-- cluster&#45;18&#45;&#45;action&#45;80 -->
<g id="edge19" class="edge">
<title>cluster&#45;18&#45;&#45;action&#45;80</title>
<path fill="none" stroke="black" d="M1728.23,-411C1737.33,-411 1752.26,-411 1763.92,-411"/>
</g>
<!-- cluster&#45;19&#45;&#45;action&#45;84 -->
<g id="edge20" class="edge">
<title>cluster&#45;19&#45;&#45;action&#45;84</title>
<path fill="none" stroke="black" d="M1854.23,-384C1863.33,-384 1878.26,-384 1889.92,-384"/>
</g>
<!-- cluster&#45;20&#45;&#45;action&#45;88 -->
<g id="edge21" class="edge">
<title>cluster&#45;20&#45;&#45;action&#45;88</title>
<path fill="none" stroke="black" d="M2610.23,-234C2619.33,-234 2634.26,-234 2645.92,-234"/>
</g>
<!-- cluster&#45;21&#45;&#45;action&#45;92 -->
<g id="edge22" class="edge">
<title>cluster&#45;21&#45;&#45;action&#45;92</title>
<path fill="none" stroke="black" d="M1980.23,-343C1989.33,-343 2004.26,-343 2015.92,-343"/>
</g>
<!-- cluster&#45;22&#45;&#45;action&#45;96 -->
<g id="edge23" class="edge">
<title>cluster&#45;22&#45;&#45;action&#45;96</title>
<path fill="none" stroke="black" d="M2106.23,-289C2115.33,-289 2130.26,-289 2141.92,-289"/>
</g>
<!-- cluster&#45;23&#45;&#45;action&#45;100 -->
<g id="edge24" class="edge">
<title>cluster&#45;23&#45;&#45;action&#45;100</title>
<path fill="none" stroke="black" d="M2232.23,-235C2241.33,-235 2256.26,-235 2267.92,-235"/>
</g>
<!-- cluster&#45;24&#45;&#45;action&#45;104 -->
<g id="edge25" class="edge">
<title>cluster&#45;24&#45;&#45;action&#45;104</title>
<path fill="none" stroke="black" d="M2358.23,-181C2367.33,-181 2382.26,-181 2393.92,-181"/>
</g>
<!-- cluster&#45;25&#45;&#45;action&#45;108 -->
<g id="edge26" class="edge">
<title>cluster&#45;25&#45;&#45;action&#45;108</title>
<path fill="none" stroke="black" d="M2736.23,-180C2745.33,-180 2760.26,-180 2771.92,-180"/>
</g>
<!-- cluster&#45;26&#45;&#45;action&#45;112 -->
<g id="edge27" class="edge">
<title>cluster&#45;26&#45;&#45;action&#45;112</title>
<path fill="none" stroke="black" d="M2862.23,-126C2871.33,-126 2886.26,-126 2897.92,-126"/>
</g>
<!-- cluster&#45;27&#45;&#45;action&#45;116 -->
<g id="edge28" class="edge">
<title>cluster&#45;27&#45;&#45;action&#45;116</title>
<path fill="none" stroke="black" d="M2484.23,-127C2493.33,-127 2508.26,-127 2519.92,-127"/>
</g>
<!-- cluster&#45;28&#45;&#45;action&#45;120 -->
<g id="edge29" class="edge">
<title>cluster&#45;28&#45;&#45;action&#45;120</title>
<path fill="none" stroke="black" d="M2610.23,-73C2619.33,-73 2634.26,-73 2645.92,-73"/>
</g>
<!-- cluster&#45;29&#45;&#45;action&#45;124 -->
<g id="edge30" class="edge">
<title>cluster&#45;29&#45;&#45;action&#45;124</title>
<path fill="none" stroke="black" d="M2736.23,-72C2745.33,-72 2760.26,-72 2771.92,-72"/>
</g>
<!-- cluster&#45;30&#45;&#45;action&#45;128 -->
<g id="edge31" class="edge">
<title>cluster&#45;30&#45;&#45;action&#45;128</title>
<path fill="none" stroke="black" d="M2862.23,-72C2871.33,-72 2886.26,-72 2897.92,-72"/>
</g>
</g>
</svg>
