<?xml version="1.0" encoding="UTF-8" standalone="no"?>
<!DOCTYPE svg PUBLIC "-//W3C//DTD SVG 1.1//EN"
 "http://www.w3.org/Graphics/SVG/1.1/DTD/svg11.dtd">
<!-- Generated by graphviz version 2.43.0 (0)
 -->
<!-- Title: g Pages: 1 -->
<svg width="2454pt" height="842pt"
 viewBox="0.00 0.00 2454.00 842.00" xmlns="http://www.w3.org/2000/svg" xmlns:xlink="http://www.w3.org/1999/xlink">
<g id="graph0" class="graph" transform="scale(1 1) rotate(0) translate(4 838)">
<title>g</title>
<polygon fill="white" stroke="transparent" points="-4,4 -4,-838 2450,-838 2450,4 -4,4"/>
<g id="clust1" class="cluster">
<title>cluster_actionlib</title>
<polygon fill="none" stroke="black" points="2386,-46 2386,-206 2438,-206 2438,-46 2386,-46"/>
</g>
<!-- action&#45;29 -->
<g id="node1" class="node">
<title>action&#45;29</title>
<polygon fill="white" stroke="black" stroke-width="4" points="2430,-198 2394,-198 2394,-162 2430,-162 2430,-198"/>
</g>
<!-- action&#45;104 -->
<g id="node2" class="node">
<title>action&#45;104</title>
<polygon fill="white" stroke="black" stroke-width="4" points="2430,-144 2394,-144 2394,-108 2430,-108 2430,-144"/>
</g>
<!-- action&#45;112 -->
<g id="node3" class="node">
<title>action&#45;112</title>
<polygon fill="#008000" stroke="black" stroke-width="4" points="2430,-90 2394,-90 2394,-54 2430,-54 2430,-90"/>
</g>
<!-- action&#45;1 -->
<g id="node4" class="node">
<title>action&#45;1</title>
<polygon fill="white" stroke="black" points="36,-834 0,-834 0,-798 36,-798 36,-834"/>
</g>
<!-- cluster&#45;0 -->
<g id="node58" class="node">
<title>cluster&#45;0</title>
<polygon fill="black" stroke="black" stroke-width="0" points="90,-798 72,-798 72,-780 90,-780 90,-798"/>
</g>
<!-- action&#45;1&#45;&#45;cluster&#45;0 -->
<g id="edge28" class="edge">
<title>action&#45;1&#45;&#45;cluster&#45;0</title>
<path fill="none" stroke="black" d="M36.32,-808.34C48.01,-803.16 62.91,-796.57 71.94,-792.57"/>
</g>
<!-- action&#45;3 -->
<g id="node5" class="node">
<title>action&#45;3</title>
<polygon fill="white" stroke="black" points="36,-780 0,-780 0,-744 36,-744 36,-780"/>
</g>
<!-- action&#45;3&#45;&#45;cluster&#45;0 -->
<g id="edge29" class="edge">
<title>action&#45;3&#45;&#45;cluster&#45;0</title>
<path fill="none" stroke="black" d="M36.32,-769.66C48.01,-774.84 62.91,-781.43 71.94,-785.43"/>
</g>
<!-- action&#45;4 -->
<g id="node6" class="node">
<title>action&#45;4</title>
<polygon fill="white" stroke="black" points="162,-807 126,-807 126,-771 162,-771 162,-807"/>
</g>
<!-- cluster&#45;1 -->
<g id="node59" class="node">
<title>cluster&#45;1</title>
<polygon fill="black" stroke="black" stroke-width="0" points="216,-771 198,-771 198,-753 216,-753 216,-771"/>
</g>
<!-- action&#45;4&#45;&#45;cluster&#45;1 -->
<g id="edge30" class="edge">
<title>action&#45;4&#45;&#45;cluster&#45;1</title>
<path fill="none" stroke="black" d="M162.32,-781.34C174.01,-776.16 188.91,-769.57 197.94,-765.57"/>
</g>
<!-- action&#45;7 -->
<g id="node7" class="node">
<title>action&#45;7</title>
<polygon fill="white" stroke="black" points="162,-753 126,-753 126,-717 162,-717 162,-753"/>
</g>
<!-- action&#45;7&#45;&#45;cluster&#45;1 -->
<g id="edge31" class="edge">
<title>action&#45;7&#45;&#45;cluster&#45;1</title>
<path fill="none" stroke="black" d="M162.32,-742.66C174.01,-747.84 188.91,-754.43 197.94,-758.43"/>
</g>
<!-- action&#45;8 -->
<g id="node8" class="node">
<title>action&#45;8</title>
<polygon fill="white" stroke="black" points="288,-780 252,-780 252,-744 288,-744 288,-780"/>
</g>
<!-- cluster&#45;4 -->
<g id="node62" class="node">
<title>cluster&#45;4</title>
<polygon fill="black" stroke="black" stroke-width="0" points="342,-744 324,-744 324,-726 342,-726 342,-744"/>
</g>
<!-- action&#45;8&#45;&#45;cluster&#45;4 -->
<g id="edge36" class="edge">
<title>action&#45;8&#45;&#45;cluster&#45;4</title>
<path fill="none" stroke="black" d="M288.32,-754.34C300.01,-749.16 314.91,-742.57 323.94,-738.57"/>
</g>
<!-- action&#45;11 -->
<g id="node9" class="node">
<title>action&#45;11</title>
<polygon fill="white" stroke="black" points="1422,-402 1386,-402 1386,-366 1422,-366 1422,-402"/>
</g>
<!-- cluster&#45;2 -->
<g id="node60" class="node">
<title>cluster&#45;2</title>
<polygon fill="black" stroke="black" stroke-width="0" points="1476,-352 1458,-352 1458,-334 1476,-334 1476,-352"/>
</g>
<!-- action&#45;11&#45;&#45;cluster&#45;2 -->
<g id="edge32" class="edge">
<title>action&#45;11&#45;&#45;cluster&#45;2</title>
<path fill="none" stroke="black" d="M1422.32,-372.36C1434.01,-364.5 1448.91,-354.49 1457.94,-348.42"/>
</g>
<!-- action&#45;13 -->
<g id="node10" class="node">
<title>action&#45;13</title>
<polygon fill="white" stroke="black" points="1422,-348 1386,-348 1386,-312 1422,-312 1422,-348"/>
</g>
<!-- action&#45;13&#45;&#45;cluster&#45;2 -->
<g id="edge33" class="edge">
<title>action&#45;13&#45;&#45;cluster&#45;2</title>
<path fill="none" stroke="black" d="M1422.32,-333.69C1434.01,-336.18 1448.91,-339.36 1457.94,-341.28"/>
</g>
<!-- action&#45;14 -->
<g id="node11" class="node">
<title>action&#45;14</title>
<polygon fill="white" stroke="black" points="1548,-361 1512,-361 1512,-325 1548,-325 1548,-361"/>
</g>
<!-- cluster&#45;3 -->
<g id="node61" class="node">
<title>cluster&#45;3</title>
<polygon fill="black" stroke="black" stroke-width="0" points="1602,-298 1584,-298 1584,-280 1602,-280 1602,-298"/>
</g>
<!-- action&#45;14&#45;&#45;cluster&#45;3 -->
<g id="edge34" class="edge">
<title>action&#45;14&#45;&#45;cluster&#45;3</title>
<path fill="none" stroke="black" d="M1548.32,-327.67C1560.01,-317.32 1574.91,-304.13 1583.94,-296.14"/>
</g>
<!-- action&#45;17 -->
<g id="node12" class="node">
<title>action&#45;17</title>
<polygon fill="white" stroke="black" points="1548,-307 1512,-307 1512,-271 1548,-271 1548,-307"/>
</g>
<!-- action&#45;17&#45;&#45;cluster&#45;3 -->
<g id="edge35" class="edge">
<title>action&#45;17&#45;&#45;cluster&#45;3</title>
<path fill="none" stroke="black" d="M1548.32,-289C1560.01,-289 1574.91,-289 1583.94,-289"/>
</g>
<!-- action&#45;18 -->
<g id="node13" class="node">
<title>action&#45;18</title>
<polygon fill="white" stroke="black" points="1674,-307 1638,-307 1638,-271 1674,-271 1674,-307"/>
</g>
<!-- cluster&#45;13 -->
<g id="node71" class="node">
<title>cluster&#45;13</title>
<polygon fill="black" stroke="black" stroke-width="0" points="1728,-244 1710,-244 1710,-226 1728,-226 1728,-244"/>
</g>
<!-- action&#45;18&#45;&#45;cluster&#45;13 -->
<g id="edge54" class="edge">
<title>action&#45;18&#45;&#45;cluster&#45;13</title>
<path fill="none" stroke="black" d="M1674.32,-273.67C1686.01,-263.32 1700.91,-250.13 1709.94,-242.14"/>
</g>
<!-- action&#45;21 -->
<g id="node14" class="node">
<title>action&#45;21</title>
<polygon fill="white" stroke="black" points="288,-726 252,-726 252,-690 288,-690 288,-726"/>
</g>
<!-- action&#45;21&#45;&#45;cluster&#45;4 -->
<g id="edge37" class="edge">
<title>action&#45;21&#45;&#45;cluster&#45;4</title>
<path fill="none" stroke="black" d="M288.32,-715.66C300.01,-720.84 314.91,-727.43 323.94,-731.43"/>
</g>
<!-- action&#45;22 -->
<g id="node15" class="node">
<title>action&#45;22</title>
<polygon fill="white" stroke="black" points="414,-753 378,-753 378,-717 414,-717 414,-753"/>
</g>
<!-- cluster&#45;5 -->
<g id="node63" class="node">
<title>cluster&#45;5</title>
<polygon fill="black" stroke="black" stroke-width="0" points="468,-717 450,-717 450,-699 468,-699 468,-717"/>
</g>
<!-- action&#45;22&#45;&#45;cluster&#45;5 -->
<g id="edge38" class="edge">
<title>action&#45;22&#45;&#45;cluster&#45;5</title>
<path fill="none" stroke="black" d="M414.32,-727.34C426.01,-722.16 440.91,-715.57 449.94,-711.57"/>
</g>
<!-- action&#45;25 -->
<g id="node16" class="node">
<title>action&#45;25</title>
<polygon fill="white" stroke="black" points="414,-699 378,-699 378,-663 414,-663 414,-699"/>
</g>
<!-- action&#45;25&#45;&#45;cluster&#45;5 -->
<g id="edge39" class="edge">
<title>action&#45;25&#45;&#45;cluster&#45;5</title>
<path fill="none" stroke="black" d="M414.32,-688.66C426.01,-693.84 440.91,-700.43 449.94,-704.43"/>
</g>
<!-- action&#45;26 -->
<g id="node17" class="node">
<title>action&#45;26</title>
<polygon fill="white" stroke="black" points="540,-726 504,-726 504,-690 540,-690 540,-726"/>
</g>
<!-- cluster&#45;6 -->
<g id="node64" class="node">
<title>cluster&#45;6</title>
<polygon fill="black" stroke="black" stroke-width="0" points="594,-690 576,-690 576,-672 594,-672 594,-690"/>
</g>
<!-- action&#45;26&#45;&#45;cluster&#45;6 -->
<g id="edge40" class="edge">
<title>action&#45;26&#45;&#45;cluster&#45;6</title>
<path fill="none" stroke="black" d="M540.32,-700.34C552.01,-695.16 566.91,-688.57 575.94,-684.57"/>
</g>
<!-- action&#45;31 -->
<g id="node18" class="node">
<title>action&#45;31</title>
<polygon fill="white" stroke="black" points="540,-672 504,-672 504,-636 540,-636 540,-672"/>
</g>
<!-- action&#45;31&#45;&#45;cluster&#45;6 -->
<g id="edge41" class="edge">
<title>action&#45;31&#45;&#45;cluster&#45;6</title>
<path fill="none" stroke="black" d="M540.32,-661.66C552.01,-666.84 566.91,-673.43 575.94,-677.43"/>
</g>
<!-- action&#45;32 -->
<g id="node19" class="node">
<title>action&#45;32</title>
<polygon fill="white" stroke="black" points="666,-699 630,-699 630,-663 666,-663 666,-699"/>
</g>
<!-- cluster&#45;7 -->
<g id="node65" class="node">
<title>cluster&#45;7</title>
<polygon fill="black" stroke="black" stroke-width="0" points="720,-663 702,-663 702,-645 720,-645 720,-663"/>
</g>
<!-- action&#45;32&#45;&#45;cluster&#45;7 -->
<g id="edge42" class="edge">
<title>action&#45;32&#45;&#45;cluster&#45;7</title>
<path fill="none" stroke="black" d="M666.32,-673.34C678.01,-668.16 692.91,-661.57 701.94,-657.57"/>
</g>
<!-- action&#45;35 -->
<g id="node20" class="node">
<title>action&#45;35</title>
<polygon fill="white" stroke="black" points="666,-645 630,-645 630,-609 666,-609 666,-645"/>
</g>
<!-- action&#45;35&#45;&#45;cluster&#45;7 -->
<g id="edge43" class="edge">
<title>action&#45;35&#45;&#45;cluster&#45;7</title>
<path fill="none" stroke="black" d="M666.32,-634.66C678.01,-639.84 692.91,-646.43 701.94,-650.43"/>
</g>
<!-- action&#45;36 -->
<g id="node21" class="node">
<title>action&#45;36</title>
<polygon fill="white" stroke="black" points="792,-672 756,-672 756,-636 792,-636 792,-672"/>
</g>
<!-- cluster&#45;8 -->
<g id="node66" class="node">
<title>cluster&#45;8</title>
<polygon fill="black" stroke="black" stroke-width="0" points="846,-636 828,-636 828,-618 846,-618 846,-636"/>
</g>
<!-- action&#45;36&#45;&#45;cluster&#45;8 -->
<g id="edge44" class="edge">
<title>action&#45;36&#45;&#45;cluster&#45;8</title>
<path fill="none" stroke="black" d="M792.32,-646.34C804.01,-641.16 818.91,-634.57 827.94,-630.57"/>
</g>
<!-- action&#45;39 -->
<g id="node22" class="node">
<title>action&#45;39</title>
<polygon fill="white" stroke="black" points="792,-618 756,-618 756,-582 792,-582 792,-618"/>
</g>
<!-- action&#45;39&#45;&#45;cluster&#45;8 -->
<g id="edge45" class="edge">
<title>action&#45;39&#45;&#45;cluster&#45;8</title>
<path fill="none" stroke="black" d="M792.32,-607.66C804.01,-612.84 818.91,-619.43 827.94,-623.43"/>
</g>
<!-- action&#45;40 -->
<g id="node23" class="node">
<title>action&#45;40</title>
<polygon fill="white" stroke="black" points="918,-645 882,-645 882,-609 918,-609 918,-645"/>
</g>
<!-- cluster&#45;9 -->
<g id="node67" class="node">
<title>cluster&#45;9</title>
<polygon fill="black" stroke="black" stroke-width="0" points="972,-609 954,-609 954,-591 972,-591 972,-609"/>
</g>
<!-- action&#45;40&#45;&#45;cluster&#45;9 -->
<g id="edge46" class="edge">
<title>action&#45;40&#45;&#45;cluster&#45;9</title>
<path fill="none" stroke="black" d="M918.32,-619.34C930.01,-614.16 944.91,-607.57 953.94,-603.57"/>
</g>
<!-- action&#45;43 -->
<g id="node24" class="node">
<title>action&#45;43</title>
<polygon fill="white" stroke="black" points="918,-591 882,-591 882,-555 918,-555 918,-591"/>
</g>
<!-- action&#45;43&#45;&#45;cluster&#45;9 -->
<g id="edge47" class="edge">
<title>action&#45;43&#45;&#45;cluster&#45;9</title>
<path fill="none" stroke="black" d="M918.32,-580.66C930.01,-585.84 944.91,-592.43 953.94,-596.43"/>
</g>
<!-- action&#45;44 -->
<g id="node25" class="node">
<title>action&#45;44</title>
<polygon fill="white" stroke="black" points="1044,-618 1008,-618 1008,-582 1044,-582 1044,-618"/>
</g>
<!-- cluster&#45;10 -->
<g id="node68" class="node">
<title>cluster&#45;10</title>
<polygon fill="black" stroke="black" stroke-width="0" points="1098,-582 1080,-582 1080,-564 1098,-564 1098,-582"/>
</g>
<!-- action&#45;44&#45;&#45;cluster&#45;10 -->
<g id="edge48" class="edge">
<title>action&#45;44&#45;&#45;cluster&#45;10</title>
<path fill="none" stroke="black" d="M1044.32,-592.34C1056.01,-587.16 1070.91,-580.57 1079.94,-576.57"/>
</g>
<!-- action&#45;47 -->
<g id="node26" class="node">
<title>action&#45;47</title>
<polygon fill="white" stroke="black" points="1044,-564 1008,-564 1008,-528 1044,-528 1044,-564"/>
</g>
<!-- action&#45;47&#45;&#45;cluster&#45;10 -->
<g id="edge49" class="edge">
<title>action&#45;47&#45;&#45;cluster&#45;10</title>
<path fill="none" stroke="black" d="M1044.32,-553.66C1056.01,-558.84 1070.91,-565.43 1079.94,-569.43"/>
</g>
<!-- action&#45;48 -->
<g id="node27" class="node">
<title>action&#45;48</title>
<polygon fill="white" stroke="black" points="1170,-591 1134,-591 1134,-555 1170,-555 1170,-591"/>
</g>
<!-- cluster&#45;11 -->
<g id="node69" class="node">
<title>cluster&#45;11</title>
<polygon fill="black" stroke="black" stroke-width="0" points="1224,-555 1206,-555 1206,-537 1224,-537 1224,-555"/>
</g>
<!-- action&#45;48&#45;&#45;cluster&#45;11 -->
<g id="edge50" class="edge">
<title>action&#45;48&#45;&#45;cluster&#45;11</title>
<path fill="none" stroke="black" d="M1170.32,-565.34C1182.01,-560.16 1196.91,-553.57 1205.94,-549.57"/>
</g>
<!-- action&#45;51 -->
<g id="node28" class="node">
<title>action&#45;51</title>
<polygon fill="white" stroke="black" points="1170,-537 1134,-537 1134,-501 1170,-501 1170,-537"/>
</g>
<!-- action&#45;51&#45;&#45;cluster&#45;11 -->
<g id="edge51" class="edge">
<title>action&#45;51&#45;&#45;cluster&#45;11</title>
<path fill="none" stroke="black" d="M1170.32,-526.66C1182.01,-531.84 1196.91,-538.43 1205.94,-542.43"/>
</g>
<!-- action&#45;52 -->
<g id="node29" class="node">
<title>action&#45;52</title>
<polygon fill="white" stroke="black" points="1296,-564 1260,-564 1260,-528 1296,-528 1296,-564"/>
</g>
<!-- cluster&#45;12 -->
<g id="node70" class="node">
<title>cluster&#45;12</title>
<polygon fill="black" stroke="black" stroke-width="0" points="1350,-528 1332,-528 1332,-510 1350,-510 1350,-528"/>
</g>
<!-- action&#45;52&#45;&#45;cluster&#45;12 -->
<g id="edge52" class="edge">
<title>action&#45;52&#45;&#45;cluster&#45;12</title>
<path fill="none" stroke="black" d="M1296.32,-538.34C1308.01,-533.16 1322.91,-526.57 1331.94,-522.57"/>
</g>
<!-- action&#45;55 -->
<g id="node30" class="node">
<title>action&#45;55</title>
<polygon fill="white" stroke="black" points="1296,-510 1260,-510 1260,-474 1296,-474 1296,-510"/>
</g>
<!-- action&#45;55&#45;&#45;cluster&#45;12 -->
<g id="edge53" class="edge">
<title>action&#45;55&#45;&#45;cluster&#45;12</title>
<path fill="none" stroke="black" d="M1296.32,-499.66C1308.01,-504.84 1322.91,-511.43 1331.94,-515.43"/>
</g>
<!-- action&#45;56 -->
<g id="node31" class="node">
<title>action&#45;56</title>
<polygon fill="white" stroke="black" points="1422,-537 1386,-537 1386,-501 1422,-501 1422,-537"/>
</g>
<!-- cluster&#45;14 -->
<g id="node72" class="node">
<title>cluster&#45;14</title>
<polygon fill="black" stroke="black" stroke-width="0" points="1476,-484 1458,-484 1458,-466 1476,-466 1476,-484"/>
</g>
<!-- action&#45;56&#45;&#45;cluster&#45;14 -->
<g id="edge56" class="edge">
<title>action&#45;56&#45;&#45;cluster&#45;14</title>
<path fill="none" stroke="black" d="M1422.32,-506.51C1434.01,-498.07 1448.91,-487.33 1457.94,-480.82"/>
</g>
<!-- action&#45;59 -->
<g id="node32" class="node">
<title>action&#45;59</title>
<polygon fill="white" stroke="black" points="1674,-253 1638,-253 1638,-217 1674,-217 1674,-253"/>
</g>
<!-- action&#45;59&#45;&#45;cluster&#45;13 -->
<g id="edge55" class="edge">
<title>action&#45;59&#45;&#45;cluster&#45;13</title>
<path fill="none" stroke="black" d="M1674.32,-235C1686.01,-235 1700.91,-235 1709.94,-235"/>
</g>
<!-- action&#45;60 -->
<g id="node33" class="node">
<title>action&#45;60</title>
<polygon fill="white" stroke="black" points="1800,-253 1764,-253 1764,-217 1800,-217 1800,-253"/>
</g>
<!-- cluster&#45;16 -->
<g id="node74" class="node">
<title>cluster&#45;16</title>
<polygon fill="black" stroke="black" stroke-width="0" points="1854,-190 1836,-190 1836,-172 1854,-172 1854,-190"/>
</g>
<!-- action&#45;60&#45;&#45;cluster&#45;16 -->
<g id="edge60" class="edge">
<title>action&#45;60&#45;&#45;cluster&#45;16</title>
<path fill="none" stroke="black" d="M1800.32,-219.67C1812.01,-209.32 1826.91,-196.13 1835.94,-188.14"/>
</g>
<!-- action&#45;63 -->
<g id="node34" class="node">
<title>action&#45;63</title>
<polygon fill="white" stroke="black" points="1422,-483 1386,-483 1386,-447 1422,-447 1422,-483"/>
</g>
<!-- action&#45;63&#45;&#45;cluster&#45;14 -->
<g id="edge57" class="edge">
<title>action&#45;63&#45;&#45;cluster&#45;14</title>
<path fill="none" stroke="black" d="M1422.32,-467.84C1434.01,-469.76 1448.91,-472.2 1457.94,-473.68"/>
</g>
<!-- action&#45;64 -->
<g id="node35" class="node">
<title>action&#45;64</title>
<polygon fill="white" stroke="black" points="1548,-493 1512,-493 1512,-457 1548,-457 1548,-493"/>
</g>
<!-- cluster&#45;15 -->
<g id="node73" class="node">
<title>cluster&#45;15</title>
<polygon fill="black" stroke="black" stroke-width="0" points="1602,-435 1584,-435 1584,-417 1602,-417 1602,-435"/>
</g>
<!-- action&#45;64&#45;&#45;cluster&#45;15 -->
<g id="edge58" class="edge">
<title>action&#45;64&#45;&#45;cluster&#45;15</title>
<path fill="none" stroke="black" d="M1548.32,-461.09C1560.01,-451.7 1574.91,-439.73 1583.94,-432.48"/>
</g>
<!-- action&#45;67 -->
<g id="node36" class="node">
<title>action&#45;67</title>
<polygon fill="white" stroke="black" points="1548,-439 1512,-439 1512,-403 1548,-403 1548,-439"/>
</g>
<!-- action&#45;67&#45;&#45;cluster&#45;15 -->
<g id="edge59" class="edge">
<title>action&#45;67&#45;&#45;cluster&#45;15</title>
<path fill="none" stroke="black" d="M1548.32,-422.42C1560.01,-423.38 1574.91,-424.6 1583.94,-425.34"/>
</g>
<!-- action&#45;68 -->
<g id="node37" class="node">
<title>action&#45;68</title>
<polygon fill="white" stroke="black" points="1674,-444 1638,-444 1638,-408 1674,-408 1674,-444"/>
</g>
<!-- cluster&#45;18 -->
<g id="node76" class="node">
<title>cluster&#45;18</title>
<polygon fill="black" stroke="black" stroke-width="0" points="1728,-383 1710,-383 1710,-365 1728,-365 1728,-383"/>
</g>
<!-- action&#45;68&#45;&#45;cluster&#45;18 -->
<g id="edge64" class="edge">
<title>action&#45;68&#45;&#45;cluster&#45;18</title>
<path fill="none" stroke="black" d="M1674.32,-411.24C1686.01,-401.27 1700.91,-388.57 1709.94,-380.88"/>
</g>
<!-- action&#45;71 -->
<g id="node38" class="node">
<title>action&#45;71</title>
<polygon fill="white" stroke="black" points="1800,-199 1764,-199 1764,-163 1800,-163 1800,-199"/>
</g>
<!-- action&#45;71&#45;&#45;cluster&#45;16 -->
<g id="edge61" class="edge">
<title>action&#45;71&#45;&#45;cluster&#45;16</title>
<path fill="none" stroke="black" d="M1800.32,-181C1812.01,-181 1826.91,-181 1835.94,-181"/>
</g>
<!-- action&#45;72 -->
<g id="node39" class="node">
<title>action&#45;72</title>
<polygon fill="white" stroke="black" points="1926,-199 1890,-199 1890,-163 1926,-163 1926,-199"/>
</g>
<!-- cluster&#45;17 -->
<g id="node75" class="node">
<title>cluster&#45;17</title>
<polygon fill="black" stroke="black" stroke-width="0" points="1980,-136 1962,-136 1962,-118 1980,-118 1980,-136"/>
</g>
<!-- action&#45;72&#45;&#45;cluster&#45;17 -->
<g id="edge62" class="edge">
<title>action&#45;72&#45;&#45;cluster&#45;17</title>
<path fill="none" stroke="black" d="M1926.32,-165.67C1938.01,-155.32 1952.91,-142.13 1961.94,-134.14"/>
</g>
<!-- action&#45;75 -->
<g id="node40" class="node">
<title>action&#45;75</title>
<polygon fill="white" stroke="black" points="1926,-145 1890,-145 1890,-109 1926,-109 1926,-145"/>
</g>
<!-- action&#45;75&#45;&#45;cluster&#45;17 -->
<g id="edge63" class="edge">
<title>action&#45;75&#45;&#45;cluster&#45;17</title>
<path fill="none" stroke="black" d="M1926.32,-127C1938.01,-127 1952.91,-127 1961.94,-127"/>
</g>
<!-- action&#45;76 -->
<g id="node41" class="node">
<title>action&#45;76</title>
<polygon fill="white" stroke="black" points="2052,-145 2016,-145 2016,-109 2052,-109 2052,-145"/>
</g>
<!-- cluster&#45;20 -->
<g id="node78" class="node">
<title>cluster&#45;20</title>
<polygon fill="black" stroke="black" stroke-width="0" points="2106,-82 2088,-82 2088,-64 2106,-64 2106,-82"/>
</g>
<!-- action&#45;76&#45;&#45;cluster&#45;20 -->
<g id="edge68" class="edge">
<title>action&#45;76&#45;&#45;cluster&#45;20</title>
<path fill="none" stroke="black" d="M2052.32,-111.67C2064.01,-101.32 2078.91,-88.13 2087.94,-80.14"/>
</g>
<!-- action&#45;79 -->
<g id="node42" class="node">
<title>action&#45;79</title>
<polygon fill="white" stroke="black" points="1674,-390 1638,-390 1638,-354 1674,-354 1674,-390"/>
</g>
<!-- action&#45;79&#45;&#45;cluster&#45;18 -->
<g id="edge65" class="edge">
<title>action&#45;79&#45;&#45;cluster&#45;18</title>
<path fill="none" stroke="black" d="M1674.32,-372.57C1686.01,-372.95 1700.91,-373.44 1709.94,-373.74"/>
</g>
<!-- action&#45;80 -->
<g id="node43" class="node">
<title>action&#45;80</title>
<polygon fill="white" stroke="black" points="1800,-392 1764,-392 1764,-356 1800,-356 1800,-392"/>
</g>
<!-- cluster&#45;19 -->
<g id="node77" class="node">
<title>cluster&#45;19</title>
<polygon fill="black" stroke="black" stroke-width="0" points="1854,-330 1836,-330 1836,-312 1854,-312 1854,-330"/>
</g>
<!-- action&#45;80&#45;&#45;cluster&#45;19 -->
<g id="edge66" class="edge">
<title>action&#45;80&#45;&#45;cluster&#45;19</title>
<path fill="none" stroke="black" d="M1800.32,-358.95C1812.01,-348.79 1826.91,-335.85 1835.94,-328.01"/>
</g>
<!-- action&#45;83 -->
<g id="node44" class="node">
<title>action&#45;83</title>
<polygon fill="white" stroke="black" points="1800,-338 1764,-338 1764,-302 1800,-302 1800,-338"/>
</g>
<!-- action&#45;83&#45;&#45;cluster&#45;19 -->
<g id="edge67" class="edge">
<title>action&#45;83&#45;&#45;cluster&#45;19</title>
<path fill="none" stroke="black" d="M1800.32,-320.28C1812.01,-320.48 1826.91,-320.72 1835.94,-320.87"/>
</g>
<!-- action&#45;84 -->
<g id="node45" class="node">
<title>action&#45;84</title>
<polygon fill="white" stroke="black" points="1926,-339 1890,-339 1890,-303 1926,-303 1926,-339"/>
</g>
<!-- cluster&#45;21 -->
<g id="node79" class="node">
<title>cluster&#45;21</title>
<polygon fill="black" stroke="black" stroke-width="0" points="1980,-277 1962,-277 1962,-259 1980,-259 1980,-277"/>
</g>
<!-- action&#45;84&#45;&#45;cluster&#45;21 -->
<g id="edge70" class="edge">
<title>action&#45;84&#45;&#45;cluster&#45;21</title>
<path fill="none" stroke="black" d="M1926.32,-305.95C1938.01,-295.79 1952.91,-282.85 1961.94,-275.01"/>
</g>
<!-- action&#45;87 -->
<g id="node46" class="node">
<title>action&#45;87</title>
<polygon fill="white" stroke="black" points="2052,-91 2016,-91 2016,-55 2052,-55 2052,-91"/>
</g>
<!-- action&#45;87&#45;&#45;cluster&#45;20 -->
<g id="edge69" class="edge">
<title>action&#45;87&#45;&#45;cluster&#45;20</title>
<path fill="none" stroke="black" d="M2052.32,-73C2064.01,-73 2078.91,-73 2087.94,-73"/>
</g>
<!-- action&#45;88 -->
<g id="node47" class="node">
<title>action&#45;88</title>
<polygon fill="white" stroke="black" points="2178,-91 2142,-91 2142,-55 2178,-55 2178,-91"/>
</g>
<!-- cluster&#45;25 -->
<g id="node83" class="node">
<title>cluster&#45;25</title>
<polygon fill="black" stroke="black" stroke-width="0" points="2232,-81 2214,-81 2214,-63 2232,-63 2232,-81"/>
</g>
<!-- action&#45;88&#45;&#45;cluster&#45;25 -->
<g id="edge78" class="edge">
<title>action&#45;88&#45;&#45;cluster&#45;25</title>
<path fill="none" stroke="black" d="M2178.32,-72.72C2190.01,-72.52 2204.91,-72.28 2213.94,-72.13"/>
</g>
<!-- action&#45;91 -->
<g id="node48" class="node">
<title>action&#45;91</title>
<polygon fill="white" stroke="black" points="1926,-285 1890,-285 1890,-249 1926,-249 1926,-285"/>
</g>
<!-- action&#45;91&#45;&#45;cluster&#45;21 -->
<g id="edge71" class="edge">
<title>action&#45;91&#45;&#45;cluster&#45;21</title>
<path fill="none" stroke="black" d="M1926.32,-267.28C1938.01,-267.48 1952.91,-267.72 1961.94,-267.87"/>
</g>
<!-- action&#45;92 -->
<g id="node49" class="node">
<title>action&#45;92</title>
<polygon fill="white" stroke="black" points="2052,-286 2016,-286 2016,-250 2052,-250 2052,-286"/>
</g>
<!-- cluster&#45;22 -->
<g id="node80" class="node">
<title>cluster&#45;22</title>
<polygon fill="black" stroke="black" stroke-width="0" points="2106,-223 2088,-223 2088,-205 2106,-205 2106,-223"/>
</g>
<!-- action&#45;92&#45;&#45;cluster&#45;22 -->
<g id="edge72" class="edge">
<title>action&#45;92&#45;&#45;cluster&#45;22</title>
<path fill="none" stroke="black" d="M2052.32,-252.67C2064.01,-242.32 2078.91,-229.13 2087.94,-221.14"/>
</g>
<!-- action&#45;95 -->
<g id="node50" class="node">
<title>action&#45;95</title>
<polygon fill="white" stroke="black" points="2052,-232 2016,-232 2016,-196 2052,-196 2052,-232"/>
</g>
<!-- action&#45;95&#45;&#45;cluster&#45;22 -->
<g id="edge73" class="edge">
<title>action&#45;95&#45;&#45;cluster&#45;22</title>
<path fill="none" stroke="black" d="M2052.32,-214C2064.01,-214 2078.91,-214 2087.94,-214"/>
</g>
<!-- action&#45;96 -->
<g id="node51" class="node">
<title>action&#45;96</title>
<polygon fill="white" stroke="black" points="2178,-232 2142,-232 2142,-196 2178,-196 2178,-232"/>
</g>
<!-- cluster&#45;23 -->
<g id="node81" class="node">
<title>cluster&#45;23</title>
<polygon fill="black" stroke="black" stroke-width="0" points="2232,-189 2214,-189 2214,-171 2232,-171 2232,-189"/>
</g>
<!-- action&#45;96&#45;&#45;cluster&#45;23 -->
<g id="edge74" class="edge">
<title>action&#45;96&#45;&#45;cluster&#45;23</title>
<path fill="none" stroke="black" d="M2178.32,-204.35C2190.01,-197.83 2204.91,-189.53 2213.94,-184.5"/>
</g>
<!-- action&#45;99 -->
<g id="node52" class="node">
<title>action&#45;99</title>
<polygon fill="white" stroke="black" points="2178,-178 2142,-178 2142,-142 2178,-142 2178,-178"/>
</g>
<!-- action&#45;99&#45;&#45;cluster&#45;23 -->
<g id="edge75" class="edge">
<title>action&#45;99&#45;&#45;cluster&#45;23</title>
<path fill="none" stroke="black" d="M2178.32,-165.68C2190.01,-169.51 2204.91,-174.4 2213.94,-177.36"/>
</g>
<!-- action&#45;100 -->
<g id="node53" class="node">
<title>action&#45;100</title>
<polygon fill="white" stroke="black" points="2304,-198 2268,-198 2268,-162 2304,-162 2304,-198"/>
</g>
<!-- cluster&#45;24 -->
<g id="node82" class="node">
<title>cluster&#45;24</title>
<polygon fill="black" stroke="black" stroke-width="0" points="2358,-135 2340,-135 2340,-117 2358,-117 2358,-135"/>
</g>
<!-- action&#45;100&#45;&#45;cluster&#45;24 -->
<g id="edge76" class="edge">
<title>action&#45;100&#45;&#45;cluster&#45;24</title>
<path fill="none" stroke="black" d="M2304.32,-164.67C2316.01,-154.32 2330.91,-141.13 2339.94,-133.14"/>
</g>
<!-- action&#45;103 -->
<g id="node54" class="node">
<title>action&#45;103</title>
<polygon fill="white" stroke="black" points="2304,-144 2268,-144 2268,-108 2304,-108 2304,-144"/>
</g>
<!-- action&#45;103&#45;&#45;cluster&#45;24 -->
<g id="edge77" class="edge">
<title>action&#45;103&#45;&#45;cluster&#45;24</title>
<path fill="none" stroke="black" d="M2304.32,-126C2316.01,-126 2330.91,-126 2339.94,-126"/>
</g>
<!-- action&#45;107 -->
<g id="node55" class="node">
<title>action&#45;107</title>
<polygon fill="white" stroke="black" points="2178,-37 2142,-37 2142,-1 2178,-1 2178,-37"/>
</g>
<!-- action&#45;107&#45;&#45;cluster&#45;25 -->
<g id="edge79" class="edge">
<title>action&#45;107&#45;&#45;cluster&#45;25</title>
<path fill="none" stroke="black" d="M2178.32,-34.05C2190.01,-44.21 2204.91,-57.15 2213.94,-64.99"/>
</g>
<!-- action&#45;108 -->
<g id="node56" class="node">
<title>action&#45;108</title>
<polygon fill="#c9211e" stroke="black" points="2304,-90 2268,-90 2268,-54 2304,-54 2304,-90"/>
</g>
<!-- cluster&#45;26 -->
<g id="node84" class="node">
<title>cluster&#45;26</title>
<polygon fill="black" stroke="black" stroke-width="0" points="2358,-81 2340,-81 2340,-63 2358,-63 2358,-81"/>
</g>
<!-- action&#45;108&#45;&#45;cluster&#45;26 -->
<g id="edge80" class="edge">
<title>action&#45;108&#45;&#45;cluster&#45;26</title>
<path fill="none" stroke="black" d="M2304.32,-72C2316.01,-72 2330.91,-72 2339.94,-72"/>
</g>
<!-- action&#45;111 -->
<g id="node57" class="node">
<title>action&#45;111</title>
<polygon fill="#00008b" stroke="black" points="2304,-36 2268,-36 2268,0 2304,0 2304,-36"/>
</g>
<!-- action&#45;111&#45;&#45;cluster&#45;26 -->
<g id="edge81" class="edge">
<title>action&#45;111&#45;&#45;cluster&#45;26</title>
<path fill="none" stroke="black" d="M2304.32,-33.33C2316.01,-43.68 2330.91,-56.87 2339.94,-64.86"/>
</g>
<!-- cluster&#45;0&#45;&#45;action&#45;4 -->
<g id="edge1" class="edge">
<title>cluster&#45;0&#45;&#45;action&#45;4</title>
<path fill="none" stroke="black" d="M90.23,-789C99.33,-789 114.26,-789 125.92,-789"/>
</g>
<!-- cluster&#45;1&#45;&#45;action&#45;8 -->
<g id="edge2" class="edge">
<title>cluster&#45;1&#45;&#45;action&#45;8</title>
<path fill="none" stroke="black" d="M216.23,-762C225.33,-762 240.26,-762 251.92,-762"/>
</g>
<!-- cluster&#45;2&#45;&#45;action&#45;14 -->
<g id="edge3" class="edge">
<title>cluster&#45;2&#45;&#45;action&#45;14</title>
<path fill="none" stroke="black" d="M1476.23,-343C1485.33,-343 1500.26,-343 1511.92,-343"/>
</g>
<!-- cluster&#45;3&#45;&#45;action&#45;18 -->
<g id="edge4" class="edge">
<title>cluster&#45;3&#45;&#45;action&#45;18</title>
<path fill="none" stroke="black" d="M1602.23,-289C1611.33,-289 1626.26,-289 1637.92,-289"/>
</g>
<!-- cluster&#45;4&#45;&#45;action&#45;22 -->
<g id="edge5" class="edge">
<title>cluster&#45;4&#45;&#45;action&#45;22</title>
<path fill="none" stroke="black" d="M342.23,-735C351.33,-735 366.26,-735 377.92,-735"/>
</g>
<!-- cluster&#45;5&#45;&#45;action&#45;26 -->
<g id="edge6" class="edge">
<title>cluster&#45;5&#45;&#45;action&#45;26</title>
<path fill="none" stroke="black" d="M468.23,-708C477.33,-708 492.26,-708 503.92,-708"/>
</g>
<!-- cluster&#45;6&#45;&#45;action&#45;32 -->
<g id="edge7" class="edge">
<title>cluster&#45;6&#45;&#45;action&#45;32</title>
<path fill="none" stroke="black" d="M594.23,-681C603.33,-681 618.26,-681 629.92,-681"/>
</g>
<!-- cluster&#45;7&#45;&#45;action&#45;36 -->
<g id="edge8" class="edge">
<title>cluster&#45;7&#45;&#45;action&#45;36</title>
<path fill="none" stroke="black" d="M720.23,-654C729.33,-654 744.26,-654 755.92,-654"/>
</g>
<!-- cluster&#45;8&#45;&#45;action&#45;40 -->
<g id="edge9" class="edge">
<title>cluster&#45;8&#45;&#45;action&#45;40</title>
<path fill="none" stroke="black" d="M846.23,-627C855.33,-627 870.26,-627 881.92,-627"/>
</g>
<!-- cluster&#45;9&#45;&#45;action&#45;44 -->
<g id="edge10" class="edge">
<title>cluster&#45;9&#45;&#45;action&#45;44</title>
<path fill="none" stroke="black" d="M972.23,-600C981.33,-600 996.26,-600 1007.92,-600"/>
</g>
<!-- cluster&#45;10&#45;&#45;action&#45;48 -->
<g id="edge11" class="edge">
<title>cluster&#45;10&#45;&#45;action&#45;48</title>
<path fill="none" stroke="black" d="M1098.23,-573C1107.33,-573 1122.26,-573 1133.92,-573"/>
</g>
<!-- cluster&#45;11&#45;&#45;action&#45;52 -->
<g id="edge12" class="edge">
<title>cluster&#45;11&#45;&#45;action&#45;52</title>
<path fill="none" stroke="black" d="M1224.23,-546C1233.33,-546 1248.26,-546 1259.92,-546"/>
</g>
<!-- cluster&#45;12&#45;&#45;action&#45;56 -->
<g id="edge13" class="edge">
<title>cluster&#45;12&#45;&#45;action&#45;56</title>
<path fill="none" stroke="black" d="M1350.23,-519C1359.33,-519 1374.26,-519 1385.92,-519"/>
</g>
<!-- cluster&#45;13&#45;&#45;action&#45;60 -->
<g id="edge14" class="edge">
<title>cluster&#45;13&#45;&#45;action&#45;60</title>
<path fill="none" stroke="black" d="M1728.23,-235C1737.33,-235 1752.26,-235 1763.92,-235"/>
</g>
<!-- cluster&#45;14&#45;&#45;action&#45;64 -->
<g id="edge15" class="edge">
<title>cluster&#45;14&#45;&#45;action&#45;64</title>
<path fill="none" stroke="black" d="M1476.23,-475C1485.33,-475 1500.26,-475 1511.92,-475"/>
</g>
<!-- cluster&#45;15&#45;&#45;action&#45;68 -->
<g id="edge16" class="edge">
<title>cluster&#45;15&#45;&#45;action&#45;68</title>
<path fill="none" stroke="black" d="M1602.23,-426C1611.33,-426 1626.26,-426 1637.92,-426"/>
</g>
<!-- cluster&#45;16&#45;&#45;action&#45;72 -->
<g id="edge17" class="edge">
<title>cluster&#45;16&#45;&#45;action&#45;72</title>
<path fill="none" stroke="black" d="M1854.23,-181C1863.33,-181 1878.26,-181 1889.92,-181"/>
</g>
<!-- cluster&#45;17&#45;&#45;action&#45;76 -->
<g id="edge18" class="edge">
<title>cluster&#45;17&#45;&#45;action&#45;76</title>
<path fill="none" stroke="black" d="M1980.23,-127C1989.33,-127 2004.26,-127 2015.92,-127"/>
</g>
<!-- cluster&#45;18&#45;&#45;action&#45;80 -->
<g id="edge19" class="edge">
<title>cluster&#45;18&#45;&#45;action&#45;80</title>
<path fill="none" stroke="black" d="M1728.23,-374C1737.33,-374 1752.26,-374 1763.92,-374"/>
</g>
<!-- cluster&#45;19&#45;&#45;action&#45;84 -->
<g id="edge20" class="edge">
<title>cluster&#45;19&#45;&#45;action&#45;84</title>
<path fill="none" stroke="black" d="M1854.23,-321C1863.33,-321 1878.26,-321 1889.92,-321"/>
</g>
<!-- cluster&#45;20&#45;&#45;action&#45;88 -->
<g id="edge21" class="edge">
<title>cluster&#45;20&#45;&#45;action&#45;88</title>
<path fill="none" stroke="black" d="M2106.23,-73C2115.33,-73 2130.26,-73 2141.92,-73"/>
</g>
<!-- cluster&#45;21&#45;&#45;action&#45;92 -->
<g id="edge22" class="edge">
<title>cluster&#45;21&#45;&#45;action&#45;92</title>
<path fill="none" stroke="black" d="M1980.23,-268C1989.33,-268 2004.26,-268 2015.92,-268"/>
</g>
<!-- cluster&#45;22&#45;&#45;action&#45;96 -->
<g id="edge23" class="edge">
<title>cluster&#45;22&#45;&#45;action&#45;96</title>
<path fill="none" stroke="black" d="M2106.23,-214C2115.33,-214 2130.26,-214 2141.92,-214"/>
</g>
<!-- cluster&#45;23&#45;&#45;action&#45;100 -->
<g id="edge24" class="edge">
<title>cluster&#45;23&#45;&#45;action&#45;100</title>
<path fill="none" stroke="black" d="M2232.23,-180C2241.33,-180 2256.26,-180 2267.92,-180"/>
</g>
<!-- cluster&#45;24&#45;&#45;action&#45;104 -->
<g id="edge25" class="edge">
<title>cluster&#45;24&#45;&#45;action&#45;104</title>
<path fill="none" stroke="black" d="M2358.23,-126C2367.33,-126 2382.26,-126 2393.92,-126"/>
</g>
<!-- cluster&#45;25&#45;&#45;action&#45;108 -->
<g id="edge26" class="edge">
<title>cluster&#45;25&#45;&#45;action&#45;108</title>
<path fill="none" stroke="black" d="M2232.23,-72C2241.33,-72 2256.26,-72 2267.92,-72"/>
</g>
<!-- cluster&#45;26&#45;&#45;action&#45;112 -->
<g id="edge27" class="edge">
<title>cluster&#45;26&#45;&#45;action&#45;112</title>
<path fill="none" stroke="black" d="M2358.23,-72C2367.33,-72 2382.26,-72 2393.92,-72"/>
</g>
</g>
</svg>
