<?xml version="1.0" encoding="UTF-8" standalone="no"?>
<!DOCTYPE svg PUBLIC "-//W3C//DTD SVG 1.1//EN"
 "http://www.w3.org/Graphics/SVG/1.1/DTD/svg11.dtd">
<!-- Generated by graphviz version 2.43.0 (0)
 -->
<!-- Title: g Pages: 1 -->
<svg width="3084pt" height="842pt"
 viewBox="0.00 0.00 3084.00 842.00" xmlns="http://www.w3.org/2000/svg" xmlns:xlink="http://www.w3.org/1999/xlink">
<g id="graph0" class="graph" transform="scale(1 1) rotate(0) translate(4 838)">
<title>g</title>
<polygon fill="white" stroke="transparent" points="-4,4 -4,-838 3080,-838 3080,4 -4,4"/>
<g id="clust1" class="cluster">
<title>cluster_actionlib</title>
<polygon fill="none" stroke="black" points="3016,-46 3016,-206 3068,-206 3068,-46 3016,-46"/>
</g>
<!-- action&#45;29 -->
<g id="node1" class="node">
<title>action&#45;29</title>
<polygon fill="white" stroke="black" stroke-width="4" points="3060,-198 3024,-198 3024,-162 3060,-162 3060,-198"/>
</g>
<!-- action&#45;112 -->
<g id="node2" class="node">
<title>action&#45;112</title>
<polygon fill="white" stroke="black" stroke-width="4" points="3060,-144 3024,-144 3024,-108 3060,-108 3060,-144"/>
</g>
<!-- action&#45;132 -->
<g id="node3" class="node">
<title>action&#45;132</title>
<polygon fill="#008000" stroke="black" stroke-width="4" points="3060,-90 3024,-90 3024,-54 3060,-54 3060,-90"/>
</g>
<!-- action&#45;1 -->
<g id="node4" class="node">
<title>action&#45;1</title>
<polygon fill="white" stroke="black" points="36,-834 0,-834 0,-798 36,-798 36,-834"/>
</g>
<!-- cluster&#45;0 -->
<g id="node68" class="node">
<title>cluster&#45;0</title>
<polygon fill="black" stroke="black" stroke-width="0" points="90,-798 72,-798 72,-780 90,-780 90,-798"/>
</g>
<!-- action&#45;1&#45;&#45;cluster&#45;0 -->
<g id="edge33" class="edge">
<title>action&#45;1&#45;&#45;cluster&#45;0</title>
<path fill="none" stroke="black" d="M36.32,-808.34C48.01,-803.16 62.91,-796.57 71.94,-792.57"/>
</g>
<!-- action&#45;3 -->
<g id="node5" class="node">
<title>action&#45;3</title>
<polygon fill="white" stroke="black" points="36,-780 0,-780 0,-744 36,-744 36,-780"/>
</g>
<!-- action&#45;3&#45;&#45;cluster&#45;0 -->
<g id="edge34" class="edge">
<title>action&#45;3&#45;&#45;cluster&#45;0</title>
<path fill="none" stroke="black" d="M36.32,-769.66C48.01,-774.84 62.91,-781.43 71.94,-785.43"/>
</g>
<!-- action&#45;4 -->
<g id="node6" class="node">
<title>action&#45;4</title>
<polygon fill="white" stroke="black" points="162,-807 126,-807 126,-771 162,-771 162,-807"/>
</g>
<!-- cluster&#45;1 -->
<g id="node69" class="node">
<title>cluster&#45;1</title>
<polygon fill="black" stroke="black" stroke-width="0" points="216,-771 198,-771 198,-753 216,-753 216,-771"/>
</g>
<!-- action&#45;4&#45;&#45;cluster&#45;1 -->
<g id="edge35" class="edge">
<title>action&#45;4&#45;&#45;cluster&#45;1</title>
<path fill="none" stroke="black" d="M162.32,-781.34C174.01,-776.16 188.91,-769.57 197.94,-765.57"/>
</g>
<!-- action&#45;7 -->
<g id="node7" class="node">
<title>action&#45;7</title>
<polygon fill="white" stroke="black" points="162,-753 126,-753 126,-717 162,-717 162,-753"/>
</g>
<!-- action&#45;7&#45;&#45;cluster&#45;1 -->
<g id="edge36" class="edge">
<title>action&#45;7&#45;&#45;cluster&#45;1</title>
<path fill="none" stroke="black" d="M162.32,-742.66C174.01,-747.84 188.91,-754.43 197.94,-758.43"/>
</g>
<!-- action&#45;8 -->
<g id="node8" class="node">
<title>action&#45;8</title>
<polygon fill="white" stroke="black" points="288,-780 252,-780 252,-744 288,-744 288,-780"/>
</g>
<!-- cluster&#45;4 -->
<g id="node72" class="node">
<title>cluster&#45;4</title>
<polygon fill="black" stroke="black" stroke-width="0" points="342,-744 324,-744 324,-726 342,-726 342,-744"/>
</g>
<!-- action&#45;8&#45;&#45;cluster&#45;4 -->
<g id="edge41" class="edge">
<title>action&#45;8&#45;&#45;cluster&#45;4</title>
<path fill="none" stroke="black" d="M288.32,-754.34C300.01,-749.16 314.91,-742.57 323.94,-738.57"/>
</g>
<!-- action&#45;11 -->
<g id="node9" class="node">
<title>action&#45;11</title>
<polygon fill="white" stroke="black" points="2052,-537 2016,-537 2016,-501 2052,-501 2052,-537"/>
</g>
<!-- cluster&#45;2 -->
<g id="node70" class="node">
<title>cluster&#45;2</title>
<polygon fill="black" stroke="black" stroke-width="0" points="2106,-494 2088,-494 2088,-476 2106,-476 2106,-494"/>
</g>
<!-- action&#45;11&#45;&#45;cluster&#45;2 -->
<g id="edge37" class="edge">
<title>action&#45;11&#45;&#45;cluster&#45;2</title>
<path fill="none" stroke="black" d="M2052.32,-509.35C2064.01,-502.83 2078.91,-494.53 2087.94,-489.5"/>
</g>
<!-- action&#45;13 -->
<g id="node10" class="node">
<title>action&#45;13</title>
<polygon fill="white" stroke="black" points="2052,-483 2016,-483 2016,-447 2052,-447 2052,-483"/>
</g>
<!-- action&#45;13&#45;&#45;cluster&#45;2 -->
<g id="edge38" class="edge">
<title>action&#45;13&#45;&#45;cluster&#45;2</title>
<path fill="none" stroke="black" d="M2052.32,-470.68C2064.01,-474.51 2078.91,-479.4 2087.94,-482.36"/>
</g>
<!-- action&#45;14 -->
<g id="node11" class="node">
<title>action&#45;14</title>
<polygon fill="white" stroke="black" points="2178,-503 2142,-503 2142,-467 2178,-467 2178,-503"/>
</g>
<!-- cluster&#45;3 -->
<g id="node71" class="node">
<title>cluster&#45;3</title>
<polygon fill="black" stroke="black" stroke-width="0" points="2232,-450 2214,-450 2214,-432 2232,-432 2232,-450"/>
</g>
<!-- action&#45;14&#45;&#45;cluster&#45;3 -->
<g id="edge39" class="edge">
<title>action&#45;14&#45;&#45;cluster&#45;3</title>
<path fill="none" stroke="black" d="M2178.32,-472.51C2190.01,-464.07 2204.91,-453.33 2213.94,-446.82"/>
</g>
<!-- action&#45;17 -->
<g id="node12" class="node">
<title>action&#45;17</title>
<polygon fill="white" stroke="black" points="2178,-449 2142,-449 2142,-413 2178,-413 2178,-449"/>
</g>
<!-- action&#45;17&#45;&#45;cluster&#45;3 -->
<g id="edge40" class="edge">
<title>action&#45;17&#45;&#45;cluster&#45;3</title>
<path fill="none" stroke="black" d="M2178.32,-433.84C2190.01,-435.76 2204.91,-438.2 2213.94,-439.68"/>
</g>
<!-- action&#45;18 -->
<g id="node13" class="node">
<title>action&#45;18</title>
<polygon fill="white" stroke="black" points="2304,-459 2268,-459 2268,-423 2304,-423 2304,-459"/>
</g>
<!-- cluster&#45;13 -->
<g id="node81" class="node">
<title>cluster&#45;13</title>
<polygon fill="black" stroke="black" stroke-width="0" points="2358,-401 2340,-401 2340,-383 2358,-383 2358,-401"/>
</g>
<!-- action&#45;18&#45;&#45;cluster&#45;13 -->
<g id="edge59" class="edge">
<title>action&#45;18&#45;&#45;cluster&#45;13</title>
<path fill="none" stroke="black" d="M2304.32,-427.09C2316.01,-417.7 2330.91,-405.73 2339.94,-398.48"/>
</g>
<!-- action&#45;21 -->
<g id="node14" class="node">
<title>action&#45;21</title>
<polygon fill="white" stroke="black" points="288,-726 252,-726 252,-690 288,-690 288,-726"/>
</g>
<!-- action&#45;21&#45;&#45;cluster&#45;4 -->
<g id="edge42" class="edge">
<title>action&#45;21&#45;&#45;cluster&#45;4</title>
<path fill="none" stroke="black" d="M288.32,-715.66C300.01,-720.84 314.91,-727.43 323.94,-731.43"/>
</g>
<!-- action&#45;22 -->
<g id="node15" class="node">
<title>action&#45;22</title>
<polygon fill="white" stroke="black" points="414,-753 378,-753 378,-717 414,-717 414,-753"/>
</g>
<!-- cluster&#45;5 -->
<g id="node73" class="node">
<title>cluster&#45;5</title>
<polygon fill="black" stroke="black" stroke-width="0" points="468,-717 450,-717 450,-699 468,-699 468,-717"/>
</g>
<!-- action&#45;22&#45;&#45;cluster&#45;5 -->
<g id="edge43" class="edge">
<title>action&#45;22&#45;&#45;cluster&#45;5</title>
<path fill="none" stroke="black" d="M414.32,-727.34C426.01,-722.16 440.91,-715.57 449.94,-711.57"/>
</g>
<!-- action&#45;25 -->
<g id="node16" class="node">
<title>action&#45;25</title>
<polygon fill="white" stroke="black" points="414,-699 378,-699 378,-663 414,-663 414,-699"/>
</g>
<!-- action&#45;25&#45;&#45;cluster&#45;5 -->
<g id="edge44" class="edge">
<title>action&#45;25&#45;&#45;cluster&#45;5</title>
<path fill="none" stroke="black" d="M414.32,-688.66C426.01,-693.84 440.91,-700.43 449.94,-704.43"/>
</g>
<!-- action&#45;26 -->
<g id="node17" class="node">
<title>action&#45;26</title>
<polygon fill="white" stroke="black" points="540,-726 504,-726 504,-690 540,-690 540,-726"/>
</g>
<!-- cluster&#45;6 -->
<g id="node74" class="node">
<title>cluster&#45;6</title>
<polygon fill="black" stroke="black" stroke-width="0" points="594,-690 576,-690 576,-672 594,-672 594,-690"/>
</g>
<!-- action&#45;26&#45;&#45;cluster&#45;6 -->
<g id="edge45" class="edge">
<title>action&#45;26&#45;&#45;cluster&#45;6</title>
<path fill="none" stroke="black" d="M540.32,-700.34C552.01,-695.16 566.91,-688.57 575.94,-684.57"/>
</g>
<!-- action&#45;31 -->
<g id="node18" class="node">
<title>action&#45;31</title>
<polygon fill="white" stroke="black" points="540,-672 504,-672 504,-636 540,-636 540,-672"/>
</g>
<!-- action&#45;31&#45;&#45;cluster&#45;6 -->
<g id="edge46" class="edge">
<title>action&#45;31&#45;&#45;cluster&#45;6</title>
<path fill="none" stroke="black" d="M540.32,-661.66C552.01,-666.84 566.91,-673.43 575.94,-677.43"/>
</g>
<!-- action&#45;32 -->
<g id="node19" class="node">
<title>action&#45;32</title>
<polygon fill="white" stroke="black" points="666,-699 630,-699 630,-663 666,-663 666,-699"/>
</g>
<!-- cluster&#45;7 -->
<g id="node75" class="node">
<title>cluster&#45;7</title>
<polygon fill="black" stroke="black" stroke-width="0" points="720,-663 702,-663 702,-645 720,-645 720,-663"/>
</g>
<!-- action&#45;32&#45;&#45;cluster&#45;7 -->
<g id="edge47" class="edge">
<title>action&#45;32&#45;&#45;cluster&#45;7</title>
<path fill="none" stroke="black" d="M666.32,-673.34C678.01,-668.16 692.91,-661.57 701.94,-657.57"/>
</g>
<!-- action&#45;35 -->
<g id="node20" class="node">
<title>action&#45;35</title>
<polygon fill="white" stroke="black" points="666,-645 630,-645 630,-609 666,-609 666,-645"/>
</g>
<!-- action&#45;35&#45;&#45;cluster&#45;7 -->
<g id="edge48" class="edge">
<title>action&#45;35&#45;&#45;cluster&#45;7</title>
<path fill="none" stroke="black" d="M666.32,-634.66C678.01,-639.84 692.91,-646.43 701.94,-650.43"/>
</g>
<!-- action&#45;36 -->
<g id="node21" class="node">
<title>action&#45;36</title>
<polygon fill="white" stroke="black" points="792,-672 756,-672 756,-636 792,-636 792,-672"/>
</g>
<!-- cluster&#45;8 -->
<g id="node76" class="node">
<title>cluster&#45;8</title>
<polygon fill="black" stroke="black" stroke-width="0" points="846,-636 828,-636 828,-618 846,-618 846,-636"/>
</g>
<!-- action&#45;36&#45;&#45;cluster&#45;8 -->
<g id="edge49" class="edge">
<title>action&#45;36&#45;&#45;cluster&#45;8</title>
<path fill="none" stroke="black" d="M792.32,-646.34C804.01,-641.16 818.91,-634.57 827.94,-630.57"/>
</g>
<!-- action&#45;39 -->
<g id="node22" class="node">
<title>action&#45;39</title>
<polygon fill="white" stroke="black" points="792,-618 756,-618 756,-582 792,-582 792,-618"/>
</g>
<!-- action&#45;39&#45;&#45;cluster&#45;8 -->
<g id="edge50" class="edge">
<title>action&#45;39&#45;&#45;cluster&#45;8</title>
<path fill="none" stroke="black" d="M792.32,-607.66C804.01,-612.84 818.91,-619.43 827.94,-623.43"/>
</g>
<!-- action&#45;40 -->
<g id="node23" class="node">
<title>action&#45;40</title>
<polygon fill="white" stroke="black" points="918,-645 882,-645 882,-609 918,-609 918,-645"/>
</g>
<!-- cluster&#45;9 -->
<g id="node77" class="node">
<title>cluster&#45;9</title>
<polygon fill="black" stroke="black" stroke-width="0" points="972,-609 954,-609 954,-591 972,-591 972,-609"/>
</g>
<!-- action&#45;40&#45;&#45;cluster&#45;9 -->
<g id="edge51" class="edge">
<title>action&#45;40&#45;&#45;cluster&#45;9</title>
<path fill="none" stroke="black" d="M918.32,-619.34C930.01,-614.16 944.91,-607.57 953.94,-603.57"/>
</g>
<!-- action&#45;43 -->
<g id="node24" class="node">
<title>action&#45;43</title>
<polygon fill="white" stroke="black" points="918,-591 882,-591 882,-555 918,-555 918,-591"/>
</g>
<!-- action&#45;43&#45;&#45;cluster&#45;9 -->
<g id="edge52" class="edge">
<title>action&#45;43&#45;&#45;cluster&#45;9</title>
<path fill="none" stroke="black" d="M918.32,-580.66C930.01,-585.84 944.91,-592.43 953.94,-596.43"/>
</g>
<!-- action&#45;44 -->
<g id="node25" class="node">
<title>action&#45;44</title>
<polygon fill="white" stroke="black" points="1044,-618 1008,-618 1008,-582 1044,-582 1044,-618"/>
</g>
<!-- cluster&#45;10 -->
<g id="node78" class="node">
<title>cluster&#45;10</title>
<polygon fill="black" stroke="black" stroke-width="0" points="1098,-582 1080,-582 1080,-564 1098,-564 1098,-582"/>
</g>
<!-- action&#45;44&#45;&#45;cluster&#45;10 -->
<g id="edge53" class="edge">
<title>action&#45;44&#45;&#45;cluster&#45;10</title>
<path fill="none" stroke="black" d="M1044.32,-592.34C1056.01,-587.16 1070.91,-580.57 1079.94,-576.57"/>
</g>
<!-- action&#45;47 -->
<g id="node26" class="node">
<title>action&#45;47</title>
<polygon fill="white" stroke="black" points="1044,-564 1008,-564 1008,-528 1044,-528 1044,-564"/>
</g>
<!-- action&#45;47&#45;&#45;cluster&#45;10 -->
<g id="edge54" class="edge">
<title>action&#45;47&#45;&#45;cluster&#45;10</title>
<path fill="none" stroke="black" d="M1044.32,-553.66C1056.01,-558.84 1070.91,-565.43 1079.94,-569.43"/>
</g>
<!-- action&#45;48 -->
<g id="node27" class="node">
<title>action&#45;48</title>
<polygon fill="white" stroke="black" points="1170,-591 1134,-591 1134,-555 1170,-555 1170,-591"/>
</g>
<!-- cluster&#45;11 -->
<g id="node79" class="node">
<title>cluster&#45;11</title>
<polygon fill="black" stroke="black" stroke-width="0" points="1224,-555 1206,-555 1206,-537 1224,-537 1224,-555"/>
</g>
<!-- action&#45;48&#45;&#45;cluster&#45;11 -->
<g id="edge55" class="edge">
<title>action&#45;48&#45;&#45;cluster&#45;11</title>
<path fill="none" stroke="black" d="M1170.32,-565.34C1182.01,-560.16 1196.91,-553.57 1205.94,-549.57"/>
</g>
<!-- action&#45;51 -->
<g id="node28" class="node">
<title>action&#45;51</title>
<polygon fill="white" stroke="black" points="1170,-537 1134,-537 1134,-501 1170,-501 1170,-537"/>
</g>
<!-- action&#45;51&#45;&#45;cluster&#45;11 -->
<g id="edge56" class="edge">
<title>action&#45;51&#45;&#45;cluster&#45;11</title>
<path fill="none" stroke="black" d="M1170.32,-526.66C1182.01,-531.84 1196.91,-538.43 1205.94,-542.43"/>
</g>
<!-- action&#45;52 -->
<g id="node29" class="node">
<title>action&#45;52</title>
<polygon fill="white" stroke="black" points="1296,-564 1260,-564 1260,-528 1296,-528 1296,-564"/>
</g>
<!-- cluster&#45;12 -->
<g id="node80" class="node">
<title>cluster&#45;12</title>
<polygon fill="black" stroke="black" stroke-width="0" points="1350,-528 1332,-528 1332,-510 1350,-510 1350,-528"/>
</g>
<!-- action&#45;52&#45;&#45;cluster&#45;12 -->
<g id="edge57" class="edge">
<title>action&#45;52&#45;&#45;cluster&#45;12</title>
<path fill="none" stroke="black" d="M1296.32,-538.34C1308.01,-533.16 1322.91,-526.57 1331.94,-522.57"/>
</g>
<!-- action&#45;55 -->
<g id="node30" class="node">
<title>action&#45;55</title>
<polygon fill="white" stroke="black" points="1296,-510 1260,-510 1260,-474 1296,-474 1296,-510"/>
</g>
<!-- action&#45;55&#45;&#45;cluster&#45;12 -->
<g id="edge58" class="edge">
<title>action&#45;55&#45;&#45;cluster&#45;12</title>
<path fill="none" stroke="black" d="M1296.32,-499.66C1308.01,-504.84 1322.91,-511.43 1331.94,-515.43"/>
</g>
<!-- action&#45;56 -->
<g id="node31" class="node">
<title>action&#45;56</title>
<polygon fill="white" stroke="black" points="1422,-537 1386,-537 1386,-501 1422,-501 1422,-537"/>
</g>
<!-- cluster&#45;14 -->
<g id="node82" class="node">
<title>cluster&#45;14</title>
<polygon fill="black" stroke="black" stroke-width="0" points="1476,-501 1458,-501 1458,-483 1476,-483 1476,-501"/>
</g>
<!-- action&#45;56&#45;&#45;cluster&#45;14 -->
<g id="edge61" class="edge">
<title>action&#45;56&#45;&#45;cluster&#45;14</title>
<path fill="none" stroke="black" d="M1422.32,-511.34C1434.01,-506.16 1448.91,-499.57 1457.94,-495.57"/>
</g>
<!-- action&#45;59 -->
<g id="node32" class="node">
<title>action&#45;59</title>
<polygon fill="white" stroke="black" points="2304,-405 2268,-405 2268,-369 2304,-369 2304,-405"/>
</g>
<!-- action&#45;59&#45;&#45;cluster&#45;13 -->
<g id="edge60" class="edge">
<title>action&#45;59&#45;&#45;cluster&#45;13</title>
<path fill="none" stroke="black" d="M2304.32,-388.42C2316.01,-389.38 2330.91,-390.6 2339.94,-391.34"/>
</g>
<!-- action&#45;60 -->
<g id="node33" class="node">
<title>action&#45;60</title>
<polygon fill="white" stroke="black" points="2430,-410 2394,-410 2394,-374 2430,-374 2430,-410"/>
</g>
<!-- cluster&#45;16 -->
<g id="node84" class="node">
<title>cluster&#45;16</title>
<polygon fill="black" stroke="black" stroke-width="0" points="2484,-349 2466,-349 2466,-331 2484,-331 2484,-349"/>
</g>
<!-- action&#45;60&#45;&#45;cluster&#45;16 -->
<g id="edge65" class="edge">
<title>action&#45;60&#45;&#45;cluster&#45;16</title>
<path fill="none" stroke="black" d="M2430.32,-377.24C2442.01,-367.27 2456.91,-354.57 2465.94,-346.88"/>
</g>
<!-- action&#45;63 -->
<g id="node34" class="node">
<title>action&#45;63</title>
<polygon fill="white" stroke="black" points="1422,-483 1386,-483 1386,-447 1422,-447 1422,-483"/>
</g>
<!-- action&#45;63&#45;&#45;cluster&#45;14 -->
<g id="edge62" class="edge">
<title>action&#45;63&#45;&#45;cluster&#45;14</title>
<path fill="none" stroke="black" d="M1422.32,-472.66C1434.01,-477.84 1448.91,-484.43 1457.94,-488.43"/>
</g>
<!-- action&#45;64 -->
<g id="node35" class="node">
<title>action&#45;64</title>
<polygon fill="white" stroke="black" points="1548,-510 1512,-510 1512,-474 1548,-474 1548,-510"/>
</g>
<!-- cluster&#45;15 -->
<g id="node83" class="node">
<title>cluster&#45;15</title>
<polygon fill="black" stroke="black" stroke-width="0" points="1602,-474 1584,-474 1584,-456 1602,-456 1602,-474"/>
</g>
<!-- action&#45;64&#45;&#45;cluster&#45;15 -->
<g id="edge63" class="edge">
<title>action&#45;64&#45;&#45;cluster&#45;15</title>
<path fill="none" stroke="black" d="M1548.32,-484.34C1560.01,-479.16 1574.91,-472.57 1583.94,-468.57"/>
</g>
<!-- action&#45;67 -->
<g id="node36" class="node">
<title>action&#45;67</title>
<polygon fill="white" stroke="black" points="1548,-456 1512,-456 1512,-420 1548,-420 1548,-456"/>
</g>
<!-- action&#45;67&#45;&#45;cluster&#45;15 -->
<g id="edge64" class="edge">
<title>action&#45;67&#45;&#45;cluster&#45;15</title>
<path fill="none" stroke="black" d="M1548.32,-445.66C1560.01,-450.84 1574.91,-457.43 1583.94,-461.43"/>
</g>
<!-- action&#45;68 -->
<g id="node37" class="node">
<title>action&#45;68</title>
<polygon fill="white" stroke="black" points="1674,-483 1638,-483 1638,-447 1674,-447 1674,-483"/>
</g>
<!-- cluster&#45;18 -->
<g id="node86" class="node">
<title>cluster&#45;18</title>
<polygon fill="black" stroke="black" stroke-width="0" points="1728,-447 1710,-447 1710,-429 1728,-429 1728,-447"/>
</g>
<!-- action&#45;68&#45;&#45;cluster&#45;18 -->
<g id="edge69" class="edge">
<title>action&#45;68&#45;&#45;cluster&#45;18</title>
<path fill="none" stroke="black" d="M1674.32,-457.34C1686.01,-452.16 1700.91,-445.57 1709.94,-441.57"/>
</g>
<!-- action&#45;71 -->
<g id="node38" class="node">
<title>action&#45;71</title>
<polygon fill="white" stroke="black" points="2430,-356 2394,-356 2394,-320 2430,-320 2430,-356"/>
</g>
<!-- action&#45;71&#45;&#45;cluster&#45;16 -->
<g id="edge66" class="edge">
<title>action&#45;71&#45;&#45;cluster&#45;16</title>
<path fill="none" stroke="black" d="M2430.32,-338.57C2442.01,-338.95 2456.91,-339.44 2465.94,-339.74"/>
</g>
<!-- action&#45;72 -->
<g id="node39" class="node">
<title>action&#45;72</title>
<polygon fill="white" stroke="black" points="2556,-358 2520,-358 2520,-322 2556,-322 2556,-358"/>
</g>
<!-- cluster&#45;17 -->
<g id="node85" class="node">
<title>cluster&#45;17</title>
<polygon fill="black" stroke="black" stroke-width="0" points="2610,-296 2592,-296 2592,-278 2610,-278 2610,-296"/>
</g>
<!-- action&#45;72&#45;&#45;cluster&#45;17 -->
<g id="edge67" class="edge">
<title>action&#45;72&#45;&#45;cluster&#45;17</title>
<path fill="none" stroke="black" d="M2556.32,-324.95C2568.01,-314.79 2582.91,-301.85 2591.94,-294.01"/>
</g>
<!-- action&#45;75 -->
<g id="node40" class="node">
<title>action&#45;75</title>
<polygon fill="white" stroke="black" points="2556,-304 2520,-304 2520,-268 2556,-268 2556,-304"/>
</g>
<!-- action&#45;75&#45;&#45;cluster&#45;17 -->
<g id="edge68" class="edge">
<title>action&#45;75&#45;&#45;cluster&#45;17</title>
<path fill="none" stroke="black" d="M2556.32,-286.28C2568.01,-286.48 2582.91,-286.72 2591.94,-286.87"/>
</g>
<!-- action&#45;76 -->
<g id="node41" class="node">
<title>action&#45;76</title>
<polygon fill="white" stroke="black" points="2682,-305 2646,-305 2646,-269 2682,-269 2682,-305"/>
</g>
<!-- cluster&#45;20 -->
<g id="node88" class="node">
<title>cluster&#45;20</title>
<polygon fill="black" stroke="black" stroke-width="0" points="2736,-243 2718,-243 2718,-225 2736,-225 2736,-243"/>
</g>
<!-- action&#45;76&#45;&#45;cluster&#45;20 -->
<g id="edge73" class="edge">
<title>action&#45;76&#45;&#45;cluster&#45;20</title>
<path fill="none" stroke="black" d="M2682.32,-271.95C2694.01,-261.79 2708.91,-248.85 2717.94,-241.01"/>
</g>
<!-- action&#45;79 -->
<g id="node42" class="node">
<title>action&#45;79</title>
<polygon fill="white" stroke="black" points="1674,-429 1638,-429 1638,-393 1674,-393 1674,-429"/>
</g>
<!-- action&#45;79&#45;&#45;cluster&#45;18 -->
<g id="edge70" class="edge">
<title>action&#45;79&#45;&#45;cluster&#45;18</title>
<path fill="none" stroke="black" d="M1674.32,-418.66C1686.01,-423.84 1700.91,-430.43 1709.94,-434.43"/>
</g>
<!-- action&#45;80 -->
<g id="node43" class="node">
<title>action&#45;80</title>
<polygon fill="white" stroke="black" points="1800,-456 1764,-456 1764,-420 1800,-420 1800,-456"/>
</g>
<!-- cluster&#45;19 -->
<g id="node87" class="node">
<title>cluster&#45;19</title>
<polygon fill="black" stroke="black" stroke-width="0" points="1854,-420 1836,-420 1836,-402 1854,-402 1854,-420"/>
</g>
<!-- action&#45;80&#45;&#45;cluster&#45;19 -->
<g id="edge71" class="edge">
<title>action&#45;80&#45;&#45;cluster&#45;19</title>
<path fill="none" stroke="black" d="M1800.32,-430.34C1812.01,-425.16 1826.91,-418.57 1835.94,-414.57"/>
</g>
<!-- action&#45;83 -->
<g id="node44" class="node">
<title>action&#45;83</title>
<polygon fill="white" stroke="black" points="1800,-402 1764,-402 1764,-366 1800,-366 1800,-402"/>
</g>
<!-- action&#45;83&#45;&#45;cluster&#45;19 -->
<g id="edge72" class="edge">
<title>action&#45;83&#45;&#45;cluster&#45;19</title>
<path fill="none" stroke="black" d="M1800.32,-391.66C1812.01,-396.84 1826.91,-403.43 1835.94,-407.43"/>
</g>
<!-- action&#45;84 -->
<g id="node45" class="node">
<title>action&#45;84</title>
<polygon fill="white" stroke="black" points="1926,-429 1890,-429 1890,-393 1926,-393 1926,-429"/>
</g>
<!-- cluster&#45;21 -->
<g id="node89" class="node">
<title>cluster&#45;21</title>
<polygon fill="black" stroke="black" stroke-width="0" points="1980,-393 1962,-393 1962,-375 1980,-375 1980,-393"/>
</g>
<!-- action&#45;84&#45;&#45;cluster&#45;21 -->
<g id="edge75" class="edge">
<title>action&#45;84&#45;&#45;cluster&#45;21</title>
<path fill="none" stroke="black" d="M1926.32,-403.34C1938.01,-398.16 1952.91,-391.57 1961.94,-387.57"/>
</g>
<!-- action&#45;87 -->
<g id="node46" class="node">
<title>action&#45;87</title>
<polygon fill="white" stroke="black" points="2682,-251 2646,-251 2646,-215 2682,-215 2682,-251"/>
</g>
<!-- action&#45;87&#45;&#45;cluster&#45;20 -->
<g id="edge74" class="edge">
<title>action&#45;87&#45;&#45;cluster&#45;20</title>
<path fill="none" stroke="black" d="M2682.32,-233.28C2694.01,-233.48 2708.91,-233.72 2717.94,-233.87"/>
</g>
<!-- action&#45;88 -->
<g id="node47" class="node">
<title>action&#45;88</title>
<polygon fill="white" stroke="black" points="2808,-252 2772,-252 2772,-216 2808,-216 2808,-252"/>
</g>
<!-- cluster&#45;25 -->
<g id="node93" class="node">
<title>cluster&#45;25</title>
<polygon fill="black" stroke="black" stroke-width="0" points="2862,-189 2844,-189 2844,-171 2862,-171 2862,-189"/>
</g>
<!-- action&#45;88&#45;&#45;cluster&#45;25 -->
<g id="edge83" class="edge">
<title>action&#45;88&#45;&#45;cluster&#45;25</title>
<path fill="none" stroke="black" d="M2808.32,-218.67C2820.01,-208.32 2834.91,-195.13 2843.94,-187.14"/>
</g>
<!-- action&#45;91 -->
<g id="node48" class="node">
<title>action&#45;91</title>
<polygon fill="white" stroke="black" points="1926,-375 1890,-375 1890,-339 1926,-339 1926,-375"/>
</g>
<!-- action&#45;91&#45;&#45;cluster&#45;21 -->
<g id="edge76" class="edge">
<title>action&#45;91&#45;&#45;cluster&#45;21</title>
<path fill="none" stroke="black" d="M1926.32,-364.66C1938.01,-369.84 1952.91,-376.43 1961.94,-380.43"/>
</g>
<!-- action&#45;92 -->
<g id="node49" class="node">
<title>action&#45;92</title>
<polygon fill="white" stroke="black" points="2052,-402 2016,-402 2016,-366 2052,-366 2052,-402"/>
</g>
<!-- cluster&#45;22 -->
<g id="node90" class="node">
<title>cluster&#45;22</title>
<polygon fill="black" stroke="black" stroke-width="0" points="2106,-352 2088,-352 2088,-334 2106,-334 2106,-352"/>
</g>
<!-- action&#45;92&#45;&#45;cluster&#45;22 -->
<g id="edge77" class="edge">
<title>action&#45;92&#45;&#45;cluster&#45;22</title>
<path fill="none" stroke="black" d="M2052.32,-372.36C2064.01,-364.5 2078.91,-354.49 2087.94,-348.42"/>
</g>
<!-- action&#45;95 -->
<g id="node50" class="node">
<title>action&#45;95</title>
<polygon fill="white" stroke="black" points="2052,-348 2016,-348 2016,-312 2052,-312 2052,-348"/>
</g>
<!-- action&#45;95&#45;&#45;cluster&#45;22 -->
<g id="edge78" class="edge">
<title>action&#45;95&#45;&#45;cluster&#45;22</title>
<path fill="none" stroke="black" d="M2052.32,-333.69C2064.01,-336.18 2078.91,-339.36 2087.94,-341.28"/>
</g>
<!-- action&#45;96 -->
<g id="node51" class="node">
<title>action&#45;96</title>
<polygon fill="white" stroke="black" points="2178,-361 2142,-361 2142,-325 2178,-325 2178,-361"/>
</g>
<!-- cluster&#45;23 -->
<g id="node91" class="node">
<title>cluster&#45;23</title>
<polygon fill="black" stroke="black" stroke-width="0" points="2232,-298 2214,-298 2214,-280 2232,-280 2232,-298"/>
</g>
<!-- action&#45;96&#45;&#45;cluster&#45;23 -->
<g id="edge79" class="edge">
<title>action&#45;96&#45;&#45;cluster&#45;23</title>
<path fill="none" stroke="black" d="M2178.32,-327.67C2190.01,-317.32 2204.91,-304.13 2213.94,-296.14"/>
</g>
<!-- action&#45;99 -->
<g id="node52" class="node">
<title>action&#45;99</title>
<polygon fill="white" stroke="black" points="2178,-307 2142,-307 2142,-271 2178,-271 2178,-307"/>
</g>
<!-- action&#45;99&#45;&#45;cluster&#45;23 -->
<g id="edge80" class="edge">
<title>action&#45;99&#45;&#45;cluster&#45;23</title>
<path fill="none" stroke="black" d="M2178.32,-289C2190.01,-289 2204.91,-289 2213.94,-289"/>
</g>
<!-- action&#45;100 -->
<g id="node53" class="node">
<title>action&#45;100</title>
<polygon fill="white" stroke="black" points="2304,-307 2268,-307 2268,-271 2304,-271 2304,-307"/>
</g>
<!-- cluster&#45;24 -->
<g id="node92" class="node">
<title>cluster&#45;24</title>
<polygon fill="black" stroke="black" stroke-width="0" points="2358,-244 2340,-244 2340,-226 2358,-226 2358,-244"/>
</g>
<!-- action&#45;100&#45;&#45;cluster&#45;24 -->
<g id="edge81" class="edge">
<title>action&#45;100&#45;&#45;cluster&#45;24</title>
<path fill="none" stroke="black" d="M2304.32,-273.67C2316.01,-263.32 2330.91,-250.13 2339.94,-242.14"/>
</g>
<!-- action&#45;103 -->
<g id="node54" class="node">
<title>action&#45;103</title>
<polygon fill="white" stroke="black" points="2304,-253 2268,-253 2268,-217 2304,-217 2304,-253"/>
</g>
<!-- action&#45;103&#45;&#45;cluster&#45;24 -->
<g id="edge82" class="edge">
<title>action&#45;103&#45;&#45;cluster&#45;24</title>
<path fill="none" stroke="black" d="M2304.32,-235C2316.01,-235 2330.91,-235 2339.94,-235"/>
</g>
<!-- action&#45;104 -->
<g id="node55" class="node">
<title>action&#45;104</title>
<polygon fill="white" stroke="black" points="2430,-253 2394,-253 2394,-217 2430,-217 2430,-253"/>
</g>
<!-- cluster&#45;27 -->
<g id="node95" class="node">
<title>cluster&#45;27</title>
<polygon fill="black" stroke="black" stroke-width="0" points="2484,-190 2466,-190 2466,-172 2484,-172 2484,-190"/>
</g>
<!-- action&#45;104&#45;&#45;cluster&#45;27 -->
<g id="edge87" class="edge">
<title>action&#45;104&#45;&#45;cluster&#45;27</title>
<path fill="none" stroke="black" d="M2430.32,-219.67C2442.01,-209.32 2456.91,-196.13 2465.94,-188.14"/>
</g>
<!-- action&#45;107 -->
<g id="node56" class="node">
<title>action&#45;107</title>
<polygon fill="white" stroke="black" points="2808,-198 2772,-198 2772,-162 2808,-162 2808,-198"/>
</g>
<!-- action&#45;107&#45;&#45;cluster&#45;25 -->
<g id="edge84" class="edge">
<title>action&#45;107&#45;&#45;cluster&#45;25</title>
<path fill="none" stroke="black" d="M2808.32,-180C2820.01,-180 2834.91,-180 2843.94,-180"/>
</g>
<!-- action&#45;108 -->
<g id="node57" class="node">
<title>action&#45;108</title>
<polygon fill="white" stroke="black" points="2934,-198 2898,-198 2898,-162 2934,-162 2934,-198"/>
</g>
<!-- cluster&#45;26 -->
<g id="node94" class="node">
<title>cluster&#45;26</title>
<polygon fill="black" stroke="black" stroke-width="0" points="2988,-135 2970,-135 2970,-117 2988,-117 2988,-135"/>
</g>
<!-- action&#45;108&#45;&#45;cluster&#45;26 -->
<g id="edge85" class="edge">
<title>action&#45;108&#45;&#45;cluster&#45;26</title>
<path fill="none" stroke="black" d="M2934.32,-164.67C2946.01,-154.32 2960.91,-141.13 2969.94,-133.14"/>
</g>
<!-- action&#45;111 -->
<g id="node58" class="node">
<title>action&#45;111</title>
<polygon fill="white" stroke="black" points="2934,-144 2898,-144 2898,-108 2934,-108 2934,-144"/>
</g>
<!-- action&#45;111&#45;&#45;cluster&#45;26 -->
<g id="edge86" class="edge">
<title>action&#45;111&#45;&#45;cluster&#45;26</title>
<path fill="none" stroke="black" d="M2934.32,-126C2946.01,-126 2960.91,-126 2969.94,-126"/>
</g>
<!-- action&#45;115 -->
<g id="node59" class="node">
<title>action&#45;115</title>
<polygon fill="white" stroke="black" points="2430,-199 2394,-199 2394,-163 2430,-163 2430,-199"/>
</g>
<!-- action&#45;115&#45;&#45;cluster&#45;27 -->
<g id="edge88" class="edge">
<title>action&#45;115&#45;&#45;cluster&#45;27</title>
<path fill="none" stroke="black" d="M2430.32,-181C2442.01,-181 2456.91,-181 2465.94,-181"/>
</g>
<!-- action&#45;116 -->
<g id="node60" class="node">
<title>action&#45;116</title>
<polygon fill="white" stroke="black" points="2556,-199 2520,-199 2520,-163 2556,-163 2556,-199"/>
</g>
<!-- cluster&#45;28 -->
<g id="node96" class="node">
<title>cluster&#45;28</title>
<polygon fill="black" stroke="black" stroke-width="0" points="2610,-136 2592,-136 2592,-118 2610,-118 2610,-136"/>
</g>
<!-- action&#45;116&#45;&#45;cluster&#45;28 -->
<g id="edge89" class="edge">
<title>action&#45;116&#45;&#45;cluster&#45;28</title>
<path fill="none" stroke="black" d="M2556.32,-165.67C2568.01,-155.32 2582.91,-142.13 2591.94,-134.14"/>
</g>
<!-- action&#45;119 -->
<g id="node61" class="node">
<title>action&#45;119</title>
<polygon fill="white" stroke="black" points="2556,-145 2520,-145 2520,-109 2556,-109 2556,-145"/>
</g>
<!-- action&#45;119&#45;&#45;cluster&#45;28 -->
<g id="edge90" class="edge">
<title>action&#45;119&#45;&#45;cluster&#45;28</title>
<path fill="none" stroke="black" d="M2556.32,-127C2568.01,-127 2582.91,-127 2591.94,-127"/>
</g>
<!-- action&#45;120 -->
<g id="node62" class="node">
<title>action&#45;120</title>
<polygon fill="white" stroke="black" points="2682,-145 2646,-145 2646,-109 2682,-109 2682,-145"/>
</g>
<!-- cluster&#45;29 -->
<g id="node97" class="node">
<title>cluster&#45;29</title>
<polygon fill="black" stroke="black" stroke-width="0" points="2736,-82 2718,-82 2718,-64 2736,-64 2736,-82"/>
</g>
<!-- action&#45;120&#45;&#45;cluster&#45;29 -->
<g id="edge91" class="edge">
<title>action&#45;120&#45;&#45;cluster&#45;29</title>
<path fill="none" stroke="black" d="M2682.32,-111.67C2694.01,-101.32 2708.91,-88.13 2717.94,-80.14"/>
</g>
<!-- action&#45;123 -->
<g id="node63" class="node">
<title>action&#45;123</title>
<polygon fill="white" stroke="black" points="2682,-91 2646,-91 2646,-55 2682,-55 2682,-91"/>
</g>
<!-- action&#45;123&#45;&#45;cluster&#45;29 -->
<g id="edge92" class="edge">
<title>action&#45;123&#45;&#45;cluster&#45;29</title>
<path fill="none" stroke="black" d="M2682.32,-73C2694.01,-73 2708.91,-73 2717.94,-73"/>
</g>
<!-- action&#45;124 -->
<g id="node64" class="node">
<title>action&#45;124</title>
<polygon fill="white" stroke="black" points="2808,-91 2772,-91 2772,-55 2808,-55 2808,-91"/>
</g>
<!-- cluster&#45;30 -->
<g id="node98" class="node">
<title>cluster&#45;30</title>
<polygon fill="black" stroke="black" stroke-width="0" points="2862,-81 2844,-81 2844,-63 2862,-63 2862,-81"/>
</g>
<!-- action&#45;124&#45;&#45;cluster&#45;30 -->
<g id="edge93" class="edge">
<title>action&#45;124&#45;&#45;cluster&#45;30</title>
<path fill="none" stroke="black" d="M2808.32,-72.72C2820.01,-72.52 2834.91,-72.28 2843.94,-72.13"/>
</g>
<!-- action&#45;127 -->
<g id="node65" class="node">
<title>action&#45;127</title>
<polygon fill="white" stroke="black" points="2808,-37 2772,-37 2772,-1 2808,-1 2808,-37"/>
</g>
<!-- action&#45;127&#45;&#45;cluster&#45;30 -->
<g id="edge94" class="edge">
<title>action&#45;127&#45;&#45;cluster&#45;30</title>
<path fill="none" stroke="black" d="M2808.32,-34.05C2820.01,-44.21 2834.91,-57.15 2843.94,-64.99"/>
</g>
<!-- action&#45;128 -->
<g id="node66" class="node">
<title>action&#45;128</title>
<polygon fill="#c9211e" stroke="black" points="2934,-90 2898,-90 2898,-54 2934,-54 2934,-90"/>
</g>
<!-- cluster&#45;31 -->
<g id="node99" class="node">
<title>cluster&#45;31</title>
<polygon fill="black" stroke="black" stroke-width="0" points="2988,-81 2970,-81 2970,-63 2988,-63 2988,-81"/>
</g>
<!-- action&#45;128&#45;&#45;cluster&#45;31 -->
<g id="edge95" class="edge">
<title>action&#45;128&#45;&#45;cluster&#45;31</title>
<path fill="none" stroke="black" d="M2934.32,-72C2946.01,-72 2960.91,-72 2969.94,-72"/>
</g>
<!-- action&#45;131 -->
<g id="node67" class="node">
<title>action&#45;131</title>
<polygon fill="#00008b" stroke="black" points="2934,-36 2898,-36 2898,0 2934,0 2934,-36"/>
</g>
<!-- action&#45;131&#45;&#45;cluster&#45;31 -->
<g id="edge96" class="edge">
<title>action&#45;131&#45;&#45;cluster&#45;31</title>
<path fill="none" stroke="black" d="M2934.32,-33.33C2946.01,-43.68 2960.91,-56.87 2969.94,-64.86"/>
</g>
<!-- cluster&#45;0&#45;&#45;action&#45;4 -->
<g id="edge1" class="edge">
<title>cluster&#45;0&#45;&#45;action&#45;4</title>
<path fill="none" stroke="black" d="M90.23,-789C99.33,-789 114.26,-789 125.92,-789"/>
</g>
<!-- cluster&#45;1&#45;&#45;action&#45;8 -->
<g id="edge2" class="edge">
<title>cluster&#45;1&#45;&#45;action&#45;8</title>
<path fill="none" stroke="black" d="M216.23,-762C225.33,-762 240.26,-762 251.92,-762"/>
</g>
<!-- cluster&#45;2&#45;&#45;action&#45;14 -->
<g id="edge3" class="edge">
<title>cluster&#45;2&#45;&#45;action&#45;14</title>
<path fill="none" stroke="black" d="M2106.23,-485C2115.33,-485 2130.26,-485 2141.92,-485"/>
</g>
<!-- cluster&#45;3&#45;&#45;action&#45;18 -->
<g id="edge4" class="edge">
<title>cluster&#45;3&#45;&#45;action&#45;18</title>
<path fill="none" stroke="black" d="M2232.23,-441C2241.33,-441 2256.26,-441 2267.92,-441"/>
</g>
<!-- cluster&#45;4&#45;&#45;action&#45;22 -->
<g id="edge5" class="edge">
<title>cluster&#45;4&#45;&#45;action&#45;22</title>
<path fill="none" stroke="black" d="M342.23,-735C351.33,-735 366.26,-735 377.92,-735"/>
</g>
<!-- cluster&#45;5&#45;&#45;action&#45;26 -->
<g id="edge6" class="edge">
<title>cluster&#45;5&#45;&#45;action&#45;26</title>
<path fill="none" stroke="black" d="M468.23,-708C477.33,-708 492.26,-708 503.92,-708"/>
</g>
<!-- cluster&#45;6&#45;&#45;action&#45;32 -->
<g id="edge7" class="edge">
<title>cluster&#45;6&#45;&#45;action&#45;32</title>
<path fill="none" stroke="black" d="M594.23,-681C603.33,-681 618.26,-681 629.92,-681"/>
</g>
<!-- cluster&#45;7&#45;&#45;action&#45;36 -->
<g id="edge8" class="edge">
<title>cluster&#45;7&#45;&#45;action&#45;36</title>
<path fill="none" stroke="black" d="M720.23,-654C729.33,-654 744.26,-654 755.92,-654"/>
</g>
<!-- cluster&#45;8&#45;&#45;action&#45;40 -->
<g id="edge9" class="edge">
<title>cluster&#45;8&#45;&#45;action&#45;40</title>
<path fill="none" stroke="black" d="M846.23,-627C855.33,-627 870.26,-627 881.92,-627"/>
</g>
<!-- cluster&#45;9&#45;&#45;action&#45;44 -->
<g id="edge10" class="edge">
<title>cluster&#45;9&#45;&#45;action&#45;44</title>
<path fill="none" stroke="black" d="M972.23,-600C981.33,-600 996.26,-600 1007.92,-600"/>
</g>
<!-- cluster&#45;10&#45;&#45;action&#45;48 -->
<g id="edge11" class="edge">
<title>cluster&#45;10&#45;&#45;action&#45;48</title>
<path fill="none" stroke="black" d="M1098.23,-573C1107.33,-573 1122.26,-573 1133.92,-573"/>
</g>
<!-- cluster&#45;11&#45;&#45;action&#45;52 -->
<g id="edge12" class="edge">
<title>cluster&#45;11&#45;&#45;action&#45;52</title>
<path fill="none" stroke="black" d="M1224.23,-546C1233.33,-546 1248.26,-546 1259.92,-546"/>
</g>
<!-- cluster&#45;12&#45;&#45;action&#45;56 -->
<g id="edge13" class="edge">
<title>cluster&#45;12&#45;&#45;action&#45;56</title>
<path fill="none" stroke="black" d="M1350.23,-519C1359.33,-519 1374.26,-519 1385.92,-519"/>
</g>
<!-- cluster&#45;13&#45;&#45;action&#45;60 -->
<g id="edge14" class="edge">
<title>cluster&#45;13&#45;&#45;action&#45;60</title>
<path fill="none" stroke="black" d="M2358.23,-392C2367.33,-392 2382.26,-392 2393.92,-392"/>
</g>
<!-- cluster&#45;14&#45;&#45;action&#45;64 -->
<g id="edge15" class="edge">
<title>cluster&#45;14&#45;&#45;action&#45;64</title>
<path fill="none" stroke="black" d="M1476.23,-492C1485.33,-492 1500.26,-492 1511.92,-492"/>
</g>
<!-- cluster&#45;15&#45;&#45;action&#45;68 -->
<g id="edge16" class="edge">
<title>cluster&#45;15&#45;&#45;action&#45;68</title>
<path fill="none" stroke="black" d="M1602.23,-465C1611.33,-465 1626.26,-465 1637.92,-465"/>
</g>
<!-- cluster&#45;16&#45;&#45;action&#45;72 -->
<g id="edge17" class="edge">
<title>cluster&#45;16&#45;&#45;action&#45;72</title>
<path fill="none" stroke="black" d="M2484.23,-340C2493.33,-340 2508.26,-340 2519.92,-340"/>
</g>
<!-- cluster&#45;17&#45;&#45;action&#45;76 -->
<g id="edge18" class="edge">
<title>cluster&#45;17&#45;&#45;action&#45;76</title>
<path fill="none" stroke="black" d="M2610.23,-287C2619.33,-287 2634.26,-287 2645.92,-287"/>
</g>
<!-- cluster&#45;18&#45;&#45;action&#45;80 -->
<g id="edge19" class="edge">
<title>cluster&#45;18&#45;&#45;action&#45;80</title>
<path fill="none" stroke="black" d="M1728.23,-438C1737.33,-438 1752.26,-438 1763.92,-438"/>
</g>
<!-- cluster&#45;19&#45;&#45;action&#45;84 -->
<g id="edge20" class="edge">
<title>cluster&#45;19&#45;&#45;action&#45;84</title>
<path fill="none" stroke="black" d="M1854.23,-411C1863.33,-411 1878.26,-411 1889.92,-411"/>
</g>
<!-- cluster&#45;20&#45;&#45;action&#45;88 -->
<g id="edge21" class="edge">
<title>cluster&#45;20&#45;&#45;action&#45;88</title>
<path fill="none" stroke="black" d="M2736.23,-234C2745.33,-234 2760.26,-234 2771.92,-234"/>
</g>
<!-- cluster&#45;21&#45;&#45;action&#45;92 -->
<g id="edge22" class="edge">
<title>cluster&#45;21&#45;&#45;action&#45;92</title>
<path fill="none" stroke="black" d="M1980.23,-384C1989.33,-384 2004.26,-384 2015.92,-384"/>
</g>
<!-- cluster&#45;22&#45;&#45;action&#45;96 -->
<g id="edge23" class="edge">
<title>cluster&#45;22&#45;&#45;action&#45;96</title>
<path fill="none" stroke="black" d="M2106.23,-343C2115.33,-343 2130.26,-343 2141.92,-343"/>
</g>
<!-- cluster&#45;23&#45;&#45;action&#45;100 -->
<g id="edge24" class="edge">
<title>cluster&#45;23&#45;&#45;action&#45;100</title>
<path fill="none" stroke="black" d="M2232.23,-289C2241.33,-289 2256.26,-289 2267.92,-289"/>
</g>
<!-- cluster&#45;24&#45;&#45;action&#45;104 -->
<g id="edge25" class="edge">
<title>cluster&#45;24&#45;&#45;action&#45;104</title>
<path fill="none" stroke="black" d="M2358.23,-235C2367.33,-235 2382.26,-235 2393.92,-235"/>
</g>
<!-- cluster&#45;25&#45;&#45;action&#45;108 -->
<g id="edge26" class="edge">
<title>cluster&#45;25&#45;&#45;action&#45;108</title>
<path fill="none" stroke="black" d="M2862.23,-180C2871.33,-180 2886.26,-180 2897.92,-180"/>
</g>
<!-- cluster&#45;26&#45;&#45;action&#45;112 -->
<g id="edge27" class="edge">
<title>cluster&#45;26&#45;&#45;action&#45;112</title>
<path fill="none" stroke="black" d="M2988.23,-126C2997.33,-126 3012.26,-126 3023.92,-126"/>
</g>
<!-- cluster&#45;27&#45;&#45;action&#45;116 -->
<g id="edge28" class="edge">
<title>cluster&#45;27&#45;&#45;action&#45;116</title>
<path fill="none" stroke="black" d="M2484.23,-181C2493.33,-181 2508.26,-181 2519.92,-181"/>
</g>
<!-- cluster&#45;28&#45;&#45;action&#45;120 -->
<g id="edge29" class="edge">
<title>cluster&#45;28&#45;&#45;action&#45;120</title>
<path fill="none" stroke="black" d="M2610.23,-127C2619.33,-127 2634.26,-127 2645.92,-127"/>
</g>
<!-- cluster&#45;29&#45;&#45;action&#45;124 -->
<g id="edge30" class="edge">
<title>cluster&#45;29&#45;&#45;action&#45;124</title>
<path fill="none" stroke="black" d="M2736.23,-73C2745.33,-73 2760.26,-73 2771.92,-73"/>
</g>
<!-- cluster&#45;30&#45;&#45;action&#45;128 -->
<g id="edge31" class="edge">
<title>cluster&#45;30&#45;&#45;action&#45;128</title>
<path fill="none" stroke="black" d="M2862.23,-72C2871.33,-72 2886.26,-72 2897.92,-72"/>
</g>
<!-- cluster&#45;31&#45;&#45;action&#45;132 -->
<g id="edge32" class="edge">
<title>cluster&#45;31&#45;&#45;action&#45;132</title>
<path fill="none" stroke="black" d="M2988.23,-72C2997.33,-72 3012.26,-72 3023.92,-72"/>
</g>
</g>
</svg>
