<?xml version="1.0" encoding="UTF-8" standalone="no"?>
<!DOCTYPE svg PUBLIC "-//W3C//DTD SVG 1.1//EN"
 "http://www.w3.org/Graphics/SVG/1.1/DTD/svg11.dtd">
<!-- Generated by graphviz version 2.43.0 (0)
 -->
<!-- Title: g Pages: 1 -->
<svg width="2454pt" height="654pt"
 viewBox="0.00 0.00 2454.00 654.00" xmlns="http://www.w3.org/2000/svg" xmlns:xlink="http://www.w3.org/1999/xlink">
<g id="graph0" class="graph" transform="scale(1 1) rotate(0) translate(4 650)">
<title>g</title>
<polygon fill="white" stroke="transparent" points="-4,4 -4,-650 2450,-650 2450,4 -4,4"/>
<g id="clust1" class="cluster">
<title>cluster_actionlib</title>
<polygon fill="none" stroke="black" points="2386,-46 2386,-206 2438,-206 2438,-46 2386,-46"/>
</g>
<!-- action&#45;29 -->
<g id="node1" class="node">
<title>action&#45;29</title>
<polygon fill="white" stroke="black" stroke-width="4" points="2430,-198 2394,-198 2394,-162 2430,-162 2430,-198"/>
</g>
<!-- action&#45;88 -->
<g id="node2" class="node">
<title>action&#45;88</title>
<polygon fill="white" stroke="black" stroke-width="4" points="2430,-144 2394,-144 2394,-108 2430,-108 2430,-144"/>
</g>
<!-- action&#45;104 -->
<g id="node3" class="node">
<title>action&#45;104</title>
<polygon fill="#008000" stroke="black" stroke-width="4" points="2430,-90 2394,-90 2394,-54 2430,-54 2430,-90"/>
</g>
<!-- action&#45;1 -->
<g id="node4" class="node">
<title>action&#45;1</title>
<polygon fill="white" stroke="black" points="36,-646 0,-646 0,-610 36,-610 36,-646"/>
</g>
<!-- cluster&#45;0 -->
<g id="node54" class="node">
<title>cluster&#45;0</title>
<polygon fill="black" stroke="black" stroke-width="0" points="90,-610 72,-610 72,-592 90,-592 90,-610"/>
</g>
<!-- action&#45;1&#45;&#45;cluster&#45;0 -->
<g id="edge26" class="edge">
<title>action&#45;1&#45;&#45;cluster&#45;0</title>
<path fill="none" stroke="black" d="M36.32,-620.34C48.01,-615.16 62.91,-608.57 71.94,-604.57"/>
</g>
<!-- action&#45;3 -->
<g id="node5" class="node">
<title>action&#45;3</title>
<polygon fill="white" stroke="black" points="36,-592 0,-592 0,-556 36,-556 36,-592"/>
</g>
<!-- action&#45;3&#45;&#45;cluster&#45;0 -->
<g id="edge27" class="edge">
<title>action&#45;3&#45;&#45;cluster&#45;0</title>
<path fill="none" stroke="black" d="M36.32,-581.66C48.01,-586.84 62.91,-593.43 71.94,-597.43"/>
</g>
<!-- action&#45;4 -->
<g id="node6" class="node">
<title>action&#45;4</title>
<polygon fill="white" stroke="black" points="162,-619 126,-619 126,-583 162,-583 162,-619"/>
</g>
<!-- cluster&#45;1 -->
<g id="node55" class="node">
<title>cluster&#45;1</title>
<polygon fill="black" stroke="black" stroke-width="0" points="216,-583 198,-583 198,-565 216,-565 216,-583"/>
</g>
<!-- action&#45;4&#45;&#45;cluster&#45;1 -->
<g id="edge28" class="edge">
<title>action&#45;4&#45;&#45;cluster&#45;1</title>
<path fill="none" stroke="black" d="M162.32,-593.34C174.01,-588.16 188.91,-581.57 197.94,-577.57"/>
</g>
<!-- action&#45;7 -->
<g id="node7" class="node">
<title>action&#45;7</title>
<polygon fill="white" stroke="black" points="162,-565 126,-565 126,-529 162,-529 162,-565"/>
</g>
<!-- action&#45;7&#45;&#45;cluster&#45;1 -->
<g id="edge29" class="edge">
<title>action&#45;7&#45;&#45;cluster&#45;1</title>
<path fill="none" stroke="black" d="M162.32,-554.66C174.01,-559.84 188.91,-566.43 197.94,-570.43"/>
</g>
<!-- action&#45;8 -->
<g id="node8" class="node">
<title>action&#45;8</title>
<polygon fill="white" stroke="black" points="288,-592 252,-592 252,-556 288,-556 288,-592"/>
</g>
<!-- cluster&#45;4 -->
<g id="node58" class="node">
<title>cluster&#45;4</title>
<polygon fill="black" stroke="black" stroke-width="0" points="342,-556 324,-556 324,-538 342,-538 342,-556"/>
</g>
<!-- action&#45;8&#45;&#45;cluster&#45;4 -->
<g id="edge34" class="edge">
<title>action&#45;8&#45;&#45;cluster&#45;4</title>
<path fill="none" stroke="black" d="M288.32,-566.34C300.01,-561.16 314.91,-554.57 323.94,-550.57"/>
</g>
<!-- action&#45;11 -->
<g id="node9" class="node">
<title>action&#45;11</title>
<polygon fill="white" stroke="black" points="1674,-430 1638,-430 1638,-394 1674,-394 1674,-430"/>
</g>
<!-- cluster&#45;2 -->
<g id="node56" class="node">
<title>cluster&#45;2</title>
<polygon fill="black" stroke="black" stroke-width="0" points="1728,-387 1710,-387 1710,-369 1728,-369 1728,-387"/>
</g>
<!-- action&#45;11&#45;&#45;cluster&#45;2 -->
<g id="edge30" class="edge">
<title>action&#45;11&#45;&#45;cluster&#45;2</title>
<path fill="none" stroke="black" d="M1674.32,-402.35C1686.01,-395.83 1700.91,-387.53 1709.94,-382.5"/>
</g>
<!-- action&#45;13 -->
<g id="node10" class="node">
<title>action&#45;13</title>
<polygon fill="white" stroke="black" points="1674,-376 1638,-376 1638,-340 1674,-340 1674,-376"/>
</g>
<!-- action&#45;13&#45;&#45;cluster&#45;2 -->
<g id="edge31" class="edge">
<title>action&#45;13&#45;&#45;cluster&#45;2</title>
<path fill="none" stroke="black" d="M1674.32,-363.68C1686.01,-367.51 1700.91,-372.4 1709.94,-375.36"/>
</g>
<!-- action&#45;14 -->
<g id="node11" class="node">
<title>action&#45;14</title>
<polygon fill="white" stroke="black" points="1800,-396 1764,-396 1764,-360 1800,-360 1800,-396"/>
</g>
<!-- cluster&#45;3 -->
<g id="node57" class="node">
<title>cluster&#45;3</title>
<polygon fill="black" stroke="black" stroke-width="0" points="1854,-343 1836,-343 1836,-325 1854,-325 1854,-343"/>
</g>
<!-- action&#45;14&#45;&#45;cluster&#45;3 -->
<g id="edge32" class="edge">
<title>action&#45;14&#45;&#45;cluster&#45;3</title>
<path fill="none" stroke="black" d="M1800.32,-365.51C1812.01,-357.07 1826.91,-346.33 1835.94,-339.82"/>
</g>
<!-- action&#45;17 -->
<g id="node12" class="node">
<title>action&#45;17</title>
<polygon fill="white" stroke="black" points="1800,-342 1764,-342 1764,-306 1800,-306 1800,-342"/>
</g>
<!-- action&#45;17&#45;&#45;cluster&#45;3 -->
<g id="edge33" class="edge">
<title>action&#45;17&#45;&#45;cluster&#45;3</title>
<path fill="none" stroke="black" d="M1800.32,-326.84C1812.01,-328.76 1826.91,-331.2 1835.94,-332.68"/>
</g>
<!-- action&#45;18 -->
<g id="node13" class="node">
<title>action&#45;18</title>
<polygon fill="white" stroke="black" points="1926,-352 1890,-352 1890,-316 1926,-316 1926,-352"/>
</g>
<!-- cluster&#45;13 -->
<g id="node67" class="node">
<title>cluster&#45;13</title>
<polygon fill="black" stroke="black" stroke-width="0" points="1980,-294 1962,-294 1962,-276 1980,-276 1980,-294"/>
</g>
<!-- action&#45;18&#45;&#45;cluster&#45;13 -->
<g id="edge52" class="edge">
<title>action&#45;18&#45;&#45;cluster&#45;13</title>
<path fill="none" stroke="black" d="M1926.32,-320.09C1938.01,-310.7 1952.91,-298.73 1961.94,-291.48"/>
</g>
<!-- action&#45;21 -->
<g id="node14" class="node">
<title>action&#45;21</title>
<polygon fill="white" stroke="black" points="288,-538 252,-538 252,-502 288,-502 288,-538"/>
</g>
<!-- action&#45;21&#45;&#45;cluster&#45;4 -->
<g id="edge35" class="edge">
<title>action&#45;21&#45;&#45;cluster&#45;4</title>
<path fill="none" stroke="black" d="M288.32,-527.66C300.01,-532.84 314.91,-539.43 323.94,-543.43"/>
</g>
<!-- action&#45;22 -->
<g id="node15" class="node">
<title>action&#45;22</title>
<polygon fill="white" stroke="black" points="414,-565 378,-565 378,-529 414,-529 414,-565"/>
</g>
<!-- cluster&#45;5 -->
<g id="node59" class="node">
<title>cluster&#45;5</title>
<polygon fill="black" stroke="black" stroke-width="0" points="468,-529 450,-529 450,-511 468,-511 468,-529"/>
</g>
<!-- action&#45;22&#45;&#45;cluster&#45;5 -->
<g id="edge36" class="edge">
<title>action&#45;22&#45;&#45;cluster&#45;5</title>
<path fill="none" stroke="black" d="M414.32,-539.34C426.01,-534.16 440.91,-527.57 449.94,-523.57"/>
</g>
<!-- action&#45;25 -->
<g id="node16" class="node">
<title>action&#45;25</title>
<polygon fill="white" stroke="black" points="414,-511 378,-511 378,-475 414,-475 414,-511"/>
</g>
<!-- action&#45;25&#45;&#45;cluster&#45;5 -->
<g id="edge37" class="edge">
<title>action&#45;25&#45;&#45;cluster&#45;5</title>
<path fill="none" stroke="black" d="M414.32,-500.66C426.01,-505.84 440.91,-512.43 449.94,-516.43"/>
</g>
<!-- action&#45;26 -->
<g id="node17" class="node">
<title>action&#45;26</title>
<polygon fill="white" stroke="black" points="540,-538 504,-538 504,-502 540,-502 540,-538"/>
</g>
<!-- cluster&#45;6 -->
<g id="node60" class="node">
<title>cluster&#45;6</title>
<polygon fill="black" stroke="black" stroke-width="0" points="594,-502 576,-502 576,-484 594,-484 594,-502"/>
</g>
<!-- action&#45;26&#45;&#45;cluster&#45;6 -->
<g id="edge38" class="edge">
<title>action&#45;26&#45;&#45;cluster&#45;6</title>
<path fill="none" stroke="black" d="M540.32,-512.34C552.01,-507.16 566.91,-500.57 575.94,-496.57"/>
</g>
<!-- action&#45;31 -->
<g id="node18" class="node">
<title>action&#45;31</title>
<polygon fill="white" stroke="black" points="540,-484 504,-484 504,-448 540,-448 540,-484"/>
</g>
<!-- action&#45;31&#45;&#45;cluster&#45;6 -->
<g id="edge39" class="edge">
<title>action&#45;31&#45;&#45;cluster&#45;6</title>
<path fill="none" stroke="black" d="M540.32,-473.66C552.01,-478.84 566.91,-485.43 575.94,-489.43"/>
</g>
<!-- action&#45;32 -->
<g id="node19" class="node">
<title>action&#45;32</title>
<polygon fill="white" stroke="black" points="666,-511 630,-511 630,-475 666,-475 666,-511"/>
</g>
<!-- cluster&#45;7 -->
<g id="node61" class="node">
<title>cluster&#45;7</title>
<polygon fill="black" stroke="black" stroke-width="0" points="720,-475 702,-475 702,-457 720,-457 720,-475"/>
</g>
<!-- action&#45;32&#45;&#45;cluster&#45;7 -->
<g id="edge40" class="edge">
<title>action&#45;32&#45;&#45;cluster&#45;7</title>
<path fill="none" stroke="black" d="M666.32,-485.34C678.01,-480.16 692.91,-473.57 701.94,-469.57"/>
</g>
<!-- action&#45;35 -->
<g id="node20" class="node">
<title>action&#45;35</title>
<polygon fill="white" stroke="black" points="666,-457 630,-457 630,-421 666,-421 666,-457"/>
</g>
<!-- action&#45;35&#45;&#45;cluster&#45;7 -->
<g id="edge41" class="edge">
<title>action&#45;35&#45;&#45;cluster&#45;7</title>
<path fill="none" stroke="black" d="M666.32,-446.66C678.01,-451.84 692.91,-458.43 701.94,-462.43"/>
</g>
<!-- action&#45;36 -->
<g id="node21" class="node">
<title>action&#45;36</title>
<polygon fill="white" stroke="black" points="792,-484 756,-484 756,-448 792,-448 792,-484"/>
</g>
<!-- cluster&#45;8 -->
<g id="node62" class="node">
<title>cluster&#45;8</title>
<polygon fill="black" stroke="black" stroke-width="0" points="846,-448 828,-448 828,-430 846,-430 846,-448"/>
</g>
<!-- action&#45;36&#45;&#45;cluster&#45;8 -->
<g id="edge42" class="edge">
<title>action&#45;36&#45;&#45;cluster&#45;8</title>
<path fill="none" stroke="black" d="M792.32,-458.34C804.01,-453.16 818.91,-446.57 827.94,-442.57"/>
</g>
<!-- action&#45;39 -->
<g id="node22" class="node">
<title>action&#45;39</title>
<polygon fill="white" stroke="black" points="792,-430 756,-430 756,-394 792,-394 792,-430"/>
</g>
<!-- action&#45;39&#45;&#45;cluster&#45;8 -->
<g id="edge43" class="edge">
<title>action&#45;39&#45;&#45;cluster&#45;8</title>
<path fill="none" stroke="black" d="M792.32,-419.66C804.01,-424.84 818.91,-431.43 827.94,-435.43"/>
</g>
<!-- action&#45;40 -->
<g id="node23" class="node">
<title>action&#45;40</title>
<polygon fill="white" stroke="black" points="918,-457 882,-457 882,-421 918,-421 918,-457"/>
</g>
<!-- cluster&#45;9 -->
<g id="node63" class="node">
<title>cluster&#45;9</title>
<polygon fill="black" stroke="black" stroke-width="0" points="972,-421 954,-421 954,-403 972,-403 972,-421"/>
</g>
<!-- action&#45;40&#45;&#45;cluster&#45;9 -->
<g id="edge44" class="edge">
<title>action&#45;40&#45;&#45;cluster&#45;9</title>
<path fill="none" stroke="black" d="M918.32,-431.34C930.01,-426.16 944.91,-419.57 953.94,-415.57"/>
</g>
<!-- action&#45;43 -->
<g id="node24" class="node">
<title>action&#45;43</title>
<polygon fill="white" stroke="black" points="918,-403 882,-403 882,-367 918,-367 918,-403"/>
</g>
<!-- action&#45;43&#45;&#45;cluster&#45;9 -->
<g id="edge45" class="edge">
<title>action&#45;43&#45;&#45;cluster&#45;9</title>
<path fill="none" stroke="black" d="M918.32,-392.66C930.01,-397.84 944.91,-404.43 953.94,-408.43"/>
</g>
<!-- action&#45;44 -->
<g id="node25" class="node">
<title>action&#45;44</title>
<polygon fill="white" stroke="black" points="1044,-430 1008,-430 1008,-394 1044,-394 1044,-430"/>
</g>
<!-- cluster&#45;10 -->
<g id="node64" class="node">
<title>cluster&#45;10</title>
<polygon fill="black" stroke="black" stroke-width="0" points="1098,-394 1080,-394 1080,-376 1098,-376 1098,-394"/>
</g>
<!-- action&#45;44&#45;&#45;cluster&#45;10 -->
<g id="edge46" class="edge">
<title>action&#45;44&#45;&#45;cluster&#45;10</title>
<path fill="none" stroke="black" d="M1044.32,-404.34C1056.01,-399.16 1070.91,-392.57 1079.94,-388.57"/>
</g>
<!-- action&#45;47 -->
<g id="node26" class="node">
<title>action&#45;47</title>
<polygon fill="white" stroke="black" points="1044,-376 1008,-376 1008,-340 1044,-340 1044,-376"/>
</g>
<!-- action&#45;47&#45;&#45;cluster&#45;10 -->
<g id="edge47" class="edge">
<title>action&#45;47&#45;&#45;cluster&#45;10</title>
<path fill="none" stroke="black" d="M1044.32,-365.66C1056.01,-370.84 1070.91,-377.43 1079.94,-381.43"/>
</g>
<!-- action&#45;48 -->
<g id="node27" class="node">
<title>action&#45;48</title>
<polygon fill="white" stroke="black" points="1170,-403 1134,-403 1134,-367 1170,-367 1170,-403"/>
</g>
<!-- cluster&#45;11 -->
<g id="node65" class="node">
<title>cluster&#45;11</title>
<polygon fill="black" stroke="black" stroke-width="0" points="1224,-367 1206,-367 1206,-349 1224,-349 1224,-367"/>
</g>
<!-- action&#45;48&#45;&#45;cluster&#45;11 -->
<g id="edge48" class="edge">
<title>action&#45;48&#45;&#45;cluster&#45;11</title>
<path fill="none" stroke="black" d="M1170.32,-377.34C1182.01,-372.16 1196.91,-365.57 1205.94,-361.57"/>
</g>
<!-- action&#45;51 -->
<g id="node28" class="node">
<title>action&#45;51</title>
<polygon fill="white" stroke="black" points="1170,-349 1134,-349 1134,-313 1170,-313 1170,-349"/>
</g>
<!-- action&#45;51&#45;&#45;cluster&#45;11 -->
<g id="edge49" class="edge">
<title>action&#45;51&#45;&#45;cluster&#45;11</title>
<path fill="none" stroke="black" d="M1170.32,-338.66C1182.01,-343.84 1196.91,-350.43 1205.94,-354.43"/>
</g>
<!-- action&#45;52 -->
<g id="node29" class="node">
<title>action&#45;52</title>
<polygon fill="white" stroke="black" points="1296,-376 1260,-376 1260,-340 1296,-340 1296,-376"/>
</g>
<!-- cluster&#45;12 -->
<g id="node66" class="node">
<title>cluster&#45;12</title>
<polygon fill="black" stroke="black" stroke-width="0" points="1350,-340 1332,-340 1332,-322 1350,-322 1350,-340"/>
</g>
<!-- action&#45;52&#45;&#45;cluster&#45;12 -->
<g id="edge50" class="edge">
<title>action&#45;52&#45;&#45;cluster&#45;12</title>
<path fill="none" stroke="black" d="M1296.32,-350.34C1308.01,-345.16 1322.91,-338.57 1331.94,-334.57"/>
</g>
<!-- action&#45;55 -->
<g id="node30" class="node">
<title>action&#45;55</title>
<polygon fill="white" stroke="black" points="1296,-322 1260,-322 1260,-286 1296,-286 1296,-322"/>
</g>
<!-- action&#45;55&#45;&#45;cluster&#45;12 -->
<g id="edge51" class="edge">
<title>action&#45;55&#45;&#45;cluster&#45;12</title>
<path fill="none" stroke="black" d="M1296.32,-311.66C1308.01,-316.84 1322.91,-323.43 1331.94,-327.43"/>
</g>
<!-- action&#45;56 -->
<g id="node31" class="node">
<title>action&#45;56</title>
<polygon fill="white" stroke="black" points="1422,-349 1386,-349 1386,-313 1422,-313 1422,-349"/>
</g>
<!-- cluster&#45;14 -->
<g id="node68" class="node">
<title>cluster&#45;14</title>
<polygon fill="black" stroke="black" stroke-width="0" points="1476,-313 1458,-313 1458,-295 1476,-295 1476,-313"/>
</g>
<!-- action&#45;56&#45;&#45;cluster&#45;14 -->
<g id="edge54" class="edge">
<title>action&#45;56&#45;&#45;cluster&#45;14</title>
<path fill="none" stroke="black" d="M1422.32,-323.34C1434.01,-318.16 1448.91,-311.57 1457.94,-307.57"/>
</g>
<!-- action&#45;59 -->
<g id="node32" class="node">
<title>action&#45;59</title>
<polygon fill="white" stroke="black" points="1926,-298 1890,-298 1890,-262 1926,-262 1926,-298"/>
</g>
<!-- action&#45;59&#45;&#45;cluster&#45;13 -->
<g id="edge53" class="edge">
<title>action&#45;59&#45;&#45;cluster&#45;13</title>
<path fill="none" stroke="black" d="M1926.32,-281.42C1938.01,-282.38 1952.91,-283.6 1961.94,-284.34"/>
</g>
<!-- action&#45;60 -->
<g id="node33" class="node">
<title>action&#45;60</title>
<polygon fill="white" stroke="black" points="2052,-303 2016,-303 2016,-267 2052,-267 2052,-303"/>
</g>
<!-- cluster&#45;16 -->
<g id="node70" class="node">
<title>cluster&#45;16</title>
<polygon fill="black" stroke="black" stroke-width="0" points="2106,-242 2088,-242 2088,-224 2106,-224 2106,-242"/>
</g>
<!-- action&#45;60&#45;&#45;cluster&#45;16 -->
<g id="edge58" class="edge">
<title>action&#45;60&#45;&#45;cluster&#45;16</title>
<path fill="none" stroke="black" d="M2052.32,-270.24C2064.01,-260.27 2078.91,-247.57 2087.94,-239.88"/>
</g>
<!-- action&#45;63 -->
<g id="node34" class="node">
<title>action&#45;63</title>
<polygon fill="white" stroke="black" points="1422,-295 1386,-295 1386,-259 1422,-259 1422,-295"/>
</g>
<!-- action&#45;63&#45;&#45;cluster&#45;14 -->
<g id="edge55" class="edge">
<title>action&#45;63&#45;&#45;cluster&#45;14</title>
<path fill="none" stroke="black" d="M1422.32,-284.66C1434.01,-289.84 1448.91,-296.43 1457.94,-300.43"/>
</g>
<!-- action&#45;64 -->
<g id="node35" class="node">
<title>action&#45;64</title>
<polygon fill="white" stroke="black" points="1548,-322 1512,-322 1512,-286 1548,-286 1548,-322"/>
</g>
<!-- cluster&#45;15 -->
<g id="node69" class="node">
<title>cluster&#45;15</title>
<polygon fill="black" stroke="black" stroke-width="0" points="1602,-286 1584,-286 1584,-268 1602,-268 1602,-286"/>
</g>
<!-- action&#45;64&#45;&#45;cluster&#45;15 -->
<g id="edge56" class="edge">
<title>action&#45;64&#45;&#45;cluster&#45;15</title>
<path fill="none" stroke="black" d="M1548.32,-296.34C1560.01,-291.16 1574.91,-284.57 1583.94,-280.57"/>
</g>
<!-- action&#45;67 -->
<g id="node36" class="node">
<title>action&#45;67</title>
<polygon fill="white" stroke="black" points="1548,-268 1512,-268 1512,-232 1548,-232 1548,-268"/>
</g>
<!-- action&#45;67&#45;&#45;cluster&#45;15 -->
<g id="edge57" class="edge">
<title>action&#45;67&#45;&#45;cluster&#45;15</title>
<path fill="none" stroke="black" d="M1548.32,-257.66C1560.01,-262.84 1574.91,-269.43 1583.94,-273.43"/>
</g>
<!-- action&#45;68 -->
<g id="node37" class="node">
<title>action&#45;68</title>
<polygon fill="white" stroke="black" points="1674,-295 1638,-295 1638,-259 1674,-259 1674,-295"/>
</g>
<!-- cluster&#45;18 -->
<g id="node72" class="node">
<title>cluster&#45;18</title>
<polygon fill="black" stroke="black" stroke-width="0" points="1728,-245 1710,-245 1710,-227 1728,-227 1728,-245"/>
</g>
<!-- action&#45;68&#45;&#45;cluster&#45;18 -->
<g id="edge62" class="edge">
<title>action&#45;68&#45;&#45;cluster&#45;18</title>
<path fill="none" stroke="black" d="M1674.32,-265.36C1686.01,-257.5 1700.91,-247.49 1709.94,-241.42"/>
</g>
<!-- action&#45;71 -->
<g id="node38" class="node">
<title>action&#45;71</title>
<polygon fill="white" stroke="black" points="2052,-249 2016,-249 2016,-213 2052,-213 2052,-249"/>
</g>
<!-- action&#45;71&#45;&#45;cluster&#45;16 -->
<g id="edge59" class="edge">
<title>action&#45;71&#45;&#45;cluster&#45;16</title>
<path fill="none" stroke="black" d="M2052.32,-231.57C2064.01,-231.95 2078.91,-232.44 2087.94,-232.74"/>
</g>
<!-- action&#45;72 -->
<g id="node39" class="node">
<title>action&#45;72</title>
<polygon fill="white" stroke="black" points="2178,-251 2142,-251 2142,-215 2178,-215 2178,-251"/>
</g>
<!-- cluster&#45;17 -->
<g id="node71" class="node">
<title>cluster&#45;17</title>
<polygon fill="black" stroke="black" stroke-width="0" points="2232,-189 2214,-189 2214,-171 2232,-171 2232,-189"/>
</g>
<!-- action&#45;72&#45;&#45;cluster&#45;17 -->
<g id="edge60" class="edge">
<title>action&#45;72&#45;&#45;cluster&#45;17</title>
<path fill="none" stroke="black" d="M2178.32,-217.95C2190.01,-207.79 2204.91,-194.85 2213.94,-187.01"/>
</g>
<!-- action&#45;75 -->
<g id="node40" class="node">
<title>action&#45;75</title>
<polygon fill="white" stroke="black" points="2178,-197 2142,-197 2142,-161 2178,-161 2178,-197"/>
</g>
<!-- action&#45;75&#45;&#45;cluster&#45;17 -->
<g id="edge61" class="edge">
<title>action&#45;75&#45;&#45;cluster&#45;17</title>
<path fill="none" stroke="black" d="M2178.32,-179.28C2190.01,-179.48 2204.91,-179.72 2213.94,-179.87"/>
</g>
<!-- action&#45;76 -->
<g id="node41" class="node">
<title>action&#45;76</title>
<polygon fill="white" stroke="black" points="2304,-198 2268,-198 2268,-162 2304,-162 2304,-198"/>
</g>
<!-- cluster&#45;20 -->
<g id="node74" class="node">
<title>cluster&#45;20</title>
<polygon fill="black" stroke="black" stroke-width="0" points="2358,-135 2340,-135 2340,-117 2358,-117 2358,-135"/>
</g>
<!-- action&#45;76&#45;&#45;cluster&#45;20 -->
<g id="edge66" class="edge">
<title>action&#45;76&#45;&#45;cluster&#45;20</title>
<path fill="none" stroke="black" d="M2304.32,-164.67C2316.01,-154.32 2330.91,-141.13 2339.94,-133.14"/>
</g>
<!-- action&#45;79 -->
<g id="node42" class="node">
<title>action&#45;79</title>
<polygon fill="white" stroke="black" points="1674,-241 1638,-241 1638,-205 1674,-205 1674,-241"/>
</g>
<!-- action&#45;79&#45;&#45;cluster&#45;18 -->
<g id="edge63" class="edge">
<title>action&#45;79&#45;&#45;cluster&#45;18</title>
<path fill="none" stroke="black" d="M1674.32,-226.69C1686.01,-229.18 1700.91,-232.36 1709.94,-234.28"/>
</g>
<!-- action&#45;80 -->
<g id="node43" class="node">
<title>action&#45;80</title>
<polygon fill="white" stroke="black" points="1800,-254 1764,-254 1764,-218 1800,-218 1800,-254"/>
</g>
<!-- cluster&#45;19 -->
<g id="node73" class="node">
<title>cluster&#45;19</title>
<polygon fill="black" stroke="black" stroke-width="0" points="1854,-191 1836,-191 1836,-173 1854,-173 1854,-191"/>
</g>
<!-- action&#45;80&#45;&#45;cluster&#45;19 -->
<g id="edge64" class="edge">
<title>action&#45;80&#45;&#45;cluster&#45;19</title>
<path fill="none" stroke="black" d="M1800.32,-220.67C1812.01,-210.32 1826.91,-197.13 1835.94,-189.14"/>
</g>
<!-- action&#45;83 -->
<g id="node44" class="node">
<title>action&#45;83</title>
<polygon fill="white" stroke="black" points="1800,-200 1764,-200 1764,-164 1800,-164 1800,-200"/>
</g>
<!-- action&#45;83&#45;&#45;cluster&#45;19 -->
<g id="edge65" class="edge">
<title>action&#45;83&#45;&#45;cluster&#45;19</title>
<path fill="none" stroke="black" d="M1800.32,-182C1812.01,-182 1826.91,-182 1835.94,-182"/>
</g>
<!-- action&#45;84 -->
<g id="node45" class="node">
<title>action&#45;84</title>
<polygon fill="white" stroke="black" points="1926,-200 1890,-200 1890,-164 1926,-164 1926,-200"/>
</g>
<!-- cluster&#45;21 -->
<g id="node75" class="node">
<title>cluster&#45;21</title>
<polygon fill="black" stroke="black" stroke-width="0" points="1980,-137 1962,-137 1962,-119 1980,-119 1980,-137"/>
</g>
<!-- action&#45;84&#45;&#45;cluster&#45;21 -->
<g id="edge68" class="edge">
<title>action&#45;84&#45;&#45;cluster&#45;21</title>
<path fill="none" stroke="black" d="M1926.32,-166.67C1938.01,-156.32 1952.91,-143.13 1961.94,-135.14"/>
</g>
<!-- action&#45;87 -->
<g id="node46" class="node">
<title>action&#45;87</title>
<polygon fill="white" stroke="black" points="2304,-144 2268,-144 2268,-108 2304,-108 2304,-144"/>
</g>
<!-- action&#45;87&#45;&#45;cluster&#45;20 -->
<g id="edge67" class="edge">
<title>action&#45;87&#45;&#45;cluster&#45;20</title>
<path fill="none" stroke="black" d="M2304.32,-126C2316.01,-126 2330.91,-126 2339.94,-126"/>
</g>
<!-- action&#45;91 -->
<g id="node47" class="node">
<title>action&#45;91</title>
<polygon fill="white" stroke="black" points="1926,-146 1890,-146 1890,-110 1926,-110 1926,-146"/>
</g>
<!-- action&#45;91&#45;&#45;cluster&#45;21 -->
<g id="edge69" class="edge">
<title>action&#45;91&#45;&#45;cluster&#45;21</title>
<path fill="none" stroke="black" d="M1926.32,-128C1938.01,-128 1952.91,-128 1961.94,-128"/>
</g>
<!-- action&#45;92 -->
<g id="node48" class="node">
<title>action&#45;92</title>
<polygon fill="white" stroke="black" points="2052,-146 2016,-146 2016,-110 2052,-110 2052,-146"/>
</g>
<!-- cluster&#45;22 -->
<g id="node76" class="node">
<title>cluster&#45;22</title>
<polygon fill="black" stroke="black" stroke-width="0" points="2106,-83 2088,-83 2088,-65 2106,-65 2106,-83"/>
</g>
<!-- action&#45;92&#45;&#45;cluster&#45;22 -->
<g id="edge70" class="edge">
<title>action&#45;92&#45;&#45;cluster&#45;22</title>
<path fill="none" stroke="black" d="M2052.32,-112.67C2064.01,-102.32 2078.91,-89.13 2087.94,-81.14"/>
</g>
<!-- action&#45;95 -->
<g id="node49" class="node">
<title>action&#45;95</title>
<polygon fill="white" stroke="black" points="2052,-92 2016,-92 2016,-56 2052,-56 2052,-92"/>
</g>
<!-- action&#45;95&#45;&#45;cluster&#45;22 -->
<g id="edge71" class="edge">
<title>action&#45;95&#45;&#45;cluster&#45;22</title>
<path fill="none" stroke="black" d="M2052.32,-74C2064.01,-74 2078.91,-74 2087.94,-74"/>
</g>
<!-- action&#45;96 -->
<g id="node50" class="node">
<title>action&#45;96</title>
<polygon fill="white" stroke="black" points="2178,-92 2142,-92 2142,-56 2178,-56 2178,-92"/>
</g>
<!-- cluster&#45;23 -->
<g id="node77" class="node">
<title>cluster&#45;23</title>
<polygon fill="black" stroke="black" stroke-width="0" points="2232,-81 2214,-81 2214,-63 2232,-63 2232,-81"/>
</g>
<!-- action&#45;96&#45;&#45;cluster&#45;23 -->
<g id="edge72" class="edge">
<title>action&#45;96&#45;&#45;cluster&#45;23</title>
<path fill="none" stroke="black" d="M2178.32,-73.43C2190.01,-73.05 2204.91,-72.56 2213.94,-72.26"/>
</g>
<!-- action&#45;99 -->
<g id="node51" class="node">
<title>action&#45;99</title>
<polygon fill="white" stroke="black" points="2178,-38 2142,-38 2142,-2 2178,-2 2178,-38"/>
</g>
<!-- action&#45;99&#45;&#45;cluster&#45;23 -->
<g id="edge73" class="edge">
<title>action&#45;99&#45;&#45;cluster&#45;23</title>
<path fill="none" stroke="black" d="M2178.32,-34.76C2190.01,-44.73 2204.91,-57.43 2213.94,-65.12"/>
</g>
<!-- action&#45;100 -->
<g id="node52" class="node">
<title>action&#45;100</title>
<polygon fill="#c9211e" stroke="black" points="2304,-90 2268,-90 2268,-54 2304,-54 2304,-90"/>
</g>
<!-- cluster&#45;24 -->
<g id="node78" class="node">
<title>cluster&#45;24</title>
<polygon fill="black" stroke="black" stroke-width="0" points="2358,-81 2340,-81 2340,-63 2358,-63 2358,-81"/>
</g>
<!-- action&#45;100&#45;&#45;cluster&#45;24 -->
<g id="edge74" class="edge">
<title>action&#45;100&#45;&#45;cluster&#45;24</title>
<path fill="none" stroke="black" d="M2304.32,-72C2316.01,-72 2330.91,-72 2339.94,-72"/>
</g>
<!-- action&#45;103 -->
<g id="node53" class="node">
<title>action&#45;103</title>
<polygon fill="#00008b" stroke="black" points="2304,-36 2268,-36 2268,0 2304,0 2304,-36"/>
</g>
<!-- action&#45;103&#45;&#45;cluster&#45;24 -->
<g id="edge75" class="edge">
<title>action&#45;103&#45;&#45;cluster&#45;24</title>
<path fill="none" stroke="black" d="M2304.32,-33.33C2316.01,-43.68 2330.91,-56.87 2339.94,-64.86"/>
</g>
<!-- cluster&#45;0&#45;&#45;action&#45;4 -->
<g id="edge1" class="edge">
<title>cluster&#45;0&#45;&#45;action&#45;4</title>
<path fill="none" stroke="black" d="M90.23,-601C99.33,-601 114.26,-601 125.92,-601"/>
</g>
<!-- cluster&#45;1&#45;&#45;action&#45;8 -->
<g id="edge2" class="edge">
<title>cluster&#45;1&#45;&#45;action&#45;8</title>
<path fill="none" stroke="black" d="M216.23,-574C225.33,-574 240.26,-574 251.92,-574"/>
</g>
<!-- cluster&#45;2&#45;&#45;action&#45;14 -->
<g id="edge3" class="edge">
<title>cluster&#45;2&#45;&#45;action&#45;14</title>
<path fill="none" stroke="black" d="M1728.23,-378C1737.33,-378 1752.26,-378 1763.92,-378"/>
</g>
<!-- cluster&#45;3&#45;&#45;action&#45;18 -->
<g id="edge4" class="edge">
<title>cluster&#45;3&#45;&#45;action&#45;18</title>
<path fill="none" stroke="black" d="M1854.23,-334C1863.33,-334 1878.26,-334 1889.92,-334"/>
</g>
<!-- cluster&#45;4&#45;&#45;action&#45;22 -->
<g id="edge5" class="edge">
<title>cluster&#45;4&#45;&#45;action&#45;22</title>
<path fill="none" stroke="black" d="M342.23,-547C351.33,-547 366.26,-547 377.92,-547"/>
</g>
<!-- cluster&#45;5&#45;&#45;action&#45;26 -->
<g id="edge6" class="edge">
<title>cluster&#45;5&#45;&#45;action&#45;26</title>
<path fill="none" stroke="black" d="M468.23,-520C477.33,-520 492.26,-520 503.92,-520"/>
</g>
<!-- cluster&#45;6&#45;&#45;action&#45;32 -->
<g id="edge7" class="edge">
<title>cluster&#45;6&#45;&#45;action&#45;32</title>
<path fill="none" stroke="black" d="M594.23,-493C603.33,-493 618.26,-493 629.92,-493"/>
</g>
<!-- cluster&#45;7&#45;&#45;action&#45;36 -->
<g id="edge8" class="edge">
<title>cluster&#45;7&#45;&#45;action&#45;36</title>
<path fill="none" stroke="black" d="M720.23,-466C729.33,-466 744.26,-466 755.92,-466"/>
</g>
<!-- cluster&#45;8&#45;&#45;action&#45;40 -->
<g id="edge9" class="edge">
<title>cluster&#45;8&#45;&#45;action&#45;40</title>
<path fill="none" stroke="black" d="M846.23,-439C855.33,-439 870.26,-439 881.92,-439"/>
</g>
<!-- cluster&#45;9&#45;&#45;action&#45;44 -->
<g id="edge10" class="edge">
<title>cluster&#45;9&#45;&#45;action&#45;44</title>
<path fill="none" stroke="black" d="M972.23,-412C981.33,-412 996.26,-412 1007.92,-412"/>
</g>
<!-- cluster&#45;10&#45;&#45;action&#45;48 -->
<g id="edge11" class="edge">
<title>cluster&#45;10&#45;&#45;action&#45;48</title>
<path fill="none" stroke="black" d="M1098.23,-385C1107.33,-385 1122.26,-385 1133.92,-385"/>
</g>
<!-- cluster&#45;11&#45;&#45;action&#45;52 -->
<g id="edge12" class="edge">
<title>cluster&#45;11&#45;&#45;action&#45;52</title>
<path fill="none" stroke="black" d="M1224.23,-358C1233.33,-358 1248.26,-358 1259.92,-358"/>
</g>
<!-- cluster&#45;12&#45;&#45;action&#45;56 -->
<g id="edge13" class="edge">
<title>cluster&#45;12&#45;&#45;action&#45;56</title>
<path fill="none" stroke="black" d="M1350.23,-331C1359.33,-331 1374.26,-331 1385.92,-331"/>
</g>
<!-- cluster&#45;13&#45;&#45;action&#45;60 -->
<g id="edge14" class="edge">
<title>cluster&#45;13&#45;&#45;action&#45;60</title>
<path fill="none" stroke="black" d="M1980.23,-285C1989.33,-285 2004.26,-285 2015.92,-285"/>
</g>
<!-- cluster&#45;14&#45;&#45;action&#45;64 -->
<g id="edge15" class="edge">
<title>cluster&#45;14&#45;&#45;action&#45;64</title>
<path fill="none" stroke="black" d="M1476.23,-304C1485.33,-304 1500.26,-304 1511.92,-304"/>
</g>
<!-- cluster&#45;15&#45;&#45;action&#45;68 -->
<g id="edge16" class="edge">
<title>cluster&#45;15&#45;&#45;action&#45;68</title>
<path fill="none" stroke="black" d="M1602.23,-277C1611.33,-277 1626.26,-277 1637.92,-277"/>
</g>
<!-- cluster&#45;16&#45;&#45;action&#45;72 -->
<g id="edge17" class="edge">
<title>cluster&#45;16&#45;&#45;action&#45;72</title>
<path fill="none" stroke="black" d="M2106.23,-233C2115.33,-233 2130.26,-233 2141.92,-233"/>
</g>
<!-- cluster&#45;17&#45;&#45;action&#45;76 -->
<g id="edge18" class="edge">
<title>cluster&#45;17&#45;&#45;action&#45;76</title>
<path fill="none" stroke="black" d="M2232.23,-180C2241.33,-180 2256.26,-180 2267.92,-180"/>
</g>
<!-- cluster&#45;18&#45;&#45;action&#45;80 -->
<g id="edge19" class="edge">
<title>cluster&#45;18&#45;&#45;action&#45;80</title>
<path fill="none" stroke="black" d="M1728.23,-236C1737.33,-236 1752.26,-236 1763.92,-236"/>
</g>
<!-- cluster&#45;19&#45;&#45;action&#45;84 -->
<g id="edge20" class="edge">
<title>cluster&#45;19&#45;&#45;action&#45;84</title>
<path fill="none" stroke="black" d="M1854.23,-182C1863.33,-182 1878.26,-182 1889.92,-182"/>
</g>
<!-- cluster&#45;20&#45;&#45;action&#45;88 -->
<g id="edge21" class="edge">
<title>cluster&#45;20&#45;&#45;action&#45;88</title>
<path fill="none" stroke="black" d="M2358.23,-126C2367.33,-126 2382.26,-126 2393.92,-126"/>
</g>
<!-- cluster&#45;21&#45;&#45;action&#45;92 -->
<g id="edge22" class="edge">
<title>cluster&#45;21&#45;&#45;action&#45;92</title>
<path fill="none" stroke="black" d="M1980.23,-128C1989.33,-128 2004.26,-128 2015.92,-128"/>
</g>
<!-- cluster&#45;22&#45;&#45;action&#45;96 -->
<g id="edge23" class="edge">
<title>cluster&#45;22&#45;&#45;action&#45;96</title>
<path fill="none" stroke="black" d="M2106.23,-74C2115.33,-74 2130.26,-74 2141.92,-74"/>
</g>
<!-- cluster&#45;23&#45;&#45;action&#45;100 -->
<g id="edge24" class="edge">
<title>cluster&#45;23&#45;&#45;action&#45;100</title>
<path fill="none" stroke="black" d="M2232.23,-72C2241.33,-72 2256.26,-72 2267.92,-72"/>
</g>
<!-- cluster&#45;24&#45;&#45;action&#45;104 -->
<g id="edge25" class="edge">
<title>cluster&#45;24&#45;&#45;action&#45;104</title>
<path fill="none" stroke="black" d="M2358.23,-72C2367.33,-72 2382.26,-72 2393.92,-72"/>
</g>
</g>
</svg>
