<?xml version="1.0" encoding="UTF-8" standalone="no"?>
<!DOCTYPE svg PUBLIC "-//W3C//DTD SVG 1.1//EN"
 "http://www.w3.org/Graphics/SVG/1.1/DTD/svg11.dtd">
<!-- Generated by graphviz version 2.43.0 (0)
 -->
<!-- Title: g Pages: 1 -->
<svg width="3084pt" height="858pt"
 viewBox="0.00 0.00 3084.00 858.00" xmlns="http://www.w3.org/2000/svg" xmlns:xlink="http://www.w3.org/1999/xlink">
<g id="graph0" class="graph" transform="scale(1 1) rotate(0) translate(4 854)">
<title>g</title>
<polygon fill="white" stroke="transparent" points="-4,4 -4,-854 3080,-854 3080,4 -4,4"/>
<g id="clust1" class="cluster">
<title>cluster_actionlib</title>
<polygon fill="none" stroke="black" points="3016,-8 3016,-222 3068,-222 3068,-8 3016,-8"/>
</g>
<!-- action&#45;29 -->
<g id="node1" class="node">
<title>action&#45;29</title>
<polygon fill="white" stroke="black" stroke-width="4" points="3060,-214 3024,-214 3024,-178 3060,-178 3060,-214"/>
</g>
<!-- action&#45;112 -->
<g id="node2" class="node">
<title>action&#45;112</title>
<polygon fill="white" stroke="black" stroke-width="4" points="3060,-160 3024,-160 3024,-124 3060,-124 3060,-160"/>
</g>
<!-- action&#45;132 -->
<g id="node3" class="node">
<title>action&#45;132</title>
<polygon fill="white" stroke="black" stroke-width="4" points="3060,-106 3024,-106 3024,-70 3060,-70 3060,-106"/>
</g>
<!-- action&#45;135 -->
<g id="node4" class="node">
<title>action&#45;135</title>
<polygon fill="#008000" stroke="black" stroke-width="4" points="3060,-52 3024,-52 3024,-16 3060,-16 3060,-52"/>
</g>
<!-- action&#45;1 -->
<g id="node5" class="node">
<title>action&#45;1</title>
<polygon fill="white" stroke="black" points="36,-850 0,-850 0,-814 36,-814 36,-850"/>
</g>
<!-- cluster&#45;0 -->
<g id="node69" class="node">
<title>cluster&#45;0</title>
<polygon fill="black" stroke="black" stroke-width="0" points="90,-814 72,-814 72,-796 90,-796 90,-814"/>
</g>
<!-- action&#45;1&#45;&#45;cluster&#45;0 -->
<g id="edge33" class="edge">
<title>action&#45;1&#45;&#45;cluster&#45;0</title>
<path fill="none" stroke="black" d="M36.32,-824.34C48.01,-819.16 62.91,-812.57 71.94,-808.57"/>
</g>
<!-- action&#45;3 -->
<g id="node6" class="node">
<title>action&#45;3</title>
<polygon fill="white" stroke="black" points="36,-796 0,-796 0,-760 36,-760 36,-796"/>
</g>
<!-- action&#45;3&#45;&#45;cluster&#45;0 -->
<g id="edge34" class="edge">
<title>action&#45;3&#45;&#45;cluster&#45;0</title>
<path fill="none" stroke="black" d="M36.32,-785.66C48.01,-790.84 62.91,-797.43 71.94,-801.43"/>
</g>
<!-- action&#45;4 -->
<g id="node7" class="node">
<title>action&#45;4</title>
<polygon fill="white" stroke="black" points="162,-823 126,-823 126,-787 162,-787 162,-823"/>
</g>
<!-- cluster&#45;1 -->
<g id="node70" class="node">
<title>cluster&#45;1</title>
<polygon fill="black" stroke="black" stroke-width="0" points="216,-787 198,-787 198,-769 216,-769 216,-787"/>
</g>
<!-- action&#45;4&#45;&#45;cluster&#45;1 -->
<g id="edge35" class="edge">
<title>action&#45;4&#45;&#45;cluster&#45;1</title>
<path fill="none" stroke="black" d="M162.32,-797.34C174.01,-792.16 188.91,-785.57 197.94,-781.57"/>
</g>
<!-- action&#45;7 -->
<g id="node8" class="node">
<title>action&#45;7</title>
<polygon fill="white" stroke="black" points="162,-769 126,-769 126,-733 162,-733 162,-769"/>
</g>
<!-- action&#45;7&#45;&#45;cluster&#45;1 -->
<g id="edge36" class="edge">
<title>action&#45;7&#45;&#45;cluster&#45;1</title>
<path fill="none" stroke="black" d="M162.32,-758.66C174.01,-763.84 188.91,-770.43 197.94,-774.43"/>
</g>
<!-- action&#45;8 -->
<g id="node9" class="node">
<title>action&#45;8</title>
<polygon fill="white" stroke="black" points="288,-796 252,-796 252,-760 288,-760 288,-796"/>
</g>
<!-- cluster&#45;4 -->
<g id="node73" class="node">
<title>cluster&#45;4</title>
<polygon fill="black" stroke="black" stroke-width="0" points="342,-760 324,-760 324,-742 342,-742 342,-760"/>
</g>
<!-- action&#45;8&#45;&#45;cluster&#45;4 -->
<g id="edge41" class="edge">
<title>action&#45;8&#45;&#45;cluster&#45;4</title>
<path fill="none" stroke="black" d="M288.32,-770.34C300.01,-765.16 314.91,-758.57 323.94,-754.57"/>
</g>
<!-- action&#45;11 -->
<g id="node10" class="node">
<title>action&#45;11</title>
<polygon fill="white" stroke="black" points="2052,-553 2016,-553 2016,-517 2052,-517 2052,-553"/>
</g>
<!-- cluster&#45;2 -->
<g id="node71" class="node">
<title>cluster&#45;2</title>
<polygon fill="black" stroke="black" stroke-width="0" points="2106,-510 2088,-510 2088,-492 2106,-492 2106,-510"/>
</g>
<!-- action&#45;11&#45;&#45;cluster&#45;2 -->
<g id="edge37" class="edge">
<title>action&#45;11&#45;&#45;cluster&#45;2</title>
<path fill="none" stroke="black" d="M2052.32,-525.35C2064.01,-518.83 2078.91,-510.53 2087.94,-505.5"/>
</g>
<!-- action&#45;13 -->
<g id="node11" class="node">
<title>action&#45;13</title>
<polygon fill="white" stroke="black" points="2052,-499 2016,-499 2016,-463 2052,-463 2052,-499"/>
</g>
<!-- action&#45;13&#45;&#45;cluster&#45;2 -->
<g id="edge38" class="edge">
<title>action&#45;13&#45;&#45;cluster&#45;2</title>
<path fill="none" stroke="black" d="M2052.32,-486.68C2064.01,-490.51 2078.91,-495.4 2087.94,-498.36"/>
</g>
<!-- action&#45;14 -->
<g id="node12" class="node">
<title>action&#45;14</title>
<polygon fill="white" stroke="black" points="2178,-519 2142,-519 2142,-483 2178,-483 2178,-519"/>
</g>
<!-- cluster&#45;3 -->
<g id="node72" class="node">
<title>cluster&#45;3</title>
<polygon fill="black" stroke="black" stroke-width="0" points="2232,-466 2214,-466 2214,-448 2232,-448 2232,-466"/>
</g>
<!-- action&#45;14&#45;&#45;cluster&#45;3 -->
<g id="edge39" class="edge">
<title>action&#45;14&#45;&#45;cluster&#45;3</title>
<path fill="none" stroke="black" d="M2178.32,-488.51C2190.01,-480.07 2204.91,-469.33 2213.94,-462.82"/>
</g>
<!-- action&#45;17 -->
<g id="node13" class="node">
<title>action&#45;17</title>
<polygon fill="white" stroke="black" points="2178,-465 2142,-465 2142,-429 2178,-429 2178,-465"/>
</g>
<!-- action&#45;17&#45;&#45;cluster&#45;3 -->
<g id="edge40" class="edge">
<title>action&#45;17&#45;&#45;cluster&#45;3</title>
<path fill="none" stroke="black" d="M2178.32,-449.84C2190.01,-451.76 2204.91,-454.2 2213.94,-455.68"/>
</g>
<!-- action&#45;18 -->
<g id="node14" class="node">
<title>action&#45;18</title>
<polygon fill="white" stroke="black" points="2304,-475 2268,-475 2268,-439 2304,-439 2304,-475"/>
</g>
<!-- cluster&#45;13 -->
<g id="node82" class="node">
<title>cluster&#45;13</title>
<polygon fill="black" stroke="black" stroke-width="0" points="2358,-417 2340,-417 2340,-399 2358,-399 2358,-417"/>
</g>
<!-- action&#45;18&#45;&#45;cluster&#45;13 -->
<g id="edge59" class="edge">
<title>action&#45;18&#45;&#45;cluster&#45;13</title>
<path fill="none" stroke="black" d="M2304.32,-443.09C2316.01,-433.7 2330.91,-421.73 2339.94,-414.48"/>
</g>
<!-- action&#45;21 -->
<g id="node15" class="node">
<title>action&#45;21</title>
<polygon fill="white" stroke="black" points="288,-742 252,-742 252,-706 288,-706 288,-742"/>
</g>
<!-- action&#45;21&#45;&#45;cluster&#45;4 -->
<g id="edge42" class="edge">
<title>action&#45;21&#45;&#45;cluster&#45;4</title>
<path fill="none" stroke="black" d="M288.32,-731.66C300.01,-736.84 314.91,-743.43 323.94,-747.43"/>
</g>
<!-- action&#45;22 -->
<g id="node16" class="node">
<title>action&#45;22</title>
<polygon fill="white" stroke="black" points="414,-769 378,-769 378,-733 414,-733 414,-769"/>
</g>
<!-- cluster&#45;5 -->
<g id="node74" class="node">
<title>cluster&#45;5</title>
<polygon fill="black" stroke="black" stroke-width="0" points="468,-733 450,-733 450,-715 468,-715 468,-733"/>
</g>
<!-- action&#45;22&#45;&#45;cluster&#45;5 -->
<g id="edge43" class="edge">
<title>action&#45;22&#45;&#45;cluster&#45;5</title>
<path fill="none" stroke="black" d="M414.32,-743.34C426.01,-738.16 440.91,-731.57 449.94,-727.57"/>
</g>
<!-- action&#45;25 -->
<g id="node17" class="node">
<title>action&#45;25</title>
<polygon fill="white" stroke="black" points="414,-715 378,-715 378,-679 414,-679 414,-715"/>
</g>
<!-- action&#45;25&#45;&#45;cluster&#45;5 -->
<g id="edge44" class="edge">
<title>action&#45;25&#45;&#45;cluster&#45;5</title>
<path fill="none" stroke="black" d="M414.32,-704.66C426.01,-709.84 440.91,-716.43 449.94,-720.43"/>
</g>
<!-- action&#45;26 -->
<g id="node18" class="node">
<title>action&#45;26</title>
<polygon fill="white" stroke="black" points="540,-742 504,-742 504,-706 540,-706 540,-742"/>
</g>
<!-- cluster&#45;6 -->
<g id="node75" class="node">
<title>cluster&#45;6</title>
<polygon fill="black" stroke="black" stroke-width="0" points="594,-706 576,-706 576,-688 594,-688 594,-706"/>
</g>
<!-- action&#45;26&#45;&#45;cluster&#45;6 -->
<g id="edge45" class="edge">
<title>action&#45;26&#45;&#45;cluster&#45;6</title>
<path fill="none" stroke="black" d="M540.32,-716.34C552.01,-711.16 566.91,-704.57 575.94,-700.57"/>
</g>
<!-- action&#45;31 -->
<g id="node19" class="node">
<title>action&#45;31</title>
<polygon fill="white" stroke="black" points="540,-688 504,-688 504,-652 540,-652 540,-688"/>
</g>
<!-- action&#45;31&#45;&#45;cluster&#45;6 -->
<g id="edge46" class="edge">
<title>action&#45;31&#45;&#45;cluster&#45;6</title>
<path fill="none" stroke="black" d="M540.32,-677.66C552.01,-682.84 566.91,-689.43 575.94,-693.43"/>
</g>
<!-- action&#45;32 -->
<g id="node20" class="node">
<title>action&#45;32</title>
<polygon fill="white" stroke="black" points="666,-715 630,-715 630,-679 666,-679 666,-715"/>
</g>
<!-- cluster&#45;7 -->
<g id="node76" class="node">
<title>cluster&#45;7</title>
<polygon fill="black" stroke="black" stroke-width="0" points="720,-679 702,-679 702,-661 720,-661 720,-679"/>
</g>
<!-- action&#45;32&#45;&#45;cluster&#45;7 -->
<g id="edge47" class="edge">
<title>action&#45;32&#45;&#45;cluster&#45;7</title>
<path fill="none" stroke="black" d="M666.32,-689.34C678.01,-684.16 692.91,-677.57 701.94,-673.57"/>
</g>
<!-- action&#45;35 -->
<g id="node21" class="node">
<title>action&#45;35</title>
<polygon fill="white" stroke="black" points="666,-661 630,-661 630,-625 666,-625 666,-661"/>
</g>
<!-- action&#45;35&#45;&#45;cluster&#45;7 -->
<g id="edge48" class="edge">
<title>action&#45;35&#45;&#45;cluster&#45;7</title>
<path fill="none" stroke="black" d="M666.32,-650.66C678.01,-655.84 692.91,-662.43 701.94,-666.43"/>
</g>
<!-- action&#45;36 -->
<g id="node22" class="node">
<title>action&#45;36</title>
<polygon fill="white" stroke="black" points="792,-688 756,-688 756,-652 792,-652 792,-688"/>
</g>
<!-- cluster&#45;8 -->
<g id="node77" class="node">
<title>cluster&#45;8</title>
<polygon fill="black" stroke="black" stroke-width="0" points="846,-652 828,-652 828,-634 846,-634 846,-652"/>
</g>
<!-- action&#45;36&#45;&#45;cluster&#45;8 -->
<g id="edge49" class="edge">
<title>action&#45;36&#45;&#45;cluster&#45;8</title>
<path fill="none" stroke="black" d="M792.32,-662.34C804.01,-657.16 818.91,-650.57 827.94,-646.57"/>
</g>
<!-- action&#45;39 -->
<g id="node23" class="node">
<title>action&#45;39</title>
<polygon fill="white" stroke="black" points="792,-634 756,-634 756,-598 792,-598 792,-634"/>
</g>
<!-- action&#45;39&#45;&#45;cluster&#45;8 -->
<g id="edge50" class="edge">
<title>action&#45;39&#45;&#45;cluster&#45;8</title>
<path fill="none" stroke="black" d="M792.32,-623.66C804.01,-628.84 818.91,-635.43 827.94,-639.43"/>
</g>
<!-- action&#45;40 -->
<g id="node24" class="node">
<title>action&#45;40</title>
<polygon fill="white" stroke="black" points="918,-661 882,-661 882,-625 918,-625 918,-661"/>
</g>
<!-- cluster&#45;9 -->
<g id="node78" class="node">
<title>cluster&#45;9</title>
<polygon fill="black" stroke="black" stroke-width="0" points="972,-625 954,-625 954,-607 972,-607 972,-625"/>
</g>
<!-- action&#45;40&#45;&#45;cluster&#45;9 -->
<g id="edge51" class="edge">
<title>action&#45;40&#45;&#45;cluster&#45;9</title>
<path fill="none" stroke="black" d="M918.32,-635.34C930.01,-630.16 944.91,-623.57 953.94,-619.57"/>
</g>
<!-- action&#45;43 -->
<g id="node25" class="node">
<title>action&#45;43</title>
<polygon fill="white" stroke="black" points="918,-607 882,-607 882,-571 918,-571 918,-607"/>
</g>
<!-- action&#45;43&#45;&#45;cluster&#45;9 -->
<g id="edge52" class="edge">
<title>action&#45;43&#45;&#45;cluster&#45;9</title>
<path fill="none" stroke="black" d="M918.32,-596.66C930.01,-601.84 944.91,-608.43 953.94,-612.43"/>
</g>
<!-- action&#45;44 -->
<g id="node26" class="node">
<title>action&#45;44</title>
<polygon fill="white" stroke="black" points="1044,-634 1008,-634 1008,-598 1044,-598 1044,-634"/>
</g>
<!-- cluster&#45;10 -->
<g id="node79" class="node">
<title>cluster&#45;10</title>
<polygon fill="black" stroke="black" stroke-width="0" points="1098,-598 1080,-598 1080,-580 1098,-580 1098,-598"/>
</g>
<!-- action&#45;44&#45;&#45;cluster&#45;10 -->
<g id="edge53" class="edge">
<title>action&#45;44&#45;&#45;cluster&#45;10</title>
<path fill="none" stroke="black" d="M1044.32,-608.34C1056.01,-603.16 1070.91,-596.57 1079.94,-592.57"/>
</g>
<!-- action&#45;47 -->
<g id="node27" class="node">
<title>action&#45;47</title>
<polygon fill="white" stroke="black" points="1044,-580 1008,-580 1008,-544 1044,-544 1044,-580"/>
</g>
<!-- action&#45;47&#45;&#45;cluster&#45;10 -->
<g id="edge54" class="edge">
<title>action&#45;47&#45;&#45;cluster&#45;10</title>
<path fill="none" stroke="black" d="M1044.32,-569.66C1056.01,-574.84 1070.91,-581.43 1079.94,-585.43"/>
</g>
<!-- action&#45;48 -->
<g id="node28" class="node">
<title>action&#45;48</title>
<polygon fill="white" stroke="black" points="1170,-607 1134,-607 1134,-571 1170,-571 1170,-607"/>
</g>
<!-- cluster&#45;11 -->
<g id="node80" class="node">
<title>cluster&#45;11</title>
<polygon fill="black" stroke="black" stroke-width="0" points="1224,-571 1206,-571 1206,-553 1224,-553 1224,-571"/>
</g>
<!-- action&#45;48&#45;&#45;cluster&#45;11 -->
<g id="edge55" class="edge">
<title>action&#45;48&#45;&#45;cluster&#45;11</title>
<path fill="none" stroke="black" d="M1170.32,-581.34C1182.01,-576.16 1196.91,-569.57 1205.94,-565.57"/>
</g>
<!-- action&#45;51 -->
<g id="node29" class="node">
<title>action&#45;51</title>
<polygon fill="white" stroke="black" points="1170,-553 1134,-553 1134,-517 1170,-517 1170,-553"/>
</g>
<!-- action&#45;51&#45;&#45;cluster&#45;11 -->
<g id="edge56" class="edge">
<title>action&#45;51&#45;&#45;cluster&#45;11</title>
<path fill="none" stroke="black" d="M1170.32,-542.66C1182.01,-547.84 1196.91,-554.43 1205.94,-558.43"/>
</g>
<!-- action&#45;52 -->
<g id="node30" class="node">
<title>action&#45;52</title>
<polygon fill="white" stroke="black" points="1296,-580 1260,-580 1260,-544 1296,-544 1296,-580"/>
</g>
<!-- cluster&#45;12 -->
<g id="node81" class="node">
<title>cluster&#45;12</title>
<polygon fill="black" stroke="black" stroke-width="0" points="1350,-544 1332,-544 1332,-526 1350,-526 1350,-544"/>
</g>
<!-- action&#45;52&#45;&#45;cluster&#45;12 -->
<g id="edge57" class="edge">
<title>action&#45;52&#45;&#45;cluster&#45;12</title>
<path fill="none" stroke="black" d="M1296.32,-554.34C1308.01,-549.16 1322.91,-542.57 1331.94,-538.57"/>
</g>
<!-- action&#45;55 -->
<g id="node31" class="node">
<title>action&#45;55</title>
<polygon fill="white" stroke="black" points="1296,-526 1260,-526 1260,-490 1296,-490 1296,-526"/>
</g>
<!-- action&#45;55&#45;&#45;cluster&#45;12 -->
<g id="edge58" class="edge">
<title>action&#45;55&#45;&#45;cluster&#45;12</title>
<path fill="none" stroke="black" d="M1296.32,-515.66C1308.01,-520.84 1322.91,-527.43 1331.94,-531.43"/>
</g>
<!-- action&#45;56 -->
<g id="node32" class="node">
<title>action&#45;56</title>
<polygon fill="white" stroke="black" points="1422,-553 1386,-553 1386,-517 1422,-517 1422,-553"/>
</g>
<!-- cluster&#45;14 -->
<g id="node83" class="node">
<title>cluster&#45;14</title>
<polygon fill="black" stroke="black" stroke-width="0" points="1476,-517 1458,-517 1458,-499 1476,-499 1476,-517"/>
</g>
<!-- action&#45;56&#45;&#45;cluster&#45;14 -->
<g id="edge61" class="edge">
<title>action&#45;56&#45;&#45;cluster&#45;14</title>
<path fill="none" stroke="black" d="M1422.32,-527.34C1434.01,-522.16 1448.91,-515.57 1457.94,-511.57"/>
</g>
<!-- action&#45;59 -->
<g id="node33" class="node">
<title>action&#45;59</title>
<polygon fill="white" stroke="black" points="2304,-421 2268,-421 2268,-385 2304,-385 2304,-421"/>
</g>
<!-- action&#45;59&#45;&#45;cluster&#45;13 -->
<g id="edge60" class="edge">
<title>action&#45;59&#45;&#45;cluster&#45;13</title>
<path fill="none" stroke="black" d="M2304.32,-404.42C2316.01,-405.38 2330.91,-406.6 2339.94,-407.34"/>
</g>
<!-- action&#45;60 -->
<g id="node34" class="node">
<title>action&#45;60</title>
<polygon fill="white" stroke="black" points="2430,-426 2394,-426 2394,-390 2430,-390 2430,-426"/>
</g>
<!-- cluster&#45;16 -->
<g id="node85" class="node">
<title>cluster&#45;16</title>
<polygon fill="black" stroke="black" stroke-width="0" points="2484,-365 2466,-365 2466,-347 2484,-347 2484,-365"/>
</g>
<!-- action&#45;60&#45;&#45;cluster&#45;16 -->
<g id="edge65" class="edge">
<title>action&#45;60&#45;&#45;cluster&#45;16</title>
<path fill="none" stroke="black" d="M2430.32,-393.24C2442.01,-383.27 2456.91,-370.57 2465.94,-362.88"/>
</g>
<!-- action&#45;63 -->
<g id="node35" class="node">
<title>action&#45;63</title>
<polygon fill="white" stroke="black" points="1422,-499 1386,-499 1386,-463 1422,-463 1422,-499"/>
</g>
<!-- action&#45;63&#45;&#45;cluster&#45;14 -->
<g id="edge62" class="edge">
<title>action&#45;63&#45;&#45;cluster&#45;14</title>
<path fill="none" stroke="black" d="M1422.32,-488.66C1434.01,-493.84 1448.91,-500.43 1457.94,-504.43"/>
</g>
<!-- action&#45;64 -->
<g id="node36" class="node">
<title>action&#45;64</title>
<polygon fill="white" stroke="black" points="1548,-526 1512,-526 1512,-490 1548,-490 1548,-526"/>
</g>
<!-- cluster&#45;15 -->
<g id="node84" class="node">
<title>cluster&#45;15</title>
<polygon fill="black" stroke="black" stroke-width="0" points="1602,-490 1584,-490 1584,-472 1602,-472 1602,-490"/>
</g>
<!-- action&#45;64&#45;&#45;cluster&#45;15 -->
<g id="edge63" class="edge">
<title>action&#45;64&#45;&#45;cluster&#45;15</title>
<path fill="none" stroke="black" d="M1548.32,-500.34C1560.01,-495.16 1574.91,-488.57 1583.94,-484.57"/>
</g>
<!-- action&#45;67 -->
<g id="node37" class="node">
<title>action&#45;67</title>
<polygon fill="white" stroke="black" points="1548,-472 1512,-472 1512,-436 1548,-436 1548,-472"/>
</g>
<!-- action&#45;67&#45;&#45;cluster&#45;15 -->
<g id="edge64" class="edge">
<title>action&#45;67&#45;&#45;cluster&#45;15</title>
<path fill="none" stroke="black" d="M1548.32,-461.66C1560.01,-466.84 1574.91,-473.43 1583.94,-477.43"/>
</g>
<!-- action&#45;68 -->
<g id="node38" class="node">
<title>action&#45;68</title>
<polygon fill="white" stroke="black" points="1674,-499 1638,-499 1638,-463 1674,-463 1674,-499"/>
</g>
<!-- cluster&#45;18 -->
<g id="node87" class="node">
<title>cluster&#45;18</title>
<polygon fill="black" stroke="black" stroke-width="0" points="1728,-463 1710,-463 1710,-445 1728,-445 1728,-463"/>
</g>
<!-- action&#45;68&#45;&#45;cluster&#45;18 -->
<g id="edge69" class="edge">
<title>action&#45;68&#45;&#45;cluster&#45;18</title>
<path fill="none" stroke="black" d="M1674.32,-473.34C1686.01,-468.16 1700.91,-461.57 1709.94,-457.57"/>
</g>
<!-- action&#45;71 -->
<g id="node39" class="node">
<title>action&#45;71</title>
<polygon fill="white" stroke="black" points="2430,-372 2394,-372 2394,-336 2430,-336 2430,-372"/>
</g>
<!-- action&#45;71&#45;&#45;cluster&#45;16 -->
<g id="edge66" class="edge">
<title>action&#45;71&#45;&#45;cluster&#45;16</title>
<path fill="none" stroke="black" d="M2430.32,-354.57C2442.01,-354.95 2456.91,-355.44 2465.94,-355.74"/>
</g>
<!-- action&#45;72 -->
<g id="node40" class="node">
<title>action&#45;72</title>
<polygon fill="white" stroke="black" points="2556,-374 2520,-374 2520,-338 2556,-338 2556,-374"/>
</g>
<!-- cluster&#45;17 -->
<g id="node86" class="node">
<title>cluster&#45;17</title>
<polygon fill="black" stroke="black" stroke-width="0" points="2610,-312 2592,-312 2592,-294 2610,-294 2610,-312"/>
</g>
<!-- action&#45;72&#45;&#45;cluster&#45;17 -->
<g id="edge67" class="edge">
<title>action&#45;72&#45;&#45;cluster&#45;17</title>
<path fill="none" stroke="black" d="M2556.32,-340.95C2568.01,-330.79 2582.91,-317.85 2591.94,-310.01"/>
</g>
<!-- action&#45;75 -->
<g id="node41" class="node">
<title>action&#45;75</title>
<polygon fill="white" stroke="black" points="2556,-320 2520,-320 2520,-284 2556,-284 2556,-320"/>
</g>
<!-- action&#45;75&#45;&#45;cluster&#45;17 -->
<g id="edge68" class="edge">
<title>action&#45;75&#45;&#45;cluster&#45;17</title>
<path fill="none" stroke="black" d="M2556.32,-302.28C2568.01,-302.48 2582.91,-302.72 2591.94,-302.87"/>
</g>
<!-- action&#45;76 -->
<g id="node42" class="node">
<title>action&#45;76</title>
<polygon fill="white" stroke="black" points="2682,-321 2646,-321 2646,-285 2682,-285 2682,-321"/>
</g>
<!-- cluster&#45;20 -->
<g id="node89" class="node">
<title>cluster&#45;20</title>
<polygon fill="black" stroke="black" stroke-width="0" points="2736,-259 2718,-259 2718,-241 2736,-241 2736,-259"/>
</g>
<!-- action&#45;76&#45;&#45;cluster&#45;20 -->
<g id="edge73" class="edge">
<title>action&#45;76&#45;&#45;cluster&#45;20</title>
<path fill="none" stroke="black" d="M2682.32,-287.95C2694.01,-277.79 2708.91,-264.85 2717.94,-257.01"/>
</g>
<!-- action&#45;79 -->
<g id="node43" class="node">
<title>action&#45;79</title>
<polygon fill="white" stroke="black" points="1674,-445 1638,-445 1638,-409 1674,-409 1674,-445"/>
</g>
<!-- action&#45;79&#45;&#45;cluster&#45;18 -->
<g id="edge70" class="edge">
<title>action&#45;79&#45;&#45;cluster&#45;18</title>
<path fill="none" stroke="black" d="M1674.32,-434.66C1686.01,-439.84 1700.91,-446.43 1709.94,-450.43"/>
</g>
<!-- action&#45;80 -->
<g id="node44" class="node">
<title>action&#45;80</title>
<polygon fill="white" stroke="black" points="1800,-472 1764,-472 1764,-436 1800,-436 1800,-472"/>
</g>
<!-- cluster&#45;19 -->
<g id="node88" class="node">
<title>cluster&#45;19</title>
<polygon fill="black" stroke="black" stroke-width="0" points="1854,-436 1836,-436 1836,-418 1854,-418 1854,-436"/>
</g>
<!-- action&#45;80&#45;&#45;cluster&#45;19 -->
<g id="edge71" class="edge">
<title>action&#45;80&#45;&#45;cluster&#45;19</title>
<path fill="none" stroke="black" d="M1800.32,-446.34C1812.01,-441.16 1826.91,-434.57 1835.94,-430.57"/>
</g>
<!-- action&#45;83 -->
<g id="node45" class="node">
<title>action&#45;83</title>
<polygon fill="white" stroke="black" points="1800,-418 1764,-418 1764,-382 1800,-382 1800,-418"/>
</g>
<!-- action&#45;83&#45;&#45;cluster&#45;19 -->
<g id="edge72" class="edge">
<title>action&#45;83&#45;&#45;cluster&#45;19</title>
<path fill="none" stroke="black" d="M1800.32,-407.66C1812.01,-412.84 1826.91,-419.43 1835.94,-423.43"/>
</g>
<!-- action&#45;84 -->
<g id="node46" class="node">
<title>action&#45;84</title>
<polygon fill="white" stroke="black" points="1926,-445 1890,-445 1890,-409 1926,-409 1926,-445"/>
</g>
<!-- cluster&#45;21 -->
<g id="node90" class="node">
<title>cluster&#45;21</title>
<polygon fill="black" stroke="black" stroke-width="0" points="1980,-409 1962,-409 1962,-391 1980,-391 1980,-409"/>
</g>
<!-- action&#45;84&#45;&#45;cluster&#45;21 -->
<g id="edge75" class="edge">
<title>action&#45;84&#45;&#45;cluster&#45;21</title>
<path fill="none" stroke="black" d="M1926.32,-419.34C1938.01,-414.16 1952.91,-407.57 1961.94,-403.57"/>
</g>
<!-- action&#45;87 -->
<g id="node47" class="node">
<title>action&#45;87</title>
<polygon fill="white" stroke="black" points="2682,-267 2646,-267 2646,-231 2682,-231 2682,-267"/>
</g>
<!-- action&#45;87&#45;&#45;cluster&#45;20 -->
<g id="edge74" class="edge">
<title>action&#45;87&#45;&#45;cluster&#45;20</title>
<path fill="none" stroke="black" d="M2682.32,-249.28C2694.01,-249.48 2708.91,-249.72 2717.94,-249.87"/>
</g>
<!-- action&#45;88 -->
<g id="node48" class="node">
<title>action&#45;88</title>
<polygon fill="white" stroke="black" points="2808,-268 2772,-268 2772,-232 2808,-232 2808,-268"/>
</g>
<!-- cluster&#45;25 -->
<g id="node94" class="node">
<title>cluster&#45;25</title>
<polygon fill="black" stroke="black" stroke-width="0" points="2862,-205 2844,-205 2844,-187 2862,-187 2862,-205"/>
</g>
<!-- action&#45;88&#45;&#45;cluster&#45;25 -->
<g id="edge83" class="edge">
<title>action&#45;88&#45;&#45;cluster&#45;25</title>
<path fill="none" stroke="black" d="M2808.32,-234.67C2820.01,-224.32 2834.91,-211.13 2843.94,-203.14"/>
</g>
<!-- action&#45;91 -->
<g id="node49" class="node">
<title>action&#45;91</title>
<polygon fill="white" stroke="black" points="1926,-391 1890,-391 1890,-355 1926,-355 1926,-391"/>
</g>
<!-- action&#45;91&#45;&#45;cluster&#45;21 -->
<g id="edge76" class="edge">
<title>action&#45;91&#45;&#45;cluster&#45;21</title>
<path fill="none" stroke="black" d="M1926.32,-380.66C1938.01,-385.84 1952.91,-392.43 1961.94,-396.43"/>
</g>
<!-- action&#45;92 -->
<g id="node50" class="node">
<title>action&#45;92</title>
<polygon fill="white" stroke="black" points="2052,-418 2016,-418 2016,-382 2052,-382 2052,-418"/>
</g>
<!-- cluster&#45;22 -->
<g id="node91" class="node">
<title>cluster&#45;22</title>
<polygon fill="black" stroke="black" stroke-width="0" points="2106,-368 2088,-368 2088,-350 2106,-350 2106,-368"/>
</g>
<!-- action&#45;92&#45;&#45;cluster&#45;22 -->
<g id="edge77" class="edge">
<title>action&#45;92&#45;&#45;cluster&#45;22</title>
<path fill="none" stroke="black" d="M2052.32,-388.36C2064.01,-380.5 2078.91,-370.49 2087.94,-364.42"/>
</g>
<!-- action&#45;95 -->
<g id="node51" class="node">
<title>action&#45;95</title>
<polygon fill="white" stroke="black" points="2052,-364 2016,-364 2016,-328 2052,-328 2052,-364"/>
</g>
<!-- action&#45;95&#45;&#45;cluster&#45;22 -->
<g id="edge78" class="edge">
<title>action&#45;95&#45;&#45;cluster&#45;22</title>
<path fill="none" stroke="black" d="M2052.32,-349.69C2064.01,-352.18 2078.91,-355.36 2087.94,-357.28"/>
</g>
<!-- action&#45;96 -->
<g id="node52" class="node">
<title>action&#45;96</title>
<polygon fill="white" stroke="black" points="2178,-377 2142,-377 2142,-341 2178,-341 2178,-377"/>
</g>
<!-- cluster&#45;23 -->
<g id="node92" class="node">
<title>cluster&#45;23</title>
<polygon fill="black" stroke="black" stroke-width="0" points="2232,-314 2214,-314 2214,-296 2232,-296 2232,-314"/>
</g>
<!-- action&#45;96&#45;&#45;cluster&#45;23 -->
<g id="edge79" class="edge">
<title>action&#45;96&#45;&#45;cluster&#45;23</title>
<path fill="none" stroke="black" d="M2178.32,-343.67C2190.01,-333.32 2204.91,-320.13 2213.94,-312.14"/>
</g>
<!-- action&#45;99 -->
<g id="node53" class="node">
<title>action&#45;99</title>
<polygon fill="white" stroke="black" points="2178,-323 2142,-323 2142,-287 2178,-287 2178,-323"/>
</g>
<!-- action&#45;99&#45;&#45;cluster&#45;23 -->
<g id="edge80" class="edge">
<title>action&#45;99&#45;&#45;cluster&#45;23</title>
<path fill="none" stroke="black" d="M2178.32,-305C2190.01,-305 2204.91,-305 2213.94,-305"/>
</g>
<!-- action&#45;100 -->
<g id="node54" class="node">
<title>action&#45;100</title>
<polygon fill="white" stroke="black" points="2304,-323 2268,-323 2268,-287 2304,-287 2304,-323"/>
</g>
<!-- cluster&#45;24 -->
<g id="node93" class="node">
<title>cluster&#45;24</title>
<polygon fill="black" stroke="black" stroke-width="0" points="2358,-260 2340,-260 2340,-242 2358,-242 2358,-260"/>
</g>
<!-- action&#45;100&#45;&#45;cluster&#45;24 -->
<g id="edge81" class="edge">
<title>action&#45;100&#45;&#45;cluster&#45;24</title>
<path fill="none" stroke="black" d="M2304.32,-289.67C2316.01,-279.32 2330.91,-266.13 2339.94,-258.14"/>
</g>
<!-- action&#45;103 -->
<g id="node55" class="node">
<title>action&#45;103</title>
<polygon fill="white" stroke="black" points="2304,-269 2268,-269 2268,-233 2304,-233 2304,-269"/>
</g>
<!-- action&#45;103&#45;&#45;cluster&#45;24 -->
<g id="edge82" class="edge">
<title>action&#45;103&#45;&#45;cluster&#45;24</title>
<path fill="none" stroke="black" d="M2304.32,-251C2316.01,-251 2330.91,-251 2339.94,-251"/>
</g>
<!-- action&#45;104 -->
<g id="node56" class="node">
<title>action&#45;104</title>
<polygon fill="white" stroke="black" points="2430,-269 2394,-269 2394,-233 2430,-233 2430,-269"/>
</g>
<!-- cluster&#45;27 -->
<g id="node96" class="node">
<title>cluster&#45;27</title>
<polygon fill="black" stroke="black" stroke-width="0" points="2484,-206 2466,-206 2466,-188 2484,-188 2484,-206"/>
</g>
<!-- action&#45;104&#45;&#45;cluster&#45;27 -->
<g id="edge87" class="edge">
<title>action&#45;104&#45;&#45;cluster&#45;27</title>
<path fill="none" stroke="black" d="M2430.32,-235.67C2442.01,-225.32 2456.91,-212.13 2465.94,-204.14"/>
</g>
<!-- action&#45;107 -->
<g id="node57" class="node">
<title>action&#45;107</title>
<polygon fill="white" stroke="black" points="2808,-214 2772,-214 2772,-178 2808,-178 2808,-214"/>
</g>
<!-- action&#45;107&#45;&#45;cluster&#45;25 -->
<g id="edge84" class="edge">
<title>action&#45;107&#45;&#45;cluster&#45;25</title>
<path fill="none" stroke="black" d="M2808.32,-196C2820.01,-196 2834.91,-196 2843.94,-196"/>
</g>
<!-- action&#45;108 -->
<g id="node58" class="node">
<title>action&#45;108</title>
<polygon fill="white" stroke="black" points="2934,-214 2898,-214 2898,-178 2934,-178 2934,-214"/>
</g>
<!-- cluster&#45;26 -->
<g id="node95" class="node">
<title>cluster&#45;26</title>
<polygon fill="black" stroke="black" stroke-width="0" points="2988,-151 2970,-151 2970,-133 2988,-133 2988,-151"/>
</g>
<!-- action&#45;108&#45;&#45;cluster&#45;26 -->
<g id="edge85" class="edge">
<title>action&#45;108&#45;&#45;cluster&#45;26</title>
<path fill="none" stroke="black" d="M2934.32,-180.67C2946.01,-170.32 2960.91,-157.13 2969.94,-149.14"/>
</g>
<!-- action&#45;111 -->
<g id="node59" class="node">
<title>action&#45;111</title>
<polygon fill="white" stroke="black" points="2934,-160 2898,-160 2898,-124 2934,-124 2934,-160"/>
</g>
<!-- action&#45;111&#45;&#45;cluster&#45;26 -->
<g id="edge86" class="edge">
<title>action&#45;111&#45;&#45;cluster&#45;26</title>
<path fill="none" stroke="black" d="M2934.32,-142C2946.01,-142 2960.91,-142 2969.94,-142"/>
</g>
<!-- action&#45;115 -->
<g id="node60" class="node">
<title>action&#45;115</title>
<polygon fill="white" stroke="black" points="2430,-215 2394,-215 2394,-179 2430,-179 2430,-215"/>
</g>
<!-- action&#45;115&#45;&#45;cluster&#45;27 -->
<g id="edge88" class="edge">
<title>action&#45;115&#45;&#45;cluster&#45;27</title>
<path fill="none" stroke="black" d="M2430.32,-197C2442.01,-197 2456.91,-197 2465.94,-197"/>
</g>
<!-- action&#45;116 -->
<g id="node61" class="node">
<title>action&#45;116</title>
<polygon fill="white" stroke="black" points="2556,-215 2520,-215 2520,-179 2556,-179 2556,-215"/>
</g>
<!-- cluster&#45;28 -->
<g id="node97" class="node">
<title>cluster&#45;28</title>
<polygon fill="black" stroke="black" stroke-width="0" points="2610,-152 2592,-152 2592,-134 2610,-134 2610,-152"/>
</g>
<!-- action&#45;116&#45;&#45;cluster&#45;28 -->
<g id="edge89" class="edge">
<title>action&#45;116&#45;&#45;cluster&#45;28</title>
<path fill="none" stroke="black" d="M2556.32,-181.67C2568.01,-171.32 2582.91,-158.13 2591.94,-150.14"/>
</g>
<!-- action&#45;119 -->
<g id="node62" class="node">
<title>action&#45;119</title>
<polygon fill="white" stroke="black" points="2556,-161 2520,-161 2520,-125 2556,-125 2556,-161"/>
</g>
<!-- action&#45;119&#45;&#45;cluster&#45;28 -->
<g id="edge90" class="edge">
<title>action&#45;119&#45;&#45;cluster&#45;28</title>
<path fill="none" stroke="black" d="M2556.32,-143C2568.01,-143 2582.91,-143 2591.94,-143"/>
</g>
<!-- action&#45;120 -->
<g id="node63" class="node">
<title>action&#45;120</title>
<polygon fill="white" stroke="black" points="2682,-161 2646,-161 2646,-125 2682,-125 2682,-161"/>
</g>
<!-- cluster&#45;29 -->
<g id="node98" class="node">
<title>cluster&#45;29</title>
<polygon fill="black" stroke="black" stroke-width="0" points="2736,-98 2718,-98 2718,-80 2736,-80 2736,-98"/>
</g>
<!-- action&#45;120&#45;&#45;cluster&#45;29 -->
<g id="edge91" class="edge">
<title>action&#45;120&#45;&#45;cluster&#45;29</title>
<path fill="none" stroke="black" d="M2682.32,-127.67C2694.01,-117.32 2708.91,-104.13 2717.94,-96.14"/>
</g>
<!-- action&#45;123 -->
<g id="node64" class="node">
<title>action&#45;123</title>
<polygon fill="white" stroke="black" points="2682,-107 2646,-107 2646,-71 2682,-71 2682,-107"/>
</g>
<!-- action&#45;123&#45;&#45;cluster&#45;29 -->
<g id="edge92" class="edge">
<title>action&#45;123&#45;&#45;cluster&#45;29</title>
<path fill="none" stroke="black" d="M2682.32,-89C2694.01,-89 2708.91,-89 2717.94,-89"/>
</g>
<!-- action&#45;124 -->
<g id="node65" class="node">
<title>action&#45;124</title>
<polygon fill="white" stroke="black" points="2808,-107 2772,-107 2772,-71 2808,-71 2808,-107"/>
</g>
<!-- cluster&#45;30 -->
<g id="node99" class="node">
<title>cluster&#45;30</title>
<polygon fill="black" stroke="black" stroke-width="0" points="2862,-97 2844,-97 2844,-79 2862,-79 2862,-97"/>
</g>
<!-- action&#45;124&#45;&#45;cluster&#45;30 -->
<g id="edge93" class="edge">
<title>action&#45;124&#45;&#45;cluster&#45;30</title>
<path fill="none" stroke="black" d="M2808.32,-88.72C2820.01,-88.52 2834.91,-88.28 2843.94,-88.13"/>
</g>
<!-- action&#45;127 -->
<g id="node66" class="node">
<title>action&#45;127</title>
<polygon fill="white" stroke="black" points="2808,-53 2772,-53 2772,-17 2808,-17 2808,-53"/>
</g>
<!-- action&#45;127&#45;&#45;cluster&#45;30 -->
<g id="edge94" class="edge">
<title>action&#45;127&#45;&#45;cluster&#45;30</title>
<path fill="none" stroke="black" d="M2808.32,-50.05C2820.01,-60.21 2834.91,-73.15 2843.94,-80.99"/>
</g>
<!-- action&#45;128 -->
<g id="node67" class="node">
<title>action&#45;128</title>
<polygon fill="white" stroke="black" points="2934,-106 2898,-106 2898,-70 2934,-70 2934,-106"/>
</g>
<!-- cluster&#45;31 -->
<g id="node100" class="node">
<title>cluster&#45;31</title>
<polygon fill="black" stroke="black" stroke-width="0" points="2988,-97 2970,-97 2970,-79 2988,-79 2988,-97"/>
</g>
<!-- action&#45;128&#45;&#45;cluster&#45;31 -->
<g id="edge95" class="edge">
<title>action&#45;128&#45;&#45;cluster&#45;31</title>
<path fill="none" stroke="black" d="M2934.32,-88C2946.01,-88 2960.91,-88 2969.94,-88"/>
</g>
<!-- action&#45;131 -->
<g id="node68" class="node">
<title>action&#45;131</title>
<polygon fill="white" stroke="black" points="2934,-52 2898,-52 2898,-16 2934,-16 2934,-52"/>
</g>
<!-- action&#45;131&#45;&#45;cluster&#45;31 -->
<g id="edge96" class="edge">
<title>action&#45;131&#45;&#45;cluster&#45;31</title>
<path fill="none" stroke="black" d="M2934.32,-49.33C2946.01,-59.68 2960.91,-72.87 2969.94,-80.86"/>
</g>
<!-- cluster&#45;0&#45;&#45;action&#45;4 -->
<g id="edge1" class="edge">
<title>cluster&#45;0&#45;&#45;action&#45;4</title>
<path fill="none" stroke="black" d="M90.23,-805C99.33,-805 114.26,-805 125.92,-805"/>
</g>
<!-- cluster&#45;1&#45;&#45;action&#45;8 -->
<g id="edge2" class="edge">
<title>cluster&#45;1&#45;&#45;action&#45;8</title>
<path fill="none" stroke="black" d="M216.23,-778C225.33,-778 240.26,-778 251.92,-778"/>
</g>
<!-- cluster&#45;2&#45;&#45;action&#45;14 -->
<g id="edge3" class="edge">
<title>cluster&#45;2&#45;&#45;action&#45;14</title>
<path fill="none" stroke="black" d="M2106.23,-501C2115.33,-501 2130.26,-501 2141.92,-501"/>
</g>
<!-- cluster&#45;3&#45;&#45;action&#45;18 -->
<g id="edge4" class="edge">
<title>cluster&#45;3&#45;&#45;action&#45;18</title>
<path fill="none" stroke="black" d="M2232.23,-457C2241.33,-457 2256.26,-457 2267.92,-457"/>
</g>
<!-- cluster&#45;4&#45;&#45;action&#45;22 -->
<g id="edge5" class="edge">
<title>cluster&#45;4&#45;&#45;action&#45;22</title>
<path fill="none" stroke="black" d="M342.23,-751C351.33,-751 366.26,-751 377.92,-751"/>
</g>
<!-- cluster&#45;5&#45;&#45;action&#45;26 -->
<g id="edge6" class="edge">
<title>cluster&#45;5&#45;&#45;action&#45;26</title>
<path fill="none" stroke="black" d="M468.23,-724C477.33,-724 492.26,-724 503.92,-724"/>
</g>
<!-- cluster&#45;6&#45;&#45;action&#45;32 -->
<g id="edge7" class="edge">
<title>cluster&#45;6&#45;&#45;action&#45;32</title>
<path fill="none" stroke="black" d="M594.23,-697C603.33,-697 618.26,-697 629.92,-697"/>
</g>
<!-- cluster&#45;7&#45;&#45;action&#45;36 -->
<g id="edge8" class="edge">
<title>cluster&#45;7&#45;&#45;action&#45;36</title>
<path fill="none" stroke="black" d="M720.23,-670C729.33,-670 744.26,-670 755.92,-670"/>
</g>
<!-- cluster&#45;8&#45;&#45;action&#45;40 -->
<g id="edge9" class="edge">
<title>cluster&#45;8&#45;&#45;action&#45;40</title>
<path fill="none" stroke="black" d="M846.23,-643C855.33,-643 870.26,-643 881.92,-643"/>
</g>
<!-- cluster&#45;9&#45;&#45;action&#45;44 -->
<g id="edge10" class="edge">
<title>cluster&#45;9&#45;&#45;action&#45;44</title>
<path fill="none" stroke="black" d="M972.23,-616C981.33,-616 996.26,-616 1007.92,-616"/>
</g>
<!-- cluster&#45;10&#45;&#45;action&#45;48 -->
<g id="edge11" class="edge">
<title>cluster&#45;10&#45;&#45;action&#45;48</title>
<path fill="none" stroke="black" d="M1098.23,-589C1107.33,-589 1122.26,-589 1133.92,-589"/>
</g>
<!-- cluster&#45;11&#45;&#45;action&#45;52 -->
<g id="edge12" class="edge">
<title>cluster&#45;11&#45;&#45;action&#45;52</title>
<path fill="none" stroke="black" d="M1224.23,-562C1233.33,-562 1248.26,-562 1259.92,-562"/>
</g>
<!-- cluster&#45;12&#45;&#45;action&#45;56 -->
<g id="edge13" class="edge">
<title>cluster&#45;12&#45;&#45;action&#45;56</title>
<path fill="none" stroke="black" d="M1350.23,-535C1359.33,-535 1374.26,-535 1385.92,-535"/>
</g>
<!-- cluster&#45;13&#45;&#45;action&#45;60 -->
<g id="edge14" class="edge">
<title>cluster&#45;13&#45;&#45;action&#45;60</title>
<path fill="none" stroke="black" d="M2358.23,-408C2367.33,-408 2382.26,-408 2393.92,-408"/>
</g>
<!-- cluster&#45;14&#45;&#45;action&#45;64 -->
<g id="edge15" class="edge">
<title>cluster&#45;14&#45;&#45;action&#45;64</title>
<path fill="none" stroke="black" d="M1476.23,-508C1485.33,-508 1500.26,-508 1511.92,-508"/>
</g>
<!-- cluster&#45;15&#45;&#45;action&#45;68 -->
<g id="edge16" class="edge">
<title>cluster&#45;15&#45;&#45;action&#45;68</title>
<path fill="none" stroke="black" d="M1602.23,-481C1611.33,-481 1626.26,-481 1637.92,-481"/>
</g>
<!-- cluster&#45;16&#45;&#45;action&#45;72 -->
<g id="edge17" class="edge">
<title>cluster&#45;16&#45;&#45;action&#45;72</title>
<path fill="none" stroke="black" d="M2484.23,-356C2493.33,-356 2508.26,-356 2519.92,-356"/>
</g>
<!-- cluster&#45;17&#45;&#45;action&#45;76 -->
<g id="edge18" class="edge">
<title>cluster&#45;17&#45;&#45;action&#45;76</title>
<path fill="none" stroke="black" d="M2610.23,-303C2619.33,-303 2634.26,-303 2645.92,-303"/>
</g>
<!-- cluster&#45;18&#45;&#45;action&#45;80 -->
<g id="edge19" class="edge">
<title>cluster&#45;18&#45;&#45;action&#45;80</title>
<path fill="none" stroke="black" d="M1728.23,-454C1737.33,-454 1752.26,-454 1763.92,-454"/>
</g>
<!-- cluster&#45;19&#45;&#45;action&#45;84 -->
<g id="edge20" class="edge">
<title>cluster&#45;19&#45;&#45;action&#45;84</title>
<path fill="none" stroke="black" d="M1854.23,-427C1863.33,-427 1878.26,-427 1889.92,-427"/>
</g>
<!-- cluster&#45;20&#45;&#45;action&#45;88 -->
<g id="edge21" class="edge">
<title>cluster&#45;20&#45;&#45;action&#45;88</title>
<path fill="none" stroke="black" d="M2736.23,-250C2745.33,-250 2760.26,-250 2771.92,-250"/>
</g>
<!-- cluster&#45;21&#45;&#45;action&#45;92 -->
<g id="edge22" class="edge">
<title>cluster&#45;21&#45;&#45;action&#45;92</title>
<path fill="none" stroke="black" d="M1980.23,-400C1989.33,-400 2004.26,-400 2015.92,-400"/>
</g>
<!-- cluster&#45;22&#45;&#45;action&#45;96 -->
<g id="edge23" class="edge">
<title>cluster&#45;22&#45;&#45;action&#45;96</title>
<path fill="none" stroke="black" d="M2106.23,-359C2115.33,-359 2130.26,-359 2141.92,-359"/>
</g>
<!-- cluster&#45;23&#45;&#45;action&#45;100 -->
<g id="edge24" class="edge">
<title>cluster&#45;23&#45;&#45;action&#45;100</title>
<path fill="none" stroke="black" d="M2232.23,-305C2241.33,-305 2256.26,-305 2267.92,-305"/>
</g>
<!-- cluster&#45;24&#45;&#45;action&#45;104 -->
<g id="edge25" class="edge">
<title>cluster&#45;24&#45;&#45;action&#45;104</title>
<path fill="none" stroke="black" d="M2358.23,-251C2367.33,-251 2382.26,-251 2393.92,-251"/>
</g>
<!-- cluster&#45;25&#45;&#45;action&#45;108 -->
<g id="edge26" class="edge">
<title>cluster&#45;25&#45;&#45;action&#45;108</title>
<path fill="none" stroke="black" d="M2862.23,-196C2871.33,-196 2886.26,-196 2897.92,-196"/>
</g>
<!-- cluster&#45;26&#45;&#45;action&#45;112 -->
<g id="edge27" class="edge">
<title>cluster&#45;26&#45;&#45;action&#45;112</title>
<path fill="none" stroke="black" d="M2988.23,-142C2997.33,-142 3012.26,-142 3023.92,-142"/>
</g>
<!-- cluster&#45;27&#45;&#45;action&#45;116 -->
<g id="edge28" class="edge">
<title>cluster&#45;27&#45;&#45;action&#45;116</title>
<path fill="none" stroke="black" d="M2484.23,-197C2493.33,-197 2508.26,-197 2519.92,-197"/>
</g>
<!-- cluster&#45;28&#45;&#45;action&#45;120 -->
<g id="edge29" class="edge">
<title>cluster&#45;28&#45;&#45;action&#45;120</title>
<path fill="none" stroke="black" d="M2610.23,-143C2619.33,-143 2634.26,-143 2645.92,-143"/>
</g>
<!-- cluster&#45;29&#45;&#45;action&#45;124 -->
<g id="edge30" class="edge">
<title>cluster&#45;29&#45;&#45;action&#45;124</title>
<path fill="none" stroke="black" d="M2736.23,-89C2745.33,-89 2760.26,-89 2771.92,-89"/>
</g>
<!-- cluster&#45;30&#45;&#45;action&#45;128 -->
<g id="edge31" class="edge">
<title>cluster&#45;30&#45;&#45;action&#45;128</title>
<path fill="none" stroke="black" d="M2862.23,-88C2871.33,-88 2886.26,-88 2897.92,-88"/>
</g>
<!-- cluster&#45;31&#45;&#45;action&#45;132 -->
<g id="edge32" class="edge">
<title>cluster&#45;31&#45;&#45;action&#45;132</title>
<path fill="none" stroke="black" d="M2988.23,-88C2997.33,-88 3012.26,-88 3023.92,-88"/>
</g>
</g>
</svg>
