<?xml version="1.0" encoding="UTF-8" standalone="no"?>
<!DOCTYPE svg PUBLIC "-//W3C//DTD SVG 1.1//EN"
 "http://www.w3.org/Graphics/SVG/1.1/DTD/svg11.dtd">
<!-- Generated by graphviz version 2.43.0 (0)
 -->
<!-- Title: g Pages: 1 -->
<svg width="2832pt" height="788pt"
 viewBox="0.00 0.00 2832.00 788.00" xmlns="http://www.w3.org/2000/svg" xmlns:xlink="http://www.w3.org/1999/xlink">
<g id="graph0" class="graph" transform="scale(1 1) rotate(0) translate(4 784)">
<title>g</title>
<polygon fill="white" stroke="transparent" points="-4,4 -4,-784 2828,-784 2828,4 -4,4"/>
<g id="clust1" class="cluster">
<title>cluster_actionlib</title>
<polygon fill="none" stroke="black" points="2764,-46 2764,-206 2816,-206 2816,-46 2764,-46"/>
</g>
<!-- action&#45;29 -->
<g id="node1" class="node">
<title>action&#45;29</title>
<polygon fill="white" stroke="black" stroke-width="4" points="2808,-198 2772,-198 2772,-162 2808,-162 2808,-198"/>
</g>
<!-- action&#45;112 -->
<g id="node2" class="node">
<title>action&#45;112</title>
<polygon fill="white" stroke="black" stroke-width="4" points="2808,-144 2772,-144 2772,-108 2808,-108 2808,-144"/>
</g>
<!-- action&#45;124 -->
<g id="node3" class="node">
<title>action&#45;124</title>
<polygon fill="#008000" stroke="black" stroke-width="4" points="2808,-90 2772,-90 2772,-54 2808,-54 2808,-90"/>
</g>
<!-- action&#45;1 -->
<g id="node4" class="node">
<title>action&#45;1</title>
<polygon fill="white" stroke="black" points="36,-780 0,-780 0,-744 36,-744 36,-780"/>
</g>
<!-- cluster&#45;0 -->
<g id="node64" class="node">
<title>cluster&#45;0</title>
<polygon fill="black" stroke="black" stroke-width="0" points="90,-744 72,-744 72,-726 90,-726 90,-744"/>
</g>
<!-- action&#45;1&#45;&#45;cluster&#45;0 -->
<g id="edge31" class="edge">
<title>action&#45;1&#45;&#45;cluster&#45;0</title>
<path fill="none" stroke="black" d="M36.32,-754.34C48.01,-749.16 62.91,-742.57 71.94,-738.57"/>
</g>
<!-- action&#45;3 -->
<g id="node5" class="node">
<title>action&#45;3</title>
<polygon fill="white" stroke="black" points="36,-726 0,-726 0,-690 36,-690 36,-726"/>
</g>
<!-- action&#45;3&#45;&#45;cluster&#45;0 -->
<g id="edge32" class="edge">
<title>action&#45;3&#45;&#45;cluster&#45;0</title>
<path fill="none" stroke="black" d="M36.32,-715.66C48.01,-720.84 62.91,-727.43 71.94,-731.43"/>
</g>
<!-- action&#45;4 -->
<g id="node6" class="node">
<title>action&#45;4</title>
<polygon fill="white" stroke="black" points="162,-753 126,-753 126,-717 162,-717 162,-753"/>
</g>
<!-- cluster&#45;1 -->
<g id="node65" class="node">
<title>cluster&#45;1</title>
<polygon fill="black" stroke="black" stroke-width="0" points="216,-717 198,-717 198,-699 216,-699 216,-717"/>
</g>
<!-- action&#45;4&#45;&#45;cluster&#45;1 -->
<g id="edge33" class="edge">
<title>action&#45;4&#45;&#45;cluster&#45;1</title>
<path fill="none" stroke="black" d="M162.32,-727.34C174.01,-722.16 188.91,-715.57 197.94,-711.57"/>
</g>
<!-- action&#45;7 -->
<g id="node7" class="node">
<title>action&#45;7</title>
<polygon fill="white" stroke="black" points="162,-699 126,-699 126,-663 162,-663 162,-699"/>
</g>
<!-- action&#45;7&#45;&#45;cluster&#45;1 -->
<g id="edge34" class="edge">
<title>action&#45;7&#45;&#45;cluster&#45;1</title>
<path fill="none" stroke="black" d="M162.32,-688.66C174.01,-693.84 188.91,-700.43 197.94,-704.43"/>
</g>
<!-- action&#45;8 -->
<g id="node8" class="node">
<title>action&#45;8</title>
<polygon fill="white" stroke="black" points="288,-726 252,-726 252,-690 288,-690 288,-726"/>
</g>
<!-- cluster&#45;4 -->
<g id="node68" class="node">
<title>cluster&#45;4</title>
<polygon fill="black" stroke="black" stroke-width="0" points="342,-690 324,-690 324,-672 342,-672 342,-690"/>
</g>
<!-- action&#45;8&#45;&#45;cluster&#45;4 -->
<g id="edge39" class="edge">
<title>action&#45;8&#45;&#45;cluster&#45;4</title>
<path fill="none" stroke="black" d="M288.32,-700.34C300.01,-695.16 314.91,-688.57 323.94,-684.57"/>
</g>
<!-- action&#45;11 -->
<g id="node9" class="node">
<title>action&#45;11</title>
<polygon fill="white" stroke="black" points="1800,-537 1764,-537 1764,-501 1800,-501 1800,-537"/>
</g>
<!-- cluster&#45;2 -->
<g id="node66" class="node">
<title>cluster&#45;2</title>
<polygon fill="black" stroke="black" stroke-width="0" points="1854,-494 1836,-494 1836,-476 1854,-476 1854,-494"/>
</g>
<!-- action&#45;11&#45;&#45;cluster&#45;2 -->
<g id="edge35" class="edge">
<title>action&#45;11&#45;&#45;cluster&#45;2</title>
<path fill="none" stroke="black" d="M1800.32,-509.35C1812.01,-502.83 1826.91,-494.53 1835.94,-489.5"/>
</g>
<!-- action&#45;13 -->
<g id="node10" class="node">
<title>action&#45;13</title>
<polygon fill="white" stroke="black" points="1800,-483 1764,-483 1764,-447 1800,-447 1800,-483"/>
</g>
<!-- action&#45;13&#45;&#45;cluster&#45;2 -->
<g id="edge36" class="edge">
<title>action&#45;13&#45;&#45;cluster&#45;2</title>
<path fill="none" stroke="black" d="M1800.32,-470.68C1812.01,-474.51 1826.91,-479.4 1835.94,-482.36"/>
</g>
<!-- action&#45;14 -->
<g id="node11" class="node">
<title>action&#45;14</title>
<polygon fill="white" stroke="black" points="1926,-503 1890,-503 1890,-467 1926,-467 1926,-503"/>
</g>
<!-- cluster&#45;3 -->
<g id="node67" class="node">
<title>cluster&#45;3</title>
<polygon fill="black" stroke="black" stroke-width="0" points="1980,-450 1962,-450 1962,-432 1980,-432 1980,-450"/>
</g>
<!-- action&#45;14&#45;&#45;cluster&#45;3 -->
<g id="edge37" class="edge">
<title>action&#45;14&#45;&#45;cluster&#45;3</title>
<path fill="none" stroke="black" d="M1926.32,-472.51C1938.01,-464.07 1952.91,-453.33 1961.94,-446.82"/>
</g>
<!-- action&#45;17 -->
<g id="node12" class="node">
<title>action&#45;17</title>
<polygon fill="white" stroke="black" points="1926,-449 1890,-449 1890,-413 1926,-413 1926,-449"/>
</g>
<!-- action&#45;17&#45;&#45;cluster&#45;3 -->
<g id="edge38" class="edge">
<title>action&#45;17&#45;&#45;cluster&#45;3</title>
<path fill="none" stroke="black" d="M1926.32,-433.84C1938.01,-435.76 1952.91,-438.2 1961.94,-439.68"/>
</g>
<!-- action&#45;18 -->
<g id="node13" class="node">
<title>action&#45;18</title>
<polygon fill="white" stroke="black" points="2052,-459 2016,-459 2016,-423 2052,-423 2052,-459"/>
</g>
<!-- cluster&#45;13 -->
<g id="node77" class="node">
<title>cluster&#45;13</title>
<polygon fill="black" stroke="black" stroke-width="0" points="2106,-401 2088,-401 2088,-383 2106,-383 2106,-401"/>
</g>
<!-- action&#45;18&#45;&#45;cluster&#45;13 -->
<g id="edge57" class="edge">
<title>action&#45;18&#45;&#45;cluster&#45;13</title>
<path fill="none" stroke="black" d="M2052.32,-427.09C2064.01,-417.7 2078.91,-405.73 2087.94,-398.48"/>
</g>
<!-- action&#45;21 -->
<g id="node14" class="node">
<title>action&#45;21</title>
<polygon fill="white" stroke="black" points="288,-672 252,-672 252,-636 288,-636 288,-672"/>
</g>
<!-- action&#45;21&#45;&#45;cluster&#45;4 -->
<g id="edge40" class="edge">
<title>action&#45;21&#45;&#45;cluster&#45;4</title>
<path fill="none" stroke="black" d="M288.32,-661.66C300.01,-666.84 314.91,-673.43 323.94,-677.43"/>
</g>
<!-- action&#45;22 -->
<g id="node15" class="node">
<title>action&#45;22</title>
<polygon fill="white" stroke="black" points="414,-699 378,-699 378,-663 414,-663 414,-699"/>
</g>
<!-- cluster&#45;5 -->
<g id="node69" class="node">
<title>cluster&#45;5</title>
<polygon fill="black" stroke="black" stroke-width="0" points="468,-663 450,-663 450,-645 468,-645 468,-663"/>
</g>
<!-- action&#45;22&#45;&#45;cluster&#45;5 -->
<g id="edge41" class="edge">
<title>action&#45;22&#45;&#45;cluster&#45;5</title>
<path fill="none" stroke="black" d="M414.32,-673.34C426.01,-668.16 440.91,-661.57 449.94,-657.57"/>
</g>
<!-- action&#45;25 -->
<g id="node16" class="node">
<title>action&#45;25</title>
<polygon fill="white" stroke="black" points="414,-645 378,-645 378,-609 414,-609 414,-645"/>
</g>
<!-- action&#45;25&#45;&#45;cluster&#45;5 -->
<g id="edge42" class="edge">
<title>action&#45;25&#45;&#45;cluster&#45;5</title>
<path fill="none" stroke="black" d="M414.32,-634.66C426.01,-639.84 440.91,-646.43 449.94,-650.43"/>
</g>
<!-- action&#45;26 -->
<g id="node17" class="node">
<title>action&#45;26</title>
<polygon fill="white" stroke="black" points="540,-672 504,-672 504,-636 540,-636 540,-672"/>
</g>
<!-- cluster&#45;6 -->
<g id="node70" class="node">
<title>cluster&#45;6</title>
<polygon fill="black" stroke="black" stroke-width="0" points="594,-636 576,-636 576,-618 594,-618 594,-636"/>
</g>
<!-- action&#45;26&#45;&#45;cluster&#45;6 -->
<g id="edge43" class="edge">
<title>action&#45;26&#45;&#45;cluster&#45;6</title>
<path fill="none" stroke="black" d="M540.32,-646.34C552.01,-641.16 566.91,-634.57 575.94,-630.57"/>
</g>
<!-- action&#45;31 -->
<g id="node18" class="node">
<title>action&#45;31</title>
<polygon fill="white" stroke="black" points="540,-618 504,-618 504,-582 540,-582 540,-618"/>
</g>
<!-- action&#45;31&#45;&#45;cluster&#45;6 -->
<g id="edge44" class="edge">
<title>action&#45;31&#45;&#45;cluster&#45;6</title>
<path fill="none" stroke="black" d="M540.32,-607.66C552.01,-612.84 566.91,-619.43 575.94,-623.43"/>
</g>
<!-- action&#45;32 -->
<g id="node19" class="node">
<title>action&#45;32</title>
<polygon fill="white" stroke="black" points="666,-645 630,-645 630,-609 666,-609 666,-645"/>
</g>
<!-- cluster&#45;7 -->
<g id="node71" class="node">
<title>cluster&#45;7</title>
<polygon fill="black" stroke="black" stroke-width="0" points="720,-609 702,-609 702,-591 720,-591 720,-609"/>
</g>
<!-- action&#45;32&#45;&#45;cluster&#45;7 -->
<g id="edge45" class="edge">
<title>action&#45;32&#45;&#45;cluster&#45;7</title>
<path fill="none" stroke="black" d="M666.32,-619.34C678.01,-614.16 692.91,-607.57 701.94,-603.57"/>
</g>
<!-- action&#45;35 -->
<g id="node20" class="node">
<title>action&#45;35</title>
<polygon fill="white" stroke="black" points="666,-591 630,-591 630,-555 666,-555 666,-591"/>
</g>
<!-- action&#45;35&#45;&#45;cluster&#45;7 -->
<g id="edge46" class="edge">
<title>action&#45;35&#45;&#45;cluster&#45;7</title>
<path fill="none" stroke="black" d="M666.32,-580.66C678.01,-585.84 692.91,-592.43 701.94,-596.43"/>
</g>
<!-- action&#45;36 -->
<g id="node21" class="node">
<title>action&#45;36</title>
<polygon fill="white" stroke="black" points="792,-618 756,-618 756,-582 792,-582 792,-618"/>
</g>
<!-- cluster&#45;8 -->
<g id="node72" class="node">
<title>cluster&#45;8</title>
<polygon fill="black" stroke="black" stroke-width="0" points="846,-582 828,-582 828,-564 846,-564 846,-582"/>
</g>
<!-- action&#45;36&#45;&#45;cluster&#45;8 -->
<g id="edge47" class="edge">
<title>action&#45;36&#45;&#45;cluster&#45;8</title>
<path fill="none" stroke="black" d="M792.32,-592.34C804.01,-587.16 818.91,-580.57 827.94,-576.57"/>
</g>
<!-- action&#45;39 -->
<g id="node22" class="node">
<title>action&#45;39</title>
<polygon fill="white" stroke="black" points="792,-564 756,-564 756,-528 792,-528 792,-564"/>
</g>
<!-- action&#45;39&#45;&#45;cluster&#45;8 -->
<g id="edge48" class="edge">
<title>action&#45;39&#45;&#45;cluster&#45;8</title>
<path fill="none" stroke="black" d="M792.32,-553.66C804.01,-558.84 818.91,-565.43 827.94,-569.43"/>
</g>
<!-- action&#45;40 -->
<g id="node23" class="node">
<title>action&#45;40</title>
<polygon fill="white" stroke="black" points="918,-591 882,-591 882,-555 918,-555 918,-591"/>
</g>
<!-- cluster&#45;9 -->
<g id="node73" class="node">
<title>cluster&#45;9</title>
<polygon fill="black" stroke="black" stroke-width="0" points="972,-555 954,-555 954,-537 972,-537 972,-555"/>
</g>
<!-- action&#45;40&#45;&#45;cluster&#45;9 -->
<g id="edge49" class="edge">
<title>action&#45;40&#45;&#45;cluster&#45;9</title>
<path fill="none" stroke="black" d="M918.32,-565.34C930.01,-560.16 944.91,-553.57 953.94,-549.57"/>
</g>
<!-- action&#45;43 -->
<g id="node24" class="node">
<title>action&#45;43</title>
<polygon fill="white" stroke="black" points="918,-537 882,-537 882,-501 918,-501 918,-537"/>
</g>
<!-- action&#45;43&#45;&#45;cluster&#45;9 -->
<g id="edge50" class="edge">
<title>action&#45;43&#45;&#45;cluster&#45;9</title>
<path fill="none" stroke="black" d="M918.32,-526.66C930.01,-531.84 944.91,-538.43 953.94,-542.43"/>
</g>
<!-- action&#45;44 -->
<g id="node25" class="node">
<title>action&#45;44</title>
<polygon fill="white" stroke="black" points="1044,-564 1008,-564 1008,-528 1044,-528 1044,-564"/>
</g>
<!-- cluster&#45;10 -->
<g id="node74" class="node">
<title>cluster&#45;10</title>
<polygon fill="black" stroke="black" stroke-width="0" points="1098,-528 1080,-528 1080,-510 1098,-510 1098,-528"/>
</g>
<!-- action&#45;44&#45;&#45;cluster&#45;10 -->
<g id="edge51" class="edge">
<title>action&#45;44&#45;&#45;cluster&#45;10</title>
<path fill="none" stroke="black" d="M1044.32,-538.34C1056.01,-533.16 1070.91,-526.57 1079.94,-522.57"/>
</g>
<!-- action&#45;47 -->
<g id="node26" class="node">
<title>action&#45;47</title>
<polygon fill="white" stroke="black" points="1044,-510 1008,-510 1008,-474 1044,-474 1044,-510"/>
</g>
<!-- action&#45;47&#45;&#45;cluster&#45;10 -->
<g id="edge52" class="edge">
<title>action&#45;47&#45;&#45;cluster&#45;10</title>
<path fill="none" stroke="black" d="M1044.32,-499.66C1056.01,-504.84 1070.91,-511.43 1079.94,-515.43"/>
</g>
<!-- action&#45;48 -->
<g id="node27" class="node">
<title>action&#45;48</title>
<polygon fill="white" stroke="black" points="1170,-537 1134,-537 1134,-501 1170,-501 1170,-537"/>
</g>
<!-- cluster&#45;11 -->
<g id="node75" class="node">
<title>cluster&#45;11</title>
<polygon fill="black" stroke="black" stroke-width="0" points="1224,-501 1206,-501 1206,-483 1224,-483 1224,-501"/>
</g>
<!-- action&#45;48&#45;&#45;cluster&#45;11 -->
<g id="edge53" class="edge">
<title>action&#45;48&#45;&#45;cluster&#45;11</title>
<path fill="none" stroke="black" d="M1170.32,-511.34C1182.01,-506.16 1196.91,-499.57 1205.94,-495.57"/>
</g>
<!-- action&#45;51 -->
<g id="node28" class="node">
<title>action&#45;51</title>
<polygon fill="white" stroke="black" points="1170,-483 1134,-483 1134,-447 1170,-447 1170,-483"/>
</g>
<!-- action&#45;51&#45;&#45;cluster&#45;11 -->
<g id="edge54" class="edge">
<title>action&#45;51&#45;&#45;cluster&#45;11</title>
<path fill="none" stroke="black" d="M1170.32,-472.66C1182.01,-477.84 1196.91,-484.43 1205.94,-488.43"/>
</g>
<!-- action&#45;52 -->
<g id="node29" class="node">
<title>action&#45;52</title>
<polygon fill="white" stroke="black" points="1296,-510 1260,-510 1260,-474 1296,-474 1296,-510"/>
</g>
<!-- cluster&#45;12 -->
<g id="node76" class="node">
<title>cluster&#45;12</title>
<polygon fill="black" stroke="black" stroke-width="0" points="1350,-474 1332,-474 1332,-456 1350,-456 1350,-474"/>
</g>
<!-- action&#45;52&#45;&#45;cluster&#45;12 -->
<g id="edge55" class="edge">
<title>action&#45;52&#45;&#45;cluster&#45;12</title>
<path fill="none" stroke="black" d="M1296.32,-484.34C1308.01,-479.16 1322.91,-472.57 1331.94,-468.57"/>
</g>
<!-- action&#45;55 -->
<g id="node30" class="node">
<title>action&#45;55</title>
<polygon fill="white" stroke="black" points="1296,-456 1260,-456 1260,-420 1296,-420 1296,-456"/>
</g>
<!-- action&#45;55&#45;&#45;cluster&#45;12 -->
<g id="edge56" class="edge">
<title>action&#45;55&#45;&#45;cluster&#45;12</title>
<path fill="none" stroke="black" d="M1296.32,-445.66C1308.01,-450.84 1322.91,-457.43 1331.94,-461.43"/>
</g>
<!-- action&#45;56 -->
<g id="node31" class="node">
<title>action&#45;56</title>
<polygon fill="white" stroke="black" points="1422,-483 1386,-483 1386,-447 1422,-447 1422,-483"/>
</g>
<!-- cluster&#45;14 -->
<g id="node78" class="node">
<title>cluster&#45;14</title>
<polygon fill="black" stroke="black" stroke-width="0" points="1476,-447 1458,-447 1458,-429 1476,-429 1476,-447"/>
</g>
<!-- action&#45;56&#45;&#45;cluster&#45;14 -->
<g id="edge59" class="edge">
<title>action&#45;56&#45;&#45;cluster&#45;14</title>
<path fill="none" stroke="black" d="M1422.32,-457.34C1434.01,-452.16 1448.91,-445.57 1457.94,-441.57"/>
</g>
<!-- action&#45;59 -->
<g id="node32" class="node">
<title>action&#45;59</title>
<polygon fill="white" stroke="black" points="2052,-405 2016,-405 2016,-369 2052,-369 2052,-405"/>
</g>
<!-- action&#45;59&#45;&#45;cluster&#45;13 -->
<g id="edge58" class="edge">
<title>action&#45;59&#45;&#45;cluster&#45;13</title>
<path fill="none" stroke="black" d="M2052.32,-388.42C2064.01,-389.38 2078.91,-390.6 2087.94,-391.34"/>
</g>
<!-- action&#45;60 -->
<g id="node33" class="node">
<title>action&#45;60</title>
<polygon fill="white" stroke="black" points="2178,-410 2142,-410 2142,-374 2178,-374 2178,-410"/>
</g>
<!-- cluster&#45;16 -->
<g id="node80" class="node">
<title>cluster&#45;16</title>
<polygon fill="black" stroke="black" stroke-width="0" points="2232,-349 2214,-349 2214,-331 2232,-331 2232,-349"/>
</g>
<!-- action&#45;60&#45;&#45;cluster&#45;16 -->
<g id="edge63" class="edge">
<title>action&#45;60&#45;&#45;cluster&#45;16</title>
<path fill="none" stroke="black" d="M2178.32,-377.24C2190.01,-367.27 2204.91,-354.57 2213.94,-346.88"/>
</g>
<!-- action&#45;63 -->
<g id="node34" class="node">
<title>action&#45;63</title>
<polygon fill="white" stroke="black" points="1422,-429 1386,-429 1386,-393 1422,-393 1422,-429"/>
</g>
<!-- action&#45;63&#45;&#45;cluster&#45;14 -->
<g id="edge60" class="edge">
<title>action&#45;63&#45;&#45;cluster&#45;14</title>
<path fill="none" stroke="black" d="M1422.32,-418.66C1434.01,-423.84 1448.91,-430.43 1457.94,-434.43"/>
</g>
<!-- action&#45;64 -->
<g id="node35" class="node">
<title>action&#45;64</title>
<polygon fill="white" stroke="black" points="1548,-456 1512,-456 1512,-420 1548,-420 1548,-456"/>
</g>
<!-- cluster&#45;15 -->
<g id="node79" class="node">
<title>cluster&#45;15</title>
<polygon fill="black" stroke="black" stroke-width="0" points="1602,-420 1584,-420 1584,-402 1602,-402 1602,-420"/>
</g>
<!-- action&#45;64&#45;&#45;cluster&#45;15 -->
<g id="edge61" class="edge">
<title>action&#45;64&#45;&#45;cluster&#45;15</title>
<path fill="none" stroke="black" d="M1548.32,-430.34C1560.01,-425.16 1574.91,-418.57 1583.94,-414.57"/>
</g>
<!-- action&#45;67 -->
<g id="node36" class="node">
<title>action&#45;67</title>
<polygon fill="white" stroke="black" points="1548,-402 1512,-402 1512,-366 1548,-366 1548,-402"/>
</g>
<!-- action&#45;67&#45;&#45;cluster&#45;15 -->
<g id="edge62" class="edge">
<title>action&#45;67&#45;&#45;cluster&#45;15</title>
<path fill="none" stroke="black" d="M1548.32,-391.66C1560.01,-396.84 1574.91,-403.43 1583.94,-407.43"/>
</g>
<!-- action&#45;68 -->
<g id="node37" class="node">
<title>action&#45;68</title>
<polygon fill="white" stroke="black" points="1674,-429 1638,-429 1638,-393 1674,-393 1674,-429"/>
</g>
<!-- cluster&#45;18 -->
<g id="node82" class="node">
<title>cluster&#45;18</title>
<polygon fill="black" stroke="black" stroke-width="0" points="1728,-393 1710,-393 1710,-375 1728,-375 1728,-393"/>
</g>
<!-- action&#45;68&#45;&#45;cluster&#45;18 -->
<g id="edge67" class="edge">
<title>action&#45;68&#45;&#45;cluster&#45;18</title>
<path fill="none" stroke="black" d="M1674.32,-403.34C1686.01,-398.16 1700.91,-391.57 1709.94,-387.57"/>
</g>
<!-- action&#45;71 -->
<g id="node38" class="node">
<title>action&#45;71</title>
<polygon fill="white" stroke="black" points="2178,-356 2142,-356 2142,-320 2178,-320 2178,-356"/>
</g>
<!-- action&#45;71&#45;&#45;cluster&#45;16 -->
<g id="edge64" class="edge">
<title>action&#45;71&#45;&#45;cluster&#45;16</title>
<path fill="none" stroke="black" d="M2178.32,-338.57C2190.01,-338.95 2204.91,-339.44 2213.94,-339.74"/>
</g>
<!-- action&#45;72 -->
<g id="node39" class="node">
<title>action&#45;72</title>
<polygon fill="white" stroke="black" points="2304,-358 2268,-358 2268,-322 2304,-322 2304,-358"/>
</g>
<!-- cluster&#45;17 -->
<g id="node81" class="node">
<title>cluster&#45;17</title>
<polygon fill="black" stroke="black" stroke-width="0" points="2358,-296 2340,-296 2340,-278 2358,-278 2358,-296"/>
</g>
<!-- action&#45;72&#45;&#45;cluster&#45;17 -->
<g id="edge65" class="edge">
<title>action&#45;72&#45;&#45;cluster&#45;17</title>
<path fill="none" stroke="black" d="M2304.32,-324.95C2316.01,-314.79 2330.91,-301.85 2339.94,-294.01"/>
</g>
<!-- action&#45;75 -->
<g id="node40" class="node">
<title>action&#45;75</title>
<polygon fill="white" stroke="black" points="2304,-304 2268,-304 2268,-268 2304,-268 2304,-304"/>
</g>
<!-- action&#45;75&#45;&#45;cluster&#45;17 -->
<g id="edge66" class="edge">
<title>action&#45;75&#45;&#45;cluster&#45;17</title>
<path fill="none" stroke="black" d="M2304.32,-286.28C2316.01,-286.48 2330.91,-286.72 2339.94,-286.87"/>
</g>
<!-- action&#45;76 -->
<g id="node41" class="node">
<title>action&#45;76</title>
<polygon fill="white" stroke="black" points="2430,-305 2394,-305 2394,-269 2430,-269 2430,-305"/>
</g>
<!-- cluster&#45;20 -->
<g id="node84" class="node">
<title>cluster&#45;20</title>
<polygon fill="black" stroke="black" stroke-width="0" points="2484,-243 2466,-243 2466,-225 2484,-225 2484,-243"/>
</g>
<!-- action&#45;76&#45;&#45;cluster&#45;20 -->
<g id="edge71" class="edge">
<title>action&#45;76&#45;&#45;cluster&#45;20</title>
<path fill="none" stroke="black" d="M2430.32,-271.95C2442.01,-261.79 2456.91,-248.85 2465.94,-241.01"/>
</g>
<!-- action&#45;79 -->
<g id="node42" class="node">
<title>action&#45;79</title>
<polygon fill="white" stroke="black" points="1674,-375 1638,-375 1638,-339 1674,-339 1674,-375"/>
</g>
<!-- action&#45;79&#45;&#45;cluster&#45;18 -->
<g id="edge68" class="edge">
<title>action&#45;79&#45;&#45;cluster&#45;18</title>
<path fill="none" stroke="black" d="M1674.32,-364.66C1686.01,-369.84 1700.91,-376.43 1709.94,-380.43"/>
</g>
<!-- action&#45;80 -->
<g id="node43" class="node">
<title>action&#45;80</title>
<polygon fill="white" stroke="black" points="1800,-402 1764,-402 1764,-366 1800,-366 1800,-402"/>
</g>
<!-- cluster&#45;19 -->
<g id="node83" class="node">
<title>cluster&#45;19</title>
<polygon fill="black" stroke="black" stroke-width="0" points="1854,-352 1836,-352 1836,-334 1854,-334 1854,-352"/>
</g>
<!-- action&#45;80&#45;&#45;cluster&#45;19 -->
<g id="edge69" class="edge">
<title>action&#45;80&#45;&#45;cluster&#45;19</title>
<path fill="none" stroke="black" d="M1800.32,-372.36C1812.01,-364.5 1826.91,-354.49 1835.94,-348.42"/>
</g>
<!-- action&#45;83 -->
<g id="node44" class="node">
<title>action&#45;83</title>
<polygon fill="white" stroke="black" points="1800,-348 1764,-348 1764,-312 1800,-312 1800,-348"/>
</g>
<!-- action&#45;83&#45;&#45;cluster&#45;19 -->
<g id="edge70" class="edge">
<title>action&#45;83&#45;&#45;cluster&#45;19</title>
<path fill="none" stroke="black" d="M1800.32,-333.69C1812.01,-336.18 1826.91,-339.36 1835.94,-341.28"/>
</g>
<!-- action&#45;84 -->
<g id="node45" class="node">
<title>action&#45;84</title>
<polygon fill="white" stroke="black" points="1926,-361 1890,-361 1890,-325 1926,-325 1926,-361"/>
</g>
<!-- cluster&#45;21 -->
<g id="node85" class="node">
<title>cluster&#45;21</title>
<polygon fill="black" stroke="black" stroke-width="0" points="1980,-298 1962,-298 1962,-280 1980,-280 1980,-298"/>
</g>
<!-- action&#45;84&#45;&#45;cluster&#45;21 -->
<g id="edge73" class="edge">
<title>action&#45;84&#45;&#45;cluster&#45;21</title>
<path fill="none" stroke="black" d="M1926.32,-327.67C1938.01,-317.32 1952.91,-304.13 1961.94,-296.14"/>
</g>
<!-- action&#45;87 -->
<g id="node46" class="node">
<title>action&#45;87</title>
<polygon fill="white" stroke="black" points="2430,-251 2394,-251 2394,-215 2430,-215 2430,-251"/>
</g>
<!-- action&#45;87&#45;&#45;cluster&#45;20 -->
<g id="edge72" class="edge">
<title>action&#45;87&#45;&#45;cluster&#45;20</title>
<path fill="none" stroke="black" d="M2430.32,-233.28C2442.01,-233.48 2456.91,-233.72 2465.94,-233.87"/>
</g>
<!-- action&#45;88 -->
<g id="node47" class="node">
<title>action&#45;88</title>
<polygon fill="white" stroke="black" points="2556,-252 2520,-252 2520,-216 2556,-216 2556,-252"/>
</g>
<!-- cluster&#45;25 -->
<g id="node89" class="node">
<title>cluster&#45;25</title>
<polygon fill="black" stroke="black" stroke-width="0" points="2610,-189 2592,-189 2592,-171 2610,-171 2610,-189"/>
</g>
<!-- action&#45;88&#45;&#45;cluster&#45;25 -->
<g id="edge81" class="edge">
<title>action&#45;88&#45;&#45;cluster&#45;25</title>
<path fill="none" stroke="black" d="M2556.32,-218.67C2568.01,-208.32 2582.91,-195.13 2591.94,-187.14"/>
</g>
<!-- action&#45;91 -->
<g id="node48" class="node">
<title>action&#45;91</title>
<polygon fill="white" stroke="black" points="1926,-307 1890,-307 1890,-271 1926,-271 1926,-307"/>
</g>
<!-- action&#45;91&#45;&#45;cluster&#45;21 -->
<g id="edge74" class="edge">
<title>action&#45;91&#45;&#45;cluster&#45;21</title>
<path fill="none" stroke="black" d="M1926.32,-289C1938.01,-289 1952.91,-289 1961.94,-289"/>
</g>
<!-- action&#45;92 -->
<g id="node49" class="node">
<title>action&#45;92</title>
<polygon fill="white" stroke="black" points="2052,-307 2016,-307 2016,-271 2052,-271 2052,-307"/>
</g>
<!-- cluster&#45;22 -->
<g id="node86" class="node">
<title>cluster&#45;22</title>
<polygon fill="black" stroke="black" stroke-width="0" points="2106,-244 2088,-244 2088,-226 2106,-226 2106,-244"/>
</g>
<!-- action&#45;92&#45;&#45;cluster&#45;22 -->
<g id="edge75" class="edge">
<title>action&#45;92&#45;&#45;cluster&#45;22</title>
<path fill="none" stroke="black" d="M2052.32,-273.67C2064.01,-263.32 2078.91,-250.13 2087.94,-242.14"/>
</g>
<!-- action&#45;95 -->
<g id="node50" class="node">
<title>action&#45;95</title>
<polygon fill="white" stroke="black" points="2052,-253 2016,-253 2016,-217 2052,-217 2052,-253"/>
</g>
<!-- action&#45;95&#45;&#45;cluster&#45;22 -->
<g id="edge76" class="edge">
<title>action&#45;95&#45;&#45;cluster&#45;22</title>
<path fill="none" stroke="black" d="M2052.32,-235C2064.01,-235 2078.91,-235 2087.94,-235"/>
</g>
<!-- action&#45;96 -->
<g id="node51" class="node">
<title>action&#45;96</title>
<polygon fill="white" stroke="black" points="2178,-253 2142,-253 2142,-217 2178,-217 2178,-253"/>
</g>
<!-- cluster&#45;23 -->
<g id="node87" class="node">
<title>cluster&#45;23</title>
<polygon fill="black" stroke="black" stroke-width="0" points="2232,-190 2214,-190 2214,-172 2232,-172 2232,-190"/>
</g>
<!-- action&#45;96&#45;&#45;cluster&#45;23 -->
<g id="edge77" class="edge">
<title>action&#45;96&#45;&#45;cluster&#45;23</title>
<path fill="none" stroke="black" d="M2178.32,-219.67C2190.01,-209.32 2204.91,-196.13 2213.94,-188.14"/>
</g>
<!-- action&#45;99 -->
<g id="node52" class="node">
<title>action&#45;99</title>
<polygon fill="white" stroke="black" points="2178,-199 2142,-199 2142,-163 2178,-163 2178,-199"/>
</g>
<!-- action&#45;99&#45;&#45;cluster&#45;23 -->
<g id="edge78" class="edge">
<title>action&#45;99&#45;&#45;cluster&#45;23</title>
<path fill="none" stroke="black" d="M2178.32,-181C2190.01,-181 2204.91,-181 2213.94,-181"/>
</g>
<!-- action&#45;100 -->
<g id="node53" class="node">
<title>action&#45;100</title>
<polygon fill="white" stroke="black" points="2304,-199 2268,-199 2268,-163 2304,-163 2304,-199"/>
</g>
<!-- cluster&#45;24 -->
<g id="node88" class="node">
<title>cluster&#45;24</title>
<polygon fill="black" stroke="black" stroke-width="0" points="2358,-136 2340,-136 2340,-118 2358,-118 2358,-136"/>
</g>
<!-- action&#45;100&#45;&#45;cluster&#45;24 -->
<g id="edge79" class="edge">
<title>action&#45;100&#45;&#45;cluster&#45;24</title>
<path fill="none" stroke="black" d="M2304.32,-165.67C2316.01,-155.32 2330.91,-142.13 2339.94,-134.14"/>
</g>
<!-- action&#45;103 -->
<g id="node54" class="node">
<title>action&#45;103</title>
<polygon fill="white" stroke="black" points="2304,-145 2268,-145 2268,-109 2304,-109 2304,-145"/>
</g>
<!-- action&#45;103&#45;&#45;cluster&#45;24 -->
<g id="edge80" class="edge">
<title>action&#45;103&#45;&#45;cluster&#45;24</title>
<path fill="none" stroke="black" d="M2304.32,-127C2316.01,-127 2330.91,-127 2339.94,-127"/>
</g>
<!-- action&#45;104 -->
<g id="node55" class="node">
<title>action&#45;104</title>
<polygon fill="white" stroke="black" points="2430,-145 2394,-145 2394,-109 2430,-109 2430,-145"/>
</g>
<!-- cluster&#45;27 -->
<g id="node91" class="node">
<title>cluster&#45;27</title>
<polygon fill="black" stroke="black" stroke-width="0" points="2484,-82 2466,-82 2466,-64 2484,-64 2484,-82"/>
</g>
<!-- action&#45;104&#45;&#45;cluster&#45;27 -->
<g id="edge85" class="edge">
<title>action&#45;104&#45;&#45;cluster&#45;27</title>
<path fill="none" stroke="black" d="M2430.32,-111.67C2442.01,-101.32 2456.91,-88.13 2465.94,-80.14"/>
</g>
<!-- action&#45;107 -->
<g id="node56" class="node">
<title>action&#45;107</title>
<polygon fill="white" stroke="black" points="2556,-198 2520,-198 2520,-162 2556,-162 2556,-198"/>
</g>
<!-- action&#45;107&#45;&#45;cluster&#45;25 -->
<g id="edge82" class="edge">
<title>action&#45;107&#45;&#45;cluster&#45;25</title>
<path fill="none" stroke="black" d="M2556.32,-180C2568.01,-180 2582.91,-180 2591.94,-180"/>
</g>
<!-- action&#45;108 -->
<g id="node57" class="node">
<title>action&#45;108</title>
<polygon fill="white" stroke="black" points="2682,-198 2646,-198 2646,-162 2682,-162 2682,-198"/>
</g>
<!-- cluster&#45;26 -->
<g id="node90" class="node">
<title>cluster&#45;26</title>
<polygon fill="black" stroke="black" stroke-width="0" points="2736,-135 2718,-135 2718,-117 2736,-117 2736,-135"/>
</g>
<!-- action&#45;108&#45;&#45;cluster&#45;26 -->
<g id="edge83" class="edge">
<title>action&#45;108&#45;&#45;cluster&#45;26</title>
<path fill="none" stroke="black" d="M2682.32,-164.67C2694.01,-154.32 2708.91,-141.13 2717.94,-133.14"/>
</g>
<!-- action&#45;111 -->
<g id="node58" class="node">
<title>action&#45;111</title>
<polygon fill="white" stroke="black" points="2682,-144 2646,-144 2646,-108 2682,-108 2682,-144"/>
</g>
<!-- action&#45;111&#45;&#45;cluster&#45;26 -->
<g id="edge84" class="edge">
<title>action&#45;111&#45;&#45;cluster&#45;26</title>
<path fill="none" stroke="black" d="M2682.32,-126C2694.01,-126 2708.91,-126 2717.94,-126"/>
</g>
<!-- action&#45;115 -->
<g id="node59" class="node">
<title>action&#45;115</title>
<polygon fill="white" stroke="black" points="2430,-91 2394,-91 2394,-55 2430,-55 2430,-91"/>
</g>
<!-- action&#45;115&#45;&#45;cluster&#45;27 -->
<g id="edge86" class="edge">
<title>action&#45;115&#45;&#45;cluster&#45;27</title>
<path fill="none" stroke="black" d="M2430.32,-73C2442.01,-73 2456.91,-73 2465.94,-73"/>
</g>
<!-- action&#45;116 -->
<g id="node60" class="node">
<title>action&#45;116</title>
<polygon fill="white" stroke="black" points="2556,-91 2520,-91 2520,-55 2556,-55 2556,-91"/>
</g>
<!-- cluster&#45;28 -->
<g id="node92" class="node">
<title>cluster&#45;28</title>
<polygon fill="black" stroke="black" stroke-width="0" points="2610,-81 2592,-81 2592,-63 2610,-63 2610,-81"/>
</g>
<!-- action&#45;116&#45;&#45;cluster&#45;28 -->
<g id="edge87" class="edge">
<title>action&#45;116&#45;&#45;cluster&#45;28</title>
<path fill="none" stroke="black" d="M2556.32,-72.72C2568.01,-72.52 2582.91,-72.28 2591.94,-72.13"/>
</g>
<!-- action&#45;119 -->
<g id="node61" class="node">
<title>action&#45;119</title>
<polygon fill="white" stroke="black" points="2556,-37 2520,-37 2520,-1 2556,-1 2556,-37"/>
</g>
<!-- action&#45;119&#45;&#45;cluster&#45;28 -->
<g id="edge88" class="edge">
<title>action&#45;119&#45;&#45;cluster&#45;28</title>
<path fill="none" stroke="black" d="M2556.32,-34.05C2568.01,-44.21 2582.91,-57.15 2591.94,-64.99"/>
</g>
<!-- action&#45;120 -->
<g id="node62" class="node">
<title>action&#45;120</title>
<polygon fill="#c9211e" stroke="black" points="2682,-90 2646,-90 2646,-54 2682,-54 2682,-90"/>
</g>
<!-- cluster&#45;29 -->
<g id="node93" class="node">
<title>cluster&#45;29</title>
<polygon fill="black" stroke="black" stroke-width="0" points="2736,-81 2718,-81 2718,-63 2736,-63 2736,-81"/>
</g>
<!-- action&#45;120&#45;&#45;cluster&#45;29 -->
<g id="edge89" class="edge">
<title>action&#45;120&#45;&#45;cluster&#45;29</title>
<path fill="none" stroke="black" d="M2682.32,-72C2694.01,-72 2708.91,-72 2717.94,-72"/>
</g>
<!-- action&#45;123 -->
<g id="node63" class="node">
<title>action&#45;123</title>
<polygon fill="#00008b" stroke="black" points="2682,-36 2646,-36 2646,0 2682,0 2682,-36"/>
</g>
<!-- action&#45;123&#45;&#45;cluster&#45;29 -->
<g id="edge90" class="edge">
<title>action&#45;123&#45;&#45;cluster&#45;29</title>
<path fill="none" stroke="black" d="M2682.32,-33.33C2694.01,-43.68 2708.91,-56.87 2717.94,-64.86"/>
</g>
<!-- cluster&#45;0&#45;&#45;action&#45;4 -->
<g id="edge1" class="edge">
<title>cluster&#45;0&#45;&#45;action&#45;4</title>
<path fill="none" stroke="black" d="M90.23,-735C99.33,-735 114.26,-735 125.92,-735"/>
</g>
<!-- cluster&#45;1&#45;&#45;action&#45;8 -->
<g id="edge2" class="edge">
<title>cluster&#45;1&#45;&#45;action&#45;8</title>
<path fill="none" stroke="black" d="M216.23,-708C225.33,-708 240.26,-708 251.92,-708"/>
</g>
<!-- cluster&#45;2&#45;&#45;action&#45;14 -->
<g id="edge3" class="edge">
<title>cluster&#45;2&#45;&#45;action&#45;14</title>
<path fill="none" stroke="black" d="M1854.23,-485C1863.33,-485 1878.26,-485 1889.92,-485"/>
</g>
<!-- cluster&#45;3&#45;&#45;action&#45;18 -->
<g id="edge4" class="edge">
<title>cluster&#45;3&#45;&#45;action&#45;18</title>
<path fill="none" stroke="black" d="M1980.23,-441C1989.33,-441 2004.26,-441 2015.92,-441"/>
</g>
<!-- cluster&#45;4&#45;&#45;action&#45;22 -->
<g id="edge5" class="edge">
<title>cluster&#45;4&#45;&#45;action&#45;22</title>
<path fill="none" stroke="black" d="M342.23,-681C351.33,-681 366.26,-681 377.92,-681"/>
</g>
<!-- cluster&#45;5&#45;&#45;action&#45;26 -->
<g id="edge6" class="edge">
<title>cluster&#45;5&#45;&#45;action&#45;26</title>
<path fill="none" stroke="black" d="M468.23,-654C477.33,-654 492.26,-654 503.92,-654"/>
</g>
<!-- cluster&#45;6&#45;&#45;action&#45;32 -->
<g id="edge7" class="edge">
<title>cluster&#45;6&#45;&#45;action&#45;32</title>
<path fill="none" stroke="black" d="M594.23,-627C603.33,-627 618.26,-627 629.92,-627"/>
</g>
<!-- cluster&#45;7&#45;&#45;action&#45;36 -->
<g id="edge8" class="edge">
<title>cluster&#45;7&#45;&#45;action&#45;36</title>
<path fill="none" stroke="black" d="M720.23,-600C729.33,-600 744.26,-600 755.92,-600"/>
</g>
<!-- cluster&#45;8&#45;&#45;action&#45;40 -->
<g id="edge9" class="edge">
<title>cluster&#45;8&#45;&#45;action&#45;40</title>
<path fill="none" stroke="black" d="M846.23,-573C855.33,-573 870.26,-573 881.92,-573"/>
</g>
<!-- cluster&#45;9&#45;&#45;action&#45;44 -->
<g id="edge10" class="edge">
<title>cluster&#45;9&#45;&#45;action&#45;44</title>
<path fill="none" stroke="black" d="M972.23,-546C981.33,-546 996.26,-546 1007.92,-546"/>
</g>
<!-- cluster&#45;10&#45;&#45;action&#45;48 -->
<g id="edge11" class="edge">
<title>cluster&#45;10&#45;&#45;action&#45;48</title>
<path fill="none" stroke="black" d="M1098.23,-519C1107.33,-519 1122.26,-519 1133.92,-519"/>
</g>
<!-- cluster&#45;11&#45;&#45;action&#45;52 -->
<g id="edge12" class="edge">
<title>cluster&#45;11&#45;&#45;action&#45;52</title>
<path fill="none" stroke="black" d="M1224.23,-492C1233.33,-492 1248.26,-492 1259.92,-492"/>
</g>
<!-- cluster&#45;12&#45;&#45;action&#45;56 -->
<g id="edge13" class="edge">
<title>cluster&#45;12&#45;&#45;action&#45;56</title>
<path fill="none" stroke="black" d="M1350.23,-465C1359.33,-465 1374.26,-465 1385.92,-465"/>
</g>
<!-- cluster&#45;13&#45;&#45;action&#45;60 -->
<g id="edge14" class="edge">
<title>cluster&#45;13&#45;&#45;action&#45;60</title>
<path fill="none" stroke="black" d="M2106.23,-392C2115.33,-392 2130.26,-392 2141.92,-392"/>
</g>
<!-- cluster&#45;14&#45;&#45;action&#45;64 -->
<g id="edge15" class="edge">
<title>cluster&#45;14&#45;&#45;action&#45;64</title>
<path fill="none" stroke="black" d="M1476.23,-438C1485.33,-438 1500.26,-438 1511.92,-438"/>
</g>
<!-- cluster&#45;15&#45;&#45;action&#45;68 -->
<g id="edge16" class="edge">
<title>cluster&#45;15&#45;&#45;action&#45;68</title>
<path fill="none" stroke="black" d="M1602.23,-411C1611.33,-411 1626.26,-411 1637.92,-411"/>
</g>
<!-- cluster&#45;16&#45;&#45;action&#45;72 -->
<g id="edge17" class="edge">
<title>cluster&#45;16&#45;&#45;action&#45;72</title>
<path fill="none" stroke="black" d="M2232.23,-340C2241.33,-340 2256.26,-340 2267.92,-340"/>
</g>
<!-- cluster&#45;17&#45;&#45;action&#45;76 -->
<g id="edge18" class="edge">
<title>cluster&#45;17&#45;&#45;action&#45;76</title>
<path fill="none" stroke="black" d="M2358.23,-287C2367.33,-287 2382.26,-287 2393.92,-287"/>
</g>
<!-- cluster&#45;18&#45;&#45;action&#45;80 -->
<g id="edge19" class="edge">
<title>cluster&#45;18&#45;&#45;action&#45;80</title>
<path fill="none" stroke="black" d="M1728.23,-384C1737.33,-384 1752.26,-384 1763.92,-384"/>
</g>
<!-- cluster&#45;19&#45;&#45;action&#45;84 -->
<g id="edge20" class="edge">
<title>cluster&#45;19&#45;&#45;action&#45;84</title>
<path fill="none" stroke="black" d="M1854.23,-343C1863.33,-343 1878.26,-343 1889.92,-343"/>
</g>
<!-- cluster&#45;20&#45;&#45;action&#45;88 -->
<g id="edge21" class="edge">
<title>cluster&#45;20&#45;&#45;action&#45;88</title>
<path fill="none" stroke="black" d="M2484.23,-234C2493.33,-234 2508.26,-234 2519.92,-234"/>
</g>
<!-- cluster&#45;21&#45;&#45;action&#45;92 -->
<g id="edge22" class="edge">
<title>cluster&#45;21&#45;&#45;action&#45;92</title>
<path fill="none" stroke="black" d="M1980.23,-289C1989.33,-289 2004.26,-289 2015.92,-289"/>
</g>
<!-- cluster&#45;22&#45;&#45;action&#45;96 -->
<g id="edge23" class="edge">
<title>cluster&#45;22&#45;&#45;action&#45;96</title>
<path fill="none" stroke="black" d="M2106.23,-235C2115.33,-235 2130.26,-235 2141.92,-235"/>
</g>
<!-- cluster&#45;23&#45;&#45;action&#45;100 -->
<g id="edge24" class="edge">
<title>cluster&#45;23&#45;&#45;action&#45;100</title>
<path fill="none" stroke="black" d="M2232.23,-181C2241.33,-181 2256.26,-181 2267.92,-181"/>
</g>
<!-- cluster&#45;24&#45;&#45;action&#45;104 -->
<g id="edge25" class="edge">
<title>cluster&#45;24&#45;&#45;action&#45;104</title>
<path fill="none" stroke="black" d="M2358.23,-127C2367.33,-127 2382.26,-127 2393.92,-127"/>
</g>
<!-- cluster&#45;25&#45;&#45;action&#45;108 -->
<g id="edge26" class="edge">
<title>cluster&#45;25&#45;&#45;action&#45;108</title>
<path fill="none" stroke="black" d="M2610.23,-180C2619.33,-180 2634.26,-180 2645.92,-180"/>
</g>
<!-- cluster&#45;26&#45;&#45;action&#45;112 -->
<g id="edge27" class="edge">
<title>cluster&#45;26&#45;&#45;action&#45;112</title>
<path fill="none" stroke="black" d="M2736.23,-126C2745.33,-126 2760.26,-126 2771.92,-126"/>
</g>
<!-- cluster&#45;27&#45;&#45;action&#45;116 -->
<g id="edge28" class="edge">
<title>cluster&#45;27&#45;&#45;action&#45;116</title>
<path fill="none" stroke="black" d="M2484.23,-73C2493.33,-73 2508.26,-73 2519.92,-73"/>
</g>
<!-- cluster&#45;28&#45;&#45;action&#45;120 -->
<g id="edge29" class="edge">
<title>cluster&#45;28&#45;&#45;action&#45;120</title>
<path fill="none" stroke="black" d="M2610.23,-72C2619.33,-72 2634.26,-72 2645.92,-72"/>
</g>
<!-- cluster&#45;29&#45;&#45;action&#45;124 -->
<g id="edge30" class="edge">
<title>cluster&#45;29&#45;&#45;action&#45;124</title>
<path fill="none" stroke="black" d="M2736.23,-72C2745.33,-72 2760.26,-72 2771.92,-72"/>
</g>
</g>
</svg>
