<?xml version="1.0" encoding="UTF-8" standalone="no"?>
<!DOCTYPE svg PUBLIC "-//W3C//DTD SVG 1.1//EN"
 "http://www.w3.org/Graphics/SVG/1.1/DTD/svg11.dtd">
<!-- Generated by graphviz version 2.43.0 (0)
 -->
<!-- Title: g Pages: 1 -->
<svg width="1419pt" height="1795pt"
 viewBox="0.00 0.00 1419.00 1795.00" xmlns="http://www.w3.org/2000/svg" xmlns:xlink="http://www.w3.org/1999/xlink">
<g id="graph0" class="graph" transform="scale(1 1) rotate(0) translate(4 1791)">
<title>g</title>
<polygon fill="white" stroke="transparent" points="-4,4 -4,-1791 1415,-1791 1415,4 -4,4"/>
<g id="clust1" class="cluster">
<title>cluster_actionlib</title>
<polygon fill="none" stroke="black" points="1162,-350 1162,-1024 1403,-1024 1403,-350 1162,-350"/>
<text text-anchor="start" x="1238.5" y="-1009.8" font-family="Arial" font-weight="bold" font-size="14.00">Action library</text>
</g>
<!-- action&#45;18 -->
<g id="node1" class="node">
<title>action&#45;18</title>
<path fill="black" stroke="transparent" d="M1185.5,-963C1185.5,-963 1379.5,-963 1379.5,-963 1383,-963 1386.5,-966.5 1386.5,-970 1386.5,-970 1386.5,-977 1386.5,-977 1386.5,-980.5 1383,-984 1379.5,-984 1379.5,-984 1185.5,-984 1185.5,-984 1182,-984 1178.5,-980.5 1178.5,-977 1178.5,-977 1178.5,-970 1178.5,-970 1178.5,-966.5 1182,-963 1185.5,-963"/>
<text text-anchor="start" x="1252.5" y="-970.8" font-family="Arial" font-weight="bold" font-size="14.00" fill="white">action&#45;18</text>
<text text-anchor="start" x="1181.5" y="-945.8" font-family="Arial" font-weight="bold" font-size="14.00">params:</text>
<text text-anchor="start" x="1181.5" y="-931.8" font-family="Arial" font-size="14.00">X4, X5, X6</text>
<text text-anchor="start" x="1181.5" y="-907.8" font-family="Arial" font-weight="bold" font-size="14.00">pre:</text>
<text text-anchor="start" x="1181.5" y="-893.8" font-family="Arial" font-size="14.00">at(player&#45;01,X5), at(stone&#45;01,X6),</text>
<text text-anchor="start" x="1181.5" y="-879.8" font-family="Arial" font-size="14.00">clear(X4), is&#45;nongoal(X4),</text>
<text text-anchor="start" x="1181.5" y="-865.8" font-family="Arial" font-size="14.00">is&#45;nongoal(X5), is&#45;nongoal(X6),</text>
<text text-anchor="start" x="1181.5" y="-851.8" font-family="Arial" font-size="14.00">is&#45;player(player&#45;01),</text>
<text text-anchor="start" x="1181.5" y="-837.8" font-family="Arial" font-size="14.00">is&#45;stone(stone&#45;01), location(X4),</text>
<text text-anchor="start" x="1181.5" y="-823.8" font-family="Arial" font-size="14.00">location(X5), location(X6),</text>
<text text-anchor="start" x="1181.5" y="-809.8" font-family="Arial" font-size="14.00">move&#45;dir(X4,X6,dir&#45;up),</text>
<text text-anchor="start" x="1181.5" y="-795.8" font-family="Arial" font-size="14.00">move&#45;dir(X5,X6,dir&#45;down),</text>
<text text-anchor="start" x="1181.5" y="-781.8" font-family="Arial" font-size="14.00">move&#45;dir(X6,X4,dir&#45;down),</text>
<text text-anchor="start" x="1181.5" y="-767.8" font-family="Arial" font-size="14.00">move&#45;dir(X6,X5,dir&#45;up),</text>
<text text-anchor="start" x="1181.5" y="-753.8" font-family="Arial" font-size="14.00">thing(player&#45;01), thing(stone&#45;01)</text>
<text text-anchor="start" x="1181.5" y="-729.8" font-family="Arial" font-weight="bold" font-size="14.00">add:</text>
<text text-anchor="start" x="1181.5" y="-715.8" font-family="Arial" font-size="14.00">at(player&#45;01,X6), at(stone&#45;01,X4),</text>
<text text-anchor="start" x="1181.5" y="-701.8" font-family="Arial" font-size="14.00">clear(X5)</text>
<text text-anchor="start" x="1181.5" y="-677.8" font-family="Arial" font-weight="bold" font-size="14.00">del:</text>
<text text-anchor="start" x="1181.5" y="-663.8" font-family="Arial" font-size="14.00">at(player&#45;01,X5), at(stone&#45;01,X6),</text>
<text text-anchor="start" x="1181.5" y="-649.8" font-family="Arial" font-size="14.00">clear(X4)</text>
<path fill="none" stroke="black" stroke-width="4" d="M1184.5,-637.5C1184.5,-637.5 1380.5,-637.5 1380.5,-637.5 1386.5,-637.5 1392.5,-643.5 1392.5,-649.5 1392.5,-649.5 1392.5,-978.5 1392.5,-978.5 1392.5,-984.5 1386.5,-990.5 1380.5,-990.5 1380.5,-990.5 1184.5,-990.5 1184.5,-990.5 1178.5,-990.5 1172.5,-984.5 1172.5,-978.5 1172.5,-978.5 1172.5,-649.5 1172.5,-649.5 1172.5,-643.5 1178.5,-637.5 1184.5,-637.5"/>
</g>
<!-- action&#45;22 -->
<g id="node2" class="node">
<title>action&#45;22</title>
<path fill="#008000" stroke="transparent" d="M1185.5,-588C1185.5,-588 1380.5,-588 1380.5,-588 1384,-588 1387.5,-591.5 1387.5,-595 1387.5,-595 1387.5,-602 1387.5,-602 1387.5,-605.5 1384,-609 1380.5,-609 1380.5,-609 1185.5,-609 1185.5,-609 1182,-609 1178.5,-605.5 1178.5,-602 1178.5,-602 1178.5,-595 1178.5,-595 1178.5,-591.5 1182,-588 1185.5,-588"/>
<text text-anchor="start" x="1253" y="-595.8" font-family="Arial" font-weight="bold" font-size="14.00" fill="white">action&#45;22</text>
<text text-anchor="start" x="1181.5" y="-570.8" font-family="Arial" font-weight="bold" font-size="14.00">params:</text>
<text text-anchor="start" x="1181.5" y="-556.8" font-family="Arial" font-size="14.00">X0, X1, X2, X3</text>
<text text-anchor="start" x="1181.5" y="-532.8" font-family="Arial" font-weight="bold" font-size="14.00">pre:</text>
<text text-anchor="start" x="1181.5" y="-518.8" font-family="Arial" font-size="14.00">at(player&#45;01,X3), clear(X0),</text>
<text text-anchor="start" x="1181.5" y="-504.8" font-family="Arial" font-size="14.00">is&#45;nongoal(X0), is&#45;nongoal(X3),</text>
<text text-anchor="start" x="1181.5" y="-490.8" font-family="Arial" font-size="14.00">is&#45;player(player&#45;01), location(X0),</text>
<text text-anchor="start" x="1181.5" y="-476.8" font-family="Arial" font-size="14.00">location(X3), move&#45;dir(X0,X3,X1),</text>
<text text-anchor="start" x="1181.5" y="-462.8" font-family="Arial" font-size="14.00">move&#45;dir(X3,X0,X2),</text>
<text text-anchor="start" x="1181.5" y="-448.8" font-family="Arial" font-size="14.00">thing(player&#45;01)</text>
<text text-anchor="start" x="1181.5" y="-424.8" font-family="Arial" font-weight="bold" font-size="14.00">add:</text>
<text text-anchor="start" x="1181.5" y="-410.8" font-family="Arial" font-size="14.00">at(player&#45;01,X0), clear(X3)</text>
<text text-anchor="start" x="1181.5" y="-386.8" font-family="Arial" font-weight="bold" font-size="14.00">del:</text>
<text text-anchor="start" x="1181.5" y="-372.8" font-family="Arial" font-size="14.00">at(player&#45;01,X3), clear(X0)</text>
<path fill="none" stroke="#008000" stroke-width="4" d="M1184,-360.5C1184,-360.5 1381,-360.5 1381,-360.5 1387,-360.5 1393,-366.5 1393,-372.5 1393,-372.5 1393,-603.5 1393,-603.5 1393,-609.5 1387,-615.5 1381,-615.5 1381,-615.5 1184,-615.5 1184,-615.5 1178,-615.5 1172,-609.5 1172,-603.5 1172,-603.5 1172,-372.5 1172,-372.5 1172,-366.5 1178,-360.5 1184,-360.5"/>
</g>
<!-- action&#45;1 -->
<g id="node3" class="node">
<title>action&#45;1</title>
<path fill="black" stroke="transparent" d="M12.5,-930C12.5,-930 221.5,-930 221.5,-930 225,-930 228.5,-933.5 228.5,-937 228.5,-937 228.5,-944 228.5,-944 228.5,-947.5 225,-951 221.5,-951 221.5,-951 12.5,-951 12.5,-951 9,-951 5.5,-947.5 5.5,-944 5.5,-944 5.5,-937 5.5,-937 5.5,-933.5 9,-930 12.5,-930"/>
<text text-anchor="start" x="91" y="-937.8" font-family="Arial" font-weight="bold" font-size="14.00" fill="white">action&#45;1</text>
<text text-anchor="start" x="8.5" y="-912.8" font-family="Arial" font-weight="bold" font-size="14.00">params:</text>
<text text-anchor="start" x="8.5" y="-887.8" font-family="Arial" font-weight="bold" font-size="14.00">pre:</text>
<text text-anchor="start" x="8.5" y="-873.8" font-family="Arial" font-size="14.00">at(player&#45;01,pos&#45;6&#45;3),</text>
<text text-anchor="start" x="8.5" y="-859.8" font-family="Arial" font-size="14.00">clear(pos&#45;6&#45;2),</text>
<text text-anchor="start" x="8.5" y="-845.8" font-family="Arial" font-size="14.00">is&#45;nongoal(pos&#45;6&#45;2),</text>
<text text-anchor="start" x="8.5" y="-831.8" font-family="Arial" font-size="14.00">is&#45;nongoal(pos&#45;6&#45;3),</text>
<text text-anchor="start" x="8.5" y="-817.8" font-family="Arial" font-size="14.00">is&#45;player(player&#45;01),</text>
<text text-anchor="start" x="8.5" y="-803.8" font-family="Arial" font-size="14.00">location(pos&#45;6&#45;2),</text>
<text text-anchor="start" x="8.5" y="-789.8" font-family="Arial" font-size="14.00">location(pos&#45;6&#45;3),</text>
<text text-anchor="start" x="8.5" y="-775.8" font-family="Arial" font-size="14.00">move&#45;dir(pos&#45;6&#45;2,pos&#45;6&#45;3,dir&#45;down),</text>
<text text-anchor="start" x="8.5" y="-761.8" font-family="Arial" font-size="14.00">move&#45;dir(pos&#45;6&#45;3,pos&#45;6&#45;2,dir&#45;up),</text>
<text text-anchor="start" x="8.5" y="-747.8" font-family="Arial" font-size="14.00">thing(player&#45;01)</text>
<text text-anchor="start" x="8.5" y="-723.8" font-family="Arial" font-weight="bold" font-size="14.00">add:</text>
<text text-anchor="start" x="8.5" y="-709.8" font-family="Arial" font-size="14.00">at(player&#45;01,pos&#45;6&#45;2),</text>
<text text-anchor="start" x="8.5" y="-695.8" font-family="Arial" font-size="14.00">clear(pos&#45;6&#45;3)</text>
<text text-anchor="start" x="8.5" y="-671.8" font-family="Arial" font-weight="bold" font-size="14.00">del:</text>
<text text-anchor="start" x="8.5" y="-657.8" font-family="Arial" font-size="14.00">at(player&#45;01,pos&#45;6&#45;3),</text>
<text text-anchor="start" x="8.5" y="-643.8" font-family="Arial" font-size="14.00">clear(pos&#45;6&#45;2)</text>
<path fill="none" stroke="black" d="M12,-632C12,-632 221,-632 221,-632 227,-632 233,-638 233,-644 233,-644 233,-944 233,-944 233,-950 227,-956 221,-956 221,-956 12,-956 12,-956 6,-956 0,-950 0,-944 0,-944 0,-644 0,-644 0,-638 6,-632 12,-632"/>
</g>
<!-- cluster&#45;0 -->
<g id="node13" class="node">
<title>cluster&#45;0</title>
<path fill="black" stroke="transparent" d="M281,-596C281,-596 342,-596 342,-596 348,-596 354,-602 354,-608 354,-608 354,-638 354,-638 354,-644 348,-650 342,-650 342,-650 281,-650 281,-650 275,-650 269,-644 269,-638 269,-638 269,-608 269,-608 269,-602 275,-596 281,-596"/>
<text text-anchor="start" x="281.5" y="-632.8" font-family="Arial" font-weight="bold" font-size="14.00" fill="white">cluster&#45;0 </text>
<text text-anchor="start" x="276.5" y="-607.8" font-family="Arial" font-weight="bold" font-size="14.00" fill="white">dist.: &#160;</text>
<text text-anchor="start" x="316.5" y="-607.8" font-family="Arial" font-size="14.00" fill="white"> 0.33</text>
</g>
<!-- action&#45;1&#45;&#45;cluster&#45;0 -->
<g id="edge6" class="edge">
<title>action&#45;1&#45;&#45;cluster&#45;0</title>
<path fill="none" stroke="black" d="M233.11,-691.57C250.29,-676.35 266.63,-661.87 279.83,-650.18"/>
</g>
<!-- action&#45;3 -->
<g id="node4" class="node">
<title>action&#45;3</title>
<path fill="black" stroke="transparent" d="M15.5,-588C15.5,-588 218.5,-588 218.5,-588 222,-588 225.5,-591.5 225.5,-595 225.5,-595 225.5,-602 225.5,-602 225.5,-605.5 222,-609 218.5,-609 218.5,-609 15.5,-609 15.5,-609 12,-609 8.5,-605.5 8.5,-602 8.5,-602 8.5,-595 8.5,-595 8.5,-591.5 12,-588 15.5,-588"/>
<text text-anchor="start" x="91" y="-595.8" font-family="Arial" font-weight="bold" font-size="14.00" fill="white">action&#45;3</text>
<text text-anchor="start" x="11.5" y="-570.8" font-family="Arial" font-weight="bold" font-size="14.00">params:</text>
<text text-anchor="start" x="11.5" y="-545.8" font-family="Arial" font-weight="bold" font-size="14.00">pre:</text>
<text text-anchor="start" x="11.5" y="-531.8" font-family="Arial" font-size="14.00">at(player&#45;01,pos&#45;6&#45;2),</text>
<text text-anchor="start" x="11.5" y="-517.8" font-family="Arial" font-size="14.00">clear(pos&#45;5&#45;2),</text>
<text text-anchor="start" x="11.5" y="-503.8" font-family="Arial" font-size="14.00">is&#45;nongoal(pos&#45;5&#45;2),</text>
<text text-anchor="start" x="11.5" y="-489.8" font-family="Arial" font-size="14.00">is&#45;nongoal(pos&#45;6&#45;2),</text>
<text text-anchor="start" x="11.5" y="-475.8" font-family="Arial" font-size="14.00">is&#45;player(player&#45;01),</text>
<text text-anchor="start" x="11.5" y="-461.8" font-family="Arial" font-size="14.00">location(pos&#45;5&#45;2),</text>
<text text-anchor="start" x="11.5" y="-447.8" font-family="Arial" font-size="14.00">location(pos&#45;6&#45;2),</text>
<text text-anchor="start" x="11.5" y="-433.8" font-family="Arial" font-size="14.00">move&#45;dir(pos&#45;5&#45;2,pos&#45;6&#45;2,dir&#45;right),</text>
<text text-anchor="start" x="11.5" y="-419.8" font-family="Arial" font-size="14.00">move&#45;dir(pos&#45;6&#45;2,pos&#45;5&#45;2,dir&#45;left),</text>
<text text-anchor="start" x="11.5" y="-405.8" font-family="Arial" font-size="14.00">thing(player&#45;01)</text>
<text text-anchor="start" x="11.5" y="-381.8" font-family="Arial" font-weight="bold" font-size="14.00">add:</text>
<text text-anchor="start" x="11.5" y="-367.8" font-family="Arial" font-size="14.00">at(player&#45;01,pos&#45;5&#45;2),</text>
<text text-anchor="start" x="11.5" y="-353.8" font-family="Arial" font-size="14.00">clear(pos&#45;6&#45;2)</text>
<text text-anchor="start" x="11.5" y="-329.8" font-family="Arial" font-weight="bold" font-size="14.00">del:</text>
<text text-anchor="start" x="11.5" y="-315.8" font-family="Arial" font-size="14.00">at(player&#45;01,pos&#45;6&#45;2),</text>
<text text-anchor="start" x="11.5" y="-301.8" font-family="Arial" font-size="14.00">clear(pos&#45;5&#45;2)</text>
<path fill="none" stroke="black" d="M15,-290C15,-290 218,-290 218,-290 224,-290 230,-296 230,-302 230,-302 230,-602 230,-602 230,-608 224,-614 218,-614 218,-614 15,-614 15,-614 9,-614 3,-608 3,-602 3,-602 3,-302 3,-302 3,-296 9,-290 15,-290"/>
</g>
<!-- action&#45;3&#45;&#45;cluster&#45;0 -->
<g id="edge7" class="edge">
<title>action&#45;3&#45;&#45;cluster&#45;0</title>
<path fill="none" stroke="black" d="M230.05,-551.72C248.41,-567.99 265.97,-583.55 279.98,-595.96"/>
</g>
<!-- action&#45;4 -->
<g id="node5" class="node">
<title>action&#45;4</title>
<path fill="black" stroke="transparent" d="M409.5,-723C409.5,-723 604.5,-723 604.5,-723 608,-723 611.5,-726.5 611.5,-730 611.5,-730 611.5,-737 611.5,-737 611.5,-740.5 608,-744 604.5,-744 604.5,-744 409.5,-744 409.5,-744 406,-744 402.5,-740.5 402.5,-737 402.5,-737 402.5,-730 402.5,-730 402.5,-726.5 406,-723 409.5,-723"/>
<text text-anchor="start" x="481" y="-730.8" font-family="Arial" font-weight="bold" font-size="14.00" fill="white">action&#45;4</text>
<text text-anchor="start" x="405.5" y="-705.8" font-family="Arial" font-weight="bold" font-size="14.00">params:</text>
<text text-anchor="start" x="405.5" y="-691.8" font-family="Arial" font-size="14.00">X0, X1, X2, X3</text>
<text text-anchor="start" x="405.5" y="-667.8" font-family="Arial" font-weight="bold" font-size="14.00">pre:</text>
<text text-anchor="start" x="405.5" y="-653.8" font-family="Arial" font-size="14.00">at(player&#45;01,X3), clear(X0),</text>
<text text-anchor="start" x="405.5" y="-639.8" font-family="Arial" font-size="14.00">is&#45;nongoal(X0), is&#45;nongoal(X3),</text>
<text text-anchor="start" x="405.5" y="-625.8" font-family="Arial" font-size="14.00">is&#45;player(player&#45;01), location(X0),</text>
<text text-anchor="start" x="405.5" y="-611.8" font-family="Arial" font-size="14.00">location(X3), move&#45;dir(X0,X3,X1),</text>
<text text-anchor="start" x="405.5" y="-597.8" font-family="Arial" font-size="14.00">move&#45;dir(X3,X0,X2),</text>
<text text-anchor="start" x="405.5" y="-583.8" font-family="Arial" font-size="14.00">thing(player&#45;01)</text>
<text text-anchor="start" x="405.5" y="-559.8" font-family="Arial" font-weight="bold" font-size="14.00">add:</text>
<text text-anchor="start" x="405.5" y="-545.8" font-family="Arial" font-size="14.00">at(player&#45;01,X0), clear(X3)</text>
<text text-anchor="start" x="405.5" y="-521.8" font-family="Arial" font-weight="bold" font-size="14.00">del:</text>
<text text-anchor="start" x="405.5" y="-507.8" font-family="Arial" font-size="14.00">at(player&#45;01,X3), clear(X0)</text>
<path fill="none" stroke="black" d="M409,-496.5C409,-496.5 604,-496.5 604,-496.5 610,-496.5 616,-502.5 616,-508.5 616,-508.5 616,-737.5 616,-737.5 616,-743.5 610,-749.5 604,-749.5 604,-749.5 409,-749.5 409,-749.5 403,-749.5 397,-743.5 397,-737.5 397,-737.5 397,-508.5 397,-508.5 397,-502.5 403,-496.5 409,-496.5"/>
</g>
<!-- cluster&#45;1 -->
<g id="node14" class="node">
<title>cluster&#45;1</title>
<path fill="black" stroke="transparent" d="M671,-442C671,-442 732,-442 732,-442 738,-442 744,-448 744,-454 744,-454 744,-484 744,-484 744,-490 738,-496 732,-496 732,-496 671,-496 671,-496 665,-496 659,-490 659,-484 659,-484 659,-454 659,-454 659,-448 665,-442 671,-442"/>
<text text-anchor="start" x="671.5" y="-478.8" font-family="Arial" font-weight="bold" font-size="14.00" fill="white">cluster&#45;1 </text>
<text text-anchor="start" x="666.5" y="-453.8" font-family="Arial" font-weight="bold" font-size="14.00" fill="white">dist.: &#160;</text>
<text text-anchor="start" x="706.5" y="-453.8" font-family="Arial" font-size="14.00" fill="white"> 0.00</text>
</g>
<!-- action&#45;4&#45;&#45;cluster&#45;1 -->
<g id="edge8" class="edge">
<title>action&#45;4&#45;&#45;cluster&#45;1</title>
<path fill="none" stroke="black" d="M616.13,-536.32C634.3,-521.82 651.89,-507.79 666.26,-496.32"/>
</g>
<!-- action&#45;7 -->
<g id="node6" class="node">
<title>action&#45;7</title>
<path fill="black" stroke="transparent" d="M405.5,-452C405.5,-452 608.5,-452 608.5,-452 612,-452 615.5,-455.5 615.5,-459 615.5,-459 615.5,-466 615.5,-466 615.5,-469.5 612,-473 608.5,-473 608.5,-473 405.5,-473 405.5,-473 402,-473 398.5,-469.5 398.5,-466 398.5,-466 398.5,-459 398.5,-459 398.5,-455.5 402,-452 405.5,-452"/>
<text text-anchor="start" x="481" y="-459.8" font-family="Arial" font-weight="bold" font-size="14.00" fill="white">action&#45;7</text>
<text text-anchor="start" x="401.5" y="-434.8" font-family="Arial" font-weight="bold" font-size="14.00">params:</text>
<text text-anchor="start" x="401.5" y="-409.8" font-family="Arial" font-weight="bold" font-size="14.00">pre:</text>
<text text-anchor="start" x="401.5" y="-395.8" font-family="Arial" font-size="14.00">at(player&#45;01,pos&#45;5&#45;2),</text>
<text text-anchor="start" x="401.5" y="-381.8" font-family="Arial" font-size="14.00">clear(pos&#45;4&#45;2),</text>
<text text-anchor="start" x="401.5" y="-367.8" font-family="Arial" font-size="14.00">is&#45;nongoal(pos&#45;4&#45;2),</text>
<text text-anchor="start" x="401.5" y="-353.8" font-family="Arial" font-size="14.00">is&#45;nongoal(pos&#45;5&#45;2),</text>
<text text-anchor="start" x="401.5" y="-339.8" font-family="Arial" font-size="14.00">is&#45;player(player&#45;01),</text>
<text text-anchor="start" x="401.5" y="-325.8" font-family="Arial" font-size="14.00">location(pos&#45;4&#45;2),</text>
<text text-anchor="start" x="401.5" y="-311.8" font-family="Arial" font-size="14.00">location(pos&#45;5&#45;2),</text>
<text text-anchor="start" x="401.5" y="-297.8" font-family="Arial" font-size="14.00">move&#45;dir(pos&#45;4&#45;2,pos&#45;5&#45;2,dir&#45;right),</text>
<text text-anchor="start" x="401.5" y="-283.8" font-family="Arial" font-size="14.00">move&#45;dir(pos&#45;5&#45;2,pos&#45;4&#45;2,dir&#45;left),</text>
<text text-anchor="start" x="401.5" y="-269.8" font-family="Arial" font-size="14.00">thing(player&#45;01)</text>
<text text-anchor="start" x="401.5" y="-245.8" font-family="Arial" font-weight="bold" font-size="14.00">add:</text>
<text text-anchor="start" x="401.5" y="-231.8" font-family="Arial" font-size="14.00">at(player&#45;01,pos&#45;4&#45;2),</text>
<text text-anchor="start" x="401.5" y="-217.8" font-family="Arial" font-size="14.00">clear(pos&#45;5&#45;2)</text>
<text text-anchor="start" x="401.5" y="-193.8" font-family="Arial" font-weight="bold" font-size="14.00">del:</text>
<text text-anchor="start" x="401.5" y="-179.8" font-family="Arial" font-size="14.00">at(player&#45;01,pos&#45;5&#45;2),</text>
<text text-anchor="start" x="401.5" y="-165.8" font-family="Arial" font-size="14.00">clear(pos&#45;4&#45;2)</text>
<path fill="none" stroke="black" d="M405,-154C405,-154 608,-154 608,-154 614,-154 620,-160 620,-166 620,-166 620,-466 620,-466 620,-472 614,-478 608,-478 608,-478 405,-478 405,-478 399,-478 393,-472 393,-466 393,-466 393,-166 393,-166 393,-160 399,-154 405,-154"/>
</g>
<!-- action&#45;7&#45;&#45;cluster&#45;1 -->
<g id="edge9" class="edge">
<title>action&#45;7&#45;&#45;cluster&#45;1</title>
<path fill="none" stroke="black" d="M620.05,-405.22C636.76,-418.47 652.8,-431.19 666.11,-441.74"/>
</g>
<!-- action&#45;8 -->
<g id="node7" class="node">
<title>action&#45;8</title>
<path fill="#c9211e" stroke="transparent" d="M799.5,-569C799.5,-569 994.5,-569 994.5,-569 998,-569 1001.5,-572.5 1001.5,-576 1001.5,-576 1001.5,-583 1001.5,-583 1001.5,-586.5 998,-590 994.5,-590 994.5,-590 799.5,-590 799.5,-590 796,-590 792.5,-586.5 792.5,-583 792.5,-583 792.5,-576 792.5,-576 792.5,-572.5 796,-569 799.5,-569"/>
<text text-anchor="start" x="871" y="-576.8" font-family="Arial" font-weight="bold" font-size="14.00" fill="white">action&#45;8</text>
<text text-anchor="start" x="795.5" y="-551.8" font-family="Arial" font-weight="bold" font-size="14.00">params:</text>
<text text-anchor="start" x="795.5" y="-537.8" font-family="Arial" font-size="14.00">X0, X1, X2, X3</text>
<text text-anchor="start" x="795.5" y="-513.8" font-family="Arial" font-weight="bold" font-size="14.00">pre:</text>
<text text-anchor="start" x="795.5" y="-499.8" font-family="Arial" font-size="14.00">at(player&#45;01,X3), clear(X0),</text>
<text text-anchor="start" x="795.5" y="-485.8" font-family="Arial" font-size="14.00">is&#45;nongoal(X0), is&#45;nongoal(X3),</text>
<text text-anchor="start" x="795.5" y="-471.8" font-family="Arial" font-size="14.00">is&#45;player(player&#45;01), location(X0),</text>
<text text-anchor="start" x="795.5" y="-457.8" font-family="Arial" font-size="14.00">location(X3), move&#45;dir(X0,X3,X1),</text>
<text text-anchor="start" x="795.5" y="-443.8" font-family="Arial" font-size="14.00">move&#45;dir(X3,X0,X2),</text>
<text text-anchor="start" x="795.5" y="-429.8" font-family="Arial" font-size="14.00">thing(player&#45;01)</text>
<text text-anchor="start" x="795.5" y="-405.8" font-family="Arial" font-weight="bold" font-size="14.00">add:</text>
<text text-anchor="start" x="795.5" y="-391.8" font-family="Arial" font-size="14.00">at(player&#45;01,X0), clear(X3)</text>
<text text-anchor="start" x="795.5" y="-367.8" font-family="Arial" font-weight="bold" font-size="14.00">del:</text>
<text text-anchor="start" x="795.5" y="-353.8" font-family="Arial" font-size="14.00">at(player&#45;01,X3), clear(X0)</text>
<path fill="none" stroke="#c9211e" d="M799,-342.5C799,-342.5 994,-342.5 994,-342.5 1000,-342.5 1006,-348.5 1006,-354.5 1006,-354.5 1006,-583.5 1006,-583.5 1006,-589.5 1000,-595.5 994,-595.5 994,-595.5 799,-595.5 799,-595.5 793,-595.5 787,-589.5 787,-583.5 787,-583.5 787,-354.5 787,-354.5 787,-348.5 793,-342.5 799,-342.5"/>
</g>
<!-- cluster&#45;4 -->
<g id="node17" class="node">
<title>cluster&#45;4</title>
<path fill="black" stroke="transparent" d="M1061,-442C1061,-442 1122,-442 1122,-442 1128,-442 1134,-448 1134,-454 1134,-454 1134,-484 1134,-484 1134,-490 1128,-496 1122,-496 1122,-496 1061,-496 1061,-496 1055,-496 1049,-490 1049,-484 1049,-484 1049,-454 1049,-454 1049,-448 1055,-442 1061,-442"/>
<text text-anchor="start" x="1061.5" y="-478.8" font-family="Arial" font-weight="bold" font-size="14.00" fill="white">cluster&#45;4 </text>
<text text-anchor="start" x="1056.5" y="-453.8" font-family="Arial" font-weight="bold" font-size="14.00" fill="white">dist.: &#160;</text>
<text text-anchor="start" x="1096.5" y="-453.8" font-family="Arial" font-size="14.00" fill="white"> 0.00</text>
</g>
<!-- action&#45;8&#45;&#45;cluster&#45;4 -->
<g id="edge14" class="edge">
<title>action&#45;8&#45;&#45;cluster&#45;4</title>
<path fill="none" stroke="black" d="M1006.13,-469C1021.21,-469 1035.9,-469 1048.67,-469"/>
</g>
<!-- action&#45;11 -->
<g id="node8" class="node">
<title>action&#45;11</title>
<path fill="black" stroke="transparent" d="M402.5,-1761C402.5,-1761 611.5,-1761 611.5,-1761 615,-1761 618.5,-1764.5 618.5,-1768 618.5,-1768 618.5,-1775 618.5,-1775 618.5,-1778.5 615,-1782 611.5,-1782 611.5,-1782 402.5,-1782 402.5,-1782 399,-1782 395.5,-1778.5 395.5,-1775 395.5,-1775 395.5,-1768 395.5,-1768 395.5,-1764.5 399,-1761 402.5,-1761"/>
<text text-anchor="start" x="477.5" y="-1768.8" font-family="Arial" font-weight="bold" font-size="14.00" fill="white">action&#45;11</text>
<text text-anchor="start" x="398.5" y="-1743.8" font-family="Arial" font-weight="bold" font-size="14.00">params:</text>
<text text-anchor="start" x="398.5" y="-1718.8" font-family="Arial" font-weight="bold" font-size="14.00">pre:</text>
<text text-anchor="start" x="398.5" y="-1704.8" font-family="Arial" font-size="14.00">at(player&#45;01,pos&#45;4&#45;2),</text>
<text text-anchor="start" x="398.5" y="-1690.8" font-family="Arial" font-size="14.00">at(stone&#45;01,pos&#45;4&#45;3),</text>
<text text-anchor="start" x="398.5" y="-1676.8" font-family="Arial" font-size="14.00">clear(pos&#45;4&#45;4),</text>
<text text-anchor="start" x="398.5" y="-1662.8" font-family="Arial" font-size="14.00">is&#45;nongoal(pos&#45;4&#45;2),</text>
<text text-anchor="start" x="398.5" y="-1648.8" font-family="Arial" font-size="14.00">is&#45;nongoal(pos&#45;4&#45;3),</text>
<text text-anchor="start" x="398.5" y="-1634.8" font-family="Arial" font-size="14.00">is&#45;nongoal(pos&#45;4&#45;4),</text>
<text text-anchor="start" x="398.5" y="-1620.8" font-family="Arial" font-size="14.00">is&#45;player(player&#45;01),</text>
<text text-anchor="start" x="398.5" y="-1606.8" font-family="Arial" font-size="14.00">is&#45;stone(stone&#45;01),</text>
<text text-anchor="start" x="398.5" y="-1592.8" font-family="Arial" font-size="14.00">location(pos&#45;4&#45;2),</text>
<text text-anchor="start" x="398.5" y="-1578.8" font-family="Arial" font-size="14.00">location(pos&#45;4&#45;3),</text>
<text text-anchor="start" x="398.5" y="-1564.8" font-family="Arial" font-size="14.00">location(pos&#45;4&#45;4),</text>
<text text-anchor="start" x="398.5" y="-1550.8" font-family="Arial" font-size="14.00">move&#45;dir(pos&#45;4&#45;2,pos&#45;4&#45;3,dir&#45;down),</text>
<text text-anchor="start" x="398.5" y="-1536.8" font-family="Arial" font-size="14.00">move&#45;dir(pos&#45;4&#45;3,pos&#45;4&#45;2,dir&#45;up),</text>
<text text-anchor="start" x="398.5" y="-1522.8" font-family="Arial" font-size="14.00">move&#45;dir(pos&#45;4&#45;3,pos&#45;4&#45;4,dir&#45;down),</text>
<text text-anchor="start" x="398.5" y="-1508.8" font-family="Arial" font-size="14.00">move&#45;dir(pos&#45;4&#45;4,pos&#45;4&#45;3,dir&#45;up),</text>
<text text-anchor="start" x="398.5" y="-1494.8" font-family="Arial" font-size="14.00">thing(player&#45;01), thing(stone&#45;01)</text>
<text text-anchor="start" x="398.5" y="-1470.8" font-family="Arial" font-weight="bold" font-size="14.00">add:</text>
<text text-anchor="start" x="398.5" y="-1456.8" font-family="Arial" font-size="14.00">at(player&#45;01,pos&#45;4&#45;3),</text>
<text text-anchor="start" x="398.5" y="-1442.8" font-family="Arial" font-size="14.00">at(stone&#45;01,pos&#45;4&#45;4),</text>
<text text-anchor="start" x="398.5" y="-1428.8" font-family="Arial" font-size="14.00">clear(pos&#45;4&#45;2)</text>
<text text-anchor="start" x="398.5" y="-1404.8" font-family="Arial" font-weight="bold" font-size="14.00">del:</text>
<text text-anchor="start" x="398.5" y="-1390.8" font-family="Arial" font-size="14.00">at(player&#45;01,pos&#45;4&#45;2),</text>
<text text-anchor="start" x="398.5" y="-1376.8" font-family="Arial" font-size="14.00">at(stone&#45;01,pos&#45;4&#45;3),</text>
<text text-anchor="start" x="398.5" y="-1362.8" font-family="Arial" font-size="14.00">clear(pos&#45;4&#45;4)</text>
<path fill="none" stroke="black" d="M402,-1351C402,-1351 611,-1351 611,-1351 617,-1351 623,-1357 623,-1363 623,-1363 623,-1775 623,-1775 623,-1781 617,-1787 611,-1787 611,-1787 402,-1787 402,-1787 396,-1787 390,-1781 390,-1775 390,-1775 390,-1363 390,-1363 390,-1357 396,-1351 402,-1351"/>
</g>
<!-- cluster&#45;2 -->
<g id="node15" class="node">
<title>cluster&#45;2</title>
<path fill="black" stroke="transparent" d="M671,-1217C671,-1217 732,-1217 732,-1217 738,-1217 744,-1223 744,-1229 744,-1229 744,-1259 744,-1259 744,-1265 738,-1271 732,-1271 732,-1271 671,-1271 671,-1271 665,-1271 659,-1265 659,-1259 659,-1259 659,-1229 659,-1229 659,-1223 665,-1217 671,-1217"/>
<text text-anchor="start" x="671.5" y="-1253.8" font-family="Arial" font-weight="bold" font-size="14.00" fill="white">cluster&#45;2 </text>
<text text-anchor="start" x="666.5" y="-1228.8" font-family="Arial" font-weight="bold" font-size="14.00" fill="white">dist.: &#160;</text>
<text text-anchor="start" x="706.5" y="-1228.8" font-family="Arial" font-size="14.00" fill="white"> 0.19</text>
</g>
<!-- action&#45;11&#45;&#45;cluster&#45;2 -->
<g id="edge10" class="edge">
<title>action&#45;11&#45;&#45;cluster&#45;2</title>
<path fill="none" stroke="black" d="M623.11,-1374.32C647.36,-1333.49 669.92,-1295.49 684.36,-1271.18"/>
</g>
<!-- action&#45;13 -->
<g id="node9" class="node">
<title>action&#45;13</title>
<path fill="black" stroke="transparent" d="M402.5,-1307C402.5,-1307 611.5,-1307 611.5,-1307 615,-1307 618.5,-1310.5 618.5,-1314 618.5,-1314 618.5,-1321 618.5,-1321 618.5,-1324.5 615,-1328 611.5,-1328 611.5,-1328 402.5,-1328 402.5,-1328 399,-1328 395.5,-1324.5 395.5,-1321 395.5,-1321 395.5,-1314 395.5,-1314 395.5,-1310.5 399,-1307 402.5,-1307"/>
<text text-anchor="start" x="477" y="-1314.8" font-family="Arial" font-weight="bold" font-size="14.00" fill="white">action&#45;13</text>
<text text-anchor="start" x="398.5" y="-1289.8" font-family="Arial" font-weight="bold" font-size="14.00">params:</text>
<text text-anchor="start" x="398.5" y="-1264.8" font-family="Arial" font-weight="bold" font-size="14.00">pre:</text>
<text text-anchor="start" x="398.5" y="-1250.8" font-family="Arial" font-size="14.00">at(player&#45;01,pos&#45;4&#45;3),</text>
<text text-anchor="start" x="398.5" y="-1236.8" font-family="Arial" font-size="14.00">at(stone&#45;01,pos&#45;4&#45;4),</text>
<text text-anchor="start" x="398.5" y="-1222.8" font-family="Arial" font-size="14.00">clear(pos&#45;4&#45;5),</text>
<text text-anchor="start" x="398.5" y="-1208.8" font-family="Arial" font-size="14.00">is&#45;nongoal(pos&#45;4&#45;3),</text>
<text text-anchor="start" x="398.5" y="-1194.8" font-family="Arial" font-size="14.00">is&#45;nongoal(pos&#45;4&#45;4),</text>
<text text-anchor="start" x="398.5" y="-1180.8" font-family="Arial" font-size="14.00">is&#45;nongoal(pos&#45;4&#45;5),</text>
<text text-anchor="start" x="398.5" y="-1166.8" font-family="Arial" font-size="14.00">is&#45;player(player&#45;01),</text>
<text text-anchor="start" x="398.5" y="-1152.8" font-family="Arial" font-size="14.00">is&#45;stone(stone&#45;01),</text>
<text text-anchor="start" x="398.5" y="-1138.8" font-family="Arial" font-size="14.00">location(pos&#45;4&#45;3),</text>
<text text-anchor="start" x="398.5" y="-1124.8" font-family="Arial" font-size="14.00">location(pos&#45;4&#45;4),</text>
<text text-anchor="start" x="398.5" y="-1110.8" font-family="Arial" font-size="14.00">location(pos&#45;4&#45;5),</text>
<text text-anchor="start" x="398.5" y="-1096.8" font-family="Arial" font-size="14.00">move&#45;dir(pos&#45;4&#45;3,pos&#45;4&#45;4,dir&#45;down),</text>
<text text-anchor="start" x="398.5" y="-1082.8" font-family="Arial" font-size="14.00">move&#45;dir(pos&#45;4&#45;4,pos&#45;4&#45;3,dir&#45;up),</text>
<text text-anchor="start" x="398.5" y="-1068.8" font-family="Arial" font-size="14.00">move&#45;dir(pos&#45;4&#45;4,pos&#45;4&#45;5,dir&#45;down),</text>
<text text-anchor="start" x="398.5" y="-1054.8" font-family="Arial" font-size="14.00">move&#45;dir(pos&#45;4&#45;5,pos&#45;4&#45;4,dir&#45;up),</text>
<text text-anchor="start" x="398.5" y="-1040.8" font-family="Arial" font-size="14.00">thing(player&#45;01), thing(stone&#45;01)</text>
<text text-anchor="start" x="398.5" y="-1016.8" font-family="Arial" font-weight="bold" font-size="14.00">add:</text>
<text text-anchor="start" x="398.5" y="-1002.8" font-family="Arial" font-size="14.00">at(player&#45;01,pos&#45;4&#45;4),</text>
<text text-anchor="start" x="398.5" y="-988.8" font-family="Arial" font-size="14.00">at(stone&#45;01,pos&#45;4&#45;5),</text>
<text text-anchor="start" x="398.5" y="-974.8" font-family="Arial" font-size="14.00">clear(pos&#45;4&#45;3)</text>
<text text-anchor="start" x="398.5" y="-950.8" font-family="Arial" font-weight="bold" font-size="14.00">del:</text>
<text text-anchor="start" x="398.5" y="-936.8" font-family="Arial" font-size="14.00">at(player&#45;01,pos&#45;4&#45;3),</text>
<text text-anchor="start" x="398.5" y="-922.8" font-family="Arial" font-size="14.00">at(stone&#45;01,pos&#45;4&#45;4),</text>
<text text-anchor="start" x="398.5" y="-908.8" font-family="Arial" font-size="14.00">clear(pos&#45;4&#45;5)</text>
<path fill="none" stroke="black" d="M402,-897C402,-897 611,-897 611,-897 617,-897 623,-903 623,-909 623,-909 623,-1321 623,-1321 623,-1327 617,-1333 611,-1333 611,-1333 402,-1333 402,-1333 396,-1333 390,-1327 390,-1321 390,-1321 390,-909 390,-909 390,-903 396,-897 402,-897"/>
</g>
<!-- action&#45;13&#45;&#45;cluster&#45;2 -->
<g id="edge11" class="edge">
<title>action&#45;13&#45;&#45;cluster&#45;2</title>
<path fill="none" stroke="black" d="M623.11,-1192.27C636.28,-1201.07 648.95,-1209.54 660.09,-1216.99"/>
</g>
<!-- action&#45;14 -->
<g id="node10" class="node">
<title>action&#45;14</title>
<path fill="black" stroke="transparent" d="M799.5,-1393C799.5,-1393 993.5,-1393 993.5,-1393 997,-1393 1000.5,-1396.5 1000.5,-1400 1000.5,-1400 1000.5,-1407 1000.5,-1407 1000.5,-1410.5 997,-1414 993.5,-1414 993.5,-1414 799.5,-1414 799.5,-1414 796,-1414 792.5,-1410.5 792.5,-1407 792.5,-1407 792.5,-1400 792.5,-1400 792.5,-1396.5 796,-1393 799.5,-1393"/>
<text text-anchor="start" x="866.5" y="-1400.8" font-family="Arial" font-weight="bold" font-size="14.00" fill="white">action&#45;14</text>
<text text-anchor="start" x="795.5" y="-1375.8" font-family="Arial" font-weight="bold" font-size="14.00">params:</text>
<text text-anchor="start" x="795.5" y="-1361.8" font-family="Arial" font-size="14.00">X4, X5, X6</text>
<text text-anchor="start" x="795.5" y="-1337.8" font-family="Arial" font-weight="bold" font-size="14.00">pre:</text>
<text text-anchor="start" x="795.5" y="-1323.8" font-family="Arial" font-size="14.00">at(player&#45;01,X5), at(stone&#45;01,X6),</text>
<text text-anchor="start" x="795.5" y="-1309.8" font-family="Arial" font-size="14.00">clear(X4), is&#45;nongoal(X4),</text>
<text text-anchor="start" x="795.5" y="-1295.8" font-family="Arial" font-size="14.00">is&#45;nongoal(X5), is&#45;nongoal(X6),</text>
<text text-anchor="start" x="795.5" y="-1281.8" font-family="Arial" font-size="14.00">is&#45;player(player&#45;01),</text>
<text text-anchor="start" x="795.5" y="-1267.8" font-family="Arial" font-size="14.00">is&#45;stone(stone&#45;01), location(X4),</text>
<text text-anchor="start" x="795.5" y="-1253.8" font-family="Arial" font-size="14.00">location(X5), location(X6),</text>
<text text-anchor="start" x="795.5" y="-1239.8" font-family="Arial" font-size="14.00">move&#45;dir(X4,X6,dir&#45;up),</text>
<text text-anchor="start" x="795.5" y="-1225.8" font-family="Arial" font-size="14.00">move&#45;dir(X5,X6,dir&#45;down),</text>
<text text-anchor="start" x="795.5" y="-1211.8" font-family="Arial" font-size="14.00">move&#45;dir(X6,X4,dir&#45;down),</text>
<text text-anchor="start" x="795.5" y="-1197.8" font-family="Arial" font-size="14.00">move&#45;dir(X6,X5,dir&#45;up),</text>
<text text-anchor="start" x="795.5" y="-1183.8" font-family="Arial" font-size="14.00">thing(player&#45;01), thing(stone&#45;01)</text>
<text text-anchor="start" x="795.5" y="-1159.8" font-family="Arial" font-weight="bold" font-size="14.00">add:</text>
<text text-anchor="start" x="795.5" y="-1145.8" font-family="Arial" font-size="14.00">at(player&#45;01,X6), at(stone&#45;01,X4),</text>
<text text-anchor="start" x="795.5" y="-1131.8" font-family="Arial" font-size="14.00">clear(X5)</text>
<text text-anchor="start" x="795.5" y="-1107.8" font-family="Arial" font-weight="bold" font-size="14.00">del:</text>
<text text-anchor="start" x="795.5" y="-1093.8" font-family="Arial" font-size="14.00">at(player&#45;01,X5), at(stone&#45;01,X6),</text>
<text text-anchor="start" x="795.5" y="-1079.8" font-family="Arial" font-size="14.00">clear(X4)</text>
<path fill="none" stroke="black" d="M799.5,-1068.5C799.5,-1068.5 993.5,-1068.5 993.5,-1068.5 999.5,-1068.5 1005.5,-1074.5 1005.5,-1080.5 1005.5,-1080.5 1005.5,-1407.5 1005.5,-1407.5 1005.5,-1413.5 999.5,-1419.5 993.5,-1419.5 993.5,-1419.5 799.5,-1419.5 799.5,-1419.5 793.5,-1419.5 787.5,-1413.5 787.5,-1407.5 787.5,-1407.5 787.5,-1080.5 787.5,-1080.5 787.5,-1074.5 793.5,-1068.5 799.5,-1068.5"/>
</g>
<!-- cluster&#45;3 -->
<g id="node16" class="node">
<title>cluster&#45;3</title>
<path fill="black" stroke="transparent" d="M1061,-805C1061,-805 1122,-805 1122,-805 1128,-805 1134,-811 1134,-817 1134,-817 1134,-847 1134,-847 1134,-853 1128,-859 1122,-859 1122,-859 1061,-859 1061,-859 1055,-859 1049,-853 1049,-847 1049,-847 1049,-817 1049,-817 1049,-811 1055,-805 1061,-805"/>
<text text-anchor="start" x="1061.5" y="-841.8" font-family="Arial" font-weight="bold" font-size="14.00" fill="white">cluster&#45;3 </text>
<text text-anchor="start" x="1056.5" y="-816.8" font-family="Arial" font-weight="bold" font-size="14.00" fill="white">dist.: &#160;</text>
<text text-anchor="start" x="1096.5" y="-816.8" font-family="Arial" font-size="14.00" fill="white"> 0.00</text>
</g>
<!-- action&#45;14&#45;&#45;cluster&#45;3 -->
<g id="edge12" class="edge">
<title>action&#45;14&#45;&#45;cluster&#45;3</title>
<path fill="none" stroke="black" d="M1005.51,-1074.21C1008.1,-1069.12 1010.6,-1064.04 1013,-1059 1045.88,-989.79 1071.53,-902.8 1083.36,-859.34"/>
</g>
<!-- action&#45;17 -->
<g id="node11" class="node">
<title>action&#45;17</title>
<path fill="black" stroke="transparent" d="M792.5,-1024C792.5,-1024 1001.5,-1024 1001.5,-1024 1005,-1024 1008.5,-1027.5 1008.5,-1031 1008.5,-1031 1008.5,-1038 1008.5,-1038 1008.5,-1041.5 1005,-1045 1001.5,-1045 1001.5,-1045 792.5,-1045 792.5,-1045 789,-1045 785.5,-1041.5 785.5,-1038 785.5,-1038 785.5,-1031 785.5,-1031 785.5,-1027.5 789,-1024 792.5,-1024"/>
<text text-anchor="start" x="867" y="-1031.8" font-family="Arial" font-weight="bold" font-size="14.00" fill="white">action&#45;17</text>
<text text-anchor="start" x="788.5" y="-1006.8" font-family="Arial" font-weight="bold" font-size="14.00">params:</text>
<text text-anchor="start" x="788.5" y="-981.8" font-family="Arial" font-weight="bold" font-size="14.00">pre:</text>
<text text-anchor="start" x="788.5" y="-967.8" font-family="Arial" font-size="14.00">at(player&#45;01,pos&#45;4&#45;4),</text>
<text text-anchor="start" x="788.5" y="-953.8" font-family="Arial" font-size="14.00">at(stone&#45;01,pos&#45;4&#45;5),</text>
<text text-anchor="start" x="788.5" y="-939.8" font-family="Arial" font-size="14.00">clear(pos&#45;4&#45;6),</text>
<text text-anchor="start" x="788.5" y="-925.8" font-family="Arial" font-size="14.00">is&#45;nongoal(pos&#45;4&#45;4),</text>
<text text-anchor="start" x="788.5" y="-911.8" font-family="Arial" font-size="14.00">is&#45;nongoal(pos&#45;4&#45;5),</text>
<text text-anchor="start" x="788.5" y="-897.8" font-family="Arial" font-size="14.00">is&#45;nongoal(pos&#45;4&#45;6),</text>
<text text-anchor="start" x="788.5" y="-883.8" font-family="Arial" font-size="14.00">is&#45;player(player&#45;01),</text>
<text text-anchor="start" x="788.5" y="-869.8" font-family="Arial" font-size="14.00">is&#45;stone(stone&#45;01),</text>
<text text-anchor="start" x="788.5" y="-855.8" font-family="Arial" font-size="14.00">location(pos&#45;4&#45;4),</text>
<text text-anchor="start" x="788.5" y="-841.8" font-family="Arial" font-size="14.00">location(pos&#45;4&#45;5),</text>
<text text-anchor="start" x="788.5" y="-827.8" font-family="Arial" font-size="14.00">location(pos&#45;4&#45;6),</text>
<text text-anchor="start" x="788.5" y="-813.8" font-family="Arial" font-size="14.00">move&#45;dir(pos&#45;4&#45;4,pos&#45;4&#45;5,dir&#45;down),</text>
<text text-anchor="start" x="788.5" y="-799.8" font-family="Arial" font-size="14.00">move&#45;dir(pos&#45;4&#45;5,pos&#45;4&#45;4,dir&#45;up),</text>
<text text-anchor="start" x="788.5" y="-785.8" font-family="Arial" font-size="14.00">move&#45;dir(pos&#45;4&#45;5,pos&#45;4&#45;6,dir&#45;down),</text>
<text text-anchor="start" x="788.5" y="-771.8" font-family="Arial" font-size="14.00">move&#45;dir(pos&#45;4&#45;6,pos&#45;4&#45;5,dir&#45;up),</text>
<text text-anchor="start" x="788.5" y="-757.8" font-family="Arial" font-size="14.00">thing(player&#45;01), thing(stone&#45;01)</text>
<text text-anchor="start" x="788.5" y="-733.8" font-family="Arial" font-weight="bold" font-size="14.00">add:</text>
<text text-anchor="start" x="788.5" y="-719.8" font-family="Arial" font-size="14.00">at(player&#45;01,pos&#45;4&#45;5),</text>
<text text-anchor="start" x="788.5" y="-705.8" font-family="Arial" font-size="14.00">at(stone&#45;01,pos&#45;4&#45;6),</text>
<text text-anchor="start" x="788.5" y="-691.8" font-family="Arial" font-size="14.00">clear(pos&#45;4&#45;4)</text>
<text text-anchor="start" x="788.5" y="-667.8" font-family="Arial" font-weight="bold" font-size="14.00">del:</text>
<text text-anchor="start" x="788.5" y="-653.8" font-family="Arial" font-size="14.00">at(player&#45;01,pos&#45;4&#45;4),</text>
<text text-anchor="start" x="788.5" y="-639.8" font-family="Arial" font-size="14.00">at(stone&#45;01,pos&#45;4&#45;5),</text>
<text text-anchor="start" x="788.5" y="-625.8" font-family="Arial" font-size="14.00">clear(pos&#45;4&#45;6)</text>
<path fill="none" stroke="black" d="M792,-614C792,-614 1001,-614 1001,-614 1007,-614 1013,-620 1013,-626 1013,-626 1013,-1038 1013,-1038 1013,-1044 1007,-1050 1001,-1050 1001,-1050 792,-1050 792,-1050 786,-1050 780,-1044 780,-1038 780,-1038 780,-626 780,-626 780,-620 786,-614 792,-614"/>
</g>
<!-- action&#45;17&#45;&#45;cluster&#45;3 -->
<g id="edge13" class="edge">
<title>action&#45;17&#45;&#45;cluster&#45;3</title>
<path fill="none" stroke="black" d="M1013.11,-832C1025.8,-832 1038.02,-832 1048.86,-832"/>
</g>
<!-- action&#45;21 -->
<g id="node12" class="node">
<title>action&#45;21</title>
<path fill="#00008b" stroke="transparent" d="M795.5,-298C795.5,-298 998.5,-298 998.5,-298 1002,-298 1005.5,-301.5 1005.5,-305 1005.5,-305 1005.5,-312 1005.5,-312 1005.5,-315.5 1002,-319 998.5,-319 998.5,-319 795.5,-319 795.5,-319 792,-319 788.5,-315.5 788.5,-312 788.5,-312 788.5,-305 788.5,-305 788.5,-301.5 792,-298 795.5,-298"/>
<text text-anchor="start" x="867" y="-305.8" font-family="Arial" font-weight="bold" font-size="14.00" fill="white">action&#45;21</text>
<text text-anchor="start" x="791.5" y="-280.8" font-family="Arial" font-weight="bold" font-size="14.00">params:</text>
<text text-anchor="start" x="791.5" y="-255.8" font-family="Arial" font-weight="bold" font-size="14.00">pre:</text>
<text text-anchor="start" x="791.5" y="-241.8" font-family="Arial" font-size="14.00">at(player&#45;01,pos&#45;4&#45;5),</text>
<text text-anchor="start" x="791.5" y="-227.8" font-family="Arial" font-size="14.00">clear(pos&#45;5&#45;5),</text>
<text text-anchor="start" x="791.5" y="-213.8" font-family="Arial" font-size="14.00">is&#45;nongoal(pos&#45;4&#45;5),</text>
<text text-anchor="start" x="791.5" y="-199.8" font-family="Arial" font-size="14.00">is&#45;nongoal(pos&#45;5&#45;5),</text>
<text text-anchor="start" x="791.5" y="-185.8" font-family="Arial" font-size="14.00">is&#45;player(player&#45;01),</text>
<text text-anchor="start" x="791.5" y="-171.8" font-family="Arial" font-size="14.00">location(pos&#45;4&#45;5),</text>
<text text-anchor="start" x="791.5" y="-157.8" font-family="Arial" font-size="14.00">location(pos&#45;5&#45;5),</text>
<text text-anchor="start" x="791.5" y="-143.8" font-family="Arial" font-size="14.00">move&#45;dir(pos&#45;4&#45;5,pos&#45;5&#45;5,dir&#45;right),</text>
<text text-anchor="start" x="791.5" y="-129.8" font-family="Arial" font-size="14.00">move&#45;dir(pos&#45;5&#45;5,pos&#45;4&#45;5,dir&#45;left),</text>
<text text-anchor="start" x="791.5" y="-115.8" font-family="Arial" font-size="14.00">thing(player&#45;01)</text>
<text text-anchor="start" x="791.5" y="-91.8" font-family="Arial" font-weight="bold" font-size="14.00">add:</text>
<text text-anchor="start" x="791.5" y="-77.8" font-family="Arial" font-size="14.00">at(player&#45;01,pos&#45;5&#45;5),</text>
<text text-anchor="start" x="791.5" y="-63.8" font-family="Arial" font-size="14.00">clear(pos&#45;4&#45;5)</text>
<text text-anchor="start" x="791.5" y="-39.8" font-family="Arial" font-weight="bold" font-size="14.00">del:</text>
<text text-anchor="start" x="791.5" y="-25.8" font-family="Arial" font-size="14.00">at(player&#45;01,pos&#45;4&#45;5),</text>
<text text-anchor="start" x="791.5" y="-11.8" font-family="Arial" font-size="14.00">clear(pos&#45;5&#45;5)</text>
<path fill="none" stroke="#00008b" d="M795,0C795,0 998,0 998,0 1004,0 1010,-6 1010,-12 1010,-12 1010,-312 1010,-312 1010,-318 1004,-324 998,-324 998,-324 795,-324 795,-324 789,-324 783,-318 783,-312 783,-312 783,-12 783,-12 783,-6 789,0 795,0"/>
</g>
<!-- action&#45;21&#45;&#45;cluster&#45;4 -->
<g id="edge15" class="edge">
<title>action&#45;21&#45;&#45;cluster&#45;4</title>
<path fill="none" stroke="black" d="M1007.54,-324.27C1009.38,-327.2 1011.2,-330.11 1013,-333 1036.02,-370.05 1060.64,-414.1 1075.8,-441.81"/>
</g>
<!-- cluster&#45;0&#45;&#45;action&#45;4 -->
<g id="edge1" class="edge">
<title>cluster&#45;0&#45;&#45;action&#45;4</title>
<path fill="none" stroke="black" d="M354.38,-623C367.13,-623 381.77,-623 396.82,-623"/>
</g>
<!-- cluster&#45;1&#45;&#45;action&#45;8 -->
<g id="edge2" class="edge">
<title>cluster&#45;1&#45;&#45;action&#45;8</title>
<path fill="none" stroke="black" d="M744.38,-469C757.13,-469 771.77,-469 786.82,-469"/>
</g>
<!-- cluster&#45;2&#45;&#45;action&#45;14 -->
<g id="edge3" class="edge">
<title>cluster&#45;2&#45;&#45;action&#45;14</title>
<path fill="none" stroke="black" d="M744.38,-1244C757.24,-1244 772.03,-1244 787.21,-1244"/>
</g>
<!-- cluster&#45;3&#45;&#45;action&#45;18 -->
<g id="edge4" class="edge">
<title>cluster&#45;3&#45;&#45;action&#45;18</title>
<path fill="none" stroke="black" d="M1134.45,-828.01C1145.32,-826.97 1157.56,-825.8 1170.21,-824.6"/>
</g>
<!-- cluster&#45;4&#45;&#45;action&#45;22 -->
<g id="edge5" class="edge">
<title>cluster&#45;4&#45;&#45;action&#45;22</title>
<path fill="none" stroke="black" d="M1134.45,-473.22C1145.21,-474.3 1157.31,-475.52 1169.83,-476.77"/>
</g>
</g>
</svg>
