<?xml version="1.0" encoding="UTF-8" standalone="no"?>
<!DOCTYPE svg PUBLIC "-//W3C//DTD SVG 1.1//EN"
 "http://www.w3.org/Graphics/SVG/1.1/DTD/svg11.dtd">
<!-- Generated by graphviz version 2.43.0 (0)
 -->
<!-- Title: g Pages: 1 -->
<svg width="438pt" height="247pt"
 viewBox="0.00 0.00 438.00 247.00" xmlns="http://www.w3.org/2000/svg" xmlns:xlink="http://www.w3.org/1999/xlink">
<g id="graph0" class="graph" transform="scale(1 1) rotate(0) translate(4 243)">
<title>g</title>
<polygon fill="white" stroke="transparent" points="-4,4 -4,-243 434,-243 434,4 -4,4"/>
<g id="clust1" class="cluster">
<title>cluster_actionlib</title>
<polygon fill="none" stroke="black" points="370,-46 370,-152 422,-152 422,-46 370,-46"/>
</g>
<!-- action&#45;18 -->
<g id="node1" class="node">
<title>action&#45;18</title>
<polygon fill="white" stroke="black" stroke-width="4" points="414,-144 378,-144 378,-108 414,-108 414,-144"/>
</g>
<!-- action&#45;22 -->
<g id="node2" class="node">
<title>action&#45;22</title>
<polygon fill="#008000" stroke="black" stroke-width="4" points="414,-90 378,-90 378,-54 414,-54 414,-90"/>
</g>
<!-- action&#45;1 -->
<g id="node3" class="node">
<title>action&#45;1</title>
<polygon fill="white" stroke="black" points="36,-131 0,-131 0,-95 36,-95 36,-131"/>
</g>
<!-- cluster&#45;0 -->
<g id="node13" class="node">
<title>cluster&#45;0</title>
<polygon fill="black" stroke="black" stroke-width="0" points="90,-95 72,-95 72,-77 90,-77 90,-95"/>
</g>
<!-- action&#45;1&#45;&#45;cluster&#45;0 -->
<g id="edge6" class="edge">
<title>action&#45;1&#45;&#45;cluster&#45;0</title>
<path fill="none" stroke="black" d="M36.32,-105.34C48.01,-100.16 62.91,-93.57 71.94,-89.57"/>
</g>
<!-- action&#45;3 -->
<g id="node4" class="node">
<title>action&#45;3</title>
<polygon fill="white" stroke="black" points="36,-77 0,-77 0,-41 36,-41 36,-77"/>
</g>
<!-- action&#45;3&#45;&#45;cluster&#45;0 -->
<g id="edge7" class="edge">
<title>action&#45;3&#45;&#45;cluster&#45;0</title>
<path fill="none" stroke="black" d="M36.32,-66.66C48.01,-71.84 62.91,-78.43 71.94,-82.43"/>
</g>
<!-- action&#45;4 -->
<g id="node5" class="node">
<title>action&#45;4</title>
<polygon fill="white" stroke="black" points="162,-104 126,-104 126,-68 162,-68 162,-104"/>
</g>
<!-- cluster&#45;1 -->
<g id="node14" class="node">
<title>cluster&#45;1</title>
<polygon fill="black" stroke="black" stroke-width="0" points="216,-81 198,-81 198,-63 216,-63 216,-81"/>
</g>
<!-- action&#45;4&#45;&#45;cluster&#45;1 -->
<g id="edge8" class="edge">
<title>action&#45;4&#45;&#45;cluster&#45;1</title>
<path fill="none" stroke="black" d="M162.32,-82.03C174.01,-79.34 188.91,-75.92 197.94,-73.85"/>
</g>
<!-- action&#45;7 -->
<g id="node6" class="node">
<title>action&#45;7</title>
<polygon fill="white" stroke="black" points="162,-50 126,-50 126,-14 162,-14 162,-50"/>
</g>
<!-- action&#45;7&#45;&#45;cluster&#45;1 -->
<g id="edge9" class="edge">
<title>action&#45;7&#45;&#45;cluster&#45;1</title>
<path fill="none" stroke="black" d="M162.32,-43.36C174.01,-51.02 188.91,-60.79 197.94,-66.71"/>
</g>
<!-- action&#45;8 -->
<g id="node7" class="node">
<title>action&#45;8</title>
<polygon fill="#c9211e" stroke="black" points="288,-90 252,-90 252,-54 288,-54 288,-90"/>
</g>
<!-- cluster&#45;4 -->
<g id="node17" class="node">
<title>cluster&#45;4</title>
<polygon fill="black" stroke="black" stroke-width="0" points="342,-81 324,-81 324,-63 342,-63 342,-81"/>
</g>
<!-- action&#45;8&#45;&#45;cluster&#45;4 -->
<g id="edge14" class="edge">
<title>action&#45;8&#45;&#45;cluster&#45;4</title>
<path fill="none" stroke="black" d="M288.32,-72C300.01,-72 314.91,-72 323.94,-72"/>
</g>
<!-- action&#45;11 -->
<g id="node8" class="node">
<title>action&#45;11</title>
<polygon fill="white" stroke="black" points="162,-239 126,-239 126,-203 162,-203 162,-239"/>
</g>
<!-- cluster&#45;2 -->
<g id="node15" class="node">
<title>cluster&#45;2</title>
<polygon fill="black" stroke="black" stroke-width="0" points="216,-189 198,-189 198,-171 216,-171 216,-189"/>
</g>
<!-- action&#45;11&#45;&#45;cluster&#45;2 -->
<g id="edge10" class="edge">
<title>action&#45;11&#45;&#45;cluster&#45;2</title>
<path fill="none" stroke="black" d="M162.32,-209.36C174.01,-201.5 188.91,-191.49 197.94,-185.42"/>
</g>
<!-- action&#45;13 -->
<g id="node9" class="node">
<title>action&#45;13</title>
<polygon fill="white" stroke="black" points="162,-185 126,-185 126,-149 162,-149 162,-185"/>
</g>
<!-- action&#45;13&#45;&#45;cluster&#45;2 -->
<g id="edge11" class="edge">
<title>action&#45;13&#45;&#45;cluster&#45;2</title>
<path fill="none" stroke="black" d="M162.32,-170.69C174.01,-173.18 188.91,-176.36 197.94,-178.28"/>
</g>
<!-- action&#45;14 -->
<g id="node10" class="node">
<title>action&#45;14</title>
<polygon fill="white" stroke="black" points="288,-198 252,-198 252,-162 288,-162 288,-198"/>
</g>
<!-- cluster&#45;3 -->
<g id="node16" class="node">
<title>cluster&#45;3</title>
<polygon fill="black" stroke="black" stroke-width="0" points="342,-135 324,-135 324,-117 342,-117 342,-135"/>
</g>
<!-- action&#45;14&#45;&#45;cluster&#45;3 -->
<g id="edge12" class="edge">
<title>action&#45;14&#45;&#45;cluster&#45;3</title>
<path fill="none" stroke="black" d="M288.32,-164.67C300.01,-154.32 314.91,-141.13 323.94,-133.14"/>
</g>
<!-- action&#45;17 -->
<g id="node11" class="node">
<title>action&#45;17</title>
<polygon fill="white" stroke="black" points="288,-144 252,-144 252,-108 288,-108 288,-144"/>
</g>
<!-- action&#45;17&#45;&#45;cluster&#45;3 -->
<g id="edge13" class="edge">
<title>action&#45;17&#45;&#45;cluster&#45;3</title>
<path fill="none" stroke="black" d="M288.32,-126C300.01,-126 314.91,-126 323.94,-126"/>
</g>
<!-- action&#45;21 -->
<g id="node12" class="node">
<title>action&#45;21</title>
<polygon fill="#00008b" stroke="black" points="288,-36 252,-36 252,0 288,0 288,-36"/>
</g>
<!-- action&#45;21&#45;&#45;cluster&#45;4 -->
<g id="edge15" class="edge">
<title>action&#45;21&#45;&#45;cluster&#45;4</title>
<path fill="none" stroke="black" d="M288.32,-33.33C300.01,-43.68 314.91,-56.87 323.94,-64.86"/>
</g>
<!-- cluster&#45;0&#45;&#45;action&#45;4 -->
<g id="edge1" class="edge">
<title>cluster&#45;0&#45;&#45;action&#45;4</title>
<path fill="none" stroke="black" d="M90.23,-86C99.33,-86 114.26,-86 125.92,-86"/>
</g>
<!-- cluster&#45;1&#45;&#45;action&#45;8 -->
<g id="edge2" class="edge">
<title>cluster&#45;1&#45;&#45;action&#45;8</title>
<path fill="none" stroke="black" d="M216.23,-72C225.33,-72 240.26,-72 251.92,-72"/>
</g>
<!-- cluster&#45;2&#45;&#45;action&#45;14 -->
<g id="edge3" class="edge">
<title>cluster&#45;2&#45;&#45;action&#45;14</title>
<path fill="none" stroke="black" d="M216.23,-180C225.33,-180 240.26,-180 251.92,-180"/>
</g>
<!-- cluster&#45;3&#45;&#45;action&#45;18 -->
<g id="edge4" class="edge">
<title>cluster&#45;3&#45;&#45;action&#45;18</title>
<path fill="none" stroke="black" d="M342.23,-126C351.33,-126 366.26,-126 377.92,-126"/>
</g>
<!-- cluster&#45;4&#45;&#45;action&#45;22 -->
<g id="edge5" class="edge">
<title>cluster&#45;4&#45;&#45;action&#45;22</title>
<path fill="none" stroke="black" d="M342.23,-72C351.33,-72 366.26,-72 377.92,-72"/>
</g>
</g>
</svg>
