<?xml version="1.0" encoding="UTF-8" standalone="no"?>
<!DOCTYPE svg PUBLIC "-//W3C//DTD SVG 1.1//EN"
 "http://www.w3.org/Graphics/SVG/1.1/DTD/svg11.dtd">
<!-- Generated by graphviz version 2.43.0 (0)
 -->
<!-- Title: g Pages: 1 -->
<svg width="1029pt" height="1739pt"
 viewBox="0.00 0.00 1029.00 1739.00" xmlns="http://www.w3.org/2000/svg" xmlns:xlink="http://www.w3.org/1999/xlink">
<g id="graph0" class="graph" transform="scale(1 1) rotate(0) translate(4 1735)">
<title>g</title>
<polygon fill="white" stroke="transparent" points="-4,4 -4,-1735 1025,-1735 1025,4 -4,4"/>
<g id="clust1" class="cluster">
<title>cluster_actionlib</title>
<polygon fill="none" stroke="black" points="772,-458 772,-1132 1013,-1132 1013,-458 772,-458"/>
<text text-anchor="start" x="848.5" y="-1117.8" font-family="Arial" font-weight="bold" font-size="14.00">Action library</text>
</g>
<!-- action&#45;8 -->
<g id="node1" class="node">
<title>action&#45;8</title>
<path fill="black" stroke="transparent" d="M795.5,-1071C795.5,-1071 990.5,-1071 990.5,-1071 994,-1071 997.5,-1074.5 997.5,-1078 997.5,-1078 997.5,-1085 997.5,-1085 997.5,-1088.5 994,-1092 990.5,-1092 990.5,-1092 795.5,-1092 795.5,-1092 792,-1092 788.5,-1088.5 788.5,-1085 788.5,-1085 788.5,-1078 788.5,-1078 788.5,-1074.5 792,-1071 795.5,-1071"/>
<text text-anchor="start" x="867" y="-1078.8" font-family="Arial" font-weight="bold" font-size="14.00" fill="white">action&#45;8</text>
<text text-anchor="start" x="791.5" y="-1053.8" font-family="Arial" font-weight="bold" font-size="14.00">params:</text>
<text text-anchor="start" x="791.5" y="-1039.8" font-family="Arial" font-size="14.00">X0, X1, X2, X3</text>
<text text-anchor="start" x="791.5" y="-1015.8" font-family="Arial" font-weight="bold" font-size="14.00">pre:</text>
<text text-anchor="start" x="791.5" y="-1001.8" font-family="Arial" font-size="14.00">at(player&#45;01,X3), clear(X0),</text>
<text text-anchor="start" x="791.5" y="-987.8" font-family="Arial" font-size="14.00">is&#45;nongoal(X0), is&#45;nongoal(X3),</text>
<text text-anchor="start" x="791.5" y="-973.8" font-family="Arial" font-size="14.00">is&#45;player(player&#45;01), location(X0),</text>
<text text-anchor="start" x="791.5" y="-959.8" font-family="Arial" font-size="14.00">location(X3), move&#45;dir(X0,X3,X1),</text>
<text text-anchor="start" x="791.5" y="-945.8" font-family="Arial" font-size="14.00">move&#45;dir(X3,X0,X2),</text>
<text text-anchor="start" x="791.5" y="-931.8" font-family="Arial" font-size="14.00">thing(player&#45;01)</text>
<text text-anchor="start" x="791.5" y="-907.8" font-family="Arial" font-weight="bold" font-size="14.00">add:</text>
<text text-anchor="start" x="791.5" y="-893.8" font-family="Arial" font-size="14.00">at(player&#45;01,X0), clear(X3)</text>
<text text-anchor="start" x="791.5" y="-869.8" font-family="Arial" font-weight="bold" font-size="14.00">del:</text>
<text text-anchor="start" x="791.5" y="-855.8" font-family="Arial" font-size="14.00">at(player&#45;01,X3), clear(X0)</text>
<path fill="none" stroke="black" stroke-width="4" d="M794,-843.5C794,-843.5 991,-843.5 991,-843.5 997,-843.5 1003,-849.5 1003,-855.5 1003,-855.5 1003,-1086.5 1003,-1086.5 1003,-1092.5 997,-1098.5 991,-1098.5 991,-1098.5 794,-1098.5 794,-1098.5 788,-1098.5 782,-1092.5 782,-1086.5 782,-1086.5 782,-855.5 782,-855.5 782,-849.5 788,-843.5 794,-843.5"/>
</g>
<!-- action&#45;18 -->
<g id="node2" class="node">
<title>action&#45;18</title>
<path fill="#008000" stroke="transparent" d="M795.5,-794C795.5,-794 989.5,-794 989.5,-794 993,-794 996.5,-797.5 996.5,-801 996.5,-801 996.5,-808 996.5,-808 996.5,-811.5 993,-815 989.5,-815 989.5,-815 795.5,-815 795.5,-815 792,-815 788.5,-811.5 788.5,-808 788.5,-808 788.5,-801 788.5,-801 788.5,-797.5 792,-794 795.5,-794"/>
<text text-anchor="start" x="862.5" y="-801.8" font-family="Arial" font-weight="bold" font-size="14.00" fill="white">action&#45;18</text>
<text text-anchor="start" x="791.5" y="-776.8" font-family="Arial" font-weight="bold" font-size="14.00">params:</text>
<text text-anchor="start" x="791.5" y="-762.8" font-family="Arial" font-size="14.00">X4, X5, X6</text>
<text text-anchor="start" x="791.5" y="-738.8" font-family="Arial" font-weight="bold" font-size="14.00">pre:</text>
<text text-anchor="start" x="791.5" y="-724.8" font-family="Arial" font-size="14.00">at(player&#45;01,X5), at(stone&#45;01,X6),</text>
<text text-anchor="start" x="791.5" y="-710.8" font-family="Arial" font-size="14.00">clear(X4), is&#45;nongoal(X4),</text>
<text text-anchor="start" x="791.5" y="-696.8" font-family="Arial" font-size="14.00">is&#45;nongoal(X5), is&#45;nongoal(X6),</text>
<text text-anchor="start" x="791.5" y="-682.8" font-family="Arial" font-size="14.00">is&#45;player(player&#45;01),</text>
<text text-anchor="start" x="791.5" y="-668.8" font-family="Arial" font-size="14.00">is&#45;stone(stone&#45;01), location(X4),</text>
<text text-anchor="start" x="791.5" y="-654.8" font-family="Arial" font-size="14.00">location(X5), location(X6),</text>
<text text-anchor="start" x="791.5" y="-640.8" font-family="Arial" font-size="14.00">move&#45;dir(X4,X6,dir&#45;up),</text>
<text text-anchor="start" x="791.5" y="-626.8" font-family="Arial" font-size="14.00">move&#45;dir(X5,X6,dir&#45;down),</text>
<text text-anchor="start" x="791.5" y="-612.8" font-family="Arial" font-size="14.00">move&#45;dir(X6,X4,dir&#45;down),</text>
<text text-anchor="start" x="791.5" y="-598.8" font-family="Arial" font-size="14.00">move&#45;dir(X6,X5,dir&#45;up),</text>
<text text-anchor="start" x="791.5" y="-584.8" font-family="Arial" font-size="14.00">thing(player&#45;01), thing(stone&#45;01)</text>
<text text-anchor="start" x="791.5" y="-560.8" font-family="Arial" font-weight="bold" font-size="14.00">add:</text>
<text text-anchor="start" x="791.5" y="-546.8" font-family="Arial" font-size="14.00">at(player&#45;01,X6), at(stone&#45;01,X4),</text>
<text text-anchor="start" x="791.5" y="-532.8" font-family="Arial" font-size="14.00">clear(X5)</text>
<text text-anchor="start" x="791.5" y="-508.8" font-family="Arial" font-weight="bold" font-size="14.00">del:</text>
<text text-anchor="start" x="791.5" y="-494.8" font-family="Arial" font-size="14.00">at(player&#45;01,X5), at(stone&#45;01,X6),</text>
<text text-anchor="start" x="791.5" y="-480.8" font-family="Arial" font-size="14.00">clear(X4)</text>
<path fill="none" stroke="#008000" stroke-width="4" d="M794.5,-468.5C794.5,-468.5 990.5,-468.5 990.5,-468.5 996.5,-468.5 1002.5,-474.5 1002.5,-480.5 1002.5,-480.5 1002.5,-809.5 1002.5,-809.5 1002.5,-815.5 996.5,-821.5 990.5,-821.5 990.5,-821.5 794.5,-821.5 794.5,-821.5 788.5,-821.5 782.5,-815.5 782.5,-809.5 782.5,-809.5 782.5,-480.5 782.5,-480.5 782.5,-474.5 788.5,-468.5 794.5,-468.5"/>
</g>
<!-- action&#45;1 -->
<g id="node3" class="node">
<title>action&#45;1</title>
<path fill="black" stroke="transparent" d="M12.5,-1705C12.5,-1705 221.5,-1705 221.5,-1705 225,-1705 228.5,-1708.5 228.5,-1712 228.5,-1712 228.5,-1719 228.5,-1719 228.5,-1722.5 225,-1726 221.5,-1726 221.5,-1726 12.5,-1726 12.5,-1726 9,-1726 5.5,-1722.5 5.5,-1719 5.5,-1719 5.5,-1712 5.5,-1712 5.5,-1708.5 9,-1705 12.5,-1705"/>
<text text-anchor="start" x="91" y="-1712.8" font-family="Arial" font-weight="bold" font-size="14.00" fill="white">action&#45;1</text>
<text text-anchor="start" x="8.5" y="-1687.8" font-family="Arial" font-weight="bold" font-size="14.00">params:</text>
<text text-anchor="start" x="8.5" y="-1662.8" font-family="Arial" font-weight="bold" font-size="14.00">pre:</text>
<text text-anchor="start" x="8.5" y="-1648.8" font-family="Arial" font-size="14.00">at(player&#45;01,pos&#45;6&#45;3),</text>
<text text-anchor="start" x="8.5" y="-1634.8" font-family="Arial" font-size="14.00">clear(pos&#45;6&#45;2),</text>
<text text-anchor="start" x="8.5" y="-1620.8" font-family="Arial" font-size="14.00">is&#45;nongoal(pos&#45;6&#45;2),</text>
<text text-anchor="start" x="8.5" y="-1606.8" font-family="Arial" font-size="14.00">is&#45;nongoal(pos&#45;6&#45;3),</text>
<text text-anchor="start" x="8.5" y="-1592.8" font-family="Arial" font-size="14.00">is&#45;player(player&#45;01),</text>
<text text-anchor="start" x="8.5" y="-1578.8" font-family="Arial" font-size="14.00">location(pos&#45;6&#45;2),</text>
<text text-anchor="start" x="8.5" y="-1564.8" font-family="Arial" font-size="14.00">location(pos&#45;6&#45;3),</text>
<text text-anchor="start" x="8.5" y="-1550.8" font-family="Arial" font-size="14.00">move&#45;dir(pos&#45;6&#45;2,pos&#45;6&#45;3,dir&#45;down),</text>
<text text-anchor="start" x="8.5" y="-1536.8" font-family="Arial" font-size="14.00">move&#45;dir(pos&#45;6&#45;3,pos&#45;6&#45;2,dir&#45;up),</text>
<text text-anchor="start" x="8.5" y="-1522.8" font-family="Arial" font-size="14.00">thing(player&#45;01)</text>
<text text-anchor="start" x="8.5" y="-1498.8" font-family="Arial" font-weight="bold" font-size="14.00">add:</text>
<text text-anchor="start" x="8.5" y="-1484.8" font-family="Arial" font-size="14.00">at(player&#45;01,pos&#45;6&#45;2),</text>
<text text-anchor="start" x="8.5" y="-1470.8" font-family="Arial" font-size="14.00">clear(pos&#45;6&#45;3)</text>
<text text-anchor="start" x="8.5" y="-1446.8" font-family="Arial" font-weight="bold" font-size="14.00">del:</text>
<text text-anchor="start" x="8.5" y="-1432.8" font-family="Arial" font-size="14.00">at(player&#45;01,pos&#45;6&#45;3),</text>
<text text-anchor="start" x="8.5" y="-1418.8" font-family="Arial" font-size="14.00">clear(pos&#45;6&#45;2)</text>
<path fill="none" stroke="black" d="M12,-1407C12,-1407 221,-1407 221,-1407 227,-1407 233,-1413 233,-1419 233,-1419 233,-1719 233,-1719 233,-1725 227,-1731 221,-1731 221,-1731 12,-1731 12,-1731 6,-1731 0,-1725 0,-1719 0,-1719 0,-1419 0,-1419 0,-1413 6,-1407 12,-1407"/>
</g>
<!-- cluster&#45;0 -->
<g id="node11" class="node">
<title>cluster&#45;0</title>
<path fill="black" stroke="transparent" d="M281,-1266C281,-1266 342,-1266 342,-1266 348,-1266 354,-1272 354,-1278 354,-1278 354,-1308 354,-1308 354,-1314 348,-1320 342,-1320 342,-1320 281,-1320 281,-1320 275,-1320 269,-1314 269,-1308 269,-1308 269,-1278 269,-1278 269,-1272 275,-1266 281,-1266"/>
<text text-anchor="start" x="281.5" y="-1302.8" font-family="Arial" font-weight="bold" font-size="14.00" fill="white">cluster&#45;0 </text>
<text text-anchor="start" x="276.5" y="-1277.8" font-family="Arial" font-weight="bold" font-size="14.00" fill="white">dist.: &#160;</text>
<text text-anchor="start" x="316.5" y="-1277.8" font-family="Arial" font-size="14.00" fill="white"> 0.33</text>
</g>
<!-- action&#45;1&#45;&#45;cluster&#45;0 -->
<g id="edge5" class="edge">
<title>action&#45;1&#45;&#45;cluster&#45;0</title>
<path fill="none" stroke="black" d="M230.89,-1406.85C254.35,-1373.29 276.44,-1341.7 291.37,-1320.35"/>
</g>
<!-- action&#45;3 -->
<g id="node4" class="node">
<title>action&#45;3</title>
<path fill="black" stroke="transparent" d="M15.5,-1363C15.5,-1363 218.5,-1363 218.5,-1363 222,-1363 225.5,-1366.5 225.5,-1370 225.5,-1370 225.5,-1377 225.5,-1377 225.5,-1380.5 222,-1384 218.5,-1384 218.5,-1384 15.5,-1384 15.5,-1384 12,-1384 8.5,-1380.5 8.5,-1377 8.5,-1377 8.5,-1370 8.5,-1370 8.5,-1366.5 12,-1363 15.5,-1363"/>
<text text-anchor="start" x="91" y="-1370.8" font-family="Arial" font-weight="bold" font-size="14.00" fill="white">action&#45;3</text>
<text text-anchor="start" x="11.5" y="-1345.8" font-family="Arial" font-weight="bold" font-size="14.00">params:</text>
<text text-anchor="start" x="11.5" y="-1320.8" font-family="Arial" font-weight="bold" font-size="14.00">pre:</text>
<text text-anchor="start" x="11.5" y="-1306.8" font-family="Arial" font-size="14.00">at(player&#45;01,pos&#45;6&#45;2),</text>
<text text-anchor="start" x="11.5" y="-1292.8" font-family="Arial" font-size="14.00">clear(pos&#45;5&#45;2),</text>
<text text-anchor="start" x="11.5" y="-1278.8" font-family="Arial" font-size="14.00">is&#45;nongoal(pos&#45;5&#45;2),</text>
<text text-anchor="start" x="11.5" y="-1264.8" font-family="Arial" font-size="14.00">is&#45;nongoal(pos&#45;6&#45;2),</text>
<text text-anchor="start" x="11.5" y="-1250.8" font-family="Arial" font-size="14.00">is&#45;player(player&#45;01),</text>
<text text-anchor="start" x="11.5" y="-1236.8" font-family="Arial" font-size="14.00">location(pos&#45;5&#45;2),</text>
<text text-anchor="start" x="11.5" y="-1222.8" font-family="Arial" font-size="14.00">location(pos&#45;6&#45;2),</text>
<text text-anchor="start" x="11.5" y="-1208.8" font-family="Arial" font-size="14.00">move&#45;dir(pos&#45;5&#45;2,pos&#45;6&#45;2,dir&#45;right),</text>
<text text-anchor="start" x="11.5" y="-1194.8" font-family="Arial" font-size="14.00">move&#45;dir(pos&#45;6&#45;2,pos&#45;5&#45;2,dir&#45;left),</text>
<text text-anchor="start" x="11.5" y="-1180.8" font-family="Arial" font-size="14.00">thing(player&#45;01)</text>
<text text-anchor="start" x="11.5" y="-1156.8" font-family="Arial" font-weight="bold" font-size="14.00">add:</text>
<text text-anchor="start" x="11.5" y="-1142.8" font-family="Arial" font-size="14.00">at(player&#45;01,pos&#45;5&#45;2),</text>
<text text-anchor="start" x="11.5" y="-1128.8" font-family="Arial" font-size="14.00">clear(pos&#45;6&#45;2)</text>
<text text-anchor="start" x="11.5" y="-1104.8" font-family="Arial" font-weight="bold" font-size="14.00">del:</text>
<text text-anchor="start" x="11.5" y="-1090.8" font-family="Arial" font-size="14.00">at(player&#45;01,pos&#45;6&#45;2),</text>
<text text-anchor="start" x="11.5" y="-1076.8" font-family="Arial" font-size="14.00">clear(pos&#45;5&#45;2)</text>
<path fill="none" stroke="black" d="M15,-1065C15,-1065 218,-1065 218,-1065 224,-1065 230,-1071 230,-1077 230,-1077 230,-1377 230,-1377 230,-1383 224,-1389 218,-1389 218,-1389 15,-1389 15,-1389 9,-1389 3,-1383 3,-1377 3,-1377 3,-1077 3,-1077 3,-1071 9,-1065 15,-1065"/>
</g>
<!-- action&#45;3&#45;&#45;cluster&#45;0 -->
<g id="edge6" class="edge">
<title>action&#45;3&#45;&#45;cluster&#45;0</title>
<path fill="none" stroke="black" d="M230.05,-1265.49C243.78,-1270.18 257.06,-1274.73 268.75,-1278.72"/>
</g>
<!-- action&#45;4 -->
<g id="node5" class="node">
<title>action&#45;4</title>
<path fill="black" stroke="transparent" d="M409.5,-1393C409.5,-1393 604.5,-1393 604.5,-1393 608,-1393 611.5,-1396.5 611.5,-1400 611.5,-1400 611.5,-1407 611.5,-1407 611.5,-1410.5 608,-1414 604.5,-1414 604.5,-1414 409.5,-1414 409.5,-1414 406,-1414 402.5,-1410.5 402.5,-1407 402.5,-1407 402.5,-1400 402.5,-1400 402.5,-1396.5 406,-1393 409.5,-1393"/>
<text text-anchor="start" x="481" y="-1400.8" font-family="Arial" font-weight="bold" font-size="14.00" fill="white">action&#45;4</text>
<text text-anchor="start" x="405.5" y="-1375.8" font-family="Arial" font-weight="bold" font-size="14.00">params:</text>
<text text-anchor="start" x="405.5" y="-1361.8" font-family="Arial" font-size="14.00">X0, X1, X2, X3</text>
<text text-anchor="start" x="405.5" y="-1337.8" font-family="Arial" font-weight="bold" font-size="14.00">pre:</text>
<text text-anchor="start" x="405.5" y="-1323.8" font-family="Arial" font-size="14.00">at(player&#45;01,X3), clear(X0),</text>
<text text-anchor="start" x="405.5" y="-1309.8" font-family="Arial" font-size="14.00">is&#45;nongoal(X0), is&#45;nongoal(X3),</text>
<text text-anchor="start" x="405.5" y="-1295.8" font-family="Arial" font-size="14.00">is&#45;player(player&#45;01), location(X0),</text>
<text text-anchor="start" x="405.5" y="-1281.8" font-family="Arial" font-size="14.00">location(X3), move&#45;dir(X0,X3,X1),</text>
<text text-anchor="start" x="405.5" y="-1267.8" font-family="Arial" font-size="14.00">move&#45;dir(X3,X0,X2),</text>
<text text-anchor="start" x="405.5" y="-1253.8" font-family="Arial" font-size="14.00">thing(player&#45;01)</text>
<text text-anchor="start" x="405.5" y="-1229.8" font-family="Arial" font-weight="bold" font-size="14.00">add:</text>
<text text-anchor="start" x="405.5" y="-1215.8" font-family="Arial" font-size="14.00">at(player&#45;01,X0), clear(X3)</text>
<text text-anchor="start" x="405.5" y="-1191.8" font-family="Arial" font-weight="bold" font-size="14.00">del:</text>
<text text-anchor="start" x="405.5" y="-1177.8" font-family="Arial" font-size="14.00">at(player&#45;01,X3), clear(X0)</text>
<path fill="none" stroke="black" d="M409,-1166.5C409,-1166.5 604,-1166.5 604,-1166.5 610,-1166.5 616,-1172.5 616,-1178.5 616,-1178.5 616,-1407.5 616,-1407.5 616,-1413.5 610,-1419.5 604,-1419.5 604,-1419.5 409,-1419.5 409,-1419.5 403,-1419.5 397,-1413.5 397,-1407.5 397,-1407.5 397,-1178.5 397,-1178.5 397,-1172.5 403,-1166.5 409,-1166.5"/>
</g>
<!-- cluster&#45;1 -->
<g id="node12" class="node">
<title>cluster&#45;1</title>
<path fill="black" stroke="transparent" d="M671,-959C671,-959 732,-959 732,-959 738,-959 744,-965 744,-971 744,-971 744,-1001 744,-1001 744,-1007 738,-1013 732,-1013 732,-1013 671,-1013 671,-1013 665,-1013 659,-1007 659,-1001 659,-1001 659,-971 659,-971 659,-965 665,-959 671,-959"/>
<text text-anchor="start" x="671.5" y="-995.8" font-family="Arial" font-weight="bold" font-size="14.00" fill="white">cluster&#45;1 </text>
<text text-anchor="start" x="666.5" y="-970.8" font-family="Arial" font-weight="bold" font-size="14.00" fill="white">dist.: &#160;</text>
<text text-anchor="start" x="706.5" y="-970.8" font-family="Arial" font-size="14.00" fill="white"> 0.00</text>
</g>
<!-- action&#45;4&#45;&#45;cluster&#45;1 -->
<g id="edge7" class="edge">
<title>action&#45;4&#45;&#45;cluster&#45;1</title>
<path fill="none" stroke="black" d="M616.04,-1167.6C618.44,-1164.07 620.76,-1160.53 623,-1157 653.18,-1109.37 677.96,-1048.02 690.86,-1013.25"/>
</g>
<!-- action&#45;7 -->
<g id="node6" class="node">
<title>action&#45;7</title>
<path fill="black" stroke="transparent" d="M405.5,-1122C405.5,-1122 608.5,-1122 608.5,-1122 612,-1122 615.5,-1125.5 615.5,-1129 615.5,-1129 615.5,-1136 615.5,-1136 615.5,-1139.5 612,-1143 608.5,-1143 608.5,-1143 405.5,-1143 405.5,-1143 402,-1143 398.5,-1139.5 398.5,-1136 398.5,-1136 398.5,-1129 398.5,-1129 398.5,-1125.5 402,-1122 405.5,-1122"/>
<text text-anchor="start" x="481" y="-1129.8" font-family="Arial" font-weight="bold" font-size="14.00" fill="white">action&#45;7</text>
<text text-anchor="start" x="401.5" y="-1104.8" font-family="Arial" font-weight="bold" font-size="14.00">params:</text>
<text text-anchor="start" x="401.5" y="-1079.8" font-family="Arial" font-weight="bold" font-size="14.00">pre:</text>
<text text-anchor="start" x="401.5" y="-1065.8" font-family="Arial" font-size="14.00">at(player&#45;01,pos&#45;5&#45;2),</text>
<text text-anchor="start" x="401.5" y="-1051.8" font-family="Arial" font-size="14.00">clear(pos&#45;4&#45;2),</text>
<text text-anchor="start" x="401.5" y="-1037.8" font-family="Arial" font-size="14.00">is&#45;nongoal(pos&#45;4&#45;2),</text>
<text text-anchor="start" x="401.5" y="-1023.8" font-family="Arial" font-size="14.00">is&#45;nongoal(pos&#45;5&#45;2),</text>
<text text-anchor="start" x="401.5" y="-1009.8" font-family="Arial" font-size="14.00">is&#45;player(player&#45;01),</text>
<text text-anchor="start" x="401.5" y="-995.8" font-family="Arial" font-size="14.00">location(pos&#45;4&#45;2),</text>
<text text-anchor="start" x="401.5" y="-981.8" font-family="Arial" font-size="14.00">location(pos&#45;5&#45;2),</text>
<text text-anchor="start" x="401.5" y="-967.8" font-family="Arial" font-size="14.00">move&#45;dir(pos&#45;4&#45;2,pos&#45;5&#45;2,dir&#45;right),</text>
<text text-anchor="start" x="401.5" y="-953.8" font-family="Arial" font-size="14.00">move&#45;dir(pos&#45;5&#45;2,pos&#45;4&#45;2,dir&#45;left),</text>
<text text-anchor="start" x="401.5" y="-939.8" font-family="Arial" font-size="14.00">thing(player&#45;01)</text>
<text text-anchor="start" x="401.5" y="-915.8" font-family="Arial" font-weight="bold" font-size="14.00">add:</text>
<text text-anchor="start" x="401.5" y="-901.8" font-family="Arial" font-size="14.00">at(player&#45;01,pos&#45;4&#45;2),</text>
<text text-anchor="start" x="401.5" y="-887.8" font-family="Arial" font-size="14.00">clear(pos&#45;5&#45;2)</text>
<text text-anchor="start" x="401.5" y="-863.8" font-family="Arial" font-weight="bold" font-size="14.00">del:</text>
<text text-anchor="start" x="401.5" y="-849.8" font-family="Arial" font-size="14.00">at(player&#45;01,pos&#45;5&#45;2),</text>
<text text-anchor="start" x="401.5" y="-835.8" font-family="Arial" font-size="14.00">clear(pos&#45;4&#45;2)</text>
<path fill="none" stroke="black" d="M405,-824C405,-824 608,-824 608,-824 614,-824 620,-830 620,-836 620,-836 620,-1136 620,-1136 620,-1142 614,-1148 608,-1148 608,-1148 405,-1148 405,-1148 399,-1148 393,-1142 393,-1136 393,-1136 393,-836 393,-836 393,-830 399,-824 405,-824"/>
</g>
<!-- action&#45;7&#45;&#45;cluster&#45;1 -->
<g id="edge8" class="edge">
<title>action&#45;7&#45;&#45;cluster&#45;1</title>
<path fill="none" stroke="black" d="M620.05,-986C633.78,-986 647.06,-986 658.75,-986"/>
</g>
<!-- action&#45;11 -->
<g id="node7" class="node">
<title>action&#45;11</title>
<path fill="black" stroke="transparent" d="M12.5,-889C12.5,-889 221.5,-889 221.5,-889 225,-889 228.5,-892.5 228.5,-896 228.5,-896 228.5,-903 228.5,-903 228.5,-906.5 225,-910 221.5,-910 221.5,-910 12.5,-910 12.5,-910 9,-910 5.5,-906.5 5.5,-903 5.5,-903 5.5,-896 5.5,-896 5.5,-892.5 9,-889 12.5,-889"/>
<text text-anchor="start" x="87.5" y="-896.8" font-family="Arial" font-weight="bold" font-size="14.00" fill="white">action&#45;11</text>
<text text-anchor="start" x="8.5" y="-871.8" font-family="Arial" font-weight="bold" font-size="14.00">params:</text>
<text text-anchor="start" x="8.5" y="-846.8" font-family="Arial" font-weight="bold" font-size="14.00">pre:</text>
<text text-anchor="start" x="8.5" y="-832.8" font-family="Arial" font-size="14.00">at(player&#45;01,pos&#45;4&#45;2),</text>
<text text-anchor="start" x="8.5" y="-818.8" font-family="Arial" font-size="14.00">at(stone&#45;01,pos&#45;4&#45;3),</text>
<text text-anchor="start" x="8.5" y="-804.8" font-family="Arial" font-size="14.00">clear(pos&#45;4&#45;4),</text>
<text text-anchor="start" x="8.5" y="-790.8" font-family="Arial" font-size="14.00">is&#45;nongoal(pos&#45;4&#45;2),</text>
<text text-anchor="start" x="8.5" y="-776.8" font-family="Arial" font-size="14.00">is&#45;nongoal(pos&#45;4&#45;3),</text>
<text text-anchor="start" x="8.5" y="-762.8" font-family="Arial" font-size="14.00">is&#45;nongoal(pos&#45;4&#45;4),</text>
<text text-anchor="start" x="8.5" y="-748.8" font-family="Arial" font-size="14.00">is&#45;player(player&#45;01),</text>
<text text-anchor="start" x="8.5" y="-734.8" font-family="Arial" font-size="14.00">is&#45;stone(stone&#45;01),</text>
<text text-anchor="start" x="8.5" y="-720.8" font-family="Arial" font-size="14.00">location(pos&#45;4&#45;2),</text>
<text text-anchor="start" x="8.5" y="-706.8" font-family="Arial" font-size="14.00">location(pos&#45;4&#45;3),</text>
<text text-anchor="start" x="8.5" y="-692.8" font-family="Arial" font-size="14.00">location(pos&#45;4&#45;4),</text>
<text text-anchor="start" x="8.5" y="-678.8" font-family="Arial" font-size="14.00">move&#45;dir(pos&#45;4&#45;2,pos&#45;4&#45;3,dir&#45;down),</text>
<text text-anchor="start" x="8.5" y="-664.8" font-family="Arial" font-size="14.00">move&#45;dir(pos&#45;4&#45;3,pos&#45;4&#45;2,dir&#45;up),</text>
<text text-anchor="start" x="8.5" y="-650.8" font-family="Arial" font-size="14.00">move&#45;dir(pos&#45;4&#45;3,pos&#45;4&#45;4,dir&#45;down),</text>
<text text-anchor="start" x="8.5" y="-636.8" font-family="Arial" font-size="14.00">move&#45;dir(pos&#45;4&#45;4,pos&#45;4&#45;3,dir&#45;up),</text>
<text text-anchor="start" x="8.5" y="-622.8" font-family="Arial" font-size="14.00">thing(player&#45;01), thing(stone&#45;01)</text>
<text text-anchor="start" x="8.5" y="-598.8" font-family="Arial" font-weight="bold" font-size="14.00">add:</text>
<text text-anchor="start" x="8.5" y="-584.8" font-family="Arial" font-size="14.00">at(player&#45;01,pos&#45;4&#45;3),</text>
<text text-anchor="start" x="8.5" y="-570.8" font-family="Arial" font-size="14.00">at(stone&#45;01,pos&#45;4&#45;4),</text>
<text text-anchor="start" x="8.5" y="-556.8" font-family="Arial" font-size="14.00">clear(pos&#45;4&#45;2)</text>
<text text-anchor="start" x="8.5" y="-532.8" font-family="Arial" font-weight="bold" font-size="14.00">del:</text>
<text text-anchor="start" x="8.5" y="-518.8" font-family="Arial" font-size="14.00">at(player&#45;01,pos&#45;4&#45;2),</text>
<text text-anchor="start" x="8.5" y="-504.8" font-family="Arial" font-size="14.00">at(stone&#45;01,pos&#45;4&#45;3),</text>
<text text-anchor="start" x="8.5" y="-490.8" font-family="Arial" font-size="14.00">clear(pos&#45;4&#45;4)</text>
<path fill="none" stroke="black" d="M12,-479C12,-479 221,-479 221,-479 227,-479 233,-485 233,-491 233,-491 233,-903 233,-903 233,-909 227,-915 221,-915 221,-915 12,-915 12,-915 6,-915 0,-909 0,-903 0,-903 0,-491 0,-491 0,-485 6,-479 12,-479"/>
</g>
<!-- cluster&#45;2 -->
<g id="node13" class="node">
<title>cluster&#45;2</title>
<path fill="black" stroke="transparent" d="M281,-603C281,-603 342,-603 342,-603 348,-603 354,-609 354,-615 354,-615 354,-645 354,-645 354,-651 348,-657 342,-657 342,-657 281,-657 281,-657 275,-657 269,-651 269,-645 269,-645 269,-615 269,-615 269,-609 275,-603 281,-603"/>
<text text-anchor="start" x="281.5" y="-639.8" font-family="Arial" font-weight="bold" font-size="14.00" fill="white">cluster&#45;2 </text>
<text text-anchor="start" x="276.5" y="-614.8" font-family="Arial" font-weight="bold" font-size="14.00" fill="white">dist.: &#160;</text>
<text text-anchor="start" x="316.5" y="-614.8" font-family="Arial" font-size="14.00" fill="white"> 0.19</text>
</g>
<!-- action&#45;11&#45;&#45;cluster&#45;2 -->
<g id="edge9" class="edge">
<title>action&#45;11&#45;&#45;cluster&#45;2</title>
<path fill="none" stroke="black" d="M233.11,-656.87C245.8,-652.46 258.02,-648.22 268.86,-644.45"/>
</g>
<!-- action&#45;13 -->
<g id="node8" class="node">
<title>action&#45;13</title>
<path fill="black" stroke="transparent" d="M12.5,-435C12.5,-435 221.5,-435 221.5,-435 225,-435 228.5,-438.5 228.5,-442 228.5,-442 228.5,-449 228.5,-449 228.5,-452.5 225,-456 221.5,-456 221.5,-456 12.5,-456 12.5,-456 9,-456 5.5,-452.5 5.5,-449 5.5,-449 5.5,-442 5.5,-442 5.5,-438.5 9,-435 12.5,-435"/>
<text text-anchor="start" x="87" y="-442.8" font-family="Arial" font-weight="bold" font-size="14.00" fill="white">action&#45;13</text>
<text text-anchor="start" x="8.5" y="-417.8" font-family="Arial" font-weight="bold" font-size="14.00">params:</text>
<text text-anchor="start" x="8.5" y="-392.8" font-family="Arial" font-weight="bold" font-size="14.00">pre:</text>
<text text-anchor="start" x="8.5" y="-378.8" font-family="Arial" font-size="14.00">at(player&#45;01,pos&#45;4&#45;3),</text>
<text text-anchor="start" x="8.5" y="-364.8" font-family="Arial" font-size="14.00">at(stone&#45;01,pos&#45;4&#45;4),</text>
<text text-anchor="start" x="8.5" y="-350.8" font-family="Arial" font-size="14.00">clear(pos&#45;4&#45;5),</text>
<text text-anchor="start" x="8.5" y="-336.8" font-family="Arial" font-size="14.00">is&#45;nongoal(pos&#45;4&#45;3),</text>
<text text-anchor="start" x="8.5" y="-322.8" font-family="Arial" font-size="14.00">is&#45;nongoal(pos&#45;4&#45;4),</text>
<text text-anchor="start" x="8.5" y="-308.8" font-family="Arial" font-size="14.00">is&#45;nongoal(pos&#45;4&#45;5),</text>
<text text-anchor="start" x="8.5" y="-294.8" font-family="Arial" font-size="14.00">is&#45;player(player&#45;01),</text>
<text text-anchor="start" x="8.5" y="-280.8" font-family="Arial" font-size="14.00">is&#45;stone(stone&#45;01),</text>
<text text-anchor="start" x="8.5" y="-266.8" font-family="Arial" font-size="14.00">location(pos&#45;4&#45;3),</text>
<text text-anchor="start" x="8.5" y="-252.8" font-family="Arial" font-size="14.00">location(pos&#45;4&#45;4),</text>
<text text-anchor="start" x="8.5" y="-238.8" font-family="Arial" font-size="14.00">location(pos&#45;4&#45;5),</text>
<text text-anchor="start" x="8.5" y="-224.8" font-family="Arial" font-size="14.00">move&#45;dir(pos&#45;4&#45;3,pos&#45;4&#45;4,dir&#45;down),</text>
<text text-anchor="start" x="8.5" y="-210.8" font-family="Arial" font-size="14.00">move&#45;dir(pos&#45;4&#45;4,pos&#45;4&#45;3,dir&#45;up),</text>
<text text-anchor="start" x="8.5" y="-196.8" font-family="Arial" font-size="14.00">move&#45;dir(pos&#45;4&#45;4,pos&#45;4&#45;5,dir&#45;down),</text>
<text text-anchor="start" x="8.5" y="-182.8" font-family="Arial" font-size="14.00">move&#45;dir(pos&#45;4&#45;5,pos&#45;4&#45;4,dir&#45;up),</text>
<text text-anchor="start" x="8.5" y="-168.8" font-family="Arial" font-size="14.00">thing(player&#45;01), thing(stone&#45;01)</text>
<text text-anchor="start" x="8.5" y="-144.8" font-family="Arial" font-weight="bold" font-size="14.00">add:</text>
<text text-anchor="start" x="8.5" y="-130.8" font-family="Arial" font-size="14.00">at(player&#45;01,pos&#45;4&#45;4),</text>
<text text-anchor="start" x="8.5" y="-116.8" font-family="Arial" font-size="14.00">at(stone&#45;01,pos&#45;4&#45;5),</text>
<text text-anchor="start" x="8.5" y="-102.8" font-family="Arial" font-size="14.00">clear(pos&#45;4&#45;3)</text>
<text text-anchor="start" x="8.5" y="-78.8" font-family="Arial" font-weight="bold" font-size="14.00">del:</text>
<text text-anchor="start" x="8.5" y="-64.8" font-family="Arial" font-size="14.00">at(player&#45;01,pos&#45;4&#45;3),</text>
<text text-anchor="start" x="8.5" y="-50.8" font-family="Arial" font-size="14.00">at(stone&#45;01,pos&#45;4&#45;4),</text>
<text text-anchor="start" x="8.5" y="-36.8" font-family="Arial" font-size="14.00">clear(pos&#45;4&#45;5)</text>
<path fill="none" stroke="black" d="M12,-25C12,-25 221,-25 221,-25 227,-25 233,-31 233,-37 233,-37 233,-449 233,-449 233,-455 227,-461 221,-461 221,-461 12,-461 12,-461 6,-461 0,-455 0,-449 0,-449 0,-37 0,-37 0,-31 6,-25 12,-25"/>
</g>
<!-- action&#45;13&#45;&#45;cluster&#45;2 -->
<g id="edge10" class="edge">
<title>action&#45;13&#45;&#45;cluster&#45;2</title>
<path fill="none" stroke="black" d="M228.54,-461.03C230.04,-464.04 231.53,-467.03 233,-470 256.06,-516.44 282.23,-570.84 297.5,-602.74"/>
</g>
<!-- action&#45;14 -->
<g id="node9" class="node">
<title>action&#45;14</title>
<path fill="#c9211e" stroke="transparent" d="M409.5,-779C409.5,-779 603.5,-779 603.5,-779 607,-779 610.5,-782.5 610.5,-786 610.5,-786 610.5,-793 610.5,-793 610.5,-796.5 607,-800 603.5,-800 603.5,-800 409.5,-800 409.5,-800 406,-800 402.5,-796.5 402.5,-793 402.5,-793 402.5,-786 402.5,-786 402.5,-782.5 406,-779 409.5,-779"/>
<text text-anchor="start" x="476.5" y="-786.8" font-family="Arial" font-weight="bold" font-size="14.00" fill="white">action&#45;14</text>
<text text-anchor="start" x="405.5" y="-761.8" font-family="Arial" font-weight="bold" font-size="14.00">params:</text>
<text text-anchor="start" x="405.5" y="-747.8" font-family="Arial" font-size="14.00">X4, X5, X6</text>
<text text-anchor="start" x="405.5" y="-723.8" font-family="Arial" font-weight="bold" font-size="14.00">pre:</text>
<text text-anchor="start" x="405.5" y="-709.8" font-family="Arial" font-size="14.00">at(player&#45;01,X5), at(stone&#45;01,X6),</text>
<text text-anchor="start" x="405.5" y="-695.8" font-family="Arial" font-size="14.00">clear(X4), is&#45;nongoal(X4),</text>
<text text-anchor="start" x="405.5" y="-681.8" font-family="Arial" font-size="14.00">is&#45;nongoal(X5), is&#45;nongoal(X6),</text>
<text text-anchor="start" x="405.5" y="-667.8" font-family="Arial" font-size="14.00">is&#45;player(player&#45;01),</text>
<text text-anchor="start" x="405.5" y="-653.8" font-family="Arial" font-size="14.00">is&#45;stone(stone&#45;01), location(X4),</text>
<text text-anchor="start" x="405.5" y="-639.8" font-family="Arial" font-size="14.00">location(X5), location(X6),</text>
<text text-anchor="start" x="405.5" y="-625.8" font-family="Arial" font-size="14.00">move&#45;dir(X4,X6,dir&#45;up),</text>
<text text-anchor="start" x="405.5" y="-611.8" font-family="Arial" font-size="14.00">move&#45;dir(X5,X6,dir&#45;down),</text>
<text text-anchor="start" x="405.5" y="-597.8" font-family="Arial" font-size="14.00">move&#45;dir(X6,X4,dir&#45;down),</text>
<text text-anchor="start" x="405.5" y="-583.8" font-family="Arial" font-size="14.00">move&#45;dir(X6,X5,dir&#45;up),</text>
<text text-anchor="start" x="405.5" y="-569.8" font-family="Arial" font-size="14.00">thing(player&#45;01), thing(stone&#45;01)</text>
<text text-anchor="start" x="405.5" y="-545.8" font-family="Arial" font-weight="bold" font-size="14.00">add:</text>
<text text-anchor="start" x="405.5" y="-531.8" font-family="Arial" font-size="14.00">at(player&#45;01,X6), at(stone&#45;01,X4),</text>
<text text-anchor="start" x="405.5" y="-517.8" font-family="Arial" font-size="14.00">clear(X5)</text>
<text text-anchor="start" x="405.5" y="-493.8" font-family="Arial" font-weight="bold" font-size="14.00">del:</text>
<text text-anchor="start" x="405.5" y="-479.8" font-family="Arial" font-size="14.00">at(player&#45;01,X5), at(stone&#45;01,X6),</text>
<text text-anchor="start" x="405.5" y="-465.8" font-family="Arial" font-size="14.00">clear(X4)</text>
<path fill="none" stroke="#c9211e" d="M409.5,-454.5C409.5,-454.5 603.5,-454.5 603.5,-454.5 609.5,-454.5 615.5,-460.5 615.5,-466.5 615.5,-466.5 615.5,-793.5 615.5,-793.5 615.5,-799.5 609.5,-805.5 603.5,-805.5 603.5,-805.5 409.5,-805.5 409.5,-805.5 403.5,-805.5 397.5,-799.5 397.5,-793.5 397.5,-793.5 397.5,-466.5 397.5,-466.5 397.5,-460.5 403.5,-454.5 409.5,-454.5"/>
</g>
<!-- cluster&#45;3 -->
<g id="node14" class="node">
<title>cluster&#45;3</title>
<path fill="black" stroke="transparent" d="M671,-603C671,-603 732,-603 732,-603 738,-603 744,-609 744,-615 744,-615 744,-645 744,-645 744,-651 738,-657 732,-657 732,-657 671,-657 671,-657 665,-657 659,-651 659,-645 659,-645 659,-615 659,-615 659,-609 665,-603 671,-603"/>
<text text-anchor="start" x="671.5" y="-639.8" font-family="Arial" font-weight="bold" font-size="14.00" fill="white">cluster&#45;3 </text>
<text text-anchor="start" x="666.5" y="-614.8" font-family="Arial" font-weight="bold" font-size="14.00" fill="white">dist.: &#160;</text>
<text text-anchor="start" x="706.5" y="-614.8" font-family="Arial" font-size="14.00" fill="white"> 0.00</text>
</g>
<!-- action&#45;14&#45;&#45;cluster&#45;3 -->
<g id="edge11" class="edge">
<title>action&#45;14&#45;&#45;cluster&#45;3</title>
<path fill="none" stroke="black" d="M615.57,-630C630.9,-630 645.84,-630 658.8,-630"/>
</g>
<!-- action&#45;17 -->
<g id="node10" class="node">
<title>action&#45;17</title>
<path fill="#00008b" stroke="transparent" d="M402.5,-410C402.5,-410 611.5,-410 611.5,-410 615,-410 618.5,-413.5 618.5,-417 618.5,-417 618.5,-424 618.5,-424 618.5,-427.5 615,-431 611.5,-431 611.5,-431 402.5,-431 402.5,-431 399,-431 395.5,-427.5 395.5,-424 395.5,-424 395.5,-417 395.5,-417 395.5,-413.5 399,-410 402.5,-410"/>
<text text-anchor="start" x="477" y="-417.8" font-family="Arial" font-weight="bold" font-size="14.00" fill="white">action&#45;17</text>
<text text-anchor="start" x="398.5" y="-392.8" font-family="Arial" font-weight="bold" font-size="14.00">params:</text>
<text text-anchor="start" x="398.5" y="-367.8" font-family="Arial" font-weight="bold" font-size="14.00">pre:</text>
<text text-anchor="start" x="398.5" y="-353.8" font-family="Arial" font-size="14.00">at(player&#45;01,pos&#45;4&#45;4),</text>
<text text-anchor="start" x="398.5" y="-339.8" font-family="Arial" font-size="14.00">at(stone&#45;01,pos&#45;4&#45;5),</text>
<text text-anchor="start" x="398.5" y="-325.8" font-family="Arial" font-size="14.00">clear(pos&#45;4&#45;6),</text>
<text text-anchor="start" x="398.5" y="-311.8" font-family="Arial" font-size="14.00">is&#45;nongoal(pos&#45;4&#45;4),</text>
<text text-anchor="start" x="398.5" y="-297.8" font-family="Arial" font-size="14.00">is&#45;nongoal(pos&#45;4&#45;5),</text>
<text text-anchor="start" x="398.5" y="-283.8" font-family="Arial" font-size="14.00">is&#45;nongoal(pos&#45;4&#45;6),</text>
<text text-anchor="start" x="398.5" y="-269.8" font-family="Arial" font-size="14.00">is&#45;player(player&#45;01),</text>
<text text-anchor="start" x="398.5" y="-255.8" font-family="Arial" font-size="14.00">is&#45;stone(stone&#45;01),</text>
<text text-anchor="start" x="398.5" y="-241.8" font-family="Arial" font-size="14.00">location(pos&#45;4&#45;4),</text>
<text text-anchor="start" x="398.5" y="-227.8" font-family="Arial" font-size="14.00">location(pos&#45;4&#45;5),</text>
<text text-anchor="start" x="398.5" y="-213.8" font-family="Arial" font-size="14.00">location(pos&#45;4&#45;6),</text>
<text text-anchor="start" x="398.5" y="-199.8" font-family="Arial" font-size="14.00">move&#45;dir(pos&#45;4&#45;4,pos&#45;4&#45;5,dir&#45;down),</text>
<text text-anchor="start" x="398.5" y="-185.8" font-family="Arial" font-size="14.00">move&#45;dir(pos&#45;4&#45;5,pos&#45;4&#45;4,dir&#45;up),</text>
<text text-anchor="start" x="398.5" y="-171.8" font-family="Arial" font-size="14.00">move&#45;dir(pos&#45;4&#45;5,pos&#45;4&#45;6,dir&#45;down),</text>
<text text-anchor="start" x="398.5" y="-157.8" font-family="Arial" font-size="14.00">move&#45;dir(pos&#45;4&#45;6,pos&#45;4&#45;5,dir&#45;up),</text>
<text text-anchor="start" x="398.5" y="-143.8" font-family="Arial" font-size="14.00">thing(player&#45;01), thing(stone&#45;01)</text>
<text text-anchor="start" x="398.5" y="-119.8" font-family="Arial" font-weight="bold" font-size="14.00">add:</text>
<text text-anchor="start" x="398.5" y="-105.8" font-family="Arial" font-size="14.00">at(player&#45;01,pos&#45;4&#45;5),</text>
<text text-anchor="start" x="398.5" y="-91.8" font-family="Arial" font-size="14.00">at(stone&#45;01,pos&#45;4&#45;6),</text>
<text text-anchor="start" x="398.5" y="-77.8" font-family="Arial" font-size="14.00">clear(pos&#45;4&#45;4)</text>
<text text-anchor="start" x="398.5" y="-53.8" font-family="Arial" font-weight="bold" font-size="14.00">del:</text>
<text text-anchor="start" x="398.5" y="-39.8" font-family="Arial" font-size="14.00">at(player&#45;01,pos&#45;4&#45;4),</text>
<text text-anchor="start" x="398.5" y="-25.8" font-family="Arial" font-size="14.00">at(stone&#45;01,pos&#45;4&#45;5),</text>
<text text-anchor="start" x="398.5" y="-11.8" font-family="Arial" font-size="14.00">clear(pos&#45;4&#45;6)</text>
<path fill="none" stroke="#00008b" d="M402,0C402,0 611,0 611,0 617,0 623,-6 623,-12 623,-12 623,-424 623,-424 623,-430 617,-436 611,-436 611,-436 402,-436 402,-436 396,-436 390,-430 390,-424 390,-424 390,-12 390,-12 390,-6 396,0 402,0"/>
</g>
<!-- action&#45;17&#45;&#45;cluster&#45;3 -->
<g id="edge12" class="edge">
<title>action&#45;17&#45;&#45;cluster&#45;3</title>
<path fill="none" stroke="black" d="M618.91,-436.22C620.29,-439.16 621.65,-442.09 623,-445 648.61,-500.3 675.42,-566.44 689.82,-602.77"/>
</g>
<!-- cluster&#45;0&#45;&#45;action&#45;4 -->
<g id="edge1" class="edge">
<title>cluster&#45;0&#45;&#45;action&#45;4</title>
<path fill="none" stroke="black" d="M354.38,-1293C367.13,-1293 381.77,-1293 396.82,-1293"/>
</g>
<!-- cluster&#45;1&#45;&#45;action&#45;8 -->
<g id="edge2" class="edge">
<title>cluster&#45;1&#45;&#45;action&#45;8</title>
<path fill="none" stroke="black" d="M744.45,-982.67C755.21,-981.82 767.31,-980.86 779.83,-979.86"/>
</g>
<!-- cluster&#45;2&#45;&#45;action&#45;14 -->
<g id="edge3" class="edge">
<title>cluster&#45;2&#45;&#45;action&#45;14</title>
<path fill="none" stroke="black" d="M354.38,-630C367.24,-630 382.03,-630 397.21,-630"/>
</g>
<!-- cluster&#45;3&#45;&#45;action&#45;18 -->
<g id="edge4" class="edge">
<title>cluster&#45;3&#45;&#45;action&#45;18</title>
<path fill="none" stroke="black" d="M744.45,-633.33C755.32,-634.19 767.56,-635.16 780.21,-636.17"/>
</g>
</g>
</svg>
