<?xml version="1.0" encoding="UTF-8" standalone="no"?>
<!DOCTYPE svg PUBLIC "-//W3C//DTD SVG 1.1//EN"
 "http://www.w3.org/Graphics/SVG/1.1/DTD/svg11.dtd">
<!-- Generated by graphviz version 2.43.0 (0)
 -->
<!-- Title: g Pages: 1 -->
<svg width="312pt" height="247pt"
 viewBox="0.00 0.00 312.00 247.00" xmlns="http://www.w3.org/2000/svg" xmlns:xlink="http://www.w3.org/1999/xlink">
<g id="graph0" class="graph" transform="scale(1 1) rotate(0) translate(4 243)">
<title>g</title>
<polygon fill="white" stroke="transparent" points="-4,4 -4,-243 308,-243 308,4 -4,4"/>
<g id="clust1" class="cluster">
<title>cluster_actionlib</title>
<polygon fill="none" stroke="black" points="244,-46 244,-152 296,-152 296,-46 244,-46"/>
</g>
<!-- action&#45;8 -->
<g id="node1" class="node">
<title>action&#45;8</title>
<polygon fill="white" stroke="black" stroke-width="4" points="288,-144 252,-144 252,-108 288,-108 288,-144"/>
</g>
<!-- action&#45;18 -->
<g id="node2" class="node">
<title>action&#45;18</title>
<polygon fill="#008000" stroke="black" stroke-width="4" points="288,-90 252,-90 252,-54 288,-54 288,-90"/>
</g>
<!-- action&#45;1 -->
<g id="node3" class="node">
<title>action&#45;1</title>
<polygon fill="white" stroke="black" points="36,-239 0,-239 0,-203 36,-203 36,-239"/>
</g>
<!-- cluster&#45;0 -->
<g id="node11" class="node">
<title>cluster&#45;0</title>
<polygon fill="black" stroke="black" stroke-width="0" points="90,-189 72,-189 72,-171 90,-171 90,-189"/>
</g>
<!-- action&#45;1&#45;&#45;cluster&#45;0 -->
<g id="edge5" class="edge">
<title>action&#45;1&#45;&#45;cluster&#45;0</title>
<path fill="none" stroke="black" d="M36.32,-209.36C48.01,-201.5 62.91,-191.49 71.94,-185.42"/>
</g>
<!-- action&#45;3 -->
<g id="node4" class="node">
<title>action&#45;3</title>
<polygon fill="white" stroke="black" points="36,-185 0,-185 0,-149 36,-149 36,-185"/>
</g>
<!-- action&#45;3&#45;&#45;cluster&#45;0 -->
<g id="edge6" class="edge">
<title>action&#45;3&#45;&#45;cluster&#45;0</title>
<path fill="none" stroke="black" d="M36.32,-170.69C48.01,-173.18 62.91,-176.36 71.94,-178.28"/>
</g>
<!-- action&#45;4 -->
<g id="node5" class="node">
<title>action&#45;4</title>
<polygon fill="white" stroke="black" points="162,-198 126,-198 126,-162 162,-162 162,-198"/>
</g>
<!-- cluster&#45;1 -->
<g id="node12" class="node">
<title>cluster&#45;1</title>
<polygon fill="black" stroke="black" stroke-width="0" points="216,-135 198,-135 198,-117 216,-117 216,-135"/>
</g>
<!-- action&#45;4&#45;&#45;cluster&#45;1 -->
<g id="edge7" class="edge">
<title>action&#45;4&#45;&#45;cluster&#45;1</title>
<path fill="none" stroke="black" d="M162.32,-164.67C174.01,-154.32 188.91,-141.13 197.94,-133.14"/>
</g>
<!-- action&#45;7 -->
<g id="node6" class="node">
<title>action&#45;7</title>
<polygon fill="white" stroke="black" points="162,-144 126,-144 126,-108 162,-108 162,-144"/>
</g>
<!-- action&#45;7&#45;&#45;cluster&#45;1 -->
<g id="edge8" class="edge">
<title>action&#45;7&#45;&#45;cluster&#45;1</title>
<path fill="none" stroke="black" d="M162.32,-126C174.01,-126 188.91,-126 197.94,-126"/>
</g>
<!-- action&#45;11 -->
<g id="node7" class="node">
<title>action&#45;11</title>
<polygon fill="white" stroke="black" points="36,-104 0,-104 0,-68 36,-68 36,-104"/>
</g>
<!-- cluster&#45;2 -->
<g id="node13" class="node">
<title>cluster&#45;2</title>
<polygon fill="black" stroke="black" stroke-width="0" points="90,-81 72,-81 72,-63 90,-63 90,-81"/>
</g>
<!-- action&#45;11&#45;&#45;cluster&#45;2 -->
<g id="edge9" class="edge">
<title>action&#45;11&#45;&#45;cluster&#45;2</title>
<path fill="none" stroke="black" d="M36.32,-82.03C48.01,-79.34 62.91,-75.92 71.94,-73.85"/>
</g>
<!-- action&#45;13 -->
<g id="node8" class="node">
<title>action&#45;13</title>
<polygon fill="white" stroke="black" points="36,-50 0,-50 0,-14 36,-14 36,-50"/>
</g>
<!-- action&#45;13&#45;&#45;cluster&#45;2 -->
<g id="edge10" class="edge">
<title>action&#45;13&#45;&#45;cluster&#45;2</title>
<path fill="none" stroke="black" d="M36.32,-43.36C48.01,-51.02 62.91,-60.79 71.94,-66.71"/>
</g>
<!-- action&#45;14 -->
<g id="node9" class="node">
<title>action&#45;14</title>
<polygon fill="#c9211e" stroke="black" points="162,-90 126,-90 126,-54 162,-54 162,-90"/>
</g>
<!-- cluster&#45;3 -->
<g id="node14" class="node">
<title>cluster&#45;3</title>
<polygon fill="black" stroke="black" stroke-width="0" points="216,-81 198,-81 198,-63 216,-63 216,-81"/>
</g>
<!-- action&#45;14&#45;&#45;cluster&#45;3 -->
<g id="edge11" class="edge">
<title>action&#45;14&#45;&#45;cluster&#45;3</title>
<path fill="none" stroke="black" d="M162.32,-72C174.01,-72 188.91,-72 197.94,-72"/>
</g>
<!-- action&#45;17 -->
<g id="node10" class="node">
<title>action&#45;17</title>
<polygon fill="#00008b" stroke="black" points="162,-36 126,-36 126,0 162,0 162,-36"/>
</g>
<!-- action&#45;17&#45;&#45;cluster&#45;3 -->
<g id="edge12" class="edge">
<title>action&#45;17&#45;&#45;cluster&#45;3</title>
<path fill="none" stroke="black" d="M162.32,-33.33C174.01,-43.68 188.91,-56.87 197.94,-64.86"/>
</g>
<!-- cluster&#45;0&#45;&#45;action&#45;4 -->
<g id="edge1" class="edge">
<title>cluster&#45;0&#45;&#45;action&#45;4</title>
<path fill="none" stroke="black" d="M90.23,-180C99.33,-180 114.26,-180 125.92,-180"/>
</g>
<!-- cluster&#45;1&#45;&#45;action&#45;8 -->
<g id="edge2" class="edge">
<title>cluster&#45;1&#45;&#45;action&#45;8</title>
<path fill="none" stroke="black" d="M216.23,-126C225.33,-126 240.26,-126 251.92,-126"/>
</g>
<!-- cluster&#45;2&#45;&#45;action&#45;14 -->
<g id="edge3" class="edge">
<title>cluster&#45;2&#45;&#45;action&#45;14</title>
<path fill="none" stroke="black" d="M90.23,-72C99.33,-72 114.26,-72 125.92,-72"/>
</g>
<!-- cluster&#45;3&#45;&#45;action&#45;18 -->
<g id="edge4" class="edge">
<title>cluster&#45;3&#45;&#45;action&#45;18</title>
<path fill="none" stroke="black" d="M216.23,-72C225.33,-72 240.26,-72 251.92,-72"/>
</g>
</g>
</svg>
