<?xml version="1.0" encoding="UTF-8" standalone="no"?>
<!-- Created with Inkscape (http://www.inkscape.org/) -->

<svg
   xmlns:dc="http://purl.org/dc/elements/1.1/"
   xmlns:cc="http://creativecommons.org/ns#"
   xmlns:rdf="http://www.w3.org/1999/02/22-rdf-syntax-ns#"
   xmlns:svg="http://www.w3.org/2000/svg"
   xmlns="http://www.w3.org/2000/svg"
   xmlns:sodipodi="http://sodipodi.sourceforge.net/DTD/sodipodi-0.dtd"
   xmlns:inkscape="http://www.inkscape.org/namespaces/inkscape"
   width="228.0705mm"
   height="44.286175mm"
   viewBox="0 0 228.0705 44.286175"
   version="1.1"
   id="svg4625"
   inkscape:version="0.92.5 (2060ec1f9f, 2020-04-08)"
   sodipodi:docname="CSIC_no_text.svg">
  <defs
     id="defs4619" />
  <sodipodi:namedview
     id="base"
     pagecolor="#ffffff"
     bordercolor="#666666"
     borderopacity="1.0"
     inkscape:pageopacity="0.0"
     inkscape:pageshadow="2"
     inkscape:zoom="1.0748023"
     inkscape:cx="348.8916"
     inkscape:cy="120.58559"
     inkscape:document-units="mm"
     inkscape:current-layer="layer1"
     showgrid="false"
     fit-margin-top="0"
     fit-margin-left="0"
     fit-margin-right="0"
     fit-margin-bottom="0"
     inkscape:window-width="1920"
     inkscape:window-height="1016"
     inkscape:window-x="0"
     inkscape:window-y="27"
     inkscape:window-maximized="1" />
  <metadata
     id="metadata4622">
    <rdf:RDF>
      <cc:Work
         rdf:about="">
        <dc:format>image/svg+xml</dc:format>
        <dc:type
           rdf:resource="http://purl.org/dc/dcmitype/StillImage" />
        <dc:title></dc:title>
      </cc:Work>
    </rdf:RDF>
  </metadata>
  <g
     inkscape:label="Layer 1"
     inkscape:groupmode="layer"
     id="layer1"
     transform="translate(-62.857603,-196.92829)">
    <path
       d="m 97.773444,237.3517 c 0.224952,0 0.657095,-0.17694 0.657095,-0.17694 0.497045,-0.94429 -1.776556,-2.24246 -1.776556,-2.24246 0,0 -0.48104,0.23465 -0.664208,0.3112 -0.621529,0.2223 1.756995,2.10822 1.783669,2.10822 m -9.141529,-0.11216 c 0,0 -0.24363,1.38354 0.57618,2.16779 2.946702,1.58094 6.369106,1.68584 8.877447,0.19029 0.156496,-0.51039 0.414353,-1.24483 0.450809,-1.78724 -2.751975,1.2653 -7.456559,0.42326 -9.904436,-0.57084 m -22.486152,0.51839 c 0.04446,0.74689 0.194731,1.49469 0.815366,2.02553 2.577694,1.15324 5.951195,0.72554 8.387514,-0.26319 0.900727,-0.34679 0.728228,-0.95675 0.708667,-2.3483 -2.910244,1.33641 -6.874154,1.74898 -9.911547,0.58596 m 22.697773,-1.11413 c 0.05691,0.11998 0.519273,0.2801 0.882055,0.32278 0.361003,-0.0426 0.06135,-1.35776 0.112035,-1.63163 -0.04446,0.0101 -0.99409,0.18223 -0.99409,1.30885 m -14.025725,-1.45557 c 0,0 0,1.84592 -0.01966,1.84592 0.412574,-0.14669 1.102567,-0.30498 1.160364,-0.53172 0.07559,-0.30765 -0.665988,-1.10346 -1.140803,-1.3142 m -7.033316,-0.57527 c -0.597521,0.70777 -1.57916,1.22525 -1.673413,2.4283 -0.01966,0.31478 1.160363,0.32365 1.179924,0.31478 0.712224,-0.55753 1.379988,-0.80116 1.673414,-2.03531 -0.05958,-0.36723 -0.802028,-0.69356 -1.179925,-0.70777 m 7.282281,-0.23819 c 0.0098,0.32542 0.887389,0.86871 1.269732,1.57381 0.382341,0.70513 0.325434,1.34709 0.325434,1.3631 3.105862,1.45557 8.234579,1.86369 11.391124,0.26765 0.04,-1.36577 0.398345,-2.32874 1.463569,-2.78666 0.154706,-0.16535 -0.09782,-0.49792 -0.356557,-0.49792 -2.181125,0.86959 -4.251108,1.95526 -6.840364,1.90013 -2.816882,0.24272 -4.834404,-1.73744 -7.252938,-1.82011 m 21.247543,-1.84413 c -0.978972,0.14947 -0.825148,1.67874 -0.710443,2.25847 1.156804,-0.72557 2.717293,-1.07233 3.960351,-0.81003 0.0649,0.008 0.07647,-0.96829 0.07647,-1.42979 0,0 -1.828128,-0.55216 -3.326376,-0.0176 M 64.90794,232.42228 c -0.01411,0.51307 -0.06757,1.15859 0.02319,1.51425 1.395103,-0.15476 3.358386,0.0577 4.10084,0.69001 l -0.122697,-1.53739 c -0.777132,-1.29996 -2.663055,-0.86072 -4.001253,-0.66687 m 14.3974,-4.50008 v 0.66866 c 0.683769,1.86991 2.913799,1.28839 4.461839,1.76322 0.423246,0.15829 0.858048,0.72199 1.18793,1.02964 0.09248,-3.68914 -3.928343,-1.97217 -5.649769,-3.46152 m 0.503268,-0.79846 -0.22586,0.23919 0.22586,0.17694 z m -4.223547,-4.34003 c -0.206276,0.41613 0.358336,0.93628 0.522832,1.40756 0.669542,2.57857 -2.800877,3.00627 -4.143521,4.35069 -0.519274,0.55839 -0.826925,1.23861 -0.728229,2.00773 0.208948,0.52638 0.784246,0.9932 1.344422,1.04656 0.726451,-0.11645 1.508027,-0.27388 2.021967,-0.88918 0.156496,-0.31208 0,-0.77802 -0.305875,-0.87493 -0.61797,0.47125 -1.19415,0.98964 -2.02908,0.87493 -0.247183,-0.0373 -0.561063,-0.24625 -0.513937,-0.56105 0.886499,-1.66185 2.956481,-1.86727 4.243995,-3.26503 0.624196,-0.7878 0.881165,-1.72055 0.677546,-2.7511 -0.25697,-0.4588 -0.305874,-1.44221 -1.09012,-1.34618 m -3.207226,-0.56106 c -0.51305,0.56106 -0.829594,1.34263 -0.624195,2.16779 0.210737,0.30321 0.266749,0.89005 0.670431,0.93005 1.814792,-0.31831 0.06223,-1.70364 0.313877,-2.69507 0.05603,-0.35032 0.364559,-0.78334 0.77891,-0.86603 -0.467702,0.0499 -0.876719,0.15375 -1.139023,0.46326 m 19.218463,-0.61799 c -2.079762,0.46414 -4.199537,1.70099 -6.377106,0.92652 -0.153825,0.36456 0.05512,0.72734 0.317431,0.93008 2.277158,0.92918 4.492073,-0.36012 6.674978,-0.83584 0.258749,0.0623 0.410797,0.31567 0.410797,0.57442 -0.567288,1.04209 -1.807677,1.29817 -2.836444,1.65207 -0.06047,0.22231 0.143163,0.26674 0.242747,0.42858 0.835817,0.61442 1.608504,-0.36012 2.339399,-0.78248 0.666877,-0.61442 1.3462,-1.29817 1.135469,-2.18823 -0.364564,-0.70512 -1.191492,-0.66154 -1.907271,-0.70512 m -6.530933,-0.22584 c -0.208065,0.43035 0.312987,0.46326 0.566398,0.57885 1.0919,0.31743 2.597259,0.26498 3.422407,-0.42681 -1.088341,-0.71045 -2.896018,-0.8029 -3.988805,-0.15199 M 73.71878,219.10616 c 0.207183,0.16459 0.369892,0.41968 0.624196,0.31655 0.107599,-0.15199 0.312987,-0.20542 0.259636,-0.35922 -0.101373,-0.53084 -0.775353,-0.46238 -0.883832,0.0426 m 5.749356,-0.97008 c -0.162722,0.55216 -0.04623,1.23594 0.107599,1.75254 0.990532,2.1109 3.210783,2.48879 4.971334,3.31127 0.107599,-0.0988 0.107599,-0.25875 0.155614,-0.41613 -0.621526,-2.5857 -3.733612,-3.05073 -5.234527,-4.64768 m 10.819387,-0.15299 c -0.258747,0.0819 -0.717556,0.0401 -0.616193,0.46415 0.884722,0.30765 1.860138,0.50417 2.696845,0.92473 0.358336,0.15375 1.079451,0.46503 1.079451,-0.26586 -0.925624,-0.65887 -2.011298,-1.0412 -3.160103,-1.12302 m -17.90961,0.15298 c -0.206275,0.19736 -0.110245,0.61886 0,0.81538 -0.470371,0.93716 0.312988,1.66006 0.929181,2.1171 0.931847,0.22407 1.867251,0.22407 2.539461,-0.40636 -0.161839,-0.40456 -0.354777,-0.8687 -0.77891,-1.13635 -0.828704,1.04032 -1.760551,-0.2552 -2.487002,-0.57439 0.110245,-0.0418 0.157378,-0.26322 0.317433,-0.15199 0.248973,-0.11115 0.78069,-0.26674 0.720226,-0.66331 -0.415241,-0.41792 -0.824258,-0.41792 -1.240389,0 m 13.042307,-0.41792 c -0.311208,0.26498 -0.87316,0.41792 -0.717556,0.92653 0.615303,-0.15375 1.29107,-0.42415 1.654739,-0.92653 -0.264972,-0.11745 -0.663318,-0.0436 -0.937183,0 m 0.881166,-0.67397 c 1.095453,0.15551 1.754328,1.1399 1.967727,2.11976 0.261413,-0.15828 0.631308,-0.10056 0.836706,-0.40902 0.102256,-0.61885 -0.161839,-1.08032 -0.525498,-1.5018 -0.566399,-0.46414 -1.708978,-0.78069 -2.278935,-0.20894 m -6.257071,-0.46594 c -0.264972,0.15198 -0.367226,0.40459 -0.312988,0.714 0.112918,0.22508 0.25786,0.69089 0.462369,0.53795 0.101373,-0.47126 0.101373,-0.94697 -0.149389,-1.25195 m 12.844021,0 c -1.560488,0.714 -2.697732,-1.13812 -4.044822,-0.31299 1.243058,0.56375 2.430985,1.71788 3.986138,1.14258 0.365449,-0.20794 0.937183,-0.47037 0.884722,-1.04121 h -0.266749 z m -19.581242,-0.56907 c -0.666877,0.31032 -1.807679,0.72113 -1.807679,1.54805 0.365449,0.62686 0.878499,-0.0401 1.238612,-0.26498 0.827814,-0.77179 1.763218,-0.0925 2.640827,0.11569 0.112917,-0.36365 -0.204511,-0.73268 -0.409018,-1.04121 -0.417907,-0.46235 -1.043882,-0.35745 -1.662742,-0.35745 m 13.604262,-2.95115 c 0.118261,0.22583 0.118261,0.76559 0.55306,0.65888 0.65176,-0.53971 0.65176,-1.51335 0.549506,-2.28249 -0.549506,0.32544 -1.040325,1.03054 -1.102566,1.62361 m 3.722053,-2.70218 -0.112917,0.58065 c -0.05424,1.0003 0.96119,0.86427 1.325749,1.07589 v -1.07589 c -0.320997,-0.50417 -0.742464,-0.43126 -1.212832,-0.58065 m -3.291697,-2.47188 -0.0898,-0.68821 -0.22228,0.68821 z m 4.572988,-2.19712 -0.318324,0.47481 c 0.200958,0.0613 0.253414,0.0781 0.44903,-0.0101 z m 1.280401,-1.50893 c -0.364559,0.30588 -0.883832,0.91763 -0.90873,1.17638 0.02495,0.41434 0.343218,1.67786 0.13603,2.45855 0.369018,0.15375 0.844722,-0.0774 1.160376,-0.16459 0.379675,-1.12212 0.519274,-2.67816 -0.387676,-3.47042 m -20.152089,-0.14139 c 0.257857,0.56463 1.100789,0.62865 1.727651,0.78424 l -0.230295,-0.39834 c -0.431246,-0.61708 -0.842041,-0.7727 -1.497356,-0.3859 m 16.550961,0.063 c -0.309431,0.5015 -0.315654,1.1728 -0.01512,1.69832 0.475704,-0.37079 1.186148,-1.07234 1.491133,-1.49648 -0.255186,-0.46148 -1.013647,-0.83138 -1.476013,-0.20189 m 0.139609,-1.29374 c -5.39102,2.38651 0.559286,7.22804 -1.679636,11.24084 0.499711,0.0933 1.099899,-0.16181 1.371095,-0.60907 1.091897,-2.54301 0.130712,-5.34212 -0.462369,-7.78288 -0.216055,-0.85093 -0.132476,-1.37287 0.521053,-2.00597 0.662431,-0.5664 1.574717,-0.0746 1.889481,0.35211 0.158261,-0.11821 0.721116,-0.60551 0.721116,-0.82603 -0.600188,-0.44814 -1.538261,-0.52728 -2.36074,-0.369 M 71.4452,203.01647 c 0.462365,1.64229 2.0931,0.056 2.739524,0.57172 3.056957,2.60171 -0.942517,5.64443 0.198285,8.92102 0.260527,0.66778 0.684659,1.21726 1.355983,1.53472 0.733561,0.24196 1.740987,0.0176 2.35718,-0.38591 0.10581,-0.37079 -0.285421,-0.68378 -0.550393,-1.05812 -0.252524,0.21878 -0.513048,0.56017 -0.712223,0.76113 -0.263193,0.52905 -0.932737,0.42236 -1.042993,-0.10233 -0.411684,-3.23301 2.254928,-7.29473 -0.703331,-10.03514 -1.060777,-0.80557 -2.558135,-0.78869 -3.64203,-0.20719 m 14.159991,31.91665 c 0.02667,0.0252 0.659762,0 2.846223,-1.11589 2.284271,-1.17994 1.97573,3.3397 1.97573,3.3397 2.41498,1.0341 6.295306,0.70957 6.608293,0.46682 0.302316,-0.25787 -1.271508,-1.13192 -1.778336,-2.07889 -0.441914,-0.83846 -0.370782,-2.59992 0,-2.9947 1.371985,-1.45913 4.867297,-0.44371 4.867297,-0.44371 0.11292,0.33702 -0.0996,2.42921 -0.0996,2.42921 -0.220513,-0.11997 -2.608814,-0.25252 -2.828438,0.21424 0,0 1.147025,0.4206 1.622729,1.48136 0.695329,1.55783 -0.493489,3.88032 -0.493489,3.88032 -4.664571,2.62661 -9.466075,-0.24196 -9.655466,-0.39921 -0.234732,-0.22861 -0.577071,-1.46092 -0.577071,-1.46092 -5.639987,2.31183 -11.44803,-0.26942 -11.44803,-0.26942 0.05956,1.1008 -0.468589,1.741 -0.468589,1.741 -5.924525,2.80443 -9.817299,0.34054 -9.817299,0.34054 -2.234477,-3.57179 0.89895,-5.58842 0.89895,-5.58842 -0.45081,-0.20542 -2.864898,-0.10233 -2.864898,-0.10233 V 232.06 c 5.315442,-1.20839 5.047802,0.87494 5.101153,2.68973 0.05868,1.80589 -1.812123,2.84889 -1.812123,2.84889 4.106174,0.80648 6.543382,-0.39123 6.543382,-0.39123 0,0 -0.02757,-0.49436 0.03289,-2.57769 0.05336,-2.07977 4.38804,0.16005 4.38804,0.16005 0.935406,-0.64642 0.986978,-4.70726 0.986978,-4.70726 -2.185574,-2.40519 0.107599,-3.67226 0.107599,-3.67226 0.110246,-3.29348 -2.738637,-3.45708 -2.738637,-3.45708 0.607301,3.07117 -0.165393,3.45708 -0.60819,4.22888 -0.435692,0.76113 -4.332023,2.57413 -4.10084,3.06139 0.208947,0.50684 2.19002,-1.08567 2.19002,-1.08567 0.652649,0.64643 0.598409,1.81036 0.598409,1.81036 -0.770018,1.42621 -4.444058,1.64141 -4.224434,-0.93631 0.240957,-2.83021 2.359849,-2.41496 4.170195,-3.88475 1.809457,-1.48136 -0.491706,-3.1939 -0.491706,-3.1939 -0.434805,0.0613 -1.153251,0.50059 -1.153251,0.50059 0.05779,0.54153 0.76913,1.46891 0.76913,1.46891 -0.324549,0.38236 -2.031752,1.10167 -2.031752,1.10167 -0.274752,-0.10308 -0.71311,-0.93716 -0.71311,-0.93716 l -0.490822,0.55128 c 1.104346,4.11772 -2.686173,4.16574 -2.686173,4.16574 l 0.109363,-0.97185 c -0.657095,0.32542 -2.301165,0.16812 -2.301165,0.16812 -0.110271,-1.60673 1.371095,-2.85333 1.371095,-2.85333 -0.163604,-0.0668 -0.433915,-0.50861 -0.433915,-0.50861 1.636068,-1.47334 3.236569,-0.55127 3.236569,-0.55127 l 0.319211,-0.6402 c -0.935404,-1.75967 0.659764,-0.94254 0.659764,-0.94254 0.112035,-1.48312 1.150582,-1.90459 1.150582,-1.90459 -0.04802,-0.29165 -0.658872,-0.54952 -0.658872,-0.54952 -2.577697,2.12958 -3.943459,-1.21638 -3.943459,-1.21638 -0.546837,0.0542 -1.379988,-0.38233 -1.379988,-0.38233 0.170712,-0.33167 0.773577,-0.87138 0.773577,-0.87138 -0.221399,-0.12627 -0.602855,-1.4778 -0.602855,-1.4778 0.277418,-0.16711 1.641401,-0.21953 1.641401,-0.21953 0,-0.33432 0.440138,-0.94606 0.440138,-0.94606 0.335218,0.23289 1.159474,1.33285 1.159474,1.33285 0.323659,-0.0613 0.918511,0.20995 0.918511,0.20995 0,-0.2712 0.383231,-0.75846 0.383231,-0.75846 0.0649,-0.1724 -0.860715,-0.6651 -0.860715,-0.6651 l 0.215173,-0.28187 c 0.210737,0 1.255507,0.33611 1.255507,0.33611 2.800877,-1.74898 3.888328,0.16181 3.888328,0.16181 0.333439,2.47899 0.990532,1.80766 0.990532,1.80766 0.113824,-0.22306 -0.106692,-1.35863 -0.106692,-1.35863 h 0.77002 c 0.105809,0.64642 1.365759,2.02996 1.365759,2.02996 -0.05603,-2.64083 1.532925,-3.4135 1.532925,-3.4135 -0.160932,-4.11153 -3.562005,-5.3119 -3.562005,-5.3119 -0.222281,0.81981 -0.558396,3.07208 -0.275642,3.17968 0.275642,0.10762 1.162143,-1.25641 1.162143,-1.25641 1.033214,0.64554 1.247502,1.96063 1.247502,1.96063 -3.559336,2.20067 -4.707254,-1.20839 -4.707254,-1.20839 -0.227624,0.0633 -2.246035,0.39657 -2.246035,0.39657 -0.335216,-0.39657 0.377895,-2.29938 0.377895,-2.29938 -1.32397,-0.0595 -2.079762,1.15057 -2.079762,1.15057 0.553952,2.95382 -3.564672,3.55846 -3.564672,3.55846 0.162722,-0.22054 -0.500602,-0.83226 -0.500602,-0.83226 -0.429466,0.17164 -2.404308,0.33343 -2.404308,0.33343 -0.05779,-1.41822 1.262619,-2.35185 1.262619,-2.35185 -0.168947,-0.16081 -0.498825,-1.2555 -0.498825,-1.2555 2.857785,-1.43156 4.661016,-0.34677 4.661016,-0.34677 1.760551,-1.69121 5.156283,-2.29585 5.156283,-2.29585 0.04623,-0.3939 0.270306,-0.81358 0.270306,-0.81358 0.162722,-0.76114 -2.850672,-0.76114 -2.850672,-0.76114 0.111153,-0.23037 -0.380561,-1.43866 -0.380561,-1.43866 -0.219634,0 -0.659765,0.27831 -0.659765,0.27831 -1.090118,1.58094 -1.267062,0.21601 -1.267062,0.21601 -0.268529,-0.0497 -1.034101,0.55574 -1.034101,0.55574 -0.601077,1.47957 -3.338825,1.47957 -3.338825,1.47957 0.272086,-0.32988 0,-0.77092 0,-0.77092 -0.609967,-0.063 -2.033526,-1.20836 -2.033526,-1.20836 0.439251,-0.38057 1.975732,-1.16393 1.975732,-1.16393 -0.440138,-0.38233 -0.323657,-2.02019 -0.323657,-2.02019 0.264083,0.28809 1.917933,0.6153 1.917933,0.6153 1.523143,0.0479 1.972173,1.69653 1.972173,1.69653 0.546839,0.10485 2.356293,-0.9265 2.356293,-0.9265 -0.389453,-1.64673 -2.199799,-1.93305 -2.199799,-1.93305 -3.826976,1.77033 -4.43161,-1.63786 -4.43161,-1.63786 -0.280087,-0.12451 -1.16392,-0.50414 -1.16392,-0.50414 0.229414,-0.32189 1.26084,-0.80736 1.26084,-0.80736 -0.270308,-0.16887 -0.377007,-1.49114 -0.377007,-1.49114 0.377007,-0.0988 1.861027,0.11821 1.861027,0.11821 -0.0987,-0.33434 0.385897,-1.10167 0.385897,-1.10167 l 0.769131,1.64672 c 0,0 2.310058,-0.66331 1.96595,2.52436 0,0 0.278308,0.329 0.944293,0.5975 0,0 0.382344,-1.19679 0.10402,-1.69829 -0.279198,-0.49081 -0.928288,-1.69565 -1.091897,-1.75166 0,0 0.987865,0.26496 1.198599,0.43925 0,0 0.656205,-0.65621 0.656205,-0.93452 0,0 1.540038,1.65119 1.424447,2.57857 -0.102256,0.93275 -1.266176,1.69477 -1.531148,1.80325 l 0.38501,0.33966 c 0,0 3.950571,-1.65207 5.538624,1.58271 0,0 0.220517,-1.37732 0.106692,-1.70364 0,0 -2.147339,-0.24625 -0.922065,-2.90845 0.537055,-1.19683 -0.120051,-1.6921 -0.120051,-1.6921 0,0 1.75077,0.27831 2.090432,1.59516 0,0 0.924734,-0.7718 0.701554,-1.59516 0,0 1.656519,0.71133 1.210155,3.12987 -0.268526,1.47068 -1.531145,1.69386 -1.531145,1.69386 0,0 -0.881166,2.7911 0.600188,5.10114 0,0 1.371985,-1.20481 1.532925,-1.69829 0,0 -1.088341,-1.64497 -0.272086,-2.85157 0.819812,-1.2066 1.537371,-0.87672 1.865474,-1.15324 0,0 1.040326,-1.25908 1.095454,-1.6005 0,0 0.3859,1.10523 0.216055,1.38354 0,0 1.427113,-0.38324 1.699198,-0.38324 0,0 -0.109363,1.37111 -0.272085,1.5267 0,0 0.765574,0.71224 1.362205,0.50417 0,0 -0.753125,0.92917 -1.199486,1.03677 0,0 -0.657095,3.07385 -3.842093,2.35897 0,0 -1.194153,1.26348 -1.313301,1.64851 0,0 1.313301,1.75609 1.313301,2.18556 0,0 1.701867,-0.55128 2.147339,-0.21777 0,0 2.89424,-1.15592 3.009832,-6.29353 l 0.770018,-0.16988 c 0,0 -0.332547,-1.6005 0,-2.57948 0,0 -2.902241,-3.12629 -0.989642,-4.10794 0,0 0.48993,0.93005 1.092787,1.1977 0,0 0.994088,-0.26765 1.207489,-0.93005 0,0 1.208378,1.64584 0.771797,3.05696 0,0 -1.312411,1.88324 -1.041216,2.84977 0,0 1.26084,-1.51959 3.563782,-1.1328 0,0 -0.276531,-1.87259 0.885612,-3.34505 0,0 0.158261,0.99052 0.752236,1.47246 0.616193,0.49528 0.500601,1.26261 0.331659,1.4858 l 0.717559,-0.27209 c 0,0 -0.884722,-2.58124 1.261727,-3.185 0,0 0.492599,-1.37464 0.818035,-1.74631 l 0.822478,0.93273 c 0,0 0.931848,-0.88028 1.372875,-0.88028 0,0 0.49082,1.42621 0.377898,1.69386 0,0 0.99231,0.11216 1.270619,-0.0507 0,0 -1.042993,1.75077 -1.270619,1.86727 0,0 0.6073,2.94848 -3.734504,2.19357 l -1.351534,1.1977 c 0,0 0.433025,0.66243 0.433025,0.86695 0,0 2.516343,-0.86695 2.957368,-1.30974 0,0 0,1.53381 -0.224952,1.98371 0,0 1.542704,0.43304 2.033524,0.26321 0,0 -0.604632,1.81744 -2.033524,2.03975 0,0 0.503268,0.76912 -0.598411,0.6064 0,0 -0.986975,0.32723 -1.215491,0.64466 0,0 -0.642868,-0.93096 -0.986086,-0.98699 0,0 -1.468017,0.54863 -2.021967,0.28454 0,0 0.28809,-0.88116 0.05779,-1.09102 l -0.212501,-0.23037 0.212501,0.23037 c 0,0 -2.029967,0.089 -1.917932,0.97631 0,0 0.274752,1.58807 0.274752,1.80947 0,0 1.529368,0.27385 1.801453,0.48993 l 0.07204,2.08333 -1.71076,-0.55395 c 0,0 -0.549504,2.85776 -2.411421,2.52788 -1.868153,-0.31655 -2.254053,-1.20393 -0.712236,-3.77806 0,0 -3.122757,0.31566 -3.080075,4.59878 0,0 0.176055,0.38233 0.785133,0.16988 0,0 -0.116472,1.0901 -0.279198,1.47513 0,0 1.690308,-1.1506 3.015168,-0.65444 0,0 0.925621,-1.31952 2.626596,-0.71133 0,0 0.881166,0 0.70778,-2.20247 l 0.828702,-0.0534 0.05779,1.22084 c 0,0 1.369319,-0.67221 1.540928,-0.99143 0,0 -0.720226,-1.98018 1.252837,-2.69595 0,0 0.665095,-1.02878 0.989641,-1.14613 0,0 0.431249,1.47778 0.377008,1.81121 0,0 1.647627,-0.27919 2.035303,-0.15828 0,0 -0.224952,1.29996 -0.494376,1.64408 0,0 0.819813,0.36899 1.096344,0.76466 0,0 -2.965374,1.64141 -4.38893,1.03677 0,0 -1.864584,0.54951 -2.198023,0.9852 0,0 0.829594,0.49616 2.139339,-0.32453 v 0.82069 h 0.616193 c 0,0 3.168992,-2.19712 4.430719,0.65444 0,0 0.818932,0.385 1.316862,0.15904 0,0 -0.2214,0.99677 -0.66065,1.09636 0,0 0.66065,1.0501 0.66065,1.59604 0,0 -0.930962,0.27387 -1.479579,0.0542 0,0 0,1.16214 -0.113824,1.48491 0,0 -1.093675,-0.82515 -1.26084,-1.26528 0,0 -2.967151,0.44013 -3.065847,-2.51279 l -0.713098,-0.22759 c 0,0 -0.882942,0.65797 -1.25995,0.77091 0,0 0.980752,0.54417 1.200376,0.81267 0,0 -0.48015,1.26798 -0.86605,1.31688 0,0 -3.408178,-1.74455 -4.335579,-0.55128 0,0 1.697421,0.99854 2.080651,1.42709 0,0 3.561116,-0.81267 2.901354,2.19448 l 0.219634,0.33255 c 0,0 1.762329,0.16812 2.366073,3.29436 0,0 -2.137557,0.55395 -2.691509,-2.51813 0,0 -0.220516,0.096 -0.38412,0.26498 0,0 0.229413,0.54951 0.113824,0.75934 0,0 2.466549,2.42833 -0.824258,5.05139 0,0 -1.217271,-1.36489 -1.217271,-1.98107 0,0 -1.471571,-0.47216 -2.182905,0.33076 0,0 -0.163604,-2.72529 3.184108,-3.01517 l 0.05336,-0.59574 c 0,0 -1.151471,0.71221 -1.644958,0.81893 0,0 -1.105235,0 -2.02908,-1.31508 0,0 3.288141,-1.09457 2.965374,-1.47158 -0.345888,-0.38679 -3.891885,1.85746 -6.472251,0.54505 0,0 -0.280975,0.48905 -0.66065,0.54152 0,0 -1.151473,2.08066 -0.381453,4.11417 0,0 2.547464,1.78011 0.626862,3.66871 0,0 0.302318,2.543 0.741566,2.76975"
       style="fill:#b2b1b1;fill-opacity:1;fill-rule:nonzero;stroke:none;stroke-width:0.88916737"
       id="path4593"
       inkscape:connector-curvature="0" />
    <path
       d="m 160.0694,234.61217 c -0.16106,0 -0.30498,-0.0151 -0.44192,-0.0489 -0.12804,-0.0151 -0.28007,-0.031 -0.44012,-0.031 -0.31922,0 -1.07413,0.32101 -2.27718,0.96297 -1.20304,0.64288 -2.7244,1.36131 -4.56319,2.15624 -1.84414,0.79579 -3.93724,1.50269 -6.28642,2.07977 -2.34829,0.59395 -4.80239,0.88293 -7.36053,0.88293 -3.36461,0 -6.59139,-0.42236 -9.68659,-1.28396 -3.09519,-0.85003 -5.83294,-2.16511 -8.21235,-3.96213 -2.38119,-1.78188 -4.27245,-4.01192 -5.66577,-6.68564 -1.38977,-2.66749 -2.08599,-5.79381 -2.08599,-9.3656 0,-3.52111 0.69622,-6.63319 2.08599,-9.32914 1.39332,-2.69506 3.28458,-4.958 5.66577,-6.77102 2.37941,-1.81301 5.11716,-3.17611 8.21235,-4.07506 3.0952,-0.91317 6.32198,-1.3631 9.68659,-1.3631 2.71908,0 5.1883,0.20996 7.40054,0.64555 2.21314,0.4188 4.1533,0.8865 5.80627,1.36665 1.65118,0.4766 2.95826,0.93807 3.92033,1.35687 0.96119,0.43569 1.54806,0.64464 1.76499,0.64464 0.2641,0 0.48729,-0.12804 0.68023,-0.4028 0.185,-0.25784 0.32988,-0.4837 0.43748,-0.64463 l 1.19859,0.96652 -6.23752,9.70171 -0.80291,-0.56106 c 0,-0.15904 -0.0161,-0.3201 -0.04,-0.48105 -0.0302,-0.16106 -0.0702,-0.34143 -0.11914,-0.56106 -0.11113,-0.57618 -0.64287,-1.18616 -1.60406,-1.79523 -0.96208,-0.60908 -2.14822,-1.15947 -3.56022,-1.63695 -1.41467,-0.47927 -2.91114,-0.8794 -4.4823,-1.20126 -1.5756,-0.32101 -3.03116,-0.48194 -4.36225,-0.48194 -2.24426,0 -4.39427,0.32098 -6.44735,0.96209 -2.05309,0.64108 -3.84121,1.57026 -5.36346,2.78752 -1.51603,1.23506 -2.73508,2.74041 -3.64025,4.52231 -0.90695,1.79168 -1.3631,3.82699 -1.3631,6.11659 0,2.29761 0.45615,4.34179 1.3631,6.12102 0.90517,1.79523 2.12422,3.30059 3.64025,4.51876 1.52225,1.23506 3.31037,2.16423 5.36346,2.80443 2.05308,0.64108 4.20309,0.96118 6.44735,0.96118 1.70809,0 3.49532,-0.20189 5.36435,-0.59929 1.86636,-0.39657 3.57356,-0.90694 5.12071,-1.51692 1.54893,-0.62508 2.84267,-1.31509 3.88388,-2.08509 1.03677,-0.76824 1.55605,-1.50626 1.55605,-2.19715 0,-0.385 -0.10402,-0.7051 -0.31833,-0.96207 l 1.11947,-0.64108 5.28522,8.48266 z"
       style="fill:#b01220;fill-opacity:1;fill-rule:nonzero;stroke:none;stroke-width:0.88916737"
       id="path4595"
       inkscape:connector-curvature="0" />
    <path
       d="m 173.32155,227.17697 0.80204,0.40013 c 0,0.48191 0.10586,0.91493 0.32186,1.28216 0.37613,0.64376 1.10614,1.26886 2.20247,1.88683 1.09547,0.61706 2.34651,1.16214 3.76831,1.64229 1.412,0.4828 2.89512,0.86692 4.44493,1.15501 1.54538,0.29878 2.93694,0.44905 4.16222,0.44905 0.90961,0 2.08153,-0.0711 3.52553,-0.20971 1.44489,-0.12804 2.85689,-0.41525 4.24222,-0.83317 1.39067,-0.43478 2.59548,-1.01363 3.60647,-1.76677 1.01098,-0.75312 1.52491,-1.73386 1.52491,-2.9698 0,-1.21817 -0.46591,-2.13313 -1.40222,-2.71196 -0.93986,-0.59397 -2.158,-1.02523 -3.68291,-1.28398 -1.52315,-0.27385 -3.25525,-0.4499 -5.20698,-0.53081 -1.9455,-0.0802 -3.93456,-0.1913 -5.96097,-0.35211 -2.03264,-0.16106 -4.02172,-0.43304 -5.96276,-0.80204 -1.94818,-0.3699 -3.68826,-0.99498 -5.20342,-1.87881 -1.52403,-0.88295 -2.75107,-2.08688 -3.68738,-3.61182 -0.93184,-1.52491 -1.39687,-3.51664 -1.39687,-5.97254 0,-1.65207 0.38412,-3.27389 1.15858,-4.87886 0.7718,-1.60405 1.95796,-3.01784 3.56113,-4.25378 1.59871,-1.21993 3.62157,-2.22469 6.081,-3.00271 2.44967,-0.77001 5.32879,-1.15504 8.63381,-1.15504 2.83201,0 5.28344,0.20996 7.36677,0.64555 2.0771,0.4188 3.87855,0.8865 5.40168,1.36665 1.51871,0.4766 2.78933,0.93807 3.82966,1.35687 1.04209,0.43569 1.90724,0.64464 2.61058,0.64464 0.73802,0 1.27062,-0.16106 1.58805,-0.48371 l 0.96209,0.64555 -5.51283,10.02002 -0.80116,-0.31922 c -0.11191,-0.75223 -0.3201,-1.36219 -0.63929,-1.84501 -0.43393,-0.64108 -1.13815,-1.26619 -2.11622,-1.87614 -0.9941,-0.60907 -2.14734,-1.15771 -3.4811,-1.63607 -1.34087,-0.48015 -2.78041,-0.87138 -4.32136,-1.16925 -1.5516,-0.28988 -3.09431,-0.43392 -4.64322,-0.43392 -1.17459,0 -2.38653,0.095 -3.63936,0.27297 -1.25106,0.19307 -2.3821,0.46505 -3.39841,0.84917 -1.0101,0.36988 -1.85123,0.86692 -2.51545,1.47423 -0.6731,0.60998 -1.00121,1.37822 -1.00121,2.27538 0,1.28307 0.46414,2.24514 1.40221,2.88625 0.93008,0.64196 2.15803,1.12299 3.67939,1.44221 1.51781,0.32189 3.25436,0.52905 5.20607,0.64199 1.94371,0.0968 3.93012,0.23919 5.96631,0.40013 2.02286,0.16105 4.01104,0.43301 5.96365,0.83314 1.94462,0.40191 3.67672,1.04211 5.20075,1.92327 1.52403,0.88116 2.74217,2.0682 3.68826,3.55843 0.93096,1.49114 1.39689,3.44643 1.39689,5.84362 0,2.77689 -0.73981,5.0407 -2.19893,6.80302 -1.47602,1.76234 -3.30591,3.14144 -5.48793,4.15152 -2.19803,1.02523 -4.55697,1.69832 -7.09201,2.05131 -2.5359,0.33611 -4.89487,0.51305 -7.08844,0.51305 -3.04095,0 -5.5893,-0.17694 -7.64684,-0.51216 -2.0593,-0.35121 -3.76828,-0.78246 -5.12337,-1.2795 -1.3631,-0.51128 -2.447,-0.95942 -3.24901,-1.35954 -0.79758,-0.39836 -1.49203,-0.60464 -2.0771,-0.60464 -0.3779,0 -0.7229,0.2213 -1.04388,0.63577 l -1.12303,-0.63577 z"
       style="fill:#b01220;fill-opacity:1;fill-rule:nonzero;stroke:none;stroke-width:0.88916737"
       id="path4597"
       inkscape:connector-curvature="0" />
    <path
       d="m 221.35794,238.9611 c 1.38621,0 2.08509,-0.48103 2.08509,-1.4458 v -36.36072 c 0,-0.96297 -0.69888,-1.44312 -2.08509,-1.44312 v -1.43067 H 234.651 v 1.43067 c -1.39511,0 -2.08423,0.48015 -2.08423,1.44312 v 36.36072 c 0,0.96477 0.68912,1.4458 2.08423,1.4458 v 1.444 h -13.29306 z"
       style="fill:#b01220;fill-opacity:1;fill-rule:nonzero;stroke:none;stroke-width:0.88916737"
       id="path4599"
       inkscape:connector-curvature="0" />
    <path
       d="m 290.2933,234.61217 c -0.15829,0 -0.31388,-0.0151 -0.44192,-0.0489 -0.12905,-0.0151 -0.27475,-0.031 -0.43302,-0.031 -0.32189,0 -1.09013,0.32101 -2.29315,0.96297 -1.19949,0.64288 -2.71019,1.36131 -4.55432,2.15624 -1.84413,0.79579 -3.94613,1.50269 -6.28642,2.07977 -2.34207,0.59395 -4.80417,0.88293 -7.36051,0.88293 -3.36819,0 -6.5923,-0.42236 -9.6875,-1.28396 -3.09431,-0.85003 -5.84092,-2.16511 -8.22035,-3.96213 -2.38119,-1.78188 -4.26444,-4.01192 -5.64977,-6.68564 -1.40133,-2.66749 -2.09398,-5.79381 -2.09398,-9.3656 0,-3.52111 0.69265,-6.63319 2.09398,-9.32914 1.38533,-2.69506 3.26858,-4.958 5.64977,-6.77102 2.37943,-1.81301 5.12604,-3.17611 8.22035,-4.07506 3.0952,-0.91317 6.31931,-1.3631 9.6875,-1.3631 2.71462,0 5.18028,0.20996 7.39963,0.64555 2.22114,0.4188 4.14618,0.8865 5.79828,1.36665 1.66273,0.4766 2.96715,0.93807 3.92833,1.35687 0.96207,0.43569 1.54448,0.64464 1.76499,0.64464 0.25608,0 0.49172,-0.12804 0.67221,-0.4028 0.19307,-0.25784 0.3379,-0.4837 0.45081,-0.64463 l 1.19683,0.96652 -6.24907,9.70171 -0.80292,-0.56106 c 0,-0.15904 -0.0151,-0.3201 -0.0312,-0.48105 -0.032,-0.16106 -0.0633,-0.34143 -0.12804,-0.56106 -0.096,-0.57618 -0.64199,-1.18616 -1.60139,-1.79523 -0.95319,-0.60908 -2.14111,-1.15947 -3.56289,-1.63695 -1.41111,-0.47927 -2.90313,-0.8794 -4.47341,-1.20126 -1.57293,-0.32101 -3.03115,-0.48194 -4.36224,-0.48194 -2.24516,0 -4.39427,0.32098 -6.44825,0.96209 -2.0522,0.64108 -3.8492,1.57026 -5.36078,2.78752 -1.51871,1.23506 -2.73685,2.74041 -3.65093,4.52231 -0.89804,1.79168 -1.35153,3.82699 -1.35153,6.11659 0,2.29761 0.45349,4.34179 1.35153,6.12102 0.91408,1.79523 2.13222,3.30059 3.65093,4.51876 1.51158,1.23506 3.30858,2.16423 5.36078,2.80443 2.05398,0.64108 4.20309,0.96118 6.44825,0.96118 1.6992,0 3.49441,-0.20189 5.35546,-0.59929 1.87614,-0.39657 3.57534,-0.90694 5.13138,-1.51692 1.54092,-0.62508 2.83999,-1.31509 3.8812,-2.08509 1.04212,-0.76824 1.55695,-1.50626 1.55695,-2.19715 0,-0.385 -0.11191,-0.7051 -0.32098,-0.96207 l 1.12211,-0.64108 5.2781,8.48266 z"
       style="fill:#b01220;fill-opacity:1;fill-rule:nonzero;stroke:none;stroke-width:0.88916737"
       id="path4601"
       inkscape:connector-curvature="0" />
  </g>
</svg>
