<?xml version="1.0" encoding="UTF-8"?>
<!DOCTYPE svg PUBLIC "-//W3C//DTD SVG 1.1//EN" "http://www.w3.org/Graphics/SVG/1.1/DTD/svg11.dtd">
<svg version="1.2" width="40.65mm" height="18.17mm" viewBox="12 158 4065 1817" preserveAspectRatio="xMidYMid" fill-rule="evenodd" stroke-width="28.222" stroke-linejoin="round" xmlns="http://www.w3.org/2000/svg" xmlns:ooo="http://xml.openoffice.org/svg/export" xmlns:xlink="http://www.w3.org/1999/xlink" xmlns:presentation="http://sun.com/xmlns/staroffice/presentation" xmlns:smil="http://www.w3.org/2001/SMIL20/" xmlns:anim="urn:oasis:names:tc:opendocument:xmlns:animation:1.0" xml:space="preserve">
 <defs class="EmbeddedBulletChars">
  <g id="bullet-char-template-57356" transform="scale(0.00048828125,-0.00048828125)">
   <path d="M 580,1141 L 1163,571 580,0 -4,571 580,1141 Z"/>
  </g>
  <g id="bullet-char-template-57354" transform="scale(0.00048828125,-0.00048828125)">
   <path d="M 8,1128 L 1137,1128 1137,0 8,0 8,1128 Z"/>
  </g>
  <g id="bullet-char-template-10146" transform="scale(0.00048828125,-0.00048828125)">
   <path d="M 174,0 L 602,739 174,1481 1456,739 174,0 Z M 1358,739 L 309,1346 659,739 1358,739 Z"/>
  </g>
  <g id="bullet-char-template-10132" transform="scale(0.00048828125,-0.00048828125)">
   <path d="M 2015,739 L 1276,0 717,0 1260,543 174,543 174,936 1260,936 717,1481 1274,1481 2015,739 Z"/>
  </g>
  <g id="bullet-char-template-10007" transform="scale(0.00048828125,-0.00048828125)">
   <path d="M 0,-2 C -7,14 -16,27 -25,37 L 356,567 C 262,823 215,952 215,954 215,979 228,992 255,992 264,992 276,990 289,987 310,991 331,999 354,1012 L 381,999 492,748 772,1049 836,1024 860,1049 C 881,1039 901,1025 922,1006 886,937 835,863 770,784 769,783 710,716 594,584 L 774,223 C 774,196 753,168 711,139 L 727,119 C 717,90 699,76 672,76 641,76 570,178 457,381 L 164,-76 C 142,-110 111,-127 72,-127 30,-127 9,-110 8,-76 1,-67 -2,-52 -2,-32 -2,-23 -1,-13 0,-2 Z"/>
  </g>
  <g id="bullet-char-template-10004" transform="scale(0.00048828125,-0.00048828125)">
   <path d="M 285,-33 C 182,-33 111,30 74,156 52,228 41,333 41,471 41,549 55,616 82,672 116,743 169,778 240,778 293,778 328,747 346,684 L 369,508 C 377,444 397,411 428,410 L 1163,1116 C 1174,1127 1196,1133 1229,1133 1271,1133 1292,1118 1292,1087 L 1292,965 C 1292,929 1282,901 1262,881 L 442,47 C 390,-6 338,-33 285,-33 Z"/>
  </g>
  <g id="bullet-char-template-9679" transform="scale(0.00048828125,-0.00048828125)">
   <path d="M 813,0 C 632,0 489,54 383,161 276,268 223,411 223,592 223,773 276,916 383,1023 489,1130 632,1184 813,1184 992,1184 1136,1130 1245,1023 1353,916 1407,772 1407,592 1407,412 1353,268 1245,161 1136,54 992,0 813,0 Z"/>
  </g>
  <g id="bullet-char-template-8226" transform="scale(0.00048828125,-0.00048828125)">
   <path d="M 346,457 C 273,457 209,483 155,535 101,586 74,649 74,723 74,796 101,859 155,911 209,963 273,989 346,989 419,989 480,963 531,910 582,859 608,796 608,723 608,648 583,586 532,535 482,483 420,457 346,457 Z"/>
  </g>
  <g id="bullet-char-template-8211" transform="scale(0.00048828125,-0.00048828125)">
   <path d="M -4,459 L 1135,459 1135,606 -4,606 -4,459 Z"/>
  </g>
  <g id="bullet-char-template-61548" transform="scale(0.00048828125,-0.00048828125)">
   <path d="M 173,740 C 173,903 231,1043 346,1159 462,1274 601,1332 765,1332 928,1332 1067,1274 1183,1159 1299,1043 1357,903 1357,740 1357,577 1299,437 1183,322 1067,206 928,148 765,148 601,148 462,206 346,322 231,437 173,577 173,740 Z"/>
  </g>
 </defs>
 <g class="Page">
  <g class="com.sun.star.drawing.ClosedBezierShape">
   <g id="id3">
    <rect class="BoundingBox" stroke="none" fill="none" x="12" y="158" width="898" height="1817"/>
    <path fill="rgb(135,105,0)" stroke="none" d="M 462,1628 C 414,1627 367,1613 326,1589 282,1564 246,1528 221,1484 195,1440 182,1391 182,1340 182,1289 195,1240 221,1196 246,1152 282,1116 326,1091 364,1069 405,1056 448,1053 374,1051 301,1032 237,995 169,956 112,899 73,831 34,763 13,686 13,607 13,528 34,451 73,383 112,315 169,258 237,219 305,180 382,159 461,159 540,159 617,180 685,219 753,258 810,315 849,383 888,451 909,528 909,607 909,686 888,763 849,831 810,899 753,956 685,995 617,1034 540,1053 462,1053 L 462,1628 Z M 462,1628 C 462,1628 462,1628 463,1628 493,1628 523,1636 549,1651 575,1666 597,1688 612,1714 627,1740 635,1770 635,1801 635,1831 627,1861 612,1887 597,1913 575,1935 549,1950 523,1965 493,1973 463,1973 462,1973 462,1973 462,1973 L 462,1628 Z M 561,612 C 561,592 556,573 546,556 536,539 522,525 505,515 488,505 469,500 450,500 430,500 411,505 394,515 377,525 363,539 353,556 343,573 338,592 338,612 338,631 343,650 353,667 363,684 377,698 394,708 411,718 430,723 450,723 469,723 488,718 505,708 522,698 536,684 546,667 556,650 561,631 561,612 Z"/>
   </g>
  </g>
  <g class="Group">
   <g class="com.sun.star.drawing.ClosedBezierShape">
    <g id="id4">
     <rect class="BoundingBox" stroke="none" fill="none" x="1097" y="224" width="253" height="310"/>
     <path fill="rgb(0,0,0)" stroke="none" d="M 1097,533 C 1097,526 1097,518 1097,511 1110,511 1124,511 1137,511 1137,423 1137,334 1137,246 1124,246 1110,246 1097,246 1097,239 1097,231 1097,224 1180,224 1263,224 1346,224 1346,247 1346,270 1346,293 1337,293 1329,293 1320,293 1320,278 1320,264 1320,249 1273,249 1226,249 1179,249 1179,284 1179,318 1179,353 1212,353 1246,353 1280,353 1280,340 1280,327 1280,314 1288,314 1296,314 1305,314 1305,349 1305,383 1305,417 1296,417 1288,417 1280,417 1280,404 1280,391 1280,378 1246,378 1212,378 1179,378 1179,421 1179,464 1179,508 1227,508 1275,508 1324,508 1324,493 1324,479 1324,464 1332,464 1340,464 1349,464 1349,487 1349,510 1349,533 1265,533 1181,533 1097,533 Z"/>
    </g>
   </g>
   <g class="com.sun.star.drawing.ClosedBezierShape">
    <g id="id5">
     <rect class="BoundingBox" stroke="none" fill="none" x="1385" y="224" width="299" height="310"/>
     <path fill="rgb(0,0,0)" stroke="none" d="M 1523,401 C 1498,438 1473,474 1448,511 1461,511 1474,511 1488,511 1488,518 1488,526 1488,533 1454,533 1419,533 1385,533 1385,526 1385,518 1385,511 1397,511 1409,511 1421,511 1451,468 1480,425 1510,381 1480,336 1450,291 1420,246 1409,246 1398,246 1387,246 1387,239 1387,231 1387,224 1427,224 1468,224 1509,224 1509,231 1509,239 1509,246 1497,246 1485,246 1473,246 1495,279 1517,313 1539,346 1561,313 1584,279 1607,246 1593,246 1580,246 1567,246 1567,239 1567,231 1567,224 1601,224 1634,224 1668,224 1668,231 1668,239 1668,246 1656,246 1645,246 1633,246 1606,286 1579,325 1552,365 1584,414 1617,462 1649,511 1660,511 1671,511 1682,511 1682,518 1682,526 1682,533 1641,533 1601,533 1560,533 1560,526 1560,518 1560,511 1572,511 1584,511 1597,511 1572,474 1548,438 1523,401 Z"/>
    </g>
   </g>
   <g class="com.sun.star.drawing.ClosedBezierShape">
    <g id="id6">
     <rect class="BoundingBox" stroke="none" fill="none" x="1698" y="218" width="277" height="322"/>
     <path fill="rgb(0,0,0)" stroke="none" d="M 1973,451 C 1964,480 1949,502 1927,517 1906,532 1879,539 1846,539 1826,539 1807,536 1790,529 1773,522 1758,512 1744,498 1729,483 1718,465 1710,445 1702,426 1699,403 1699,379 1699,331 1713,292 1740,262 1768,233 1804,218 1850,218 1867,218 1884,220 1903,225 1922,229 1943,236 1965,245 L 1965,316 1941,316 C 1936,290 1926,271 1911,259 1895,246 1874,240 1846,240 1813,240 1788,252 1771,275 1755,299 1746,333 1746,379 1746,424 1755,458 1771,482 1788,505 1813,517 1846,517 1869,517 1888,511 1903,500 1918,489 1929,473 1935,451 L 1973,451 Z"/>
    </g>
   </g>
   <g class="com.sun.star.drawing.ClosedBezierShape">
    <g id="id7">
     <rect class="BoundingBox" stroke="none" fill="none" x="2024" y="224" width="253" height="310"/>
     <path fill="rgb(0,0,0)" stroke="none" d="M 2024,533 C 2024,526 2024,518 2024,511 2037,511 2051,511 2064,511 2064,423 2064,334 2064,246 2051,246 2037,246 2024,246 2024,239 2024,231 2024,224 2107,224 2190,224 2273,224 2273,247 2273,270 2273,293 2264,293 2256,293 2247,293 2247,278 2247,264 2247,249 2200,249 2153,249 2106,249 2106,284 2106,318 2106,353 2139,353 2173,353 2207,353 2207,340 2207,327 2207,314 2215,314 2223,314 2232,314 2232,349 2232,383 2232,417 2223,417 2215,417 2207,417 2207,404 2207,391 2207,378 2173,378 2139,378 2106,378 2106,421 2106,464 2106,508 2154,508 2202,508 2251,508 2251,493 2251,479 2251,464 2259,464 2267,464 2276,464 2276,487 2276,510 2276,533 2192,533 2108,533 2024,533 Z"/>
    </g>
   </g>
   <g class="com.sun.star.drawing.ClosedBezierShape">
    <g id="id8">
     <rect class="BoundingBox" stroke="none" fill="none" x="2333" y="224" width="249" height="310"/>
     <path fill="rgb(0,0,0)" stroke="none" d="M 2333,533 C 2333,526 2333,518 2333,511 2346,511 2360,511 2373,511 2373,423 2373,334 2373,246 2360,246 2346,246 2333,246 2333,239 2333,231 2333,224 2373,224 2414,224 2454,224 2454,231 2454,239 2454,246 2441,246 2428,246 2415,246 2415,333 2415,420 2415,508 2461,508 2508,508 2555,508 2555,490 2555,473 2555,456 2564,456 2572,456 2581,456 2581,482 2581,507 2581,533 2498,533 2416,533 2333,533 Z"/>
    </g>
   </g>
   <g class="com.sun.star.drawing.ClosedBezierShape">
    <g id="id9">
     <rect class="BoundingBox" stroke="none" fill="none" x="2613" y="224" width="253" height="310"/>
     <path fill="rgb(0,0,0)" stroke="none" d="M 2613,533 C 2613,526 2613,518 2613,511 2626,511 2640,511 2653,511 2653,423 2653,334 2653,246 2640,246 2626,246 2613,246 2613,239 2613,231 2613,224 2696,224 2779,224 2862,224 2862,247 2862,270 2862,293 2853,293 2845,293 2836,293 2836,278 2836,264 2836,249 2789,249 2742,249 2695,249 2695,284 2695,318 2695,353 2728,353 2762,353 2796,353 2796,340 2796,327 2796,314 2804,314 2812,314 2821,314 2821,349 2821,383 2821,417 2812,417 2804,417 2796,417 2796,404 2796,391 2796,378 2762,378 2728,378 2695,378 2695,421 2695,464 2695,508 2743,508 2791,508 2840,508 2840,493 2840,479 2840,464 2848,464 2856,464 2865,464 2865,487 2865,510 2865,533 2781,533 2697,533 2613,533 Z"/>
    </g>
   </g>
   <g class="com.sun.star.drawing.ClosedBezierShape">
    <g id="id10">
     <rect class="BoundingBox" stroke="none" fill="none" x="2919" y="224" width="333" height="316"/>
     <path fill="rgb(0,0,0)" stroke="none" d="M 2920,533 C 2920,526 2920,518 2920,511 2933,511 2947,511 2961,511 2961,423 2961,334 2961,246 2947,246 2933,246 2920,246 2920,239 2920,231 2920,224 2946,224 2972,224 2999,224 3060,305 3122,387 3184,468 3184,394 3184,320 3184,246 3170,246 3156,246 3142,246 3142,239 3142,231 3142,224 3178,224 3214,224 3251,224 3251,231 3251,239 3251,246 3237,246 3223,246 3209,246 3209,344 3209,441 3209,539 3201,539 3192,539 3184,539 3118,452 3052,365 2987,279 2987,356 2987,434 2987,511 3000,511 3014,511 3028,511 3028,518 3028,526 3028,533 2992,533 2956,533 2920,533 Z"/>
    </g>
   </g>
   <g class="com.sun.star.drawing.ClosedBezierShape">
    <g id="id11">
     <rect class="BoundingBox" stroke="none" fill="none" x="3294" y="218" width="277" height="322"/>
     <path fill="rgb(0,0,0)" stroke="none" d="M 3569,451 C 3560,480 3545,502 3523,517 3502,532 3475,539 3442,539 3422,539 3403,536 3386,529 3369,522 3354,512 3340,498 3325,483 3314,465 3306,445 3299,426 3295,403 3295,379 3295,331 3309,292 3336,262 3364,233 3400,218 3446,218 3463,218 3480,220 3499,225 3518,229 3539,236 3561,245 L 3561,316 3537,316 C 3532,290 3522,271 3507,259 3491,246 3470,240 3442,240 3409,240 3384,252 3367,275 3351,299 3342,333 3342,379 3342,424 3351,458 3367,482 3384,505 3409,517 3442,517 3465,517 3484,511 3499,500 3514,489 3525,473 3531,451 L 3569,451 Z"/>
    </g>
   </g>
   <g class="com.sun.star.drawing.ClosedBezierShape">
    <g id="id12">
     <rect class="BoundingBox" stroke="none" fill="none" x="3620" y="224" width="122" height="310"/>
     <path fill="rgb(0,0,0)" stroke="none" d="M 3702,511 C 3715,511 3728,511 3741,511 3741,518 3741,526 3741,533 3701,533 3660,533 3620,533 3620,526 3620,518 3620,511 3633,511 3647,511 3660,511 3660,423 3660,334 3660,246 3647,246 3633,246 3620,246 3620,239 3620,231 3620,224 3660,224 3701,224 3741,224 3741,231 3741,239 3741,246 3728,246 3715,246 3702,246 3702,334 3702,423 3702,511 Z"/>
    </g>
   </g>
   <g class="com.sun.star.drawing.ClosedBezierShape">
    <g id="id13">
     <rect class="BoundingBox" stroke="none" fill="none" x="3763" y="224" width="314" height="310"/>
     <path fill="rgb(0,0,0)" stroke="none" d="M 3851,421 C 3888,421 3926,421 3964,421 3945,372 3926,323 3907,274 3888,323 3870,372 3851,421 Z M 3764,533 C 3764,526 3764,518 3764,511 3773,511 3782,511 3791,511 3827,415 3864,320 3900,224 3912,224 3924,224 3935,224 3972,320 4009,415 4045,511 4055,511 4065,511 4076,511 4076,518 4076,526 4076,533 4038,533 4001,533 3963,533 3963,526 3963,518 3963,511 3975,511 3986,511 3998,511 3989,488 3981,466 3972,443 3929,443 3885,443 3842,443 3834,466 3825,488 3816,511 3828,511 3839,511 3850,511 3850,518 3850,526 3850,533 3821,533 3792,533 3764,533 Z"/>
    </g>
   </g>
  </g>
  <g class="Group">
   <g class="com.sun.star.drawing.ClosedBezierShape">
    <g id="id14">
     <rect class="BoundingBox" stroke="none" fill="none" x="1095" y="720" width="392" height="310"/>
     <path fill="rgb(0,0,0)" stroke="none" d="M 1097,1029 C 1097,1022 1097,1014 1097,1007 1110,1007 1124,1007 1137,1007 1137,919 1137,830 1137,742 1123,742 1109,742 1095,742 1095,735 1095,727 1095,720 1125,720 1155,720 1185,720 1221,793 1257,867 1293,940 1329,867 1365,793 1401,720 1429,720 1458,720 1486,720 1486,727 1486,735 1486,742 1472,742 1458,742 1445,742 1445,830 1445,919 1445,1007 1458,1007 1471,1007 1484,1007 1484,1014 1484,1022 1484,1029 1444,1029 1404,1029 1363,1029 1363,1022 1363,1014 1363,1007 1376,1007 1390,1007 1403,1007 1403,927 1403,848 1403,768 1367,840 1332,912 1297,984 1287,984 1277,984 1268,984 1232,912 1197,840 1162,768 1162,848 1162,927 1162,1007 1175,1007 1188,1007 1201,1007 1201,1014 1201,1022 1201,1029 1167,1029 1132,1029 1097,1029 Z"/>
    </g>
   </g>
   <g class="com.sun.star.drawing.ClosedBezierShape">
    <g id="id15">
     <rect class="BoundingBox" stroke="none" fill="none" x="1503" y="720" width="314" height="310"/>
     <path fill="rgb(0,0,0)" stroke="none" d="M 1591,917 C 1628,917 1666,917 1704,917 1685,868 1666,819 1647,770 1628,819 1610,868 1591,917 Z M 1504,1029 C 1504,1022 1504,1014 1504,1007 1513,1007 1522,1007 1531,1007 1567,911 1604,816 1640,720 1652,720 1664,720 1675,720 1712,816 1749,911 1785,1007 1795,1007 1805,1007 1816,1007 1816,1014 1816,1022 1816,1029 1778,1029 1741,1029 1703,1029 1703,1022 1703,1014 1703,1007 1715,1007 1726,1007 1738,1007 1729,984 1721,962 1712,939 1669,939 1625,939 1582,939 1574,962 1565,984 1556,1007 1568,1007 1579,1007 1590,1007 1590,1014 1590,1022 1590,1029 1561,1029 1532,1029 1504,1029 Z"/>
    </g>
   </g>
   <g class="com.sun.star.drawing.ClosedBezierShape">
    <g id="id16">
     <rect class="BoundingBox" stroke="none" fill="none" x="1834" y="720" width="307" height="310"/>
     <path fill="rgb(0,0,0)" stroke="none" d="M 2014,876 C 2023,878 2032,883 2039,889 2045,895 2052,904 2057,915 L 2102,1007 2140,1007 2140,1029 2067,1029 2019,931 C 2010,911 2001,899 1993,894 1986,888 1975,885 1962,885 L 1916,885 1916,1007 1959,1007 1959,1029 1834,1029 1834,1007 1874,1007 1874,742 1834,742 1834,720 1991,720 C 2021,720 2044,727 2060,742 2077,756 2085,776 2085,803 2085,824 2079,841 2067,853 2055,865 2037,873 2014,876 Z M 1916,863 L 1976,863 C 1997,863 2013,858 2023,848 2032,838 2037,823 2037,802 2037,782 2032,767 2023,757 2013,747 1997,742 1976,742 L 1916,742 1916,863 Z"/>
    </g>
   </g>
   <g class="com.sun.star.drawing.ClosedBezierShape">
    <g id="id17">
     <rect class="BoundingBox" stroke="none" fill="none" x="2151" y="636" width="122" height="394"/>
     <path fill="rgb(0,0,0)" stroke="none" d="M 2233,1007 C 2246,1007 2259,1007 2272,1007 2272,1014 2272,1022 2272,1029 2232,1029 2191,1029 2151,1029 2151,1022 2151,1014 2151,1007 2164,1007 2178,1007 2191,1007 2191,919 2191,830 2191,742 2178,742 2164,742 2151,742 2151,735 2151,727 2151,720 2191,720 2232,720 2272,720 2272,727 2272,735 2272,742 2259,742 2246,742 2233,742 2233,830 2233,919 2233,1007 Z M 2225,636 C 2238,636 2252,636 2266,636 2248,654 2229,672 2211,691 2203,691 2195,691 2187,691 2200,672 2212,654 2225,636 Z"/>
    </g>
   </g>
   <g class="com.sun.star.drawing.ClosedBezierShape">
    <g id="id18">
     <rect class="BoundingBox" stroke="none" fill="none" x="2294" y="720" width="314" height="310"/>
     <path fill="rgb(0,0,0)" stroke="none" d="M 2382,917 C 2419,917 2457,917 2495,917 2476,868 2457,819 2438,770 2419,819 2401,868 2382,917 Z M 2295,1029 C 2295,1022 2295,1014 2295,1007 2304,1007 2313,1007 2322,1007 2358,911 2395,816 2431,720 2443,720 2455,720 2466,720 2503,816 2540,911 2576,1007 2586,1007 2596,1007 2607,1007 2607,1014 2607,1022 2607,1029 2569,1029 2532,1029 2494,1029 2494,1022 2494,1014 2494,1007 2506,1007 2517,1007 2529,1007 2520,984 2512,962 2503,939 2460,939 2416,939 2373,939 2365,962 2356,984 2347,1007 2359,1007 2370,1007 2381,1007 2381,1014 2381,1022 2381,1029 2352,1029 2323,1029 2295,1029 Z"/>
    </g>
   </g>
  </g>
  <g class="Group">
   <g class="com.sun.star.drawing.ClosedBezierShape">
    <g id="id19">
     <rect class="BoundingBox" stroke="none" fill="none" x="1097" y="1214" width="293" height="310"/>
     <path fill="rgb(0,0,0)" stroke="none" d="M 1179,1501 L 1217,1501 C 1257,1501 1288,1490 1309,1467 1331,1444 1341,1411 1341,1368 1341,1325 1331,1293 1309,1270 1288,1247 1257,1236 1217,1236 L 1179,1236 1179,1501 Z M 1097,1523 L 1097,1501 1137,1501 1137,1236 1097,1236 1097,1214 1220,1214 C 1273,1214 1315,1228 1344,1255 1374,1282 1389,1320 1389,1368 1389,1417 1374,1455 1344,1482 1314,1509 1273,1523 1220,1523 L 1097,1523 Z"/>
    </g>
   </g>
   <g class="com.sun.star.drawing.ClosedBezierShape">
    <g id="id20">
     <rect class="BoundingBox" stroke="none" fill="none" x="1436" y="1214" width="253" height="310"/>
     <path fill="rgb(0,0,0)" stroke="none" d="M 1436,1523 C 1436,1516 1436,1508 1436,1501 1449,1501 1463,1501 1476,1501 1476,1413 1476,1324 1476,1236 1463,1236 1449,1236 1436,1236 1436,1229 1436,1221 1436,1214 1519,1214 1602,1214 1685,1214 1685,1237 1685,1260 1685,1283 1676,1283 1668,1283 1659,1283 1659,1268 1659,1254 1659,1239 1612,1239 1565,1239 1518,1239 1518,1274 1518,1308 1518,1343 1551,1343 1585,1343 1619,1343 1619,1330 1619,1317 1619,1304 1627,1304 1635,1304 1644,1304 1644,1339 1644,1373 1644,1407 1635,1407 1627,1407 1619,1407 1619,1394 1619,1381 1619,1368 1585,1368 1551,1368 1518,1368 1518,1411 1518,1454 1518,1498 1566,1498 1614,1498 1663,1498 1663,1483 1663,1469 1663,1454 1671,1454 1679,1454 1688,1454 1688,1477 1688,1500 1688,1523 1604,1523 1520,1523 1436,1523 Z"/>
    </g>
   </g>
   <g class="com.sun.star.drawing.ClosedBezierShape">
    <g id="id21">
     <rect class="BoundingBox" stroke="none" fill="none" x="1878" y="1214" width="392" height="310"/>
     <path fill="rgb(0,0,0)" stroke="none" d="M 1880,1523 C 1880,1516 1880,1508 1880,1501 1893,1501 1907,1501 1920,1501 1920,1413 1920,1324 1920,1236 1906,1236 1892,1236 1878,1236 1878,1229 1878,1221 1878,1214 1908,1214 1938,1214 1968,1214 2004,1287 2040,1361 2076,1434 2112,1361 2148,1287 2184,1214 2212,1214 2241,1214 2269,1214 2269,1221 2269,1229 2269,1236 2255,1236 2241,1236 2228,1236 2228,1324 2228,1413 2228,1501 2241,1501 2254,1501 2267,1501 2267,1508 2267,1516 2267,1523 2227,1523 2187,1523 2146,1523 2146,1516 2146,1508 2146,1501 2159,1501 2173,1501 2186,1501 2186,1421 2186,1342 2186,1262 2150,1334 2115,1406 2080,1478 2070,1478 2060,1478 2051,1478 2015,1406 1980,1334 1945,1262 1945,1342 1945,1421 1945,1501 1958,1501 1971,1501 1984,1501 1984,1508 1984,1516 1984,1523 1950,1523 1915,1523 1880,1523 Z"/>
    </g>
   </g>
   <g class="com.sun.star.drawing.ClosedBezierShape">
    <g id="id22">
     <rect class="BoundingBox" stroke="none" fill="none" x="2286" y="1214" width="314" height="310"/>
     <path fill="rgb(0,0,0)" stroke="none" d="M 2374,1411 C 2411,1411 2449,1411 2487,1411 2468,1362 2449,1313 2430,1264 2411,1313 2393,1362 2374,1411 Z M 2287,1523 C 2287,1516 2287,1508 2287,1501 2296,1501 2305,1501 2314,1501 2350,1405 2387,1310 2423,1214 2435,1214 2447,1214 2458,1214 2495,1310 2532,1405 2568,1501 2578,1501 2588,1501 2599,1501 2599,1508 2599,1516 2599,1523 2561,1523 2524,1523 2486,1523 2486,1516 2486,1508 2486,1501 2498,1501 2509,1501 2521,1501 2512,1478 2504,1456 2495,1433 2452,1433 2408,1433 2365,1433 2357,1456 2348,1478 2339,1501 2351,1501 2362,1501 2373,1501 2373,1508 2373,1516 2373,1523 2344,1523 2315,1523 2287,1523 Z"/>
    </g>
   </g>
   <g class="com.sun.star.drawing.ClosedBezierShape">
    <g id="id23">
     <rect class="BoundingBox" stroke="none" fill="none" x="2617" y="1214" width="253" height="310"/>
     <path fill="rgb(0,0,0)" stroke="none" d="M 2617,1523 C 2617,1516 2617,1508 2617,1501 2630,1501 2644,1501 2657,1501 2657,1413 2657,1324 2657,1236 2644,1236 2630,1236 2617,1236 2617,1229 2617,1221 2617,1214 2700,1214 2783,1214 2866,1214 2866,1237 2866,1260 2866,1283 2857,1283 2849,1283 2840,1283 2840,1268 2840,1254 2840,1239 2793,1239 2746,1239 2699,1239 2699,1274 2699,1308 2699,1343 2732,1343 2766,1343 2800,1343 2800,1330 2800,1317 2800,1304 2808,1304 2816,1304 2825,1304 2825,1339 2825,1373 2825,1407 2816,1407 2808,1407 2800,1407 2800,1394 2800,1381 2800,1368 2766,1368 2732,1368 2699,1368 2699,1411 2699,1454 2699,1498 2747,1498 2795,1498 2844,1498 2844,1483 2844,1469 2844,1454 2852,1454 2860,1454 2869,1454 2869,1477 2869,1500 2869,1523 2785,1523 2701,1523 2617,1523 Z"/>
    </g>
   </g>
   <g class="com.sun.star.drawing.ClosedBezierShape">
    <g id="id24">
     <rect class="BoundingBox" stroke="none" fill="none" x="2922" y="1214" width="260" height="310"/>
     <path fill="rgb(0,0,0)" stroke="none" d="M 2922,1523 C 2922,1518 2922,1513 2922,1508 2986,1419 3050,1329 3114,1239 3061,1239 3008,1239 2955,1239 2955,1255 2955,1270 2955,1286 2946,1286 2938,1286 2929,1286 2929,1262 2929,1238 2929,1214 3010,1214 3092,1214 3173,1214 3173,1219 3173,1224 3173,1229 3109,1318 3045,1408 2981,1498 3039,1498 3097,1498 3155,1498 3155,1483 3155,1469 3155,1454 3164,1454 3172,1454 3180,1454 3180,1477 3180,1500 3180,1523 3094,1523 3008,1523 2922,1523 Z"/>
    </g>
   </g>
   <g class="com.sun.star.drawing.ClosedBezierShape">
    <g id="id25">
     <rect class="BoundingBox" stroke="none" fill="none" x="3199" y="1214" width="275" height="310"/>
     <path fill="rgb(0,0,0)" stroke="none" d="M 3276,1523 C 3276,1516 3276,1508 3276,1501 3289,1501 3302,1501 3315,1501 3315,1414 3315,1326 3315,1239 3285,1239 3255,1239 3225,1239 3225,1255 3225,1271 3225,1287 3216,1287 3208,1287 3199,1287 3199,1263 3199,1238 3199,1214 3290,1214 3382,1214 3473,1214 3473,1238 3473,1263 3473,1287 3465,1287 3456,1287 3448,1287 3448,1271 3448,1255 3448,1239 3417,1239 3387,1239 3357,1239 3357,1326 3357,1414 3357,1501 3370,1501 3383,1501 3396,1501 3396,1508 3396,1516 3396,1523 3356,1523 3316,1523 3276,1523 Z"/>
    </g>
   </g>
   <g class="com.sun.star.drawing.ClosedBezierShape">
    <g id="id26">
     <rect class="BoundingBox" stroke="none" fill="none" x="3498" y="1214" width="320" height="316"/>
     <path fill="rgb(0,0,0)" stroke="none" d="M 3538,1236 L 3499,1236 3499,1214 3619,1214 3619,1236 3580,1236 3580,1396 C 3580,1435 3586,1463 3599,1479 3612,1494 3634,1502 3666,1502 3697,1502 3720,1494 3733,1479 3745,1463 3752,1435 3752,1396 L 3752,1236 3712,1236 3712,1214 3816,1214 3816,1236 3777,1236 3777,1400 C 3777,1447 3768,1480 3750,1500 3732,1519 3702,1529 3658,1529 3615,1529 3584,1519 3566,1500 3547,1480 3538,1447 3538,1400 L 3538,1236 Z"/>
    </g>
   </g>
  </g>
  <g class="Group">
   <g class="com.sun.star.drawing.ClosedBezierShape">
    <g id="id27">
     <rect class="BoundingBox" stroke="none" fill="none" x="1092" y="1677" width="144" height="214"/>
     <path fill="rgb(0,0,0)" stroke="none" d="M 1164,1876 C 1178,1876 1188,1869 1195,1853 1202,1838 1206,1815 1206,1784 1206,1753 1202,1729 1195,1714 1188,1699 1178,1691 1164,1691 1150,1691 1139,1699 1132,1714 1125,1729 1122,1753 1122,1784 1122,1815 1125,1838 1132,1853 1139,1869 1150,1876 1164,1876 Z M 1164,1890 C 1141,1890 1124,1881 1111,1862 1099,1843 1093,1817 1093,1784 1093,1750 1099,1724 1111,1705 1124,1687 1141,1677 1164,1677 1186,1677 1203,1687 1216,1705 1228,1724 1235,1750 1235,1784 1235,1817 1228,1843 1216,1862 1203,1881 1186,1890 1164,1890 Z"/>
    </g>
   </g>
   <g class="com.sun.star.drawing.ClosedBezierShape">
    <g id="id28">
     <rect class="BoundingBox" stroke="none" fill="none" x="1279" y="1680" width="138" height="207"/>
     <path fill="rgb(0,0,0)" stroke="none" d="M 1415,1694 C 1388,1758 1361,1822 1335,1886 1328,1886 1321,1886 1314,1886 1340,1825 1365,1764 1391,1703 1359,1703 1327,1703 1296,1703 1296,1711 1296,1720 1296,1728 1290,1728 1285,1728 1280,1728 1280,1712 1280,1696 1280,1680 1325,1680 1370,1680 1415,1680 1415,1685 1415,1690 1415,1694 Z"/>
    </g>
   </g>
   <g class="com.sun.star.drawing.ClosedBezierShape">
    <g id="id29">
     <rect class="BoundingBox" stroke="none" fill="none" x="1438" y="1681" width="97" height="232"/>
     <path fill="rgb(0,0,0)" stroke="none" d="M 1511,1681 C 1518,1681 1526,1681 1533,1681 1509,1758 1484,1835 1460,1912 1453,1912 1445,1912 1438,1912 1462,1835 1487,1758 1511,1681 Z"/>
    </g>
   </g>
   <g class="com.sun.star.drawing.ClosedBezierShape">
    <g id="id30">
     <rect class="BoundingBox" stroke="none" fill="none" x="1554" y="1676" width="134" height="211"/>
     <path fill="rgb(0,0,0)" stroke="none" d="M 1571,1730 L 1556,1730 1556,1693 C 1565,1688 1575,1684 1585,1681 1595,1678 1605,1677 1615,1677 1636,1677 1653,1682 1665,1693 1678,1703 1684,1717 1684,1735 1684,1755 1670,1779 1642,1807 1640,1809 1638,1811 1637,1812 L 1585,1863 1671,1863 1671,1838 1687,1838 1687,1886 1554,1886 1554,1871 1617,1809 C 1630,1795 1640,1782 1646,1771 1652,1759 1655,1747 1655,1735 1655,1721 1651,1710 1644,1702 1637,1694 1627,1691 1614,1691 1601,1691 1591,1694 1584,1700 1577,1707 1572,1717 1571,1730 Z"/>
    </g>
   </g>
   <g class="com.sun.star.drawing.ClosedBezierShape">
    <g id="id31">
     <rect class="BoundingBox" stroke="none" fill="none" x="1735" y="1677" width="144" height="214"/>
     <path fill="rgb(0,0,0)" stroke="none" d="M 1807,1876 C 1821,1876 1831,1869 1838,1853 1845,1838 1849,1815 1849,1784 1849,1753 1845,1729 1838,1714 1831,1699 1821,1691 1807,1691 1793,1691 1782,1699 1775,1714 1768,1729 1765,1753 1765,1784 1765,1815 1768,1838 1775,1853 1782,1869 1793,1876 1807,1876 Z M 1807,1890 C 1784,1890 1767,1881 1754,1862 1742,1843 1736,1817 1736,1784 1736,1750 1742,1724 1754,1705 1767,1687 1784,1677 1807,1677 1829,1677 1846,1687 1859,1705 1871,1724 1878,1750 1878,1784 1878,1817 1871,1843 1859,1862 1846,1881 1829,1890 1807,1890 Z"/>
    </g>
   </g>
   <g class="com.sun.star.drawing.ClosedBezierShape">
    <g id="id32">
     <rect class="BoundingBox" stroke="none" fill="none" x="1934" y="1676" width="107" height="211"/>
     <path fill="rgb(0,0,0)" stroke="none" d="M 1940,1886 C 1940,1881 1940,1876 1940,1871 1952,1871 1964,1871 1976,1871 1976,1815 1976,1758 1976,1701 1962,1710 1948,1719 1934,1727 1934,1721 1934,1715 1934,1709 1951,1699 1968,1688 1985,1677 1991,1677 1997,1677 2004,1677 2004,1742 2004,1807 2004,1871 2015,1871 2027,1871 2039,1871 2039,1876 2039,1881 2039,1886 2006,1886 1973,1886 1940,1886 Z"/>
    </g>
   </g>
   <g class="com.sun.star.drawing.ClosedBezierShape">
    <g id="id33">
     <rect class="BoundingBox" stroke="none" fill="none" x="2105" y="1680" width="138" height="207"/>
     <path fill="rgb(0,0,0)" stroke="none" d="M 2241,1694 C 2214,1758 2187,1822 2161,1886 2154,1886 2147,1886 2140,1886 2166,1825 2191,1764 2217,1703 2185,1703 2153,1703 2122,1703 2122,1711 2122,1720 2122,1728 2116,1728 2111,1728 2106,1728 2106,1712 2106,1696 2106,1680 2151,1680 2196,1680 2241,1680 2241,1685 2241,1690 2241,1694 Z"/>
    </g>
   </g>
   <g class="com.sun.star.drawing.ClosedBezierShape">
    <g id="id34">
     <rect class="BoundingBox" stroke="none" fill="none" x="2276" y="1799" width="72" height="23"/>
     <path fill="rgb(0,0,0)" stroke="none" d="M 2276,1800 C 2300,1800 2323,1800 2347,1800 2347,1807 2347,1814 2347,1821 2323,1821 2300,1821 2276,1821 2276,1814 2276,1807 2276,1800 Z"/>
    </g>
   </g>
   <g class="com.sun.star.drawing.ClosedBezierShape">
    <g id="id35">
     <rect class="BoundingBox" stroke="none" fill="none" x="2379" y="1677" width="144" height="214"/>
     <path fill="rgb(0,0,0)" stroke="none" d="M 2451,1876 C 2465,1876 2475,1869 2482,1853 2489,1838 2493,1815 2493,1784 2493,1753 2489,1729 2482,1714 2475,1699 2465,1691 2451,1691 2437,1691 2426,1699 2419,1714 2412,1729 2409,1753 2409,1784 2409,1815 2412,1838 2419,1853 2426,1869 2437,1876 2451,1876 Z M 2451,1890 C 2428,1890 2411,1881 2398,1862 2386,1843 2380,1817 2380,1784 2380,1750 2386,1724 2398,1705 2411,1687 2428,1677 2451,1677 2473,1677 2490,1687 2503,1705 2515,1724 2522,1750 2522,1784 2522,1817 2515,1843 2503,1862 2490,1881 2473,1890 2451,1890 Z"/>
    </g>
   </g>
   <g class="com.sun.star.drawing.ClosedBezierShape">
    <g id="id36">
     <rect class="BoundingBox" stroke="none" fill="none" x="2561" y="1677" width="145" height="214"/>
     <path fill="rgb(0,0,0)" stroke="none" d="M 2635,1876 C 2648,1876 2658,1872 2665,1862 2672,1853 2676,1839 2676,1821 2676,1803 2672,1790 2665,1780 2658,1771 2648,1766 2635,1766 2622,1766 2612,1771 2605,1780 2598,1789 2595,1802 2595,1820 2595,1838 2598,1852 2605,1862 2612,1871 2622,1876 2635,1876 Z M 2590,1773 C 2597,1766 2604,1761 2612,1758 2619,1754 2628,1752 2638,1752 2659,1752 2675,1759 2687,1771 2699,1783 2705,1800 2705,1821 2705,1842 2698,1859 2685,1871 2673,1884 2656,1890 2634,1890 2611,1890 2593,1881 2581,1864 2568,1847 2562,1822 2562,1790 2562,1754 2569,1727 2584,1707 2599,1687 2620,1677 2647,1677 2654,1677 2661,1678 2669,1679 2677,1681 2686,1683 2694,1686 L 2694,1719 2678,1719 C 2677,1710 2674,1703 2668,1698 2662,1693 2654,1691 2644,1691 2626,1691 2613,1698 2604,1711 2595,1725 2591,1745 2590,1773 Z"/>
    </g>
   </g>
   <g class="com.sun.star.drawing.ClosedBezierShape">
    <g id="id37">
     <rect class="BoundingBox" stroke="none" fill="none" x="2725" y="1681" width="97" height="232"/>
     <path fill="rgb(0,0,0)" stroke="none" d="M 2798,1681 C 2805,1681 2813,1681 2820,1681 2796,1758 2771,1835 2747,1912 2740,1912 2732,1912 2725,1912 2749,1835 2774,1758 2798,1681 Z"/>
    </g>
   </g>
   <g class="com.sun.star.drawing.ClosedBezierShape">
    <g id="id38">
     <rect class="BoundingBox" stroke="none" fill="none" x="2841" y="1676" width="134" height="211"/>
     <path fill="rgb(0,0,0)" stroke="none" d="M 2858,1730 L 2843,1730 2843,1693 C 2852,1688 2862,1684 2872,1681 2882,1678 2892,1677 2902,1677 2923,1677 2940,1682 2952,1693 2965,1703 2971,1717 2971,1735 2971,1755 2957,1779 2929,1807 2927,1809 2925,1811 2924,1812 L 2872,1863 2958,1863 2958,1838 2974,1838 2974,1886 2841,1886 2841,1871 2904,1809 C 2917,1795 2927,1782 2933,1771 2939,1759 2942,1747 2942,1735 2942,1721 2938,1710 2931,1702 2924,1694 2914,1691 2901,1691 2888,1691 2878,1694 2871,1700 2864,1707 2859,1717 2858,1730 Z"/>
    </g>
   </g>
   <g class="com.sun.star.drawing.ClosedBezierShape">
    <g id="id39">
     <rect class="BoundingBox" stroke="none" fill="none" x="3022" y="1677" width="144" height="214"/>
     <path fill="rgb(0,0,0)" stroke="none" d="M 3094,1876 C 3108,1876 3118,1869 3125,1853 3132,1838 3136,1815 3136,1784 3136,1753 3132,1729 3125,1714 3118,1699 3108,1691 3094,1691 3080,1691 3069,1699 3062,1714 3055,1729 3052,1753 3052,1784 3052,1815 3055,1838 3062,1853 3069,1869 3080,1876 3094,1876 Z M 3094,1890 C 3071,1890 3054,1881 3041,1862 3029,1843 3023,1817 3023,1784 3023,1750 3029,1724 3041,1705 3054,1687 3071,1677 3094,1677 3116,1677 3133,1687 3146,1705 3158,1724 3165,1750 3165,1784 3165,1817 3158,1843 3146,1862 3133,1881 3116,1890 3094,1890 Z"/>
    </g>
   </g>
   <g class="com.sun.star.drawing.ClosedBezierShape">
    <g id="id40">
     <rect class="BoundingBox" stroke="none" fill="none" x="3205" y="1676" width="134" height="211"/>
     <path fill="rgb(0,0,0)" stroke="none" d="M 3222,1730 L 3207,1730 3207,1693 C 3216,1688 3226,1684 3236,1681 3246,1678 3256,1677 3266,1677 3287,1677 3304,1682 3316,1693 3329,1703 3335,1717 3335,1735 3335,1755 3321,1779 3293,1807 3291,1809 3289,1811 3288,1812 L 3236,1863 3322,1863 3322,1838 3338,1838 3338,1886 3205,1886 3205,1871 3268,1809 C 3281,1795 3291,1782 3297,1771 3303,1759 3306,1747 3306,1735 3306,1721 3302,1710 3295,1702 3288,1694 3278,1691 3265,1691 3252,1691 3242,1694 3235,1700 3228,1707 3223,1717 3222,1730 Z"/>
    </g>
   </g>
   <g class="com.sun.star.drawing.ClosedBezierShape">
    <g id="id41">
     <rect class="BoundingBox" stroke="none" fill="none" x="3402" y="1676" width="107" height="211"/>
     <path fill="rgb(0,0,0)" stroke="none" d="M 3408,1886 C 3408,1881 3408,1876 3408,1871 3420,1871 3432,1871 3444,1871 3444,1815 3444,1758 3444,1701 3430,1710 3416,1719 3402,1727 3402,1721 3402,1715 3402,1709 3419,1699 3436,1688 3453,1677 3459,1677 3465,1677 3472,1677 3472,1742 3472,1807 3472,1871 3483,1871 3495,1871 3507,1871 3507,1876 3507,1881 3507,1886 3474,1886 3441,1886 3408,1886 Z"/>
    </g>
   </g>
  </g>
 </g>
</svg>