<?xml version="1.0" encoding="UTF-8" standalone="no"?>
<!-- Created with Inkscape (http://www.inkscape.org/) -->

<svg
   xmlns:dc="http://purl.org/dc/elements/1.1/"
   xmlns:cc="http://creativecommons.org/ns#"
   xmlns:rdf="http://www.w3.org/1999/02/22-rdf-syntax-ns#"
   xmlns:svg="http://www.w3.org/2000/svg"
   xmlns="http://www.w3.org/2000/svg"
   xmlns:sodipodi="http://sodipodi.sourceforge.net/DTD/sodipodi-0.dtd"
   xmlns:inkscape="http://www.inkscape.org/namespaces/inkscape"
   version="1.1"
   id="svg2"
   xml:space="preserve"
   width="24.911467"
   height="24.910398"
   viewBox="0 0 24.911466 24.910399"
   sodipodi:docname="UPC_logo_no_text.svg"
   inkscape:version="0.92.5 (2060ec1f9f, 2020-04-08)"><metadata
     id="metadata8"><rdf:RDF><cc:Work
         rdf:about=""><dc:format>image/svg+xml</dc:format><dc:type
           rdf:resource="http://purl.org/dc/dcmitype/StillImage" /><dc:title></dc:title></cc:Work></rdf:RDF></metadata><defs
     id="defs6" /><sodipodi:namedview
     pagecolor="#ffffff"
     bordercolor="#666666"
     borderopacity="1"
     objecttolerance="10"
     gridtolerance="10"
     guidetolerance="10"
     inkscape:pageopacity="0"
     inkscape:pageshadow="2"
     inkscape:window-width="1920"
     inkscape:window-height="1016"
     id="namedview4"
     showgrid="false"
     inkscape:zoom="25.682031"
     inkscape:cx="30.169235"
     inkscape:cy="10.244761"
     inkscape:window-x="0"
     inkscape:window-y="27"
     inkscape:window-maximized="1"
     inkscape:current-layer="g12" /><g
     id="g10"
     inkscape:groupmode="layer"
     inkscape:label="ink_ext_XXXXXX"
     transform="matrix(1.3333333,0,0,-1.3333333,0,24.910399)"><g
       id="g12"
       transform="scale(0.1)"><path
         d="M 93.2734,185.891 C 42.207,185.891 0.800781,144.484 0.800781,93.4219 0.800781,42.3359 42.207,0.9375 93.2734,0.9375 c 51.0816,0 92.4886,41.3984 92.4886,92.4844 -0.008,51.0621 -41.407,92.4691 -92.4886,92.4691"
         style="fill:#ffffff;fill-opacity:1;fill-rule:nonzero;stroke:none"
         id="path14"
         inkscape:connector-curvature="0" /><path
         d="m 95.6172,51.7109 h -3.4766 v -7.2265 h 3.5742 c 2.3047,0 3.2618,1.8164 3.2032,3.7304 -0.0586,1.875 -0.793,3.4961 -3.3008,3.4961 z M 93.418,186.828 C 41.8281,186.828 0,145.012 0,93.4219 0,41.8203 41.8281,0 93.418,0 c 51.594,0 93.418,41.8281 93.418,93.4219 0,51.5901 -41.824,93.4061 -93.418,93.4061 z m 0.3711,-26.367 c 7.3749,0 13.3399,-5.977 13.3399,-13.34 0,-7.363 -5.957,-13.34 -13.3399,-13.34 -7.3516,0 -13.3282,5.977 -13.3282,13.34 0,7.363 5.9766,13.34 13.3282,13.34 z m 0,-31.609 c 7.3749,0 13.3399,-5.95 13.3399,-13.321 0,-7.367 -5.957,-13.343 -13.3399,-13.343 -7.3516,0 -13.3282,5.976 -13.3282,13.343 0,7.371 5.9766,13.321 13.3282,13.321 z m -32.4024,31.609 c 7.3633,0 13.3399,-5.977 13.3399,-13.34 0,-7.363 -5.9766,-13.34 -13.3399,-13.34 -7.3711,0 -13.3398,5.977 -13.3398,13.34 0,7.363 5.9687,13.34 13.3398,13.34 z m 0,-31.609 c 7.3633,0 13.3399,-5.95 13.3399,-13.321 0,-7.367 -5.9766,-13.343 -13.3399,-13.343 -7.3711,0 -13.3398,5.976 -13.3398,13.343 0,7.371 5.9687,13.321 13.3398,13.321 z m 0,-32.434 c 7.3633,0 13.3399,-5.9649 13.3399,-13.3321 0,-7.3593 -5.9766,-13.3359 -13.3399,-13.3359 -7.3711,0 -13.3398,5.9766 -13.3398,13.3359 0,7.3672 5.9687,13.3321 13.3398,13.3321 z M 77.0898,39.7109 c 0,-3.2812 -0.0859,-7.3281 -4.4023,-10.3632 -2.8125,-1.9805 -6.1445,-2.3946 -9.1328,-2.3946 -3.0078,0 -6.3281,0.4141 -9.1484,2.3946 -4.3086,3.0351 -4.4258,7.082 -4.4258,10.3632 v 18.7266 h 8.9843 V 39.7383 c 0.0313,-1.7774 0.1954,-3.1758 1.5821,-4.3086 0.9492,-0.7891 1.7695,-1.043 3.0195,-1.0625 1.2188,0.0195 2.0391,0.2734 2.9883,1.0625 1.3672,1.1328 1.5508,2.5312 1.5898,4.3086 v 18.6992 h 8.9453 V 39.7109 Z M 93.7891,96.418 c 7.3749,0 13.3399,-5.9649 13.3399,-13.3321 0,-7.3593 -5.957,-13.3359 -13.3399,-13.3359 -7.3516,0 -13.3282,5.9766 -13.3282,13.3359 0,7.3672 5.9766,13.3321 13.3282,13.3321 z m 9.5119,-57.0899 c -1.707,-1.2187 -3.6526,-1.6797 -8.6526,-1.6797 L 92.0625,37.707 V 27.6094 h -7.8242 v 30.8281 h 12.9101 c 6.2896,0 10.1876,-3.7891 10.1876,-10.6016 0,-3.6562 -1.438,-6.7109 -4.035,-8.5078 z m 32.226,9.7969 c -3.066,2.5547 -4.277,2.3828 -6.679,2.3828 -4.676,0 -7.93,-3.5547 -7.93,-8.625 0,-5.0859 3.301,-8.6015 7.969,-8.6015 2.539,0 3.801,0.3398 6.64,2.4296 v -7.9882 c -2.949,-1.4336 -4.617,-1.8477 -7.461,-1.8477 -9.316,0 -15.878,6.625 -15.878,16.0078 0,9.3047 6.71,16.2031 15.781,16.2031 2.785,0 4.59,-0.4531 7.558,-1.8984 z M 125.461,69.75 c -7.375,0 -13.34,5.9766 -13.34,13.3359 0,7.3672 5.957,13.3321 13.34,13.3321 7.352,0 13.34,-5.9649 13.34,-13.3321 0,-7.3593 -5.988,-13.3359 -13.34,-13.3359 z m 0,32.438 c -7.375,0 -13.34,5.976 -13.34,13.343 0,7.371 5.957,13.321 13.34,13.321 7.352,0 13.34,-5.95 13.34,-13.321 0,-7.367 -5.988,-13.343 -13.34,-13.343 z m 0,31.601 c -7.375,0 -13.34,5.969 -13.34,13.332 0,7.363 5.957,13.348 13.34,13.348 7.352,0 13.34,-5.985 13.34,-13.348 0,-7.363 -5.988,-13.332 -13.34,-13.332"
         style="fill:#1d78c7;fill-opacity:1;fill-rule:nonzero;stroke:none"
         id="path110"
         inkscape:connector-curvature="0" /></g></g></svg>