<?xml version="1.0" encoding="UTF-8" standalone="no"?>
<!-- Created with Inkscape (http://www.inkscape.org/) -->

<svg
   xmlns:dc="http://purl.org/dc/elements/1.1/"
   xmlns:cc="http://creativecommons.org/ns#"
   xmlns:rdf="http://www.w3.org/1999/02/22-rdf-syntax-ns#"
   xmlns:svg="http://www.w3.org/2000/svg"
   xmlns="http://www.w3.org/2000/svg"
   xmlns:sodipodi="http://sodipodi.sourceforge.net/DTD/sodipodi-0.dtd"
   xmlns:inkscape="http://www.inkscape.org/namespaces/inkscape"
   version="1.1"
   id="svg2"
   xml:space="preserve"
   width="113.38667"
   height="24.906668"
   viewBox="0 0 113.38667 24.906668"
   sodipodi:docname="Logo_UPC.svg"
   inkscape:version="0.92.5 (2060ec1f9f, 2020-04-08)"><metadata
     id="metadata8"><rdf:RDF><cc:Work
         rdf:about=""><dc:format>image/svg+xml</dc:format><dc:type
           rdf:resource="http://purl.org/dc/dcmitype/StillImage" /><dc:title></dc:title></cc:Work></rdf:RDF></metadata><defs
     id="defs6" /><sodipodi:namedview
     pagecolor="#ffffff"
     bordercolor="#666666"
     borderopacity="1"
     objecttolerance="10"
     gridtolerance="10"
     guidetolerance="10"
     inkscape:pageopacity="0"
     inkscape:pageshadow="2"
     inkscape:window-width="1920"
     inkscape:window-height="1016"
     id="namedview4"
     showgrid="false"
     inkscape:zoom="9.079969"
     inkscape:cx="63.397274"
     inkscape:cy="11.566697"
     inkscape:window-x="0"
     inkscape:window-y="27"
     inkscape:window-maximized="1"
     inkscape:current-layer="g12" /><g
     id="g10"
     inkscape:groupmode="layer"
     inkscape:label="ink_ext_XXXXXX"
     transform="matrix(1.3333333,0,0,-1.3333333,0,24.906667)"><g
       id="g12"
       transform="scale(0.1)"><path
         d="M 93.2734,185.891 C 42.207,185.891 0.800781,144.484 0.800781,93.4219 0.800781,42.3359 42.207,0.9375 93.2734,0.9375 c 51.0816,0 92.4886,41.3984 92.4886,92.4844 -0.008,51.0621 -41.407,92.4691 -92.4886,92.4691"
         style="fill:#ffffff;fill-opacity:1;fill-rule:nonzero;stroke:none"
         id="path14"
         inkscape:connector-curvature="0" /><path
         d="m 235.148,128.527 c 8.282,0 12.84,4.286 12.84,12.082 v 18.633 h -6.746 v -18.644 c 0,-4.582 -1.711,-6.368 -6.094,-6.368 -5.324,0 -6.035,3.223 -6.035,6.368 v 18.644 h -6.75 v -18.644 c 0,-7.891 4.426,-12.071 12.785,-12.071"
         style="fill:#1d78c7;fill-opacity:1;fill-rule:nonzero;stroke:none"
         id="path16"
         inkscape:connector-curvature="0" /><path
         d="m 275.266,139.336 -12.356,19.855 -0.027,0.051 h -6.66 v -30 h 6.328 v 19.852 l 12.304,-19.813 0.028,-0.039 h 6.711 v 30 h -6.328 v -19.906"
         style="fill:#1d78c7;fill-opacity:1;fill-rule:nonzero;stroke:none"
         id="path18"
         inkscape:connector-curvature="0" /><path
         d="m 292.07,159.242 h 6.75 v -30 h -6.75 v 30"
         style="fill:#1d78c7;fill-opacity:1;fill-rule:nonzero;stroke:none"
         id="path20"
         inkscape:connector-curvature="0" /><path
         d="m 315.813,129.242 h 7.527 l 9.914,29.871 0.047,0.129 h -6.973 l -6.687,-20.871 -6.614,20.871 h -6.961 l 9.715,-29.945 0.032,-0.055"
         style="fill:#1d78c7;fill-opacity:1;fill-rule:nonzero;stroke:none"
         id="path22"
         inkscape:connector-curvature="0" /><path
         d="m 362.98,134.934 h -16.074 v 7.121 h 14.442 v 5.281 h -14.442 v 6.203 h 15.742 v 5.703 h -22.492 v -30 h 22.824 v 5.692"
         style="fill:#1d78c7;fill-opacity:1;fill-rule:nonzero;stroke:none"
         id="path24"
         inkscape:connector-curvature="0" /><path
         d="m 377.883,140.883 h 6.453 c 3.086,0 4.406,-1.195 4.875,-4.426 0.105,-0.769 0.176,-1.613 0.234,-2.422 0.137,-1.699 0.282,-3.457 0.821,-4.738 l 0.027,-0.055 h 6.797 l -0.106,0.145 c -0.968,1.386 -1.093,4.051 -1.183,6.004 -0.02,0.363 -0.039,0.703 -0.059,1.007 -0.262,3.977 -1.66,6.27 -4.258,7.012 3.079,1.309 4.641,3.828 4.641,7.512 0,4.82 -3.711,8.32 -8.82,8.32 h -16.18 v -30 h 6.758 v 11.641 z m 0,13.074 h 7.078 c 2.969,0 4.414,-1.328 4.414,-4.043 0,-2.844 -1.406,-4.16 -4.414,-4.16 h -7.078 v 8.203"
         style="fill:#1d78c7;fill-opacity:1;fill-rule:nonzero;stroke:none"
         id="path26"
         inkscape:connector-curvature="0" /><path
         d="m 415.148,128.527 c 7.704,0 12.489,3.7 12.489,9.661 0,6.589 -6.297,8.132 -8.66,8.71 l -0.957,0.243 c -6.887,1.765 -8.125,2.089 -8.125,4.238 0,2.422 2.371,3.281 4.414,3.281 3.769,0 5.613,-1.406 5.789,-4.414 l 0.011,-0.098 h 6.524 v 0.098 c 0,6.074 -4.492,9.699 -12.031,9.699 -5.586,0 -11.25,-3.125 -11.25,-9.113 0,-5.723 4.636,-7.422 8.964,-8.566 0.645,-0.172 1.289,-0.328 1.922,-0.485 3.684,-0.898 6.867,-1.679 6.867,-4.347 0,-3.36 -4.375,-3.621 -5.714,-3.621 -4.063,0 -6.493,2.019 -6.493,5.417 v 0.09 h -6.543 v -0.09 c -0.039,-2.878 0.879,-5.273 2.696,-7.121 2.285,-2.312 5.867,-3.582 10.097,-3.582"
         style="fill:#1d78c7;fill-opacity:1;fill-rule:nonzero;stroke:none"
         id="path28"
         inkscape:connector-curvature="0" /><path
         d="m 435.871,159.242 h 6.746 v -30 h -6.746 v 30"
         style="fill:#1d78c7;fill-opacity:1;fill-rule:nonzero;stroke:none"
         id="path30"
         inkscape:connector-curvature="0" /><path
         d="m 457.715,129.242 h 6.738 v 24.297 h 8.938 v 5.703 h -24.61 v -5.703 h 8.934 v -24.297"
         style="fill:#1d78c7;fill-opacity:1;fill-rule:nonzero;stroke:none"
         id="path32"
         inkscape:connector-curvature="0" /><path
         d="m 473.184,129.242 h 6.855 l 2.336,6.629 h 11.016 l 2.254,-6.629 h 7.003 l -11.191,29.938 -0.019,0.062 h -6.856 l -11.34,-29.875 z m 10.968,11.707 3.789,10.676 3.672,-10.676 z"
         style="fill:#1d78c7;fill-opacity:1;fill-rule:nonzero;stroke:none"
         id="path34"
         inkscape:connector-curvature="0" /><path
         d="m 511.719,129.242 h 6.758 v 24.297 h 8.925 v 5.703 h -24.617 v -5.703 h 8.934 v -24.297"
         style="fill:#1d78c7;fill-opacity:1;fill-rule:nonzero;stroke:none"
         id="path36"
         inkscape:connector-curvature="0" /><path
         d="m 552.988,139.922 h 6.789 c 7.676,0 10.411,4.992 10.411,9.66 0,4.668 -2.735,9.66 -10.411,9.66 h -13.535 v -30 h 6.746 z m 0,14.035 h 5 c 2.805,0 5.664,-0.527 5.664,-4.375 0,-3.848 -2.859,-4.375 -5.664,-4.375 h -5 v 8.75"
         style="fill:#1d78c7;fill-opacity:1;fill-rule:nonzero;stroke:none"
         id="path38"
         inkscape:connector-curvature="0" /><path
         d="m 588.332,128.527 c 8.691,0 14.754,6.407 14.754,15.586 0,9.473 -5.938,15.832 -14.754,15.832 -8.828,0 -14.746,-6.359 -14.746,-15.832 0,-9.179 6.062,-15.586 14.746,-15.586 z m -8.008,15.586 c 0,2.371 0.586,10.129 8.008,10.129 7.43,0 7.996,-7.758 7.996,-10.129 0,-4.777 -2.098,-9.883 -7.996,-9.883 -5.898,0 -8.008,5.106 -8.008,9.883"
         style="fill:#1d78c7;fill-opacity:1;fill-rule:nonzero;stroke:none"
         id="path40"
         inkscape:connector-curvature="0" /><path
         d="m 615.762,159.242 h -6.739 v -30 h 21.282 v 5.692 h -14.543 v 24.308"
         style="fill:#1d78c7;fill-opacity:1;fill-rule:nonzero;stroke:none"
         id="path42"
         inkscape:connector-curvature="0" /><path
         d="m 636.191,159.242 h 6.75 v -30 h -6.75 v 30"
         style="fill:#1d78c7;fill-opacity:1;fill-rule:nonzero;stroke:none"
         id="path44"
         inkscape:connector-curvature="0" /><path
         d="m 649.465,153.539 h 8.933 v -24.297 h 6.739 v 24.297 h 8.945 v 5.703 h -24.617 v -5.703"
         style="fill:#1d78c7;fill-opacity:1;fill-rule:nonzero;stroke:none"
         id="path46"
         inkscape:connector-curvature="0" /><path
         d="m 686.887,142.055 h 14.453 v 5.281 h -14.453 v 6.203 h 15.75 v 5.703 h -22.489 v -30 h 22.821 v 5.692 h -16.082 v 7.121"
         style="fill:#1d78c7;fill-opacity:1;fill-rule:nonzero;stroke:none"
         id="path48"
         inkscape:connector-curvature="0" /><path
         d="m 694.238,161.719 -4.129,6.125 h -6.855 l 6.609,-6.094 4.375,-0.031"
         style="fill:#1d78c7;fill-opacity:1;fill-rule:nonzero;stroke:none"
         id="path50"
         inkscape:connector-curvature="0" /><path
         d="m 729.328,140.832 c -0.539,-4.199 -2.969,-6.602 -6.672,-6.602 -5.906,0 -7.996,5.106 -7.996,9.883 0,2.383 0.567,10.137 7.996,10.137 3.242,0 6.008,-2.207 6.418,-5.137 l 0.02,-0.09 h 6.531 l -0.02,0.11 c -0.75,6.57 -5.828,10.812 -12.949,10.812 -8.816,0 -14.754,-6.359 -14.754,-15.832 0,-9.179 6.063,-15.586 14.754,-15.586 7.356,0 12.539,4.825 13.203,12.286 l 0.012,0.097 h -6.535 l -0.008,-0.078"
         style="fill:#1d78c7;fill-opacity:1;fill-rule:nonzero;stroke:none"
         id="path52"
         inkscape:connector-curvature="0" /><path
         d="m 760.801,139.336 -12.352,19.855 -0.031,0.051 h -6.668 v -30 h 6.336 v 19.844 l 12.305,-19.805 0.031,-0.039 h 6.699 v 30 h -6.32 v -19.906"
         style="fill:#1d78c7;fill-opacity:1;fill-rule:nonzero;stroke:none"
         id="path54"
         inkscape:connector-curvature="0" /><path
         d="m 776.777,159.242 h 6.75 v -30 h -6.75 v 30"
         style="fill:#1d78c7;fill-opacity:1;fill-rule:nonzero;stroke:none"
         id="path56"
         inkscape:connector-curvature="0" /><path
         d="m 812.063,140.832 c -0.54,-4.199 -2.969,-6.602 -6.672,-6.602 -5.907,0 -8.008,5.106 -8.008,9.883 0,2.383 0.578,10.137 8.008,10.137 3.242,0 5.996,-2.207 6.418,-5.137 l 0.007,-0.09 h 6.536 l -0.012,0.11 c -0.75,6.57 -5.84,10.812 -12.949,10.812 -8.828,0 -14.754,-6.359 -14.754,-15.832 0,-9.179 6.062,-15.586 14.754,-15.586 7.343,0 12.531,4.825 13.195,12.286 l 0.019,0.097 h -6.542 v -0.078"
         style="fill:#1d78c7;fill-opacity:1;fill-rule:nonzero;stroke:none"
         id="path58"
         inkscape:connector-curvature="0" /><path
         d="m 839.199,159.18 -0.019,0.062 h -6.856 l -11.336,-29.875 -0.05,-0.125 h 6.855 l 2.324,6.629 h 11.016 l 2.258,-6.629 h 7.011 z m 0.156,-18.231 h -7.46 l 3.789,10.676 z"
         style="fill:#1d78c7;fill-opacity:1;fill-rule:nonzero;stroke:none"
         id="path60"
         inkscape:connector-curvature="0" /><path
         d="M 235.441,108.422 H 222.492 V 78.4102 h 12.949 c 8.536,0 13.633,5.6757 13.633,15.1757 0,9.2891 -5.097,14.8361 -13.633,14.8361 z m -6.211,-5.703 h 4.59 c 5.879,0 8.504,-3.0081 8.504,-9.7581 0,-5.539 -2.742,-8.8476 -7.332,-8.8476 h -5.762 v 18.6057"
         style="fill:#1d78c7;fill-opacity:1;fill-rule:nonzero;stroke:none"
         id="path62"
         inkscape:connector-curvature="0" /><path
         d="m 261.797,91.2344 h 14.445 v 5.2812 h -14.445 v 6.2034 h 15.742 v 5.703 H 255.051 V 78.4102 h 22.82 v 5.7031 h -16.074 v 7.1211"
         style="fill:#1d78c7;fill-opacity:1;fill-rule:nonzero;stroke:none"
         id="path64"
         inkscape:connector-curvature="0" /><path
         d="m 323.535,89.9844 0.012,0.1054 h -6.535 L 317.004,90 c -0.539,-4.1875 -2.969,-6.5898 -6.672,-6.5898 -5.898,0 -8.008,5.1054 -8.008,9.8828 0,2.3711 0.586,10.129 8.008,10.129 3.195,0 6.016,-2.258 6.418,-5.129 l 0.008,-0.0899 h 6.535 v 0.1094 c -0.762,6.5705 -5.84,10.8125 -12.961,10.8125 -8.828,0 -14.746,-6.359 -14.746,-15.832 0,-9.1797 6.066,-15.586 14.746,-15.586 7.356,-0.0117 12.531,4.8164 13.203,12.2774"
         style="fill:#1d78c7;fill-opacity:1;fill-rule:nonzero;stroke:none"
         id="path66"
         inkscape:connector-curvature="0" /><path
         d="m 354.922,78.4102 -11.192,29.9418 -0.019,0.07 h -6.856 l -11.347,-29.8751 -0.039,-0.1367 h 6.836 l 2.336,6.6406 h 11.023 l 2.246,-6.6406 z m -11.043,11.7187 h -7.453 l 3.789,10.6761 z"
         style="fill:#1d78c7;fill-opacity:1;fill-rule:nonzero;stroke:none"
         id="path68"
         inkscape:connector-curvature="0" /><path
         d="m 379.68,108.422 h -24.621 v -5.703 h 8.937 V 78.4102 h 6.746 v 24.3088 h 8.938 v 5.703"
         style="fill:#1d78c7;fill-opacity:1;fill-rule:nonzero;stroke:none"
         id="path70"
         inkscape:connector-curvature="0" /><path
         d="m 379.191,78.5469 -0.05,-0.1367 h 6.847 l 2.332,6.6406 h 11.028 l 2.246,-6.6406 h 7.011 l -11.191,29.9418 -0.031,0.07 h -6.844 z m 10.918,11.582 3.789,10.6761 3.661,-10.6761 z"
         style="fill:#1d78c7;fill-opacity:1;fill-rule:nonzero;stroke:none"
         id="path72"
         inkscape:connector-curvature="0" /><path
         d="M 413.332,108.422 V 78.4102 h 21.277 v 5.7031 h -14.531 v 24.3087 h -6.746"
         style="fill:#1d78c7;fill-opacity:1;fill-rule:nonzero;stroke:none"
         id="path74"
         inkscape:connector-curvature="0" /><path
         d="m 456.457,89.7773 c 0,-4.582 -1.699,-6.3671 -6.074,-6.3671 -5.332,0 -6.047,3.2226 -6.047,6.3671 V 108.422 H 437.59 V 89.7773 c 0,-7.9023 4.414,-12.082 12.793,-12.082 8.262,0 12.82,4.2969 12.82,12.082 v 18.6447 h -6.746 V 89.7773"
         style="fill:#1d78c7;fill-opacity:1;fill-rule:nonzero;stroke:none"
         id="path76"
         inkscape:connector-curvature="0" /><path
         d="m 491.152,88.5156 -12.351,19.8554 -0.031,0.051 h -6.661 V 78.4102 h 6.329 v 19.8554 l 12.304,-19.8047 0.031,-0.0507 h 6.7 v 30.0118 h -6.321 V 88.5156"
         style="fill:#1d78c7;fill-opacity:1;fill-rule:nonzero;stroke:none"
         id="path78"
         inkscape:connector-curvature="0" /><path
         d="m 530.695,108.273 0.078,0.149 h -7.519 l -6.887,-11.6915 -6.914,11.6915 h -7.617 l 11.066,-18.3048 v -11.707 h 6.739 l -0.012,11.4843 11.066,18.3785"
         style="fill:#1d78c7;fill-opacity:1;fill-rule:nonzero;stroke:none"
         id="path80"
         inkscape:connector-curvature="0" /><path
         d="m 558.625,78.4102 -11.191,29.9418 -0.02,0.07 h -6.855 l -11.348,-29.8751 -0.039,-0.1367 h 6.836 l 2.344,6.6406 h 11.015 l 2.246,-6.6406 z m -11.047,11.7187 h -7.449 l 3.789,10.6761 z"
         style="fill:#1d78c7;fill-opacity:1;fill-rule:nonzero;stroke:none"
         id="path82"
         inkscape:connector-curvature="0" /><path
         d="m 240.93,43.5469 c 1.355,0.5547 2.422,1.4062 3.172,2.539 0.773,1.1641 1.164,2.5704 1.164,4.1602 0,1.5234 -0.352,2.8242 -1.036,3.8555 -0.695,1.0273 -1.535,1.8593 -2.519,2.4453 -0.461,0.289 -1.008,0.5078 -1.633,0.6406 -0.633,0.1406 -1.316,0.2461 -2.039,0.3125 -0.734,0.0703 -1.476,0.1094 -2.199,0.1289 -0.742,0.0117 -1.426,0.0195 -2.07,0.0195 H 222.863 V 27.6563 h 14.5 c 1.485,0 2.813,0.246 3.938,0.7343 1.14,0.5 2.109,1.1524 2.871,1.9453 0.769,0.7969 1.355,1.7266 1.758,2.7618 0.39,1.0351 0.586,2.1093 0.586,3.2148 0,1.8438 -0.5,3.4375 -1.477,4.7344 -0.957,1.2422 -2.332,2.0898 -4.109,2.5 z m -13.907,-2.2461 h 8.965 c 0.821,0 1.629,-0.0781 2.403,-0.2227 0.75,-0.1484 1.445,-0.414 2.031,-0.7812 0.586,-0.375 1.062,-0.8711 1.406,-1.4961 0.352,-0.6133 0.527,-1.418 0.527,-2.3633 0,-1.6406 -0.488,-2.9297 -1.445,-3.8594 -0.976,-0.9258 -2.336,-1.3945 -4.043,-1.3945 h -9.844 z m 12.637,4.707 c -0.969,-0.7812 -2.578,-1.1719 -4.805,-1.1719 h -7.832 v 9.2774 h 7.832 c 0.848,0 1.661,-0.0508 2.43,-0.1367 0.754,-0.0977 1.426,-0.3125 1.992,-0.6328 0.567,-0.3243 1.016,-0.793 1.34,-1.3907 0.321,-0.5859 0.488,-1.414 0.488,-2.4609 0,-1.5391 -0.488,-2.7227 -1.445,-3.4844"
         style="fill:#1d78c7;fill-opacity:1;fill-rule:nonzero;stroke:none"
         id="path84"
         inkscape:connector-curvature="0" /><path
         d="m 261.301,57.6484 -11.68,-29.9921 h 4.246 l 3.352,8.9765 h 12.469 l 3.234,-8.914 0.019,-0.0625 h 4.59 l -11.718,29.9921 h -4.512 z m 7.07,-17.4921 h -9.836 l 4.961,13.6445 z"
         style="fill:#1d78c7;fill-opacity:1;fill-rule:nonzero;stroke:none"
         id="path86"
         inkscape:connector-curvature="0" /><path
         d="m 306.348,29.5156 c -0.203,0.625 -0.371,1.3164 -0.477,2.0469 -0.117,0.7344 -0.187,1.4688 -0.215,2.1992 -0.031,0.7617 -0.058,1.4961 -0.117,2.2266 -0.078,0.7226 -0.207,1.4258 -0.363,2.0976 -0.145,0.6641 -0.399,1.2891 -0.723,1.836 -0.32,0.5586 -0.769,1.039 -1.316,1.4297 -0.508,0.3672 -1.164,0.6328 -1.934,0.8086 1.719,0.5195 2.996,1.457 3.797,2.7851 0.832,1.3672 1.242,2.9844 1.242,4.8047 0,2.4375 -0.812,4.3828 -2.422,5.7891 -1.621,1.4062 -3.886,2.1093 -6.73,2.1093 H 282.969 V 27.6563 h 4.16 v 12.7265 h 9.59 c 0.957,0 1.719,-0.1484 2.297,-0.4297 0.566,-0.2812 1.035,-0.664 1.375,-1.1328 0.351,-0.4765 0.617,-1.0351 0.781,-1.6797 0.168,-0.664 0.305,-1.3672 0.41,-2.0625 0.137,-0.7187 0.227,-1.4609 0.254,-2.1953 0.019,-0.5273 0.039,-1.0156 0.059,-1.4922 l 0.031,-0.6172 c 0.019,-0.6836 0.086,-1.2578 0.176,-1.789 0.105,-0.5469 0.3,-0.9766 0.593,-1.2969 l 4.7,-0.0391 -0.129,0.1563 c -0.411,0.5 -0.711,1.0625 -0.918,1.7109 z m -19.219,24.5977 h 9.758 c 1.824,0 3.164,-0.457 3.972,-1.3789 0.813,-0.9258 1.231,-2.1367 1.231,-3.6094 0,-1.0664 -0.184,-1.9453 -0.547,-2.6094 -0.371,-0.664 -0.859,-1.2031 -1.473,-1.5937 -0.605,-0.3906 -1.328,-0.6641 -2.148,-0.7969 -0.832,-0.1406 -1.719,-0.207 -2.617,-0.207 h -8.164 v 10.1953 h -0.012"
         style="fill:#1d78c7;fill-opacity:1;fill-rule:nonzero;stroke:none"
         id="path88"
         inkscape:connector-curvature="0" /><path
         d="m 336.23,38.9844 c -0.078,-1.1992 -0.332,-2.3438 -0.742,-3.3985 -0.41,-1.0429 -0.996,-1.9414 -1.707,-2.7031 -0.734,-0.7422 -1.601,-1.3476 -2.597,-1.7656 -0.996,-0.4219 -2.161,-0.6484 -3.45,-0.6484 -1.757,0 -3.289,0.3437 -4.55,1 -1.258,0.664 -2.313,1.5507 -3.114,2.664 -0.812,1.1133 -1.418,2.4297 -1.797,3.9258 -0.39,1.4961 -0.585,3.1133 -0.585,4.8047 0,1.543 0.183,3.0586 0.585,4.4805 0.379,1.4296 0.985,2.7187 1.797,3.8281 0.801,1.1054 1.844,2.0039 3.094,2.6679 1.242,0.6524 2.774,0.9883 4.524,0.9883 2.058,0 3.855,-0.5312 5.351,-1.5742 1.492,-1.0351 2.469,-2.6172 2.91,-4.6992 l 0.02,-0.0781 h 4.148 l -0.019,0.1093 c -0.223,1.6016 -0.703,3.0274 -1.434,4.2266 -0.723,1.2227 -1.652,2.25 -2.734,3.0703 -1.094,0.8086 -2.356,1.4219 -3.742,1.8438 -1.395,0.4218 -2.899,0.6328 -4.454,0.6328 -2.293,0 -4.343,-0.418 -6.113,-1.2383 -1.777,-0.832 -3.281,-1.9648 -4.453,-3.3867 -1.191,-1.418 -2.098,-3.1094 -2.723,-5.0235 -0.605,-1.914 -0.918,-3.9843 -0.918,-6.1406 0,-2.1797 0.293,-4.2383 0.86,-6.125 0.566,-1.8906 1.445,-3.5625 2.586,-4.9609 1.144,-1.3946 2.597,-2.5078 4.328,-3.2969 1.738,-0.793 3.789,-1.2031 6.094,-1.2031 3.828,0 6.875,1.0625 9.089,3.1562 2.207,2.0977 3.516,5.0664 3.907,8.8282 l 0.011,0.1054 h -4.16 l -0.012,-0.0898"
         style="fill:#1d78c7;fill-opacity:1;fill-rule:nonzero;stroke:none"
         id="path90"
         inkscape:connector-curvature="0" /><path
         d="m 351.711,41.3008 h 15.477 v 3.5351 h -15.477 v 9.2774 h 16.602 v 3.5351 H 347.551 V 27.6563 h 20.898 v 3.5273 h -16.738 v 10.1172"
         style="fill:#1d78c7;fill-opacity:1;fill-rule:nonzero;stroke:none"
         id="path92"
         inkscape:connector-curvature="0" /><path
         d="m 380.676,57.6484 h -4.16 V 27.6563 h 19.929 v 3.5273 h -15.769 v 26.4648"
         style="fill:#1d78c7;fill-opacity:1;fill-rule:nonzero;stroke:none"
         id="path94"
         inkscape:connector-curvature="0" /><path
         d="m 423.066,53.5664 c -1.199,1.4453 -2.714,2.6289 -4.5,3.4883 -1.789,0.8672 -3.898,1.3047 -6.261,1.3047 -2.364,0 -4.473,-0.4375 -6.27,-1.3047 -1.777,-0.8594 -3.289,-2.0313 -4.492,-3.4883 -1.199,-1.457 -2.109,-3.1445 -2.703,-5.0195 -0.606,-1.875 -0.91,-3.8594 -0.91,-5.8985 0,-2.0312 0.304,-4.0156 0.91,-5.8906 0.594,-1.8828 1.504,-3.5625 2.703,-5.0156 1.203,-1.457 2.715,-2.6172 4.504,-3.4688 1.785,-0.8593 3.887,-1.289 6.258,-1.289 2.375,0 4.472,0.4297 6.261,1.289 1.786,0.8516 3.301,2.0118 4.5,3.4688 1.204,1.4453 2.11,3.1328 2.707,5.0156 0.594,1.875 0.899,3.8594 0.899,5.8906 0,2.0391 -0.305,4.0235 -0.899,5.8985 -0.597,1.875 -1.503,3.5625 -2.707,5.0195 z M 412.305,30.4805 c -1.785,0 -3.348,0.3515 -4.629,1.0429 -1.289,0.7032 -2.363,1.6407 -3.184,2.7969 -0.82,1.1485 -1.433,2.4688 -1.824,3.9141 -0.383,1.4375 -0.578,2.9297 -0.578,4.414 0,1.5039 0.195,2.9883 0.578,4.4219 0.391,1.4453 1.004,2.7656 1.824,3.918 0.821,1.1523 1.895,2.0898 3.184,2.793 1.289,0.6953 2.844,1.0468 4.629,1.0468 1.777,0 3.332,-0.3515 4.629,-1.0468 1.289,-0.7032 2.363,-1.6407 3.183,-2.793 0.821,-1.1524 1.438,-2.4727 1.817,-3.918 0.382,-1.4336 0.586,-2.918 0.586,-4.4219 0,-1.4843 -0.204,-2.9765 -0.586,-4.414 -0.391,-1.4453 -0.996,-2.7656 -1.817,-3.9141 -0.82,-1.1562 -1.894,-2.0937 -3.183,-2.7969 -1.289,-0.6914 -2.84,-1.0429 -4.629,-1.0429"
         style="fill:#1d78c7;fill-opacity:1;fill-rule:nonzero;stroke:none"
         id="path96"
         inkscape:connector-curvature="0" /><path
         d="m 454.238,33.5859 -15.605,24.0235 -0.02,0.039 H 434.25 V 27.6563 h 3.945 v 23.8203 l 15.508,-23.8203 h 4.492 v 29.9921 h -3.957 V 33.5859"
         style="fill:#1d78c7;fill-opacity:1;fill-rule:nonzero;stroke:none"
         id="path98"
         inkscape:connector-curvature="0" /><path
         d="M 475.773,57.6484 464.094,27.6563 h 4.258 l 3.339,8.9765 h 12.469 l 3.242,-8.914 0.02,-0.0625 h 4.582 l -11.719,29.9921 h -4.512 z m 7.059,-17.4921 H 473 l 4.969,13.6445 z"
         style="fill:#1d78c7;fill-opacity:1;fill-rule:nonzero;stroke:none"
         id="path100"
         inkscape:connector-curvature="0" /><path
         d="m 493.449,51.9375 h 8.926 V 27.6406 h 6.758 v 24.2969 h 8.933 v 5.7031 h -24.617 v -5.7031"
         style="fill:#1d78c7;fill-opacity:1;fill-rule:nonzero;stroke:none"
         id="path102"
         inkscape:connector-curvature="0" /><path
         d="m 530.293,40.4609 h 14.445 v 5.2813 h -14.445 v 6.1953 h 15.734 v 5.7031 h -22.48 v -30 h 22.82 v 5.7032 h -16.074 v 7.1171"
         style="fill:#1d78c7;fill-opacity:1;fill-rule:nonzero;stroke:none"
         id="path104"
         inkscape:connector-curvature="0" /><path
         d="m 572.852,39.2305 c -0.547,-4.1914 -2.969,-6.6016 -6.668,-6.6016 -5.911,0 -8.008,5.1055 -8.008,9.8828 0,2.3828 0.574,10.1367 8.008,10.1367 3.242,0 6.004,-2.207 6.414,-5.1367 l 0.019,-0.0781 h 6.524 l -0.008,0.1055 c -0.754,6.5625 -5.84,10.8125 -12.949,10.8125 -8.829,0 -14.758,-6.3672 -14.758,-15.8282 0,-9.1796 6.066,-15.5859 14.758,-15.5859 7.351,0 12.539,4.8125 13.203,12.2734 v 0.1094 h -6.524 l -0.011,-0.0898"
         style="fill:#1d78c7;fill-opacity:1;fill-rule:nonzero;stroke:none"
         id="path106"
         inkscape:connector-curvature="0" /><path
         d="m 602.813,46.2031 h -11.875 v 11.4375 h -6.747 v -30 h 6.747 V 40.5 h 11.875 V 27.6406 h 6.75 v 30 h -6.75 V 46.2031"
         style="fill:#1d78c7;fill-opacity:1;fill-rule:nonzero;stroke:none"
         id="path108"
         inkscape:connector-curvature="0" /><path
         d="m 95.6172,51.7109 h -3.4766 v -7.2265 h 3.5742 c 2.3047,0 3.2618,1.8164 3.2032,3.7304 -0.0586,1.875 -0.793,3.4961 -3.3008,3.4961 z M 93.418,186.828 C 41.8281,186.828 0,145.012 0,93.4219 0,41.8203 41.8281,0 93.418,0 c 51.594,0 93.418,41.8281 93.418,93.4219 0,51.5901 -41.824,93.4061 -93.418,93.4061 z m 0.3711,-26.367 c 7.3749,0 13.3399,-5.977 13.3399,-13.34 0,-7.363 -5.957,-13.34 -13.3399,-13.34 -7.3516,0 -13.3282,5.977 -13.3282,13.34 0,7.363 5.9766,13.34 13.3282,13.34 z m 0,-31.609 c 7.3749,0 13.3399,-5.95 13.3399,-13.321 0,-7.367 -5.957,-13.343 -13.3399,-13.343 -7.3516,0 -13.3282,5.976 -13.3282,13.343 0,7.371 5.9766,13.321 13.3282,13.321 z m -32.4024,31.609 c 7.3633,0 13.3399,-5.977 13.3399,-13.34 0,-7.363 -5.9766,-13.34 -13.3399,-13.34 -7.3711,0 -13.3398,5.977 -13.3398,13.34 0,7.363 5.9687,13.34 13.3398,13.34 z m 0,-31.609 c 7.3633,0 13.3399,-5.95 13.3399,-13.321 0,-7.367 -5.9766,-13.343 -13.3399,-13.343 -7.3711,0 -13.3398,5.976 -13.3398,13.343 0,7.371 5.9687,13.321 13.3398,13.321 z m 0,-32.434 c 7.3633,0 13.3399,-5.9649 13.3399,-13.3321 0,-7.3593 -5.9766,-13.3359 -13.3399,-13.3359 -7.3711,0 -13.3398,5.9766 -13.3398,13.3359 0,7.3672 5.9687,13.3321 13.3398,13.3321 z M 77.0898,39.7109 c 0,-3.2812 -0.0859,-7.3281 -4.4023,-10.3632 -2.8125,-1.9805 -6.1445,-2.3946 -9.1328,-2.3946 -3.0078,0 -6.3281,0.4141 -9.1484,2.3946 -4.3086,3.0351 -4.4258,7.082 -4.4258,10.3632 v 18.7266 h 8.9843 V 39.7383 c 0.0313,-1.7774 0.1954,-3.1758 1.5821,-4.3086 0.9492,-0.7891 1.7695,-1.043 3.0195,-1.0625 1.2188,0.0195 2.0391,0.2734 2.9883,1.0625 1.3672,1.1328 1.5508,2.5312 1.5898,4.3086 v 18.6992 h 8.9453 V 39.7109 Z M 93.7891,96.418 c 7.3749,0 13.3399,-5.9649 13.3399,-13.3321 0,-7.3593 -5.957,-13.3359 -13.3399,-13.3359 -7.3516,0 -13.3282,5.9766 -13.3282,13.3359 0,7.3672 5.9766,13.3321 13.3282,13.3321 z m 9.5119,-57.0899 c -1.707,-1.2187 -3.6526,-1.6797 -8.6526,-1.6797 L 92.0625,37.707 V 27.6094 h -7.8242 v 30.8281 h 12.9101 c 6.2896,0 10.1876,-3.7891 10.1876,-10.6016 0,-3.6562 -1.438,-6.7109 -4.035,-8.5078 z m 32.226,9.7969 c -3.066,2.5547 -4.277,2.3828 -6.679,2.3828 -4.676,0 -7.93,-3.5547 -7.93,-8.625 0,-5.0859 3.301,-8.6015 7.969,-8.6015 2.539,0 3.801,0.3398 6.64,2.4296 v -7.9882 c -2.949,-1.4336 -4.617,-1.8477 -7.461,-1.8477 -9.316,0 -15.878,6.625 -15.878,16.0078 0,9.3047 6.71,16.2031 15.781,16.2031 2.785,0 4.59,-0.4531 7.558,-1.8984 z M 125.461,69.75 c -7.375,0 -13.34,5.9766 -13.34,13.3359 0,7.3672 5.957,13.3321 13.34,13.3321 7.352,0 13.34,-5.9649 13.34,-13.3321 0,-7.3593 -5.988,-13.3359 -13.34,-13.3359 z m 0,32.438 c -7.375,0 -13.34,5.976 -13.34,13.343 0,7.371 5.957,13.321 13.34,13.321 7.352,0 13.34,-5.95 13.34,-13.321 0,-7.367 -5.988,-13.343 -13.34,-13.343 z m 0,31.601 c -7.375,0 -13.34,5.969 -13.34,13.332 0,7.363 5.957,13.348 13.34,13.348 7.352,0 13.34,-5.985 13.34,-13.348 0,-7.363 -5.988,-13.332 -13.34,-13.332"
         style="fill:#1d78c7;fill-opacity:1;fill-rule:nonzero;stroke:none"
         id="path110"
         inkscape:connector-curvature="0" /></g></g></svg>