<?xml version="1.0" encoding="UTF-8" standalone="no"?>
<!-- Created with Inkscape (http://www.inkscape.org/) -->

<svg
   xmlns:dc="http://purl.org/dc/elements/1.1/"
   xmlns:cc="http://creativecommons.org/ns#"
   xmlns:rdf="http://www.w3.org/1999/02/22-rdf-syntax-ns#"
   xmlns:svg="http://www.w3.org/2000/svg"
   xmlns="http://www.w3.org/2000/svg"
   xmlns:sodipodi="http://sodipodi.sourceforge.net/DTD/sodipodi-0.dtd"
   xmlns:inkscape="http://www.inkscape.org/namespaces/inkscape"
   version="1.1"
   id="svg2"
   width="1641.3356"
   height="568"
   viewBox="0 0 1641.3355 568"
   sodipodi:docname="UPF_logo.svg"
   inkscape:version="0.92.5 (2060ec1f9f, 2020-04-08)">
  <metadata
     id="metadata8">
    <rdf:RDF>
      <cc:Work
         rdf:about="">
        <dc:format>image/svg+xml</dc:format>
        <dc:type
           rdf:resource="http://purl.org/dc/dcmitype/StillImage" />
        <dc:title></dc:title>
      </cc:Work>
    </rdf:RDF>
  </metadata>
  <defs
     id="defs6" />
  <sodipodi:namedview
     pagecolor="#ffffff"
     bordercolor="#666666"
     borderopacity="1"
     objecttolerance="10"
     gridtolerance="10"
     guidetolerance="10"
     inkscape:pageopacity="0"
     inkscape:pageshadow="2"
     inkscape:window-width="1920"
     inkscape:window-height="1016"
     id="namedview4"
     showgrid="false"
     inkscape:zoom="0.5"
     inkscape:cx="890.76736"
     inkscape:cy="217.41279"
     inkscape:window-x="0"
     inkscape:window-y="27"
     inkscape:window-maximized="1"
     inkscape:current-layer="svg2" />
  <path
     style="fill:#d70a26;fill-opacity:1;stroke-width:1.33333337"
     d="M 0,284 V 0 H 284 568.00001 V 284 568 H 284 0 Z m 538.00001,0 V 30 H 284 30 l -0.34205,252.66666 c -0.18813,138.96667 -0.0564,253.41822 0.2928,254.33678 0.50614,1.33146 52.07668,1.60181 254.34205,1.33333 L 538.00001,538 Z M 365.45822,391.59141 c -6.10432,-2.13892 -9.75968,-7.38551 -9.94012,-14.2672 -0.17587,-6.70676 3.68797,-10.65755 10.42297,-10.65755 6.35187,0 9.30252,3.85686 8.2044,10.72414 -0.85411,5.34132 -0.79423,5.4497 2.78108,5.03402 10.62879,-1.23574 16.05183,-21.60274 29.49115,-110.75816 l 6.38135,-42.33333 h -13.05783 c -12.81824,0 -13.04756,-0.0551 -12.4986,-3 0.30757,-1.65 0.60381,-4.05 0.6583,-5.33333 0.0873,-2.05699 1.64883,-2.33334 13.18453,-2.33334 h 13.08544 L 417.80546,203 c 4.08289,-17.59919 10.2038,-31.88059 16.96347,-39.57943 15.54885,-17.70916 45.23108,-13.55296 45.23108,6.3334 0,6.02312 -4.26764,11.2586 -10.06366,12.34593 -8.23816,1.5455 -13.8896,-4.97888 -11.02362,-12.72634 1.47592,-3.98978 -0.81379,-6.7069 -5.65186,-6.7069 -4.6613,0 -8.12649,4.5509 -11.16768,14.66667 -2.43506,8.09968 -6.07302,30.2192 -6.08532,37 l -0.008,4.33333 h 14.14265 c 12.34845,0 14.03997,0.26756 13.33333,2.10906 -0.44513,1.15997 -0.80932,3.55997 -0.80932,5.33333 0,3.21097 -0.0593,3.22428 -14.3894,3.22428 h -14.3894 l -3.04544,19.66055 c -13.74058,88.7057 -31.68426,136.96784 -53.13932,142.92594 -6.09117,1.69154 -6.51231,1.68024 -12.24489,-0.32841 z M 219.19068,389.89094 C 219.63582,388.73097 220,386.33097 220,384.55761 c 0,-2.93725 0.53951,-3.22428 6.0606,-3.22428 9.30414,0 13.57535,-5.98971 17.1142,-24 0.36024,-1.83333 5.44435,-23.74724 11.29802,-48.69757 15.93181,-67.9068 16.79406,-73.36888 12.2928,-77.87015 -5.29095,-5.29095 -13.19723,1.51407 -21.10478,18.16513 -2.54297,5.35476 -5.09049,9.73592 -5.66116,9.73592 -0.57068,0 -2.37116,-1.07986 -4.00108,-2.39969 l -2.96349,-2.39969 5.35507,-10.60031 c 8.191,-16.21403 12.70188,-21.66549 21.11409,-25.51673 13.05392,-5.97628 23.47587,-0.74599 25.25621,12.67493 l 0.89775,6.76757 6.60863,-7.23089 c 12.55801,-13.74047 30.0196,-18.95024 47.06648,-14.04257 9.23172,2.65774 20.40926,13.84666 24.73204,24.75721 2.74086,6.91788 3.16388,10.22687 3.15206,24.65684 -0.012,14.51285 -0.47726,18.05861 -3.60128,27.43788 -6.61281,19.85376 -18.46486,34.53768 -34.07753,42.21985 -7.99992,3.93634 -9.94891,4.3401 -20.84843,4.3191 -10.74154,-0.0207 -12.77234,-0.43559 -19.04653,-3.8911 -6.20003,-3.41465 -13.28103,-11.3318 -15.39084,-17.20821 -0.30493,-0.84931 -0.858,-1.24419 -1.22905,-0.87752 C 271.86286,318.48053 260,370.09406 260,373.99786 c 0,5.51954 3.35724,7.24483 14.19156,7.29307 l 9.5249,0.0424 -1.35375,5.33333 L 281.00896,392 h -31.3138 c -28.00629,0 -31.2283,-0.22278 -30.50448,-2.10906 z m 96.21707,-67.07245 c 18.00415,-8.17772 32.66812,-48.07399 27.25868,-74.16263 -3.05437,-14.73058 -15.45081,-23.06064 -28.92037,-19.43366 -17.12395,4.611 -31.11342,32.24522 -31.44294,62.11113 -0.11,9.96705 0.43512,14.66752 2.15907,18.61787 6.04355,13.84857 17.91636,18.78533 30.94556,12.86729 z M 108.3986,337.80538 c -7.38352,-2.61534 -14.41087,-10.04489 -18.08864,-19.1239 -2.83633,-7.00182 -2.97919,-9.16256 -3.03106,-45.84375 l -0.0544,-38.49561 -3.68659,-3.17106 C 81.19903,229.15924 78.17254,228 75.25902,228 c -4.4476,0 -4.59231,-0.16354 -4.59231,-5.18951 v -5.18951 l 13.66662,-0.94552 c 7.51667,-0.52004 18.11222,-1.42926 23.54566,-2.0205 5.43344,-0.59124 10.65673,-0.77654 11.60732,-0.41176 1.37069,0.52598 1.72066,10.25605 1.69129,47.02214 -0.0403,50.44526 0.35017,53.51302 7.39939,58.13184 2.52213,1.65256 5.26118,2.0988 10.05516,1.63816 16.7043,-1.60508 27.34841,-19.86644 27.84824,-47.77738 0.11093,-6.19188 0.56917,-15.8338 1.0184,-21.4265 C 168.80607,235.55666 164.85448,228 155.03665,228 c -4.19148,0 -4.36998,-0.21263 -4.36998,-5.20503 v -5.20503 L 165,216.65276 c 7.88333,-0.51546 18.8316,-1.42362 24.32948,-2.01814 6.53716,-0.70689 10.57419,-0.60118 11.66667,0.30548 1.28593,1.06723 1.67052,13.29296 1.67052,53.10463 v 51.71821 l 4.1023,3.45187 c 2.25626,1.89852 5.55626,3.45185 7.33334,3.45185 2.88064,0 3.23102,0.57836 3.23102,5.33334 v 5.33333 h -10.3683 c -5.70258,0 -15.39259,0.62999 -21.53336,1.39997 -7.36026,0.92291 -11.6144,0.95063 -12.48366,0.0813 -0.72524,-0.72524 -1.20036,-6.69827 -1.05584,-13.27342 0.17635,-8.0232 -0.25621,-12.27554 -1.3153,-12.9301 -0.96642,-0.59727 -4.41639,1.97844 -8.90078,6.6452 -10.15162,10.56449 -16.70178,15.00222 -26.70302,18.09129 -10.00995,3.09176 -18.7149,3.24169 -26.57447,0.45773 z m 362.77247,0.26776 c -5.68258,-2.45824 -8.5044,-6.9447 -8.5044,-13.52133 0,-12.29176 14.4611,-18.14625 23.64626,-9.57307 6.18604,5.7739 4.96244,17.95799 -2.16739,21.58188 -6.01171,3.05559 -8.6866,3.36742 -12.97447,1.51252 z m 310.02617,156.24259 c -6.5021,-4.33076 -9.5894,-11.48888 -9.5894,-22.23376 0,-16.56429 8.6197,-35.17068 20.0263,-43.22879 9.9264,-7.01244 23.256,-6.06729 28.0134,1.98631 2.8887,4.89019 3.6858,4.81263 5.2019,-0.50616 1.0812,-3.79301 1.868,-4.38581 6.3105,-4.75416 4.3791,-0.36311 4.9744,-0.0888 4.3398,2 -7.6618,25.21665 -14.6123,56.37397 -13.3245,59.72991 1.9872,5.17856 9.1118,1.20781 14.7496,-8.22036 1.7771,-2.97183 3.0793,-3.91023 4.3426,-3.12946 1.446,0.89366 1.1072,2.30476 -1.7054,7.10408 -9.1124,15.54919 -23.662,19.11922 -25.7105,6.30856 -0.4725,-2.95454 -1.2646,-5.3719 -1.7604,-5.3719 -0.4957,0 -2.9143,2.07682 -5.3745,4.61518 -8.666,8.94098 -17.6435,10.94639 -25.5194,5.70055 z m 21.9154,-6.38032 c 8.223,-6.46823 18.1226,-35.34471 16.1401,-47.0794 -1.9152,-11.33587 -12.3536,-15.16901 -20.873,-7.66492 -8.286,7.29848 -15.7131,26.75123 -15.7131,41.15525 0,7.21503 2.5471,14.18404 5.6387,15.42794 4.139,1.66532 11.5173,0.74902 14.8073,-1.83887 z m 129.554,7.78919 c -12.0029,-4.19567 -18.5713,-14.60642 -18.3333,-29.05794 0.3948,-23.97042 17.7891,-42.731 39.5323,-42.63738 14.4526,0.0623 24.0638,8.70474 20.6311,18.55169 -2.4334,6.98044 -11.2348,9.28992 -14.9872,3.93263 -2.2316,-3.18603 -1.651,-5.8402 2.2182,-10.14118 3.3387,-3.71126 1.4679,-6.56889 -5.1081,-7.80256 -14.0765,-2.64076 -27.7354,13.69878 -29.5505,35.34994 -1.4313,17.0719 4.7736,26.74686 17.1535,26.74686 7.9752,0 13.6936,-2.27756 19.5796,-7.79825 4.3988,-4.1258 6.8645,-4.45203 6.8645,-0.90825 0,2.57612 -7.5467,8.59724 -15.3334,12.2337 -7.1421,3.33546 -15.826,3.92191 -22.6667,1.53074 z m 66.0096,-0.43146 c -7.2103,-3.25652 -10.5746,-7.2 -12.8655,-15.08034 -5.1913,-17.85728 5.2612,-41.30544 23.06336,-51.73819 7.9621,-4.66612 21.054,-5.81388 28.4214,-2.49168 9.6641,4.35791 11.1813,16.42623 3.1447,25.01349 -4.8202,5.15042 -16.707,10.5804 -31.0445,14.18143 -6.1991,1.55695 -11.82396,3.38376 -12.49976,4.05957 -2.383,2.38303 0.4593,13.65622 4.44906,17.64602 3.2939,3.29397 4.7879,3.78161 11.5524,3.77072 6.1172,-0.009 9.2008,-0.83363 14.5014,-3.87402 3.7027,-2.12382 7.5262,-4.8182 8.4966,-5.98749 2.1069,-2.53868 4.9999,-2.77341 5.7683,-0.46804 0.6906,2.07161 -6.8908,8.20681 -15.6377,12.65485 -8.4036,4.27343 -20.7064,5.31419 -27.34976,2.31368 z M 1016,458.50656 c 10.7222,-4.94786 15.6297,-9.51318 17.4357,-16.22 1.6115,-5.98483 -0.5778,-10.67866 -6.169,-13.22618 -10.2933,-4.68996 -26.6131,11.65515 -29.41316,29.45888 l -0.9205,5.8526 5.20016,-0.933 c 2.8601,-0.51316 9.1001,-2.73269 13.8668,-4.9323 z m 101.8673,35.71988 c -3.7396,-1.78814 -8.0276,-4.9761 -9.5288,-7.08435 -9.2255,-12.95608 -6.406,-36.10519 6.0905,-50.00428 23.9961,-26.68944 61.6189,-10.2098 55.2219,24.18843 -0.806,4.3339 -2.4455,9.94533 -3.6435,12.46985 -8.9023,18.76012 -31.5404,28.3676 -48.1401,20.43035 z m 27.4643,-8.55978 c 8.0825,-8.146 12.493,-20.40008 12.5971,-35 0.087,-12.26489 -2.8447,-18.30246 -10.2593,-21.12445 -9.5264,-3.6258 -19.6249,1.2496 -25.1922,12.16252 -9.3216,18.27173 -10.3942,37.82009 -2.5368,46.23148 3.3787,3.61687 4.6381,4.06379 11.4517,4.06379 7.362,0 7.8964,-0.24279 13.9395,-6.33334 z m 138.5322,8.64907 c -6.59,-4.38935 -9.5785,-11.43359 -9.5098,-22.41553 0.1052,-16.79624 8.5327,-34.98367 19.9468,-43.04702 9.9264,-7.01244 23.256,-6.06729 28.0133,1.98631 2.8888,4.89019 3.6859,4.81263 5.202,-0.50616 1.0811,-3.79301 1.868,-4.38581 6.3104,-4.75416 4.3786,-0.36307 4.9747,-0.0884 4.3418,2 -3.923,12.94557 -10.8706,40.99381 -12.3243,49.75416 -0.4259,2.56667 -1.0537,5.12204 -1.3952,5.6786 -1.4085,2.29559 1.1869,6.3214 4.0753,6.3214 3.25,0 7.0382,-3.50651 11.0674,-10.24461 1.7122,-2.86334 3.1004,-3.89718 4.2657,-3.17694 3.5684,2.20532 -7.1304,17.02572 -14.4919,20.07495 -7.2674,3.01031 -13.3653,-1.27052 -13.3653,-9.3828 0,-3.71115 -1.5175,-3.24989 -6.6168,2.01125 -8.6659,8.94098 -17.6434,10.94639 -25.5194,5.70055 z m 23.3121,-8.06293 c 8.8457,-9.39135 16.7252,-33.66739 14.7405,-45.4146 -1.9263,-11.40103 -12.3476,-15.14224 -21.0052,-7.54076 -11.1037,9.74921 -19.2839,41.00168 -13.6059,51.98164 2.3198,4.4861 3.6278,5.1418 10.5372,5.28232 4.2056,0.0855 5.9554,-0.72223 9.3334,-4.3086 z m -245.827,7.36125 c -5.5654,-4.50656 -4.9514,-11.15917 4.5706,-49.52253 11.1055,-44.74336 11.2141,-49.42486 1.1472,-49.42486 -2.8162,0 -4.4,-0.65129 -4.4,-1.80938 0,-1.32318 3.6057,-2.13627 13.4185,-3.02587 7.3803,-0.66907 13.6029,-1.03215 13.8282,-0.80687 0.2253,0.2253 -4.6429,20.59286 -10.8183,45.26126 -11.8814,47.4618 -12.7586,54.051 -7.298,54.82404 3.7848,0.53578 8.4908,-3.56779 13.1231,-11.44318 3.3854,-5.75545 4.9082,-6.76836 6.4427,-4.28546 1.162,1.88017 -6.5407,13.62068 -12.1913,18.58196 -5.4266,4.76456 -13.0997,5.4753 -17.8227,1.65089 z m 170.8649,-0.35841 c -5.6567,-6.07171 -4.696,-13.54159 4.9946,-38.8364 6.1536,-16.06255 6.2554,-16.68784 3.3827,-20.78923 -3.3902,-4.84008 -11.3397,-4.08699 -17.7218,1.67887 -8.9937,8.12522 -12.7044,16.91713 -22.9425,54.35778 -1.2944,4.73402 -1.6556,5 -6.7896,5 -4.4647,0 -5.2752,-0.38394 -4.5884,-2.17356 0.4587,-1.19546 3.3279,-11.24546 6.376,-22.33333 6.3959,-23.26624 7.6696,-38.36996 3.3093,-39.24095 -3.3572,-0.67061 -6.7049,2.70496 -10.3988,10.48538 -1.7224,3.62769 -3.5545,6.5958 -4.0714,6.5958 -4.7766,0 3.4577,-17.14406 10.2507,-21.34238 9.7908,-6.05105 16.0452,-1.76834 15.7565,10.78938 -0.1,4.33748 0.046,7.88633 0.3229,7.88633 0.2773,0 1.368,-1.65 2.4238,-3.66667 2.4251,-4.63237 9.6081,-12.00174 14.8155,-15.20001 4.8049,-2.951 12.7413,-3.18607 17.8784,-0.52953 8.8563,4.57976 8.6979,16.20842 -0.5426,39.84102 -6.4715,16.55082 -7.0494,19.6931 -4.0758,22.16095 4.3509,3.61092 10.6677,-0.95776 17.4918,-12.65101 0.9239,-1.58316 2.2239,-2.12148 3.7286,-1.54406 2.0202,0.7752 1.6194,1.9038 -3.1924,8.98943 -3.0264,4.4566 -7.4043,9.26249 -9.7286,10.67975 -5.6654,3.45446 -13.3817,3.38157 -16.6789,-0.15756 z m -576.21376,-1.15888 c 0,-2.27902 0.8334,-2.76343 4.7543,-2.76343 6.491,0 9.4437,-1.8584 11.1054,-6.98976 2.0299,-6.26836 16.1346,-73.14296 16.1377,-76.51365 0,-3.82766 -2.8401,-5.92844 -9.1746,-6.77808 -3.8569,-0.51732 -5.085,-1.22114 -4.5524,-2.60899 0.6106,-1.59125 6.2898,-1.8362 34.8961,-1.50504 31.6804,0.36673 34.5549,0.59905 39.5001,3.19223 10.454,5.48188 13.3562,17.90876 6.7967,29.10182 -3.6585,6.24267 -10.5957,10.50512 -19.7967,12.16364 -2.75,0.4957 -5,1.32107 -5,1.83415 0,0.51308 3.0477,1.71397 6.7726,2.66864 12.7834,3.27629 19.35,14.06472 15.9987,26.28488 -2.6709,9.73916 -8.1305,15.51905 -19.7079,20.86379 -6.0097,2.77438 -8.5545,2.97905 -42.0634,3.38313 -35.3323,0.42605 -35.6666,0.40419 -35.6666,-2.33333 z m 71.5185,-6.9173 c 8.5726,-4.29713 11.5273,-8.71621 12.1431,-18.16154 0.628,-9.63124 -2.4283,-15.75887 -9.7838,-19.61583 -4.2299,-2.21799 -8.2869,-2.82141 -21.5445,-3.20443 -13.0364,-0.37662 -16.3539,-0.10773 -16.4353,1.3319 -0.123,2.17413 -0.489,4.10405 -2.5338,13.35974 -0.864,3.91088 -1.8527,8.6107 -2.1972,10.44403 -0.3444,1.83333 -1.2037,5.51908 -1.9095,8.19055 -2.6869,10.16912 0.7064,11.99994 20.9969,11.32869 12.4305,-0.41124 15.9799,-1.02436 21.2641,-3.67311 z m 2.7807,-49.86052 c 17.1053,-5.07976 22.0474,-25.61784 7.9205,-32.91618 -7.7203,-3.98855 -29.7985,-4.37916 -33.9895,-0.60135 -2.5061,2.25905 -6.0747,14.41371 -8.964,30.53192 l -0.8963,5 h 14.573 c 9.118,0 17.1122,-0.75404 21.3563,-2.01439 z m 127.7855,53.01439 c 4.1647,-13.47708 9.8743,-36.03649 11.1057,-43.87992 1.7063,-10.86872 0.8372,-14.05136 -3.6934,-13.52516 -2.6093,0.30307 -4.5689,2.21829 -7.7812,7.60503 -2.3615,3.95996 -4.5386,7.85996 -4.838,8.66666 -0.3884,1.04634 -1.0168,1.02307 -2.1924,-0.0812 -1.2974,-1.21868 -0.8518,-3.01054 2.0952,-8.42514 7.1332,-13.10602 16.9232,-18.24754 22.6648,-11.90315 1.9122,2.11303 2.4994,4.70271 2.4184,10.66667 -0.059,4.33189 -0.017,7.87616 0.093,7.87616 0.1098,0 2.5532,-3.63676 5.4297,-8.0817 5.6301,-8.69989 11.5053,-13.25164 17.1045,-13.25164 4.8693,0 8.8426,4.3789 8.8426,9.74516 0,6.48819 -2.5314,9.21888 -8.0588,8.69312 -4.2891,-0.40797 -4.6078,-0.7595 -4.6078,-5.08282 0,-10.23302 -6.8502,-5.07904 -15.0337,11.31121 -3.8807,7.77232 -14.9663,40.48925 -14.9663,44.16991 0,1.24258 -1.6918,1.83014 -5.2696,1.83014 h -5.2695 z M 954.66664,364 c 0,-1.90856 0.8889,-2.66667 3.1267,-2.66667 1.7197,0 4.1197,-1.09724 5.3334,-2.43832 1.9484,-2.15296 2.2066,-7.04419 2.2066,-41.79335 0,-36.4332 -0.181,-39.51886 -2.4383,-41.56168 -1.3411,-1.21366 -3.7411,-2.20665 -5.3333,-2.20665 -2.0062,0 -2.8951,-0.81877 -2.8951,-2.66667 0,-2.1909 0.8921,-2.66836 5,-2.67614 2.7501,-0.005 9.0501,-0.39198 14.0001,-0.85947 l 9,-0.85 v 6.19281 c 0,6.80947 1.5275,7.83744 4.624,3.11168 3.2012,-4.88576 11.6123,-8.91888 18.60026,-8.91888 17.2318,0 27.8799,13.553 27.8847,35.49187 0,12.55052 -2.3888,20.51999 -8.1923,27.30009 -10.2672,11.99498 -26.70856,13.877 -35.45666,4.05874 -1.397,-1.56788 -3.047,-2.8507 -3.6667,-2.8507 -1.8173,0 -1.3741,27.21924 0.4733,29.06667 0.88,0.88 4.18,1.6 7.3334,1.6 4.8444,0 5.73326,0.41344 5.73326,2.66667 0,2.56209 -0.88886,2.66666 -22.66666,2.66666 -21.7778,0 -22.6667,-0.10453 -22.6667,-2.66666 z m 51.28426,-35.16303 c 4.3921,-4.39215 6.033,-11.42983 6.0416,-25.91321 0.013,-21.95183 -3.5028,-28.89662 -14.18096,-28.01032 -9.4573,0.78494 -13.5044,12.1166 -12.2084,34.18328 0.3367,5.73401 1.6134,12.36 2.9024,15.06413 3.808,7.98828 11.95066,10.17085 17.44536,4.67612 z m -231.44116,9.32225 c -12.8679,-4.59836 -21.328,-13.85122 -23.9828,-26.23025 -3.8168,-17.79699 4.1238,-34.98396 19.4634,-42.12723 16.8943,-7.8673 37.3219,-0.74376 46.4503,16.19826 2.3317,4.32764 2.8754,7.59614 2.8832,17.33333 0.01,10.69837 -0.3881,12.67632 -3.6558,18.23517 -8.673,14.75376 -26.3542,21.88098 -41.1583,16.59072 z m 19.0175,-7.49256 c 1.3543,-1.83333 3.1348,-6.93333 3.9569,-11.33333 1.9187,-10.27004 0.7056,-33.13893 -2.1343,-40.23656 -4.8734,-12.17981 -17.9829,-10.70043 -21.9303,2.47479 -2.0532,6.85281 -2.1859,36.98272 -0.1921,43.61216 2.2379,7.44116 5.1104,9.66454 11.9015,9.21192 4.5134,-0.30082 6.5262,-1.19455 8.3983,-3.72898 z m 275.30946,7.37578 c -17.7136,-6.31414 -27.2526,-27.02994 -21.5522,-46.80496 1.8112,-6.28332 3.6989,-9.28731 9.2055,-14.64926 8.0634,-7.85161 15.6121,-10.57501 26.7515,-9.65125 13.5257,1.12167 23.2038,11.77191 25.5014,28.06303 l 0.8932,6.33333 h -21.6156 -21.6157 l 0.9626,8.33333 c 1.2732,11.02328 2.1597,13.05659 7.8839,18.08251 7.9981,7.02239 18.9815,4.87879 25.5042,-4.97755 2.0748,-3.13537 4.6531,-5.43829 6.0883,-5.43829 1.3693,0 2.4895,0.3298 2.4895,0.73288 0,2.51059 -4.7669,9.04891 -9.8764,13.54643 -9.174,8.07526 -19.765,10.29922 -30.6202,6.4298 z m 19.3758,-46.75687 c 0.664,-8.3496 -1.5276,-15.15305 -5.9432,-18.44985 -3.4406,-2.56874 -4,-2.62674 -7.3304,-0.75991 -4.6853,2.62627 -6.5341,6.69976 -7.6815,16.92419 l -0.9352,8.33333 h 10.7046 10.7047 z m 48.4542,47.44239 c -3.6496,-1.50954 -8.1975,-6.62507 -9.9112,-11.1481 -0.7902,-2.0854 -1.4222,-13.16766 -1.4222,-24.93726 0,-23.5919 -0.9852,-27.70632 -6.9188,-28.89304 -2.5092,-0.50183 -3.7478,-1.57583 -3.7478,-3.24956 0,-2.0508 1.0181,-2.50171 5.6666,-2.50948 3.1167,-0.005 9.7167,-0.39198 14.6667,-0.85947 l 9,-0.85 v 27.43935 c 0,15.09162 0.5879,28.98577 1.3065,30.87585 2.9001,7.62772 13.0733,7.29656 18.7024,-0.60881 4.0413,-5.6754 6.6578,-18.02388 6.6578,-31.4211 0,-10.33028 -0.4248,-12.74677 -2.7635,-15.71986 -1.5199,-1.93223 -3.9199,-3.51315 -5.3333,-3.51315 -1.681,0 -2.5699,-0.92236 -2.5699,-2.66667 0,-2.30036 0.8889,-2.66666 6.4711,-2.66666 3.5591,0 10.1591,-0.38548 14.6666,-0.85662 l 8.1956,-0.8566 v 30.2776 c 0,17.08842 0.5655,31.33423 1.2982,32.70323 0.714,1.33411 2.814,2.80609 4.6667,3.27108 1.8526,0.465 3.3685,1.68625 3.3685,2.71392 0,1.32356 -2.6247,2.14692 -9,2.82327 -17.8248,1.89101 -16.8601,2.2063 -16.5509,-5.40922 0.4372,-10.76676 -1.3148,-11.66414 -7.9828,-4.08892 -8.4802,9.63407 -19.8837,13.70022 -28.4663,10.15022 z m 217.2202,-0.62318 c -9.5874,-4.17436 -12.9781,-16.35164 -7.1944,-25.83792 3.6878,-6.0486 15.8036,-11.56857 30.0416,-13.68682 l 11.2659,-1.67608 -0.013,-4.78531 c -0.013,-7.33341 -2.3039,-13.98672 -6.0235,-17.48109 -2.6623,-2.50102 -4.8844,-3.17908 -10.5995,-3.23432 -8.6337,-0.0835 -11.6236,1.96613 -8.2714,5.67024 1.2486,1.37974 2.2352,4.6603 2.2352,7.43288 0,4.41529 -0.517,5.17905 -4.6842,6.92021 -4.1364,1.72827 -5.1389,1.72201 -8.5721,-0.0535 -7.8427,-4.05561 -7.0992,-14.6687 1.4227,-20.30822 10.8897,-7.20646 37.2786,-5.32766 45.4854,3.23841 5.9278,6.18715 7.3947,12.69647 7.6068,33.75315 0.1904,18.89112 1.0919,23.05102 4.8318,22.29444 1.7494,-0.35392 1.9096,-0.0423 1.9096,3.7171 0,2.39492 -7.6208,5.93196 -12.7807,5.93196 -2.3408,0 -5.3228,-1.7898 -8.8371,-5.30394 l -5.3038,-5.30396 -4.2975,3.2778 c -8.7943,6.7077 -20.2417,8.91181 -28.2273,5.43489 z m 24.1574,-7.70086 c 1.9266,-0.87784 4.5722,-3.72784 5.8793,-6.33334 2.6568,-5.2963 4.5675,-17.23937 3.2904,-20.56728 -1.9728,-5.14113 -17.2999,0.0451 -21.9261,7.41918 -5.2363,8.34605 -1.1306,21.07752 6.797,21.07752 1.351,0 4.0327,-0.71824 5.9594,-1.59608 z M 1428,290.20665 c 0,-46.54567 -0.1591,-49.93728 -2.4383,-52 -1.341,-1.21367 -3.741,-2.20665 -5.3333,-2.20665 -1.9349,0 -2.8951,-0.8236 -2.8951,-2.48331 0,-2.1604 1.5134,-2.60609 11.6382,-3.42761 6.4009,-0.51938 13.3009,-1.27688 15.3333,-1.68336 L 1448,227.66666 V 252.5 c 0,13.65833 0.5309,24.83333 1.18,24.83333 0.6489,0 2.104,-1.41031 3.2335,-3.13403 4.4258,-6.75468 17.4812,-9.56229 26.6501,-5.73125 5.2381,2.18859 12.1992,9.86884 15.0289,16.58159 3.3326,7.90517 3.9339,21.21705 1.3588,30.0751 -6.6148,22.75404 -33.477,32.15714 -48.1406,16.85159 -2.0954,-2.18699 -4.5686,-3.97633 -5.4962,-3.97633 -0.9274,0 -3.5441,2.7 -5.8145,6 -7.9699,11.58388 -8,11.41918 -8,-43.79335 z m 42.9715,40.33508 c 4.003,-5.38385 5.7529,-21.47888 3.9378,-36.22053 -1.6889,-13.71707 -4.3213,-18.72924 -10.2022,-19.42531 -10.9472,-1.29569 -15.551,5.69023 -16.455,24.96939 -0.7013,14.95749 1.3132,25.2879 6.0228,30.8849 2.9158,3.46526 4.1866,3.99446 8.7676,3.65123 3.9346,-0.2948 6.0406,-1.31992 7.929,-3.85968 z m 109.6952,7.58825 c -5.9582,-2.62998 -8.9048,-6.66974 -9.6432,-13.22045 -1.6298,-14.45907 10.8962,-23.792 36.1698,-26.94973 l 7.4734,-0.93374 v -6.84636 c 0,-13.6413 -8.2016,-21.2724 -20.3943,-18.98505 -5.4096,1.01484 -6.3155,3.53736 -2.8945,8.06019 6.9169,9.14502 -7.4019,18.30013 -14.9312,9.54669 -4.1628,-4.83944 -3.9196,-9.12133 0.8248,-14.52491 4.7322,-5.38977 11.4357,-7.60996 22.9766,-7.60996 16.6902,0 27.8684,6.08878 31.5752,17.19896 0.8538,2.55879 1.5122,13.08326 1.5122,24.17008 0,15.75447 0.3921,19.96322 1.983,21.28354 1.0907,0.90517 2.8907,1.29746 4,0.87177 1.1094,-0.42569 2.017,-0.15337 2.017,0.60516 0,2.97676 -2.7519,6.24892 -6.5935,7.84019 -6.166,2.55401 -12.6305,0.73626 -17.2312,-4.84522 l -3.9365,-4.77568 -4.5443,3.46611 c -9.0033,6.86719 -20.44,9.14491 -28.3612,5.64841 z m 25.7109,-8.21092 c 4.7964,-3.35957 7.2213,-9.60136 7.4299,-19.12509 L 1614,302 l -5.8379,0.26942 c -12.5577,0.57956 -20.5418,10.41691 -17.5306,21.59964 2.1362,7.93367 9.1884,10.64323 15.7461,6.05 z m -951.71096,4.7476 c 0,-2.07408 0.8889,-2.66666 4,-2.66666 2.2223,0 5.1852,-1.18519 6.6667,-2.66667 2.5452,-2.54523 2.6667,-4.44444 2.6667,-41.70332 0,-43.41648 -0.098,-43.9346 -8.6341,-45.53592 -2.8192,-0.52888 -4.6993,-1.65759 -4.6993,-2.82117 0,-1.64563 5.0636,-1.93959 33.4096,-1.93959 19.9519,0 35.7643,0.59292 39.2553,1.47197 8.8508,2.22866 16.1572,9.15763 17.7919,16.87279 4.2235,19.93415 -6.933,30.04776 -36.2117,32.8266 l -15.755,1.49531 0.014,19.29673 c 0.016,21.97125 0.3516,22.70327 10.4177,22.70327 4.8562,0 5.7451,0.41258 5.7451,2.66666 0,2.57995 -0.8889,2.66667 -27.3333,2.66667 -26.4444,0 -27.3333,-0.0867 -27.3333,-2.66667 z m 56,-53.83172 c 7.3781,-3.33048 10.6602,-20.82606 5.8203,-31.0255 -3.7264,-7.85262 -14.3528,-11.04463 -20.4181,-6.13327 -2.7035,2.18913 -2.8942,3.49985 -2.9072,19.97719 -0.01,9.69888 0.354,18.22954 0.8036,18.95702 0.9679,1.56608 11.8652,0.40764 16.7014,-1.77544 z m 116,54.52379 c 0,-1.08603 1.5159,-2.35504 3.3686,-2.82004 1.8526,-0.46499 3.9526,-1.93697 4.6666,-3.27108 0.714,-1.33409 1.2982,-13.47209 1.2982,-26.97331 0,-22.08806 -0.2443,-24.76877 -2.4383,-26.75432 -1.3411,-1.21366 -3.4411,-2.20665 -4.6667,-2.20665 -1.2883,0 -2.2284,-1.05245 -2.2284,-2.49469 0,-2.18255 1.4976,-2.61184 11.9693,-3.43102 6.5831,-0.51498 12.5831,-0.55697 13.3333,-0.0933 0.7503,0.46368 1.3641,4.23072 1.3641,8.37121 v 7.52818 l 6.3333,-6.84874 c 7.0577,-7.632 11.2022,-9.70068 19.4202,-9.69333 7.4013,0.007 13.4591,3.89113 17.0525,10.93471 2.6328,5.16085 3.0554,5.46977 4.3871,3.20701 5.8752,-9.98325 12.3137,-14.14667 21.8769,-14.14667 8.1909,0 14.5801,3.97936 18.2251,11.35094 2.232,4.51394 2.7078,8.8076 3.1545,28.46642 l 0.5261,23.1507 3.8371,2.18264 c 7.8417,4.46064 5.0077,5.51597 -14.8128,5.51597 -15.7037,0 -18.6667,-0.31747 -18.6667,-2 0,-1.1 0.9,-2 2,-2 1.1,0 3.2,-1.2 4.6667,-2.66667 2.4378,-2.43774 2.6667,-4.44444 2.6667,-23.37616 0,-23.59578 -1.3746,-29.24742 -7.4864,-30.7814 -5.3796,-1.35018 -10.0122,1.8283 -13.8392,9.49516 -2.8557,5.72112 -3.3937,8.8826 -3.8085,22.37712 -0.5392,17.54543 0.7706,22.90366 5.9145,24.19468 1.7708,0.44444 3.2196,1.69664 3.2196,2.78267 0,1.64988 -3.0697,1.9746 -18.6667,1.9746 -15.0574,0 -18.6667,-0.35876 -18.6667,-1.85545 0,-1.02051 1.5213,-2.23727 3.3805,-2.70391 1.9764,-0.49604 3.9392,-2.31784 4.7255,-4.38612 1.7048,-4.48391 1.4035,-40.81816 -0.381,-45.93697 -2.5257,-7.24519 -10.5277,-8.64107 -15.9607,-2.78422 -4.8901,5.27146 -6.5463,11.20995 -7.3868,26.48608 -0.9743,17.70804 0.02,22.77276 5.0282,25.62228 7.919,4.50536 5.1269,5.55831 -14.739,5.55831 -15.597,0 -18.6667,-0.32472 -18.6667,-1.9746 z m 420.00006,-0.69207 c 0,-2.07408 0.8889,-2.66666 4,-2.66666 2.2222,0 5.1851,-1.18519 6.6666,-2.66667 2.5453,-2.54523 2.6667,-4.44444 2.6667,-41.70332 0,-43.45257 -0.1263,-44.1158 -8.705,-45.72517 -2.6435,-0.49592 -4.6283,-1.66234 -4.6283,-2.7199 0,-1.54414 7.6384,-1.85161 46,-1.85161 h 46 V 252 c 0,13.3576 -0.2192,14.66666 -2.4556,14.66666 -1.716,0 -2.9444,-1.63145 -4.0784,-5.41622 -2.2763,-7.59779 -9.643,-15.27239 -17.0975,-17.8124 -7.2615,-2.47426 -21.4566,-2.7668 -26.3378,-0.54279 -4.4825,2.04239 -4.8756,4.0984 -4.4169,23.10475 0.4369,18.10177 0.6054,18.32604 11.5562,15.37729 6.8801,-1.8526 9.2069,-4.25587 11.1482,-11.51429 1.114,-4.16482 2.2604,-5.863 3.9583,-5.863 2.1984,0 2.3901,1.71165 2.3901,21.33333 0,20.02543 -0.1544,21.33333 -2.5182,21.33333 -1.8522,0 -2.7652,-1.31608 -3.4518,-4.97545 -0.5133,-2.73651 -1.4978,-6.03029 -2.1878,-7.31953 -2.0199,-3.77406 -8.8084,-6.55526 -14.9171,-6.11135 l -5.5917,0.40633 -0.3681,18.69762 c -0.4381,22.2494 0.017,23.3398 10.1442,24.3129 5.6099,0.53904 6.8905,1.12618 6.8905,3.15912 0,2.35928 -1.5078,2.49703 -27.3333,2.49703 -26.4444,0 -27.3333,-0.0867 -27.3333,-2.66667 z m 256,0.83708 c 0,-1.10106 2.1069,-2.1665 5.2912,-2.67569 3.2413,-0.51831 5.8241,-1.8418 6.6666,-3.41609 0.803,-1.50022 1.3755,-12.84266 1.3755,-27.2487 0,-23.9908 -0.083,-24.73658 -2.9633,-26.75433 -1.6299,-1.14157 -4.3299,-2.0756 -6,-2.0756 -2.1478,0 -3.0367,-0.78059 -3.0367,-2.66667 0,-2.24688 0.892,-2.66816 5.6667,-2.67614 3.1166,-0.005 9.5666,-0.37802 14.3333,-0.82844 l 8.6667,-0.81898 -0.4708,6.95771 c -0.6638,9.81087 1.2869,10.90036 6.3473,3.54521 5.2528,-7.63465 8.8728,-10.17936 14.4808,-10.17936 9.4725,0 14.3432,11.35963 8.2125,19.15352 -4.6973,5.97174 -13.6373,4.12764 -15.2341,-3.14242 -1.3035,-5.93474 -4.0203,-5.04482 -8.1071,2.65557 -2.0709,3.90224 -2.4836,7.77003 -2.5193,23.61203 -0.048,21.53862 0.4439,22.74772 9.7739,23.99913 3.4185,0.45852 5.5168,1.43389 5.5168,2.5644 0,1.47612 -4.582,1.82444 -24,1.82444 -19.451,0 -24,-0.34679 -24,-1.82959 z M 690.22194,179.08829 c -3.5445,-1.21799 -9.3854,-4.85847 -12.9796,-8.08995 -9.5098,-8.55021 -10.4583,-12.81929 -10.6288,-47.83906 -0.078,-15.94254 -0.7528,-30.40652 -1.5223,-32.61407 -1.0984,-3.15077 -2.5871,-4.28888 -7.237,-5.53253 -4.1573,-1.1119 -5.8542,-2.2586 -5.8542,-3.95588 0,-2.22023 1.943,-2.39014 27.3333,-2.39014 26.4444,0 27.3333,0.0867 27.3333,2.66667 0,1.70611 -0.8889,2.66667 -2.4677,2.66667 -4.6447,0 -10.7562,2.88818 -11.5758,5.47056 -0.4506,1.41954 -0.8182,16.88545 -0.817,34.36868 0,35.50158 0.4693,37.94761 8.6057,45.09145 11.7952,10.35635 36.0567,5.60895 43.0176,-8.41753 2.32,-4.67495 2.5706,-8.25262 2.5706,-36.70472 0,-35.52023 -0.075,-35.80254 -10.2118,-38.53212 -3.7304,-1.00451 -5.1216,-2.0895 -5.1216,-3.99438 0,-2.469 1.0068,-2.61528 18,-2.61528 16.9932,0 18,0.14628 18,2.61528 0,1.9044 -1.3906,2.98974 -5.116,3.99288 -8.2062,2.2097 -8.79,4.59167 -9.1656,37.39184 -0.1805,15.76667 -0.6885,30.88547 -1.1288,33.59732 -1.2556,7.73342 -7.6187,16.1105 -15.5666,20.49339 -6.5118,3.59103 -8.1875,3.89737 -23.023,4.20916 -12.133,0.255 -17.5576,-0.19895 -22.4447,-1.87824 z m 311.41806,-0.5752 c -12.74506,-6.30872 -20.01886,-20.77932 -18.51886,-36.84205 1.8006,-19.28279 15.2499,-32.38294 33.16936,-32.30843 16.1974,0.0673 27.0529,10.43807 29.627,28.30405 L 1046.8301,144 h -21.5873 -21.5873 l 0.942,8.33333 c 1.5324,13.55588 8.3426,22.33333 17.328,22.33333 5.8946,0 13.7611,-4.92389 17.0402,-10.666 3.3853,-5.9282 8.61,-7.68297 6.9492,-2.334 -2.1386,6.88803 -9.4281,14.48514 -16.8903,17.60303 -7.2771,3.04057 -20.4486,2.67665 -27.3846,-0.7566 z m 24.6069,-40.67579 c 0.4565,-1.18948 0.1572,-5.77996 -0.665,-10.20106 -1.5666,-8.42403 -5.5557,-14.30291 -9.7053,-14.30291 -6.9115,0 -10.0122,4.87496 -11.3393,17.82788 L 1003.6317,140 h 10.8927 c 8.8165,0 11.0508,-0.4122 11.7225,-2.1627 z M 1122.6667,170 c 0,-8.79279 0.4159,-11.33334 1.8554,-11.33334 1.0205,0 2.2203,1.45376 2.6663,3.23058 1.0776,4.29345 6.8846,11.06064 11.5709,13.48398 5.1342,2.65503 14.533,2.44291 18.2045,-0.41088 3.4064,-2.64768 4.3021,-8.86604 1.9127,-13.27952 -0.9718,-1.79489 -7.0463,-5.57146 -15.3073,-9.51661 -17.6373,-8.42295 -22.2359,-13.25688 -22.2359,-23.37413 0,-8.41528 2.837,-12.80568 10.949,-16.94414 4.4384,-2.26426 6.8893,-2.60125 14.2073,-1.95341 14.6229,1.29451 16.7431,1.31756 19.1771,0.20861 2.1109,-0.96177 2.3333,-0.0963 2.3333,9.07954 0,10.70305 -1.3178,12.59392 -4.5134,6.47598 -3.7351,-7.15088 -9.5308,-11.33162 -16.6581,-12.01648 -5.8018,-0.55748 -7.0582,-0.2084 -10.0624,2.79579 -7.0054,7.00547 -3.7012,12.07167 12.1616,18.64672 6.466,2.68008 13.9878,6.71227 16.7152,8.96041 11.7393,9.67656 8.8147,29.60394 -5.2045,35.46152 -5.6547,2.36267 -17.3388,2.3236 -24.1534,-0.0808 -4.6057,-1.62498 -5.7378,-1.63112 -7.8343,-0.0424 -5.0006,3.78936 -5.784,2.51732 -5.784,-9.39142 z m 118.8225,9.15908 c -5.8997,-4.13226 -6.7538,-8.92127 -6.6635,-37.35987 l 0.084,-26.46588 -5.4549,-0.41 c -6.8024,-0.51128 -6.9159,-2.12373 -0.3843,-5.45593 7.2933,-3.72079 12.6444,-9.7185 17.4331,-19.53972 6.377,-13.07895 8.1631,-11.75035 8.1631,6.07232 v 14.66666 h 8.6666 c 6.6883,0 8.6667,0.44203 8.6667,1.93638 0,1.44406 -2.1187,2.0373 -8.3333,2.33333 l -8.3334,0.39696 -0.3605,26.87755 c -0.3102,23.1241 -0.064,27.17394 1.7619,29 3.1065,3.10649 5.6368,2.62276 10.2117,-1.9522 2.2576,-2.25755 4.9146,-3.75234 5.9582,-3.3519 2.4579,0.9432 -3.0641,9.36028 -8.4861,12.93522 -4.9148,3.24052 -18.4876,3.42821 -22.9293,0.31708 z m 48.143,-1.11218 c -8.2811,-6.9681 -8.0274,-18.88226 0.5749,-26.99526 5.0233,-4.73758 16.3488,-8.79262 28.7929,-10.30919 l 7.6667,-0.93433 v -7.97028 c 0,-9.22123 -2.3446,-14.6555 -7.2962,-16.91159 -4.7334,-2.15677 -12.9566,-2.01033 -16.098,0.28665 -2.4461,1.7887 -2.4585,2.00331 -0.2548,4.43832 5.4636,6.03724 1.0492,15.45988 -7.2426,15.45988 -5.2022,0 -9.1084,-4.41538 -9.1084,-10.29548 0,-9.62596 9.3792,-15.40582 25.0762,-15.45301 13.5694,-0.0408 20.9107,2.09497 26.9262,7.83343 6.7237,6.41408 7.9813,11.81337 7.9901,34.30737 0.013,19.63501 0.922,22.93023 5.8385,21.0436 2.9688,-1.13924 2.7211,1.05809 -0.5945,5.27317 -2.3671,3.00934 -3.7813,3.51315 -9.8619,3.51315 -6.4376,0 -7.4782,-0.43268 -11.1789,-4.64743 l -4.0804,-4.64741 -6.9137,4.29773 c -5.7562,3.5783 -8.5124,4.37848 -16.4644,4.78003 -8.7581,0.44227 -9.9011,0.18753 -13.7717,-3.06935 z m 28.4121,-4.97632 c 5.3612,-2.44276 8.6224,-10.13982 8.6224,-20.3508 0,-8.6307 -0.037,-8.71949 -3.6667,-8.6905 -4.8125,0.0384 -13.6453,4.15469 -17,7.9224 -4.0689,4.56982 -3.7792,16.71641 0.4811,20.16612 3.6386,2.94642 6.644,3.19406 11.5632,0.95278 z m 56.0048,5.09972 c -4.9755,-4.97549 -6.0336,-11.71941 -6.0416,-38.50364 l -0.01,-25 h -5.3333 c -6.7106,0 -6.7974,-1.86558 -0.2424,-5.20968 6.8534,-3.49637 14.5162,-12.23704 18.3726,-20.95693 1.8182,-4.11117 4.0294,-7.16672 5.1863,-7.16672 1.678,0 2.0168,2.46417 2.0168,14.66667 v 14.66666 h 8.6667 c 6.6882,0 8.6666,0.44203 8.6666,1.93638 0,1.44406 -2.1186,2.0373 -8.3333,2.33333 l -8.3333,0.39696 -0.3608,26.95128 -0.3608,26.95127 3.2714,2.14349 c 3.7286,2.44304 7.2488,1.26244 10.63,-3.56497 1.2739,-1.81854 2.7747,-2.52799 4.1951,-1.98292 2.0123,0.77218 1.9703,1.23877 -0.4667,5.17528 -4.613,7.4519 -10.134,10.32657 -19.8326,10.32657 -7.1986,0 -9.0239,-0.49376 -11.6932,-3.16303 z m -604.71576,-0.1449 c 0,-1.08603 1.5158,-2.35504 3.3685,-2.82004 1.8527,-0.46499 3.9527,-1.93698 4.6667,-3.27108 0.714,-1.3341 1.2981,-13.52223 1.2981,-27.08472 0,-26.75324 -0.5397,-28.84956 -7.4285,-28.84956 -2.3492,0 -3.2381,-0.73203 -3.2381,-2.66667 0,-2.25829 0.8889,-2.66667 5.8044,-2.66667 3.1924,0 9.4924,-0.38548 14,-0.85661 l 8.1956,-0.8566 v 7.44459 c 0,4.09452 0.4967,7.75156 1.1038,8.12676 0.6071,0.3752 3.3923,-2.05562 6.1893,-5.4018 5.8488,-6.99698 11.4972,-9.78967 19.8002,-9.78967 7.0315,0 13.5738,3.97379 17.4395,10.59277 2.3398,4.00632 2.7481,7.59479 3.2413,28.4879 l 0.5642,23.90418 3.8224,2.17424 c 7.8264,4.45178 4.984,5.50758 -14.8274,5.50758 -14.569,0 -18.6667,-0.38622 -18.6667,-1.75938 0,-0.96766 1.95,-2.61766 4.3334,-3.66666 l 4.3333,-1.9073 0.3807,-22 c 0.4087,-23.62038 0.088,-26.67458 -3.1446,-29.90676 -2.7215,-2.72153 -9.8071,-2.67854 -13.7504,0.0835 -6.3279,4.43228 -8.0911,11.42569 -8.1231,32.21868 l -0.029,19.06201 3.9916,2.27132 c 8.0037,4.55428 5.2567,5.60462 -14.6582,5.60462 -15.597,0 -18.6667,-0.32472 -18.6667,-1.9746 z m 90.6667,0.20976 c 0,-0.97067 2.25,-2.32067 5,-3 l 5,-1.23516 0.3622,-26.52982 c 0.3178,-23.27948 0.088,-26.83244 -1.8734,-29 -1.2295,-1.3586 -3.3613,-2.47018 -4.7373,-2.47018 -2.2149,0 -4.8859,-3.39831 -3.5829,-4.55846 0.2739,-0.24389 7.248,-0.86858 15.498,-1.3882 l 15,-0.94477 v 31.37011 c 0,30.90549 0.044,31.40085 2.9634,33.44572 1.6298,1.14157 3.9298,2.0756 5.1111,2.0756 1.1813,0 2.1478,0.9 2.1478,2 0,1.69082 -3.1605,2 -20.4445,2 -16.0732,0 -20.4444,-0.37734 -20.4444,-1.76484 z m 74.8029,-2.5685 c -1.0165,-2.38333 -2.9957,-7.03333 -4.3983,-10.33333 -1.4026,-3.3 -3.0847,-7.2 -3.738,-8.66667 -1.5559,-3.49341 -5.8046,-13.49364 -8.144,-19.16901 -5.6593,-13.72905 -9.9637,-20.84629 -12.856,-21.25705 -1.9279,-0.27382 -3,-1.34587 -3,-3 0,-2.42863 1.1291,-2.57394 20,-2.57394 19.1112,0 20,0.11854 20,2.66667 0,1.71981 -0.8888,2.66667 -2.5034,2.66667 -5.9364,0 -7.0439,8.56304 -2.4329,18.81105 1.1191,2.48725 4.1876,9.22576 6.8189,14.97445 2.6313,5.74871 4.7841,10.99871 4.7841,11.66667 0,0.66797 0.5139,1.21449 1.142,1.21449 1.2601,0 12.7112,-28.82482 14.1379,-35.58846 1.1345,-5.37771 -0.8271,-9.09376 -5.6962,-10.79114 -2.0932,-0.7297 -3.8059,-2.29281 -3.8059,-3.47357 0,-1.8202 1.8933,-2.14683 12.4444,-2.14683 11.411,0 12.4445,0.21402 12.4445,2.57682 0,1.41725 -1.1492,2.94156 -2.5538,3.38736 -2.5486,0.8089 -4.5931,5.23017 -21.4412,46.36916 l -6.9622,17 h -6.196 c -5.7222,0 -6.3371,-0.33126 -8.0439,-4.33334 z m 117.19706,2.5 c 0,-1.00833 1.8928,-2.21189 4.2062,-2.67458 7.817,-1.56339 7.7938,-1.47335 7.7938,-30.2751 0,-24.79216 -0.1623,-26.54332 -2.579,-27.83674 -1.4185,-0.75914 -4.1185,-1.38024 -6,-1.38024 -2.5321,0 -3.421,-0.6929 -3.421,-2.66667 0,-2.24688 0.892,-2.66816 5.6667,-2.67615 3.1166,-0.005 9.7166,-0.39197 14.6666,-0.85946 l 9,-0.85 v 8.19281 c 0,4.50604 0.45,8.19173 1,8.19041 0.55,-0.001 2.7174,-2.72074 4.8165,-6.0432 8.9663,-14.1924 24.8502,-13.31101 24.8502,1.37892 0,12.47532 -12.6689,15.92763 -17.3122,4.71763 -2.1208,-5.11992 -3.1057,-5.07979 -6.9304,0.28237 -2.8444,3.98795 -3.1265,5.93719 -3.5397,24.45576 -0.5086,22.79096 -0.1096,23.89039 9.2102,25.3807 3.1439,0.50272 5.2388,1.5693 5.2388,2.66729 0,1.48087 -4.4474,1.82959 -23.3334,1.82959 C 1056.4242,180 1052,179.65238 1052,178.16666 Z M 1181.3333,178 c 0,-1.11111 1.1852,-2 2.6667,-2 1.4667,0 3.8667,-1.2 5.3333,-2.66667 2.463,-2.46295 2.6667,-4.44444 2.6667,-25.93727 0,-25.79484 -0.8886,-29.7738 -6.9189,-30.97984 -5.7374,-1.14748 -5.1629,-5.74956 0.7177,-5.74956 2.456,0 9.056,-0.38804 14.6667,-0.86232 l 10.2012,-0.8623 v 30.8623 c 0,29.08455 0.1536,31.01594 2.6666,33.52899 C 1214.8,174.8 1217.2,176 1218.6667,176 c 1.4814,0 2.6666,0.88889 2.6666,2 0,1.68889 -3.1111,2 -20,2 -16.8889,0 -20,-0.31111 -20,-2 z M 871.27274,88.72726 c -2.063,-2.06297 -3.2727,-4.7961 -3.2727,-7.39393 0,-4.82312 5.1162,-10.66667 9.3389,-10.66667 3.8278,0 10.1594,3.43606 11.1662,6.05974 2.7785,7.24064 -2.3959,15.2736 -9.8385,15.2736 -2.5978,0 -5.3309,-1.20975 -7.3939,-3.27274 z m 319.99996,0 c -5.2555,-5.25552 -4.2459,-12.79934 2.156,-16.10992 5.3914,-2.788 8.8878,-2.42208 12.6319,1.32206 6.6136,6.61358 1.9272,18.0606 -7.3939,18.0606 -2.5979,0 -5.331,-1.20975 -7.394,-3.27274 z"
     id="path817"
     inkscape:connector-curvature="0" />
</svg>
