<?xml version="1.0" encoding="UTF-8" standalone="no"?>
<!DOCTYPE svg PUBLIC "-//W3C//DTD SVG 1.1//EN"
 "http://www.w3.org/Graphics/SVG/1.1/DTD/svg11.dtd">
<!-- Generated by graphviz version 2.43.0 (0)
 -->
<!-- Title: g Pages: 1 -->
<svg width="1698pt" height="601pt"
 viewBox="0.00 0.00 1698.00 601.00" xmlns="http://www.w3.org/2000/svg" xmlns:xlink="http://www.w3.org/1999/xlink">
<g id="graph0" class="graph" transform="scale(1 1) rotate(0) translate(4 597)">
<title>g</title>
<polygon fill="white" stroke="transparent" points="-4,4 -4,-597 1694,-597 1694,4 -4,4"/>
<g id="clust1" class="cluster">
<title>cluster_actionlib</title>
<polygon fill="none" stroke="black" points="1630,-46 1630,-206 1682,-206 1682,-46 1630,-46"/>
</g>
<!-- action&#45;29 -->
<g id="node1" class="node">
<title>action&#45;29</title>
<polygon fill="white" stroke="black" stroke-width="4" points="1674,-198 1638,-198 1638,-162 1674,-162 1674,-198"/>
</g>
<!-- action&#45;68 -->
<g id="node2" class="node">
<title>action&#45;68</title>
<polygon fill="white" stroke="black" stroke-width="4" points="1674,-144 1638,-144 1638,-108 1674,-108 1674,-144"/>
</g>
<!-- action&#45;76 -->
<g id="node3" class="node">
<title>action&#45;76</title>
<polygon fill="#008000" stroke="black" stroke-width="4" points="1674,-90 1638,-90 1638,-54 1674,-54 1674,-90"/>
</g>
<!-- action&#45;1 -->
<g id="node4" class="node">
<title>action&#45;1</title>
<polygon fill="white" stroke="black" points="36,-593 0,-593 0,-557 36,-557 36,-593"/>
</g>
<!-- cluster&#45;0 -->
<g id="node40" class="node">
<title>cluster&#45;0</title>
<polygon fill="black" stroke="black" stroke-width="0" points="90,-557 72,-557 72,-539 90,-539 90,-557"/>
</g>
<!-- action&#45;1&#45;&#45;cluster&#45;0 -->
<g id="edge19" class="edge">
<title>action&#45;1&#45;&#45;cluster&#45;0</title>
<path fill="none" stroke="black" d="M36.32,-567.34C48.01,-562.16 62.91,-555.57 71.94,-551.57"/>
</g>
<!-- action&#45;3 -->
<g id="node5" class="node">
<title>action&#45;3</title>
<polygon fill="white" stroke="black" points="36,-539 0,-539 0,-503 36,-503 36,-539"/>
</g>
<!-- action&#45;3&#45;&#45;cluster&#45;0 -->
<g id="edge20" class="edge">
<title>action&#45;3&#45;&#45;cluster&#45;0</title>
<path fill="none" stroke="black" d="M36.32,-528.66C48.01,-533.84 62.91,-540.43 71.94,-544.43"/>
</g>
<!-- action&#45;4 -->
<g id="node6" class="node">
<title>action&#45;4</title>
<polygon fill="white" stroke="black" points="162,-566 126,-566 126,-530 162,-530 162,-566"/>
</g>
<!-- cluster&#45;1 -->
<g id="node41" class="node">
<title>cluster&#45;1</title>
<polygon fill="black" stroke="black" stroke-width="0" points="216,-530 198,-530 198,-512 216,-512 216,-530"/>
</g>
<!-- action&#45;4&#45;&#45;cluster&#45;1 -->
<g id="edge21" class="edge">
<title>action&#45;4&#45;&#45;cluster&#45;1</title>
<path fill="none" stroke="black" d="M162.32,-540.34C174.01,-535.16 188.91,-528.57 197.94,-524.57"/>
</g>
<!-- action&#45;7 -->
<g id="node7" class="node">
<title>action&#45;7</title>
<polygon fill="white" stroke="black" points="162,-512 126,-512 126,-476 162,-476 162,-512"/>
</g>
<!-- action&#45;7&#45;&#45;cluster&#45;1 -->
<g id="edge22" class="edge">
<title>action&#45;7&#45;&#45;cluster&#45;1</title>
<path fill="none" stroke="black" d="M162.32,-501.66C174.01,-506.84 188.91,-513.43 197.94,-517.43"/>
</g>
<!-- action&#45;8 -->
<g id="node8" class="node">
<title>action&#45;8</title>
<polygon fill="white" stroke="black" points="288,-539 252,-539 252,-503 288,-503 288,-539"/>
</g>
<!-- cluster&#45;4 -->
<g id="node44" class="node">
<title>cluster&#45;4</title>
<polygon fill="black" stroke="black" stroke-width="0" points="342,-503 324,-503 324,-485 342,-485 342,-503"/>
</g>
<!-- action&#45;8&#45;&#45;cluster&#45;4 -->
<g id="edge27" class="edge">
<title>action&#45;8&#45;&#45;cluster&#45;4</title>
<path fill="none" stroke="black" d="M288.32,-513.34C300.01,-508.16 314.91,-501.57 323.94,-497.57"/>
</g>
<!-- action&#45;11 -->
<g id="node9" class="node">
<title>action&#45;11</title>
<polygon fill="white" stroke="black" points="1044,-242 1008,-242 1008,-206 1044,-206 1044,-242"/>
</g>
<!-- cluster&#45;2 -->
<g id="node42" class="node">
<title>cluster&#45;2</title>
<polygon fill="black" stroke="black" stroke-width="0" points="1098,-192 1080,-192 1080,-174 1098,-174 1098,-192"/>
</g>
<!-- action&#45;11&#45;&#45;cluster&#45;2 -->
<g id="edge23" class="edge">
<title>action&#45;11&#45;&#45;cluster&#45;2</title>
<path fill="none" stroke="black" d="M1044.32,-212.36C1056.01,-204.5 1070.91,-194.49 1079.94,-188.42"/>
</g>
<!-- action&#45;13 -->
<g id="node10" class="node">
<title>action&#45;13</title>
<polygon fill="white" stroke="black" points="1044,-188 1008,-188 1008,-152 1044,-152 1044,-188"/>
</g>
<!-- action&#45;13&#45;&#45;cluster&#45;2 -->
<g id="edge24" class="edge">
<title>action&#45;13&#45;&#45;cluster&#45;2</title>
<path fill="none" stroke="black" d="M1044.32,-173.69C1056.01,-176.18 1070.91,-179.36 1079.94,-181.28"/>
</g>
<!-- action&#45;14 -->
<g id="node11" class="node">
<title>action&#45;14</title>
<polygon fill="white" stroke="black" points="1170,-201 1134,-201 1134,-165 1170,-165 1170,-201"/>
</g>
<!-- cluster&#45;3 -->
<g id="node43" class="node">
<title>cluster&#45;3</title>
<polygon fill="black" stroke="black" stroke-width="0" points="1224,-138 1206,-138 1206,-120 1224,-120 1224,-138"/>
</g>
<!-- action&#45;14&#45;&#45;cluster&#45;3 -->
<g id="edge25" class="edge">
<title>action&#45;14&#45;&#45;cluster&#45;3</title>
<path fill="none" stroke="black" d="M1170.32,-167.67C1182.01,-157.32 1196.91,-144.13 1205.94,-136.14"/>
</g>
<!-- action&#45;17 -->
<g id="node12" class="node">
<title>action&#45;17</title>
<polygon fill="white" stroke="black" points="1170,-147 1134,-147 1134,-111 1170,-111 1170,-147"/>
</g>
<!-- action&#45;17&#45;&#45;cluster&#45;3 -->
<g id="edge26" class="edge">
<title>action&#45;17&#45;&#45;cluster&#45;3</title>
<path fill="none" stroke="black" d="M1170.32,-129C1182.01,-129 1196.91,-129 1205.94,-129"/>
</g>
<!-- action&#45;18 -->
<g id="node13" class="node">
<title>action&#45;18</title>
<polygon fill="white" stroke="black" points="1296,-147 1260,-147 1260,-111 1296,-111 1296,-147"/>
</g>
<!-- cluster&#45;13 -->
<g id="node53" class="node">
<title>cluster&#45;13</title>
<polygon fill="black" stroke="black" stroke-width="0" points="1350,-84 1332,-84 1332,-66 1350,-66 1350,-84"/>
</g>
<!-- action&#45;18&#45;&#45;cluster&#45;13 -->
<g id="edge45" class="edge">
<title>action&#45;18&#45;&#45;cluster&#45;13</title>
<path fill="none" stroke="black" d="M1296.32,-113.67C1308.01,-103.32 1322.91,-90.13 1331.94,-82.14"/>
</g>
<!-- action&#45;21 -->
<g id="node14" class="node">
<title>action&#45;21</title>
<polygon fill="white" stroke="black" points="288,-485 252,-485 252,-449 288,-449 288,-485"/>
</g>
<!-- action&#45;21&#45;&#45;cluster&#45;4 -->
<g id="edge28" class="edge">
<title>action&#45;21&#45;&#45;cluster&#45;4</title>
<path fill="none" stroke="black" d="M288.32,-474.66C300.01,-479.84 314.91,-486.43 323.94,-490.43"/>
</g>
<!-- action&#45;22 -->
<g id="node15" class="node">
<title>action&#45;22</title>
<polygon fill="white" stroke="black" points="414,-512 378,-512 378,-476 414,-476 414,-512"/>
</g>
<!-- cluster&#45;5 -->
<g id="node45" class="node">
<title>cluster&#45;5</title>
<polygon fill="black" stroke="black" stroke-width="0" points="468,-476 450,-476 450,-458 468,-458 468,-476"/>
</g>
<!-- action&#45;22&#45;&#45;cluster&#45;5 -->
<g id="edge29" class="edge">
<title>action&#45;22&#45;&#45;cluster&#45;5</title>
<path fill="none" stroke="black" d="M414.32,-486.34C426.01,-481.16 440.91,-474.57 449.94,-470.57"/>
</g>
<!-- action&#45;25 -->
<g id="node16" class="node">
<title>action&#45;25</title>
<polygon fill="white" stroke="black" points="414,-458 378,-458 378,-422 414,-422 414,-458"/>
</g>
<!-- action&#45;25&#45;&#45;cluster&#45;5 -->
<g id="edge30" class="edge">
<title>action&#45;25&#45;&#45;cluster&#45;5</title>
<path fill="none" stroke="black" d="M414.32,-447.66C426.01,-452.84 440.91,-459.43 449.94,-463.43"/>
</g>
<!-- action&#45;26 -->
<g id="node17" class="node">
<title>action&#45;26</title>
<polygon fill="white" stroke="black" points="540,-485 504,-485 504,-449 540,-449 540,-485"/>
</g>
<!-- cluster&#45;6 -->
<g id="node46" class="node">
<title>cluster&#45;6</title>
<polygon fill="black" stroke="black" stroke-width="0" points="594,-449 576,-449 576,-431 594,-431 594,-449"/>
</g>
<!-- action&#45;26&#45;&#45;cluster&#45;6 -->
<g id="edge31" class="edge">
<title>action&#45;26&#45;&#45;cluster&#45;6</title>
<path fill="none" stroke="black" d="M540.32,-459.34C552.01,-454.16 566.91,-447.57 575.94,-443.57"/>
</g>
<!-- action&#45;31 -->
<g id="node18" class="node">
<title>action&#45;31</title>
<polygon fill="white" stroke="black" points="540,-431 504,-431 504,-395 540,-395 540,-431"/>
</g>
<!-- action&#45;31&#45;&#45;cluster&#45;6 -->
<g id="edge32" class="edge">
<title>action&#45;31&#45;&#45;cluster&#45;6</title>
<path fill="none" stroke="black" d="M540.32,-420.66C552.01,-425.84 566.91,-432.43 575.94,-436.43"/>
</g>
<!-- action&#45;32 -->
<g id="node19" class="node">
<title>action&#45;32</title>
<polygon fill="white" stroke="black" points="666,-458 630,-458 630,-422 666,-422 666,-458"/>
</g>
<!-- cluster&#45;7 -->
<g id="node47" class="node">
<title>cluster&#45;7</title>
<polygon fill="black" stroke="black" stroke-width="0" points="720,-422 702,-422 702,-404 720,-404 720,-422"/>
</g>
<!-- action&#45;32&#45;&#45;cluster&#45;7 -->
<g id="edge33" class="edge">
<title>action&#45;32&#45;&#45;cluster&#45;7</title>
<path fill="none" stroke="black" d="M666.32,-432.34C678.01,-427.16 692.91,-420.57 701.94,-416.57"/>
</g>
<!-- action&#45;35 -->
<g id="node20" class="node">
<title>action&#45;35</title>
<polygon fill="white" stroke="black" points="666,-404 630,-404 630,-368 666,-368 666,-404"/>
</g>
<!-- action&#45;35&#45;&#45;cluster&#45;7 -->
<g id="edge34" class="edge">
<title>action&#45;35&#45;&#45;cluster&#45;7</title>
<path fill="none" stroke="black" d="M666.32,-393.66C678.01,-398.84 692.91,-405.43 701.94,-409.43"/>
</g>
<!-- action&#45;36 -->
<g id="node21" class="node">
<title>action&#45;36</title>
<polygon fill="white" stroke="black" points="792,-431 756,-431 756,-395 792,-395 792,-431"/>
</g>
<!-- cluster&#45;8 -->
<g id="node48" class="node">
<title>cluster&#45;8</title>
<polygon fill="black" stroke="black" stroke-width="0" points="846,-395 828,-395 828,-377 846,-377 846,-395"/>
</g>
<!-- action&#45;36&#45;&#45;cluster&#45;8 -->
<g id="edge35" class="edge">
<title>action&#45;36&#45;&#45;cluster&#45;8</title>
<path fill="none" stroke="black" d="M792.32,-405.34C804.01,-400.16 818.91,-393.57 827.94,-389.57"/>
</g>
<!-- action&#45;39 -->
<g id="node22" class="node">
<title>action&#45;39</title>
<polygon fill="white" stroke="black" points="792,-377 756,-377 756,-341 792,-341 792,-377"/>
</g>
<!-- action&#45;39&#45;&#45;cluster&#45;8 -->
<g id="edge36" class="edge">
<title>action&#45;39&#45;&#45;cluster&#45;8</title>
<path fill="none" stroke="black" d="M792.32,-366.66C804.01,-371.84 818.91,-378.43 827.94,-382.43"/>
</g>
<!-- action&#45;40 -->
<g id="node23" class="node">
<title>action&#45;40</title>
<polygon fill="white" stroke="black" points="918,-404 882,-404 882,-368 918,-368 918,-404"/>
</g>
<!-- cluster&#45;9 -->
<g id="node49" class="node">
<title>cluster&#45;9</title>
<polygon fill="black" stroke="black" stroke-width="0" points="972,-368 954,-368 954,-350 972,-350 972,-368"/>
</g>
<!-- action&#45;40&#45;&#45;cluster&#45;9 -->
<g id="edge37" class="edge">
<title>action&#45;40&#45;&#45;cluster&#45;9</title>
<path fill="none" stroke="black" d="M918.32,-378.34C930.01,-373.16 944.91,-366.57 953.94,-362.57"/>
</g>
<!-- action&#45;43 -->
<g id="node24" class="node">
<title>action&#45;43</title>
<polygon fill="white" stroke="black" points="918,-350 882,-350 882,-314 918,-314 918,-350"/>
</g>
<!-- action&#45;43&#45;&#45;cluster&#45;9 -->
<g id="edge38" class="edge">
<title>action&#45;43&#45;&#45;cluster&#45;9</title>
<path fill="none" stroke="black" d="M918.32,-339.66C930.01,-344.84 944.91,-351.43 953.94,-355.43"/>
</g>
<!-- action&#45;44 -->
<g id="node25" class="node">
<title>action&#45;44</title>
<polygon fill="white" stroke="black" points="1044,-377 1008,-377 1008,-341 1044,-341 1044,-377"/>
</g>
<!-- cluster&#45;10 -->
<g id="node50" class="node">
<title>cluster&#45;10</title>
<polygon fill="black" stroke="black" stroke-width="0" points="1098,-334 1080,-334 1080,-316 1098,-316 1098,-334"/>
</g>
<!-- action&#45;44&#45;&#45;cluster&#45;10 -->
<g id="edge39" class="edge">
<title>action&#45;44&#45;&#45;cluster&#45;10</title>
<path fill="none" stroke="black" d="M1044.32,-349.35C1056.01,-342.83 1070.91,-334.53 1079.94,-329.5"/>
</g>
<!-- action&#45;47 -->
<g id="node26" class="node">
<title>action&#45;47</title>
<polygon fill="white" stroke="black" points="1044,-323 1008,-323 1008,-287 1044,-287 1044,-323"/>
</g>
<!-- action&#45;47&#45;&#45;cluster&#45;10 -->
<g id="edge40" class="edge">
<title>action&#45;47&#45;&#45;cluster&#45;10</title>
<path fill="none" stroke="black" d="M1044.32,-310.68C1056.01,-314.51 1070.91,-319.4 1079.94,-322.36"/>
</g>
<!-- action&#45;48 -->
<g id="node27" class="node">
<title>action&#45;48</title>
<polygon fill="white" stroke="black" points="1170,-343 1134,-343 1134,-307 1170,-307 1170,-343"/>
</g>
<!-- cluster&#45;11 -->
<g id="node51" class="node">
<title>cluster&#45;11</title>
<polygon fill="black" stroke="black" stroke-width="0" points="1224,-290 1206,-290 1206,-272 1224,-272 1224,-290"/>
</g>
<!-- action&#45;48&#45;&#45;cluster&#45;11 -->
<g id="edge41" class="edge">
<title>action&#45;48&#45;&#45;cluster&#45;11</title>
<path fill="none" stroke="black" d="M1170.32,-312.51C1182.01,-304.07 1196.91,-293.33 1205.94,-286.82"/>
</g>
<!-- action&#45;51 -->
<g id="node28" class="node">
<title>action&#45;51</title>
<polygon fill="white" stroke="black" points="1170,-289 1134,-289 1134,-253 1170,-253 1170,-289"/>
</g>
<!-- action&#45;51&#45;&#45;cluster&#45;11 -->
<g id="edge42" class="edge">
<title>action&#45;51&#45;&#45;cluster&#45;11</title>
<path fill="none" stroke="black" d="M1170.32,-273.84C1182.01,-275.76 1196.91,-278.2 1205.94,-279.68"/>
</g>
<!-- action&#45;52 -->
<g id="node29" class="node">
<title>action&#45;52</title>
<polygon fill="white" stroke="black" points="1296,-299 1260,-299 1260,-263 1296,-263 1296,-299"/>
</g>
<!-- cluster&#45;12 -->
<g id="node52" class="node">
<title>cluster&#45;12</title>
<polygon fill="black" stroke="black" stroke-width="0" points="1350,-241 1332,-241 1332,-223 1350,-223 1350,-241"/>
</g>
<!-- action&#45;52&#45;&#45;cluster&#45;12 -->
<g id="edge43" class="edge">
<title>action&#45;52&#45;&#45;cluster&#45;12</title>
<path fill="none" stroke="black" d="M1296.32,-267.09C1308.01,-257.7 1322.91,-245.73 1331.94,-238.48"/>
</g>
<!-- action&#45;55 -->
<g id="node30" class="node">
<title>action&#45;55</title>
<polygon fill="white" stroke="black" points="1296,-245 1260,-245 1260,-209 1296,-209 1296,-245"/>
</g>
<!-- action&#45;55&#45;&#45;cluster&#45;12 -->
<g id="edge44" class="edge">
<title>action&#45;55&#45;&#45;cluster&#45;12</title>
<path fill="none" stroke="black" d="M1296.32,-228.42C1308.01,-229.38 1322.91,-230.6 1331.94,-231.34"/>
</g>
<!-- action&#45;56 -->
<g id="node31" class="node">
<title>action&#45;56</title>
<polygon fill="white" stroke="black" points="1422,-250 1386,-250 1386,-214 1422,-214 1422,-250"/>
</g>
<!-- cluster&#45;14 -->
<g id="node54" class="node">
<title>cluster&#45;14</title>
<polygon fill="black" stroke="black" stroke-width="0" points="1476,-189 1458,-189 1458,-171 1476,-171 1476,-189"/>
</g>
<!-- action&#45;56&#45;&#45;cluster&#45;14 -->
<g id="edge47" class="edge">
<title>action&#45;56&#45;&#45;cluster&#45;14</title>
<path fill="none" stroke="black" d="M1422.32,-217.24C1434.01,-207.27 1448.91,-194.57 1457.94,-186.88"/>
</g>
<!-- action&#45;59 -->
<g id="node32" class="node">
<title>action&#45;59</title>
<polygon fill="white" stroke="black" points="1296,-93 1260,-93 1260,-57 1296,-57 1296,-93"/>
</g>
<!-- action&#45;59&#45;&#45;cluster&#45;13 -->
<g id="edge46" class="edge">
<title>action&#45;59&#45;&#45;cluster&#45;13</title>
<path fill="none" stroke="black" d="M1296.32,-75C1308.01,-75 1322.91,-75 1331.94,-75"/>
</g>
<!-- action&#45;60 -->
<g id="node33" class="node">
<title>action&#45;60</title>
<polygon fill="white" stroke="black" points="1422,-93 1386,-93 1386,-57 1422,-57 1422,-93"/>
</g>
<!-- cluster&#45;16 -->
<g id="node56" class="node">
<title>cluster&#45;16</title>
<polygon fill="black" stroke="black" stroke-width="0" points="1476,-81 1458,-81 1458,-63 1476,-63 1476,-81"/>
</g>
<!-- action&#45;60&#45;&#45;cluster&#45;16 -->
<g id="edge51" class="edge">
<title>action&#45;60&#45;&#45;cluster&#45;16</title>
<path fill="none" stroke="black" d="M1422.32,-74.15C1434.01,-73.57 1448.91,-72.84 1457.94,-72.4"/>
</g>
<!-- action&#45;63 -->
<g id="node34" class="node">
<title>action&#45;63</title>
<polygon fill="white" stroke="black" points="1422,-196 1386,-196 1386,-160 1422,-160 1422,-196"/>
</g>
<!-- action&#45;63&#45;&#45;cluster&#45;14 -->
<g id="edge48" class="edge">
<title>action&#45;63&#45;&#45;cluster&#45;14</title>
<path fill="none" stroke="black" d="M1422.32,-178.57C1434.01,-178.95 1448.91,-179.44 1457.94,-179.74"/>
</g>
<!-- action&#45;64 -->
<g id="node35" class="node">
<title>action&#45;64</title>
<polygon fill="white" stroke="black" points="1548,-198 1512,-198 1512,-162 1548,-162 1548,-198"/>
</g>
<!-- cluster&#45;15 -->
<g id="node55" class="node">
<title>cluster&#45;15</title>
<polygon fill="black" stroke="black" stroke-width="0" points="1602,-135 1584,-135 1584,-117 1602,-117 1602,-135"/>
</g>
<!-- action&#45;64&#45;&#45;cluster&#45;15 -->
<g id="edge49" class="edge">
<title>action&#45;64&#45;&#45;cluster&#45;15</title>
<path fill="none" stroke="black" d="M1548.32,-164.67C1560.01,-154.32 1574.91,-141.13 1583.94,-133.14"/>
</g>
<!-- action&#45;67 -->
<g id="node36" class="node">
<title>action&#45;67</title>
<polygon fill="white" stroke="black" points="1548,-144 1512,-144 1512,-108 1548,-108 1548,-144"/>
</g>
<!-- action&#45;67&#45;&#45;cluster&#45;15 -->
<g id="edge50" class="edge">
<title>action&#45;67&#45;&#45;cluster&#45;15</title>
<path fill="none" stroke="black" d="M1548.32,-126C1560.01,-126 1574.91,-126 1583.94,-126"/>
</g>
<!-- action&#45;71 -->
<g id="node37" class="node">
<title>action&#45;71</title>
<polygon fill="white" stroke="black" points="1422,-39 1386,-39 1386,-3 1422,-3 1422,-39"/>
</g>
<!-- action&#45;71&#45;&#45;cluster&#45;16 -->
<g id="edge52" class="edge">
<title>action&#45;71&#45;&#45;cluster&#45;16</title>
<path fill="none" stroke="black" d="M1422.32,-35.48C1434.01,-45.26 1448.91,-57.71 1457.94,-65.26"/>
</g>
<!-- action&#45;72 -->
<g id="node38" class="node">
<title>action&#45;72</title>
<polygon fill="#c9211e" stroke="black" points="1548,-90 1512,-90 1512,-54 1548,-54 1548,-90"/>
</g>
<!-- cluster&#45;17 -->
<g id="node57" class="node">
<title>cluster&#45;17</title>
<polygon fill="black" stroke="black" stroke-width="0" points="1602,-81 1584,-81 1584,-63 1602,-63 1602,-81"/>
</g>
<!-- action&#45;72&#45;&#45;cluster&#45;17 -->
<g id="edge53" class="edge">
<title>action&#45;72&#45;&#45;cluster&#45;17</title>
<path fill="none" stroke="black" d="M1548.32,-72C1560.01,-72 1574.91,-72 1583.94,-72"/>
</g>
<!-- action&#45;75 -->
<g id="node39" class="node">
<title>action&#45;75</title>
<polygon fill="#00008b" stroke="black" points="1548,-36 1512,-36 1512,0 1548,0 1548,-36"/>
</g>
<!-- action&#45;75&#45;&#45;cluster&#45;17 -->
<g id="edge54" class="edge">
<title>action&#45;75&#45;&#45;cluster&#45;17</title>
<path fill="none" stroke="black" d="M1548.32,-33.33C1560.01,-43.68 1574.91,-56.87 1583.94,-64.86"/>
</g>
<!-- cluster&#45;0&#45;&#45;action&#45;4 -->
<g id="edge1" class="edge">
<title>cluster&#45;0&#45;&#45;action&#45;4</title>
<path fill="none" stroke="black" d="M90.23,-548C99.33,-548 114.26,-548 125.92,-548"/>
</g>
<!-- cluster&#45;1&#45;&#45;action&#45;8 -->
<g id="edge2" class="edge">
<title>cluster&#45;1&#45;&#45;action&#45;8</title>
<path fill="none" stroke="black" d="M216.23,-521C225.33,-521 240.26,-521 251.92,-521"/>
</g>
<!-- cluster&#45;2&#45;&#45;action&#45;14 -->
<g id="edge3" class="edge">
<title>cluster&#45;2&#45;&#45;action&#45;14</title>
<path fill="none" stroke="black" d="M1098.23,-183C1107.33,-183 1122.26,-183 1133.92,-183"/>
</g>
<!-- cluster&#45;3&#45;&#45;action&#45;18 -->
<g id="edge4" class="edge">
<title>cluster&#45;3&#45;&#45;action&#45;18</title>
<path fill="none" stroke="black" d="M1224.23,-129C1233.33,-129 1248.26,-129 1259.92,-129"/>
</g>
<!-- cluster&#45;4&#45;&#45;action&#45;22 -->
<g id="edge5" class="edge">
<title>cluster&#45;4&#45;&#45;action&#45;22</title>
<path fill="none" stroke="black" d="M342.23,-494C351.33,-494 366.26,-494 377.92,-494"/>
</g>
<!-- cluster&#45;5&#45;&#45;action&#45;26 -->
<g id="edge6" class="edge">
<title>cluster&#45;5&#45;&#45;action&#45;26</title>
<path fill="none" stroke="black" d="M468.23,-467C477.33,-467 492.26,-467 503.92,-467"/>
</g>
<!-- cluster&#45;6&#45;&#45;action&#45;32 -->
<g id="edge7" class="edge">
<title>cluster&#45;6&#45;&#45;action&#45;32</title>
<path fill="none" stroke="black" d="M594.23,-440C603.33,-440 618.26,-440 629.92,-440"/>
</g>
<!-- cluster&#45;7&#45;&#45;action&#45;36 -->
<g id="edge8" class="edge">
<title>cluster&#45;7&#45;&#45;action&#45;36</title>
<path fill="none" stroke="black" d="M720.23,-413C729.33,-413 744.26,-413 755.92,-413"/>
</g>
<!-- cluster&#45;8&#45;&#45;action&#45;40 -->
<g id="edge9" class="edge">
<title>cluster&#45;8&#45;&#45;action&#45;40</title>
<path fill="none" stroke="black" d="M846.23,-386C855.33,-386 870.26,-386 881.92,-386"/>
</g>
<!-- cluster&#45;9&#45;&#45;action&#45;44 -->
<g id="edge10" class="edge">
<title>cluster&#45;9&#45;&#45;action&#45;44</title>
<path fill="none" stroke="black" d="M972.23,-359C981.33,-359 996.26,-359 1007.92,-359"/>
</g>
<!-- cluster&#45;10&#45;&#45;action&#45;48 -->
<g id="edge11" class="edge">
<title>cluster&#45;10&#45;&#45;action&#45;48</title>
<path fill="none" stroke="black" d="M1098.23,-325C1107.33,-325 1122.26,-325 1133.92,-325"/>
</g>
<!-- cluster&#45;11&#45;&#45;action&#45;52 -->
<g id="edge12" class="edge">
<title>cluster&#45;11&#45;&#45;action&#45;52</title>
<path fill="none" stroke="black" d="M1224.23,-281C1233.33,-281 1248.26,-281 1259.92,-281"/>
</g>
<!-- cluster&#45;12&#45;&#45;action&#45;56 -->
<g id="edge13" class="edge">
<title>cluster&#45;12&#45;&#45;action&#45;56</title>
<path fill="none" stroke="black" d="M1350.23,-232C1359.33,-232 1374.26,-232 1385.92,-232"/>
</g>
<!-- cluster&#45;13&#45;&#45;action&#45;60 -->
<g id="edge14" class="edge">
<title>cluster&#45;13&#45;&#45;action&#45;60</title>
<path fill="none" stroke="black" d="M1350.23,-75C1359.33,-75 1374.26,-75 1385.92,-75"/>
</g>
<!-- cluster&#45;14&#45;&#45;action&#45;64 -->
<g id="edge15" class="edge">
<title>cluster&#45;14&#45;&#45;action&#45;64</title>
<path fill="none" stroke="black" d="M1476.23,-180C1485.33,-180 1500.26,-180 1511.92,-180"/>
</g>
<!-- cluster&#45;15&#45;&#45;action&#45;68 -->
<g id="edge16" class="edge">
<title>cluster&#45;15&#45;&#45;action&#45;68</title>
<path fill="none" stroke="black" d="M1602.23,-126C1611.33,-126 1626.26,-126 1637.92,-126"/>
</g>
<!-- cluster&#45;16&#45;&#45;action&#45;72 -->
<g id="edge17" class="edge">
<title>cluster&#45;16&#45;&#45;action&#45;72</title>
<path fill="none" stroke="black" d="M1476.23,-72C1485.33,-72 1500.26,-72 1511.92,-72"/>
</g>
<!-- cluster&#45;17&#45;&#45;action&#45;76 -->
<g id="edge18" class="edge">
<title>cluster&#45;17&#45;&#45;action&#45;76</title>
<path fill="none" stroke="black" d="M1602.23,-72C1611.33,-72 1626.26,-72 1637.92,-72"/>
</g>
</g>
</svg>
