<?xml version="1.0" encoding="UTF-8" standalone="no"?>
<!DOCTYPE svg PUBLIC "-//W3C//DTD SVG 1.1//EN"
 "http://www.w3.org/Graphics/SVG/1.1/DTD/svg11.dtd">
<!-- Generated by graphviz version 2.43.0 (0)
 -->
<!-- Title: g Pages: 1 -->
<svg width="1446pt" height="382pt"
 viewBox="0.00 0.00 1446.00 382.00" xmlns="http://www.w3.org/2000/svg" xmlns:xlink="http://www.w3.org/1999/xlink">
<g id="graph0" class="graph" transform="scale(1 1) rotate(0) translate(4 378)">
<title>g</title>
<polygon fill="white" stroke="transparent" points="-4,4 -4,-378 1442,-378 1442,4 -4,4"/>
<g id="clust1" class="cluster">
<title>cluster_actionlib</title>
<polygon fill="none" stroke="black" points="1378,-36 1378,-196 1430,-196 1430,-36 1378,-36"/>
</g>
<!-- action&#45;18 -->
<g id="node1" class="node">
<title>action&#45;18</title>
<polygon fill="white" stroke="black" stroke-width="4" points="1422,-188 1386,-188 1386,-152 1422,-152 1422,-188"/>
</g>
<!-- action&#45;29 -->
<g id="node2" class="node">
<title>action&#45;29</title>
<polygon fill="white" stroke="black" stroke-width="4" points="1422,-134 1386,-134 1386,-98 1422,-98 1422,-134"/>
</g>
<!-- action&#45;56 -->
<g id="node3" class="node">
<title>action&#45;56</title>
<polygon fill="#008000" stroke="black" stroke-width="4" points="1422,-80 1386,-80 1386,-44 1422,-44 1422,-80"/>
</g>
<!-- action&#45;1 -->
<g id="node4" class="node">
<title>action&#45;1</title>
<polygon fill="white" stroke="black" points="36,-374 0,-374 0,-338 36,-338 36,-374"/>
</g>
<!-- cluster&#45;0 -->
<g id="node30" class="node">
<title>cluster&#45;0</title>
<polygon fill="black" stroke="black" stroke-width="0" points="90,-338 72,-338 72,-320 90,-320 90,-338"/>
</g>
<!-- action&#45;1&#45;&#45;cluster&#45;0 -->
<g id="edge14" class="edge">
<title>action&#45;1&#45;&#45;cluster&#45;0</title>
<path fill="none" stroke="black" d="M36.32,-348.34C48.01,-343.16 62.91,-336.57 71.94,-332.57"/>
</g>
<!-- action&#45;3 -->
<g id="node5" class="node">
<title>action&#45;3</title>
<polygon fill="white" stroke="black" points="36,-320 0,-320 0,-284 36,-284 36,-320"/>
</g>
<!-- action&#45;3&#45;&#45;cluster&#45;0 -->
<g id="edge15" class="edge">
<title>action&#45;3&#45;&#45;cluster&#45;0</title>
<path fill="none" stroke="black" d="M36.32,-309.66C48.01,-314.84 62.91,-321.43 71.94,-325.43"/>
</g>
<!-- action&#45;4 -->
<g id="node6" class="node">
<title>action&#45;4</title>
<polygon fill="white" stroke="black" points="162,-347 126,-347 126,-311 162,-311 162,-347"/>
</g>
<!-- cluster&#45;1 -->
<g id="node31" class="node">
<title>cluster&#45;1</title>
<polygon fill="black" stroke="black" stroke-width="0" points="216,-311 198,-311 198,-293 216,-293 216,-311"/>
</g>
<!-- action&#45;4&#45;&#45;cluster&#45;1 -->
<g id="edge16" class="edge">
<title>action&#45;4&#45;&#45;cluster&#45;1</title>
<path fill="none" stroke="black" d="M162.32,-321.34C174.01,-316.16 188.91,-309.57 197.94,-305.57"/>
</g>
<!-- action&#45;7 -->
<g id="node7" class="node">
<title>action&#45;7</title>
<polygon fill="white" stroke="black" points="162,-293 126,-293 126,-257 162,-257 162,-293"/>
</g>
<!-- action&#45;7&#45;&#45;cluster&#45;1 -->
<g id="edge17" class="edge">
<title>action&#45;7&#45;&#45;cluster&#45;1</title>
<path fill="none" stroke="black" d="M162.32,-282.66C174.01,-287.84 188.91,-294.43 197.94,-298.43"/>
</g>
<!-- action&#45;8 -->
<g id="node8" class="node">
<title>action&#45;8</title>
<polygon fill="white" stroke="black" points="288,-320 252,-320 252,-284 288,-284 288,-320"/>
</g>
<!-- cluster&#45;4 -->
<g id="node34" class="node">
<title>cluster&#45;4</title>
<polygon fill="black" stroke="black" stroke-width="0" points="342,-284 324,-284 324,-266 342,-266 342,-284"/>
</g>
<!-- action&#45;8&#45;&#45;cluster&#45;4 -->
<g id="edge22" class="edge">
<title>action&#45;8&#45;&#45;cluster&#45;4</title>
<path fill="none" stroke="black" d="M288.32,-294.34C300.01,-289.16 314.91,-282.57 323.94,-278.57"/>
</g>
<!-- action&#45;11 -->
<g id="node9" class="node">
<title>action&#45;11</title>
<polygon fill="white" stroke="black" points="1170,-266 1134,-266 1134,-230 1170,-230 1170,-266"/>
</g>
<!-- cluster&#45;2 -->
<g id="node32" class="node">
<title>cluster&#45;2</title>
<polygon fill="black" stroke="black" stroke-width="0" points="1224,-223 1206,-223 1206,-205 1224,-205 1224,-223"/>
</g>
<!-- action&#45;11&#45;&#45;cluster&#45;2 -->
<g id="edge18" class="edge">
<title>action&#45;11&#45;&#45;cluster&#45;2</title>
<path fill="none" stroke="black" d="M1170.32,-238.35C1182.01,-231.83 1196.91,-223.53 1205.94,-218.5"/>
</g>
<!-- action&#45;13 -->
<g id="node10" class="node">
<title>action&#45;13</title>
<polygon fill="white" stroke="black" points="1170,-212 1134,-212 1134,-176 1170,-176 1170,-212"/>
</g>
<!-- action&#45;13&#45;&#45;cluster&#45;2 -->
<g id="edge19" class="edge">
<title>action&#45;13&#45;&#45;cluster&#45;2</title>
<path fill="none" stroke="black" d="M1170.32,-199.68C1182.01,-203.51 1196.91,-208.4 1205.94,-211.36"/>
</g>
<!-- action&#45;14 -->
<g id="node11" class="node">
<title>action&#45;14</title>
<polygon fill="white" stroke="black" points="1296,-232 1260,-232 1260,-196 1296,-196 1296,-232"/>
</g>
<!-- cluster&#45;3 -->
<g id="node33" class="node">
<title>cluster&#45;3</title>
<polygon fill="black" stroke="black" stroke-width="0" points="1350,-179 1332,-179 1332,-161 1350,-161 1350,-179"/>
</g>
<!-- action&#45;14&#45;&#45;cluster&#45;3 -->
<g id="edge20" class="edge">
<title>action&#45;14&#45;&#45;cluster&#45;3</title>
<path fill="none" stroke="black" d="M1296.32,-201.51C1308.01,-193.07 1322.91,-182.33 1331.94,-175.82"/>
</g>
<!-- action&#45;17 -->
<g id="node12" class="node">
<title>action&#45;17</title>
<polygon fill="white" stroke="black" points="1296,-178 1260,-178 1260,-142 1296,-142 1296,-178"/>
</g>
<!-- action&#45;17&#45;&#45;cluster&#45;3 -->
<g id="edge21" class="edge">
<title>action&#45;17&#45;&#45;cluster&#45;3</title>
<path fill="none" stroke="black" d="M1296.32,-162.84C1308.01,-164.76 1322.91,-167.2 1331.94,-168.68"/>
</g>
<!-- action&#45;21 -->
<g id="node13" class="node">
<title>action&#45;21</title>
<polygon fill="white" stroke="black" points="288,-266 252,-266 252,-230 288,-230 288,-266"/>
</g>
<!-- action&#45;21&#45;&#45;cluster&#45;4 -->
<g id="edge23" class="edge">
<title>action&#45;21&#45;&#45;cluster&#45;4</title>
<path fill="none" stroke="black" d="M288.32,-255.66C300.01,-260.84 314.91,-267.43 323.94,-271.43"/>
</g>
<!-- action&#45;22 -->
<g id="node14" class="node">
<title>action&#45;22</title>
<polygon fill="white" stroke="black" points="414,-293 378,-293 378,-257 414,-257 414,-293"/>
</g>
<!-- cluster&#45;5 -->
<g id="node35" class="node">
<title>cluster&#45;5</title>
<polygon fill="black" stroke="black" stroke-width="0" points="468,-257 450,-257 450,-239 468,-239 468,-257"/>
</g>
<!-- action&#45;22&#45;&#45;cluster&#45;5 -->
<g id="edge24" class="edge">
<title>action&#45;22&#45;&#45;cluster&#45;5</title>
<path fill="none" stroke="black" d="M414.32,-267.34C426.01,-262.16 440.91,-255.57 449.94,-251.57"/>
</g>
<!-- action&#45;25 -->
<g id="node15" class="node">
<title>action&#45;25</title>
<polygon fill="white" stroke="black" points="414,-239 378,-239 378,-203 414,-203 414,-239"/>
</g>
<!-- action&#45;25&#45;&#45;cluster&#45;5 -->
<g id="edge25" class="edge">
<title>action&#45;25&#45;&#45;cluster&#45;5</title>
<path fill="none" stroke="black" d="M414.32,-228.66C426.01,-233.84 440.91,-240.43 449.94,-244.43"/>
</g>
<!-- action&#45;26 -->
<g id="node16" class="node">
<title>action&#45;26</title>
<polygon fill="white" stroke="black" points="540,-266 504,-266 504,-230 540,-230 540,-266"/>
</g>
<!-- cluster&#45;6 -->
<g id="node36" class="node">
<title>cluster&#45;6</title>
<polygon fill="black" stroke="black" stroke-width="0" points="594,-230 576,-230 576,-212 594,-212 594,-230"/>
</g>
<!-- action&#45;26&#45;&#45;cluster&#45;6 -->
<g id="edge26" class="edge">
<title>action&#45;26&#45;&#45;cluster&#45;6</title>
<path fill="none" stroke="black" d="M540.32,-240.34C552.01,-235.16 566.91,-228.57 575.94,-224.57"/>
</g>
<!-- action&#45;31 -->
<g id="node17" class="node">
<title>action&#45;31</title>
<polygon fill="white" stroke="black" points="540,-212 504,-212 504,-176 540,-176 540,-212"/>
</g>
<!-- action&#45;31&#45;&#45;cluster&#45;6 -->
<g id="edge27" class="edge">
<title>action&#45;31&#45;&#45;cluster&#45;6</title>
<path fill="none" stroke="black" d="M540.32,-201.66C552.01,-206.84 566.91,-213.43 575.94,-217.43"/>
</g>
<!-- action&#45;32 -->
<g id="node18" class="node">
<title>action&#45;32</title>
<polygon fill="white" stroke="black" points="666,-239 630,-239 630,-203 666,-203 666,-239"/>
</g>
<!-- cluster&#45;7 -->
<g id="node37" class="node">
<title>cluster&#45;7</title>
<polygon fill="black" stroke="black" stroke-width="0" points="720,-203 702,-203 702,-185 720,-185 720,-203"/>
</g>
<!-- action&#45;32&#45;&#45;cluster&#45;7 -->
<g id="edge28" class="edge">
<title>action&#45;32&#45;&#45;cluster&#45;7</title>
<path fill="none" stroke="black" d="M666.32,-213.34C678.01,-208.16 692.91,-201.57 701.94,-197.57"/>
</g>
<!-- action&#45;35 -->
<g id="node19" class="node">
<title>action&#45;35</title>
<polygon fill="white" stroke="black" points="666,-185 630,-185 630,-149 666,-149 666,-185"/>
</g>
<!-- action&#45;35&#45;&#45;cluster&#45;7 -->
<g id="edge29" class="edge">
<title>action&#45;35&#45;&#45;cluster&#45;7</title>
<path fill="none" stroke="black" d="M666.32,-174.66C678.01,-179.84 692.91,-186.43 701.94,-190.43"/>
</g>
<!-- action&#45;36 -->
<g id="node20" class="node">
<title>action&#45;36</title>
<polygon fill="white" stroke="black" points="792,-212 756,-212 756,-176 792,-176 792,-212"/>
</g>
<!-- cluster&#45;8 -->
<g id="node38" class="node">
<title>cluster&#45;8</title>
<polygon fill="black" stroke="black" stroke-width="0" points="846,-176 828,-176 828,-158 846,-158 846,-176"/>
</g>
<!-- action&#45;36&#45;&#45;cluster&#45;8 -->
<g id="edge30" class="edge">
<title>action&#45;36&#45;&#45;cluster&#45;8</title>
<path fill="none" stroke="black" d="M792.32,-186.34C804.01,-181.16 818.91,-174.57 827.94,-170.57"/>
</g>
<!-- action&#45;39 -->
<g id="node21" class="node">
<title>action&#45;39</title>
<polygon fill="white" stroke="black" points="792,-158 756,-158 756,-122 792,-122 792,-158"/>
</g>
<!-- action&#45;39&#45;&#45;cluster&#45;8 -->
<g id="edge31" class="edge">
<title>action&#45;39&#45;&#45;cluster&#45;8</title>
<path fill="none" stroke="black" d="M792.32,-147.66C804.01,-152.84 818.91,-159.43 827.94,-163.43"/>
</g>
<!-- action&#45;40 -->
<g id="node22" class="node">
<title>action&#45;40</title>
<polygon fill="white" stroke="black" points="918,-185 882,-185 882,-149 918,-149 918,-185"/>
</g>
<!-- cluster&#45;9 -->
<g id="node39" class="node">
<title>cluster&#45;9</title>
<polygon fill="black" stroke="black" stroke-width="0" points="972,-149 954,-149 954,-131 972,-131 972,-149"/>
</g>
<!-- action&#45;40&#45;&#45;cluster&#45;9 -->
<g id="edge32" class="edge">
<title>action&#45;40&#45;&#45;cluster&#45;9</title>
<path fill="none" stroke="black" d="M918.32,-159.34C930.01,-154.16 944.91,-147.57 953.94,-143.57"/>
</g>
<!-- action&#45;43 -->
<g id="node23" class="node">
<title>action&#45;43</title>
<polygon fill="white" stroke="black" points="918,-131 882,-131 882,-95 918,-95 918,-131"/>
</g>
<!-- action&#45;43&#45;&#45;cluster&#45;9 -->
<g id="edge33" class="edge">
<title>action&#45;43&#45;&#45;cluster&#45;9</title>
<path fill="none" stroke="black" d="M918.32,-120.66C930.01,-125.84 944.91,-132.43 953.94,-136.43"/>
</g>
<!-- action&#45;44 -->
<g id="node24" class="node">
<title>action&#45;44</title>
<polygon fill="white" stroke="black" points="1044,-158 1008,-158 1008,-122 1044,-122 1044,-158"/>
</g>
<!-- cluster&#45;10 -->
<g id="node40" class="node">
<title>cluster&#45;10</title>
<polygon fill="black" stroke="black" stroke-width="0" points="1098,-122 1080,-122 1080,-104 1098,-104 1098,-122"/>
</g>
<!-- action&#45;44&#45;&#45;cluster&#45;10 -->
<g id="edge34" class="edge">
<title>action&#45;44&#45;&#45;cluster&#45;10</title>
<path fill="none" stroke="black" d="M1044.32,-132.34C1056.01,-127.16 1070.91,-120.57 1079.94,-116.57"/>
</g>
<!-- action&#45;47 -->
<g id="node25" class="node">
<title>action&#45;47</title>
<polygon fill="white" stroke="black" points="1044,-104 1008,-104 1008,-68 1044,-68 1044,-104"/>
</g>
<!-- action&#45;47&#45;&#45;cluster&#45;10 -->
<g id="edge35" class="edge">
<title>action&#45;47&#45;&#45;cluster&#45;10</title>
<path fill="none" stroke="black" d="M1044.32,-93.66C1056.01,-98.84 1070.91,-105.43 1079.94,-109.43"/>
</g>
<!-- action&#45;48 -->
<g id="node26" class="node">
<title>action&#45;48</title>
<polygon fill="white" stroke="black" points="1170,-131 1134,-131 1134,-95 1170,-95 1170,-131"/>
</g>
<!-- cluster&#45;11 -->
<g id="node41" class="node">
<title>cluster&#45;11</title>
<polygon fill="black" stroke="black" stroke-width="0" points="1224,-81 1206,-81 1206,-63 1224,-63 1224,-81"/>
</g>
<!-- action&#45;48&#45;&#45;cluster&#45;11 -->
<g id="edge36" class="edge">
<title>action&#45;48&#45;&#45;cluster&#45;11</title>
<path fill="none" stroke="black" d="M1170.32,-101.36C1182.01,-93.5 1196.91,-83.49 1205.94,-77.42"/>
</g>
<!-- action&#45;51 -->
<g id="node27" class="node">
<title>action&#45;51</title>
<polygon fill="white" stroke="black" points="1170,-77 1134,-77 1134,-41 1170,-41 1170,-77"/>
</g>
<!-- action&#45;51&#45;&#45;cluster&#45;11 -->
<g id="edge37" class="edge">
<title>action&#45;51&#45;&#45;cluster&#45;11</title>
<path fill="none" stroke="black" d="M1170.32,-62.69C1182.01,-65.18 1196.91,-68.36 1205.94,-70.28"/>
</g>
<!-- action&#45;52 -->
<g id="node28" class="node">
<title>action&#45;52</title>
<polygon fill="#c9211e" stroke="black" points="1296,-90 1260,-90 1260,-54 1296,-54 1296,-90"/>
</g>
<!-- cluster&#45;12 -->
<g id="node42" class="node">
<title>cluster&#45;12</title>
<polygon fill="black" stroke="black" stroke-width="0" points="1350,-71 1332,-71 1332,-53 1350,-53 1350,-71"/>
</g>
<!-- action&#45;52&#45;&#45;cluster&#45;12 -->
<g id="edge38" class="edge">
<title>action&#45;52&#45;&#45;cluster&#45;12</title>
<path fill="none" stroke="black" d="M1296.32,-69.16C1308.01,-67.24 1322.91,-64.8 1331.94,-63.32"/>
</g>
<!-- action&#45;55 -->
<g id="node29" class="node">
<title>action&#45;55</title>
<polygon fill="#00008b" stroke="black" points="1296,-36 1260,-36 1260,0 1296,0 1296,-36"/>
</g>
<!-- action&#45;55&#45;&#45;cluster&#45;12 -->
<g id="edge39" class="edge">
<title>action&#45;55&#45;&#45;cluster&#45;12</title>
<path fill="none" stroke="black" d="M1296.32,-30.49C1308.01,-38.93 1322.91,-49.67 1331.94,-56.18"/>
</g>
<!-- cluster&#45;0&#45;&#45;action&#45;4 -->
<g id="edge1" class="edge">
<title>cluster&#45;0&#45;&#45;action&#45;4</title>
<path fill="none" stroke="black" d="M90.23,-329C99.33,-329 114.26,-329 125.92,-329"/>
</g>
<!-- cluster&#45;1&#45;&#45;action&#45;8 -->
<g id="edge2" class="edge">
<title>cluster&#45;1&#45;&#45;action&#45;8</title>
<path fill="none" stroke="black" d="M216.23,-302C225.33,-302 240.26,-302 251.92,-302"/>
</g>
<!-- cluster&#45;2&#45;&#45;action&#45;14 -->
<g id="edge3" class="edge">
<title>cluster&#45;2&#45;&#45;action&#45;14</title>
<path fill="none" stroke="black" d="M1224.23,-214C1233.33,-214 1248.26,-214 1259.92,-214"/>
</g>
<!-- cluster&#45;3&#45;&#45;action&#45;18 -->
<g id="edge4" class="edge">
<title>cluster&#45;3&#45;&#45;action&#45;18</title>
<path fill="none" stroke="black" d="M1350.23,-170C1359.33,-170 1374.26,-170 1385.92,-170"/>
</g>
<!-- cluster&#45;4&#45;&#45;action&#45;22 -->
<g id="edge5" class="edge">
<title>cluster&#45;4&#45;&#45;action&#45;22</title>
<path fill="none" stroke="black" d="M342.23,-275C351.33,-275 366.26,-275 377.92,-275"/>
</g>
<!-- cluster&#45;5&#45;&#45;action&#45;26 -->
<g id="edge6" class="edge">
<title>cluster&#45;5&#45;&#45;action&#45;26</title>
<path fill="none" stroke="black" d="M468.23,-248C477.33,-248 492.26,-248 503.92,-248"/>
</g>
<!-- cluster&#45;6&#45;&#45;action&#45;32 -->
<g id="edge7" class="edge">
<title>cluster&#45;6&#45;&#45;action&#45;32</title>
<path fill="none" stroke="black" d="M594.23,-221C603.33,-221 618.26,-221 629.92,-221"/>
</g>
<!-- cluster&#45;7&#45;&#45;action&#45;36 -->
<g id="edge8" class="edge">
<title>cluster&#45;7&#45;&#45;action&#45;36</title>
<path fill="none" stroke="black" d="M720.23,-194C729.33,-194 744.26,-194 755.92,-194"/>
</g>
<!-- cluster&#45;8&#45;&#45;action&#45;40 -->
<g id="edge9" class="edge">
<title>cluster&#45;8&#45;&#45;action&#45;40</title>
<path fill="none" stroke="black" d="M846.23,-167C855.33,-167 870.26,-167 881.92,-167"/>
</g>
<!-- cluster&#45;9&#45;&#45;action&#45;44 -->
<g id="edge10" class="edge">
<title>cluster&#45;9&#45;&#45;action&#45;44</title>
<path fill="none" stroke="black" d="M972.23,-140C981.33,-140 996.26,-140 1007.92,-140"/>
</g>
<!-- cluster&#45;10&#45;&#45;action&#45;48 -->
<g id="edge11" class="edge">
<title>cluster&#45;10&#45;&#45;action&#45;48</title>
<path fill="none" stroke="black" d="M1098.23,-113C1107.33,-113 1122.26,-113 1133.92,-113"/>
</g>
<!-- cluster&#45;11&#45;&#45;action&#45;52 -->
<g id="edge12" class="edge">
<title>cluster&#45;11&#45;&#45;action&#45;52</title>
<path fill="none" stroke="black" d="M1224.23,-72C1233.33,-72 1248.26,-72 1259.92,-72"/>
</g>
<!-- cluster&#45;12&#45;&#45;action&#45;56 -->
<g id="edge13" class="edge">
<title>cluster&#45;12&#45;&#45;action&#45;56</title>
<path fill="none" stroke="black" d="M1350.23,-62C1359.33,-62 1374.26,-62 1385.92,-62"/>
</g>
</g>
</svg>
