<?xml version="1.0" encoding="UTF-8" standalone="no"?>
<!DOCTYPE svg PUBLIC "-//W3C//DTD SVG 1.1//EN"
 "http://www.w3.org/Graphics/SVG/1.1/DTD/svg11.dtd">
<!-- Generated by graphviz version 2.43.0 (0)
 -->
<!-- Title: g Pages: 1 -->
<svg width="1029pt" height="1718pt"
 viewBox="0.00 0.00 1029.00 1718.00" xmlns="http://www.w3.org/2000/svg" xmlns:xlink="http://www.w3.org/1999/xlink">
<g id="graph0" class="graph" transform="scale(1 1) rotate(0) translate(4 1714)">
<title>g</title>
<polygon fill="white" stroke="transparent" points="-4,4 -4,-1714 1025,-1714 1025,4 -4,4"/>
<g id="clust1" class="cluster">
<title>cluster_actionlib</title>
<polygon fill="none" stroke="black" points="772,-521 772,-1195 1013,-1195 1013,-521 772,-521"/>
<text text-anchor="start" x="848.5" y="-1180.8" font-family="Arial" font-weight="bold" font-size="14.00">Action library</text>
</g>
<!-- action&#45;8 -->
<g id="node1" class="node">
<title>action&#45;8</title>
<path fill="black" stroke="transparent" d="M795.5,-1134C795.5,-1134 990.5,-1134 990.5,-1134 994,-1134 997.5,-1137.5 997.5,-1141 997.5,-1141 997.5,-1148 997.5,-1148 997.5,-1151.5 994,-1155 990.5,-1155 990.5,-1155 795.5,-1155 795.5,-1155 792,-1155 788.5,-1151.5 788.5,-1148 788.5,-1148 788.5,-1141 788.5,-1141 788.5,-1137.5 792,-1134 795.5,-1134"/>
<text text-anchor="start" x="867" y="-1141.8" font-family="Arial" font-weight="bold" font-size="14.00" fill="white">action&#45;8</text>
<text text-anchor="start" x="791.5" y="-1116.8" font-family="Arial" font-weight="bold" font-size="14.00">params:</text>
<text text-anchor="start" x="791.5" y="-1102.8" font-family="Arial" font-size="14.00">X0, X1, X2, X3</text>
<text text-anchor="start" x="791.5" y="-1078.8" font-family="Arial" font-weight="bold" font-size="14.00">pre:</text>
<text text-anchor="start" x="791.5" y="-1064.8" font-family="Arial" font-size="14.00">at(player&#45;01,X3), clear(X0),</text>
<text text-anchor="start" x="791.5" y="-1050.8" font-family="Arial" font-size="14.00">is&#45;nongoal(X0), is&#45;nongoal(X3),</text>
<text text-anchor="start" x="791.5" y="-1036.8" font-family="Arial" font-size="14.00">is&#45;player(player&#45;01), location(X0),</text>
<text text-anchor="start" x="791.5" y="-1022.8" font-family="Arial" font-size="14.00">location(X3), move&#45;dir(X0,X3,X1),</text>
<text text-anchor="start" x="791.5" y="-1008.8" font-family="Arial" font-size="14.00">move&#45;dir(X3,X0,X2),</text>
<text text-anchor="start" x="791.5" y="-994.8" font-family="Arial" font-size="14.00">thing(player&#45;01)</text>
<text text-anchor="start" x="791.5" y="-970.8" font-family="Arial" font-weight="bold" font-size="14.00">add:</text>
<text text-anchor="start" x="791.5" y="-956.8" font-family="Arial" font-size="14.00">at(player&#45;01,X0), clear(X3)</text>
<text text-anchor="start" x="791.5" y="-932.8" font-family="Arial" font-weight="bold" font-size="14.00">del:</text>
<text text-anchor="start" x="791.5" y="-918.8" font-family="Arial" font-size="14.00">at(player&#45;01,X3), clear(X0)</text>
<path fill="none" stroke="black" stroke-width="4" d="M794,-906.5C794,-906.5 991,-906.5 991,-906.5 997,-906.5 1003,-912.5 1003,-918.5 1003,-918.5 1003,-1149.5 1003,-1149.5 1003,-1155.5 997,-1161.5 991,-1161.5 991,-1161.5 794,-1161.5 794,-1161.5 788,-1161.5 782,-1155.5 782,-1149.5 782,-1149.5 782,-918.5 782,-918.5 782,-912.5 788,-906.5 794,-906.5"/>
</g>
<!-- action&#45;14 -->
<g id="node2" class="node">
<title>action&#45;14</title>
<path fill="#008000" stroke="transparent" d="M795.5,-857C795.5,-857 989.5,-857 989.5,-857 993,-857 996.5,-860.5 996.5,-864 996.5,-864 996.5,-871 996.5,-871 996.5,-874.5 993,-878 989.5,-878 989.5,-878 795.5,-878 795.5,-878 792,-878 788.5,-874.5 788.5,-871 788.5,-871 788.5,-864 788.5,-864 788.5,-860.5 792,-857 795.5,-857"/>
<text text-anchor="start" x="862.5" y="-864.8" font-family="Arial" font-weight="bold" font-size="14.00" fill="white">action&#45;14</text>
<text text-anchor="start" x="791.5" y="-839.8" font-family="Arial" font-weight="bold" font-size="14.00">params:</text>
<text text-anchor="start" x="791.5" y="-825.8" font-family="Arial" font-size="14.00">X4, X5, X6</text>
<text text-anchor="start" x="791.5" y="-801.8" font-family="Arial" font-weight="bold" font-size="14.00">pre:</text>
<text text-anchor="start" x="791.5" y="-787.8" font-family="Arial" font-size="14.00">at(player&#45;01,X5), at(stone&#45;01,X6),</text>
<text text-anchor="start" x="791.5" y="-773.8" font-family="Arial" font-size="14.00">clear(X4), is&#45;nongoal(X4),</text>
<text text-anchor="start" x="791.5" y="-759.8" font-family="Arial" font-size="14.00">is&#45;nongoal(X5), is&#45;nongoal(X6),</text>
<text text-anchor="start" x="791.5" y="-745.8" font-family="Arial" font-size="14.00">is&#45;player(player&#45;01),</text>
<text text-anchor="start" x="791.5" y="-731.8" font-family="Arial" font-size="14.00">is&#45;stone(stone&#45;01), location(X4),</text>
<text text-anchor="start" x="791.5" y="-717.8" font-family="Arial" font-size="14.00">location(X5), location(X6),</text>
<text text-anchor="start" x="791.5" y="-703.8" font-family="Arial" font-size="14.00">move&#45;dir(X4,X6,dir&#45;up),</text>
<text text-anchor="start" x="791.5" y="-689.8" font-family="Arial" font-size="14.00">move&#45;dir(X5,X6,dir&#45;down),</text>
<text text-anchor="start" x="791.5" y="-675.8" font-family="Arial" font-size="14.00">move&#45;dir(X6,X4,dir&#45;down),</text>
<text text-anchor="start" x="791.5" y="-661.8" font-family="Arial" font-size="14.00">move&#45;dir(X6,X5,dir&#45;up),</text>
<text text-anchor="start" x="791.5" y="-647.8" font-family="Arial" font-size="14.00">thing(player&#45;01), thing(stone&#45;01)</text>
<text text-anchor="start" x="791.5" y="-623.8" font-family="Arial" font-weight="bold" font-size="14.00">add:</text>
<text text-anchor="start" x="791.5" y="-609.8" font-family="Arial" font-size="14.00">at(player&#45;01,X6), at(stone&#45;01,X4),</text>
<text text-anchor="start" x="791.5" y="-595.8" font-family="Arial" font-size="14.00">clear(X5)</text>
<text text-anchor="start" x="791.5" y="-571.8" font-family="Arial" font-weight="bold" font-size="14.00">del:</text>
<text text-anchor="start" x="791.5" y="-557.8" font-family="Arial" font-size="14.00">at(player&#45;01,X5), at(stone&#45;01,X6),</text>
<text text-anchor="start" x="791.5" y="-543.8" font-family="Arial" font-size="14.00">clear(X4)</text>
<path fill="none" stroke="#008000" stroke-width="4" d="M794.5,-531.5C794.5,-531.5 990.5,-531.5 990.5,-531.5 996.5,-531.5 1002.5,-537.5 1002.5,-543.5 1002.5,-543.5 1002.5,-872.5 1002.5,-872.5 1002.5,-878.5 996.5,-884.5 990.5,-884.5 990.5,-884.5 794.5,-884.5 794.5,-884.5 788.5,-884.5 782.5,-878.5 782.5,-872.5 782.5,-872.5 782.5,-543.5 782.5,-543.5 782.5,-537.5 788.5,-531.5 794.5,-531.5"/>
</g>
<!-- action&#45;1 -->
<g id="node3" class="node">
<title>action&#45;1</title>
<path fill="black" stroke="transparent" d="M12.5,-1684C12.5,-1684 221.5,-1684 221.5,-1684 225,-1684 228.5,-1687.5 228.5,-1691 228.5,-1691 228.5,-1698 228.5,-1698 228.5,-1701.5 225,-1705 221.5,-1705 221.5,-1705 12.5,-1705 12.5,-1705 9,-1705 5.5,-1701.5 5.5,-1698 5.5,-1698 5.5,-1691 5.5,-1691 5.5,-1687.5 9,-1684 12.5,-1684"/>
<text text-anchor="start" x="91" y="-1691.8" font-family="Arial" font-weight="bold" font-size="14.00" fill="white">action&#45;1</text>
<text text-anchor="start" x="8.5" y="-1666.8" font-family="Arial" font-weight="bold" font-size="14.00">params:</text>
<text text-anchor="start" x="8.5" y="-1641.8" font-family="Arial" font-weight="bold" font-size="14.00">pre:</text>
<text text-anchor="start" x="8.5" y="-1627.8" font-family="Arial" font-size="14.00">at(player&#45;01,pos&#45;6&#45;3),</text>
<text text-anchor="start" x="8.5" y="-1613.8" font-family="Arial" font-size="14.00">clear(pos&#45;6&#45;2),</text>
<text text-anchor="start" x="8.5" y="-1599.8" font-family="Arial" font-size="14.00">is&#45;nongoal(pos&#45;6&#45;2),</text>
<text text-anchor="start" x="8.5" y="-1585.8" font-family="Arial" font-size="14.00">is&#45;nongoal(pos&#45;6&#45;3),</text>
<text text-anchor="start" x="8.5" y="-1571.8" font-family="Arial" font-size="14.00">is&#45;player(player&#45;01),</text>
<text text-anchor="start" x="8.5" y="-1557.8" font-family="Arial" font-size="14.00">location(pos&#45;6&#45;2),</text>
<text text-anchor="start" x="8.5" y="-1543.8" font-family="Arial" font-size="14.00">location(pos&#45;6&#45;3),</text>
<text text-anchor="start" x="8.5" y="-1529.8" font-family="Arial" font-size="14.00">move&#45;dir(pos&#45;6&#45;2,pos&#45;6&#45;3,dir&#45;down),</text>
<text text-anchor="start" x="8.5" y="-1515.8" font-family="Arial" font-size="14.00">move&#45;dir(pos&#45;6&#45;3,pos&#45;6&#45;2,dir&#45;up),</text>
<text text-anchor="start" x="8.5" y="-1501.8" font-family="Arial" font-size="14.00">thing(player&#45;01)</text>
<text text-anchor="start" x="8.5" y="-1477.8" font-family="Arial" font-weight="bold" font-size="14.00">add:</text>
<text text-anchor="start" x="8.5" y="-1463.8" font-family="Arial" font-size="14.00">at(player&#45;01,pos&#45;6&#45;2),</text>
<text text-anchor="start" x="8.5" y="-1449.8" font-family="Arial" font-size="14.00">clear(pos&#45;6&#45;3)</text>
<text text-anchor="start" x="8.5" y="-1425.8" font-family="Arial" font-weight="bold" font-size="14.00">del:</text>
<text text-anchor="start" x="8.5" y="-1411.8" font-family="Arial" font-size="14.00">at(player&#45;01,pos&#45;6&#45;3),</text>
<text text-anchor="start" x="8.5" y="-1397.8" font-family="Arial" font-size="14.00">clear(pos&#45;6&#45;2)</text>
<path fill="none" stroke="black" d="M12,-1386C12,-1386 221,-1386 221,-1386 227,-1386 233,-1392 233,-1398 233,-1398 233,-1698 233,-1698 233,-1704 227,-1710 221,-1710 221,-1710 12,-1710 12,-1710 6,-1710 0,-1704 0,-1698 0,-1698 0,-1398 0,-1398 0,-1392 6,-1386 12,-1386"/>
</g>
<!-- cluster&#45;0 -->
<g id="node9" class="node">
<title>cluster&#45;0</title>
<path fill="black" stroke="transparent" d="M281,-1350C281,-1350 342,-1350 342,-1350 348,-1350 354,-1356 354,-1362 354,-1362 354,-1392 354,-1392 354,-1398 348,-1404 342,-1404 342,-1404 281,-1404 281,-1404 275,-1404 269,-1398 269,-1392 269,-1392 269,-1362 269,-1362 269,-1356 275,-1350 281,-1350"/>
<text text-anchor="start" x="281.5" y="-1386.8" font-family="Arial" font-weight="bold" font-size="14.00" fill="white">cluster&#45;0 </text>
<text text-anchor="start" x="276.5" y="-1361.8" font-family="Arial" font-weight="bold" font-size="14.00" fill="white">dist.: &#160;</text>
<text text-anchor="start" x="316.5" y="-1361.8" font-family="Arial" font-size="14.00" fill="white"> 0.33</text>
</g>
<!-- action&#45;1&#45;&#45;cluster&#45;0 -->
<g id="edge4" class="edge">
<title>action&#45;1&#45;&#45;cluster&#45;0</title>
<path fill="none" stroke="black" d="M233.11,-1445.57C250.29,-1430.35 266.63,-1415.87 279.83,-1404.18"/>
</g>
<!-- action&#45;3 -->
<g id="node4" class="node">
<title>action&#45;3</title>
<path fill="black" stroke="transparent" d="M15.5,-1342C15.5,-1342 218.5,-1342 218.5,-1342 222,-1342 225.5,-1345.5 225.5,-1349 225.5,-1349 225.5,-1356 225.5,-1356 225.5,-1359.5 222,-1363 218.5,-1363 218.5,-1363 15.5,-1363 15.5,-1363 12,-1363 8.5,-1359.5 8.5,-1356 8.5,-1356 8.5,-1349 8.5,-1349 8.5,-1345.5 12,-1342 15.5,-1342"/>
<text text-anchor="start" x="91" y="-1349.8" font-family="Arial" font-weight="bold" font-size="14.00" fill="white">action&#45;3</text>
<text text-anchor="start" x="11.5" y="-1324.8" font-family="Arial" font-weight="bold" font-size="14.00">params:</text>
<text text-anchor="start" x="11.5" y="-1299.8" font-family="Arial" font-weight="bold" font-size="14.00">pre:</text>
<text text-anchor="start" x="11.5" y="-1285.8" font-family="Arial" font-size="14.00">at(player&#45;01,pos&#45;6&#45;2),</text>
<text text-anchor="start" x="11.5" y="-1271.8" font-family="Arial" font-size="14.00">clear(pos&#45;5&#45;2),</text>
<text text-anchor="start" x="11.5" y="-1257.8" font-family="Arial" font-size="14.00">is&#45;nongoal(pos&#45;5&#45;2),</text>
<text text-anchor="start" x="11.5" y="-1243.8" font-family="Arial" font-size="14.00">is&#45;nongoal(pos&#45;6&#45;2),</text>
<text text-anchor="start" x="11.5" y="-1229.8" font-family="Arial" font-size="14.00">is&#45;player(player&#45;01),</text>
<text text-anchor="start" x="11.5" y="-1215.8" font-family="Arial" font-size="14.00">location(pos&#45;5&#45;2),</text>
<text text-anchor="start" x="11.5" y="-1201.8" font-family="Arial" font-size="14.00">location(pos&#45;6&#45;2),</text>
<text text-anchor="start" x="11.5" y="-1187.8" font-family="Arial" font-size="14.00">move&#45;dir(pos&#45;5&#45;2,pos&#45;6&#45;2,dir&#45;right),</text>
<text text-anchor="start" x="11.5" y="-1173.8" font-family="Arial" font-size="14.00">move&#45;dir(pos&#45;6&#45;2,pos&#45;5&#45;2,dir&#45;left),</text>
<text text-anchor="start" x="11.5" y="-1159.8" font-family="Arial" font-size="14.00">thing(player&#45;01)</text>
<text text-anchor="start" x="11.5" y="-1135.8" font-family="Arial" font-weight="bold" font-size="14.00">add:</text>
<text text-anchor="start" x="11.5" y="-1121.8" font-family="Arial" font-size="14.00">at(player&#45;01,pos&#45;5&#45;2),</text>
<text text-anchor="start" x="11.5" y="-1107.8" font-family="Arial" font-size="14.00">clear(pos&#45;6&#45;2)</text>
<text text-anchor="start" x="11.5" y="-1083.8" font-family="Arial" font-weight="bold" font-size="14.00">del:</text>
<text text-anchor="start" x="11.5" y="-1069.8" font-family="Arial" font-size="14.00">at(player&#45;01,pos&#45;6&#45;2),</text>
<text text-anchor="start" x="11.5" y="-1055.8" font-family="Arial" font-size="14.00">clear(pos&#45;5&#45;2)</text>
<path fill="none" stroke="black" d="M15,-1044C15,-1044 218,-1044 218,-1044 224,-1044 230,-1050 230,-1056 230,-1056 230,-1356 230,-1356 230,-1362 224,-1368 218,-1368 218,-1368 15,-1368 15,-1368 9,-1368 3,-1362 3,-1356 3,-1356 3,-1056 3,-1056 3,-1050 9,-1044 15,-1044"/>
</g>
<!-- action&#45;3&#45;&#45;cluster&#45;0 -->
<g id="edge5" class="edge">
<title>action&#45;3&#45;&#45;cluster&#45;0</title>
<path fill="none" stroke="black" d="M230.05,-1305.72C248.41,-1321.99 265.97,-1337.55 279.98,-1349.96"/>
</g>
<!-- action&#45;4 -->
<g id="node5" class="node">
<title>action&#45;4</title>
<path fill="black" stroke="transparent" d="M409.5,-1477C409.5,-1477 604.5,-1477 604.5,-1477 608,-1477 611.5,-1480.5 611.5,-1484 611.5,-1484 611.5,-1491 611.5,-1491 611.5,-1494.5 608,-1498 604.5,-1498 604.5,-1498 409.5,-1498 409.5,-1498 406,-1498 402.5,-1494.5 402.5,-1491 402.5,-1491 402.5,-1484 402.5,-1484 402.5,-1480.5 406,-1477 409.5,-1477"/>
<text text-anchor="start" x="481" y="-1484.8" font-family="Arial" font-weight="bold" font-size="14.00" fill="white">action&#45;4</text>
<text text-anchor="start" x="405.5" y="-1459.8" font-family="Arial" font-weight="bold" font-size="14.00">params:</text>
<text text-anchor="start" x="405.5" y="-1445.8" font-family="Arial" font-size="14.00">X0, X1, X2, X3</text>
<text text-anchor="start" x="405.5" y="-1421.8" font-family="Arial" font-weight="bold" font-size="14.00">pre:</text>
<text text-anchor="start" x="405.5" y="-1407.8" font-family="Arial" font-size="14.00">at(player&#45;01,X3), clear(X0),</text>
<text text-anchor="start" x="405.5" y="-1393.8" font-family="Arial" font-size="14.00">is&#45;nongoal(X0), is&#45;nongoal(X3),</text>
<text text-anchor="start" x="405.5" y="-1379.8" font-family="Arial" font-size="14.00">is&#45;player(player&#45;01), location(X0),</text>
<text text-anchor="start" x="405.5" y="-1365.8" font-family="Arial" font-size="14.00">location(X3), move&#45;dir(X0,X3,X1),</text>
<text text-anchor="start" x="405.5" y="-1351.8" font-family="Arial" font-size="14.00">move&#45;dir(X3,X0,X2),</text>
<text text-anchor="start" x="405.5" y="-1337.8" font-family="Arial" font-size="14.00">thing(player&#45;01)</text>
<text text-anchor="start" x="405.5" y="-1313.8" font-family="Arial" font-weight="bold" font-size="14.00">add:</text>
<text text-anchor="start" x="405.5" y="-1299.8" font-family="Arial" font-size="14.00">at(player&#45;01,X0), clear(X3)</text>
<text text-anchor="start" x="405.5" y="-1275.8" font-family="Arial" font-weight="bold" font-size="14.00">del:</text>
<text text-anchor="start" x="405.5" y="-1261.8" font-family="Arial" font-size="14.00">at(player&#45;01,X3), clear(X0)</text>
<path fill="none" stroke="black" d="M409,-1250.5C409,-1250.5 604,-1250.5 604,-1250.5 610,-1250.5 616,-1256.5 616,-1262.5 616,-1262.5 616,-1491.5 616,-1491.5 616,-1497.5 610,-1503.5 604,-1503.5 604,-1503.5 409,-1503.5 409,-1503.5 403,-1503.5 397,-1497.5 397,-1491.5 397,-1491.5 397,-1262.5 397,-1262.5 397,-1256.5 403,-1250.5 409,-1250.5"/>
</g>
<!-- cluster&#45;1 -->
<g id="node10" class="node">
<title>cluster&#45;1</title>
<path fill="black" stroke="transparent" d="M671,-1043C671,-1043 732,-1043 732,-1043 738,-1043 744,-1049 744,-1055 744,-1055 744,-1085 744,-1085 744,-1091 738,-1097 732,-1097 732,-1097 671,-1097 671,-1097 665,-1097 659,-1091 659,-1085 659,-1085 659,-1055 659,-1055 659,-1049 665,-1043 671,-1043"/>
<text text-anchor="start" x="671.5" y="-1079.8" font-family="Arial" font-weight="bold" font-size="14.00" fill="white">cluster&#45;1 </text>
<text text-anchor="start" x="666.5" y="-1054.8" font-family="Arial" font-weight="bold" font-size="14.00" fill="white">dist.: &#160;</text>
<text text-anchor="start" x="706.5" y="-1054.8" font-family="Arial" font-size="14.00" fill="white"> 0.00</text>
</g>
<!-- action&#45;4&#45;&#45;cluster&#45;1 -->
<g id="edge6" class="edge">
<title>action&#45;4&#45;&#45;cluster&#45;1</title>
<path fill="none" stroke="black" d="M616.04,-1251.6C618.44,-1248.07 620.76,-1244.53 623,-1241 653.18,-1193.37 677.96,-1132.02 690.86,-1097.25"/>
</g>
<!-- action&#45;7 -->
<g id="node6" class="node">
<title>action&#45;7</title>
<path fill="black" stroke="transparent" d="M405.5,-1206C405.5,-1206 608.5,-1206 608.5,-1206 612,-1206 615.5,-1209.5 615.5,-1213 615.5,-1213 615.5,-1220 615.5,-1220 615.5,-1223.5 612,-1227 608.5,-1227 608.5,-1227 405.5,-1227 405.5,-1227 402,-1227 398.5,-1223.5 398.5,-1220 398.5,-1220 398.5,-1213 398.5,-1213 398.5,-1209.5 402,-1206 405.5,-1206"/>
<text text-anchor="start" x="481" y="-1213.8" font-family="Arial" font-weight="bold" font-size="14.00" fill="white">action&#45;7</text>
<text text-anchor="start" x="401.5" y="-1188.8" font-family="Arial" font-weight="bold" font-size="14.00">params:</text>
<text text-anchor="start" x="401.5" y="-1163.8" font-family="Arial" font-weight="bold" font-size="14.00">pre:</text>
<text text-anchor="start" x="401.5" y="-1149.8" font-family="Arial" font-size="14.00">at(player&#45;01,pos&#45;5&#45;2),</text>
<text text-anchor="start" x="401.5" y="-1135.8" font-family="Arial" font-size="14.00">clear(pos&#45;4&#45;2),</text>
<text text-anchor="start" x="401.5" y="-1121.8" font-family="Arial" font-size="14.00">is&#45;nongoal(pos&#45;4&#45;2),</text>
<text text-anchor="start" x="401.5" y="-1107.8" font-family="Arial" font-size="14.00">is&#45;nongoal(pos&#45;5&#45;2),</text>
<text text-anchor="start" x="401.5" y="-1093.8" font-family="Arial" font-size="14.00">is&#45;player(player&#45;01),</text>
<text text-anchor="start" x="401.5" y="-1079.8" font-family="Arial" font-size="14.00">location(pos&#45;4&#45;2),</text>
<text text-anchor="start" x="401.5" y="-1065.8" font-family="Arial" font-size="14.00">location(pos&#45;5&#45;2),</text>
<text text-anchor="start" x="401.5" y="-1051.8" font-family="Arial" font-size="14.00">move&#45;dir(pos&#45;4&#45;2,pos&#45;5&#45;2,dir&#45;right),</text>
<text text-anchor="start" x="401.5" y="-1037.8" font-family="Arial" font-size="14.00">move&#45;dir(pos&#45;5&#45;2,pos&#45;4&#45;2,dir&#45;left),</text>
<text text-anchor="start" x="401.5" y="-1023.8" font-family="Arial" font-size="14.00">thing(player&#45;01)</text>
<text text-anchor="start" x="401.5" y="-999.8" font-family="Arial" font-weight="bold" font-size="14.00">add:</text>
<text text-anchor="start" x="401.5" y="-985.8" font-family="Arial" font-size="14.00">at(player&#45;01,pos&#45;4&#45;2),</text>
<text text-anchor="start" x="401.5" y="-971.8" font-family="Arial" font-size="14.00">clear(pos&#45;5&#45;2)</text>
<text text-anchor="start" x="401.5" y="-947.8" font-family="Arial" font-weight="bold" font-size="14.00">del:</text>
<text text-anchor="start" x="401.5" y="-933.8" font-family="Arial" font-size="14.00">at(player&#45;01,pos&#45;5&#45;2),</text>
<text text-anchor="start" x="401.5" y="-919.8" font-family="Arial" font-size="14.00">clear(pos&#45;4&#45;2)</text>
<path fill="none" stroke="black" d="M405,-908C405,-908 608,-908 608,-908 614,-908 620,-914 620,-920 620,-920 620,-1220 620,-1220 620,-1226 614,-1232 608,-1232 608,-1232 405,-1232 405,-1232 399,-1232 393,-1226 393,-1220 393,-1220 393,-920 393,-920 393,-914 399,-908 405,-908"/>
</g>
<!-- action&#45;7&#45;&#45;cluster&#45;1 -->
<g id="edge7" class="edge">
<title>action&#45;7&#45;&#45;cluster&#45;1</title>
<path fill="none" stroke="black" d="M620.05,-1070C633.78,-1070 647.06,-1070 658.75,-1070"/>
</g>
<!-- action&#45;11 -->
<g id="node7" class="node">
<title>action&#45;11</title>
<path fill="#c9211e" stroke="transparent" d="M402.5,-864C402.5,-864 611.5,-864 611.5,-864 615,-864 618.5,-867.5 618.5,-871 618.5,-871 618.5,-878 618.5,-878 618.5,-881.5 615,-885 611.5,-885 611.5,-885 402.5,-885 402.5,-885 399,-885 395.5,-881.5 395.5,-878 395.5,-878 395.5,-871 395.5,-871 395.5,-867.5 399,-864 402.5,-864"/>
<text text-anchor="start" x="477.5" y="-871.8" font-family="Arial" font-weight="bold" font-size="14.00" fill="white">action&#45;11</text>
<text text-anchor="start" x="398.5" y="-846.8" font-family="Arial" font-weight="bold" font-size="14.00">params:</text>
<text text-anchor="start" x="398.5" y="-821.8" font-family="Arial" font-weight="bold" font-size="14.00">pre:</text>
<text text-anchor="start" x="398.5" y="-807.8" font-family="Arial" font-size="14.00">at(player&#45;01,pos&#45;4&#45;2),</text>
<text text-anchor="start" x="398.5" y="-793.8" font-family="Arial" font-size="14.00">at(stone&#45;01,pos&#45;4&#45;3),</text>
<text text-anchor="start" x="398.5" y="-779.8" font-family="Arial" font-size="14.00">clear(pos&#45;4&#45;4),</text>
<text text-anchor="start" x="398.5" y="-765.8" font-family="Arial" font-size="14.00">is&#45;nongoal(pos&#45;4&#45;2),</text>
<text text-anchor="start" x="398.5" y="-751.8" font-family="Arial" font-size="14.00">is&#45;nongoal(pos&#45;4&#45;3),</text>
<text text-anchor="start" x="398.5" y="-737.8" font-family="Arial" font-size="14.00">is&#45;nongoal(pos&#45;4&#45;4),</text>
<text text-anchor="start" x="398.5" y="-723.8" font-family="Arial" font-size="14.00">is&#45;player(player&#45;01),</text>
<text text-anchor="start" x="398.5" y="-709.8" font-family="Arial" font-size="14.00">is&#45;stone(stone&#45;01),</text>
<text text-anchor="start" x="398.5" y="-695.8" font-family="Arial" font-size="14.00">location(pos&#45;4&#45;2),</text>
<text text-anchor="start" x="398.5" y="-681.8" font-family="Arial" font-size="14.00">location(pos&#45;4&#45;3),</text>
<text text-anchor="start" x="398.5" y="-667.8" font-family="Arial" font-size="14.00">location(pos&#45;4&#45;4),</text>
<text text-anchor="start" x="398.5" y="-653.8" font-family="Arial" font-size="14.00">move&#45;dir(pos&#45;4&#45;2,pos&#45;4&#45;3,dir&#45;down),</text>
<text text-anchor="start" x="398.5" y="-639.8" font-family="Arial" font-size="14.00">move&#45;dir(pos&#45;4&#45;3,pos&#45;4&#45;2,dir&#45;up),</text>
<text text-anchor="start" x="398.5" y="-625.8" font-family="Arial" font-size="14.00">move&#45;dir(pos&#45;4&#45;3,pos&#45;4&#45;4,dir&#45;down),</text>
<text text-anchor="start" x="398.5" y="-611.8" font-family="Arial" font-size="14.00">move&#45;dir(pos&#45;4&#45;4,pos&#45;4&#45;3,dir&#45;up),</text>
<text text-anchor="start" x="398.5" y="-597.8" font-family="Arial" font-size="14.00">thing(player&#45;01), thing(stone&#45;01)</text>
<text text-anchor="start" x="398.5" y="-573.8" font-family="Arial" font-weight="bold" font-size="14.00">add:</text>
<text text-anchor="start" x="398.5" y="-559.8" font-family="Arial" font-size="14.00">at(player&#45;01,pos&#45;4&#45;3),</text>
<text text-anchor="start" x="398.5" y="-545.8" font-family="Arial" font-size="14.00">at(stone&#45;01,pos&#45;4&#45;4),</text>
<text text-anchor="start" x="398.5" y="-531.8" font-family="Arial" font-size="14.00">clear(pos&#45;4&#45;2)</text>
<text text-anchor="start" x="398.5" y="-507.8" font-family="Arial" font-weight="bold" font-size="14.00">del:</text>
<text text-anchor="start" x="398.5" y="-493.8" font-family="Arial" font-size="14.00">at(player&#45;01,pos&#45;4&#45;2),</text>
<text text-anchor="start" x="398.5" y="-479.8" font-family="Arial" font-size="14.00">at(stone&#45;01,pos&#45;4&#45;3),</text>
<text text-anchor="start" x="398.5" y="-465.8" font-family="Arial" font-size="14.00">clear(pos&#45;4&#45;4)</text>
<path fill="none" stroke="#c9211e" d="M402,-454C402,-454 611,-454 611,-454 617,-454 623,-460 623,-466 623,-466 623,-878 623,-878 623,-884 617,-890 611,-890 611,-890 402,-890 402,-890 396,-890 390,-884 390,-878 390,-878 390,-466 390,-466 390,-460 396,-454 402,-454"/>
</g>
<!-- cluster&#45;2 -->
<g id="node11" class="node">
<title>cluster&#45;2</title>
<path fill="black" stroke="transparent" d="M671,-645C671,-645 732,-645 732,-645 738,-645 744,-651 744,-657 744,-657 744,-687 744,-687 744,-693 738,-699 732,-699 732,-699 671,-699 671,-699 665,-699 659,-693 659,-687 659,-687 659,-657 659,-657 659,-651 665,-645 671,-645"/>
<text text-anchor="start" x="671.5" y="-681.8" font-family="Arial" font-weight="bold" font-size="14.00" fill="white">cluster&#45;2 </text>
<text text-anchor="start" x="666.5" y="-656.8" font-family="Arial" font-weight="bold" font-size="14.00" fill="white">dist.: &#160;</text>
<text text-anchor="start" x="706.5" y="-656.8" font-family="Arial" font-size="14.00" fill="white"> 0.19</text>
</g>
<!-- action&#45;11&#45;&#45;cluster&#45;2 -->
<g id="edge8" class="edge">
<title>action&#45;11&#45;&#45;cluster&#45;2</title>
<path fill="none" stroke="black" d="M623.11,-672C635.8,-672 648.02,-672 658.86,-672"/>
</g>
<!-- action&#45;13 -->
<g id="node8" class="node">
<title>action&#45;13</title>
<path fill="#00008b" stroke="transparent" d="M402.5,-410C402.5,-410 611.5,-410 611.5,-410 615,-410 618.5,-413.5 618.5,-417 618.5,-417 618.5,-424 618.5,-424 618.5,-427.5 615,-431 611.5,-431 611.5,-431 402.5,-431 402.5,-431 399,-431 395.5,-427.5 395.5,-424 395.5,-424 395.5,-417 395.5,-417 395.5,-413.5 399,-410 402.5,-410"/>
<text text-anchor="start" x="477" y="-417.8" font-family="Arial" font-weight="bold" font-size="14.00" fill="white">action&#45;13</text>
<text text-anchor="start" x="398.5" y="-392.8" font-family="Arial" font-weight="bold" font-size="14.00">params:</text>
<text text-anchor="start" x="398.5" y="-367.8" font-family="Arial" font-weight="bold" font-size="14.00">pre:</text>
<text text-anchor="start" x="398.5" y="-353.8" font-family="Arial" font-size="14.00">at(player&#45;01,pos&#45;4&#45;3),</text>
<text text-anchor="start" x="398.5" y="-339.8" font-family="Arial" font-size="14.00">at(stone&#45;01,pos&#45;4&#45;4),</text>
<text text-anchor="start" x="398.5" y="-325.8" font-family="Arial" font-size="14.00">clear(pos&#45;4&#45;5),</text>
<text text-anchor="start" x="398.5" y="-311.8" font-family="Arial" font-size="14.00">is&#45;nongoal(pos&#45;4&#45;3),</text>
<text text-anchor="start" x="398.5" y="-297.8" font-family="Arial" font-size="14.00">is&#45;nongoal(pos&#45;4&#45;4),</text>
<text text-anchor="start" x="398.5" y="-283.8" font-family="Arial" font-size="14.00">is&#45;nongoal(pos&#45;4&#45;5),</text>
<text text-anchor="start" x="398.5" y="-269.8" font-family="Arial" font-size="14.00">is&#45;player(player&#45;01),</text>
<text text-anchor="start" x="398.5" y="-255.8" font-family="Arial" font-size="14.00">is&#45;stone(stone&#45;01),</text>
<text text-anchor="start" x="398.5" y="-241.8" font-family="Arial" font-size="14.00">location(pos&#45;4&#45;3),</text>
<text text-anchor="start" x="398.5" y="-227.8" font-family="Arial" font-size="14.00">location(pos&#45;4&#45;4),</text>
<text text-anchor="start" x="398.5" y="-213.8" font-family="Arial" font-size="14.00">location(pos&#45;4&#45;5),</text>
<text text-anchor="start" x="398.5" y="-199.8" font-family="Arial" font-size="14.00">move&#45;dir(pos&#45;4&#45;3,pos&#45;4&#45;4,dir&#45;down),</text>
<text text-anchor="start" x="398.5" y="-185.8" font-family="Arial" font-size="14.00">move&#45;dir(pos&#45;4&#45;4,pos&#45;4&#45;3,dir&#45;up),</text>
<text text-anchor="start" x="398.5" y="-171.8" font-family="Arial" font-size="14.00">move&#45;dir(pos&#45;4&#45;4,pos&#45;4&#45;5,dir&#45;down),</text>
<text text-anchor="start" x="398.5" y="-157.8" font-family="Arial" font-size="14.00">move&#45;dir(pos&#45;4&#45;5,pos&#45;4&#45;4,dir&#45;up),</text>
<text text-anchor="start" x="398.5" y="-143.8" font-family="Arial" font-size="14.00">thing(player&#45;01), thing(stone&#45;01)</text>
<text text-anchor="start" x="398.5" y="-119.8" font-family="Arial" font-weight="bold" font-size="14.00">add:</text>
<text text-anchor="start" x="398.5" y="-105.8" font-family="Arial" font-size="14.00">at(player&#45;01,pos&#45;4&#45;4),</text>
<text text-anchor="start" x="398.5" y="-91.8" font-family="Arial" font-size="14.00">at(stone&#45;01,pos&#45;4&#45;5),</text>
<text text-anchor="start" x="398.5" y="-77.8" font-family="Arial" font-size="14.00">clear(pos&#45;4&#45;3)</text>
<text text-anchor="start" x="398.5" y="-53.8" font-family="Arial" font-weight="bold" font-size="14.00">del:</text>
<text text-anchor="start" x="398.5" y="-39.8" font-family="Arial" font-size="14.00">at(player&#45;01,pos&#45;4&#45;3),</text>
<text text-anchor="start" x="398.5" y="-25.8" font-family="Arial" font-size="14.00">at(stone&#45;01,pos&#45;4&#45;4),</text>
<text text-anchor="start" x="398.5" y="-11.8" font-family="Arial" font-size="14.00">clear(pos&#45;4&#45;5)</text>
<path fill="none" stroke="#00008b" d="M402,0C402,0 611,0 611,0 617,0 623,-6 623,-12 623,-12 623,-424 623,-424 623,-430 617,-436 611,-436 611,-436 402,-436 402,-436 396,-436 390,-430 390,-424 390,-424 390,-12 390,-12 390,-6 396,0 402,0"/>
</g>
<!-- action&#45;13&#45;&#45;cluster&#45;2 -->
<g id="edge9" class="edge">
<title>action&#45;13&#45;&#45;cluster&#45;2</title>
<path fill="none" stroke="black" d="M619.19,-436.1C620.48,-439.08 621.75,-442.05 623,-445 652.83,-515.58 679.81,-601.97 692.64,-644.98"/>
</g>
<!-- cluster&#45;0&#45;&#45;action&#45;4 -->
<g id="edge1" class="edge">
<title>cluster&#45;0&#45;&#45;action&#45;4</title>
<path fill="none" stroke="black" d="M354.38,-1377C367.13,-1377 381.77,-1377 396.82,-1377"/>
</g>
<!-- cluster&#45;1&#45;&#45;action&#45;8 -->
<g id="edge2" class="edge">
<title>cluster&#45;1&#45;&#45;action&#45;8</title>
<path fill="none" stroke="black" d="M744.45,-1062.01C755.21,-1059.96 767.31,-1057.65 779.83,-1055.27"/>
</g>
<!-- cluster&#45;2&#45;&#45;action&#45;14 -->
<g id="edge3" class="edge">
<title>cluster&#45;2&#45;&#45;action&#45;14</title>
<path fill="none" stroke="black" d="M744.45,-679.99C755.32,-682.06 767.56,-684.39 780.21,-686.8"/>
</g>
</g>
</svg>
