<?xml version="1.0" encoding="UTF-8" standalone="no"?>
<!DOCTYPE svg PUBLIC "-//W3C//DTD SVG 1.1//EN"
 "http://www.w3.org/Graphics/SVG/1.1/DTD/svg11.dtd">
<!-- Generated by graphviz version 2.43.0 (0)
 -->
<!-- Title: g Pages: 1 -->
<svg width="2706pt" height="761pt"
 viewBox="0.00 0.00 2706.00 761.00" xmlns="http://www.w3.org/2000/svg" xmlns:xlink="http://www.w3.org/1999/xlink">
<g id="graph0" class="graph" transform="scale(1 1) rotate(0) translate(4 757)">
<title>g</title>
<polygon fill="white" stroke="transparent" points="-4,4 -4,-757 2702,-757 2702,4 -4,4"/>
<g id="clust1" class="cluster">
<title>cluster_actionlib</title>
<polygon fill="none" stroke="black" points="2638,-46 2638,-206 2690,-206 2690,-46 2638,-46"/>
</g>
<!-- action&#45;29 -->
<g id="node1" class="node">
<title>action&#45;29</title>
<polygon fill="white" stroke="black" stroke-width="4" points="2682,-198 2646,-198 2646,-162 2682,-162 2682,-198"/>
</g>
<!-- action&#45;112 -->
<g id="node2" class="node">
<title>action&#45;112</title>
<polygon fill="white" stroke="black" stroke-width="4" points="2682,-144 2646,-144 2646,-108 2682,-108 2682,-144"/>
</g>
<!-- action&#45;120 -->
<g id="node3" class="node">
<title>action&#45;120</title>
<polygon fill="#008000" stroke="black" stroke-width="4" points="2682,-90 2646,-90 2646,-54 2682,-54 2682,-90"/>
</g>
<!-- action&#45;1 -->
<g id="node4" class="node">
<title>action&#45;1</title>
<polygon fill="white" stroke="black" points="36,-753 0,-753 0,-717 36,-717 36,-753"/>
</g>
<!-- cluster&#45;0 -->
<g id="node62" class="node">
<title>cluster&#45;0</title>
<polygon fill="black" stroke="black" stroke-width="0" points="90,-717 72,-717 72,-699 90,-699 90,-717"/>
</g>
<!-- action&#45;1&#45;&#45;cluster&#45;0 -->
<g id="edge30" class="edge">
<title>action&#45;1&#45;&#45;cluster&#45;0</title>
<path fill="none" stroke="black" d="M36.32,-727.34C48.01,-722.16 62.91,-715.57 71.94,-711.57"/>
</g>
<!-- action&#45;3 -->
<g id="node5" class="node">
<title>action&#45;3</title>
<polygon fill="white" stroke="black" points="36,-699 0,-699 0,-663 36,-663 36,-699"/>
</g>
<!-- action&#45;3&#45;&#45;cluster&#45;0 -->
<g id="edge31" class="edge">
<title>action&#45;3&#45;&#45;cluster&#45;0</title>
<path fill="none" stroke="black" d="M36.32,-688.66C48.01,-693.84 62.91,-700.43 71.94,-704.43"/>
</g>
<!-- action&#45;4 -->
<g id="node6" class="node">
<title>action&#45;4</title>
<polygon fill="white" stroke="black" points="162,-726 126,-726 126,-690 162,-690 162,-726"/>
</g>
<!-- cluster&#45;1 -->
<g id="node63" class="node">
<title>cluster&#45;1</title>
<polygon fill="black" stroke="black" stroke-width="0" points="216,-690 198,-690 198,-672 216,-672 216,-690"/>
</g>
<!-- action&#45;4&#45;&#45;cluster&#45;1 -->
<g id="edge32" class="edge">
<title>action&#45;4&#45;&#45;cluster&#45;1</title>
<path fill="none" stroke="black" d="M162.32,-700.34C174.01,-695.16 188.91,-688.57 197.94,-684.57"/>
</g>
<!-- action&#45;7 -->
<g id="node7" class="node">
<title>action&#45;7</title>
<polygon fill="white" stroke="black" points="162,-672 126,-672 126,-636 162,-636 162,-672"/>
</g>
<!-- action&#45;7&#45;&#45;cluster&#45;1 -->
<g id="edge33" class="edge">
<title>action&#45;7&#45;&#45;cluster&#45;1</title>
<path fill="none" stroke="black" d="M162.32,-661.66C174.01,-666.84 188.91,-673.43 197.94,-677.43"/>
</g>
<!-- action&#45;8 -->
<g id="node8" class="node">
<title>action&#45;8</title>
<polygon fill="white" stroke="black" points="288,-699 252,-699 252,-663 288,-663 288,-699"/>
</g>
<!-- cluster&#45;4 -->
<g id="node66" class="node">
<title>cluster&#45;4</title>
<polygon fill="black" stroke="black" stroke-width="0" points="342,-663 324,-663 324,-645 342,-645 342,-663"/>
</g>
<!-- action&#45;8&#45;&#45;cluster&#45;4 -->
<g id="edge38" class="edge">
<title>action&#45;8&#45;&#45;cluster&#45;4</title>
<path fill="none" stroke="black" d="M288.32,-673.34C300.01,-668.16 314.91,-661.57 323.94,-657.57"/>
</g>
<!-- action&#45;11 -->
<g id="node9" class="node">
<title>action&#45;11</title>
<polygon fill="white" stroke="black" points="1674,-537 1638,-537 1638,-501 1674,-501 1674,-537"/>
</g>
<!-- cluster&#45;2 -->
<g id="node64" class="node">
<title>cluster&#45;2</title>
<polygon fill="black" stroke="black" stroke-width="0" points="1728,-494 1710,-494 1710,-476 1728,-476 1728,-494"/>
</g>
<!-- action&#45;11&#45;&#45;cluster&#45;2 -->
<g id="edge34" class="edge">
<title>action&#45;11&#45;&#45;cluster&#45;2</title>
<path fill="none" stroke="black" d="M1674.32,-509.35C1686.01,-502.83 1700.91,-494.53 1709.94,-489.5"/>
</g>
<!-- action&#45;13 -->
<g id="node10" class="node">
<title>action&#45;13</title>
<polygon fill="white" stroke="black" points="1674,-483 1638,-483 1638,-447 1674,-447 1674,-483"/>
</g>
<!-- action&#45;13&#45;&#45;cluster&#45;2 -->
<g id="edge35" class="edge">
<title>action&#45;13&#45;&#45;cluster&#45;2</title>
<path fill="none" stroke="black" d="M1674.32,-470.68C1686.01,-474.51 1700.91,-479.4 1709.94,-482.36"/>
</g>
<!-- action&#45;14 -->
<g id="node11" class="node">
<title>action&#45;14</title>
<polygon fill="white" stroke="black" points="1800,-503 1764,-503 1764,-467 1800,-467 1800,-503"/>
</g>
<!-- cluster&#45;3 -->
<g id="node65" class="node">
<title>cluster&#45;3</title>
<polygon fill="black" stroke="black" stroke-width="0" points="1854,-450 1836,-450 1836,-432 1854,-432 1854,-450"/>
</g>
<!-- action&#45;14&#45;&#45;cluster&#45;3 -->
<g id="edge36" class="edge">
<title>action&#45;14&#45;&#45;cluster&#45;3</title>
<path fill="none" stroke="black" d="M1800.32,-472.51C1812.01,-464.07 1826.91,-453.33 1835.94,-446.82"/>
</g>
<!-- action&#45;17 -->
<g id="node12" class="node">
<title>action&#45;17</title>
<polygon fill="white" stroke="black" points="1800,-449 1764,-449 1764,-413 1800,-413 1800,-449"/>
</g>
<!-- action&#45;17&#45;&#45;cluster&#45;3 -->
<g id="edge37" class="edge">
<title>action&#45;17&#45;&#45;cluster&#45;3</title>
<path fill="none" stroke="black" d="M1800.32,-433.84C1812.01,-435.76 1826.91,-438.2 1835.94,-439.68"/>
</g>
<!-- action&#45;18 -->
<g id="node13" class="node">
<title>action&#45;18</title>
<polygon fill="white" stroke="black" points="1926,-459 1890,-459 1890,-423 1926,-423 1926,-459"/>
</g>
<!-- cluster&#45;13 -->
<g id="node75" class="node">
<title>cluster&#45;13</title>
<polygon fill="black" stroke="black" stroke-width="0" points="1980,-401 1962,-401 1962,-383 1980,-383 1980,-401"/>
</g>
<!-- action&#45;18&#45;&#45;cluster&#45;13 -->
<g id="edge56" class="edge">
<title>action&#45;18&#45;&#45;cluster&#45;13</title>
<path fill="none" stroke="black" d="M1926.32,-427.09C1938.01,-417.7 1952.91,-405.73 1961.94,-398.48"/>
</g>
<!-- action&#45;21 -->
<g id="node14" class="node">
<title>action&#45;21</title>
<polygon fill="white" stroke="black" points="288,-645 252,-645 252,-609 288,-609 288,-645"/>
</g>
<!-- action&#45;21&#45;&#45;cluster&#45;4 -->
<g id="edge39" class="edge">
<title>action&#45;21&#45;&#45;cluster&#45;4</title>
<path fill="none" stroke="black" d="M288.32,-634.66C300.01,-639.84 314.91,-646.43 323.94,-650.43"/>
</g>
<!-- action&#45;22 -->
<g id="node15" class="node">
<title>action&#45;22</title>
<polygon fill="white" stroke="black" points="414,-672 378,-672 378,-636 414,-636 414,-672"/>
</g>
<!-- cluster&#45;5 -->
<g id="node67" class="node">
<title>cluster&#45;5</title>
<polygon fill="black" stroke="black" stroke-width="0" points="468,-636 450,-636 450,-618 468,-618 468,-636"/>
</g>
<!-- action&#45;22&#45;&#45;cluster&#45;5 -->
<g id="edge40" class="edge">
<title>action&#45;22&#45;&#45;cluster&#45;5</title>
<path fill="none" stroke="black" d="M414.32,-646.34C426.01,-641.16 440.91,-634.57 449.94,-630.57"/>
</g>
<!-- action&#45;25 -->
<g id="node16" class="node">
<title>action&#45;25</title>
<polygon fill="white" stroke="black" points="414,-618 378,-618 378,-582 414,-582 414,-618"/>
</g>
<!-- action&#45;25&#45;&#45;cluster&#45;5 -->
<g id="edge41" class="edge">
<title>action&#45;25&#45;&#45;cluster&#45;5</title>
<path fill="none" stroke="black" d="M414.32,-607.66C426.01,-612.84 440.91,-619.43 449.94,-623.43"/>
</g>
<!-- action&#45;26 -->
<g id="node17" class="node">
<title>action&#45;26</title>
<polygon fill="white" stroke="black" points="540,-645 504,-645 504,-609 540,-609 540,-645"/>
</g>
<!-- cluster&#45;6 -->
<g id="node68" class="node">
<title>cluster&#45;6</title>
<polygon fill="black" stroke="black" stroke-width="0" points="594,-609 576,-609 576,-591 594,-591 594,-609"/>
</g>
<!-- action&#45;26&#45;&#45;cluster&#45;6 -->
<g id="edge42" class="edge">
<title>action&#45;26&#45;&#45;cluster&#45;6</title>
<path fill="none" stroke="black" d="M540.32,-619.34C552.01,-614.16 566.91,-607.57 575.94,-603.57"/>
</g>
<!-- action&#45;31 -->
<g id="node18" class="node">
<title>action&#45;31</title>
<polygon fill="white" stroke="black" points="540,-591 504,-591 504,-555 540,-555 540,-591"/>
</g>
<!-- action&#45;31&#45;&#45;cluster&#45;6 -->
<g id="edge43" class="edge">
<title>action&#45;31&#45;&#45;cluster&#45;6</title>
<path fill="none" stroke="black" d="M540.32,-580.66C552.01,-585.84 566.91,-592.43 575.94,-596.43"/>
</g>
<!-- action&#45;32 -->
<g id="node19" class="node">
<title>action&#45;32</title>
<polygon fill="white" stroke="black" points="666,-618 630,-618 630,-582 666,-582 666,-618"/>
</g>
<!-- cluster&#45;7 -->
<g id="node69" class="node">
<title>cluster&#45;7</title>
<polygon fill="black" stroke="black" stroke-width="0" points="720,-582 702,-582 702,-564 720,-564 720,-582"/>
</g>
<!-- action&#45;32&#45;&#45;cluster&#45;7 -->
<g id="edge44" class="edge">
<title>action&#45;32&#45;&#45;cluster&#45;7</title>
<path fill="none" stroke="black" d="M666.32,-592.34C678.01,-587.16 692.91,-580.57 701.94,-576.57"/>
</g>
<!-- action&#45;35 -->
<g id="node20" class="node">
<title>action&#45;35</title>
<polygon fill="white" stroke="black" points="666,-564 630,-564 630,-528 666,-528 666,-564"/>
</g>
<!-- action&#45;35&#45;&#45;cluster&#45;7 -->
<g id="edge45" class="edge">
<title>action&#45;35&#45;&#45;cluster&#45;7</title>
<path fill="none" stroke="black" d="M666.32,-553.66C678.01,-558.84 692.91,-565.43 701.94,-569.43"/>
</g>
<!-- action&#45;36 -->
<g id="node21" class="node">
<title>action&#45;36</title>
<polygon fill="white" stroke="black" points="792,-591 756,-591 756,-555 792,-555 792,-591"/>
</g>
<!-- cluster&#45;8 -->
<g id="node70" class="node">
<title>cluster&#45;8</title>
<polygon fill="black" stroke="black" stroke-width="0" points="846,-555 828,-555 828,-537 846,-537 846,-555"/>
</g>
<!-- action&#45;36&#45;&#45;cluster&#45;8 -->
<g id="edge46" class="edge">
<title>action&#45;36&#45;&#45;cluster&#45;8</title>
<path fill="none" stroke="black" d="M792.32,-565.34C804.01,-560.16 818.91,-553.57 827.94,-549.57"/>
</g>
<!-- action&#45;39 -->
<g id="node22" class="node">
<title>action&#45;39</title>
<polygon fill="white" stroke="black" points="792,-537 756,-537 756,-501 792,-501 792,-537"/>
</g>
<!-- action&#45;39&#45;&#45;cluster&#45;8 -->
<g id="edge47" class="edge">
<title>action&#45;39&#45;&#45;cluster&#45;8</title>
<path fill="none" stroke="black" d="M792.32,-526.66C804.01,-531.84 818.91,-538.43 827.94,-542.43"/>
</g>
<!-- action&#45;40 -->
<g id="node23" class="node">
<title>action&#45;40</title>
<polygon fill="white" stroke="black" points="918,-564 882,-564 882,-528 918,-528 918,-564"/>
</g>
<!-- cluster&#45;9 -->
<g id="node71" class="node">
<title>cluster&#45;9</title>
<polygon fill="black" stroke="black" stroke-width="0" points="972,-528 954,-528 954,-510 972,-510 972,-528"/>
</g>
<!-- action&#45;40&#45;&#45;cluster&#45;9 -->
<g id="edge48" class="edge">
<title>action&#45;40&#45;&#45;cluster&#45;9</title>
<path fill="none" stroke="black" d="M918.32,-538.34C930.01,-533.16 944.91,-526.57 953.94,-522.57"/>
</g>
<!-- action&#45;43 -->
<g id="node24" class="node">
<title>action&#45;43</title>
<polygon fill="white" stroke="black" points="918,-510 882,-510 882,-474 918,-474 918,-510"/>
</g>
<!-- action&#45;43&#45;&#45;cluster&#45;9 -->
<g id="edge49" class="edge">
<title>action&#45;43&#45;&#45;cluster&#45;9</title>
<path fill="none" stroke="black" d="M918.32,-499.66C930.01,-504.84 944.91,-511.43 953.94,-515.43"/>
</g>
<!-- action&#45;44 -->
<g id="node25" class="node">
<title>action&#45;44</title>
<polygon fill="white" stroke="black" points="1044,-537 1008,-537 1008,-501 1044,-501 1044,-537"/>
</g>
<!-- cluster&#45;10 -->
<g id="node72" class="node">
<title>cluster&#45;10</title>
<polygon fill="black" stroke="black" stroke-width="0" points="1098,-501 1080,-501 1080,-483 1098,-483 1098,-501"/>
</g>
<!-- action&#45;44&#45;&#45;cluster&#45;10 -->
<g id="edge50" class="edge">
<title>action&#45;44&#45;&#45;cluster&#45;10</title>
<path fill="none" stroke="black" d="M1044.32,-511.34C1056.01,-506.16 1070.91,-499.57 1079.94,-495.57"/>
</g>
<!-- action&#45;47 -->
<g id="node26" class="node">
<title>action&#45;47</title>
<polygon fill="white" stroke="black" points="1044,-483 1008,-483 1008,-447 1044,-447 1044,-483"/>
</g>
<!-- action&#45;47&#45;&#45;cluster&#45;10 -->
<g id="edge51" class="edge">
<title>action&#45;47&#45;&#45;cluster&#45;10</title>
<path fill="none" stroke="black" d="M1044.32,-472.66C1056.01,-477.84 1070.91,-484.43 1079.94,-488.43"/>
</g>
<!-- action&#45;48 -->
<g id="node27" class="node">
<title>action&#45;48</title>
<polygon fill="white" stroke="black" points="1170,-510 1134,-510 1134,-474 1170,-474 1170,-510"/>
</g>
<!-- cluster&#45;11 -->
<g id="node73" class="node">
<title>cluster&#45;11</title>
<polygon fill="black" stroke="black" stroke-width="0" points="1224,-474 1206,-474 1206,-456 1224,-456 1224,-474"/>
</g>
<!-- action&#45;48&#45;&#45;cluster&#45;11 -->
<g id="edge52" class="edge">
<title>action&#45;48&#45;&#45;cluster&#45;11</title>
<path fill="none" stroke="black" d="M1170.32,-484.34C1182.01,-479.16 1196.91,-472.57 1205.94,-468.57"/>
</g>
<!-- action&#45;51 -->
<g id="node28" class="node">
<title>action&#45;51</title>
<polygon fill="white" stroke="black" points="1170,-456 1134,-456 1134,-420 1170,-420 1170,-456"/>
</g>
<!-- action&#45;51&#45;&#45;cluster&#45;11 -->
<g id="edge53" class="edge">
<title>action&#45;51&#45;&#45;cluster&#45;11</title>
<path fill="none" stroke="black" d="M1170.32,-445.66C1182.01,-450.84 1196.91,-457.43 1205.94,-461.43"/>
</g>
<!-- action&#45;52 -->
<g id="node29" class="node">
<title>action&#45;52</title>
<polygon fill="white" stroke="black" points="1296,-483 1260,-483 1260,-447 1296,-447 1296,-483"/>
</g>
<!-- cluster&#45;12 -->
<g id="node74" class="node">
<title>cluster&#45;12</title>
<polygon fill="black" stroke="black" stroke-width="0" points="1350,-447 1332,-447 1332,-429 1350,-429 1350,-447"/>
</g>
<!-- action&#45;52&#45;&#45;cluster&#45;12 -->
<g id="edge54" class="edge">
<title>action&#45;52&#45;&#45;cluster&#45;12</title>
<path fill="none" stroke="black" d="M1296.32,-457.34C1308.01,-452.16 1322.91,-445.57 1331.94,-441.57"/>
</g>
<!-- action&#45;55 -->
<g id="node30" class="node">
<title>action&#45;55</title>
<polygon fill="white" stroke="black" points="1296,-429 1260,-429 1260,-393 1296,-393 1296,-429"/>
</g>
<!-- action&#45;55&#45;&#45;cluster&#45;12 -->
<g id="edge55" class="edge">
<title>action&#45;55&#45;&#45;cluster&#45;12</title>
<path fill="none" stroke="black" d="M1296.32,-418.66C1308.01,-423.84 1322.91,-430.43 1331.94,-434.43"/>
</g>
<!-- action&#45;56 -->
<g id="node31" class="node">
<title>action&#45;56</title>
<polygon fill="white" stroke="black" points="1422,-456 1386,-456 1386,-420 1422,-420 1422,-456"/>
</g>
<!-- cluster&#45;14 -->
<g id="node76" class="node">
<title>cluster&#45;14</title>
<polygon fill="black" stroke="black" stroke-width="0" points="1476,-420 1458,-420 1458,-402 1476,-402 1476,-420"/>
</g>
<!-- action&#45;56&#45;&#45;cluster&#45;14 -->
<g id="edge58" class="edge">
<title>action&#45;56&#45;&#45;cluster&#45;14</title>
<path fill="none" stroke="black" d="M1422.32,-430.34C1434.01,-425.16 1448.91,-418.57 1457.94,-414.57"/>
</g>
<!-- action&#45;59 -->
<g id="node32" class="node">
<title>action&#45;59</title>
<polygon fill="white" stroke="black" points="1926,-405 1890,-405 1890,-369 1926,-369 1926,-405"/>
</g>
<!-- action&#45;59&#45;&#45;cluster&#45;13 -->
<g id="edge57" class="edge">
<title>action&#45;59&#45;&#45;cluster&#45;13</title>
<path fill="none" stroke="black" d="M1926.32,-388.42C1938.01,-389.38 1952.91,-390.6 1961.94,-391.34"/>
</g>
<!-- action&#45;60 -->
<g id="node33" class="node">
<title>action&#45;60</title>
<polygon fill="white" stroke="black" points="2052,-410 2016,-410 2016,-374 2052,-374 2052,-410"/>
</g>
<!-- cluster&#45;16 -->
<g id="node78" class="node">
<title>cluster&#45;16</title>
<polygon fill="black" stroke="black" stroke-width="0" points="2106,-349 2088,-349 2088,-331 2106,-331 2106,-349"/>
</g>
<!-- action&#45;60&#45;&#45;cluster&#45;16 -->
<g id="edge62" class="edge">
<title>action&#45;60&#45;&#45;cluster&#45;16</title>
<path fill="none" stroke="black" d="M2052.32,-377.24C2064.01,-367.27 2078.91,-354.57 2087.94,-346.88"/>
</g>
<!-- action&#45;63 -->
<g id="node34" class="node">
<title>action&#45;63</title>
<polygon fill="white" stroke="black" points="1422,-402 1386,-402 1386,-366 1422,-366 1422,-402"/>
</g>
<!-- action&#45;63&#45;&#45;cluster&#45;14 -->
<g id="edge59" class="edge">
<title>action&#45;63&#45;&#45;cluster&#45;14</title>
<path fill="none" stroke="black" d="M1422.32,-391.66C1434.01,-396.84 1448.91,-403.43 1457.94,-407.43"/>
</g>
<!-- action&#45;64 -->
<g id="node35" class="node">
<title>action&#45;64</title>
<polygon fill="white" stroke="black" points="1548,-429 1512,-429 1512,-393 1548,-393 1548,-429"/>
</g>
<!-- cluster&#45;15 -->
<g id="node77" class="node">
<title>cluster&#45;15</title>
<polygon fill="black" stroke="black" stroke-width="0" points="1602,-393 1584,-393 1584,-375 1602,-375 1602,-393"/>
</g>
<!-- action&#45;64&#45;&#45;cluster&#45;15 -->
<g id="edge60" class="edge">
<title>action&#45;64&#45;&#45;cluster&#45;15</title>
<path fill="none" stroke="black" d="M1548.32,-403.34C1560.01,-398.16 1574.91,-391.57 1583.94,-387.57"/>
</g>
<!-- action&#45;67 -->
<g id="node36" class="node">
<title>action&#45;67</title>
<polygon fill="white" stroke="black" points="1548,-375 1512,-375 1512,-339 1548,-339 1548,-375"/>
</g>
<!-- action&#45;67&#45;&#45;cluster&#45;15 -->
<g id="edge61" class="edge">
<title>action&#45;67&#45;&#45;cluster&#45;15</title>
<path fill="none" stroke="black" d="M1548.32,-364.66C1560.01,-369.84 1574.91,-376.43 1583.94,-380.43"/>
</g>
<!-- action&#45;68 -->
<g id="node37" class="node">
<title>action&#45;68</title>
<polygon fill="white" stroke="black" points="1674,-402 1638,-402 1638,-366 1674,-366 1674,-402"/>
</g>
<!-- cluster&#45;18 -->
<g id="node80" class="node">
<title>cluster&#45;18</title>
<polygon fill="black" stroke="black" stroke-width="0" points="1728,-352 1710,-352 1710,-334 1728,-334 1728,-352"/>
</g>
<!-- action&#45;68&#45;&#45;cluster&#45;18 -->
<g id="edge66" class="edge">
<title>action&#45;68&#45;&#45;cluster&#45;18</title>
<path fill="none" stroke="black" d="M1674.32,-372.36C1686.01,-364.5 1700.91,-354.49 1709.94,-348.42"/>
</g>
<!-- action&#45;71 -->
<g id="node38" class="node">
<title>action&#45;71</title>
<polygon fill="white" stroke="black" points="2052,-356 2016,-356 2016,-320 2052,-320 2052,-356"/>
</g>
<!-- action&#45;71&#45;&#45;cluster&#45;16 -->
<g id="edge63" class="edge">
<title>action&#45;71&#45;&#45;cluster&#45;16</title>
<path fill="none" stroke="black" d="M2052.32,-338.57C2064.01,-338.95 2078.91,-339.44 2087.94,-339.74"/>
</g>
<!-- action&#45;72 -->
<g id="node39" class="node">
<title>action&#45;72</title>
<polygon fill="white" stroke="black" points="2178,-358 2142,-358 2142,-322 2178,-322 2178,-358"/>
</g>
<!-- cluster&#45;17 -->
<g id="node79" class="node">
<title>cluster&#45;17</title>
<polygon fill="black" stroke="black" stroke-width="0" points="2232,-296 2214,-296 2214,-278 2232,-278 2232,-296"/>
</g>
<!-- action&#45;72&#45;&#45;cluster&#45;17 -->
<g id="edge64" class="edge">
<title>action&#45;72&#45;&#45;cluster&#45;17</title>
<path fill="none" stroke="black" d="M2178.32,-324.95C2190.01,-314.79 2204.91,-301.85 2213.94,-294.01"/>
</g>
<!-- action&#45;75 -->
<g id="node40" class="node">
<title>action&#45;75</title>
<polygon fill="white" stroke="black" points="2178,-304 2142,-304 2142,-268 2178,-268 2178,-304"/>
</g>
<!-- action&#45;75&#45;&#45;cluster&#45;17 -->
<g id="edge65" class="edge">
<title>action&#45;75&#45;&#45;cluster&#45;17</title>
<path fill="none" stroke="black" d="M2178.32,-286.28C2190.01,-286.48 2204.91,-286.72 2213.94,-286.87"/>
</g>
<!-- action&#45;76 -->
<g id="node41" class="node">
<title>action&#45;76</title>
<polygon fill="white" stroke="black" points="2304,-305 2268,-305 2268,-269 2304,-269 2304,-305"/>
</g>
<!-- cluster&#45;20 -->
<g id="node82" class="node">
<title>cluster&#45;20</title>
<polygon fill="black" stroke="black" stroke-width="0" points="2358,-243 2340,-243 2340,-225 2358,-225 2358,-243"/>
</g>
<!-- action&#45;76&#45;&#45;cluster&#45;20 -->
<g id="edge70" class="edge">
<title>action&#45;76&#45;&#45;cluster&#45;20</title>
<path fill="none" stroke="black" d="M2304.32,-271.95C2316.01,-261.79 2330.91,-248.85 2339.94,-241.01"/>
</g>
<!-- action&#45;79 -->
<g id="node42" class="node">
<title>action&#45;79</title>
<polygon fill="white" stroke="black" points="1674,-348 1638,-348 1638,-312 1674,-312 1674,-348"/>
</g>
<!-- action&#45;79&#45;&#45;cluster&#45;18 -->
<g id="edge67" class="edge">
<title>action&#45;79&#45;&#45;cluster&#45;18</title>
<path fill="none" stroke="black" d="M1674.32,-333.69C1686.01,-336.18 1700.91,-339.36 1709.94,-341.28"/>
</g>
<!-- action&#45;80 -->
<g id="node43" class="node">
<title>action&#45;80</title>
<polygon fill="white" stroke="black" points="1800,-361 1764,-361 1764,-325 1800,-325 1800,-361"/>
</g>
<!-- cluster&#45;19 -->
<g id="node81" class="node">
<title>cluster&#45;19</title>
<polygon fill="black" stroke="black" stroke-width="0" points="1854,-298 1836,-298 1836,-280 1854,-280 1854,-298"/>
</g>
<!-- action&#45;80&#45;&#45;cluster&#45;19 -->
<g id="edge68" class="edge">
<title>action&#45;80&#45;&#45;cluster&#45;19</title>
<path fill="none" stroke="black" d="M1800.32,-327.67C1812.01,-317.32 1826.91,-304.13 1835.94,-296.14"/>
</g>
<!-- action&#45;83 -->
<g id="node44" class="node">
<title>action&#45;83</title>
<polygon fill="white" stroke="black" points="1800,-307 1764,-307 1764,-271 1800,-271 1800,-307"/>
</g>
<!-- action&#45;83&#45;&#45;cluster&#45;19 -->
<g id="edge69" class="edge">
<title>action&#45;83&#45;&#45;cluster&#45;19</title>
<path fill="none" stroke="black" d="M1800.32,-289C1812.01,-289 1826.91,-289 1835.94,-289"/>
</g>
<!-- action&#45;84 -->
<g id="node45" class="node">
<title>action&#45;84</title>
<polygon fill="white" stroke="black" points="1926,-307 1890,-307 1890,-271 1926,-271 1926,-307"/>
</g>
<!-- cluster&#45;21 -->
<g id="node83" class="node">
<title>cluster&#45;21</title>
<polygon fill="black" stroke="black" stroke-width="0" points="1980,-244 1962,-244 1962,-226 1980,-226 1980,-244"/>
</g>
<!-- action&#45;84&#45;&#45;cluster&#45;21 -->
<g id="edge72" class="edge">
<title>action&#45;84&#45;&#45;cluster&#45;21</title>
<path fill="none" stroke="black" d="M1926.32,-273.67C1938.01,-263.32 1952.91,-250.13 1961.94,-242.14"/>
</g>
<!-- action&#45;87 -->
<g id="node46" class="node">
<title>action&#45;87</title>
<polygon fill="white" stroke="black" points="2304,-251 2268,-251 2268,-215 2304,-215 2304,-251"/>
</g>
<!-- action&#45;87&#45;&#45;cluster&#45;20 -->
<g id="edge71" class="edge">
<title>action&#45;87&#45;&#45;cluster&#45;20</title>
<path fill="none" stroke="black" d="M2304.32,-233.28C2316.01,-233.48 2330.91,-233.72 2339.94,-233.87"/>
</g>
<!-- action&#45;88 -->
<g id="node47" class="node">
<title>action&#45;88</title>
<polygon fill="white" stroke="black" points="2430,-252 2394,-252 2394,-216 2430,-216 2430,-252"/>
</g>
<!-- cluster&#45;25 -->
<g id="node87" class="node">
<title>cluster&#45;25</title>
<polygon fill="black" stroke="black" stroke-width="0" points="2484,-189 2466,-189 2466,-171 2484,-171 2484,-189"/>
</g>
<!-- action&#45;88&#45;&#45;cluster&#45;25 -->
<g id="edge80" class="edge">
<title>action&#45;88&#45;&#45;cluster&#45;25</title>
<path fill="none" stroke="black" d="M2430.32,-218.67C2442.01,-208.32 2456.91,-195.13 2465.94,-187.14"/>
</g>
<!-- action&#45;91 -->
<g id="node48" class="node">
<title>action&#45;91</title>
<polygon fill="white" stroke="black" points="1926,-253 1890,-253 1890,-217 1926,-217 1926,-253"/>
</g>
<!-- action&#45;91&#45;&#45;cluster&#45;21 -->
<g id="edge73" class="edge">
<title>action&#45;91&#45;&#45;cluster&#45;21</title>
<path fill="none" stroke="black" d="M1926.32,-235C1938.01,-235 1952.91,-235 1961.94,-235"/>
</g>
<!-- action&#45;92 -->
<g id="node49" class="node">
<title>action&#45;92</title>
<polygon fill="white" stroke="black" points="2052,-253 2016,-253 2016,-217 2052,-217 2052,-253"/>
</g>
<!-- cluster&#45;22 -->
<g id="node84" class="node">
<title>cluster&#45;22</title>
<polygon fill="black" stroke="black" stroke-width="0" points="2106,-190 2088,-190 2088,-172 2106,-172 2106,-190"/>
</g>
<!-- action&#45;92&#45;&#45;cluster&#45;22 -->
<g id="edge74" class="edge">
<title>action&#45;92&#45;&#45;cluster&#45;22</title>
<path fill="none" stroke="black" d="M2052.32,-219.67C2064.01,-209.32 2078.91,-196.13 2087.94,-188.14"/>
</g>
<!-- action&#45;95 -->
<g id="node50" class="node">
<title>action&#45;95</title>
<polygon fill="white" stroke="black" points="2052,-199 2016,-199 2016,-163 2052,-163 2052,-199"/>
</g>
<!-- action&#45;95&#45;&#45;cluster&#45;22 -->
<g id="edge75" class="edge">
<title>action&#45;95&#45;&#45;cluster&#45;22</title>
<path fill="none" stroke="black" d="M2052.32,-181C2064.01,-181 2078.91,-181 2087.94,-181"/>
</g>
<!-- action&#45;96 -->
<g id="node51" class="node">
<title>action&#45;96</title>
<polygon fill="white" stroke="black" points="2178,-199 2142,-199 2142,-163 2178,-163 2178,-199"/>
</g>
<!-- cluster&#45;23 -->
<g id="node85" class="node">
<title>cluster&#45;23</title>
<polygon fill="black" stroke="black" stroke-width="0" points="2232,-136 2214,-136 2214,-118 2232,-118 2232,-136"/>
</g>
<!-- action&#45;96&#45;&#45;cluster&#45;23 -->
<g id="edge76" class="edge">
<title>action&#45;96&#45;&#45;cluster&#45;23</title>
<path fill="none" stroke="black" d="M2178.32,-165.67C2190.01,-155.32 2204.91,-142.13 2213.94,-134.14"/>
</g>
<!-- action&#45;99 -->
<g id="node52" class="node">
<title>action&#45;99</title>
<polygon fill="white" stroke="black" points="2178,-145 2142,-145 2142,-109 2178,-109 2178,-145"/>
</g>
<!-- action&#45;99&#45;&#45;cluster&#45;23 -->
<g id="edge77" class="edge">
<title>action&#45;99&#45;&#45;cluster&#45;23</title>
<path fill="none" stroke="black" d="M2178.32,-127C2190.01,-127 2204.91,-127 2213.94,-127"/>
</g>
<!-- action&#45;100 -->
<g id="node53" class="node">
<title>action&#45;100</title>
<polygon fill="white" stroke="black" points="2304,-145 2268,-145 2268,-109 2304,-109 2304,-145"/>
</g>
<!-- cluster&#45;24 -->
<g id="node86" class="node">
<title>cluster&#45;24</title>
<polygon fill="black" stroke="black" stroke-width="0" points="2358,-82 2340,-82 2340,-64 2358,-64 2358,-82"/>
</g>
<!-- action&#45;100&#45;&#45;cluster&#45;24 -->
<g id="edge78" class="edge">
<title>action&#45;100&#45;&#45;cluster&#45;24</title>
<path fill="none" stroke="black" d="M2304.32,-111.67C2316.01,-101.32 2330.91,-88.13 2339.94,-80.14"/>
</g>
<!-- action&#45;103 -->
<g id="node54" class="node">
<title>action&#45;103</title>
<polygon fill="white" stroke="black" points="2304,-91 2268,-91 2268,-55 2304,-55 2304,-91"/>
</g>
<!-- action&#45;103&#45;&#45;cluster&#45;24 -->
<g id="edge79" class="edge">
<title>action&#45;103&#45;&#45;cluster&#45;24</title>
<path fill="none" stroke="black" d="M2304.32,-73C2316.01,-73 2330.91,-73 2339.94,-73"/>
</g>
<!-- action&#45;104 -->
<g id="node55" class="node">
<title>action&#45;104</title>
<polygon fill="white" stroke="black" points="2430,-91 2394,-91 2394,-55 2430,-55 2430,-91"/>
</g>
<!-- cluster&#45;27 -->
<g id="node89" class="node">
<title>cluster&#45;27</title>
<polygon fill="black" stroke="black" stroke-width="0" points="2484,-81 2466,-81 2466,-63 2484,-63 2484,-81"/>
</g>
<!-- action&#45;104&#45;&#45;cluster&#45;27 -->
<g id="edge84" class="edge">
<title>action&#45;104&#45;&#45;cluster&#45;27</title>
<path fill="none" stroke="black" d="M2430.32,-72.72C2442.01,-72.52 2456.91,-72.28 2465.94,-72.13"/>
</g>
<!-- action&#45;107 -->
<g id="node56" class="node">
<title>action&#45;107</title>
<polygon fill="white" stroke="black" points="2430,-198 2394,-198 2394,-162 2430,-162 2430,-198"/>
</g>
<!-- action&#45;107&#45;&#45;cluster&#45;25 -->
<g id="edge81" class="edge">
<title>action&#45;107&#45;&#45;cluster&#45;25</title>
<path fill="none" stroke="black" d="M2430.32,-180C2442.01,-180 2456.91,-180 2465.94,-180"/>
</g>
<!-- action&#45;108 -->
<g id="node57" class="node">
<title>action&#45;108</title>
<polygon fill="white" stroke="black" points="2556,-198 2520,-198 2520,-162 2556,-162 2556,-198"/>
</g>
<!-- cluster&#45;26 -->
<g id="node88" class="node">
<title>cluster&#45;26</title>
<polygon fill="black" stroke="black" stroke-width="0" points="2610,-135 2592,-135 2592,-117 2610,-117 2610,-135"/>
</g>
<!-- action&#45;108&#45;&#45;cluster&#45;26 -->
<g id="edge82" class="edge">
<title>action&#45;108&#45;&#45;cluster&#45;26</title>
<path fill="none" stroke="black" d="M2556.32,-164.67C2568.01,-154.32 2582.91,-141.13 2591.94,-133.14"/>
</g>
<!-- action&#45;111 -->
<g id="node58" class="node">
<title>action&#45;111</title>
<polygon fill="white" stroke="black" points="2556,-144 2520,-144 2520,-108 2556,-108 2556,-144"/>
</g>
<!-- action&#45;111&#45;&#45;cluster&#45;26 -->
<g id="edge83" class="edge">
<title>action&#45;111&#45;&#45;cluster&#45;26</title>
<path fill="none" stroke="black" d="M2556.32,-126C2568.01,-126 2582.91,-126 2591.94,-126"/>
</g>
<!-- action&#45;115 -->
<g id="node59" class="node">
<title>action&#45;115</title>
<polygon fill="white" stroke="black" points="2430,-37 2394,-37 2394,-1 2430,-1 2430,-37"/>
</g>
<!-- action&#45;115&#45;&#45;cluster&#45;27 -->
<g id="edge85" class="edge">
<title>action&#45;115&#45;&#45;cluster&#45;27</title>
<path fill="none" stroke="black" d="M2430.32,-34.05C2442.01,-44.21 2456.91,-57.15 2465.94,-64.99"/>
</g>
<!-- action&#45;116 -->
<g id="node60" class="node">
<title>action&#45;116</title>
<polygon fill="#c9211e" stroke="black" points="2556,-90 2520,-90 2520,-54 2556,-54 2556,-90"/>
</g>
<!-- cluster&#45;28 -->
<g id="node90" class="node">
<title>cluster&#45;28</title>
<polygon fill="black" stroke="black" stroke-width="0" points="2610,-81 2592,-81 2592,-63 2610,-63 2610,-81"/>
</g>
<!-- action&#45;116&#45;&#45;cluster&#45;28 -->
<g id="edge86" class="edge">
<title>action&#45;116&#45;&#45;cluster&#45;28</title>
<path fill="none" stroke="black" d="M2556.32,-72C2568.01,-72 2582.91,-72 2591.94,-72"/>
</g>
<!-- action&#45;119 -->
<g id="node61" class="node">
<title>action&#45;119</title>
<polygon fill="#00008b" stroke="black" points="2556,-36 2520,-36 2520,0 2556,0 2556,-36"/>
</g>
<!-- action&#45;119&#45;&#45;cluster&#45;28 -->
<g id="edge87" class="edge">
<title>action&#45;119&#45;&#45;cluster&#45;28</title>
<path fill="none" stroke="black" d="M2556.32,-33.33C2568.01,-43.68 2582.91,-56.87 2591.94,-64.86"/>
</g>
<!-- cluster&#45;0&#45;&#45;action&#45;4 -->
<g id="edge1" class="edge">
<title>cluster&#45;0&#45;&#45;action&#45;4</title>
<path fill="none" stroke="black" d="M90.23,-708C99.33,-708 114.26,-708 125.92,-708"/>
</g>
<!-- cluster&#45;1&#45;&#45;action&#45;8 -->
<g id="edge2" class="edge">
<title>cluster&#45;1&#45;&#45;action&#45;8</title>
<path fill="none" stroke="black" d="M216.23,-681C225.33,-681 240.26,-681 251.92,-681"/>
</g>
<!-- cluster&#45;2&#45;&#45;action&#45;14 -->
<g id="edge3" class="edge">
<title>cluster&#45;2&#45;&#45;action&#45;14</title>
<path fill="none" stroke="black" d="M1728.23,-485C1737.33,-485 1752.26,-485 1763.92,-485"/>
</g>
<!-- cluster&#45;3&#45;&#45;action&#45;18 -->
<g id="edge4" class="edge">
<title>cluster&#45;3&#45;&#45;action&#45;18</title>
<path fill="none" stroke="black" d="M1854.23,-441C1863.33,-441 1878.26,-441 1889.92,-441"/>
</g>
<!-- cluster&#45;4&#45;&#45;action&#45;22 -->
<g id="edge5" class="edge">
<title>cluster&#45;4&#45;&#45;action&#45;22</title>
<path fill="none" stroke="black" d="M342.23,-654C351.33,-654 366.26,-654 377.92,-654"/>
</g>
<!-- cluster&#45;5&#45;&#45;action&#45;26 -->
<g id="edge6" class="edge">
<title>cluster&#45;5&#45;&#45;action&#45;26</title>
<path fill="none" stroke="black" d="M468.23,-627C477.33,-627 492.26,-627 503.92,-627"/>
</g>
<!-- cluster&#45;6&#45;&#45;action&#45;32 -->
<g id="edge7" class="edge">
<title>cluster&#45;6&#45;&#45;action&#45;32</title>
<path fill="none" stroke="black" d="M594.23,-600C603.33,-600 618.26,-600 629.92,-600"/>
</g>
<!-- cluster&#45;7&#45;&#45;action&#45;36 -->
<g id="edge8" class="edge">
<title>cluster&#45;7&#45;&#45;action&#45;36</title>
<path fill="none" stroke="black" d="M720.23,-573C729.33,-573 744.26,-573 755.92,-573"/>
</g>
<!-- cluster&#45;8&#45;&#45;action&#45;40 -->
<g id="edge9" class="edge">
<title>cluster&#45;8&#45;&#45;action&#45;40</title>
<path fill="none" stroke="black" d="M846.23,-546C855.33,-546 870.26,-546 881.92,-546"/>
</g>
<!-- cluster&#45;9&#45;&#45;action&#45;44 -->
<g id="edge10" class="edge">
<title>cluster&#45;9&#45;&#45;action&#45;44</title>
<path fill="none" stroke="black" d="M972.23,-519C981.33,-519 996.26,-519 1007.92,-519"/>
</g>
<!-- cluster&#45;10&#45;&#45;action&#45;48 -->
<g id="edge11" class="edge">
<title>cluster&#45;10&#45;&#45;action&#45;48</title>
<path fill="none" stroke="black" d="M1098.23,-492C1107.33,-492 1122.26,-492 1133.92,-492"/>
</g>
<!-- cluster&#45;11&#45;&#45;action&#45;52 -->
<g id="edge12" class="edge">
<title>cluster&#45;11&#45;&#45;action&#45;52</title>
<path fill="none" stroke="black" d="M1224.23,-465C1233.33,-465 1248.26,-465 1259.92,-465"/>
</g>
<!-- cluster&#45;12&#45;&#45;action&#45;56 -->
<g id="edge13" class="edge">
<title>cluster&#45;12&#45;&#45;action&#45;56</title>
<path fill="none" stroke="black" d="M1350.23,-438C1359.33,-438 1374.26,-438 1385.92,-438"/>
</g>
<!-- cluster&#45;13&#45;&#45;action&#45;60 -->
<g id="edge14" class="edge">
<title>cluster&#45;13&#45;&#45;action&#45;60</title>
<path fill="none" stroke="black" d="M1980.23,-392C1989.33,-392 2004.26,-392 2015.92,-392"/>
</g>
<!-- cluster&#45;14&#45;&#45;action&#45;64 -->
<g id="edge15" class="edge">
<title>cluster&#45;14&#45;&#45;action&#45;64</title>
<path fill="none" stroke="black" d="M1476.23,-411C1485.33,-411 1500.26,-411 1511.92,-411"/>
</g>
<!-- cluster&#45;15&#45;&#45;action&#45;68 -->
<g id="edge16" class="edge">
<title>cluster&#45;15&#45;&#45;action&#45;68</title>
<path fill="none" stroke="black" d="M1602.23,-384C1611.33,-384 1626.26,-384 1637.92,-384"/>
</g>
<!-- cluster&#45;16&#45;&#45;action&#45;72 -->
<g id="edge17" class="edge">
<title>cluster&#45;16&#45;&#45;action&#45;72</title>
<path fill="none" stroke="black" d="M2106.23,-340C2115.33,-340 2130.26,-340 2141.92,-340"/>
</g>
<!-- cluster&#45;17&#45;&#45;action&#45;76 -->
<g id="edge18" class="edge">
<title>cluster&#45;17&#45;&#45;action&#45;76</title>
<path fill="none" stroke="black" d="M2232.23,-287C2241.33,-287 2256.26,-287 2267.92,-287"/>
</g>
<!-- cluster&#45;18&#45;&#45;action&#45;80 -->
<g id="edge19" class="edge">
<title>cluster&#45;18&#45;&#45;action&#45;80</title>
<path fill="none" stroke="black" d="M1728.23,-343C1737.33,-343 1752.26,-343 1763.92,-343"/>
</g>
<!-- cluster&#45;19&#45;&#45;action&#45;84 -->
<g id="edge20" class="edge">
<title>cluster&#45;19&#45;&#45;action&#45;84</title>
<path fill="none" stroke="black" d="M1854.23,-289C1863.33,-289 1878.26,-289 1889.92,-289"/>
</g>
<!-- cluster&#45;20&#45;&#45;action&#45;88 -->
<g id="edge21" class="edge">
<title>cluster&#45;20&#45;&#45;action&#45;88</title>
<path fill="none" stroke="black" d="M2358.23,-234C2367.33,-234 2382.26,-234 2393.92,-234"/>
</g>
<!-- cluster&#45;21&#45;&#45;action&#45;92 -->
<g id="edge22" class="edge">
<title>cluster&#45;21&#45;&#45;action&#45;92</title>
<path fill="none" stroke="black" d="M1980.23,-235C1989.33,-235 2004.26,-235 2015.92,-235"/>
</g>
<!-- cluster&#45;22&#45;&#45;action&#45;96 -->
<g id="edge23" class="edge">
<title>cluster&#45;22&#45;&#45;action&#45;96</title>
<path fill="none" stroke="black" d="M2106.23,-181C2115.33,-181 2130.26,-181 2141.92,-181"/>
</g>
<!-- cluster&#45;23&#45;&#45;action&#45;100 -->
<g id="edge24" class="edge">
<title>cluster&#45;23&#45;&#45;action&#45;100</title>
<path fill="none" stroke="black" d="M2232.23,-127C2241.33,-127 2256.26,-127 2267.92,-127"/>
</g>
<!-- cluster&#45;24&#45;&#45;action&#45;104 -->
<g id="edge25" class="edge">
<title>cluster&#45;24&#45;&#45;action&#45;104</title>
<path fill="none" stroke="black" d="M2358.23,-73C2367.33,-73 2382.26,-73 2393.92,-73"/>
</g>
<!-- cluster&#45;25&#45;&#45;action&#45;108 -->
<g id="edge26" class="edge">
<title>cluster&#45;25&#45;&#45;action&#45;108</title>
<path fill="none" stroke="black" d="M2484.23,-180C2493.33,-180 2508.26,-180 2519.92,-180"/>
</g>
<!-- cluster&#45;26&#45;&#45;action&#45;112 -->
<g id="edge27" class="edge">
<title>cluster&#45;26&#45;&#45;action&#45;112</title>
<path fill="none" stroke="black" d="M2610.23,-126C2619.33,-126 2634.26,-126 2645.92,-126"/>
</g>
<!-- cluster&#45;27&#45;&#45;action&#45;116 -->
<g id="edge28" class="edge">
<title>cluster&#45;27&#45;&#45;action&#45;116</title>
<path fill="none" stroke="black" d="M2484.23,-72C2493.33,-72 2508.26,-72 2519.92,-72"/>
</g>
<!-- cluster&#45;28&#45;&#45;action&#45;120 -->
<g id="edge29" class="edge">
<title>cluster&#45;28&#45;&#45;action&#45;120</title>
<path fill="none" stroke="black" d="M2610.23,-72C2619.33,-72 2634.26,-72 2645.92,-72"/>
</g>
</g>
</svg>
