<?xml version="1.0" encoding="UTF-8" standalone="no"?>
<!DOCTYPE svg PUBLIC "-//W3C//DTD SVG 1.1//EN"
 "http://www.w3.org/Graphics/SVG/1.1/DTD/svg11.dtd">
<!-- Generated by graphviz version 2.43.0 (0)
 -->
<!-- Title: g Pages: 1 -->
<svg width="2580pt" height="734pt"
 viewBox="0.00 0.00 2580.00 734.00" xmlns="http://www.w3.org/2000/svg" xmlns:xlink="http://www.w3.org/1999/xlink">
<g id="graph0" class="graph" transform="scale(1 1) rotate(0) translate(4 730)">
<title>g</title>
<polygon fill="white" stroke="transparent" points="-4,4 -4,-730 2576,-730 2576,4 -4,4"/>
<g id="clust1" class="cluster">
<title>cluster_actionlib</title>
<polygon fill="none" stroke="black" points="2512,-46 2512,-206 2564,-206 2564,-46 2512,-46"/>
</g>
<!-- action&#45;29 -->
<g id="node1" class="node">
<title>action&#45;29</title>
<polygon fill="white" stroke="black" stroke-width="4" points="2556,-198 2520,-198 2520,-162 2556,-162 2556,-198"/>
</g>
<!-- action&#45;112 -->
<g id="node2" class="node">
<title>action&#45;112</title>
<polygon fill="white" stroke="black" stroke-width="4" points="2556,-144 2520,-144 2520,-108 2556,-108 2556,-144"/>
</g>
<!-- action&#45;116 -->
<g id="node3" class="node">
<title>action&#45;116</title>
<polygon fill="#008000" stroke="black" stroke-width="4" points="2556,-90 2520,-90 2520,-54 2556,-54 2556,-90"/>
</g>
<!-- action&#45;1 -->
<g id="node4" class="node">
<title>action&#45;1</title>
<polygon fill="white" stroke="black" points="36,-726 0,-726 0,-690 36,-690 36,-726"/>
</g>
<!-- cluster&#45;0 -->
<g id="node60" class="node">
<title>cluster&#45;0</title>
<polygon fill="black" stroke="black" stroke-width="0" points="90,-690 72,-690 72,-672 90,-672 90,-690"/>
</g>
<!-- action&#45;1&#45;&#45;cluster&#45;0 -->
<g id="edge29" class="edge">
<title>action&#45;1&#45;&#45;cluster&#45;0</title>
<path fill="none" stroke="black" d="M36.32,-700.34C48.01,-695.16 62.91,-688.57 71.94,-684.57"/>
</g>
<!-- action&#45;3 -->
<g id="node5" class="node">
<title>action&#45;3</title>
<polygon fill="white" stroke="black" points="36,-672 0,-672 0,-636 36,-636 36,-672"/>
</g>
<!-- action&#45;3&#45;&#45;cluster&#45;0 -->
<g id="edge30" class="edge">
<title>action&#45;3&#45;&#45;cluster&#45;0</title>
<path fill="none" stroke="black" d="M36.32,-661.66C48.01,-666.84 62.91,-673.43 71.94,-677.43"/>
</g>
<!-- action&#45;4 -->
<g id="node6" class="node">
<title>action&#45;4</title>
<polygon fill="white" stroke="black" points="162,-699 126,-699 126,-663 162,-663 162,-699"/>
</g>
<!-- cluster&#45;1 -->
<g id="node61" class="node">
<title>cluster&#45;1</title>
<polygon fill="black" stroke="black" stroke-width="0" points="216,-663 198,-663 198,-645 216,-645 216,-663"/>
</g>
<!-- action&#45;4&#45;&#45;cluster&#45;1 -->
<g id="edge31" class="edge">
<title>action&#45;4&#45;&#45;cluster&#45;1</title>
<path fill="none" stroke="black" d="M162.32,-673.34C174.01,-668.16 188.91,-661.57 197.94,-657.57"/>
</g>
<!-- action&#45;7 -->
<g id="node7" class="node">
<title>action&#45;7</title>
<polygon fill="white" stroke="black" points="162,-645 126,-645 126,-609 162,-609 162,-645"/>
</g>
<!-- action&#45;7&#45;&#45;cluster&#45;1 -->
<g id="edge32" class="edge">
<title>action&#45;7&#45;&#45;cluster&#45;1</title>
<path fill="none" stroke="black" d="M162.32,-634.66C174.01,-639.84 188.91,-646.43 197.94,-650.43"/>
</g>
<!-- action&#45;8 -->
<g id="node8" class="node">
<title>action&#45;8</title>
<polygon fill="white" stroke="black" points="288,-672 252,-672 252,-636 288,-636 288,-672"/>
</g>
<!-- cluster&#45;4 -->
<g id="node64" class="node">
<title>cluster&#45;4</title>
<polygon fill="black" stroke="black" stroke-width="0" points="342,-636 324,-636 324,-618 342,-618 342,-636"/>
</g>
<!-- action&#45;8&#45;&#45;cluster&#45;4 -->
<g id="edge37" class="edge">
<title>action&#45;8&#45;&#45;cluster&#45;4</title>
<path fill="none" stroke="black" d="M288.32,-646.34C300.01,-641.16 314.91,-634.57 323.94,-630.57"/>
</g>
<!-- action&#45;11 -->
<g id="node9" class="node">
<title>action&#45;11</title>
<polygon fill="white" stroke="black" points="1548,-537 1512,-537 1512,-501 1548,-501 1548,-537"/>
</g>
<!-- cluster&#45;2 -->
<g id="node62" class="node">
<title>cluster&#45;2</title>
<polygon fill="black" stroke="black" stroke-width="0" points="1602,-494 1584,-494 1584,-476 1602,-476 1602,-494"/>
</g>
<!-- action&#45;11&#45;&#45;cluster&#45;2 -->
<g id="edge33" class="edge">
<title>action&#45;11&#45;&#45;cluster&#45;2</title>
<path fill="none" stroke="black" d="M1548.32,-509.35C1560.01,-502.83 1574.91,-494.53 1583.94,-489.5"/>
</g>
<!-- action&#45;13 -->
<g id="node10" class="node">
<title>action&#45;13</title>
<polygon fill="white" stroke="black" points="1548,-483 1512,-483 1512,-447 1548,-447 1548,-483"/>
</g>
<!-- action&#45;13&#45;&#45;cluster&#45;2 -->
<g id="edge34" class="edge">
<title>action&#45;13&#45;&#45;cluster&#45;2</title>
<path fill="none" stroke="black" d="M1548.32,-470.68C1560.01,-474.51 1574.91,-479.4 1583.94,-482.36"/>
</g>
<!-- action&#45;14 -->
<g id="node11" class="node">
<title>action&#45;14</title>
<polygon fill="white" stroke="black" points="1674,-503 1638,-503 1638,-467 1674,-467 1674,-503"/>
</g>
<!-- cluster&#45;3 -->
<g id="node63" class="node">
<title>cluster&#45;3</title>
<polygon fill="black" stroke="black" stroke-width="0" points="1728,-450 1710,-450 1710,-432 1728,-432 1728,-450"/>
</g>
<!-- action&#45;14&#45;&#45;cluster&#45;3 -->
<g id="edge35" class="edge">
<title>action&#45;14&#45;&#45;cluster&#45;3</title>
<path fill="none" stroke="black" d="M1674.32,-472.51C1686.01,-464.07 1700.91,-453.33 1709.94,-446.82"/>
</g>
<!-- action&#45;17 -->
<g id="node12" class="node">
<title>action&#45;17</title>
<polygon fill="white" stroke="black" points="1674,-449 1638,-449 1638,-413 1674,-413 1674,-449"/>
</g>
<!-- action&#45;17&#45;&#45;cluster&#45;3 -->
<g id="edge36" class="edge">
<title>action&#45;17&#45;&#45;cluster&#45;3</title>
<path fill="none" stroke="black" d="M1674.32,-433.84C1686.01,-435.76 1700.91,-438.2 1709.94,-439.68"/>
</g>
<!-- action&#45;18 -->
<g id="node13" class="node">
<title>action&#45;18</title>
<polygon fill="white" stroke="black" points="1800,-459 1764,-459 1764,-423 1800,-423 1800,-459"/>
</g>
<!-- cluster&#45;13 -->
<g id="node73" class="node">
<title>cluster&#45;13</title>
<polygon fill="black" stroke="black" stroke-width="0" points="1854,-401 1836,-401 1836,-383 1854,-383 1854,-401"/>
</g>
<!-- action&#45;18&#45;&#45;cluster&#45;13 -->
<g id="edge55" class="edge">
<title>action&#45;18&#45;&#45;cluster&#45;13</title>
<path fill="none" stroke="black" d="M1800.32,-427.09C1812.01,-417.7 1826.91,-405.73 1835.94,-398.48"/>
</g>
<!-- action&#45;21 -->
<g id="node14" class="node">
<title>action&#45;21</title>
<polygon fill="white" stroke="black" points="288,-618 252,-618 252,-582 288,-582 288,-618"/>
</g>
<!-- action&#45;21&#45;&#45;cluster&#45;4 -->
<g id="edge38" class="edge">
<title>action&#45;21&#45;&#45;cluster&#45;4</title>
<path fill="none" stroke="black" d="M288.32,-607.66C300.01,-612.84 314.91,-619.43 323.94,-623.43"/>
</g>
<!-- action&#45;22 -->
<g id="node15" class="node">
<title>action&#45;22</title>
<polygon fill="white" stroke="black" points="414,-645 378,-645 378,-609 414,-609 414,-645"/>
</g>
<!-- cluster&#45;5 -->
<g id="node65" class="node">
<title>cluster&#45;5</title>
<polygon fill="black" stroke="black" stroke-width="0" points="468,-609 450,-609 450,-591 468,-591 468,-609"/>
</g>
<!-- action&#45;22&#45;&#45;cluster&#45;5 -->
<g id="edge39" class="edge">
<title>action&#45;22&#45;&#45;cluster&#45;5</title>
<path fill="none" stroke="black" d="M414.32,-619.34C426.01,-614.16 440.91,-607.57 449.94,-603.57"/>
</g>
<!-- action&#45;25 -->
<g id="node16" class="node">
<title>action&#45;25</title>
<polygon fill="white" stroke="black" points="414,-591 378,-591 378,-555 414,-555 414,-591"/>
</g>
<!-- action&#45;25&#45;&#45;cluster&#45;5 -->
<g id="edge40" class="edge">
<title>action&#45;25&#45;&#45;cluster&#45;5</title>
<path fill="none" stroke="black" d="M414.32,-580.66C426.01,-585.84 440.91,-592.43 449.94,-596.43"/>
</g>
<!-- action&#45;26 -->
<g id="node17" class="node">
<title>action&#45;26</title>
<polygon fill="white" stroke="black" points="540,-618 504,-618 504,-582 540,-582 540,-618"/>
</g>
<!-- cluster&#45;6 -->
<g id="node66" class="node">
<title>cluster&#45;6</title>
<polygon fill="black" stroke="black" stroke-width="0" points="594,-582 576,-582 576,-564 594,-564 594,-582"/>
</g>
<!-- action&#45;26&#45;&#45;cluster&#45;6 -->
<g id="edge41" class="edge">
<title>action&#45;26&#45;&#45;cluster&#45;6</title>
<path fill="none" stroke="black" d="M540.32,-592.34C552.01,-587.16 566.91,-580.57 575.94,-576.57"/>
</g>
<!-- action&#45;31 -->
<g id="node18" class="node">
<title>action&#45;31</title>
<polygon fill="white" stroke="black" points="540,-564 504,-564 504,-528 540,-528 540,-564"/>
</g>
<!-- action&#45;31&#45;&#45;cluster&#45;6 -->
<g id="edge42" class="edge">
<title>action&#45;31&#45;&#45;cluster&#45;6</title>
<path fill="none" stroke="black" d="M540.32,-553.66C552.01,-558.84 566.91,-565.43 575.94,-569.43"/>
</g>
<!-- action&#45;32 -->
<g id="node19" class="node">
<title>action&#45;32</title>
<polygon fill="white" stroke="black" points="666,-591 630,-591 630,-555 666,-555 666,-591"/>
</g>
<!-- cluster&#45;7 -->
<g id="node67" class="node">
<title>cluster&#45;7</title>
<polygon fill="black" stroke="black" stroke-width="0" points="720,-555 702,-555 702,-537 720,-537 720,-555"/>
</g>
<!-- action&#45;32&#45;&#45;cluster&#45;7 -->
<g id="edge43" class="edge">
<title>action&#45;32&#45;&#45;cluster&#45;7</title>
<path fill="none" stroke="black" d="M666.32,-565.34C678.01,-560.16 692.91,-553.57 701.94,-549.57"/>
</g>
<!-- action&#45;35 -->
<g id="node20" class="node">
<title>action&#45;35</title>
<polygon fill="white" stroke="black" points="666,-537 630,-537 630,-501 666,-501 666,-537"/>
</g>
<!-- action&#45;35&#45;&#45;cluster&#45;7 -->
<g id="edge44" class="edge">
<title>action&#45;35&#45;&#45;cluster&#45;7</title>
<path fill="none" stroke="black" d="M666.32,-526.66C678.01,-531.84 692.91,-538.43 701.94,-542.43"/>
</g>
<!-- action&#45;36 -->
<g id="node21" class="node">
<title>action&#45;36</title>
<polygon fill="white" stroke="black" points="792,-564 756,-564 756,-528 792,-528 792,-564"/>
</g>
<!-- cluster&#45;8 -->
<g id="node68" class="node">
<title>cluster&#45;8</title>
<polygon fill="black" stroke="black" stroke-width="0" points="846,-528 828,-528 828,-510 846,-510 846,-528"/>
</g>
<!-- action&#45;36&#45;&#45;cluster&#45;8 -->
<g id="edge45" class="edge">
<title>action&#45;36&#45;&#45;cluster&#45;8</title>
<path fill="none" stroke="black" d="M792.32,-538.34C804.01,-533.16 818.91,-526.57 827.94,-522.57"/>
</g>
<!-- action&#45;39 -->
<g id="node22" class="node">
<title>action&#45;39</title>
<polygon fill="white" stroke="black" points="792,-510 756,-510 756,-474 792,-474 792,-510"/>
</g>
<!-- action&#45;39&#45;&#45;cluster&#45;8 -->
<g id="edge46" class="edge">
<title>action&#45;39&#45;&#45;cluster&#45;8</title>
<path fill="none" stroke="black" d="M792.32,-499.66C804.01,-504.84 818.91,-511.43 827.94,-515.43"/>
</g>
<!-- action&#45;40 -->
<g id="node23" class="node">
<title>action&#45;40</title>
<polygon fill="white" stroke="black" points="918,-537 882,-537 882,-501 918,-501 918,-537"/>
</g>
<!-- cluster&#45;9 -->
<g id="node69" class="node">
<title>cluster&#45;9</title>
<polygon fill="black" stroke="black" stroke-width="0" points="972,-501 954,-501 954,-483 972,-483 972,-501"/>
</g>
<!-- action&#45;40&#45;&#45;cluster&#45;9 -->
<g id="edge47" class="edge">
<title>action&#45;40&#45;&#45;cluster&#45;9</title>
<path fill="none" stroke="black" d="M918.32,-511.34C930.01,-506.16 944.91,-499.57 953.94,-495.57"/>
</g>
<!-- action&#45;43 -->
<g id="node24" class="node">
<title>action&#45;43</title>
<polygon fill="white" stroke="black" points="918,-483 882,-483 882,-447 918,-447 918,-483"/>
</g>
<!-- action&#45;43&#45;&#45;cluster&#45;9 -->
<g id="edge48" class="edge">
<title>action&#45;43&#45;&#45;cluster&#45;9</title>
<path fill="none" stroke="black" d="M918.32,-472.66C930.01,-477.84 944.91,-484.43 953.94,-488.43"/>
</g>
<!-- action&#45;44 -->
<g id="node25" class="node">
<title>action&#45;44</title>
<polygon fill="white" stroke="black" points="1044,-510 1008,-510 1008,-474 1044,-474 1044,-510"/>
</g>
<!-- cluster&#45;10 -->
<g id="node70" class="node">
<title>cluster&#45;10</title>
<polygon fill="black" stroke="black" stroke-width="0" points="1098,-474 1080,-474 1080,-456 1098,-456 1098,-474"/>
</g>
<!-- action&#45;44&#45;&#45;cluster&#45;10 -->
<g id="edge49" class="edge">
<title>action&#45;44&#45;&#45;cluster&#45;10</title>
<path fill="none" stroke="black" d="M1044.32,-484.34C1056.01,-479.16 1070.91,-472.57 1079.94,-468.57"/>
</g>
<!-- action&#45;47 -->
<g id="node26" class="node">
<title>action&#45;47</title>
<polygon fill="white" stroke="black" points="1044,-456 1008,-456 1008,-420 1044,-420 1044,-456"/>
</g>
<!-- action&#45;47&#45;&#45;cluster&#45;10 -->
<g id="edge50" class="edge">
<title>action&#45;47&#45;&#45;cluster&#45;10</title>
<path fill="none" stroke="black" d="M1044.32,-445.66C1056.01,-450.84 1070.91,-457.43 1079.94,-461.43"/>
</g>
<!-- action&#45;48 -->
<g id="node27" class="node">
<title>action&#45;48</title>
<polygon fill="white" stroke="black" points="1170,-483 1134,-483 1134,-447 1170,-447 1170,-483"/>
</g>
<!-- cluster&#45;11 -->
<g id="node71" class="node">
<title>cluster&#45;11</title>
<polygon fill="black" stroke="black" stroke-width="0" points="1224,-447 1206,-447 1206,-429 1224,-429 1224,-447"/>
</g>
<!-- action&#45;48&#45;&#45;cluster&#45;11 -->
<g id="edge51" class="edge">
<title>action&#45;48&#45;&#45;cluster&#45;11</title>
<path fill="none" stroke="black" d="M1170.32,-457.34C1182.01,-452.16 1196.91,-445.57 1205.94,-441.57"/>
</g>
<!-- action&#45;51 -->
<g id="node28" class="node">
<title>action&#45;51</title>
<polygon fill="white" stroke="black" points="1170,-429 1134,-429 1134,-393 1170,-393 1170,-429"/>
</g>
<!-- action&#45;51&#45;&#45;cluster&#45;11 -->
<g id="edge52" class="edge">
<title>action&#45;51&#45;&#45;cluster&#45;11</title>
<path fill="none" stroke="black" d="M1170.32,-418.66C1182.01,-423.84 1196.91,-430.43 1205.94,-434.43"/>
</g>
<!-- action&#45;52 -->
<g id="node29" class="node">
<title>action&#45;52</title>
<polygon fill="white" stroke="black" points="1296,-456 1260,-456 1260,-420 1296,-420 1296,-456"/>
</g>
<!-- cluster&#45;12 -->
<g id="node72" class="node">
<title>cluster&#45;12</title>
<polygon fill="black" stroke="black" stroke-width="0" points="1350,-420 1332,-420 1332,-402 1350,-402 1350,-420"/>
</g>
<!-- action&#45;52&#45;&#45;cluster&#45;12 -->
<g id="edge53" class="edge">
<title>action&#45;52&#45;&#45;cluster&#45;12</title>
<path fill="none" stroke="black" d="M1296.32,-430.34C1308.01,-425.16 1322.91,-418.57 1331.94,-414.57"/>
</g>
<!-- action&#45;55 -->
<g id="node30" class="node">
<title>action&#45;55</title>
<polygon fill="white" stroke="black" points="1296,-402 1260,-402 1260,-366 1296,-366 1296,-402"/>
</g>
<!-- action&#45;55&#45;&#45;cluster&#45;12 -->
<g id="edge54" class="edge">
<title>action&#45;55&#45;&#45;cluster&#45;12</title>
<path fill="none" stroke="black" d="M1296.32,-391.66C1308.01,-396.84 1322.91,-403.43 1331.94,-407.43"/>
</g>
<!-- action&#45;56 -->
<g id="node31" class="node">
<title>action&#45;56</title>
<polygon fill="white" stroke="black" points="1422,-429 1386,-429 1386,-393 1422,-393 1422,-429"/>
</g>
<!-- cluster&#45;14 -->
<g id="node74" class="node">
<title>cluster&#45;14</title>
<polygon fill="black" stroke="black" stroke-width="0" points="1476,-393 1458,-393 1458,-375 1476,-375 1476,-393"/>
</g>
<!-- action&#45;56&#45;&#45;cluster&#45;14 -->
<g id="edge57" class="edge">
<title>action&#45;56&#45;&#45;cluster&#45;14</title>
<path fill="none" stroke="black" d="M1422.32,-403.34C1434.01,-398.16 1448.91,-391.57 1457.94,-387.57"/>
</g>
<!-- action&#45;59 -->
<g id="node32" class="node">
<title>action&#45;59</title>
<polygon fill="white" stroke="black" points="1800,-405 1764,-405 1764,-369 1800,-369 1800,-405"/>
</g>
<!-- action&#45;59&#45;&#45;cluster&#45;13 -->
<g id="edge56" class="edge">
<title>action&#45;59&#45;&#45;cluster&#45;13</title>
<path fill="none" stroke="black" d="M1800.32,-388.42C1812.01,-389.38 1826.91,-390.6 1835.94,-391.34"/>
</g>
<!-- action&#45;60 -->
<g id="node33" class="node">
<title>action&#45;60</title>
<polygon fill="white" stroke="black" points="1926,-410 1890,-410 1890,-374 1926,-374 1926,-410"/>
</g>
<!-- cluster&#45;16 -->
<g id="node76" class="node">
<title>cluster&#45;16</title>
<polygon fill="black" stroke="black" stroke-width="0" points="1980,-349 1962,-349 1962,-331 1980,-331 1980,-349"/>
</g>
<!-- action&#45;60&#45;&#45;cluster&#45;16 -->
<g id="edge61" class="edge">
<title>action&#45;60&#45;&#45;cluster&#45;16</title>
<path fill="none" stroke="black" d="M1926.32,-377.24C1938.01,-367.27 1952.91,-354.57 1961.94,-346.88"/>
</g>
<!-- action&#45;63 -->
<g id="node34" class="node">
<title>action&#45;63</title>
<polygon fill="white" stroke="black" points="1422,-375 1386,-375 1386,-339 1422,-339 1422,-375"/>
</g>
<!-- action&#45;63&#45;&#45;cluster&#45;14 -->
<g id="edge58" class="edge">
<title>action&#45;63&#45;&#45;cluster&#45;14</title>
<path fill="none" stroke="black" d="M1422.32,-364.66C1434.01,-369.84 1448.91,-376.43 1457.94,-380.43"/>
</g>
<!-- action&#45;64 -->
<g id="node35" class="node">
<title>action&#45;64</title>
<polygon fill="white" stroke="black" points="1548,-402 1512,-402 1512,-366 1548,-366 1548,-402"/>
</g>
<!-- cluster&#45;15 -->
<g id="node75" class="node">
<title>cluster&#45;15</title>
<polygon fill="black" stroke="black" stroke-width="0" points="1602,-352 1584,-352 1584,-334 1602,-334 1602,-352"/>
</g>
<!-- action&#45;64&#45;&#45;cluster&#45;15 -->
<g id="edge59" class="edge">
<title>action&#45;64&#45;&#45;cluster&#45;15</title>
<path fill="none" stroke="black" d="M1548.32,-372.36C1560.01,-364.5 1574.91,-354.49 1583.94,-348.42"/>
</g>
<!-- action&#45;67 -->
<g id="node36" class="node">
<title>action&#45;67</title>
<polygon fill="white" stroke="black" points="1548,-348 1512,-348 1512,-312 1548,-312 1548,-348"/>
</g>
<!-- action&#45;67&#45;&#45;cluster&#45;15 -->
<g id="edge60" class="edge">
<title>action&#45;67&#45;&#45;cluster&#45;15</title>
<path fill="none" stroke="black" d="M1548.32,-333.69C1560.01,-336.18 1574.91,-339.36 1583.94,-341.28"/>
</g>
<!-- action&#45;68 -->
<g id="node37" class="node">
<title>action&#45;68</title>
<polygon fill="white" stroke="black" points="1674,-361 1638,-361 1638,-325 1674,-325 1674,-361"/>
</g>
<!-- cluster&#45;18 -->
<g id="node78" class="node">
<title>cluster&#45;18</title>
<polygon fill="black" stroke="black" stroke-width="0" points="1728,-298 1710,-298 1710,-280 1728,-280 1728,-298"/>
</g>
<!-- action&#45;68&#45;&#45;cluster&#45;18 -->
<g id="edge65" class="edge">
<title>action&#45;68&#45;&#45;cluster&#45;18</title>
<path fill="none" stroke="black" d="M1674.32,-327.67C1686.01,-317.32 1700.91,-304.13 1709.94,-296.14"/>
</g>
<!-- action&#45;71 -->
<g id="node38" class="node">
<title>action&#45;71</title>
<polygon fill="white" stroke="black" points="1926,-356 1890,-356 1890,-320 1926,-320 1926,-356"/>
</g>
<!-- action&#45;71&#45;&#45;cluster&#45;16 -->
<g id="edge62" class="edge">
<title>action&#45;71&#45;&#45;cluster&#45;16</title>
<path fill="none" stroke="black" d="M1926.32,-338.57C1938.01,-338.95 1952.91,-339.44 1961.94,-339.74"/>
</g>
<!-- action&#45;72 -->
<g id="node39" class="node">
<title>action&#45;72</title>
<polygon fill="white" stroke="black" points="2052,-358 2016,-358 2016,-322 2052,-322 2052,-358"/>
</g>
<!-- cluster&#45;17 -->
<g id="node77" class="node">
<title>cluster&#45;17</title>
<polygon fill="black" stroke="black" stroke-width="0" points="2106,-296 2088,-296 2088,-278 2106,-278 2106,-296"/>
</g>
<!-- action&#45;72&#45;&#45;cluster&#45;17 -->
<g id="edge63" class="edge">
<title>action&#45;72&#45;&#45;cluster&#45;17</title>
<path fill="none" stroke="black" d="M2052.32,-324.95C2064.01,-314.79 2078.91,-301.85 2087.94,-294.01"/>
</g>
<!-- action&#45;75 -->
<g id="node40" class="node">
<title>action&#45;75</title>
<polygon fill="white" stroke="black" points="2052,-304 2016,-304 2016,-268 2052,-268 2052,-304"/>
</g>
<!-- action&#45;75&#45;&#45;cluster&#45;17 -->
<g id="edge64" class="edge">
<title>action&#45;75&#45;&#45;cluster&#45;17</title>
<path fill="none" stroke="black" d="M2052.32,-286.28C2064.01,-286.48 2078.91,-286.72 2087.94,-286.87"/>
</g>
<!-- action&#45;76 -->
<g id="node41" class="node">
<title>action&#45;76</title>
<polygon fill="white" stroke="black" points="2178,-305 2142,-305 2142,-269 2178,-269 2178,-305"/>
</g>
<!-- cluster&#45;20 -->
<g id="node80" class="node">
<title>cluster&#45;20</title>
<polygon fill="black" stroke="black" stroke-width="0" points="2232,-243 2214,-243 2214,-225 2232,-225 2232,-243"/>
</g>
<!-- action&#45;76&#45;&#45;cluster&#45;20 -->
<g id="edge69" class="edge">
<title>action&#45;76&#45;&#45;cluster&#45;20</title>
<path fill="none" stroke="black" d="M2178.32,-271.95C2190.01,-261.79 2204.91,-248.85 2213.94,-241.01"/>
</g>
<!-- action&#45;79 -->
<g id="node42" class="node">
<title>action&#45;79</title>
<polygon fill="white" stroke="black" points="1674,-307 1638,-307 1638,-271 1674,-271 1674,-307"/>
</g>
<!-- action&#45;79&#45;&#45;cluster&#45;18 -->
<g id="edge66" class="edge">
<title>action&#45;79&#45;&#45;cluster&#45;18</title>
<path fill="none" stroke="black" d="M1674.32,-289C1686.01,-289 1700.91,-289 1709.94,-289"/>
</g>
<!-- action&#45;80 -->
<g id="node43" class="node">
<title>action&#45;80</title>
<polygon fill="white" stroke="black" points="1800,-307 1764,-307 1764,-271 1800,-271 1800,-307"/>
</g>
<!-- cluster&#45;19 -->
<g id="node79" class="node">
<title>cluster&#45;19</title>
<polygon fill="black" stroke="black" stroke-width="0" points="1854,-244 1836,-244 1836,-226 1854,-226 1854,-244"/>
</g>
<!-- action&#45;80&#45;&#45;cluster&#45;19 -->
<g id="edge67" class="edge">
<title>action&#45;80&#45;&#45;cluster&#45;19</title>
<path fill="none" stroke="black" d="M1800.32,-273.67C1812.01,-263.32 1826.91,-250.13 1835.94,-242.14"/>
</g>
<!-- action&#45;83 -->
<g id="node44" class="node">
<title>action&#45;83</title>
<polygon fill="white" stroke="black" points="1800,-253 1764,-253 1764,-217 1800,-217 1800,-253"/>
</g>
<!-- action&#45;83&#45;&#45;cluster&#45;19 -->
<g id="edge68" class="edge">
<title>action&#45;83&#45;&#45;cluster&#45;19</title>
<path fill="none" stroke="black" d="M1800.32,-235C1812.01,-235 1826.91,-235 1835.94,-235"/>
</g>
<!-- action&#45;84 -->
<g id="node45" class="node">
<title>action&#45;84</title>
<polygon fill="white" stroke="black" points="1926,-253 1890,-253 1890,-217 1926,-217 1926,-253"/>
</g>
<!-- cluster&#45;21 -->
<g id="node81" class="node">
<title>cluster&#45;21</title>
<polygon fill="black" stroke="black" stroke-width="0" points="1980,-190 1962,-190 1962,-172 1980,-172 1980,-190"/>
</g>
<!-- action&#45;84&#45;&#45;cluster&#45;21 -->
<g id="edge71" class="edge">
<title>action&#45;84&#45;&#45;cluster&#45;21</title>
<path fill="none" stroke="black" d="M1926.32,-219.67C1938.01,-209.32 1952.91,-196.13 1961.94,-188.14"/>
</g>
<!-- action&#45;87 -->
<g id="node46" class="node">
<title>action&#45;87</title>
<polygon fill="white" stroke="black" points="2178,-251 2142,-251 2142,-215 2178,-215 2178,-251"/>
</g>
<!-- action&#45;87&#45;&#45;cluster&#45;20 -->
<g id="edge70" class="edge">
<title>action&#45;87&#45;&#45;cluster&#45;20</title>
<path fill="none" stroke="black" d="M2178.32,-233.28C2190.01,-233.48 2204.91,-233.72 2213.94,-233.87"/>
</g>
<!-- action&#45;88 -->
<g id="node47" class="node">
<title>action&#45;88</title>
<polygon fill="white" stroke="black" points="2304,-252 2268,-252 2268,-216 2304,-216 2304,-252"/>
</g>
<!-- cluster&#45;25 -->
<g id="node85" class="node">
<title>cluster&#45;25</title>
<polygon fill="black" stroke="black" stroke-width="0" points="2358,-189 2340,-189 2340,-171 2358,-171 2358,-189"/>
</g>
<!-- action&#45;88&#45;&#45;cluster&#45;25 -->
<g id="edge79" class="edge">
<title>action&#45;88&#45;&#45;cluster&#45;25</title>
<path fill="none" stroke="black" d="M2304.32,-218.67C2316.01,-208.32 2330.91,-195.13 2339.94,-187.14"/>
</g>
<!-- action&#45;91 -->
<g id="node48" class="node">
<title>action&#45;91</title>
<polygon fill="white" stroke="black" points="1926,-199 1890,-199 1890,-163 1926,-163 1926,-199"/>
</g>
<!-- action&#45;91&#45;&#45;cluster&#45;21 -->
<g id="edge72" class="edge">
<title>action&#45;91&#45;&#45;cluster&#45;21</title>
<path fill="none" stroke="black" d="M1926.32,-181C1938.01,-181 1952.91,-181 1961.94,-181"/>
</g>
<!-- action&#45;92 -->
<g id="node49" class="node">
<title>action&#45;92</title>
<polygon fill="white" stroke="black" points="2052,-199 2016,-199 2016,-163 2052,-163 2052,-199"/>
</g>
<!-- cluster&#45;22 -->
<g id="node82" class="node">
<title>cluster&#45;22</title>
<polygon fill="black" stroke="black" stroke-width="0" points="2106,-136 2088,-136 2088,-118 2106,-118 2106,-136"/>
</g>
<!-- action&#45;92&#45;&#45;cluster&#45;22 -->
<g id="edge73" class="edge">
<title>action&#45;92&#45;&#45;cluster&#45;22</title>
<path fill="none" stroke="black" d="M2052.32,-165.67C2064.01,-155.32 2078.91,-142.13 2087.94,-134.14"/>
</g>
<!-- action&#45;95 -->
<g id="node50" class="node">
<title>action&#45;95</title>
<polygon fill="white" stroke="black" points="2052,-145 2016,-145 2016,-109 2052,-109 2052,-145"/>
</g>
<!-- action&#45;95&#45;&#45;cluster&#45;22 -->
<g id="edge74" class="edge">
<title>action&#45;95&#45;&#45;cluster&#45;22</title>
<path fill="none" stroke="black" d="M2052.32,-127C2064.01,-127 2078.91,-127 2087.94,-127"/>
</g>
<!-- action&#45;96 -->
<g id="node51" class="node">
<title>action&#45;96</title>
<polygon fill="white" stroke="black" points="2178,-145 2142,-145 2142,-109 2178,-109 2178,-145"/>
</g>
<!-- cluster&#45;23 -->
<g id="node83" class="node">
<title>cluster&#45;23</title>
<polygon fill="black" stroke="black" stroke-width="0" points="2232,-82 2214,-82 2214,-64 2232,-64 2232,-82"/>
</g>
<!-- action&#45;96&#45;&#45;cluster&#45;23 -->
<g id="edge75" class="edge">
<title>action&#45;96&#45;&#45;cluster&#45;23</title>
<path fill="none" stroke="black" d="M2178.32,-111.67C2190.01,-101.32 2204.91,-88.13 2213.94,-80.14"/>
</g>
<!-- action&#45;99 -->
<g id="node52" class="node">
<title>action&#45;99</title>
<polygon fill="white" stroke="black" points="2178,-91 2142,-91 2142,-55 2178,-55 2178,-91"/>
</g>
<!-- action&#45;99&#45;&#45;cluster&#45;23 -->
<g id="edge76" class="edge">
<title>action&#45;99&#45;&#45;cluster&#45;23</title>
<path fill="none" stroke="black" d="M2178.32,-73C2190.01,-73 2204.91,-73 2213.94,-73"/>
</g>
<!-- action&#45;100 -->
<g id="node53" class="node">
<title>action&#45;100</title>
<polygon fill="white" stroke="black" points="2304,-91 2268,-91 2268,-55 2304,-55 2304,-91"/>
</g>
<!-- cluster&#45;24 -->
<g id="node84" class="node">
<title>cluster&#45;24</title>
<polygon fill="black" stroke="black" stroke-width="0" points="2358,-81 2340,-81 2340,-63 2358,-63 2358,-81"/>
</g>
<!-- action&#45;100&#45;&#45;cluster&#45;24 -->
<g id="edge77" class="edge">
<title>action&#45;100&#45;&#45;cluster&#45;24</title>
<path fill="none" stroke="black" d="M2304.32,-72.72C2316.01,-72.52 2330.91,-72.28 2339.94,-72.13"/>
</g>
<!-- action&#45;103 -->
<g id="node54" class="node">
<title>action&#45;103</title>
<polygon fill="white" stroke="black" points="2304,-37 2268,-37 2268,-1 2304,-1 2304,-37"/>
</g>
<!-- action&#45;103&#45;&#45;cluster&#45;24 -->
<g id="edge78" class="edge">
<title>action&#45;103&#45;&#45;cluster&#45;24</title>
<path fill="none" stroke="black" d="M2304.32,-34.05C2316.01,-44.21 2330.91,-57.15 2339.94,-64.99"/>
</g>
<!-- action&#45;104 -->
<g id="node55" class="node">
<title>action&#45;104</title>
<polygon fill="#c9211e" stroke="black" points="2430,-90 2394,-90 2394,-54 2430,-54 2430,-90"/>
</g>
<!-- cluster&#45;27 -->
<g id="node87" class="node">
<title>cluster&#45;27</title>
<polygon fill="black" stroke="black" stroke-width="0" points="2484,-81 2466,-81 2466,-63 2484,-63 2484,-81"/>
</g>
<!-- action&#45;104&#45;&#45;cluster&#45;27 -->
<g id="edge83" class="edge">
<title>action&#45;104&#45;&#45;cluster&#45;27</title>
<path fill="none" stroke="black" d="M2430.32,-72C2442.01,-72 2456.91,-72 2465.94,-72"/>
</g>
<!-- action&#45;107 -->
<g id="node56" class="node">
<title>action&#45;107</title>
<polygon fill="white" stroke="black" points="2304,-198 2268,-198 2268,-162 2304,-162 2304,-198"/>
</g>
<!-- action&#45;107&#45;&#45;cluster&#45;25 -->
<g id="edge80" class="edge">
<title>action&#45;107&#45;&#45;cluster&#45;25</title>
<path fill="none" stroke="black" d="M2304.32,-180C2316.01,-180 2330.91,-180 2339.94,-180"/>
</g>
<!-- action&#45;108 -->
<g id="node57" class="node">
<title>action&#45;108</title>
<polygon fill="white" stroke="black" points="2430,-198 2394,-198 2394,-162 2430,-162 2430,-198"/>
</g>
<!-- cluster&#45;26 -->
<g id="node86" class="node">
<title>cluster&#45;26</title>
<polygon fill="black" stroke="black" stroke-width="0" points="2484,-135 2466,-135 2466,-117 2484,-117 2484,-135"/>
</g>
<!-- action&#45;108&#45;&#45;cluster&#45;26 -->
<g id="edge81" class="edge">
<title>action&#45;108&#45;&#45;cluster&#45;26</title>
<path fill="none" stroke="black" d="M2430.32,-164.67C2442.01,-154.32 2456.91,-141.13 2465.94,-133.14"/>
</g>
<!-- action&#45;111 -->
<g id="node58" class="node">
<title>action&#45;111</title>
<polygon fill="white" stroke="black" points="2430,-144 2394,-144 2394,-108 2430,-108 2430,-144"/>
</g>
<!-- action&#45;111&#45;&#45;cluster&#45;26 -->
<g id="edge82" class="edge">
<title>action&#45;111&#45;&#45;cluster&#45;26</title>
<path fill="none" stroke="black" d="M2430.32,-126C2442.01,-126 2456.91,-126 2465.94,-126"/>
</g>
<!-- action&#45;115 -->
<g id="node59" class="node">
<title>action&#45;115</title>
<polygon fill="#00008b" stroke="black" points="2430,-36 2394,-36 2394,0 2430,0 2430,-36"/>
</g>
<!-- action&#45;115&#45;&#45;cluster&#45;27 -->
<g id="edge84" class="edge">
<title>action&#45;115&#45;&#45;cluster&#45;27</title>
<path fill="none" stroke="black" d="M2430.32,-33.33C2442.01,-43.68 2456.91,-56.87 2465.94,-64.86"/>
</g>
<!-- cluster&#45;0&#45;&#45;action&#45;4 -->
<g id="edge1" class="edge">
<title>cluster&#45;0&#45;&#45;action&#45;4</title>
<path fill="none" stroke="black" d="M90.23,-681C99.33,-681 114.26,-681 125.92,-681"/>
</g>
<!-- cluster&#45;1&#45;&#45;action&#45;8 -->
<g id="edge2" class="edge">
<title>cluster&#45;1&#45;&#45;action&#45;8</title>
<path fill="none" stroke="black" d="M216.23,-654C225.33,-654 240.26,-654 251.92,-654"/>
</g>
<!-- cluster&#45;2&#45;&#45;action&#45;14 -->
<g id="edge3" class="edge">
<title>cluster&#45;2&#45;&#45;action&#45;14</title>
<path fill="none" stroke="black" d="M1602.23,-485C1611.33,-485 1626.26,-485 1637.92,-485"/>
</g>
<!-- cluster&#45;3&#45;&#45;action&#45;18 -->
<g id="edge4" class="edge">
<title>cluster&#45;3&#45;&#45;action&#45;18</title>
<path fill="none" stroke="black" d="M1728.23,-441C1737.33,-441 1752.26,-441 1763.92,-441"/>
</g>
<!-- cluster&#45;4&#45;&#45;action&#45;22 -->
<g id="edge5" class="edge">
<title>cluster&#45;4&#45;&#45;action&#45;22</title>
<path fill="none" stroke="black" d="M342.23,-627C351.33,-627 366.26,-627 377.92,-627"/>
</g>
<!-- cluster&#45;5&#45;&#45;action&#45;26 -->
<g id="edge6" class="edge">
<title>cluster&#45;5&#45;&#45;action&#45;26</title>
<path fill="none" stroke="black" d="M468.23,-600C477.33,-600 492.26,-600 503.92,-600"/>
</g>
<!-- cluster&#45;6&#45;&#45;action&#45;32 -->
<g id="edge7" class="edge">
<title>cluster&#45;6&#45;&#45;action&#45;32</title>
<path fill="none" stroke="black" d="M594.23,-573C603.33,-573 618.26,-573 629.92,-573"/>
</g>
<!-- cluster&#45;7&#45;&#45;action&#45;36 -->
<g id="edge8" class="edge">
<title>cluster&#45;7&#45;&#45;action&#45;36</title>
<path fill="none" stroke="black" d="M720.23,-546C729.33,-546 744.26,-546 755.92,-546"/>
</g>
<!-- cluster&#45;8&#45;&#45;action&#45;40 -->
<g id="edge9" class="edge">
<title>cluster&#45;8&#45;&#45;action&#45;40</title>
<path fill="none" stroke="black" d="M846.23,-519C855.33,-519 870.26,-519 881.92,-519"/>
</g>
<!-- cluster&#45;9&#45;&#45;action&#45;44 -->
<g id="edge10" class="edge">
<title>cluster&#45;9&#45;&#45;action&#45;44</title>
<path fill="none" stroke="black" d="M972.23,-492C981.33,-492 996.26,-492 1007.92,-492"/>
</g>
<!-- cluster&#45;10&#45;&#45;action&#45;48 -->
<g id="edge11" class="edge">
<title>cluster&#45;10&#45;&#45;action&#45;48</title>
<path fill="none" stroke="black" d="M1098.23,-465C1107.33,-465 1122.26,-465 1133.92,-465"/>
</g>
<!-- cluster&#45;11&#45;&#45;action&#45;52 -->
<g id="edge12" class="edge">
<title>cluster&#45;11&#45;&#45;action&#45;52</title>
<path fill="none" stroke="black" d="M1224.23,-438C1233.33,-438 1248.26,-438 1259.92,-438"/>
</g>
<!-- cluster&#45;12&#45;&#45;action&#45;56 -->
<g id="edge13" class="edge">
<title>cluster&#45;12&#45;&#45;action&#45;56</title>
<path fill="none" stroke="black" d="M1350.23,-411C1359.33,-411 1374.26,-411 1385.92,-411"/>
</g>
<!-- cluster&#45;13&#45;&#45;action&#45;60 -->
<g id="edge14" class="edge">
<title>cluster&#45;13&#45;&#45;action&#45;60</title>
<path fill="none" stroke="black" d="M1854.23,-392C1863.33,-392 1878.26,-392 1889.92,-392"/>
</g>
<!-- cluster&#45;14&#45;&#45;action&#45;64 -->
<g id="edge15" class="edge">
<title>cluster&#45;14&#45;&#45;action&#45;64</title>
<path fill="none" stroke="black" d="M1476.23,-384C1485.33,-384 1500.26,-384 1511.92,-384"/>
</g>
<!-- cluster&#45;15&#45;&#45;action&#45;68 -->
<g id="edge16" class="edge">
<title>cluster&#45;15&#45;&#45;action&#45;68</title>
<path fill="none" stroke="black" d="M1602.23,-343C1611.33,-343 1626.26,-343 1637.92,-343"/>
</g>
<!-- cluster&#45;16&#45;&#45;action&#45;72 -->
<g id="edge17" class="edge">
<title>cluster&#45;16&#45;&#45;action&#45;72</title>
<path fill="none" stroke="black" d="M1980.23,-340C1989.33,-340 2004.26,-340 2015.92,-340"/>
</g>
<!-- cluster&#45;17&#45;&#45;action&#45;76 -->
<g id="edge18" class="edge">
<title>cluster&#45;17&#45;&#45;action&#45;76</title>
<path fill="none" stroke="black" d="M2106.23,-287C2115.33,-287 2130.26,-287 2141.92,-287"/>
</g>
<!-- cluster&#45;18&#45;&#45;action&#45;80 -->
<g id="edge19" class="edge">
<title>cluster&#45;18&#45;&#45;action&#45;80</title>
<path fill="none" stroke="black" d="M1728.23,-289C1737.33,-289 1752.26,-289 1763.92,-289"/>
</g>
<!-- cluster&#45;19&#45;&#45;action&#45;84 -->
<g id="edge20" class="edge">
<title>cluster&#45;19&#45;&#45;action&#45;84</title>
<path fill="none" stroke="black" d="M1854.23,-235C1863.33,-235 1878.26,-235 1889.92,-235"/>
</g>
<!-- cluster&#45;20&#45;&#45;action&#45;88 -->
<g id="edge21" class="edge">
<title>cluster&#45;20&#45;&#45;action&#45;88</title>
<path fill="none" stroke="black" d="M2232.23,-234C2241.33,-234 2256.26,-234 2267.92,-234"/>
</g>
<!-- cluster&#45;21&#45;&#45;action&#45;92 -->
<g id="edge22" class="edge">
<title>cluster&#45;21&#45;&#45;action&#45;92</title>
<path fill="none" stroke="black" d="M1980.23,-181C1989.33,-181 2004.26,-181 2015.92,-181"/>
</g>
<!-- cluster&#45;22&#45;&#45;action&#45;96 -->
<g id="edge23" class="edge">
<title>cluster&#45;22&#45;&#45;action&#45;96</title>
<path fill="none" stroke="black" d="M2106.23,-127C2115.33,-127 2130.26,-127 2141.92,-127"/>
</g>
<!-- cluster&#45;23&#45;&#45;action&#45;100 -->
<g id="edge24" class="edge">
<title>cluster&#45;23&#45;&#45;action&#45;100</title>
<path fill="none" stroke="black" d="M2232.23,-73C2241.33,-73 2256.26,-73 2267.92,-73"/>
</g>
<!-- cluster&#45;24&#45;&#45;action&#45;104 -->
<g id="edge25" class="edge">
<title>cluster&#45;24&#45;&#45;action&#45;104</title>
<path fill="none" stroke="black" d="M2358.23,-72C2367.33,-72 2382.26,-72 2393.92,-72"/>
</g>
<!-- cluster&#45;25&#45;&#45;action&#45;108 -->
<g id="edge26" class="edge">
<title>cluster&#45;25&#45;&#45;action&#45;108</title>
<path fill="none" stroke="black" d="M2358.23,-180C2367.33,-180 2382.26,-180 2393.92,-180"/>
</g>
<!-- cluster&#45;26&#45;&#45;action&#45;112 -->
<g id="edge27" class="edge">
<title>cluster&#45;26&#45;&#45;action&#45;112</title>
<path fill="none" stroke="black" d="M2484.23,-126C2493.33,-126 2508.26,-126 2519.92,-126"/>
</g>
<!-- cluster&#45;27&#45;&#45;action&#45;116 -->
<g id="edge28" class="edge">
<title>cluster&#45;27&#45;&#45;action&#45;116</title>
<path fill="none" stroke="black" d="M2484.23,-72C2493.33,-72 2508.26,-72 2519.92,-72"/>
</g>
</g>
</svg>
