<?xml version="1.0" encoding="UTF-8" standalone="no"?>
<!DOCTYPE svg PUBLIC "-//W3C//DTD SVG 1.1//EN"
 "http://www.w3.org/Graphics/SVG/1.1/DTD/svg11.dtd">
<!-- Generated by graphviz version 2.43.0 (0)
 -->
<!-- Title: g Pages: 1 -->
<svg width="1023pt" height="810pt"
 viewBox="0.00 0.00 1023.00 810.00" xmlns="http://www.w3.org/2000/svg" xmlns:xlink="http://www.w3.org/1999/xlink">
<g id="graph0" class="graph" transform="scale(1 1) rotate(0) translate(4 806)">
<title>g</title>
<polygon fill="white" stroke="transparent" points="-4,4 -4,-806 1019,-806 1019,4 -4,4"/>
<g id="clust1" class="cluster">
<title>cluster_actionlib</title>
<polygon fill="none" stroke="black" points="766,-177 766,-476 1007,-476 1007,-177 766,-177"/>
<text text-anchor="start" x="842.5" y="-461.8" font-family="Arial" font-weight="bold" font-size="14.00">Action library</text>
</g>
<!-- action&#45;8 -->
<g id="node1" class="node">
<title>action&#45;8</title>
<path fill="#008000" stroke="transparent" d="M789.5,-415C789.5,-415 984.5,-415 984.5,-415 988,-415 991.5,-418.5 991.5,-422 991.5,-422 991.5,-429 991.5,-429 991.5,-432.5 988,-436 984.5,-436 984.5,-436 789.5,-436 789.5,-436 786,-436 782.5,-432.5 782.5,-429 782.5,-429 782.5,-422 782.5,-422 782.5,-418.5 786,-415 789.5,-415"/>
<text text-anchor="start" x="861" y="-422.8" font-family="Arial" font-weight="bold" font-size="14.00" fill="white">action&#45;8</text>
<text text-anchor="start" x="785.5" y="-397.8" font-family="Arial" font-weight="bold" font-size="14.00">params:</text>
<text text-anchor="start" x="785.5" y="-383.8" font-family="Arial" font-size="14.00">X0, X1, X2, X3</text>
<text text-anchor="start" x="785.5" y="-359.8" font-family="Arial" font-weight="bold" font-size="14.00">pre:</text>
<text text-anchor="start" x="785.5" y="-345.8" font-family="Arial" font-size="14.00">at(player&#45;01,X3), clear(X0),</text>
<text text-anchor="start" x="785.5" y="-331.8" font-family="Arial" font-size="14.00">is&#45;nongoal(X0), is&#45;nongoal(X3),</text>
<text text-anchor="start" x="785.5" y="-317.8" font-family="Arial" font-size="14.00">is&#45;player(player&#45;01), location(X0),</text>
<text text-anchor="start" x="785.5" y="-303.8" font-family="Arial" font-size="14.00">location(X3), move&#45;dir(X0,X3,X1),</text>
<text text-anchor="start" x="785.5" y="-289.8" font-family="Arial" font-size="14.00">move&#45;dir(X3,X0,X2),</text>
<text text-anchor="start" x="785.5" y="-275.8" font-family="Arial" font-size="14.00">thing(player&#45;01)</text>
<text text-anchor="start" x="785.5" y="-251.8" font-family="Arial" font-weight="bold" font-size="14.00">add:</text>
<text text-anchor="start" x="785.5" y="-237.8" font-family="Arial" font-size="14.00">at(player&#45;01,X0), clear(X3)</text>
<text text-anchor="start" x="785.5" y="-213.8" font-family="Arial" font-weight="bold" font-size="14.00">del:</text>
<text text-anchor="start" x="785.5" y="-199.8" font-family="Arial" font-size="14.00">at(player&#45;01,X3), clear(X0)</text>
<path fill="none" stroke="#008000" stroke-width="4" d="M788,-187.5C788,-187.5 985,-187.5 985,-187.5 991,-187.5 997,-193.5 997,-199.5 997,-199.5 997,-430.5 997,-430.5 997,-436.5 991,-442.5 985,-442.5 985,-442.5 788,-442.5 788,-442.5 782,-442.5 776,-436.5 776,-430.5 776,-430.5 776,-199.5 776,-199.5 776,-193.5 782,-187.5 788,-187.5"/>
</g>
<!-- action&#45;1 -->
<g id="node2" class="node">
<title>action&#45;1</title>
<path fill="black" stroke="transparent" d="M12.5,-776C12.5,-776 221.5,-776 221.5,-776 225,-776 228.5,-779.5 228.5,-783 228.5,-783 228.5,-790 228.5,-790 228.5,-793.5 225,-797 221.5,-797 221.5,-797 12.5,-797 12.5,-797 9,-797 5.5,-793.5 5.5,-790 5.5,-790 5.5,-783 5.5,-783 5.5,-779.5 9,-776 12.5,-776"/>
<text text-anchor="start" x="91" y="-783.8" font-family="Arial" font-weight="bold" font-size="14.00" fill="white">action&#45;1</text>
<text text-anchor="start" x="8.5" y="-758.8" font-family="Arial" font-weight="bold" font-size="14.00">params:</text>
<text text-anchor="start" x="8.5" y="-733.8" font-family="Arial" font-weight="bold" font-size="14.00">pre:</text>
<text text-anchor="start" x="8.5" y="-719.8" font-family="Arial" font-size="14.00">at(player&#45;01,pos&#45;6&#45;3),</text>
<text text-anchor="start" x="8.5" y="-705.8" font-family="Arial" font-size="14.00">clear(pos&#45;6&#45;2),</text>
<text text-anchor="start" x="8.5" y="-691.8" font-family="Arial" font-size="14.00">is&#45;nongoal(pos&#45;6&#45;2),</text>
<text text-anchor="start" x="8.5" y="-677.8" font-family="Arial" font-size="14.00">is&#45;nongoal(pos&#45;6&#45;3),</text>
<text text-anchor="start" x="8.5" y="-663.8" font-family="Arial" font-size="14.00">is&#45;player(player&#45;01),</text>
<text text-anchor="start" x="8.5" y="-649.8" font-family="Arial" font-size="14.00">location(pos&#45;6&#45;2),</text>
<text text-anchor="start" x="8.5" y="-635.8" font-family="Arial" font-size="14.00">location(pos&#45;6&#45;3),</text>
<text text-anchor="start" x="8.5" y="-621.8" font-family="Arial" font-size="14.00">move&#45;dir(pos&#45;6&#45;2,pos&#45;6&#45;3,dir&#45;down),</text>
<text text-anchor="start" x="8.5" y="-607.8" font-family="Arial" font-size="14.00">move&#45;dir(pos&#45;6&#45;3,pos&#45;6&#45;2,dir&#45;up),</text>
<text text-anchor="start" x="8.5" y="-593.8" font-family="Arial" font-size="14.00">thing(player&#45;01)</text>
<text text-anchor="start" x="8.5" y="-569.8" font-family="Arial" font-weight="bold" font-size="14.00">add:</text>
<text text-anchor="start" x="8.5" y="-555.8" font-family="Arial" font-size="14.00">at(player&#45;01,pos&#45;6&#45;2),</text>
<text text-anchor="start" x="8.5" y="-541.8" font-family="Arial" font-size="14.00">clear(pos&#45;6&#45;3)</text>
<text text-anchor="start" x="8.5" y="-517.8" font-family="Arial" font-weight="bold" font-size="14.00">del:</text>
<text text-anchor="start" x="8.5" y="-503.8" font-family="Arial" font-size="14.00">at(player&#45;01,pos&#45;6&#45;3),</text>
<text text-anchor="start" x="8.5" y="-489.8" font-family="Arial" font-size="14.00">clear(pos&#45;6&#45;2)</text>
<path fill="none" stroke="black" d="M12,-478C12,-478 221,-478 221,-478 227,-478 233,-484 233,-490 233,-490 233,-790 233,-790 233,-796 227,-802 221,-802 221,-802 12,-802 12,-802 6,-802 0,-796 0,-790 0,-790 0,-490 0,-490 0,-484 6,-478 12,-478"/>
</g>
<!-- cluster&#45;0 -->
<g id="node6" class="node">
<title>cluster&#45;0</title>
<path fill="black" stroke="transparent" d="M281,-442C281,-442 342,-442 342,-442 348,-442 354,-448 354,-454 354,-454 354,-484 354,-484 354,-490 348,-496 342,-496 342,-496 281,-496 281,-496 275,-496 269,-490 269,-484 269,-484 269,-454 269,-454 269,-448 275,-442 281,-442"/>
<text text-anchor="start" x="281.5" y="-478.8" font-family="Arial" font-weight="bold" font-size="14.00" fill="white">cluster&#45;0 </text>
<text text-anchor="start" x="276.5" y="-453.8" font-family="Arial" font-weight="bold" font-size="14.00" fill="white">dist.: &#160;</text>
<text text-anchor="start" x="316.5" y="-453.8" font-family="Arial" font-size="14.00" fill="white"> 0.33</text>
</g>
<!-- action&#45;1&#45;&#45;cluster&#45;0 -->
<g id="edge3" class="edge">
<title>action&#45;1&#45;&#45;cluster&#45;0</title>
<path fill="none" stroke="black" d="M233.11,-537.57C250.29,-522.35 266.63,-507.87 279.83,-496.18"/>
</g>
<!-- action&#45;3 -->
<g id="node3" class="node">
<title>action&#45;3</title>
<path fill="black" stroke="transparent" d="M15.5,-434C15.5,-434 218.5,-434 218.5,-434 222,-434 225.5,-437.5 225.5,-441 225.5,-441 225.5,-448 225.5,-448 225.5,-451.5 222,-455 218.5,-455 218.5,-455 15.5,-455 15.5,-455 12,-455 8.5,-451.5 8.5,-448 8.5,-448 8.5,-441 8.5,-441 8.5,-437.5 12,-434 15.5,-434"/>
<text text-anchor="start" x="91" y="-441.8" font-family="Arial" font-weight="bold" font-size="14.00" fill="white">action&#45;3</text>
<text text-anchor="start" x="11.5" y="-416.8" font-family="Arial" font-weight="bold" font-size="14.00">params:</text>
<text text-anchor="start" x="11.5" y="-391.8" font-family="Arial" font-weight="bold" font-size="14.00">pre:</text>
<text text-anchor="start" x="11.5" y="-377.8" font-family="Arial" font-size="14.00">at(player&#45;01,pos&#45;6&#45;2),</text>
<text text-anchor="start" x="11.5" y="-363.8" font-family="Arial" font-size="14.00">clear(pos&#45;5&#45;2),</text>
<text text-anchor="start" x="11.5" y="-349.8" font-family="Arial" font-size="14.00">is&#45;nongoal(pos&#45;5&#45;2),</text>
<text text-anchor="start" x="11.5" y="-335.8" font-family="Arial" font-size="14.00">is&#45;nongoal(pos&#45;6&#45;2),</text>
<text text-anchor="start" x="11.5" y="-321.8" font-family="Arial" font-size="14.00">is&#45;player(player&#45;01),</text>
<text text-anchor="start" x="11.5" y="-307.8" font-family="Arial" font-size="14.00">location(pos&#45;5&#45;2),</text>
<text text-anchor="start" x="11.5" y="-293.8" font-family="Arial" font-size="14.00">location(pos&#45;6&#45;2),</text>
<text text-anchor="start" x="11.5" y="-279.8" font-family="Arial" font-size="14.00">move&#45;dir(pos&#45;5&#45;2,pos&#45;6&#45;2,dir&#45;right),</text>
<text text-anchor="start" x="11.5" y="-265.8" font-family="Arial" font-size="14.00">move&#45;dir(pos&#45;6&#45;2,pos&#45;5&#45;2,dir&#45;left),</text>
<text text-anchor="start" x="11.5" y="-251.8" font-family="Arial" font-size="14.00">thing(player&#45;01)</text>
<text text-anchor="start" x="11.5" y="-227.8" font-family="Arial" font-weight="bold" font-size="14.00">add:</text>
<text text-anchor="start" x="11.5" y="-213.8" font-family="Arial" font-size="14.00">at(player&#45;01,pos&#45;5&#45;2),</text>
<text text-anchor="start" x="11.5" y="-199.8" font-family="Arial" font-size="14.00">clear(pos&#45;6&#45;2)</text>
<text text-anchor="start" x="11.5" y="-175.8" font-family="Arial" font-weight="bold" font-size="14.00">del:</text>
<text text-anchor="start" x="11.5" y="-161.8" font-family="Arial" font-size="14.00">at(player&#45;01,pos&#45;6&#45;2),</text>
<text text-anchor="start" x="11.5" y="-147.8" font-family="Arial" font-size="14.00">clear(pos&#45;5&#45;2)</text>
<path fill="none" stroke="black" d="M15,-136C15,-136 218,-136 218,-136 224,-136 230,-142 230,-148 230,-148 230,-448 230,-448 230,-454 224,-460 218,-460 218,-460 15,-460 15,-460 9,-460 3,-454 3,-448 3,-448 3,-148 3,-148 3,-142 9,-136 15,-136"/>
</g>
<!-- action&#45;3&#45;&#45;cluster&#45;0 -->
<g id="edge4" class="edge">
<title>action&#45;3&#45;&#45;cluster&#45;0</title>
<path fill="none" stroke="black" d="M230.05,-397.72C248.41,-413.99 265.97,-429.55 279.98,-441.96"/>
</g>
<!-- action&#45;4 -->
<g id="node4" class="node">
<title>action&#45;4</title>
<path fill="#c9211e" stroke="transparent" d="M406.5,-569C406.5,-569 601.5,-569 601.5,-569 605,-569 608.5,-572.5 608.5,-576 608.5,-576 608.5,-583 608.5,-583 608.5,-586.5 605,-590 601.5,-590 601.5,-590 406.5,-590 406.5,-590 403,-590 399.5,-586.5 399.5,-583 399.5,-583 399.5,-576 399.5,-576 399.5,-572.5 403,-569 406.5,-569"/>
<text text-anchor="start" x="478" y="-576.8" font-family="Arial" font-weight="bold" font-size="14.00" fill="white">action&#45;4</text>
<text text-anchor="start" x="402.5" y="-551.8" font-family="Arial" font-weight="bold" font-size="14.00">params:</text>
<text text-anchor="start" x="402.5" y="-537.8" font-family="Arial" font-size="14.00">X0, X1, X2, X3</text>
<text text-anchor="start" x="402.5" y="-513.8" font-family="Arial" font-weight="bold" font-size="14.00">pre:</text>
<text text-anchor="start" x="402.5" y="-499.8" font-family="Arial" font-size="14.00">at(player&#45;01,X3), clear(X0),</text>
<text text-anchor="start" x="402.5" y="-485.8" font-family="Arial" font-size="14.00">is&#45;nongoal(X0), is&#45;nongoal(X3),</text>
<text text-anchor="start" x="402.5" y="-471.8" font-family="Arial" font-size="14.00">is&#45;player(player&#45;01), location(X0),</text>
<text text-anchor="start" x="402.5" y="-457.8" font-family="Arial" font-size="14.00">location(X3), move&#45;dir(X0,X3,X1),</text>
<text text-anchor="start" x="402.5" y="-443.8" font-family="Arial" font-size="14.00">move&#45;dir(X3,X0,X2),</text>
<text text-anchor="start" x="402.5" y="-429.8" font-family="Arial" font-size="14.00">thing(player&#45;01)</text>
<text text-anchor="start" x="402.5" y="-405.8" font-family="Arial" font-weight="bold" font-size="14.00">add:</text>
<text text-anchor="start" x="402.5" y="-391.8" font-family="Arial" font-size="14.00">at(player&#45;01,X0), clear(X3)</text>
<text text-anchor="start" x="402.5" y="-367.8" font-family="Arial" font-weight="bold" font-size="14.00">del:</text>
<text text-anchor="start" x="402.5" y="-353.8" font-family="Arial" font-size="14.00">at(player&#45;01,X3), clear(X0)</text>
<path fill="none" stroke="#c9211e" d="M406,-342.5C406,-342.5 601,-342.5 601,-342.5 607,-342.5 613,-348.5 613,-354.5 613,-354.5 613,-583.5 613,-583.5 613,-589.5 607,-595.5 601,-595.5 601,-595.5 406,-595.5 406,-595.5 400,-595.5 394,-589.5 394,-583.5 394,-583.5 394,-354.5 394,-354.5 394,-348.5 400,-342.5 406,-342.5"/>
</g>
<!-- cluster&#45;1 -->
<g id="node7" class="node">
<title>cluster&#45;1</title>
<path fill="black" stroke="transparent" d="M665,-288C665,-288 726,-288 726,-288 732,-288 738,-294 738,-300 738,-300 738,-330 738,-330 738,-336 732,-342 726,-342 726,-342 665,-342 665,-342 659,-342 653,-336 653,-330 653,-330 653,-300 653,-300 653,-294 659,-288 665,-288"/>
<text text-anchor="start" x="665.5" y="-324.8" font-family="Arial" font-weight="bold" font-size="14.00" fill="white">cluster&#45;1 </text>
<text text-anchor="start" x="660.5" y="-299.8" font-family="Arial" font-weight="bold" font-size="14.00" fill="white">dist.: &#160;</text>
<text text-anchor="start" x="700.5" y="-299.8" font-family="Arial" font-size="14.00" fill="white"> 0.00</text>
</g>
<!-- action&#45;4&#45;&#45;cluster&#45;1 -->
<g id="edge5" class="edge">
<title>action&#45;4&#45;&#45;cluster&#45;1</title>
<path fill="none" stroke="black" d="M613.1,-380.98C630.55,-366.83 647.38,-353.19 661.17,-342.02"/>
</g>
<!-- action&#45;7 -->
<g id="node5" class="node">
<title>action&#45;7</title>
<path fill="#00008b" stroke="transparent" d="M402.5,-298C402.5,-298 605.5,-298 605.5,-298 609,-298 612.5,-301.5 612.5,-305 612.5,-305 612.5,-312 612.5,-312 612.5,-315.5 609,-319 605.5,-319 605.5,-319 402.5,-319 402.5,-319 399,-319 395.5,-315.5 395.5,-312 395.5,-312 395.5,-305 395.5,-305 395.5,-301.5 399,-298 402.5,-298"/>
<text text-anchor="start" x="478" y="-305.8" font-family="Arial" font-weight="bold" font-size="14.00" fill="white">action&#45;7</text>
<text text-anchor="start" x="398.5" y="-280.8" font-family="Arial" font-weight="bold" font-size="14.00">params:</text>
<text text-anchor="start" x="398.5" y="-255.8" font-family="Arial" font-weight="bold" font-size="14.00">pre:</text>
<text text-anchor="start" x="398.5" y="-241.8" font-family="Arial" font-size="14.00">at(player&#45;01,pos&#45;5&#45;2),</text>
<text text-anchor="start" x="398.5" y="-227.8" font-family="Arial" font-size="14.00">clear(pos&#45;4&#45;2),</text>
<text text-anchor="start" x="398.5" y="-213.8" font-family="Arial" font-size="14.00">is&#45;nongoal(pos&#45;4&#45;2),</text>
<text text-anchor="start" x="398.5" y="-199.8" font-family="Arial" font-size="14.00">is&#45;nongoal(pos&#45;5&#45;2),</text>
<text text-anchor="start" x="398.5" y="-185.8" font-family="Arial" font-size="14.00">is&#45;player(player&#45;01),</text>
<text text-anchor="start" x="398.5" y="-171.8" font-family="Arial" font-size="14.00">location(pos&#45;4&#45;2),</text>
<text text-anchor="start" x="398.5" y="-157.8" font-family="Arial" font-size="14.00">location(pos&#45;5&#45;2),</text>
<text text-anchor="start" x="398.5" y="-143.8" font-family="Arial" font-size="14.00">move&#45;dir(pos&#45;4&#45;2,pos&#45;5&#45;2,dir&#45;right),</text>
<text text-anchor="start" x="398.5" y="-129.8" font-family="Arial" font-size="14.00">move&#45;dir(pos&#45;5&#45;2,pos&#45;4&#45;2,dir&#45;left),</text>
<text text-anchor="start" x="398.5" y="-115.8" font-family="Arial" font-size="14.00">thing(player&#45;01)</text>
<text text-anchor="start" x="398.5" y="-91.8" font-family="Arial" font-weight="bold" font-size="14.00">add:</text>
<text text-anchor="start" x="398.5" y="-77.8" font-family="Arial" font-size="14.00">at(player&#45;01,pos&#45;4&#45;2),</text>
<text text-anchor="start" x="398.5" y="-63.8" font-family="Arial" font-size="14.00">clear(pos&#45;5&#45;2)</text>
<text text-anchor="start" x="398.5" y="-39.8" font-family="Arial" font-weight="bold" font-size="14.00">del:</text>
<text text-anchor="start" x="398.5" y="-25.8" font-family="Arial" font-size="14.00">at(player&#45;01,pos&#45;5&#45;2),</text>
<text text-anchor="start" x="398.5" y="-11.8" font-family="Arial" font-size="14.00">clear(pos&#45;4&#45;2)</text>
<path fill="none" stroke="#00008b" d="M402,0C402,0 605,0 605,0 611,0 617,-6 617,-12 617,-12 617,-312 617,-312 617,-318 611,-324 605,-324 605,-324 402,-324 402,-324 396,-324 390,-318 390,-312 390,-312 390,-12 390,-12 390,-6 396,0 402,0"/>
</g>
<!-- action&#45;7&#45;&#45;cluster&#45;1 -->
<g id="edge6" class="edge">
<title>action&#45;7&#45;&#45;cluster&#45;1</title>
<path fill="none" stroke="black" d="M617.22,-252.77C633.04,-265.51 648.18,-277.7 660.81,-287.87"/>
</g>
<!-- cluster&#45;0&#45;&#45;action&#45;4 -->
<g id="edge1" class="edge">
<title>cluster&#45;0&#45;&#45;action&#45;4</title>
<path fill="none" stroke="black" d="M354.2,-469C366.1,-469 379.66,-469 393.63,-469"/>
</g>
<!-- cluster&#45;1&#45;&#45;action&#45;8 -->
<g id="edge2" class="edge">
<title>cluster&#45;1&#45;&#45;action&#45;8</title>
<path fill="none" stroke="black" d="M738.45,-315C749.21,-315 761.31,-315 773.83,-315"/>
</g>
</g>
</svg>
