<?xml version="1.0" encoding="UTF-8" standalone="no"?>
<!DOCTYPE svg PUBLIC "-//W3C//DTD SVG 1.1//EN"
 "http://www.w3.org/Graphics/SVG/1.1/DTD/svg11.dtd">
<!-- Generated by graphviz version 2.43.0 (0)
 -->
<!-- Title: g Pages: 1 -->
<svg width="312pt" height="125pt"
 viewBox="0.00 0.00 312.00 125.00" xmlns="http://www.w3.org/2000/svg" xmlns:xlink="http://www.w3.org/1999/xlink">
<g id="graph0" class="graph" transform="scale(1 1) rotate(0) translate(4 121)">
<title>g</title>
<polygon fill="white" stroke="transparent" points="-4,4 -4,-121 308,-121 308,4 -4,4"/>
<g id="clust1" class="cluster">
<title>cluster_actionlib</title>
<polygon fill="none" stroke="black" points="244,-19 244,-71 296,-71 296,-19 244,-19"/>
</g>
<!-- action&#45;8 -->
<g id="node1" class="node">
<title>action&#45;8</title>
<polygon fill="#008000" stroke="black" stroke-width="4" points="288,-63 252,-63 252,-27 288,-27 288,-63"/>
</g>
<!-- action&#45;1 -->
<g id="node2" class="node">
<title>action&#45;1</title>
<polygon fill="white" stroke="black" points="36,-117 0,-117 0,-81 36,-81 36,-117"/>
</g>
<!-- cluster&#45;0 -->
<g id="node6" class="node">
<title>cluster&#45;0</title>
<polygon fill="black" stroke="black" stroke-width="0" points="90,-81 72,-81 72,-63 90,-63 90,-81"/>
</g>
<!-- action&#45;1&#45;&#45;cluster&#45;0 -->
<g id="edge3" class="edge">
<title>action&#45;1&#45;&#45;cluster&#45;0</title>
<path fill="none" stroke="black" d="M36.32,-91.34C48.01,-86.16 62.91,-79.57 71.94,-75.57"/>
</g>
<!-- action&#45;3 -->
<g id="node3" class="node">
<title>action&#45;3</title>
<polygon fill="white" stroke="black" points="36,-63 0,-63 0,-27 36,-27 36,-63"/>
</g>
<!-- action&#45;3&#45;&#45;cluster&#45;0 -->
<g id="edge4" class="edge">
<title>action&#45;3&#45;&#45;cluster&#45;0</title>
<path fill="none" stroke="black" d="M36.32,-52.66C48.01,-57.84 62.91,-64.43 71.94,-68.43"/>
</g>
<!-- action&#45;4 -->
<g id="node4" class="node">
<title>action&#45;4</title>
<polygon fill="#c9211e" stroke="black" points="162,-90 126,-90 126,-54 162,-54 162,-90"/>
</g>
<!-- cluster&#45;1 -->
<g id="node7" class="node">
<title>cluster&#45;1</title>
<polygon fill="black" stroke="black" stroke-width="0" points="216,-54 198,-54 198,-36 216,-36 216,-54"/>
</g>
<!-- action&#45;4&#45;&#45;cluster&#45;1 -->
<g id="edge5" class="edge">
<title>action&#45;4&#45;&#45;cluster&#45;1</title>
<path fill="none" stroke="black" d="M162.32,-64.34C174.01,-59.16 188.91,-52.57 197.94,-48.57"/>
</g>
<!-- action&#45;7 -->
<g id="node5" class="node">
<title>action&#45;7</title>
<polygon fill="#00008b" stroke="black" points="162,-36 126,-36 126,0 162,0 162,-36"/>
</g>
<!-- action&#45;7&#45;&#45;cluster&#45;1 -->
<g id="edge6" class="edge">
<title>action&#45;7&#45;&#45;cluster&#45;1</title>
<path fill="none" stroke="black" d="M162.32,-25.66C174.01,-30.84 188.91,-37.43 197.94,-41.43"/>
</g>
<!-- cluster&#45;0&#45;&#45;action&#45;4 -->
<g id="edge1" class="edge">
<title>cluster&#45;0&#45;&#45;action&#45;4</title>
<path fill="none" stroke="black" d="M90.23,-72C99.33,-72 114.26,-72 125.92,-72"/>
</g>
<!-- cluster&#45;1&#45;&#45;action&#45;8 -->
<g id="edge2" class="edge">
<title>cluster&#45;1&#45;&#45;action&#45;8</title>
<path fill="none" stroke="black" d="M216.23,-45C225.33,-45 240.26,-45 251.92,-45"/>
</g>
</g>
</svg>
