<?xml version="1.0" encoding="UTF-8" standalone="no"?>
<!DOCTYPE svg PUBLIC "-//W3C//DTD SVG 1.1//EN"
 "http://www.w3.org/Graphics/SVG/1.1/DTD/svg11.dtd">
<!-- Generated by graphviz version 2.43.0 (0)
 -->
<!-- Title: g Pages: 1 -->
<svg width="564pt" height="263pt"
 viewBox="0.00 0.00 564.00 263.00" xmlns="http://www.w3.org/2000/svg" xmlns:xlink="http://www.w3.org/1999/xlink">
<g id="graph0" class="graph" transform="scale(1 1) rotate(0) translate(4 259)">
<title>g</title>
<polygon fill="white" stroke="transparent" points="-4,4 -4,-259 560,-259 560,4 -4,4"/>
<g id="clust1" class="cluster">
<title>cluster_actionlib</title>
<polygon fill="none" stroke="black" points="496,-8 496,-168 548,-168 548,-8 496,-8"/>
</g>
<!-- action&#45;18 -->
<g id="node1" class="node">
<title>action&#45;18</title>
<polygon fill="white" stroke="black" stroke-width="4" points="540,-160 504,-160 504,-124 540,-124 540,-160"/>
</g>
<!-- action&#45;26 -->
<g id="node2" class="node">
<title>action&#45;26</title>
<polygon fill="white" stroke="black" stroke-width="4" points="540,-106 504,-106 504,-70 540,-70 540,-106"/>
</g>
<!-- action&#45;29 -->
<g id="node3" class="node">
<title>action&#45;29</title>
<polygon fill="#008000" stroke="black" stroke-width="4" points="540,-52 504,-52 504,-16 540,-16 540,-52"/>
</g>
<!-- action&#45;1 -->
<g id="node4" class="node">
<title>action&#45;1</title>
<polygon fill="white" stroke="black" points="36,-174 0,-174 0,-138 36,-138 36,-174"/>
</g>
<!-- cluster&#45;0 -->
<g id="node16" class="node">
<title>cluster&#45;0</title>
<polygon fill="black" stroke="black" stroke-width="0" points="90,-138 72,-138 72,-120 90,-120 90,-138"/>
</g>
<!-- action&#45;1&#45;&#45;cluster&#45;0 -->
<g id="edge7" class="edge">
<title>action&#45;1&#45;&#45;cluster&#45;0</title>
<path fill="none" stroke="black" d="M36.32,-148.34C48.01,-143.16 62.91,-136.57 71.94,-132.57"/>
</g>
<!-- action&#45;3 -->
<g id="node5" class="node">
<title>action&#45;3</title>
<polygon fill="white" stroke="black" points="36,-120 0,-120 0,-84 36,-84 36,-120"/>
</g>
<!-- action&#45;3&#45;&#45;cluster&#45;0 -->
<g id="edge8" class="edge">
<title>action&#45;3&#45;&#45;cluster&#45;0</title>
<path fill="none" stroke="black" d="M36.32,-109.66C48.01,-114.84 62.91,-121.43 71.94,-125.43"/>
</g>
<!-- action&#45;4 -->
<g id="node6" class="node">
<title>action&#45;4</title>
<polygon fill="white" stroke="black" points="162,-147 126,-147 126,-111 162,-111 162,-147"/>
</g>
<!-- cluster&#45;1 -->
<g id="node17" class="node">
<title>cluster&#45;1</title>
<polygon fill="black" stroke="black" stroke-width="0" points="216,-111 198,-111 198,-93 216,-93 216,-111"/>
</g>
<!-- action&#45;4&#45;&#45;cluster&#45;1 -->
<g id="edge9" class="edge">
<title>action&#45;4&#45;&#45;cluster&#45;1</title>
<path fill="none" stroke="black" d="M162.32,-121.34C174.01,-116.16 188.91,-109.57 197.94,-105.57"/>
</g>
<!-- action&#45;7 -->
<g id="node7" class="node">
<title>action&#45;7</title>
<polygon fill="white" stroke="black" points="162,-93 126,-93 126,-57 162,-57 162,-93"/>
</g>
<!-- action&#45;7&#45;&#45;cluster&#45;1 -->
<g id="edge10" class="edge">
<title>action&#45;7&#45;&#45;cluster&#45;1</title>
<path fill="none" stroke="black" d="M162.32,-82.66C174.01,-87.84 188.91,-94.43 197.94,-98.43"/>
</g>
<!-- action&#45;8 -->
<g id="node8" class="node">
<title>action&#45;8</title>
<polygon fill="white" stroke="black" points="288,-120 252,-120 252,-84 288,-84 288,-120"/>
</g>
<!-- cluster&#45;4 -->
<g id="node20" class="node">
<title>cluster&#45;4</title>
<polygon fill="black" stroke="black" stroke-width="0" points="342,-97 324,-97 324,-79 342,-79 342,-97"/>
</g>
<!-- action&#45;8&#45;&#45;cluster&#45;4 -->
<g id="edge15" class="edge">
<title>action&#45;8&#45;&#45;cluster&#45;4</title>
<path fill="none" stroke="black" d="M288.32,-98.03C300.01,-95.34 314.91,-91.92 323.94,-89.85"/>
</g>
<!-- action&#45;11 -->
<g id="node9" class="node">
<title>action&#45;11</title>
<polygon fill="white" stroke="black" points="288,-255 252,-255 252,-219 288,-219 288,-255"/>
</g>
<!-- cluster&#45;2 -->
<g id="node18" class="node">
<title>cluster&#45;2</title>
<polygon fill="black" stroke="black" stroke-width="0" points="342,-205 324,-205 324,-187 342,-187 342,-205"/>
</g>
<!-- action&#45;11&#45;&#45;cluster&#45;2 -->
<g id="edge11" class="edge">
<title>action&#45;11&#45;&#45;cluster&#45;2</title>
<path fill="none" stroke="black" d="M288.32,-225.36C300.01,-217.5 314.91,-207.49 323.94,-201.42"/>
</g>
<!-- action&#45;13 -->
<g id="node10" class="node">
<title>action&#45;13</title>
<polygon fill="white" stroke="black" points="288,-201 252,-201 252,-165 288,-165 288,-201"/>
</g>
<!-- action&#45;13&#45;&#45;cluster&#45;2 -->
<g id="edge12" class="edge">
<title>action&#45;13&#45;&#45;cluster&#45;2</title>
<path fill="none" stroke="black" d="M288.32,-186.69C300.01,-189.18 314.91,-192.36 323.94,-194.28"/>
</g>
<!-- action&#45;14 -->
<g id="node11" class="node">
<title>action&#45;14</title>
<polygon fill="white" stroke="black" points="414,-214 378,-214 378,-178 414,-178 414,-214"/>
</g>
<!-- cluster&#45;3 -->
<g id="node19" class="node">
<title>cluster&#45;3</title>
<polygon fill="black" stroke="black" stroke-width="0" points="468,-151 450,-151 450,-133 468,-133 468,-151"/>
</g>
<!-- action&#45;14&#45;&#45;cluster&#45;3 -->
<g id="edge13" class="edge">
<title>action&#45;14&#45;&#45;cluster&#45;3</title>
<path fill="none" stroke="black" d="M414.32,-180.67C426.01,-170.32 440.91,-157.13 449.94,-149.14"/>
</g>
<!-- action&#45;17 -->
<g id="node12" class="node">
<title>action&#45;17</title>
<polygon fill="white" stroke="black" points="414,-160 378,-160 378,-124 414,-124 414,-160"/>
</g>
<!-- action&#45;17&#45;&#45;cluster&#45;3 -->
<g id="edge14" class="edge">
<title>action&#45;17&#45;&#45;cluster&#45;3</title>
<path fill="none" stroke="black" d="M414.32,-142C426.01,-142 440.91,-142 449.94,-142"/>
</g>
<!-- action&#45;21 -->
<g id="node13" class="node">
<title>action&#45;21</title>
<polygon fill="white" stroke="black" points="288,-66 252,-66 252,-30 288,-30 288,-66"/>
</g>
<!-- action&#45;21&#45;&#45;cluster&#45;4 -->
<g id="edge16" class="edge">
<title>action&#45;21&#45;&#45;cluster&#45;4</title>
<path fill="none" stroke="black" d="M288.32,-59.36C300.01,-67.02 314.91,-76.79 323.94,-82.71"/>
</g>
<!-- action&#45;22 -->
<g id="node14" class="node">
<title>action&#45;22</title>
<polygon fill="white" stroke="black" points="414,-106 378,-106 378,-70 414,-70 414,-106"/>
</g>
<!-- cluster&#45;5 -->
<g id="node21" class="node">
<title>cluster&#45;5</title>
<polygon fill="black" stroke="black" stroke-width="0" points="468,-97 450,-97 450,-79 468,-79 468,-97"/>
</g>
<!-- action&#45;22&#45;&#45;cluster&#45;5 -->
<g id="edge17" class="edge">
<title>action&#45;22&#45;&#45;cluster&#45;5</title>
<path fill="none" stroke="black" d="M414.32,-88C426.01,-88 440.91,-88 449.94,-88"/>
</g>
<!-- action&#45;25 -->
<g id="node15" class="node">
<title>action&#45;25</title>
<polygon fill="white" stroke="black" points="414,-52 378,-52 378,-16 414,-16 414,-52"/>
</g>
<!-- action&#45;25&#45;&#45;cluster&#45;5 -->
<g id="edge18" class="edge">
<title>action&#45;25&#45;&#45;cluster&#45;5</title>
<path fill="none" stroke="black" d="M414.32,-49.33C426.01,-59.68 440.91,-72.87 449.94,-80.86"/>
</g>
<!-- cluster&#45;0&#45;&#45;action&#45;4 -->
<g id="edge1" class="edge">
<title>cluster&#45;0&#45;&#45;action&#45;4</title>
<path fill="none" stroke="black" d="M90.23,-129C99.33,-129 114.26,-129 125.92,-129"/>
</g>
<!-- cluster&#45;1&#45;&#45;action&#45;8 -->
<g id="edge2" class="edge">
<title>cluster&#45;1&#45;&#45;action&#45;8</title>
<path fill="none" stroke="black" d="M216.23,-102C225.33,-102 240.26,-102 251.92,-102"/>
</g>
<!-- cluster&#45;2&#45;&#45;action&#45;14 -->
<g id="edge3" class="edge">
<title>cluster&#45;2&#45;&#45;action&#45;14</title>
<path fill="none" stroke="black" d="M342.23,-196C351.33,-196 366.26,-196 377.92,-196"/>
</g>
<!-- cluster&#45;3&#45;&#45;action&#45;18 -->
<g id="edge4" class="edge">
<title>cluster&#45;3&#45;&#45;action&#45;18</title>
<path fill="none" stroke="black" d="M468.23,-142C477.33,-142 492.26,-142 503.92,-142"/>
</g>
<!-- cluster&#45;4&#45;&#45;action&#45;22 -->
<g id="edge5" class="edge">
<title>cluster&#45;4&#45;&#45;action&#45;22</title>
<path fill="none" stroke="black" d="M342.23,-88C351.33,-88 366.26,-88 377.92,-88"/>
</g>
<!-- cluster&#45;5&#45;&#45;action&#45;26 -->
<g id="edge6" class="edge">
<title>cluster&#45;5&#45;&#45;action&#45;26</title>
<path fill="none" stroke="black" d="M468.23,-88C477.33,-88 492.26,-88 503.92,-88"/>
</g>
</g>
</svg>
