<?xml version="1.0" encoding="UTF-8" standalone="no"?>
<!-- Created with Inkscape (http://www.inkscape.org/) -->

<svg
   xmlns:dc="http://purl.org/dc/elements/1.1/"
   xmlns:cc="http://creativecommons.org/ns#"
   xmlns:rdf="http://www.w3.org/1999/02/22-rdf-syntax-ns#"
   xmlns:svg="http://www.w3.org/2000/svg"
   xmlns="http://www.w3.org/2000/svg"
   xmlns:sodipodi="http://sodipodi.sourceforge.net/DTD/sodipodi-0.dtd"
   xmlns:inkscape="http://www.inkscape.org/namespaces/inkscape"
   version="1.1"
   id="svg2"
   xml:space="preserve"
   width="341.33331"
   height="493.33331"
   viewBox="0 0 341.33331 493.33331"
   sodipodi:docname="sokoban-actionlib-tga.svg"
   inkscape:version="0.92.5 (2060ec1f9f, 2020-04-08)"><metadata
     id="metadata8"><rdf:RDF><cc:Work
         rdf:about=""><dc:format>image/svg+xml</dc:format><dc:type
           rdf:resource="http://purl.org/dc/dcmitype/StillImage" /><dc:title></dc:title></cc:Work></rdf:RDF></metadata><defs
     id="defs6" /><sodipodi:namedview
     pagecolor="#ffffff"
     bordercolor="#666666"
     borderopacity="1"
     objecttolerance="10"
     gridtolerance="10"
     guidetolerance="10"
     inkscape:pageopacity="0"
     inkscape:pageshadow="2"
     inkscape:window-width="1920"
     inkscape:window-height="1016"
     id="namedview4"
     showgrid="false"
     inkscape:zoom="0.76129032"
     inkscape:cx="32.585791"
     inkscape:cy="449.77085"
     inkscape:window-x="0"
     inkscape:window-y="27"
     inkscape:window-maximized="1"
     inkscape:current-layer="g12" /><g
     id="g10"
     inkscape:groupmode="layer"
     inkscape:label="g.gv"
     transform="matrix(1.3333333,0,0,1.3333333,-63.333332,-63.333332)"><g
       id="g12"><path
         d="M 48,48 H 303 V 417 H 48 Z"
         style="fill:none;stroke:#000000;stroke-width:1;stroke-linecap:butt;stroke-linejoin:miter;stroke-miterlimit:10;stroke-dasharray:none;stroke-opacity:1"
         id="path14"
         inkscape:connector-curvature="0" /><text
         transform="translate(131.5,62.199219)"
         style="font-variant:normal;font-weight:bold;font-size:14.00024414px;font-family:Arimo;-inkscape-font-specification:Arimo-Bold;writing-mode:lr-tb;fill:#000000;fill-opacity:1;fill-rule:nonzero;stroke:none"
         id="text18"><tspan
           x="0 9.7441702 17.248301 21.742378 25.480444 33.726589 41.958733 45.696796 49.43486 53.172928 61.419071 66.655159 74.159294 79.409386"
           y="0"
           sodipodi:role="line"
           id="tspan16">Action library</tspan></text>
<path
         d="m 71.5,108 c 0,0 209,0 209,0 3.5,0 7,-3.5 7,-7 0,0 0,-7 0,-7 0,-3.5 -3.5,-7 -7,-7 0,0 -209,0 -209,0 -3.5,0 -7,3.5 -7,7 0,0 0,7 0,7 0,3.5 3.5,7 7,7"
         style="fill:#000000;fill-opacity:1;fill-rule:nonzero;stroke:none"
         id="path20"
         inkscape:connector-curvature="0" /><text
         transform="translate(150,100.19922)"
         style="font-variant:normal;font-weight:bold;font-size:14.00024414px;font-family:Arimo;-inkscape-font-specification:Arimo-Bold;writing-mode:lr-tb;fill:#ffffff;fill-opacity:1;fill-rule:nonzero;stroke:none"
         id="text24"><tspan
           x="0 7.5041308 14.994262 19.50234 23.240404 31.472549 39.704693 44.212772"
           y="0"
           sodipodi:role="line"
           id="tspan22">action-1</tspan></text>
<text
         transform="translate(67.5,125.19922)"
         style="font-variant:normal;font-weight:bold;font-size:14.00024414px;font-family:Arimo;-inkscape-font-specification:Arimo-Bold;writing-mode:lr-tb;fill:#000000;fill-opacity:1;fill-rule:nonzero;stroke:none"
         id="text30"><tspan
           x="0 8.2321434 15.736275 20.986366 28.476496 41.230717 48.720848"
           y="0"
           sodipodi:role="line"
           id="tspan26">params:</tspan><tspan
           x="0 8.2321434 13.482235 20.986366"
           y="24.999998"
           sodipodi:role="line"
           id="tspan28">pre:</tspan></text>
<text
         transform="translate(67.5,164.19922)"
         style="font-variant:normal;font-weight:normal;font-size:14.00024414px;font-family:Arimo;-inkscape-font-specification:Arimo;writing-mode:lr-tb;fill:#000000;fill-opacity:1;fill-rule:nonzero;stroke:none"
         id="text52"><tspan
           x="0 7.5041308 11.242196 15.736275 23.240404 26.236458 33.726589 40.474705 47.978836 52.472916 56.980991 64.471123 71.975258 75.713318 83.203453 90.707581 97.455696 101.96378 109.45391 113.94798 121.45212 125.9462"
           y="0"
           sodipodi:role="line"
           id="tspan32">at(player-01,pos-6-3),</tspan><tspan
           x="0 6.7481174 9.7441702 17.248301 24.738432 29.24651 33.740589 41.24472 48.734848 55.482967 59.991047 67.481178 71.989258 79.479385 83.987465"
           y="14.000006"
           sodipodi:role="line"
           id="tspan34">clear(pos-6-2),</tspan><tspan
           x="0 2.9960523 9.7441702 14.252249 21.742378 29.24651 36.736641 44.240772 51.7309 59.235031 62.231083 66.739166 74.229294 81.733421 88.481544 92.975624 100.47975 104.97383 112.47796 116.97204"
           y="28.000011"
           sodipodi:role="line"
           id="tspan36">is-nongoal(pos-6-2),</tspan><tspan
           x="0 2.9960523 9.7441702 14.252249 21.742378 29.24651 36.736641 44.240772 51.7309 59.235031 62.231083 66.739166 74.229294 81.733421 88.481544 92.975624 100.47975 104.97383 112.47796 116.97204"
           y="42.000019"
           sodipodi:role="line"
           id="tspan38">is-nongoal(pos-6-3),</tspan><tspan
           x="0 2.9960523 9.7441702 14.252249 21.742378 24.738432 32.242561 38.990681 46.494812 50.988888 55.482967 62.987099 65.983147 73.487282 80.235397 87.725533 92.233604 96.727684 104.23182 111.72195 116.23003"
           y="56.000023"
           sodipodi:role="line"
           id="tspan40">is-player(player-01),</tspan><tspan
           x="0 2.9960523 10.500183 17.248301 24.738432 28.476496 31.472549 38.976681 46.480808 50.974888 58.479019 65.969147 72.71727 77.225349 84.715477 89.223557 96.713684 101.22176"
           y="70.000031"
           sodipodi:role="line"
           id="tspan42">location(pos-6-2),</tspan><tspan
           x="0 2.9960523 10.500183 17.248301 24.738432 28.476496 31.472549 38.976681 46.480808 50.974888 58.479019 65.969147 72.71727 77.225349 84.715477 89.223557 96.713684 101.22176"
           y="84.000038"
           sodipodi:role="line"
           id="tspan44">location(pos-6-3),</tspan><tspan
           x="0 11.998209 19.50234 26.250458 33.740589 38.248665 45.738796 48.734848 53.242928 57.737007 65.241135 72.73127 79.493385 83.987465 91.477592 95.985672 103.47581 107.21387 114.718 122.22213 128.97025 133.46432 140.96846 145.46254 152.96666 156.70473 164.19485 167.19092 171.69899 176.19307 183.6972 191.18733 200.9455 208.43564 212.92972"
           y="98.000046"
           sodipodi:role="line"
           id="tspan46">move-dir(pos-6-2,pos-6-3,dir-down),</tspan><tspan
           x="0 11.998209 19.50234 26.250458 33.740589 38.248665 45.738796 48.734848 53.242928 57.737007 65.241135 72.73127 79.493385 83.987465 91.477592 95.985672 103.47581 107.21387 114.718 122.22213 128.97025 133.46432 140.96846 145.46254 152.96666 156.70473 164.19485 167.19092 171.69899 176.19307 183.6972 191.18733 195.6954"
           y="112.00005"
           sodipodi:role="line"
           id="tspan48">move-dir(pos-6-3,pos-6-2,dir-up),</tspan><tspan
           x="0 3.7380652 11.242196 14.238248 21.728378 29.23251 33.726589 41.230717 44.226772 51.7169 58.479019 65.969147 70.477226 74.971306 82.461433 89.965569"
           y="126.00005"
           sodipodi:role="line"
           id="tspan50">thing(player-01)</tspan></text>
<text
         transform="translate(67.5,314.19928)"
         style="font-variant:normal;font-weight:bold;font-size:14.00024414px;font-family:Arimo;-inkscape-font-specification:Arimo-Bold;writing-mode:lr-tb;fill:#000000;fill-opacity:1;fill-rule:nonzero;stroke:none"
         id="text56"><tspan
           x="0 7.5041308 15.736275 23.968418"
           y="0"
           sodipodi:role="line"
           id="tspan54">add:</tspan></text>
<text
         transform="translate(67.5,328.19928)"
         style="font-variant:normal;font-weight:normal;font-size:14.00024414px;font-family:Arimo;-inkscape-font-specification:Arimo;writing-mode:lr-tb;fill:#000000;fill-opacity:1;fill-rule:nonzero;stroke:none"
         id="text62"><tspan
           x="0 7.5041308 11.242196 15.736275 23.240404 26.236458 33.726589 40.474705 47.978836 52.472916 56.980991 64.471123 71.975258 75.713318 83.203453 90.707581 97.455696 101.96378 109.45391 113.94798 121.45212 125.9462"
           y="0"
           sodipodi:role="line"
           id="tspan58">at(player-01,pos-6-2),</tspan><tspan
           x="0 6.7481174 9.7441702 17.248301 24.738432 29.24651 33.740589 41.24472 48.734848 55.482967 59.991047 67.481178 71.989258 79.479385"
           y="14.000006"
           sodipodi:role="line"
           id="tspan60">clear(pos-6-3)</tspan></text>
<text
         transform="translate(67.5,366.19929)"
         style="font-variant:normal;font-weight:bold;font-size:14.00024414px;font-family:Arimo;-inkscape-font-specification:Arimo-Bold;writing-mode:lr-tb;fill:#000000;fill-opacity:1;fill-rule:nonzero;stroke:none"
         id="text66"><tspan
           x="0 8.2321434 15.736275 19.474339"
           y="0"
           sodipodi:role="line"
           id="tspan64">del:</tspan></text>
<text
         transform="translate(67.5,380.1993)"
         style="font-variant:normal;font-weight:normal;font-size:14.00024414px;font-family:Arimo;-inkscape-font-specification:Arimo;writing-mode:lr-tb;fill:#000000;fill-opacity:1;fill-rule:nonzero;stroke:none"
         id="text72"><tspan
           x="0 7.5041308 11.242196 15.736275 23.240404 26.236458 33.726589 40.474705 47.978836 52.472916 56.980991 64.471123 71.975258 75.713318 83.203453 90.707581 97.455696 101.96378 109.45391 113.94798 121.45212 125.9462"
           y="0"
           sodipodi:role="line"
           id="tspan68">at(player-01,pos-6-3),</tspan><tspan
           x="0 6.7481174 9.7441702 17.248301 24.738432 29.24651 33.740589 41.24472 48.734848 55.482967 59.991047 67.481178 71.989258 79.479385"
           y="14.000006"
           sodipodi:role="line"
           id="tspan70">clear(pos-6-2)</tspan></text>
<path
         d="m 70,407 c 0,0 211,0 211,0 6,0 12,-6 12,-12 0,0 0,-302 0,-302 0,-6 -6,-12 -12,-12 0,0 -211,0 -211,0 -6,0 -12,6 -12,12 0,0 0,302 0,302 0,6 6,12 12,12"
         style="fill:none;stroke:#000b00;stroke-width:4;stroke-linecap:butt;stroke-linejoin:miter;stroke-miterlimit:10;stroke-dasharray:none;stroke-opacity:1"
         id="path74"
         inkscape:connector-curvature="0" /></g></g></svg>