<?xml version="1.0" encoding="UTF-8" standalone="no"?>
<!-- Generated by graphviz version 2.43.0 (0)
 -->

<!-- Title: g Pages: 1 -->

<svg
   xmlns:dc="http://purl.org/dc/elements/1.1/"
   xmlns:cc="http://creativecommons.org/ns#"
   xmlns:rdf="http://www.w3.org/1999/02/22-rdf-syntax-ns#"
   xmlns:svg="http://www.w3.org/2000/svg"
   xmlns="http://www.w3.org/2000/svg"
   xmlns:sodipodi="http://sodipodi.sourceforge.net/DTD/sodipodi-0.dtd"
   xmlns:inkscape="http://www.inkscape.org/namespaces/inkscape"
   width="515.56464pt"
   height="575.96191pt"
   viewBox="0 0 515.56463 575.96191"
   version="1.1"
   id="svg123"
   sodipodi:docname="sokoban-actionlib.svg"
   inkscape:version="0.92.5 (2060ec1f9f, 2020-04-08)">
  <metadata
     id="metadata129">
    <rdf:RDF>
      <cc:Work
         rdf:about="">
        <dc:format>image/svg+xml</dc:format>
        <dc:type
           rdf:resource="http://purl.org/dc/dcmitype/StillImage" />
      </cc:Work>
    </rdf:RDF>
  </metadata>
  <defs
     id="defs127" />
  <sodipodi:namedview
     pagecolor="#ffffff"
     bordercolor="#666666"
     borderopacity="1"
     objecttolerance="10"
     gridtolerance="10"
     guidetolerance="10"
     inkscape:pageopacity="0"
     inkscape:pageshadow="2"
     inkscape:window-width="1920"
     inkscape:window-height="1016"
     id="namedview125"
     showgrid="false"
     inkscape:zoom="0.78232044"
     inkscape:cx="166.24385"
     inkscape:cy="357.05512"
     inkscape:window-x="0"
     inkscape:window-y="27"
     inkscape:window-maximized="1"
     inkscape:current-layer="graph0" />
  <g
     id="graph0"
     class="graph"
     transform="translate(-6.6134005,889.45404)">
    <title
       id="title2">g</title>
    <text
       style="font-weight:bold;font-size:14px;font-family:Arial;text-anchor:start"
       id="text10"
       font-size="14.00"
       font-weight="bold"
       y="-874.79999"
       x="208.81567">Action library</text>
    <!-- move -->
    <g
       id="node1"
       class="node"
       transform="translate(131.34004,1.9173729)">
      <title
         id="title13">move</title>
      <path
         stroke="transparent"
         d="m 31.5,-828 c 0,0 207,0 207,0 3.5,0 7,-3.5 7,-7 0,0 0,-7 0,-7 0,-3.5 -3.5,-7 -7,-7 0,0 -207,0 -207,0 -3.5,0 -7,3.5 -7,7 0,0 0,7 0,7 0,3.5 3.5,7 7,7"
         id="path15"
         inkscape:connector-curvature="0"
         style="fill:#000000" />
      <text
         x="116.5"
         y="-835.79999"
         font-weight="bold"
         font-size="14.00"
         id="text17"
         style="font-weight:bold;font-size:14px;font-family:Arial;text-anchor:start;fill:#ffffff">move</text>
      <text
         x="27.5"
         y="-810.79999"
         font-weight="bold"
         font-size="14.00"
         id="text19"
         style="font-weight:bold;font-size:14px;font-family:Arial;text-anchor:start">params:</text>
      <text
         x="27.5"
         y="-796.79999"
         font-size="14.00"
         id="text21"
         style="font-size:14px;font-family:Arial;text-anchor:start">P, From, To, Dir</text>
      <text
         x="27.5"
         y="-772.79999"
         font-weight="bold"
         font-size="14.00"
         id="text23"
         style="font-weight:bold;font-size:14px;font-family:Arial;text-anchor:start">pre:</text>
      <text
         x="27.5"
         y="-758.79999"
         font-size="14.00"
         id="text25"
         style="font-size:14px;font-family:Arial;text-anchor:start">at(P,From), clear(To), direction(Dir),</text>
      <text
         x="27.5"
         y="-744.79999"
         font-size="14.00"
         id="text27"
         style="font-size:14px;font-family:Arial;text-anchor:start">is-player(P), location(From),</text>
      <text
         x="27.5"
         y="-730.79999"
         font-size="14.00"
         id="text29"
         style="font-size:14px;font-family:Arial;text-anchor:start">location(To), move-dir(From,To,Dir),</text>
      <text
         x="27.5"
         y="-716.79999"
         font-size="14.00"
         id="text31"
         style="font-size:14px;font-family:Arial;text-anchor:start">thing(P)</text>
      <text
         x="27.5"
         y="-692.79999"
         font-weight="bold"
         font-size="14.00"
         id="text33"
         style="font-weight:bold;font-size:14px;font-family:Arial;text-anchor:start">add:</text>
      <text
         x="27.5"
         y="-678.79999"
         font-size="14.00"
         id="text35"
         style="font-size:14px;font-family:Arial;text-anchor:start">at(P,To), clear(From)</text>
      <text
         x="27.5"
         y="-654.79999"
         font-weight="bold"
         font-size="14.00"
         id="text37"
         style="font-weight:bold;font-size:14px;font-family:Arial;text-anchor:start">del:</text>
      <text
         x="27.5"
         y="-640.79999"
         font-size="14.00"
         id="text39"
         style="font-size:14px;font-family:Arial;text-anchor:start">at(P,From), clear(To)</text>
      <path
         d="m 30,-628.5 c 0,0 209,0 209,0 6,0 12,-6 12,-12 0,0 0,-203 0,-203 0,-6 -6,-12 -12,-12 0,0 -209,0 -209,0 -6,0 -12,6 -12,12 0,0 0,203 0,203 0,6 6,12 12,12"
         id="path41"
         inkscape:connector-curvature="0"
         style="fill:none;stroke:#000000;stroke-width:4" />
    </g>
    <!-- push&#45;to&#45;goal -->
    <g
       id="node2"
       class="node">
      <title
         id="title44">push-to-goal</title>
      <path
         stroke="transparent"
         d="m 31.5,-579 c 0,0 207,0 207,0 3.5,0 7,-3.5 7,-7 0,0 0,-7 0,-7 0,-3.5 -3.5,-7 -7,-7 0,0 -207,0 -207,0 -3.5,0 -7,3.5 -7,7 0,0 0,7 0,7 0,3.5 3.5,7 7,7"
         id="path46"
         inkscape:connector-curvature="0"
         style="fill:#000000" />
      <text
         x="94"
         y="-586.79999"
         font-weight="bold"
         font-size="14.00"
         id="text48"
         style="font-weight:bold;font-size:14px;font-family:Arial;text-anchor:start;fill:#ffffff">push-to-goal</text>
      <text
         x="27.5"
         y="-561.79999"
         font-weight="bold"
         font-size="14.00"
         id="text50"
         style="font-weight:bold;font-size:14px;font-family:Arial;text-anchor:start">params:</text>
      <text
         x="27.5"
         y="-547.79999"
         font-size="14.00"
         id="text52"
         style="font-size:14px;font-family:Arial;text-anchor:start">P, S, Ppos, From, To, Dir</text>
      <text
         x="27.5"
         y="-523.79999"
         font-weight="bold"
         font-size="14.00"
         id="text54"
         style="font-weight:bold;font-size:14px;font-family:Arial;text-anchor:start">pre:</text>
      <text
         x="27.5"
         y="-509.79999"
         font-size="14.00"
         id="text56"
         style="font-size:14px;font-family:Arial;text-anchor:start">at(P,Ppos), at(S,From), clear(To),</text>
      <text
         x="27.5"
         y="-495.79999"
         font-size="14.00"
         id="text58"
         style="font-size:14px;font-family:Arial;text-anchor:start">direction(Dir), is-goal(To),</text>
      <text
         x="27.5"
         y="-481.79999"
         font-size="14.00"
         id="text60"
         style="font-size:14px;font-family:Arial;text-anchor:start">is-player(P), is-stone(S),</text>
      <text
         x="27.5"
         y="-467.79999"
         font-size="14.00"
         id="text62"
         style="font-size:14px;font-family:Arial;text-anchor:start">location(From), location(Ppos),</text>
      <text
         x="27.5"
         y="-453.79999"
         font-size="14.00"
         id="text64"
         style="font-size:14px;font-family:Arial;text-anchor:start">location(To), move-dir(From,To,Dir),</text>
      <text
         x="27.5"
         y="-439.79999"
         font-size="14.00"
         id="text66"
         style="font-size:14px;font-family:Arial;text-anchor:start">move-dir(Ppos,From,Dir), thing(P),</text>
      <text
         x="27.5"
         y="-425.79999"
         font-size="14.00"
         id="text68"
         style="font-size:14px;font-family:Arial;text-anchor:start">thing(S)</text>
      <text
         x="27.5"
         y="-401.79999"
         font-weight="bold"
         font-size="14.00"
         id="text70"
         style="font-weight:bold;font-size:14px;font-family:Arial;text-anchor:start">add:</text>
      <text
         x="27.5"
         y="-387.79999"
         font-size="14.00"
         id="text72"
         style="font-size:14px;font-family:Arial;text-anchor:start">at(P,From), at(S,To), at-goal(S),</text>
      <text
         x="27.5"
         y="-373.79999"
         font-size="14.00"
         id="text74"
         style="font-size:14px;font-family:Arial;text-anchor:start">clear(Ppos)</text>
      <text
         x="27.5"
         y="-349.79999"
         font-weight="bold"
         font-size="14.00"
         id="text76"
         style="font-weight:bold;font-size:14px;font-family:Arial;text-anchor:start">del:</text>
      <text
         x="27.5"
         y="-335.79999"
         font-size="14.00"
         id="text78"
         style="font-size:14px;font-family:Arial;text-anchor:start">at(P,Ppos), at(S,From), clear(To)</text>
      <path
         d="m 30,-323.5 c 0,0 209,0 209,0 6,0 12,-6 12,-12 0,0 0,-259 0,-259 0,-6 -6,-12 -12,-12 0,0 -209,0 -209,0 -6,0 -12,6 -12,12 0,0 0,259 0,259 0,6 6,12 12,12"
         id="path80"
         inkscape:connector-curvature="0"
         style="fill:none;stroke:#000000;stroke-width:4" />
    </g>
    <!-- push&#45;to&#45;nongoal -->
    <g
       id="node3"
       class="node"
       transform="translate(255.0106,-304.86228)">
      <title
         id="title83">push-to-nongoal</title>
      <path
         stroke="transparent"
         d="m 31.5,-274 c 0,0 207,0 207,0 3.5,0 7,-3.5 7,-7 0,0 0,-7 0,-7 0,-3.5 -3.5,-7 -7,-7 0,0 -207,0 -207,0 -3.5,0 -7,3.5 -7,7 0,0 0,7 0,7 0,3.5 3.5,7 7,7"
         id="path85"
         inkscape:connector-curvature="0"
         style="fill:#000000" />
      <text
         x="81.5"
         y="-281.79999"
         font-weight="bold"
         font-size="14.00"
         id="text87"
         style="font-weight:bold;font-size:14px;font-family:Arial;text-anchor:start;fill:#ffffff">push-to-nongoal</text>
      <text
         x="27.5"
         y="-256.79999"
         font-weight="bold"
         font-size="14.00"
         id="text89"
         style="font-weight:bold;font-size:14px;font-family:Arial;text-anchor:start">params:</text>
      <text
         x="27.5"
         y="-242.8"
         font-size="14.00"
         id="text91"
         style="font-size:14px;font-family:Arial;text-anchor:start">P, S, Ppos, From, To, Dir</text>
      <text
         x="27.5"
         y="-218.8"
         font-weight="bold"
         font-size="14.00"
         id="text93"
         style="font-weight:bold;font-size:14px;font-family:Arial;text-anchor:start">pre:</text>
      <text
         x="27.5"
         y="-204.8"
         font-size="14.00"
         id="text95"
         style="font-size:14px;font-family:Arial;text-anchor:start">at(P,Ppos), at(S,From), clear(To),</text>
      <text
         x="27.5"
         y="-190.8"
         font-size="14.00"
         id="text97"
         style="font-size:14px;font-family:Arial;text-anchor:start">direction(Dir), is-nongoal(To),</text>
      <text
         x="27.5"
         y="-176.8"
         font-size="14.00"
         id="text99"
         style="font-size:14px;font-family:Arial;text-anchor:start">is-player(P), is-stone(S),</text>
      <text
         x="27.5"
         y="-162.8"
         font-size="14.00"
         id="text101"
         style="font-size:14px;font-family:Arial;text-anchor:start">location(From), location(Ppos),</text>
      <text
         x="27.5"
         y="-148.8"
         font-size="14.00"
         id="text103"
         style="font-size:14px;font-family:Arial;text-anchor:start">location(To), move-dir(From,To,Dir),</text>
      <text
         x="27.5"
         y="-134.8"
         font-size="14.00"
         id="text105"
         style="font-size:14px;font-family:Arial;text-anchor:start">move-dir(Ppos,From,Dir), thing(P),</text>
      <text
         x="27.5"
         y="-120.8"
         font-size="14.00"
         id="text107"
         style="font-size:14px;font-family:Arial;text-anchor:start">thing(S)</text>
      <text
         x="27.5"
         y="-96.800003"
         font-weight="bold"
         font-size="14.00"
         id="text109"
         style="font-weight:bold;font-size:14px;font-family:Arial;text-anchor:start">add:</text>
      <text
         x="27.5"
         y="-82.800003"
         font-size="14.00"
         id="text111"
         style="font-size:14px;font-family:Arial;text-anchor:start">at(P,From), at(S,To), clear(Ppos)</text>
      <text
         x="27.5"
         y="-58.799999"
         font-weight="bold"
         font-size="14.00"
         id="text113"
         style="font-weight:bold;font-size:14px;font-family:Arial;text-anchor:start">del:</text>
      <text
         x="27.5"
         y="-44.799999"
         font-size="14.00"
         id="text115"
         style="font-size:14px;font-family:Arial;text-anchor:start">at(P,Ppos), at(S,From), at-goal(S),</text>
      <text
         x="27.5"
         y="-30.799999"
         font-size="14.00"
         id="text117"
         style="font-size:14px;font-family:Arial;text-anchor:start">clear(To)</text>
      <path
         d="m 30,-18.5 c 0,0 209,0 209,0 6,0 12,-6 12,-12 0,0 0,-259 0,-259 0,-6 -6,-12 -12,-12 0,0 -209,0 -209,0 -6,0 -12,6 -12,12 0,0 0,259 0,259 0,6 6,12 12,12"
         id="path119"
         inkscape:connector-curvature="0"
         style="fill:none;stroke:#000000;stroke-width:4" />
    </g>
    <rect
       style="fill:none;fill-opacity:1;stroke:#000b00;stroke-width:0.75;stroke-miterlimit:10;stroke-dasharray:none;stroke-opacity:1"
       id="rect874"
       width="514.81464"
       height="575.21191"
       x="6.9884005"
       y="-889.07904" />
  </g>
</svg>
