<?xml version="1.0" encoding="UTF-8" standalone="no"?>
<!-- Generated by graphviz version 2.43.0 (0)
 -->

<!-- Title: g Pages: 1 -->

<svg
   xmlns:dc="http://purl.org/dc/elements/1.1/"
   xmlns:cc="http://creativecommons.org/ns#"
   xmlns:rdf="http://www.w3.org/1999/02/22-rdf-syntax-ns#"
   xmlns:svg="http://www.w3.org/2000/svg"
   xmlns="http://www.w3.org/2000/svg"
   xmlns:sodipodi="http://sodipodi.sourceforge.net/DTD/sodipodi-0.dtd"
   xmlns:inkscape="http://www.inkscape.org/namespaces/inkscape"
   width="237pt"
   height="231pt"
   viewBox="0 0 237 231"
   version="1.1"
   id="svg123"
   sodipodi:docname="sokoban-move.svg"
   inkscape:version="0.92.5 (2060ec1f9f, 2020-04-08)">
  <metadata
     id="metadata129">
    <rdf:RDF>
      <cc:Work
         rdf:about="">
        <dc:format>image/svg+xml</dc:format>
        <dc:type
           rdf:resource="http://purl.org/dc/dcmitype/StillImage" />
        <dc:title></dc:title>
      </cc:Work>
    </rdf:RDF>
  </metadata>
  <defs
     id="defs127" />
  <sodipodi:namedview
     pagecolor="#ffffff"
     bordercolor="#666666"
     borderopacity="1"
     objecttolerance="10"
     gridtolerance="10"
     guidetolerance="10"
     inkscape:pageopacity="0"
     inkscape:pageshadow="2"
     inkscape:window-width="1920"
     inkscape:window-height="1016"
     id="namedview125"
     showgrid="false"
     inkscape:zoom="1.1063682"
     inkscape:cx="166.21716"
     inkscape:cy="-14.492042"
     inkscape:window-x="0"
     inkscape:window-y="27"
     inkscape:window-maximized="1"
     inkscape:current-layer="svg123" />
  <g
     class="node"
     id="node1"
     transform="translate(-16,857.5)">
    <title
       id="title13">move</title>
    <path
       style="fill:#000000"
       inkscape:connector-curvature="0"
       id="path15"
       d="m 31.5,-828 c 0,0 207,0 207,0 3.5,0 7,-3.5 7,-7 0,0 0,-7 0,-7 0,-3.5 -3.5,-7 -7,-7 0,0 -207,0 -207,0 -3.5,0 -7,3.5 -7,7 0,0 0,7 0,7 0,3.5 3.5,7 7,7"
       stroke="transparent" />
    <text
       style="font-weight:bold;font-size:14px;font-family:Arial;text-anchor:start;fill:#ffffff"
       id="text17"
       font-size="14.00"
       font-weight="bold"
       y="-835.79999"
       x="116.5">move</text>
    <text
       style="font-weight:bold;font-size:14px;font-family:Arial;text-anchor:start"
       id="text19"
       font-size="14.00"
       font-weight="bold"
       y="-810.79999"
       x="27.5">params:</text>
    <text
       style="font-size:14px;font-family:Arial;text-anchor:start"
       id="text21"
       font-size="14.00"
       y="-796.79999"
       x="27.5">P, From, To, Dir</text>
    <text
       style="font-weight:bold;font-size:14px;font-family:Arial;text-anchor:start"
       id="text23"
       font-size="14.00"
       font-weight="bold"
       y="-772.79999"
       x="27.5">pre:</text>
    <text
       style="font-size:14px;font-family:Arial;text-anchor:start"
       id="text25"
       font-size="14.00"
       y="-758.79999"
       x="27.5">at(P,From), clear(To), direction(Dir),</text>
    <text
       style="font-size:14px;font-family:Arial;text-anchor:start"
       id="text27"
       font-size="14.00"
       y="-744.79999"
       x="27.5">is-player(P), location(From),</text>
    <text
       style="font-size:14px;font-family:Arial;text-anchor:start"
       id="text29"
       font-size="14.00"
       y="-730.79999"
       x="27.5">location(To), move-dir(From,To,Dir),</text>
    <text
       style="font-size:14px;font-family:Arial;text-anchor:start"
       id="text31"
       font-size="14.00"
       y="-716.79999"
       x="27.5">thing(P)</text>
    <text
       style="font-weight:bold;font-size:14px;font-family:Arial;text-anchor:start"
       id="text33"
       font-size="14.00"
       font-weight="bold"
       y="-692.79999"
       x="27.5">add:</text>
    <text
       style="font-size:14px;font-family:Arial;text-anchor:start"
       id="text35"
       font-size="14.00"
       y="-678.79999"
       x="27.5">at(P,To), clear(From)</text>
    <text
       style="font-weight:bold;font-size:14px;font-family:Arial;text-anchor:start"
       id="text37"
       font-size="14.00"
       font-weight="bold"
       y="-654.79999"
       x="27.5">del:</text>
    <text
       style="font-size:14px;font-family:Arial;text-anchor:start"
       id="text39"
       font-size="14.00"
       y="-640.79999"
       x="27.5">at(P,From), clear(To)</text>
    <path
       style="fill:none;stroke:#000000;stroke-width:4"
       inkscape:connector-curvature="0"
       id="path41"
       d="m 30,-628.5 c 0,0 209,0 209,0 6,0 12,-6 12,-12 0,0 0,-203 0,-203 0,-6 -6,-12 -12,-12 0,0 -209,0 -209,0 -6,0 -12,6 -12,12 0,0 0,203 0,203 0,6 6,12 12,12" />
  </g>
</svg>
