<?xml version="1.0" encoding="UTF-8" standalone="no"?>
<!DOCTYPE svg PUBLIC "-//W3C//DTD SVG 1.1//EN"
 "http://www.w3.org/Graphics/SVG/1.1/DTD/svg11.dtd">
<!-- Generated by graphviz version 2.43.0 (0)
 -->
<!-- Title: g Pages: 1 -->
<svg width="277pt" height="905pt"
 viewBox="0.00 0.00 277.00 905.00" xmlns="http://www.w3.org/2000/svg" xmlns:xlink="http://www.w3.org/1999/xlink">
<g id="graph0" class="graph" transform="scale(1 1) rotate(0) translate(4 901)">
<title>g</title>
<polygon fill="white" stroke="transparent" points="-4,4 -4,-901 273,-901 273,4 -4,4"/>
<g id="clust1" class="cluster">
<title>cluster_actionlib</title>
<polygon fill="none" stroke="black" points="8,-8 8,-889 261,-889 261,-8 8,-8"/>
<text text-anchor="start" x="90.5" y="-874.8" font-family="Arial" font-weight="bold" font-size="14.00">Action library</text>
</g>
<!-- move -->
<g id="node1" class="node">
<title>move</title>
<path fill="black" stroke="transparent" d="M31.5,-828C31.5,-828 238.5,-828 238.5,-828 242,-828 245.5,-831.5 245.5,-835 245.5,-835 245.5,-842 245.5,-842 245.5,-845.5 242,-849 238.5,-849 238.5,-849 31.5,-849 31.5,-849 28,-849 24.5,-845.5 24.5,-842 24.5,-842 24.5,-835 24.5,-835 24.5,-831.5 28,-828 31.5,-828"/>
<text text-anchor="start" x="116.5" y="-835.8" font-family="Arial" font-weight="bold" font-size="14.00" fill="white">move</text>
<text text-anchor="start" x="27.5" y="-810.8" font-family="Arial" font-weight="bold" font-size="14.00">params:</text>
<text text-anchor="start" x="27.5" y="-796.8" font-family="Arial" font-size="14.00">P, From, To, Dir</text>
<text text-anchor="start" x="27.5" y="-772.8" font-family="Arial" font-weight="bold" font-size="14.00">pre:</text>
<text text-anchor="start" x="27.5" y="-758.8" font-family="Arial" font-size="14.00">at(P,From), clear(To), direction(Dir),</text>
<text text-anchor="start" x="27.5" y="-744.8" font-family="Arial" font-size="14.00">is&#45;player(P), location(From),</text>
<text text-anchor="start" x="27.5" y="-730.8" font-family="Arial" font-size="14.00">location(To), move&#45;dir(From,To,Dir),</text>
<text text-anchor="start" x="27.5" y="-716.8" font-family="Arial" font-size="14.00">thing(P)</text>
<text text-anchor="start" x="27.5" y="-692.8" font-family="Arial" font-weight="bold" font-size="14.00">add:</text>
<text text-anchor="start" x="27.5" y="-678.8" font-family="Arial" font-size="14.00">at(P,To), clear(From)</text>
<text text-anchor="start" x="27.5" y="-654.8" font-family="Arial" font-weight="bold" font-size="14.00">del:</text>
<text text-anchor="start" x="27.5" y="-640.8" font-family="Arial" font-size="14.00">at(P,From), clear(To)</text>
<path fill="none" stroke="black" stroke-width="4" d="M30,-628.5C30,-628.5 239,-628.5 239,-628.5 245,-628.5 251,-634.5 251,-640.5 251,-640.5 251,-843.5 251,-843.5 251,-849.5 245,-855.5 239,-855.5 239,-855.5 30,-855.5 30,-855.5 24,-855.5 18,-849.5 18,-843.5 18,-843.5 18,-640.5 18,-640.5 18,-634.5 24,-628.5 30,-628.5"/>
</g>
<!-- push&#45;to&#45;goal -->
<g id="node2" class="node">
<title>push&#45;to&#45;goal</title>
<path fill="black" stroke="transparent" d="M31.5,-579C31.5,-579 238.5,-579 238.5,-579 242,-579 245.5,-582.5 245.5,-586 245.5,-586 245.5,-593 245.5,-593 245.5,-596.5 242,-600 238.5,-600 238.5,-600 31.5,-600 31.5,-600 28,-600 24.5,-596.5 24.5,-593 24.5,-593 24.5,-586 24.5,-586 24.5,-582.5 28,-579 31.5,-579"/>
<text text-anchor="start" x="94" y="-586.8" font-family="Arial" font-weight="bold" font-size="14.00" fill="white">push&#45;to&#45;goal</text>
<text text-anchor="start" x="27.5" y="-561.8" font-family="Arial" font-weight="bold" font-size="14.00">params:</text>
<text text-anchor="start" x="27.5" y="-547.8" font-family="Arial" font-size="14.00">P, S, Ppos, From, To, Dir</text>
<text text-anchor="start" x="27.5" y="-523.8" font-family="Arial" font-weight="bold" font-size="14.00">pre:</text>
<text text-anchor="start" x="27.5" y="-509.8" font-family="Arial" font-size="14.00">at(P,Ppos), at(S,From), clear(To),</text>
<text text-anchor="start" x="27.5" y="-495.8" font-family="Arial" font-size="14.00">direction(Dir), is&#45;goal(To),</text>
<text text-anchor="start" x="27.5" y="-481.8" font-family="Arial" font-size="14.00">is&#45;player(P), is&#45;stone(S),</text>
<text text-anchor="start" x="27.5" y="-467.8" font-family="Arial" font-size="14.00">location(From), location(Ppos),</text>
<text text-anchor="start" x="27.5" y="-453.8" font-family="Arial" font-size="14.00">location(To), move&#45;dir(From,To,Dir),</text>
<text text-anchor="start" x="27.5" y="-439.8" font-family="Arial" font-size="14.00">move&#45;dir(Ppos,From,Dir), thing(P),</text>
<text text-anchor="start" x="27.5" y="-425.8" font-family="Arial" font-size="14.00">thing(S)</text>
<text text-anchor="start" x="27.5" y="-401.8" font-family="Arial" font-weight="bold" font-size="14.00">add:</text>
<text text-anchor="start" x="27.5" y="-387.8" font-family="Arial" font-size="14.00">at(P,From), at(S,To), at&#45;goal(S),</text>
<text text-anchor="start" x="27.5" y="-373.8" font-family="Arial" font-size="14.00">clear(Ppos)</text>
<text text-anchor="start" x="27.5" y="-349.8" font-family="Arial" font-weight="bold" font-size="14.00">del:</text>
<text text-anchor="start" x="27.5" y="-335.8" font-family="Arial" font-size="14.00">at(P,Ppos), at(S,From), clear(To)</text>
<path fill="none" stroke="black" stroke-width="4" d="M30,-323.5C30,-323.5 239,-323.5 239,-323.5 245,-323.5 251,-329.5 251,-335.5 251,-335.5 251,-594.5 251,-594.5 251,-600.5 245,-606.5 239,-606.5 239,-606.5 30,-606.5 30,-606.5 24,-606.5 18,-600.5 18,-594.5 18,-594.5 18,-335.5 18,-335.5 18,-329.5 24,-323.5 30,-323.5"/>
</g>
<!-- push&#45;to&#45;nongoal -->
<g id="node3" class="node">
<title>push&#45;to&#45;nongoal</title>
<path fill="black" stroke="transparent" d="M31.5,-274C31.5,-274 238.5,-274 238.5,-274 242,-274 245.5,-277.5 245.5,-281 245.5,-281 245.5,-288 245.5,-288 245.5,-291.5 242,-295 238.5,-295 238.5,-295 31.5,-295 31.5,-295 28,-295 24.5,-291.5 24.5,-288 24.5,-288 24.5,-281 24.5,-281 24.5,-277.5 28,-274 31.5,-274"/>
<text text-anchor="start" x="81.5" y="-281.8" font-family="Arial" font-weight="bold" font-size="14.00" fill="white">push&#45;to&#45;nongoal</text>
<text text-anchor="start" x="27.5" y="-256.8" font-family="Arial" font-weight="bold" font-size="14.00">params:</text>
<text text-anchor="start" x="27.5" y="-242.8" font-family="Arial" font-size="14.00">P, S, Ppos, From, To, Dir</text>
<text text-anchor="start" x="27.5" y="-218.8" font-family="Arial" font-weight="bold" font-size="14.00">pre:</text>
<text text-anchor="start" x="27.5" y="-204.8" font-family="Arial" font-size="14.00">at(P,Ppos), at(S,From), clear(To),</text>
<text text-anchor="start" x="27.5" y="-190.8" font-family="Arial" font-size="14.00">direction(Dir), is&#45;nongoal(To),</text>
<text text-anchor="start" x="27.5" y="-176.8" font-family="Arial" font-size="14.00">is&#45;player(P), is&#45;stone(S),</text>
<text text-anchor="start" x="27.5" y="-162.8" font-family="Arial" font-size="14.00">location(From), location(Ppos),</text>
<text text-anchor="start" x="27.5" y="-148.8" font-family="Arial" font-size="14.00">location(To), move&#45;dir(From,To,Dir),</text>
<text text-anchor="start" x="27.5" y="-134.8" font-family="Arial" font-size="14.00">move&#45;dir(Ppos,From,Dir), thing(P),</text>
<text text-anchor="start" x="27.5" y="-120.8" font-family="Arial" font-size="14.00">thing(S)</text>
<text text-anchor="start" x="27.5" y="-96.8" font-family="Arial" font-weight="bold" font-size="14.00">add:</text>
<text text-anchor="start" x="27.5" y="-82.8" font-family="Arial" font-size="14.00">at(P,From), at(S,To), clear(Ppos)</text>
<text text-anchor="start" x="27.5" y="-58.8" font-family="Arial" font-weight="bold" font-size="14.00">del:</text>
<text text-anchor="start" x="27.5" y="-44.8" font-family="Arial" font-size="14.00">at(P,Ppos), at(S,From), at&#45;goal(S),</text>
<text text-anchor="start" x="27.5" y="-30.8" font-family="Arial" font-size="14.00">clear(To)</text>
<path fill="none" stroke="black" stroke-width="4" d="M30,-18.5C30,-18.5 239,-18.5 239,-18.5 245,-18.5 251,-24.5 251,-30.5 251,-30.5 251,-289.5 251,-289.5 251,-295.5 245,-301.5 239,-301.5 239,-301.5 30,-301.5 30,-301.5 24,-301.5 18,-295.5 18,-289.5 18,-289.5 18,-30.5 18,-30.5 18,-24.5 24,-18.5 30,-18.5"/>
</g>
</g>
</svg>
