<?xml version="1.0" encoding="UTF-8" standalone="no"?>
<!DOCTYPE svg PUBLIC "-//W3C//DTD SVG 1.1//EN"
 "http://www.w3.org/Graphics/SVG/1.1/DTD/svg11.dtd">
<!-- Generated by graphviz version 2.43.0 (0)
 -->
<!-- Title: g Pages: 1 -->
<svg width="816pt" height="274pt"
 viewBox="0.00 0.00 816.00 274.00" xmlns="http://www.w3.org/2000/svg" xmlns:xlink="http://www.w3.org/1999/xlink">
<g id="graph0" class="graph" transform="scale(1 1) rotate(0) translate(4 270)">
<title>g</title>
<polygon fill="white" stroke="transparent" points="-4,4 -4,-270 812,-270 812,4 -4,4"/>
<g id="clust1" class="cluster">
<title>cluster_actionlib</title>
<polygon fill="none" stroke="black" points="748,-36 748,-196 800,-196 800,-36 748,-36"/>
</g>
<!-- action&#45;18 -->
<g id="node1" class="node">
<title>action&#45;18</title>
<polygon fill="white" stroke="black" stroke-width="4" points="792,-188 756,-188 756,-152 792,-152 792,-188"/>
</g>
<!-- action&#45;29 -->
<g id="node2" class="node">
<title>action&#45;29</title>
<polygon fill="white" stroke="black" stroke-width="4" points="792,-134 756,-134 756,-98 792,-98 792,-134"/>
</g>
<!-- action&#45;36 -->
<g id="node3" class="node">
<title>action&#45;36</title>
<polygon fill="#008000" stroke="black" stroke-width="4" points="792,-80 756,-80 756,-44 792,-44 792,-80"/>
</g>
<!-- action&#45;1 -->
<g id="node4" class="node">
<title>action&#45;1</title>
<polygon fill="white" stroke="black" points="36,-239 0,-239 0,-203 36,-203 36,-239"/>
</g>
<!-- cluster&#45;0 -->
<g id="node20" class="node">
<title>cluster&#45;0</title>
<polygon fill="black" stroke="black" stroke-width="0" points="90,-203 72,-203 72,-185 90,-185 90,-203"/>
</g>
<!-- action&#45;1&#45;&#45;cluster&#45;0 -->
<g id="edge9" class="edge">
<title>action&#45;1&#45;&#45;cluster&#45;0</title>
<path fill="none" stroke="black" d="M36.32,-213.34C48.01,-208.16 62.91,-201.57 71.94,-197.57"/>
</g>
<!-- action&#45;3 -->
<g id="node5" class="node">
<title>action&#45;3</title>
<polygon fill="white" stroke="black" points="36,-185 0,-185 0,-149 36,-149 36,-185"/>
</g>
<!-- action&#45;3&#45;&#45;cluster&#45;0 -->
<g id="edge10" class="edge">
<title>action&#45;3&#45;&#45;cluster&#45;0</title>
<path fill="none" stroke="black" d="M36.32,-174.66C48.01,-179.84 62.91,-186.43 71.94,-190.43"/>
</g>
<!-- action&#45;4 -->
<g id="node6" class="node">
<title>action&#45;4</title>
<polygon fill="white" stroke="black" points="162,-212 126,-212 126,-176 162,-176 162,-212"/>
</g>
<!-- cluster&#45;1 -->
<g id="node21" class="node">
<title>cluster&#45;1</title>
<polygon fill="black" stroke="black" stroke-width="0" points="216,-176 198,-176 198,-158 216,-158 216,-176"/>
</g>
<!-- action&#45;4&#45;&#45;cluster&#45;1 -->
<g id="edge11" class="edge">
<title>action&#45;4&#45;&#45;cluster&#45;1</title>
<path fill="none" stroke="black" d="M162.32,-186.34C174.01,-181.16 188.91,-174.57 197.94,-170.57"/>
</g>
<!-- action&#45;7 -->
<g id="node7" class="node">
<title>action&#45;7</title>
<polygon fill="white" stroke="black" points="162,-158 126,-158 126,-122 162,-122 162,-158"/>
</g>
<!-- action&#45;7&#45;&#45;cluster&#45;1 -->
<g id="edge12" class="edge">
<title>action&#45;7&#45;&#45;cluster&#45;1</title>
<path fill="none" stroke="black" d="M162.32,-147.66C174.01,-152.84 188.91,-159.43 197.94,-163.43"/>
</g>
<!-- action&#45;8 -->
<g id="node8" class="node">
<title>action&#45;8</title>
<polygon fill="white" stroke="black" points="288,-185 252,-185 252,-149 288,-149 288,-185"/>
</g>
<!-- cluster&#45;4 -->
<g id="node24" class="node">
<title>cluster&#45;4</title>
<polygon fill="black" stroke="black" stroke-width="0" points="342,-149 324,-149 324,-131 342,-131 342,-149"/>
</g>
<!-- action&#45;8&#45;&#45;cluster&#45;4 -->
<g id="edge17" class="edge">
<title>action&#45;8&#45;&#45;cluster&#45;4</title>
<path fill="none" stroke="black" d="M288.32,-159.34C300.01,-154.16 314.91,-147.57 323.94,-143.57"/>
</g>
<!-- action&#45;11 -->
<g id="node9" class="node">
<title>action&#45;11</title>
<polygon fill="white" stroke="black" points="540,-266 504,-266 504,-230 540,-230 540,-266"/>
</g>
<!-- cluster&#45;2 -->
<g id="node22" class="node">
<title>cluster&#45;2</title>
<polygon fill="black" stroke="black" stroke-width="0" points="594,-223 576,-223 576,-205 594,-205 594,-223"/>
</g>
<!-- action&#45;11&#45;&#45;cluster&#45;2 -->
<g id="edge13" class="edge">
<title>action&#45;11&#45;&#45;cluster&#45;2</title>
<path fill="none" stroke="black" d="M540.32,-238.35C552.01,-231.83 566.91,-223.53 575.94,-218.5"/>
</g>
<!-- action&#45;13 -->
<g id="node10" class="node">
<title>action&#45;13</title>
<polygon fill="white" stroke="black" points="540,-212 504,-212 504,-176 540,-176 540,-212"/>
</g>
<!-- action&#45;13&#45;&#45;cluster&#45;2 -->
<g id="edge14" class="edge">
<title>action&#45;13&#45;&#45;cluster&#45;2</title>
<path fill="none" stroke="black" d="M540.32,-199.68C552.01,-203.51 566.91,-208.4 575.94,-211.36"/>
</g>
<!-- action&#45;14 -->
<g id="node11" class="node">
<title>action&#45;14</title>
<polygon fill="white" stroke="black" points="666,-232 630,-232 630,-196 666,-196 666,-232"/>
</g>
<!-- cluster&#45;3 -->
<g id="node23" class="node">
<title>cluster&#45;3</title>
<polygon fill="black" stroke="black" stroke-width="0" points="720,-179 702,-179 702,-161 720,-161 720,-179"/>
</g>
<!-- action&#45;14&#45;&#45;cluster&#45;3 -->
<g id="edge15" class="edge">
<title>action&#45;14&#45;&#45;cluster&#45;3</title>
<path fill="none" stroke="black" d="M666.32,-201.51C678.01,-193.07 692.91,-182.33 701.94,-175.82"/>
</g>
<!-- action&#45;17 -->
<g id="node12" class="node">
<title>action&#45;17</title>
<polygon fill="white" stroke="black" points="666,-178 630,-178 630,-142 666,-142 666,-178"/>
</g>
<!-- action&#45;17&#45;&#45;cluster&#45;3 -->
<g id="edge16" class="edge">
<title>action&#45;17&#45;&#45;cluster&#45;3</title>
<path fill="none" stroke="black" d="M666.32,-162.84C678.01,-164.76 692.91,-167.2 701.94,-168.68"/>
</g>
<!-- action&#45;21 -->
<g id="node13" class="node">
<title>action&#45;21</title>
<polygon fill="white" stroke="black" points="288,-131 252,-131 252,-95 288,-95 288,-131"/>
</g>
<!-- action&#45;21&#45;&#45;cluster&#45;4 -->
<g id="edge18" class="edge">
<title>action&#45;21&#45;&#45;cluster&#45;4</title>
<path fill="none" stroke="black" d="M288.32,-120.66C300.01,-125.84 314.91,-132.43 323.94,-136.43"/>
</g>
<!-- action&#45;22 -->
<g id="node14" class="node">
<title>action&#45;22</title>
<polygon fill="white" stroke="black" points="414,-158 378,-158 378,-122 414,-122 414,-158"/>
</g>
<!-- cluster&#45;5 -->
<g id="node25" class="node">
<title>cluster&#45;5</title>
<polygon fill="black" stroke="black" stroke-width="0" points="468,-122 450,-122 450,-104 468,-104 468,-122"/>
</g>
<!-- action&#45;22&#45;&#45;cluster&#45;5 -->
<g id="edge19" class="edge">
<title>action&#45;22&#45;&#45;cluster&#45;5</title>
<path fill="none" stroke="black" d="M414.32,-132.34C426.01,-127.16 440.91,-120.57 449.94,-116.57"/>
</g>
<!-- action&#45;25 -->
<g id="node15" class="node">
<title>action&#45;25</title>
<polygon fill="white" stroke="black" points="414,-104 378,-104 378,-68 414,-68 414,-104"/>
</g>
<!-- action&#45;25&#45;&#45;cluster&#45;5 -->
<g id="edge20" class="edge">
<title>action&#45;25&#45;&#45;cluster&#45;5</title>
<path fill="none" stroke="black" d="M414.32,-93.66C426.01,-98.84 440.91,-105.43 449.94,-109.43"/>
</g>
<!-- action&#45;26 -->
<g id="node16" class="node">
<title>action&#45;26</title>
<polygon fill="white" stroke="black" points="540,-131 504,-131 504,-95 540,-95 540,-131"/>
</g>
<!-- cluster&#45;6 -->
<g id="node26" class="node">
<title>cluster&#45;6</title>
<polygon fill="black" stroke="black" stroke-width="0" points="594,-81 576,-81 576,-63 594,-63 594,-81"/>
</g>
<!-- action&#45;26&#45;&#45;cluster&#45;6 -->
<g id="edge21" class="edge">
<title>action&#45;26&#45;&#45;cluster&#45;6</title>
<path fill="none" stroke="black" d="M540.32,-101.36C552.01,-93.5 566.91,-83.49 575.94,-77.42"/>
</g>
<!-- action&#45;31 -->
<g id="node17" class="node">
<title>action&#45;31</title>
<polygon fill="white" stroke="black" points="540,-77 504,-77 504,-41 540,-41 540,-77"/>
</g>
<!-- action&#45;31&#45;&#45;cluster&#45;6 -->
<g id="edge22" class="edge">
<title>action&#45;31&#45;&#45;cluster&#45;6</title>
<path fill="none" stroke="black" d="M540.32,-62.69C552.01,-65.18 566.91,-68.36 575.94,-70.28"/>
</g>
<!-- action&#45;32 -->
<g id="node18" class="node">
<title>action&#45;32</title>
<polygon fill="#c9211e" stroke="black" points="666,-90 630,-90 630,-54 666,-54 666,-90"/>
</g>
<!-- cluster&#45;7 -->
<g id="node27" class="node">
<title>cluster&#45;7</title>
<polygon fill="black" stroke="black" stroke-width="0" points="720,-71 702,-71 702,-53 720,-53 720,-71"/>
</g>
<!-- action&#45;32&#45;&#45;cluster&#45;7 -->
<g id="edge23" class="edge">
<title>action&#45;32&#45;&#45;cluster&#45;7</title>
<path fill="none" stroke="black" d="M666.32,-69.16C678.01,-67.24 692.91,-64.8 701.94,-63.32"/>
</g>
<!-- action&#45;35 -->
<g id="node19" class="node">
<title>action&#45;35</title>
<polygon fill="#00008b" stroke="black" points="666,-36 630,-36 630,0 666,0 666,-36"/>
</g>
<!-- action&#45;35&#45;&#45;cluster&#45;7 -->
<g id="edge24" class="edge">
<title>action&#45;35&#45;&#45;cluster&#45;7</title>
<path fill="none" stroke="black" d="M666.32,-30.49C678.01,-38.93 692.91,-49.67 701.94,-56.18"/>
</g>
<!-- cluster&#45;0&#45;&#45;action&#45;4 -->
<g id="edge1" class="edge">
<title>cluster&#45;0&#45;&#45;action&#45;4</title>
<path fill="none" stroke="black" d="M90.23,-194C99.33,-194 114.26,-194 125.92,-194"/>
</g>
<!-- cluster&#45;1&#45;&#45;action&#45;8 -->
<g id="edge2" class="edge">
<title>cluster&#45;1&#45;&#45;action&#45;8</title>
<path fill="none" stroke="black" d="M216.23,-167C225.33,-167 240.26,-167 251.92,-167"/>
</g>
<!-- cluster&#45;2&#45;&#45;action&#45;14 -->
<g id="edge3" class="edge">
<title>cluster&#45;2&#45;&#45;action&#45;14</title>
<path fill="none" stroke="black" d="M594.23,-214C603.33,-214 618.26,-214 629.92,-214"/>
</g>
<!-- cluster&#45;3&#45;&#45;action&#45;18 -->
<g id="edge4" class="edge">
<title>cluster&#45;3&#45;&#45;action&#45;18</title>
<path fill="none" stroke="black" d="M720.23,-170C729.33,-170 744.26,-170 755.92,-170"/>
</g>
<!-- cluster&#45;4&#45;&#45;action&#45;22 -->
<g id="edge5" class="edge">
<title>cluster&#45;4&#45;&#45;action&#45;22</title>
<path fill="none" stroke="black" d="M342.23,-140C351.33,-140 366.26,-140 377.92,-140"/>
</g>
<!-- cluster&#45;5&#45;&#45;action&#45;26 -->
<g id="edge6" class="edge">
<title>cluster&#45;5&#45;&#45;action&#45;26</title>
<path fill="none" stroke="black" d="M468.23,-113C477.33,-113 492.26,-113 503.92,-113"/>
</g>
<!-- cluster&#45;6&#45;&#45;action&#45;32 -->
<g id="edge7" class="edge">
<title>cluster&#45;6&#45;&#45;action&#45;32</title>
<path fill="none" stroke="black" d="M594.23,-72C603.33,-72 618.26,-72 629.92,-72"/>
</g>
<!-- cluster&#45;7&#45;&#45;action&#45;36 -->
<g id="edge8" class="edge">
<title>cluster&#45;7&#45;&#45;action&#45;36</title>
<path fill="none" stroke="black" d="M720.23,-62C729.33,-62 744.26,-62 755.92,-62"/>
</g>
</g>
</svg>
