<?xml version="1.0" encoding="UTF-8" standalone="no"?>
<!DOCTYPE svg PUBLIC "-//W3C//DTD SVG 1.1//EN"
 "http://www.w3.org/Graphics/SVG/1.1/DTD/svg11.dtd">
<!-- Generated by graphviz version 2.43.0 (0)
 -->
<!-- Title: g Pages: 1 -->
<svg width="2328pt" height="627pt"
 viewBox="0.00 0.00 2328.00 627.00" xmlns="http://www.w3.org/2000/svg" xmlns:xlink="http://www.w3.org/1999/xlink">
<g id="graph0" class="graph" transform="scale(1 1) rotate(0) translate(4 623)">
<title>g</title>
<polygon fill="white" stroke="transparent" points="-4,4 -4,-623 2324,-623 2324,4 -4,4"/>
<g id="clust1" class="cluster">
<title>cluster_actionlib</title>
<polygon fill="none" stroke="black" points="2260,-46 2260,-206 2312,-206 2312,-46 2260,-46"/>
</g>
<!-- action&#45;29 -->
<g id="node1" class="node">
<title>action&#45;29</title>
<polygon fill="white" stroke="black" stroke-width="4" points="2304,-198 2268,-198 2268,-162 2304,-162 2304,-198"/>
</g>
<!-- action&#45;88 -->
<g id="node2" class="node">
<title>action&#45;88</title>
<polygon fill="white" stroke="black" stroke-width="4" points="2304,-144 2268,-144 2268,-108 2304,-108 2304,-144"/>
</g>
<!-- action&#45;100 -->
<g id="node3" class="node">
<title>action&#45;100</title>
<polygon fill="#008000" stroke="black" stroke-width="4" points="2304,-90 2268,-90 2268,-54 2304,-54 2304,-90"/>
</g>
<!-- action&#45;1 -->
<g id="node4" class="node">
<title>action&#45;1</title>
<polygon fill="white" stroke="black" points="36,-619 0,-619 0,-583 36,-583 36,-619"/>
</g>
<!-- cluster&#45;0 -->
<g id="node52" class="node">
<title>cluster&#45;0</title>
<polygon fill="black" stroke="black" stroke-width="0" points="90,-583 72,-583 72,-565 90,-565 90,-583"/>
</g>
<!-- action&#45;1&#45;&#45;cluster&#45;0 -->
<g id="edge25" class="edge">
<title>action&#45;1&#45;&#45;cluster&#45;0</title>
<path fill="none" stroke="black" d="M36.32,-593.34C48.01,-588.16 62.91,-581.57 71.94,-577.57"/>
</g>
<!-- action&#45;3 -->
<g id="node5" class="node">
<title>action&#45;3</title>
<polygon fill="white" stroke="black" points="36,-565 0,-565 0,-529 36,-529 36,-565"/>
</g>
<!-- action&#45;3&#45;&#45;cluster&#45;0 -->
<g id="edge26" class="edge">
<title>action&#45;3&#45;&#45;cluster&#45;0</title>
<path fill="none" stroke="black" d="M36.32,-554.66C48.01,-559.84 62.91,-566.43 71.94,-570.43"/>
</g>
<!-- action&#45;4 -->
<g id="node6" class="node">
<title>action&#45;4</title>
<polygon fill="white" stroke="black" points="162,-592 126,-592 126,-556 162,-556 162,-592"/>
</g>
<!-- cluster&#45;1 -->
<g id="node53" class="node">
<title>cluster&#45;1</title>
<polygon fill="black" stroke="black" stroke-width="0" points="216,-556 198,-556 198,-538 216,-538 216,-556"/>
</g>
<!-- action&#45;4&#45;&#45;cluster&#45;1 -->
<g id="edge27" class="edge">
<title>action&#45;4&#45;&#45;cluster&#45;1</title>
<path fill="none" stroke="black" d="M162.32,-566.34C174.01,-561.16 188.91,-554.57 197.94,-550.57"/>
</g>
<!-- action&#45;7 -->
<g id="node7" class="node">
<title>action&#45;7</title>
<polygon fill="white" stroke="black" points="162,-538 126,-538 126,-502 162,-502 162,-538"/>
</g>
<!-- action&#45;7&#45;&#45;cluster&#45;1 -->
<g id="edge28" class="edge">
<title>action&#45;7&#45;&#45;cluster&#45;1</title>
<path fill="none" stroke="black" d="M162.32,-527.66C174.01,-532.84 188.91,-539.43 197.94,-543.43"/>
</g>
<!-- action&#45;8 -->
<g id="node8" class="node">
<title>action&#45;8</title>
<polygon fill="white" stroke="black" points="288,-565 252,-565 252,-529 288,-529 288,-565"/>
</g>
<!-- cluster&#45;4 -->
<g id="node56" class="node">
<title>cluster&#45;4</title>
<polygon fill="black" stroke="black" stroke-width="0" points="342,-529 324,-529 324,-511 342,-511 342,-529"/>
</g>
<!-- action&#45;8&#45;&#45;cluster&#45;4 -->
<g id="edge33" class="edge">
<title>action&#45;8&#45;&#45;cluster&#45;4</title>
<path fill="none" stroke="black" d="M288.32,-539.34C300.01,-534.16 314.91,-527.57 323.94,-523.57"/>
</g>
<!-- action&#45;11 -->
<g id="node9" class="node">
<title>action&#45;11</title>
<polygon fill="white" stroke="black" points="1548,-430 1512,-430 1512,-394 1548,-394 1548,-430"/>
</g>
<!-- cluster&#45;2 -->
<g id="node54" class="node">
<title>cluster&#45;2</title>
<polygon fill="black" stroke="black" stroke-width="0" points="1602,-387 1584,-387 1584,-369 1602,-369 1602,-387"/>
</g>
<!-- action&#45;11&#45;&#45;cluster&#45;2 -->
<g id="edge29" class="edge">
<title>action&#45;11&#45;&#45;cluster&#45;2</title>
<path fill="none" stroke="black" d="M1548.32,-402.35C1560.01,-395.83 1574.91,-387.53 1583.94,-382.5"/>
</g>
<!-- action&#45;13 -->
<g id="node10" class="node">
<title>action&#45;13</title>
<polygon fill="white" stroke="black" points="1548,-376 1512,-376 1512,-340 1548,-340 1548,-376"/>
</g>
<!-- action&#45;13&#45;&#45;cluster&#45;2 -->
<g id="edge30" class="edge">
<title>action&#45;13&#45;&#45;cluster&#45;2</title>
<path fill="none" stroke="black" d="M1548.32,-363.68C1560.01,-367.51 1574.91,-372.4 1583.94,-375.36"/>
</g>
<!-- action&#45;14 -->
<g id="node11" class="node">
<title>action&#45;14</title>
<polygon fill="white" stroke="black" points="1674,-396 1638,-396 1638,-360 1674,-360 1674,-396"/>
</g>
<!-- cluster&#45;3 -->
<g id="node55" class="node">
<title>cluster&#45;3</title>
<polygon fill="black" stroke="black" stroke-width="0" points="1728,-343 1710,-343 1710,-325 1728,-325 1728,-343"/>
</g>
<!-- action&#45;14&#45;&#45;cluster&#45;3 -->
<g id="edge31" class="edge">
<title>action&#45;14&#45;&#45;cluster&#45;3</title>
<path fill="none" stroke="black" d="M1674.32,-365.51C1686.01,-357.07 1700.91,-346.33 1709.94,-339.82"/>
</g>
<!-- action&#45;17 -->
<g id="node12" class="node">
<title>action&#45;17</title>
<polygon fill="white" stroke="black" points="1674,-342 1638,-342 1638,-306 1674,-306 1674,-342"/>
</g>
<!-- action&#45;17&#45;&#45;cluster&#45;3 -->
<g id="edge32" class="edge">
<title>action&#45;17&#45;&#45;cluster&#45;3</title>
<path fill="none" stroke="black" d="M1674.32,-326.84C1686.01,-328.76 1700.91,-331.2 1709.94,-332.68"/>
</g>
<!-- action&#45;18 -->
<g id="node13" class="node">
<title>action&#45;18</title>
<polygon fill="white" stroke="black" points="1800,-352 1764,-352 1764,-316 1800,-316 1800,-352"/>
</g>
<!-- cluster&#45;13 -->
<g id="node65" class="node">
<title>cluster&#45;13</title>
<polygon fill="black" stroke="black" stroke-width="0" points="1854,-294 1836,-294 1836,-276 1854,-276 1854,-294"/>
</g>
<!-- action&#45;18&#45;&#45;cluster&#45;13 -->
<g id="edge51" class="edge">
<title>action&#45;18&#45;&#45;cluster&#45;13</title>
<path fill="none" stroke="black" d="M1800.32,-320.09C1812.01,-310.7 1826.91,-298.73 1835.94,-291.48"/>
</g>
<!-- action&#45;21 -->
<g id="node14" class="node">
<title>action&#45;21</title>
<polygon fill="white" stroke="black" points="288,-511 252,-511 252,-475 288,-475 288,-511"/>
</g>
<!-- action&#45;21&#45;&#45;cluster&#45;4 -->
<g id="edge34" class="edge">
<title>action&#45;21&#45;&#45;cluster&#45;4</title>
<path fill="none" stroke="black" d="M288.32,-500.66C300.01,-505.84 314.91,-512.43 323.94,-516.43"/>
</g>
<!-- action&#45;22 -->
<g id="node15" class="node">
<title>action&#45;22</title>
<polygon fill="white" stroke="black" points="414,-538 378,-538 378,-502 414,-502 414,-538"/>
</g>
<!-- cluster&#45;5 -->
<g id="node57" class="node">
<title>cluster&#45;5</title>
<polygon fill="black" stroke="black" stroke-width="0" points="468,-502 450,-502 450,-484 468,-484 468,-502"/>
</g>
<!-- action&#45;22&#45;&#45;cluster&#45;5 -->
<g id="edge35" class="edge">
<title>action&#45;22&#45;&#45;cluster&#45;5</title>
<path fill="none" stroke="black" d="M414.32,-512.34C426.01,-507.16 440.91,-500.57 449.94,-496.57"/>
</g>
<!-- action&#45;25 -->
<g id="node16" class="node">
<title>action&#45;25</title>
<polygon fill="white" stroke="black" points="414,-484 378,-484 378,-448 414,-448 414,-484"/>
</g>
<!-- action&#45;25&#45;&#45;cluster&#45;5 -->
<g id="edge36" class="edge">
<title>action&#45;25&#45;&#45;cluster&#45;5</title>
<path fill="none" stroke="black" d="M414.32,-473.66C426.01,-478.84 440.91,-485.43 449.94,-489.43"/>
</g>
<!-- action&#45;26 -->
<g id="node17" class="node">
<title>action&#45;26</title>
<polygon fill="white" stroke="black" points="540,-511 504,-511 504,-475 540,-475 540,-511"/>
</g>
<!-- cluster&#45;6 -->
<g id="node58" class="node">
<title>cluster&#45;6</title>
<polygon fill="black" stroke="black" stroke-width="0" points="594,-475 576,-475 576,-457 594,-457 594,-475"/>
</g>
<!-- action&#45;26&#45;&#45;cluster&#45;6 -->
<g id="edge37" class="edge">
<title>action&#45;26&#45;&#45;cluster&#45;6</title>
<path fill="none" stroke="black" d="M540.32,-485.34C552.01,-480.16 566.91,-473.57 575.94,-469.57"/>
</g>
<!-- action&#45;31 -->
<g id="node18" class="node">
<title>action&#45;31</title>
<polygon fill="white" stroke="black" points="540,-457 504,-457 504,-421 540,-421 540,-457"/>
</g>
<!-- action&#45;31&#45;&#45;cluster&#45;6 -->
<g id="edge38" class="edge">
<title>action&#45;31&#45;&#45;cluster&#45;6</title>
<path fill="none" stroke="black" d="M540.32,-446.66C552.01,-451.84 566.91,-458.43 575.94,-462.43"/>
</g>
<!-- action&#45;32 -->
<g id="node19" class="node">
<title>action&#45;32</title>
<polygon fill="white" stroke="black" points="666,-484 630,-484 630,-448 666,-448 666,-484"/>
</g>
<!-- cluster&#45;7 -->
<g id="node59" class="node">
<title>cluster&#45;7</title>
<polygon fill="black" stroke="black" stroke-width="0" points="720,-448 702,-448 702,-430 720,-430 720,-448"/>
</g>
<!-- action&#45;32&#45;&#45;cluster&#45;7 -->
<g id="edge39" class="edge">
<title>action&#45;32&#45;&#45;cluster&#45;7</title>
<path fill="none" stroke="black" d="M666.32,-458.34C678.01,-453.16 692.91,-446.57 701.94,-442.57"/>
</g>
<!-- action&#45;35 -->
<g id="node20" class="node">
<title>action&#45;35</title>
<polygon fill="white" stroke="black" points="666,-430 630,-430 630,-394 666,-394 666,-430"/>
</g>
<!-- action&#45;35&#45;&#45;cluster&#45;7 -->
<g id="edge40" class="edge">
<title>action&#45;35&#45;&#45;cluster&#45;7</title>
<path fill="none" stroke="black" d="M666.32,-419.66C678.01,-424.84 692.91,-431.43 701.94,-435.43"/>
</g>
<!-- action&#45;36 -->
<g id="node21" class="node">
<title>action&#45;36</title>
<polygon fill="white" stroke="black" points="792,-457 756,-457 756,-421 792,-421 792,-457"/>
</g>
<!-- cluster&#45;8 -->
<g id="node60" class="node">
<title>cluster&#45;8</title>
<polygon fill="black" stroke="black" stroke-width="0" points="846,-421 828,-421 828,-403 846,-403 846,-421"/>
</g>
<!-- action&#45;36&#45;&#45;cluster&#45;8 -->
<g id="edge41" class="edge">
<title>action&#45;36&#45;&#45;cluster&#45;8</title>
<path fill="none" stroke="black" d="M792.32,-431.34C804.01,-426.16 818.91,-419.57 827.94,-415.57"/>
</g>
<!-- action&#45;39 -->
<g id="node22" class="node">
<title>action&#45;39</title>
<polygon fill="white" stroke="black" points="792,-403 756,-403 756,-367 792,-367 792,-403"/>
</g>
<!-- action&#45;39&#45;&#45;cluster&#45;8 -->
<g id="edge42" class="edge">
<title>action&#45;39&#45;&#45;cluster&#45;8</title>
<path fill="none" stroke="black" d="M792.32,-392.66C804.01,-397.84 818.91,-404.43 827.94,-408.43"/>
</g>
<!-- action&#45;40 -->
<g id="node23" class="node">
<title>action&#45;40</title>
<polygon fill="white" stroke="black" points="918,-430 882,-430 882,-394 918,-394 918,-430"/>
</g>
<!-- cluster&#45;9 -->
<g id="node61" class="node">
<title>cluster&#45;9</title>
<polygon fill="black" stroke="black" stroke-width="0" points="972,-394 954,-394 954,-376 972,-376 972,-394"/>
</g>
<!-- action&#45;40&#45;&#45;cluster&#45;9 -->
<g id="edge43" class="edge">
<title>action&#45;40&#45;&#45;cluster&#45;9</title>
<path fill="none" stroke="black" d="M918.32,-404.34C930.01,-399.16 944.91,-392.57 953.94,-388.57"/>
</g>
<!-- action&#45;43 -->
<g id="node24" class="node">
<title>action&#45;43</title>
<polygon fill="white" stroke="black" points="918,-376 882,-376 882,-340 918,-340 918,-376"/>
</g>
<!-- action&#45;43&#45;&#45;cluster&#45;9 -->
<g id="edge44" class="edge">
<title>action&#45;43&#45;&#45;cluster&#45;9</title>
<path fill="none" stroke="black" d="M918.32,-365.66C930.01,-370.84 944.91,-377.43 953.94,-381.43"/>
</g>
<!-- action&#45;44 -->
<g id="node25" class="node">
<title>action&#45;44</title>
<polygon fill="white" stroke="black" points="1044,-403 1008,-403 1008,-367 1044,-367 1044,-403"/>
</g>
<!-- cluster&#45;10 -->
<g id="node62" class="node">
<title>cluster&#45;10</title>
<polygon fill="black" stroke="black" stroke-width="0" points="1098,-367 1080,-367 1080,-349 1098,-349 1098,-367"/>
</g>
<!-- action&#45;44&#45;&#45;cluster&#45;10 -->
<g id="edge45" class="edge">
<title>action&#45;44&#45;&#45;cluster&#45;10</title>
<path fill="none" stroke="black" d="M1044.32,-377.34C1056.01,-372.16 1070.91,-365.57 1079.94,-361.57"/>
</g>
<!-- action&#45;47 -->
<g id="node26" class="node">
<title>action&#45;47</title>
<polygon fill="white" stroke="black" points="1044,-349 1008,-349 1008,-313 1044,-313 1044,-349"/>
</g>
<!-- action&#45;47&#45;&#45;cluster&#45;10 -->
<g id="edge46" class="edge">
<title>action&#45;47&#45;&#45;cluster&#45;10</title>
<path fill="none" stroke="black" d="M1044.32,-338.66C1056.01,-343.84 1070.91,-350.43 1079.94,-354.43"/>
</g>
<!-- action&#45;48 -->
<g id="node27" class="node">
<title>action&#45;48</title>
<polygon fill="white" stroke="black" points="1170,-376 1134,-376 1134,-340 1170,-340 1170,-376"/>
</g>
<!-- cluster&#45;11 -->
<g id="node63" class="node">
<title>cluster&#45;11</title>
<polygon fill="black" stroke="black" stroke-width="0" points="1224,-340 1206,-340 1206,-322 1224,-322 1224,-340"/>
</g>
<!-- action&#45;48&#45;&#45;cluster&#45;11 -->
<g id="edge47" class="edge">
<title>action&#45;48&#45;&#45;cluster&#45;11</title>
<path fill="none" stroke="black" d="M1170.32,-350.34C1182.01,-345.16 1196.91,-338.57 1205.94,-334.57"/>
</g>
<!-- action&#45;51 -->
<g id="node28" class="node">
<title>action&#45;51</title>
<polygon fill="white" stroke="black" points="1170,-322 1134,-322 1134,-286 1170,-286 1170,-322"/>
</g>
<!-- action&#45;51&#45;&#45;cluster&#45;11 -->
<g id="edge48" class="edge">
<title>action&#45;51&#45;&#45;cluster&#45;11</title>
<path fill="none" stroke="black" d="M1170.32,-311.66C1182.01,-316.84 1196.91,-323.43 1205.94,-327.43"/>
</g>
<!-- action&#45;52 -->
<g id="node29" class="node">
<title>action&#45;52</title>
<polygon fill="white" stroke="black" points="1296,-349 1260,-349 1260,-313 1296,-313 1296,-349"/>
</g>
<!-- cluster&#45;12 -->
<g id="node64" class="node">
<title>cluster&#45;12</title>
<polygon fill="black" stroke="black" stroke-width="0" points="1350,-313 1332,-313 1332,-295 1350,-295 1350,-313"/>
</g>
<!-- action&#45;52&#45;&#45;cluster&#45;12 -->
<g id="edge49" class="edge">
<title>action&#45;52&#45;&#45;cluster&#45;12</title>
<path fill="none" stroke="black" d="M1296.32,-323.34C1308.01,-318.16 1322.91,-311.57 1331.94,-307.57"/>
</g>
<!-- action&#45;55 -->
<g id="node30" class="node">
<title>action&#45;55</title>
<polygon fill="white" stroke="black" points="1296,-295 1260,-295 1260,-259 1296,-259 1296,-295"/>
</g>
<!-- action&#45;55&#45;&#45;cluster&#45;12 -->
<g id="edge50" class="edge">
<title>action&#45;55&#45;&#45;cluster&#45;12</title>
<path fill="none" stroke="black" d="M1296.32,-284.66C1308.01,-289.84 1322.91,-296.43 1331.94,-300.43"/>
</g>
<!-- action&#45;56 -->
<g id="node31" class="node">
<title>action&#45;56</title>
<polygon fill="white" stroke="black" points="1422,-322 1386,-322 1386,-286 1422,-286 1422,-322"/>
</g>
<!-- cluster&#45;14 -->
<g id="node66" class="node">
<title>cluster&#45;14</title>
<polygon fill="black" stroke="black" stroke-width="0" points="1476,-286 1458,-286 1458,-268 1476,-268 1476,-286"/>
</g>
<!-- action&#45;56&#45;&#45;cluster&#45;14 -->
<g id="edge53" class="edge">
<title>action&#45;56&#45;&#45;cluster&#45;14</title>
<path fill="none" stroke="black" d="M1422.32,-296.34C1434.01,-291.16 1448.91,-284.57 1457.94,-280.57"/>
</g>
<!-- action&#45;59 -->
<g id="node32" class="node">
<title>action&#45;59</title>
<polygon fill="white" stroke="black" points="1800,-298 1764,-298 1764,-262 1800,-262 1800,-298"/>
</g>
<!-- action&#45;59&#45;&#45;cluster&#45;13 -->
<g id="edge52" class="edge">
<title>action&#45;59&#45;&#45;cluster&#45;13</title>
<path fill="none" stroke="black" d="M1800.32,-281.42C1812.01,-282.38 1826.91,-283.6 1835.94,-284.34"/>
</g>
<!-- action&#45;60 -->
<g id="node33" class="node">
<title>action&#45;60</title>
<polygon fill="white" stroke="black" points="1926,-303 1890,-303 1890,-267 1926,-267 1926,-303"/>
</g>
<!-- cluster&#45;16 -->
<g id="node68" class="node">
<title>cluster&#45;16</title>
<polygon fill="black" stroke="black" stroke-width="0" points="1980,-242 1962,-242 1962,-224 1980,-224 1980,-242"/>
</g>
<!-- action&#45;60&#45;&#45;cluster&#45;16 -->
<g id="edge57" class="edge">
<title>action&#45;60&#45;&#45;cluster&#45;16</title>
<path fill="none" stroke="black" d="M1926.32,-270.24C1938.01,-260.27 1952.91,-247.57 1961.94,-239.88"/>
</g>
<!-- action&#45;63 -->
<g id="node34" class="node">
<title>action&#45;63</title>
<polygon fill="white" stroke="black" points="1422,-268 1386,-268 1386,-232 1422,-232 1422,-268"/>
</g>
<!-- action&#45;63&#45;&#45;cluster&#45;14 -->
<g id="edge54" class="edge">
<title>action&#45;63&#45;&#45;cluster&#45;14</title>
<path fill="none" stroke="black" d="M1422.32,-257.66C1434.01,-262.84 1448.91,-269.43 1457.94,-273.43"/>
</g>
<!-- action&#45;64 -->
<g id="node35" class="node">
<title>action&#45;64</title>
<polygon fill="white" stroke="black" points="1548,-295 1512,-295 1512,-259 1548,-259 1548,-295"/>
</g>
<!-- cluster&#45;15 -->
<g id="node67" class="node">
<title>cluster&#45;15</title>
<polygon fill="black" stroke="black" stroke-width="0" points="1602,-245 1584,-245 1584,-227 1602,-227 1602,-245"/>
</g>
<!-- action&#45;64&#45;&#45;cluster&#45;15 -->
<g id="edge55" class="edge">
<title>action&#45;64&#45;&#45;cluster&#45;15</title>
<path fill="none" stroke="black" d="M1548.32,-265.36C1560.01,-257.5 1574.91,-247.49 1583.94,-241.42"/>
</g>
<!-- action&#45;67 -->
<g id="node36" class="node">
<title>action&#45;67</title>
<polygon fill="white" stroke="black" points="1548,-241 1512,-241 1512,-205 1548,-205 1548,-241"/>
</g>
<!-- action&#45;67&#45;&#45;cluster&#45;15 -->
<g id="edge56" class="edge">
<title>action&#45;67&#45;&#45;cluster&#45;15</title>
<path fill="none" stroke="black" d="M1548.32,-226.69C1560.01,-229.18 1574.91,-232.36 1583.94,-234.28"/>
</g>
<!-- action&#45;68 -->
<g id="node37" class="node">
<title>action&#45;68</title>
<polygon fill="white" stroke="black" points="1674,-254 1638,-254 1638,-218 1674,-218 1674,-254"/>
</g>
<!-- cluster&#45;18 -->
<g id="node70" class="node">
<title>cluster&#45;18</title>
<polygon fill="black" stroke="black" stroke-width="0" points="1728,-191 1710,-191 1710,-173 1728,-173 1728,-191"/>
</g>
<!-- action&#45;68&#45;&#45;cluster&#45;18 -->
<g id="edge61" class="edge">
<title>action&#45;68&#45;&#45;cluster&#45;18</title>
<path fill="none" stroke="black" d="M1674.32,-220.67C1686.01,-210.32 1700.91,-197.13 1709.94,-189.14"/>
</g>
<!-- action&#45;71 -->
<g id="node38" class="node">
<title>action&#45;71</title>
<polygon fill="white" stroke="black" points="1926,-249 1890,-249 1890,-213 1926,-213 1926,-249"/>
</g>
<!-- action&#45;71&#45;&#45;cluster&#45;16 -->
<g id="edge58" class="edge">
<title>action&#45;71&#45;&#45;cluster&#45;16</title>
<path fill="none" stroke="black" d="M1926.32,-231.57C1938.01,-231.95 1952.91,-232.44 1961.94,-232.74"/>
</g>
<!-- action&#45;72 -->
<g id="node39" class="node">
<title>action&#45;72</title>
<polygon fill="white" stroke="black" points="2052,-251 2016,-251 2016,-215 2052,-215 2052,-251"/>
</g>
<!-- cluster&#45;17 -->
<g id="node69" class="node">
<title>cluster&#45;17</title>
<polygon fill="black" stroke="black" stroke-width="0" points="2106,-189 2088,-189 2088,-171 2106,-171 2106,-189"/>
</g>
<!-- action&#45;72&#45;&#45;cluster&#45;17 -->
<g id="edge59" class="edge">
<title>action&#45;72&#45;&#45;cluster&#45;17</title>
<path fill="none" stroke="black" d="M2052.32,-217.95C2064.01,-207.79 2078.91,-194.85 2087.94,-187.01"/>
</g>
<!-- action&#45;75 -->
<g id="node40" class="node">
<title>action&#45;75</title>
<polygon fill="white" stroke="black" points="2052,-197 2016,-197 2016,-161 2052,-161 2052,-197"/>
</g>
<!-- action&#45;75&#45;&#45;cluster&#45;17 -->
<g id="edge60" class="edge">
<title>action&#45;75&#45;&#45;cluster&#45;17</title>
<path fill="none" stroke="black" d="M2052.32,-179.28C2064.01,-179.48 2078.91,-179.72 2087.94,-179.87"/>
</g>
<!-- action&#45;76 -->
<g id="node41" class="node">
<title>action&#45;76</title>
<polygon fill="white" stroke="black" points="2178,-198 2142,-198 2142,-162 2178,-162 2178,-198"/>
</g>
<!-- cluster&#45;20 -->
<g id="node72" class="node">
<title>cluster&#45;20</title>
<polygon fill="black" stroke="black" stroke-width="0" points="2232,-135 2214,-135 2214,-117 2232,-117 2232,-135"/>
</g>
<!-- action&#45;76&#45;&#45;cluster&#45;20 -->
<g id="edge65" class="edge">
<title>action&#45;76&#45;&#45;cluster&#45;20</title>
<path fill="none" stroke="black" d="M2178.32,-164.67C2190.01,-154.32 2204.91,-141.13 2213.94,-133.14"/>
</g>
<!-- action&#45;79 -->
<g id="node42" class="node">
<title>action&#45;79</title>
<polygon fill="white" stroke="black" points="1674,-200 1638,-200 1638,-164 1674,-164 1674,-200"/>
</g>
<!-- action&#45;79&#45;&#45;cluster&#45;18 -->
<g id="edge62" class="edge">
<title>action&#45;79&#45;&#45;cluster&#45;18</title>
<path fill="none" stroke="black" d="M1674.32,-182C1686.01,-182 1700.91,-182 1709.94,-182"/>
</g>
<!-- action&#45;80 -->
<g id="node43" class="node">
<title>action&#45;80</title>
<polygon fill="white" stroke="black" points="1800,-200 1764,-200 1764,-164 1800,-164 1800,-200"/>
</g>
<!-- cluster&#45;19 -->
<g id="node71" class="node">
<title>cluster&#45;19</title>
<polygon fill="black" stroke="black" stroke-width="0" points="1854,-137 1836,-137 1836,-119 1854,-119 1854,-137"/>
</g>
<!-- action&#45;80&#45;&#45;cluster&#45;19 -->
<g id="edge63" class="edge">
<title>action&#45;80&#45;&#45;cluster&#45;19</title>
<path fill="none" stroke="black" d="M1800.32,-166.67C1812.01,-156.32 1826.91,-143.13 1835.94,-135.14"/>
</g>
<!-- action&#45;83 -->
<g id="node44" class="node">
<title>action&#45;83</title>
<polygon fill="white" stroke="black" points="1800,-146 1764,-146 1764,-110 1800,-110 1800,-146"/>
</g>
<!-- action&#45;83&#45;&#45;cluster&#45;19 -->
<g id="edge64" class="edge">
<title>action&#45;83&#45;&#45;cluster&#45;19</title>
<path fill="none" stroke="black" d="M1800.32,-128C1812.01,-128 1826.91,-128 1835.94,-128"/>
</g>
<!-- action&#45;84 -->
<g id="node45" class="node">
<title>action&#45;84</title>
<polygon fill="white" stroke="black" points="1926,-146 1890,-146 1890,-110 1926,-110 1926,-146"/>
</g>
<!-- cluster&#45;21 -->
<g id="node73" class="node">
<title>cluster&#45;21</title>
<polygon fill="black" stroke="black" stroke-width="0" points="1980,-83 1962,-83 1962,-65 1980,-65 1980,-83"/>
</g>
<!-- action&#45;84&#45;&#45;cluster&#45;21 -->
<g id="edge67" class="edge">
<title>action&#45;84&#45;&#45;cluster&#45;21</title>
<path fill="none" stroke="black" d="M1926.32,-112.67C1938.01,-102.32 1952.91,-89.13 1961.94,-81.14"/>
</g>
<!-- action&#45;87 -->
<g id="node46" class="node">
<title>action&#45;87</title>
<polygon fill="white" stroke="black" points="2178,-144 2142,-144 2142,-108 2178,-108 2178,-144"/>
</g>
<!-- action&#45;87&#45;&#45;cluster&#45;20 -->
<g id="edge66" class="edge">
<title>action&#45;87&#45;&#45;cluster&#45;20</title>
<path fill="none" stroke="black" d="M2178.32,-126C2190.01,-126 2204.91,-126 2213.94,-126"/>
</g>
<!-- action&#45;91 -->
<g id="node47" class="node">
<title>action&#45;91</title>
<polygon fill="white" stroke="black" points="1926,-92 1890,-92 1890,-56 1926,-56 1926,-92"/>
</g>
<!-- action&#45;91&#45;&#45;cluster&#45;21 -->
<g id="edge68" class="edge">
<title>action&#45;91&#45;&#45;cluster&#45;21</title>
<path fill="none" stroke="black" d="M1926.32,-74C1938.01,-74 1952.91,-74 1961.94,-74"/>
</g>
<!-- action&#45;92 -->
<g id="node48" class="node">
<title>action&#45;92</title>
<polygon fill="white" stroke="black" points="2052,-92 2016,-92 2016,-56 2052,-56 2052,-92"/>
</g>
<!-- cluster&#45;22 -->
<g id="node74" class="node">
<title>cluster&#45;22</title>
<polygon fill="black" stroke="black" stroke-width="0" points="2106,-81 2088,-81 2088,-63 2106,-63 2106,-81"/>
</g>
<!-- action&#45;92&#45;&#45;cluster&#45;22 -->
<g id="edge69" class="edge">
<title>action&#45;92&#45;&#45;cluster&#45;22</title>
<path fill="none" stroke="black" d="M2052.32,-73.43C2064.01,-73.05 2078.91,-72.56 2087.94,-72.26"/>
</g>
<!-- action&#45;95 -->
<g id="node49" class="node">
<title>action&#45;95</title>
<polygon fill="white" stroke="black" points="2052,-38 2016,-38 2016,-2 2052,-2 2052,-38"/>
</g>
<!-- action&#45;95&#45;&#45;cluster&#45;22 -->
<g id="edge70" class="edge">
<title>action&#45;95&#45;&#45;cluster&#45;22</title>
<path fill="none" stroke="black" d="M2052.32,-34.76C2064.01,-44.73 2078.91,-57.43 2087.94,-65.12"/>
</g>
<!-- action&#45;96 -->
<g id="node50" class="node">
<title>action&#45;96</title>
<polygon fill="#c9211e" stroke="black" points="2178,-90 2142,-90 2142,-54 2178,-54 2178,-90"/>
</g>
<!-- cluster&#45;23 -->
<g id="node75" class="node">
<title>cluster&#45;23</title>
<polygon fill="black" stroke="black" stroke-width="0" points="2232,-81 2214,-81 2214,-63 2232,-63 2232,-81"/>
</g>
<!-- action&#45;96&#45;&#45;cluster&#45;23 -->
<g id="edge71" class="edge">
<title>action&#45;96&#45;&#45;cluster&#45;23</title>
<path fill="none" stroke="black" d="M2178.32,-72C2190.01,-72 2204.91,-72 2213.94,-72"/>
</g>
<!-- action&#45;99 -->
<g id="node51" class="node">
<title>action&#45;99</title>
<polygon fill="#00008b" stroke="black" points="2178,-36 2142,-36 2142,0 2178,0 2178,-36"/>
</g>
<!-- action&#45;99&#45;&#45;cluster&#45;23 -->
<g id="edge72" class="edge">
<title>action&#45;99&#45;&#45;cluster&#45;23</title>
<path fill="none" stroke="black" d="M2178.32,-33.33C2190.01,-43.68 2204.91,-56.87 2213.94,-64.86"/>
</g>
<!-- cluster&#45;0&#45;&#45;action&#45;4 -->
<g id="edge1" class="edge">
<title>cluster&#45;0&#45;&#45;action&#45;4</title>
<path fill="none" stroke="black" d="M90.23,-574C99.33,-574 114.26,-574 125.92,-574"/>
</g>
<!-- cluster&#45;1&#45;&#45;action&#45;8 -->
<g id="edge2" class="edge">
<title>cluster&#45;1&#45;&#45;action&#45;8</title>
<path fill="none" stroke="black" d="M216.23,-547C225.33,-547 240.26,-547 251.92,-547"/>
</g>
<!-- cluster&#45;2&#45;&#45;action&#45;14 -->
<g id="edge3" class="edge">
<title>cluster&#45;2&#45;&#45;action&#45;14</title>
<path fill="none" stroke="black" d="M1602.23,-378C1611.33,-378 1626.26,-378 1637.92,-378"/>
</g>
<!-- cluster&#45;3&#45;&#45;action&#45;18 -->
<g id="edge4" class="edge">
<title>cluster&#45;3&#45;&#45;action&#45;18</title>
<path fill="none" stroke="black" d="M1728.23,-334C1737.33,-334 1752.26,-334 1763.92,-334"/>
</g>
<!-- cluster&#45;4&#45;&#45;action&#45;22 -->
<g id="edge5" class="edge">
<title>cluster&#45;4&#45;&#45;action&#45;22</title>
<path fill="none" stroke="black" d="M342.23,-520C351.33,-520 366.26,-520 377.92,-520"/>
</g>
<!-- cluster&#45;5&#45;&#45;action&#45;26 -->
<g id="edge6" class="edge">
<title>cluster&#45;5&#45;&#45;action&#45;26</title>
<path fill="none" stroke="black" d="M468.23,-493C477.33,-493 492.26,-493 503.92,-493"/>
</g>
<!-- cluster&#45;6&#45;&#45;action&#45;32 -->
<g id="edge7" class="edge">
<title>cluster&#45;6&#45;&#45;action&#45;32</title>
<path fill="none" stroke="black" d="M594.23,-466C603.33,-466 618.26,-466 629.92,-466"/>
</g>
<!-- cluster&#45;7&#45;&#45;action&#45;36 -->
<g id="edge8" class="edge">
<title>cluster&#45;7&#45;&#45;action&#45;36</title>
<path fill="none" stroke="black" d="M720.23,-439C729.33,-439 744.26,-439 755.92,-439"/>
</g>
<!-- cluster&#45;8&#45;&#45;action&#45;40 -->
<g id="edge9" class="edge">
<title>cluster&#45;8&#45;&#45;action&#45;40</title>
<path fill="none" stroke="black" d="M846.23,-412C855.33,-412 870.26,-412 881.92,-412"/>
</g>
<!-- cluster&#45;9&#45;&#45;action&#45;44 -->
<g id="edge10" class="edge">
<title>cluster&#45;9&#45;&#45;action&#45;44</title>
<path fill="none" stroke="black" d="M972.23,-385C981.33,-385 996.26,-385 1007.92,-385"/>
</g>
<!-- cluster&#45;10&#45;&#45;action&#45;48 -->
<g id="edge11" class="edge">
<title>cluster&#45;10&#45;&#45;action&#45;48</title>
<path fill="none" stroke="black" d="M1098.23,-358C1107.33,-358 1122.26,-358 1133.92,-358"/>
</g>
<!-- cluster&#45;11&#45;&#45;action&#45;52 -->
<g id="edge12" class="edge">
<title>cluster&#45;11&#45;&#45;action&#45;52</title>
<path fill="none" stroke="black" d="M1224.23,-331C1233.33,-331 1248.26,-331 1259.92,-331"/>
</g>
<!-- cluster&#45;12&#45;&#45;action&#45;56 -->
<g id="edge13" class="edge">
<title>cluster&#45;12&#45;&#45;action&#45;56</title>
<path fill="none" stroke="black" d="M1350.23,-304C1359.33,-304 1374.26,-304 1385.92,-304"/>
</g>
<!-- cluster&#45;13&#45;&#45;action&#45;60 -->
<g id="edge14" class="edge">
<title>cluster&#45;13&#45;&#45;action&#45;60</title>
<path fill="none" stroke="black" d="M1854.23,-285C1863.33,-285 1878.26,-285 1889.92,-285"/>
</g>
<!-- cluster&#45;14&#45;&#45;action&#45;64 -->
<g id="edge15" class="edge">
<title>cluster&#45;14&#45;&#45;action&#45;64</title>
<path fill="none" stroke="black" d="M1476.23,-277C1485.33,-277 1500.26,-277 1511.92,-277"/>
</g>
<!-- cluster&#45;15&#45;&#45;action&#45;68 -->
<g id="edge16" class="edge">
<title>cluster&#45;15&#45;&#45;action&#45;68</title>
<path fill="none" stroke="black" d="M1602.23,-236C1611.33,-236 1626.26,-236 1637.92,-236"/>
</g>
<!-- cluster&#45;16&#45;&#45;action&#45;72 -->
<g id="edge17" class="edge">
<title>cluster&#45;16&#45;&#45;action&#45;72</title>
<path fill="none" stroke="black" d="M1980.23,-233C1989.33,-233 2004.26,-233 2015.92,-233"/>
</g>
<!-- cluster&#45;17&#45;&#45;action&#45;76 -->
<g id="edge18" class="edge">
<title>cluster&#45;17&#45;&#45;action&#45;76</title>
<path fill="none" stroke="black" d="M2106.23,-180C2115.33,-180 2130.26,-180 2141.92,-180"/>
</g>
<!-- cluster&#45;18&#45;&#45;action&#45;80 -->
<g id="edge19" class="edge">
<title>cluster&#45;18&#45;&#45;action&#45;80</title>
<path fill="none" stroke="black" d="M1728.23,-182C1737.33,-182 1752.26,-182 1763.92,-182"/>
</g>
<!-- cluster&#45;19&#45;&#45;action&#45;84 -->
<g id="edge20" class="edge">
<title>cluster&#45;19&#45;&#45;action&#45;84</title>
<path fill="none" stroke="black" d="M1854.23,-128C1863.33,-128 1878.26,-128 1889.92,-128"/>
</g>
<!-- cluster&#45;20&#45;&#45;action&#45;88 -->
<g id="edge21" class="edge">
<title>cluster&#45;20&#45;&#45;action&#45;88</title>
<path fill="none" stroke="black" d="M2232.23,-126C2241.33,-126 2256.26,-126 2267.92,-126"/>
</g>
<!-- cluster&#45;21&#45;&#45;action&#45;92 -->
<g id="edge22" class="edge">
<title>cluster&#45;21&#45;&#45;action&#45;92</title>
<path fill="none" stroke="black" d="M1980.23,-74C1989.33,-74 2004.26,-74 2015.92,-74"/>
</g>
<!-- cluster&#45;22&#45;&#45;action&#45;96 -->
<g id="edge23" class="edge">
<title>cluster&#45;22&#45;&#45;action&#45;96</title>
<path fill="none" stroke="black" d="M2106.23,-72C2115.33,-72 2130.26,-72 2141.92,-72"/>
</g>
<!-- cluster&#45;23&#45;&#45;action&#45;100 -->
<g id="edge24" class="edge">
<title>cluster&#45;23&#45;&#45;action&#45;100</title>
<path fill="none" stroke="black" d="M2232.23,-72C2241.33,-72 2256.26,-72 2267.92,-72"/>
</g>
</g>
</svg>
